<svg id="Group_35462" data-name="Group 35462" xmlns="http://www.w3.org/2000/svg" width="48.897" height="52.294" viewBox="0 0 48.897 52.294">
  <g id="Group_35463" data-name="Group 35463" transform="translate(0 0)">
    <path id="Path_96584" data-name="Path 96584" d="M27.258,46.116q-7.964,0-15.926,0H2.718V6.05H8.037a2.116,2.116,0,0,0,.34-.019,1.3,1.3,0,0,0,1.106-.941,1.224,1.224,0,0,0-.444-1.435A2.012,2.012,0,0,0,7.98,3.339c-1.665-.012-3.358-.011-5-.01H1.61C.5,3.33,0,3.83,0,4.95V47.214a1.392,1.392,0,0,0,1.59,1.6H27.351A1.528,1.528,0,0,0,27.6,48.8a1.328,1.328,0,0,0,1.083-.883,1.3,1.3,0,0,0-.249-1.341,1.425,1.425,0,0,0-1.181-.461" transform="translate(0 0.079)" fill="#1a73e9"/>
    <path id="Path_96585" data-name="Path 96585" d="M48.3,30.539a1.363,1.363,0,0,0-1.477-1.416,26.572,26.572,0,0,1-5.3-.517A10.251,10.251,0,0,1,37.482,27a1.348,1.348,0,0,0-1.614.007l-.222.153c-.1.073-.21.147-.318.211a11.832,11.832,0,0,1-3.485,1.239,27.2,27.2,0,0,1-5.339.514,1.336,1.336,0,0,0-1.417,1.409c-.006.492-.012,1.14,0,1.791a33.045,33.045,0,0,0,.842,6.838,20.714,20.714,0,0,0,3.192,7.487,12.36,12.36,0,0,0,7.038,4.941,2.111,2.111,0,0,0,.533.074,1.447,1.447,0,0,0,.34-.038,11.9,11.9,0,0,0,5.551-3.052,16.63,16.63,0,0,0,4.1-6.772A32.373,32.373,0,0,0,48.3,31.527l0-.3c0-.226.006-.459-.005-.689m-2.711,1.25-.019.408c-.025.6-.051,1.221-.1,1.835a28.045,28.045,0,0,1-1.4,6.9A14.4,14.4,0,0,1,40.8,46.473a9.19,9.19,0,0,1-4.024,2.413.466.466,0,0,1-.218-.006,9.661,9.661,0,0,1-5.326-4.029,18.481,18.481,0,0,1-2.687-6.6,30.741,30.741,0,0,1-.73-5.767c-.008-.223-.007-.446-.005-.688l.612-.033a20.769,20.769,0,0,0,7.22-1.519c.2-.088.4-.193.594-.294.137-.073.273-.145.423-.23A14.532,14.532,0,0,0,41.75,31.4c.889.132,1.794.209,2.669.283l.1.009c.356.031.711.06,1.063.1" transform="translate(0.591 0.63)"/>
    <path id="Path_96586" data-name="Path 96586" d="M11.486,9.539H26.645a1.36,1.36,0,0,0,1.487-1.494l0-1.91V5.34c0-1.553-.377-1.931-1.921-1.931H23.658c-.025-.073-.048-.145-.074-.216A4.773,4.773,0,0,0,19.361,0L19.2,0a4.855,4.855,0,0,0-4.733,3.414c-.9-.009-1.849-.012-2.983,0a1.344,1.344,0,0,0-1.447,1.46V8.089a1.334,1.334,0,0,0,1.452,1.449m5.529-4.816A2.082,2.082,0,0,1,19.049,2.7h.034a2.132,2.132,0,0,1,2.055,1.967A1.381,1.381,0,0,0,22.73,6.129h2.636l.015.693H12.752V6.129h1.2c.535,0,1.069,0,1.6,0a1.377,1.377,0,0,0,1.46-1.4" transform="translate(0.236 0)" fill="#1a73e9"/>
    <path id="Path_96587" data-name="Path 96587" d="M29.881,6.049q1.967,0,3.929,0h1.437V23.293a2.537,2.537,0,0,0,.014.354,1.3,1.3,0,0,0,.7,1.055,1.428,1.428,0,0,0,.661.168,1.273,1.273,0,0,0,.66-.185,1.48,1.48,0,0,0,.667-1.291V4.92a1.391,1.391,0,0,0-1.6-1.59H29.989a2.772,2.772,0,0,0-.457.03,1.313,1.313,0,0,0-1.119,1.353,1.332,1.332,0,0,0,1.467,1.335" transform="translate(0.67 0.079)" fill="#1a73e9"/>
    <path id="Path_96588" data-name="Path 96588" d="M28.035,14.288A1.428,1.428,0,0,0,26.77,13.6H8.924c-.045,0-.1,0-.144,0a1.309,1.309,0,0,0-1.186.938,1.333,1.333,0,0,0,.184,1.2,1.448,1.448,0,0,0,1.184.559H20.824q2.959,0,5.927,0a1.359,1.359,0,0,0,1.284-2.006" transform="translate(0.177 0.321)" fill="#1a73e9"/>
    <path id="Path_96589" data-name="Path 96589" d="M26.629,26.136a3.192,3.192,0,0,0,.384-.019,1.348,1.348,0,0,0,1.036-1.959,1.387,1.387,0,0,0-1.346-.743h-.034l-17.615,0a2.1,2.1,0,0,0-.442.039,1.369,1.369,0,0,0-.936.7A1.35,1.35,0,0,0,7.64,25.3a1.4,1.4,0,0,0,1.425.835q3.3,0,6.593,0H26.629Z" transform="translate(0.177 0.552)" fill="#1a73e9"/>
    <path id="Path_96590" data-name="Path 96590" d="M8.96,20.642q1.483.009,2.967,0h1.209l2.974,0,.508,0c.293,0,.584,0,.876-.011a1.349,1.349,0,0,0,.154-2.682,2.607,2.607,0,0,0-.455-.033H9.043a1.044,1.044,0,0,0-.67.157,1.8,1.8,0,0,0-.73.727,1.253,1.253,0,0,0,.082,1.207,1.46,1.46,0,0,0,1.235.631" transform="translate(0.177 0.422)" fill="#1a73e9"/>
    <path id="Path_96591" data-name="Path 96591" d="M8.947,27.774a1.556,1.556,0,0,0-.577.1A1.348,1.348,0,0,0,8.9,30.467q.917,0,1.835,0H14.41l2.971,0a1.447,1.447,0,0,0,1.041-.41,1.352,1.352,0,0,0-1.029-2.284q-4.221,0-8.447,0" transform="translate(0.177 0.655)" fill="#1a73e9"/>
    <path id="Path_96592" data-name="Path 96592" d="M41.22,33.906a1.368,1.368,0,0,0-1.413.384l-4.037,4.039c-.283.284-.562.57-.859.875l-.063.064-.409-.409c-.353-.356-.753-.759-1.156-1.14a1.727,1.727,0,0,0-.78-.422,1.3,1.3,0,0,0-1.431.677,1.386,1.386,0,0,0,.267,1.637q1.125,1.138,2.264,2.266l.156.156a1.409,1.409,0,0,0,2.151,0l3.9-3.9q.94-.943,1.882-1.881a1.4,1.4,0,0,0,.446-1.381,1.277,1.277,0,0,0-.916-.972" transform="translate(0.729 0.798)"/>
  </g>
</svg>
