<svg xmlns="http://www.w3.org/2000/svg" width="65.25" height="53.612" viewBox="0 0 65.25 53.612">
  <g id="Group_35465" data-name="Group 35465" transform="translate(0 0)">
    <g id="Group_35466" data-name="Group 35466" transform="translate(0 0)">
      <path id="Path_96593" data-name="Path 96593" d="M39.535,13.8,29.27,3.077,18.87,13.965c.466.04.708.078.949.079,1.371.006,2.742,0,4.112,0a1.625,1.625,0,0,1,1.835,1.82q.011,5.449,0,10.9a1.591,1.591,0,1,1-3.15-.006c-.007-2.863,0-5.725,0-8.589v-.967c-1.164,0-2.26.017-3.355,0a3.3,3.3,0,0,1-3.333-2.982,3.2,3.2,0,0,1,.916-2.708c3.323-3.478,6.637-6.966,9.986-10.418a3.3,3.3,0,0,1,4.94.036q4.963,5.138,9.884,10.317a3.258,3.258,0,0,1,.689,3.8,3.186,3.186,0,0,1-3.17,1.964c-1.032,0-2.066,0-3.232,0v.868c0,2.936.007,5.87,0,8.805a1.565,1.565,0,0,1-2,1.628,1.513,1.513,0,0,1-1.134-1.5q-.025-5.665,0-11.331a1.565,1.565,0,0,1,1.729-1.627c1.395-.019,2.791,0,4.186,0h.7l.128-.244" transform="translate(2.943 0)"/>
      <path id="Path_96594" data-name="Path 96594" d="M20.078,37.856v.979c0,2.791.006,5.582-.006,8.373a3.032,3.032,0,0,1-.158,1.056,1.507,1.507,0,0,1-1.769.907,1.535,1.535,0,0,1-1.215-1.649q-.012-5.557,0-11.115a1.53,1.53,0,0,1,1.715-1.685c1.395-.014,2.791,0,4.186-.006.248,0,.494-.04.923-.078-.28-.34-.428-.544-.6-.725q-4.586-4.8-9.172-9.6c-.4-.422-.662-.492-1.1-.033C9.8,27.521,6.694,30.741,3.6,33.972c-.158.165-.29.354-.552.678.424.032.672.065.918.066,1.371,0,2.742,0,4.114,0A1.589,1.589,0,0,1,9.89,36.539q.011,5.449,0,10.9A1.575,1.575,0,0,1,8.316,49.2a1.559,1.559,0,0,1-1.569-1.765c-.013-2.863-.006-5.727-.007-8.59v-.984c-.718,0-1.379,0-2.042,0-.529,0-1.061.025-1.586-.026A3.186,3.186,0,0,1,.267,35.716a3.114,3.114,0,0,1,.647-3.483c2.69-2.853,5.412-5.676,8.122-8.509.615-.644,1.224-1.293,1.846-1.928a3.453,3.453,0,0,1,5.028-.012q4.954,5.146,9.878,10.322a3.224,3.224,0,0,1,.732,3.663,3.187,3.187,0,0,1-3.1,2.081c-1.078.028-2.158.006-3.346.006" transform="translate(0 3.833)" fill="#1a73e9"/>
      <path id="Path_96595" data-name="Path 96595" d="M35.495,35.157c.476.025.731.049.987.049,1.395,0,2.79-.011,4.185.009a1.514,1.514,0,0,1,1.653,1.672q.014,5.557,0,11.115a1.524,1.524,0,0,1-1.564,1.689A1.556,1.556,0,0,1,39.178,48c-.015-2.887-.006-5.774-.006-8.661v-.986c-.93,0-1.807-.009-2.684,0a4.1,4.1,0,0,1-2.616-.626,3.318,3.318,0,0,1-.555-4.955q5.036-5.369,10.174-10.64a3.423,3.423,0,0,1,4.917.2q4.6,4.786,9.184,9.59c.265.279.545.545.792.84a3.2,3.2,0,0,1,.575,3.5,3.116,3.116,0,0,1-2.882,2.056c-1.147.059-2.3.013-3.525.013-.017.34-.04.595-.04.849q0,4.222,0,8.445a5.009,5.009,0,0,1-.031.719,1.561,1.561,0,0,1-3.1-.114c-.04-.743-.017-1.491-.018-2.236V37.548c0-1.932.4-2.341,2.306-2.341,1.2,0,2.406,0,3.608,0,.251,0,.5-.039.933-.075-.292-.35-.456-.572-.646-.772Q51,29.586,46.435,24.813c-.382-.4-.646-.542-1.1-.062-3.1,3.263-6.22,6.5-9.33,9.749-.141.148-.252.324-.508.657" transform="translate(6.007 3.921)" fill="#1a73e9"/>
    </g>
  </g>
</svg>
