<svg xmlns="http://www.w3.org/2000/svg" width="65.834" height="43.098" viewBox="0 0 65.834 43.098">
  <g id="Group_35459" data-name="Group 35459" transform="translate(0 0)">
    <g id="Group_35460" data-name="Group 35460">
      <path id="Path_96581" data-name="Path 96581" d="M13.708,32.818a2.865,2.865,0,0,1,.523-1.9A.486.486,0,0,0,14.1,30.2a3.448,3.448,0,0,1-1.2-2.811,3.7,3.7,0,0,1,2.172-3.322c1.548-.771,3.1-1.527,4.659-2.286.417-.2.835-.406,1.263-.589a1.156,1.156,0,0,1,1.358.491,1.076,1.076,0,0,1-.073,1.289,5.134,5.134,0,0,1-1.078.711c-1.148.59-2.314,1.151-3.471,1.724-.623.308-1.262.587-1.86.937a1.314,1.314,0,0,0-.629,1.37A1.588,1.588,0,0,0,16.617,28.9a2.45,2.45,0,0,0,.933-.282c1.171-.554,2.333-1.128,3.5-1.7,1.085-.537,2.161-1.091,3.248-1.624s2.183-1.049,3.276-1.572c.233-.112.466-.226.7-.332a1.175,1.175,0,0,1,1.541.467,1.262,1.262,0,0,1-.6,1.662c-1.321.613-2.607,1.3-3.916,1.938s-2.613,1.241-3.913,1.874c-.907.44-1.8.907-2.7,1.356-.634.315-1.277.611-1.908.931a1.392,1.392,0,1,0,1.288,2.468c1.086-.564,2.212-1.051,3.311-1.59s2.157-1.1,3.243-1.635,2.161-1.039,3.24-1.564c.882-.43,1.76-.869,2.639-1.306.465-.231.92-.481,1.392-.693a1.222,1.222,0,0,1,1.445.452,1.107,1.107,0,0,1-.327,1.578c-.708.4-1.444.758-2.174,1.123-.924.463-1.854.917-2.781,1.371q-1.286.63-2.571,1.251c-.894.435-1.79.866-2.685,1.3-.709.348-1.417.7-2.125,1.053a1.374,1.374,0,0,0-.852,1.244,1.29,1.29,0,0,0,.789,1.321A1.6,1.6,0,0,0,21.762,38c1.087-.468,2.13-1.038,3.2-1.558,1.116-.545,2.239-1.072,3.354-1.618.9-.442,1.8-.908,2.7-1.349.879-.43,1.767-.841,2.653-1.26.257-.123.516-.245.773-.37a1.2,1.2,0,0,1,1.518.462,1.253,1.253,0,0,1-.582,1.665c-1.34.641-2.666,1.314-4,1.963-1.1.537-2.214,1.057-3.318,1.589-.417.2-.84.395-1.238.631A1.405,1.405,0,0,0,26.75,40.6a1.472,1.472,0,0,0,1.393.049c.85-.364,1.663-.811,2.492-1.218.93-.456,1.862-.9,2.792-1.357q1.307-.636,2.608-1.277c.9-.445,1.808-.894,2.714-1.34q1.389-.686,2.782-1.368c.88-.43,1.769-.841,2.64-1.288A23.655,23.655,0,0,0,46.313,31.6c1.221-.8,2.452-1.594,3.592-2.5,1.359-1.078,2.627-2.269,3.928-3.416.34-.3.653-.626,1-.917a.524.524,0,0,0,.141-.7c-.421-.87-.859-1.732-1.285-2.6-.353-.719-.7-1.443-1.048-2.164q-.476-.972-.956-1.94c-.446-.9-.9-1.8-1.341-2.708s-.883-1.814-1.327-2.721-.889-1.811-1.334-2.716C47.132,8.114,46.6,7,46.032,5.9a1.285,1.285,0,0,1,.54-1.8c1.391-.689,2.785-1.367,4.179-2.048,1.237-.6,2.5-1.163,3.705-1.828a1.273,1.273,0,0,1,1.676.622c.768,1.567,1.544,3.129,2.308,4.7.627,1.286,1.231,2.583,1.86,3.867.533,1.086,1.1,2.156,1.632,3.242s1.049,2.214,1.588,3.313c.628,1.286,1.277,2.562,1.913,3.844a5.14,5.14,0,0,1,.372.806c.154.521-.339,1.1-.807,1.328q-2.343,1.163-4.7,2.307c-.9.44-1.85.809-2.721,1.309a9.8,9.8,0,0,0-1.472,1.228c-1.55,1.365-3.06,2.777-4.652,4.091a27.613,27.613,0,0,1-4.69,3.136c-1.616.853-3.233,1.7-4.866,2.524-1.29.648-2.607,1.24-3.9,1.871-1.09.53-2.164,1.087-3.25,1.62s-2.187,1.048-3.278,1.578c-.725.351-1.441.715-2.163,1.071a3.762,3.762,0,0,1-5.087-1.527,4.45,4.45,0,0,1-.307-.838c-.139-.524-.318-.59-.788-.345a3.643,3.643,0,0,1-5.605-2.828c-.047-.377-.181-.5-.546-.557a3.617,3.617,0,0,1-2.872-1.99,10.525,10.525,0,0,1-.513-1.74l.124-.031" fill="#1a73e9"/>
      <path id="Path_96582" data-name="Path 96582" d="M40.134,14.7a6.9,6.9,0,0,1-2.672-.54c-.971-.36-1.966-.652-2.946-.986-.684-.232-1.363-.477-2.04-.728a.411.411,0,0,0-.616.249,10.984,10.984,0,0,1-3.925,4.779,7.63,7.63,0,0,1-3.526,1.335,13.687,13.687,0,0,1-2.2.152,12.206,12.206,0,0,1-3.528-.7,3.322,3.322,0,0,1-.686-.248,1.231,1.231,0,0,1-.408-1.528,1.3,1.3,0,0,1,1.579-.5,8.866,8.866,0,0,0,1.741.44,8.353,8.353,0,0,0,1.5.23,7.274,7.274,0,0,0,6.585-3.587,9.457,9.457,0,0,0,1.166-2.465A1.309,1.309,0,0,1,32.027,9.8c.7.294,1.437.514,2.157.766.746.261,1.489.528,2.237.781.709.241,1.415.5,2.137.69a10.542,10.542,0,0,0,1.762.321c1.116.1,1.663-.5,2.108-1.422.036-.074.058-.155.092-.229.2-.423.115-.57-.321-.717-1.058-.356-2.106-.741-3.162-1.1-.98-.334-1.968-.645-2.948-.978-.7-.237-1.385-.5-2.08-.742s-1.368-.459-2.05-.694c-.747-.257-1.489-.525-2.236-.782-.669-.23-1.338-.465-2.015-.674a11.46,11.46,0,0,0-1.42-.364A4.128,4.128,0,0,0,23.53,5.2a6.735,6.735,0,0,1-3.287.9,11.138,11.138,0,0,1-2.364-.439c-.367-.086-.527-.026-.641.327-.243.752-.515,1.494-.768,2.242-.24.709-.468,1.423-.706,2.133q-.339,1.007-.69,2.01c-.255.734-.515,1.465-.771,2.2s-.514,1.464-.767,2.2q-.348,1.005-.688,2.012c-.241.709-.476,1.419-.718,2.128-.255.747-.517,1.493-.772,2.24-.212.618-.392,1.249-.634,1.855a1.25,1.25,0,0,1-1.737.67c-.763-.289-1.546-.524-2.317-.793-.7-.241-1.383-.5-2.079-.744s-1.4-.461-2.1-.695c-.62-.208-1.255-.385-1.853-.644a1.111,1.111,0,0,1-.488-1.606A9.146,9.146,0,0,0,.5,20.189c.482-1.4.972-2.8,1.446-4.211.432-1.277.837-2.563,1.273-3.838.334-.98.709-1.947,1.046-2.926s.649-1.994.986-2.987c.241-.709.513-1.408.758-2.116s.459-1.4.7-2.093c.179-.515.351-1.036.579-1.53.219-.477,1.047-.611,1.7-.372,1.076.39,2.165.74,3.246,1.116.991.345,1.977.7,2.967,1.05.63.221,1.263.434,1.9.65.7.238,1.4.466,2.09.715a3.16,3.16,0,0,0,2.59-.252,8.293,8.293,0,0,1,5.332-1.01,7.788,7.788,0,0,1,1.26.352q1.688.564,3.365,1.152c1.259.442,2.511.908,3.772,1.346.978.34,1.969.644,2.949.981s1.971.708,2.96,1.053c.683.238,1.372.454,2.058.683a5.691,5.691,0,0,1,.92.334,1.084,1.084,0,0,1,.7.982,5.592,5.592,0,0,1-2.109,4.63,3.727,3.727,0,0,1-2.848.8M9.083,2.784c-.186.484-.381.954-.548,1.434C8.261,5,8.005,5.8,7.74,6.584c-.337,1-.671,2.009-1.013,3.012-.219.644-.448,1.285-.674,1.928-.248.7-.5,1.4-.747,2.11-.27.784-.524,1.573-.8,2.357-.214.618-.447,1.229-.663,1.846-.183.523-.355,1.05-.529,1.577-.127.388-.271.772-.359,1.169a.5.5,0,0,0,.153.436,3.461,3.461,0,0,0,.758.3c.8.27,1.606.532,2.409.8.709.236,1.416.48,2.127.71.317.1.481.005.585-.353.212-.73.507-1.436.754-2.157s.467-1.42.7-2.129c.132-.4.259-.8.4-1.2.339-.947.7-1.887,1.025-2.839.247-.719.445-1.454.686-2.175.371-1.109.759-2.212,1.14-3.318l.357-1.041c.288-.838.584-1.674.854-2.518a.376.376,0,0,0-.159-.331c-.773-.3-1.554-.582-2.338-.853-1.068-.37-2.141-.726-3.331-1.128"/>
      <path id="Path_96583" data-name="Path 96583" d="M9.083,2.784c1.19.4,2.263.758,3.331,1.128.784.271,1.565.553,2.338.853a.376.376,0,0,1,.159.331c-.27.844-.566,1.68-.854,2.518L13.7,8.655c-.381,1.106-.769,2.209-1.14,3.318-.241.721-.439,1.456-.686,2.175-.327.952-.686,1.892-1.025,2.839-.143.4-.27.8-.4,1.2-.234.709-.459,1.422-.7,2.129s-.542,1.427-.754,2.157c-.1.358-.268.455-.585.353-.711-.23-1.418-.474-2.127-.71-.8-.267-1.607-.529-2.409-.8a3.461,3.461,0,0,1-.758-.3.5.5,0,0,1-.153-.436c.088-.4.232-.781.359-1.169.174-.527.346-1.054.529-1.577.216-.617.449-1.228.663-1.846.271-.784.525-1.573.8-2.357.244-.7.5-1.407.747-2.11.226-.643.455-1.284.674-1.928.342-1,.676-2.008,1.013-3.012.265-.788.521-1.58.8-2.366.167-.48.362-.95.548-1.434" fill="#fff"/>
    </g>
  </g>
</svg>
