<svg xmlns="http://www.w3.org/2000/svg" width="12.843" height="12.843" viewBox="0 0 12.843 12.843"><defs><style>.a{fill:#95adde;}</style></defs><path class="a" d="M1169.585,930.184l-1.193,1.193-2.429-2.429-.921.922,2.429,2.429-5.958,5.957-2.429-2.429-.921.921,2.429,2.429-.594.594-.011-.011a.471.471,0,0,1-.3.216l-2.265.505a.471.471,0,0,1-.562-.562l.5-2.264a.471.471,0,0,1,.216-.3l-.012-.012,9.588-9.588a.361.361,0,0,1,.51,0l1.92,1.919A.36.36,0,0,1,1169.585,930.184Z" transform="translate(-1156.848 -927.649)"/></svg>