<svg xmlns="http://www.w3.org/2000/svg" width="24.676" height="24.573" viewBox="0 0 24.676 24.573"><defs><style>.a{fill:#fff;}.b{fill:#80aed1;stroke:#95adde;stroke-width:0.2px;}</style></defs><g transform="translate(0 0.1)"><circle class="a" cx="11.984" cy="11.984" r="11.984" transform="translate(0 0.202)"/><g transform="translate(0.203)"><path class="b" d="M12.186,0A12.186,12.186,0,1,0,24.373,12.186,12.2,12.2,0,0,0,12.186,0Zm0,22.485a10.3,10.3,0,1,1,10.3-10.3A10.31,10.31,0,0,1,12.186,22.485Z"/><g transform="translate(6.523 6.438)"><path class="b" d="M147.405,139.958H143.63v-3.776a.944.944,0,1,0-1.888,0v3.776h-3.776a.944.944,0,0,0,0,1.888h3.776v3.776a.944.944,0,1,0,1.888,0v-3.776h3.776a.944.944,0,0,0,0-1.888Z" transform="translate(-137.022 -135.238)"/></g></g></g></svg>