<svg id="Group_6300" data-name="Group 6300" xmlns="http://www.w3.org/2000/svg" xmlns:xlink="http://www.w3.org/1999/xlink" width="27.939" height="32.036" viewBox="0 0 27.939 32.036">
  <defs>
    <clipPath id="clip-path">
      <rect id="Rectangle_5170" data-name="Rectangle 5170" width="27.939" height="32.036" transform="translate(0 0)" fill="#e7245f"/>
    </clipPath>
  </defs>
  <g id="Group_6191" data-name="Group 6191" transform="translate(0 0)" clip-path="url(#clip-path)">
    <path id="Path_36018" data-name="Path 36018" d="M27.93,16c0,2.519-.008,5.039.009,7.558a.78.78,0,0,1-.447.791q-6.547,3.758-13.074,7.55a.785.785,0,0,1-.91-.014q-6.5-3.774-13.02-7.516A.837.837,0,0,1,0,23.528Q.022,16,0,8.475a.793.793,0,0,1,.453-.794Q6.975,3.939,13.475.164a.84.84,0,0,1,.973-.017Q20.974,3.941,27.522,7.7a.733.733,0,0,1,.415.743c-.013,2.519-.007,5.039-.007,7.558M12.594,20.885,17.04,11.99l-1.686-.85-4.448,8.9,1.687.849m11.854-4.847-3.737-3.751-1.379,1.226,2.61,2.574-2.5,2.449,1.274,1.245,3.736-3.745M7.3,12.3,3.575,16.019l3.679,3.7L8.66,18.453,6.068,15.916l2.485-2.361L7.3,12.3" transform="translate(0 0)" fill="#e7245f"/>
  </g>
</svg>
