<svg xmlns="http://www.w3.org/2000/svg" xmlns:xlink="http://www.w3.org/1999/xlink" width="144.783" height="44.577" viewBox="0 0 144.783 44.577">
  <defs>
    <clipPath id="clip-path">
      <rect id="Rectangle_12878" data-name="Rectangle 12878" width="97.001" height="22.553" fill="none"/>
    </clipPath>
  </defs>
  <g id="Group_16725" data-name="Group 16725" transform="translate(-3.139)">
    <g id="Group_17282" data-name="Group 17282" transform="translate(0 0)">
      <g id="Group_17271" data-name="Group 17271">
        <g id="Group_17283" data-name="Group 17283">
          <path id="Path_64633" data-name="Path 64633" d="M175.8,108.987H52.282A10.634,10.634,0,0,1,41.648,98.353V75.044A10.634,10.634,0,0,1,52.282,64.41H175.8a10.634,10.634,0,0,1,10.634,10.634V98.353A10.634,10.634,0,0,1,175.8,108.987" transform="translate(-38.509 -64.41)" fill="#f0f5f7"/>
        </g>
      </g>
      <g id="Group_17285" data-name="Group 17285" transform="translate(25.235 11.003)">
        <g id="Group_17285-2" data-name="Group 17285" clip-path="url(#clip-path)">
          <path id="Path_64645" data-name="Path 64645" d="M408.465,5.618A2.4,2.4,0,0,1,411,8.305,2.4,2.4,0,0,1,408.465,11h-1.808V5.618Zm-1.137,4.775h1.092c1.219,0,1.9-.746,1.9-2.08s-.675-2.091-1.9-2.091h-1.092Z" transform="translate(-375.267 -5.184)" fill="#333"/>
          <path id="Path_64646" data-name="Path 64646" d="M474.9,26.213a1.806,1.806,0,1,1,3.589,0,1.806,1.806,0,1,1-3.589,0m2.93,0c0-.913-.447-1.435-1.133-1.435s-1.137.522-1.137,1.435.451,1.435,1.137,1.435,1.133-.522,1.133-1.435" transform="translate(-438.245 -22.339)" fill="#333"/>
          <path id="Path_64647" data-name="Path 64647" d="M534.86,28.954h-.66l-.876-3h-.015l-.872,3h-.66l-1.085-3.876h.645l.775,3.153h.015L533,25.078h.626l.88,3.153h.015l.775-3.153h.641Z" transform="translate(-489.728 -23.142)" fill="#333"/>
          <path id="Path_64648" data-name="Path 64648" d="M610.48,24.275h.611v.619h.015a1.3,1.3,0,0,1,1.23-.686,1.276,1.276,0,0,1,1.342,1.428v2.516h-.649v-2.4c0-.626-.294-.969-.891-.969a.989.989,0,0,0-1.01,1.088v2.281h-.649Z" transform="translate(-563.356 -22.339)" fill="#333"/>
          <rect id="Rectangle_12877" data-name="Rectangle 12877" width="0.649" height="5.379" transform="translate(51.561 0.434)" fill="#333"/>
          <path id="Path_64649" data-name="Path 64649" d="M690.19,26.213a1.806,1.806,0,1,1,3.589,0,1.806,1.806,0,1,1-3.589,0m2.93,0c0-.913-.447-1.435-1.133-1.435s-1.137.522-1.137,1.435.451,1.435,1.137,1.435,1.133-.522,1.133-1.435" transform="translate(-636.913 -22.339)" fill="#333"/>
          <path id="Path_64650" data-name="Path 64650" d="M748.055,27.057c0-.663.511-1.081,1.405-1.133l1.111-.063v-.324c0-.473-.313-.757-.85-.757a.813.813,0,0,0-.895.615H748.2a1.368,1.368,0,0,1,1.536-1.185c.909,0,1.483.492,1.483,1.264v2.68H750.6v-.667h-.015a1.413,1.413,0,0,1-1.245.734,1.164,1.164,0,0,1-1.29-1.163m2.516-.376v-.317l-1.036.063c-.522.034-.82.265-.82.63s.309.611.775.611a1.02,1.02,0,0,0,1.081-.988" transform="translate(-690.311 -22.34)" fill="#333"/>
          <path id="Path_64651" data-name="Path 64651" d="M802.2,9.058c0-1.215.667-2.005,1.644-2.005a1.362,1.362,0,0,1,1.234.7h.015V5.618h.649V11h-.619v-.656h-.011a1.387,1.387,0,0,1-1.252.723c-.988,0-1.659-.79-1.659-2.005m.664,0c0,.88.432,1.435,1.118,1.435.667,0,1.115-.567,1.115-1.435s-.447-1.435-1.115-1.435c-.686,0-1.118.559-1.118,1.435" transform="translate(-740.279 -5.184)" fill="#333"/>
          <path id="Path_64652" data-name="Path 64652" d="M887.127,26.213a1.806,1.806,0,1,1,3.589,0,1.806,1.806,0,1,1-3.589,0m2.93,0c0-.913-.447-1.435-1.133-1.435s-1.137.522-1.137,1.435.451,1.435,1.137,1.435,1.133-.522,1.133-1.435" transform="translate(-818.648 -22.339)" fill="#333"/>
          <path id="Path_64653" data-name="Path 64653" d="M947.02,24.275h.611v.619h.015a1.3,1.3,0,0,1,1.23-.686,1.276,1.276,0,0,1,1.342,1.428v2.516h-.649v-2.4c0-.626-.294-.969-.891-.969a.989.989,0,0,0-1.01,1.088v2.281h-.648Z" transform="translate(-873.918 -22.339)" fill="#333"/>
          <path id="Path_64654" data-name="Path 64654" d="M1025.733,12.957v.936h.753v.533h-.753v2.3c0,.354.149.514.481.514a2.534,2.534,0,0,0,.268-.019v.544a2.306,2.306,0,0,1-.41.03c-.712,0-.988-.291-.988-1.036V14.426h-.578v-.533h.578v-.936Z" transform="translate(-945.424 -11.957)" fill="#333"/>
          <path id="Path_64655" data-name="Path 64655" d="M1064.459,5.618h.649V7.739h.015a1.283,1.283,0,0,1,1.23-.686,1.308,1.308,0,0,1,1.364,1.439V11h-.649V8.611a.86.86,0,0,0-.917-.984,1.007,1.007,0,0,0-1.044,1.111V11h-.649Z" transform="translate(-982.292 -5.184)" fill="#333"/>
          <path id="Path_64656" data-name="Path 64656" d="M1123.212,27.042a1.535,1.535,0,0,1-1.614,1.178,1.758,1.758,0,0,1-1.785-1.99,1.791,1.791,0,0,1,1.755-2.02,1.7,1.7,0,0,1,1.692,1.934v.246h-2.781v.037a1.108,1.108,0,0,0,1.133,1.23.936.936,0,0,0,.962-.615Zm-2.728-1.159h2.106a1.037,1.037,0,0,0-1.032-1.111,1.089,1.089,0,0,0-1.074,1.111" transform="translate(-1033.373 -22.34)" fill="#333"/>
          <path id="Path_64657" data-name="Path 64657" d="M406.4,131.126h1.678l3.633,10h-1.629l-.915-2.7h-3.855l-.922,2.7h-1.629Zm-.672,6.053h3.016l-1.491-4.4h-.028Z" transform="translate(-371.667 -121.004)" fill="#333"/>
          <path id="Path_64658" data-name="Path 64658" d="M539.862,164.588h1.5v1.255h.035a2.457,2.457,0,0,1,2.281-1.394c1.858,0,3.051,1.456,3.051,3.786v.007c0,2.323-1.2,3.786-3.03,3.786a2.506,2.506,0,0,1-2.3-1.373h-.035v3.654h-1.5Zm5.339,3.654v-.007c0-1.553-.742-2.5-1.914-2.5-1.137,0-1.934.984-1.934,2.5v.007c0,1.511.8,2.5,1.934,2.5,1.179,0,1.914-.957,1.914-2.5" transform="translate(-498.189 -151.755)" fill="#333"/>
          <path id="Path_64659" data-name="Path 64659" d="M652.987,164.588h1.5v1.255h.035a2.457,2.457,0,0,1,2.281-1.394c1.858,0,3.051,1.456,3.051,3.786v.007c0,2.323-1.2,3.786-3.03,3.786a2.505,2.505,0,0,1-2.3-1.373h-.035v3.654h-1.5Zm5.339,3.654v-.007c0-1.553-.742-2.5-1.914-2.5-1.137,0-1.934.984-1.934,2.5v.007c0,1.511.8,2.5,1.934,2.5,1.179,0,1.914-.957,1.914-2.5" transform="translate(-602.582 -151.755)" fill="#333"/>
          <path id="Path_64660" data-name="Path 64660" d="M809.089,136.479l-.007-.1h1.511l.014.09c.139.922,1.061,1.5,2.4,1.5s2.184-.6,2.184-1.539v-.007c0-.8-.548-1.241-1.872-1.532l-1.089-.229c-1.962-.416-2.912-1.317-2.912-2.8v-.007c.007-1.706,1.511-2.877,3.626-2.877,2.087,0,3.515,1.137,3.619,2.815l.007.118h-1.512l-.007-.1c-.139-.929-.943-1.491-2.128-1.491-1.241.007-2.031.6-2.031,1.47v.007c0,.749.568,1.206,1.817,1.477l1.1.229c2.066.437,2.953,1.276,2.953,2.822v.007c0,1.823-1.442,2.981-3.813,2.981-2.246,0-3.73-1.068-3.855-2.829" transform="translate(-746.628 -119.015)" fill="#333"/>
          <path id="Path_64661" data-name="Path 64661" d="M926.4,148.908v-4.181H925.35v-1.193H926.4v-1.9h1.532v1.9h1.366v1.193h-1.366v4.091c0,.742.333.964.964.964a3.13,3.13,0,0,0,.4-.028v1.158a5.007,5.007,0,0,1-.763.062c-1.442,0-2.135-.61-2.135-2.066" transform="translate(-853.921 -130.702)" fill="#333"/>
          <path id="Path_64662" data-name="Path 64662" d="M995.179,168.235v-.014c0-2.33,1.38-3.772,3.453-3.772s3.467,1.435,3.467,3.772v.014c0,2.35-1.373,3.792-3.46,3.792s-3.46-1.449-3.46-3.792m5.387,0v-.014c0-1.595-.763-2.517-1.934-2.517-1.151,0-1.921.922-1.921,2.517v.014c0,1.615.763,2.538,1.934,2.538s1.92-.929,1.92-2.538" transform="translate(-918.36 -151.755)" fill="#333"/>
          <path id="Path_64663" data-name="Path 64663" d="M1109.021,164.588h1.5v1.248h.035a1.716,1.716,0,0,1,1.678-1.387,2.9,2.9,0,0,1,.52.055V165.9a2.142,2.142,0,0,0-.672-.083,1.512,1.512,0,0,0-1.56,1.719v4.347h-1.5Z" transform="translate(-1023.414 -151.755)" fill="#333"/>
          <path id="Path_64664" data-name="Path 64664" d="M1170.318,168.262v-.007c0-2.281,1.317-3.806,3.363-3.806s3.3,1.47,3.3,3.661v.506h-5.165c.028,1.38.784,2.184,1.976,2.184a1.654,1.654,0,0,0,1.664-1.005l.021-.056h1.421l-.014.076a2.988,2.988,0,0,1-3.127,2.212c-2.142,0-3.439-1.463-3.439-3.765m1.518-.707h3.661c-.125-1.262-.832-1.879-1.81-1.879a1.86,1.86,0,0,0-1.851,1.879" transform="translate(-1079.979 -151.755)" fill="#333"/>
          <path id="Path_64665" data-name="Path 64665" d="M17.746,8.139a5.753,5.753,0,0,0-1.9,1.956,4.59,4.59,0,0,0-.5,2.126,4.443,4.443,0,0,0,.3,1.657,5.468,5.468,0,0,0,.845,1.426,5.779,5.779,0,0,0,1.828,1.341,12.221,12.221,0,0,1-1.537,2.963,9.275,9.275,0,0,1-1.887,2.143,2.731,2.731,0,0,1-1.614.632,5.029,5.029,0,0,1-1.657-.393l-.325-.12-.529-.222a4.3,4.3,0,0,0-1.247-.171,4.774,4.774,0,0,0-1.571.308l-.41.154-.512.2a3.369,3.369,0,0,1-1.23.239q-1.3,0-2.784-1.819A13.371,13.371,0,0,1,.76,16.653,12.3,12.3,0,0,1,0,12.426,6.8,6.8,0,0,1,1.563,7.849,5.294,5.294,0,0,1,5.807,6.021a4.673,4.673,0,0,1,1.828.359l.393.154.41.171a2.483,2.483,0,0,0,.871.222,2.6,2.6,0,0,0,.956-.188l.547-.2L11.2,6.38a5.99,5.99,0,0,1,2.118-.359,5.362,5.362,0,0,1,4.424,2.118M13.408,0q.034.376.034.581a4.556,4.556,0,0,1-.615,2.186,4.644,4.644,0,0,1-1.606,1.751,4.021,4.021,0,0,1-2.186.623,5.42,5.42,0,0,1-.051-.6,4.027,4.027,0,0,1,.538-1.9,5.225,5.225,0,0,1,1.46-1.7A4.613,4.613,0,0,1,13.066.051q.1-.017.342-.051" fill="#333"/>
        </g>
      </g>
    </g>
  </g>
</svg>
