<svg xmlns="http://www.w3.org/2000/svg" width="24.166" height="18.589" viewBox="0 0 24.166 18.589"><defs><style>.a{fill:#e8c8c8;}</style></defs><path class="a" d="M61,312.929v9.6a1.859,1.859,0,0,0,3.718,0V312H61.929A.929.929,0,0,0,61,312.929Z" transform="translate(-61 -305.804)"/><path class="a" d="M236,287h8.055v1.859H236Z" transform="translate(-225.156 -282.353)"/><path class="a" d="M161.088,212h-16.73a.93.93,0,0,0-.929.929v15.8a3.694,3.694,0,0,1-.5,1.859h17.231a1.859,1.859,0,0,0,1.859-1.859v-15.8A.929.929,0,0,0,161.088,212Zm-3.408,15.8h-9.914a.929.929,0,1,1,0-1.859h9.914a.929.929,0,0,1,0,1.859Zm0-3.718h-9.914a.929.929,0,1,1,0-1.859h9.914a.929.929,0,0,1,0,1.859Zm.929-4.647a.929.929,0,0,1-.929.929h-9.914a.93.93,0,0,1-.929-.929v-3.718a.929.929,0,0,1,.929-.929h9.914a.929.929,0,0,1,.929.929Z" transform="translate(-137.851 -212)"/></svg>