<svg xmlns="http://www.w3.org/2000/svg" xmlns:xlink="http://www.w3.org/1999/xlink" width="96" height="96" viewBox="0 0 96 96">
  <defs>
    <clipPath id="clip-path">
      <rect id="Rectangle_6479" data-name="Rectangle 6479" width="55.319" height="71.841" fill="#e8c8c8" stroke="#e8c8c8" stroke-width="0.5"/>
    </clipPath>
    <clipPath id="clip-articles">
      <rect width="96" height="96"/>
    </clipPath>
  </defs>
  <g id="articles" clip-path="url(#clip-articles)">
    <g id="Group_7230" data-name="Group 7230" transform="translate(20.341 12.08)">
      <g id="Group_7229" data-name="Group 7229" transform="translate(0 0)" clip-path="url(#clip-path)">
        <path id="Path_39222" data-name="Path 39222" d="M55.294,71.841H0V.027C.122.021.281.008.441.008q22.02,0,44.04-.008a1.151,1.151,0,0,1,.87.373c2.955,2.858,5.9,5.727,8.9,8.537A3.071,3.071,0,0,1,55.318,11.4q-.052,28.375-.023,56.751v3.688M4.767,4.766V67.047h45.74v-1.3q0-25.246,0-50.492c0-.8-.027-1.6.017-2.4.022-.421-.116-.509-.5-.506-2.313.015-4.626,0-6.939.015-.389,0-.517-.084-.515-.5.017-2.238-.005-4.476,0-6.714,0-.3-.077-.4-.384-.385-.406.026-.816.007-1.223.007H4.767" transform="translate(0 0)" fill="#e8c8c8" stroke="#e8c8c8" stroke-width="0.5"/>
        <path id="Path_39223" data-name="Path 39223" d="M31.748,30.956q-7.1,0-14.195,0a2.391,2.391,0,0,1-1.747-.471,1.906,1.906,0,0,1-.59-2.056A1.714,1.714,0,0,1,16.73,27.12a4.093,4.093,0,0,1,.541-.044q14.559-.007,29.116-.02a1.951,1.951,0,0,1,1.732,3,1.928,1.928,0,0,1-1.859.9c-2.358.007-4.717,0-7.075,0H31.748Z" transform="translate(-4.117 -7.365)" fill="#e8c8c8" stroke="#e8c8c8" stroke-width="0.5"/>
        <path id="Path_39224" data-name="Path 39224" d="M31.807,43.444q-7.276,0-14.553,0a1.909,1.909,0,0,1-2.068-1.465,1.861,1.861,0,0,1,1.584-2.347,15.364,15.364,0,0,1,1.718-.052q13.782,0,27.564,0a3.993,3.993,0,0,1,1.076.112,1.934,1.934,0,0,1-.5,3.749c-.136.009-.272,0-.408,0H31.807" transform="translate(-4.117 -10.773)" fill="#e8c8c8" stroke="#e8c8c8" stroke-width="0.5"/>
        <path id="Path_39225" data-name="Path 39225" d="M31.718,67.565H17.612c-.181,0-.362,0-.544-.013a1.921,1.921,0,1,1,.1-3.835l25.536.017c1.285,0,2.571-.02,3.855,0a1.754,1.754,0,0,1,1.772,1.4,1.8,1.8,0,0,1-.834,2.147,2.9,2.9,0,0,1-1.261.266c-4.838.017-9.676.011-14.514.011Z" transform="translate(-4.108 -17.345)" fill="#e8c8c8" stroke="#e8c8c8" stroke-width="0.5"/>
        <path id="Path_39226" data-name="Path 39226" d="M30.963,79.365q-7.324,0-14.647,0a1.868,1.868,0,0,1-1.857-2.6,1.758,1.758,0,0,1,1.653-1.2c.452-.031.907-.02,1.36-.021H45.224c.181,0,.363,0,.544.007a1.91,1.91,0,0,1-.067,3.819q-7.369.005-14.738,0" transform="translate(-3.898 -20.563)" fill="#e8c8c8" stroke="#e8c8c8" stroke-width="0.5"/>
        <path id="Path_39227" data-name="Path 39227" d="M31.8,55.006q-7.3,0-14.6,0a1.866,1.866,0,0,1-2-2.551,1.713,1.713,0,0,1,1.573-1.238c.481-.036.966-.025,1.45-.025q13.9,0,27.8,0c1.38,0,2.073.475,2.33,1.6a1.752,1.752,0,0,1-1.545,2.182c-.78.061-1.57.009-2.355.009H31.8v.027" transform="translate(-4.101 -13.935)" fill="#e8c8c8" stroke="#e8c8c8" stroke-width="0.5"/>
      </g>
    </g>
  </g>
</svg>
