<svg xmlns="http://www.w3.org/2000/svg">
  <g id="Group_19015" data-name="Group 19015" transform="translate(0 0)">
    <g id="Group_19016" data-name="Group 19016">
      <path id="Path_69404" data-name="Path 69404" d="M12.913,9.551c.021-.027.042-.055.062-.079l-.034-.126c-.023-.091-.041-.159-.063-.227Q12.2,7,11.513,4.889,10.78,2.628,10.045.368C9.94.046,9.783-.058,9.5.029c-.619.193-1.264.4-1.917.627a.445.445,0,0,0-.278.209.388.388,0,0,0,.009.309A.447.447,0,0,1,7.1,1.76q-1.135.831-2.269,1.665Q3.67,4.28,2.5,5.135a2.016,2.016,0,0,1-.512.262c-.3.1-.6.2-.9.3-.254.082-.508.164-.761.249-.378.128-.356.35-.306.506.406,1.275.81,2.521,1.2,3.7a.37.37,0,0,0,.533.257c.413-.127.881-.27,1.332-.436a3.448,3.448,0,0,1,1.21-.21c.038,0,.077,0,.116,0a.5.5,0,0,1,.547.378,1.941,1.941,0,0,0,1.758,1.334A1.842,1.842,0,0,0,8.657,10.4.862.862,0,0,1,9.7,9.809a.156.156,0,0,0,.061,0,.38.38,0,0,1,.458.313c.086.274.246.368.48.3.609-.187,1.316-.408,2-.661a.6.6,0,0,0,.215-.207M2.92,9.237c-.288.1-.553.184-.819.27a.58.58,0,0,1-.119.024l-.071.011-.086.015L.854,6.565l1.354-.443.984,3.025Zm5.1.687a1.109,1.109,0,0,1-1.015.8,1.363,1.363,0,0,1-.142.007A1.265,1.265,0,0,1,5.7,9.943L5.633,9.8H8.047ZM9.642,9.03a1.575,1.575,0,0,1-.173.012L7.891,9.037q-1.8-.008-3.6-.008a.413.413,0,0,1-.456-.338c-.248-.8-.526-1.661-.848-2.624a.345.345,0,0,1,.129-.446Q4.7,4.462,6.283,3.3l1.181-.869a.19.19,0,0,1,.073-.031l.151-.052.032.1L9.85,9.01Zm1.187.557-.03-.1L8.133,1.274,9.409.851l.03.095,2.667,8.225Z" fill="#fff"/>
    </g>
  </g>
</svg>
