<svg xmlns="http://www.w3.org/2000/svg" width="17.756" height="17.845" viewBox="0 0 17.756 17.845"><defs><style>.a{fill:#ff9013;}</style></defs><path class="a" d="M-518.405,398.772h-.88a1.247,1.247,0,0,1-1.246-1.247v-.087a5.236,5.236,0,0,0-5.236-5.236h-3.91a5.236,5.236,0,0,0-5.236,5.236v7.373a5.236,5.236,0,0,0,5.236,5.236h7.284a5.236,5.236,0,0,0,5.236-5.236v-4.792a1.247,1.247,0,0,0-1.247-1.247Zm-11.049-2.042h4.172a1.021,1.021,0,0,1,1.021,1.021,1.021,1.021,0,0,1-1.021,1.021h-4.172a1.021,1.021,0,0,1-1.021-1.021,1.021,1.021,0,0,1,1.021-1.021Zm6.925,8.789h-6.925a1.021,1.021,0,0,1-1.021-1.021,1.021,1.021,0,0,1,1.021-1.021h6.925a1.021,1.021,0,0,1,1.021,1.021,1.021,1.021,0,0,1-1.021,1.021Zm0,0" transform="translate(534.915 -392.202)"/></svg>