<?xml version="1.0" encoding="utf-8"?>
<!-- Generator: Adobe Illustrator 27.4.1, SVG Export Plug-In . SVG Version: 6.00 Build 0)  -->
<svg version="1.1" id="Layer_1" xmlns="http://www.w3.org/2000/svg" xmlns:xlink="http://www.w3.org/1999/xlink" x="0px" y="0px"
	 viewBox="0 0 93.9 70" style="enable-background:new 0 0 93.9 70;" xml:space="preserve">
<style type="text/css">
	.st0{clip-path:url(#SVGID_00000139998425973907073250000018400511299022688658_);}
	.st1{fill:#E8C8C8;}
</style>
<g>
	<defs>
		<rect id="SVGID_1_" x="-0.9" y="-13.8" width="96" height="96"/>
	</defs>
	<clipPath id="SVGID_00000043447413746344720140000014054755291594752408_">
		<use xlink:href="#SVGID_1_"  style="overflow:visible;"/>
	</clipPath>
	<g id="book" style="clip-path:url(#SVGID_00000043447413746344720140000014054755291594752408_);">
		<g id="book_3_" transform="translate(3.967 15.173)">
			<path id="Path_30942" class="st1" d="M6.3,38.6V0.4C4.4,0.3,2.6,0.2,0.8,0.2c-1,0-1.7,0.7-1.8,1.7c0,0,0,0,0,0.1v44.5
				c0,0.9,0.7,1.7,1.6,1.7c9.1,0.5,21.1,1,32.5,3.8c-7.3-5.5-15.7-9.2-24.7-10.8C7.2,40.9,6.3,39.8,6.3,38.6z"/>
			<path id="Path_30943" class="st1" d="M79.8,0v38.5c0,1.2-0.9,2.3-2.1,2.5c-9,1.6-17.4,5.3-24.7,10.8c11.3-2.7,23.3-3.3,32.5-3.8
				c0.9,0,1.6-0.8,1.6-1.7V1.7c0-1-0.8-1.7-1.7-1.7C83.8,0,81.9,0,79.8,0z"/>
			<path id="Path_30944" class="st1" d="M11.5-12v48.5c10.8,2.3,20.8,7.4,29,14.9V0.4c-6-7.5-17.1-12.4-26.9-14.2
				c-0.9-0.2-1.8,0.4-2,1.4C11.5-12.3,11.5-12.2,11.5-12z M33,27.5c-0.7,1.2-2.3,1.6-3.6,0.9c-2.5-1.6-5.2-2.7-8.1-3.4
				c-1.4-0.3-2.3-1.7-2-3.1c0.3-1.3,1.5-2.2,2.9-2c3.5,0.8,6.9,2.2,9.9,4.1C33.3,24.7,33.7,26.3,33,27.5L33,27.5z M33,11.1
				c-0.8,1.2-2.4,1.5-3.6,0.6C27,10.1,24.3,9,21.4,8.5C20,8.3,19,7,19.1,5.6c0.2-1.4,1.5-2.4,2.9-2.2c0.1,0,0.1,0,0.2,0
				c3.6,0.7,7.1,2.1,10.2,4.1C33.6,8.3,33.9,9.9,33,11.1L33,11.1z"/>
			<path id="Path_30945" class="st1" d="M72.6-13.7c-9.8,1.8-20.9,6.6-26.9,14.2v50.9c8.1-7.5,18.2-12.6,29-14.9V-12
				c0-1-0.8-1.7-1.7-1.7C72.8-13.8,72.7-13.8,72.6-13.7L72.6-13.7z M64.7,24.9c-2.9,0.7-5.6,1.8-8,3.4c-1.2,0.7-2.8,0.4-3.6-0.9
				c-0.7-1.2-0.4-2.8,0.9-3.6c3-1.9,6.4-3.3,9.9-4.1c1.4-0.3,2.8,0.6,3.1,2s-0.6,2.8-2,3.1C64.8,24.9,64.8,24.9,64.7,24.9L64.7,24.9
				z M64.7,8.5c-2.9,0.5-5.6,1.7-8.1,3.3c-1.2,0.8-2.8,0.6-3.6-0.6c-0.8-1.2-0.6-2.8,0.6-3.6c0,0,0,0,0.1,0
				c3.1-2.1,6.5-3.5,10.2-4.1c1.4-0.3,2.8,0.6,3.1,2s-0.6,2.8-2,3.1C64.8,8.4,64.8,8.5,64.7,8.5L64.7,8.5z"/>
		</g>
	</g>
</g>
</svg>
