<svg xmlns="http://www.w3.org/2000/svg" width="26.695" height="19.919" viewBox="0 0 26.695 19.919"><defs><style>.a{fill:#e8c8c8;}</style></defs><path class="a" d="M2.2,157.166V145.573c-.574-.023-1.131-.041-1.662-.057a.523.523,0,0,0-.539.523v13.5a.523.523,0,0,0,.495.523,54.4,54.4,0,0,1,9.847,1.14,17.629,17.629,0,0,0-7.5-3.268.785.785,0,0,1-.641-.771Z" transform="translate(0 -141.287)"/><path class="a" d="M320.561,144.443v11.689a.785.785,0,0,1-.641.772,17.629,17.629,0,0,0-7.5,3.268,54.371,54.371,0,0,1,9.847-1.14.523.523,0,0,0,.495-.523V144.947a.523.523,0,0,0-.522-.523C321.775,144.423,321.2,144.427,320.561,144.443Z" transform="translate(-296.067 -140.252)"/><path class="a" d="M72.05,65.253V79.967a18.617,18.617,0,0,1,8.791,4.51V69.035c-1.822-2.29-5.2-3.749-8.171-4.3A.524.524,0,0,0,72.05,65.253Zm6.524,11.989a.786.786,0,0,1-1.079.261,7.992,7.992,0,0,0-2.442-1.036.785.785,0,0,1,.262-1.548,9.316,9.316,0,0,1,3,1.244A.786.786,0,0,1,78.574,77.241Zm.018-4.964a.786.786,0,0,1-1.093.2,6.553,6.553,0,0,0-2.447-1,.785.785,0,1,1,.262-1.548A8.119,8.119,0,0,1,78.4,71.185.785.785,0,0,1,78.592,72.278Z" transform="translate(-68.279 -64.729)"/><path class="a" d="M278.171,64.739c-2.958.546-6.351,2-8.171,4.3V84.478a18.617,18.617,0,0,1,8.791-4.51V65.253a.524.524,0,0,0-.62-.515Zm-2.382,11.728a7.992,7.992,0,0,0-2.442,1.036.785.785,0,1,1-.818-1.34,9.317,9.317,0,0,1,3-1.244.785.785,0,1,1,.262,1.548Zm0-4.991a6.554,6.554,0,0,0-2.446,1,.785.785,0,1,1-.9-1.288,8.119,8.119,0,0,1,3.082-1.258.785.785,0,1,1,.262,1.548Z" transform="translate(-255.867 -64.73)"/></svg>