<svg xmlns="http://www.w3.org/2000/svg" width="13.261" height="18.555" viewBox="0 0 13.261 18.555"><defs><style>.a{fill:#5a6885;stroke:#5a6885;stroke-width:0.3px;}</style></defs><g transform="translate(0.15 0.15)"><g transform="translate(0 0)"><path class="a" d="M100.057,0H89.588a1.2,1.2,0,0,0-1.246,1.15V17.566a.683.683,0,0,0,.384.6.8.8,0,0,0,.757-.015l5.341-3.042,5.34,3.02a.8.8,0,0,0,.756.014.683.683,0,0,0,.382-.6V1.15A1.2,1.2,0,0,0,100.057,0Zm-.249,16.31-4.594-2.6a.8.8,0,0,0-.784,0l-4.592,2.615V1.379h9.97Z" transform="translate(-88.342)"/></g></g></svg>