<svg id="book_3_" data-name="book (3)" xmlns="http://www.w3.org/2000/svg" width="16.788" height="12.526" viewBox="0 0 16.788 12.526">
  <path id="Path_30942" data-name="Path 30942" d="M1.384,152.842v-7.291c-.361-.014-.711-.026-1.045-.036a.329.329,0,0,0-.339.329v8.492a.329.329,0,0,0,.311.329,34.209,34.209,0,0,1,6.192.717,11.086,11.086,0,0,0-4.717-2.055.494.494,0,0,1-.4-.485Z" transform="translate(0 -142.856)" fill="#fff"/>
  <path id="Path_30943" data-name="Path 30943" d="M317.54,144.436v7.351a.494.494,0,0,1-.4.485,11.087,11.087,0,0,0-4.717,2.055,34.19,34.19,0,0,1,6.192-.717.329.329,0,0,0,.311-.329v-8.528a.329.329,0,0,0-.328-.329C318.3,144.423,317.944,144.426,317.54,144.436Z" transform="translate(-302.136 -141.8)" fill="#fff"/>
  <path id="Path_30944" data-name="Path 30944" d="M72.05,65.058v9.254a11.707,11.707,0,0,1,5.528,2.836V67.437a8.84,8.84,0,0,0-5.138-2.7A.33.33,0,0,0,72.05,65.058Zm4.1,7.539a.494.494,0,0,1-.679.164,5.026,5.026,0,0,0-1.536-.651.494.494,0,1,1,.165-.974,5.859,5.859,0,0,1,1.886.782A.494.494,0,0,1,76.153,72.6Zm.011-3.122a.494.494,0,0,1-.687.123,4.121,4.121,0,0,0-1.539-.628A.494.494,0,1,1,74.1,68a5.106,5.106,0,0,1,1.938.791A.493.493,0,0,1,76.164,69.476Z" transform="translate(-69.678 -64.729)" fill="#fff"/>
  <path id="Path_30945" data-name="Path 30945" d="M275.138,64.736a8.841,8.841,0,0,0-5.138,2.7v9.711a11.708,11.708,0,0,1,5.528-2.836V65.059A.33.33,0,0,0,275.138,64.736Zm-1.5,7.375a5.026,5.026,0,0,0-1.536.651.494.494,0,1,1-.515-.843,5.86,5.86,0,0,1,1.886-.782.494.494,0,0,1,.165.974Zm0-3.139a4.122,4.122,0,0,0-1.539.628.494.494,0,1,1-.565-.81A5.106,5.106,0,0,1,273.476,68a.494.494,0,0,1,.165.974Z" transform="translate(-261.112 -64.73)" fill="#fff"/>
</svg>
