<svg xmlns="http://www.w3.org/2000/svg" xmlns:xlink="http://www.w3.org/1999/xlink" width="96" height="96" viewBox="0 0 96 96">
  <defs>
    <clipPath id="clip-book">
      <rect width="96" height="96"/>
    </clipPath>
  </defs>
  <g id="book" clip-path="url(#clip-book)">
    <g id="book_3_" data-name="book (3)" transform="translate(3.967 15.173)">
      <path id="Path_30942" data-name="Path 30942" d="M7.255,183.918V145.7c-1.891-.075-3.727-.135-5.478-.188A1.725,1.725,0,0,0,0,147.241v44.511a1.724,1.724,0,0,0,1.631,1.723c9.12.491,21.136,1.016,32.457,3.758A58.108,58.108,0,0,0,9.367,186.461a2.588,2.588,0,0,1-2.112-2.543Z" transform="translate(0 -131.577)" fill="#e8c8c8"/>
      <path id="Path_30943" data-name="Path 30943" d="M339.254,144.487v38.528a2.588,2.588,0,0,1-2.112,2.543,58.108,58.108,0,0,0-24.722,10.771c11.3-2.738,23.289-3.264,32.457-3.758a1.724,1.724,0,0,0,1.631-1.723v-44.7a1.725,1.725,0,0,0-1.721-1.725C343.257,144.422,341.376,144.436,339.254,144.487Z" transform="translate(-258.518 -130.674)" fill="#e8c8c8"/>
      <path id="Path_30944" data-name="Path 30944" d="M72.05,66.455v48.5a61.364,61.364,0,0,1,28.976,14.865v-50.9c-6-7.549-17.134-12.358-26.932-14.163A1.727,1.727,0,0,0,72.05,66.455Zm21.5,39.517A2.589,2.589,0,0,1,90,106.83a26.341,26.341,0,0,0-8.05-3.414,2.588,2.588,0,0,1,.863-5.1,30.708,30.708,0,0,1,9.884,4.1A2.59,2.59,0,0,1,93.554,105.971Zm.059-16.361a2.59,2.59,0,0,1-3.6.644,21.6,21.6,0,0,0-8.064-3.29,2.588,2.588,0,1,1,.863-5.1,26.762,26.762,0,0,1,10.16,4.148A2.586,2.586,0,0,1,93.613,89.61Z" transform="translate(-59.619 -64.729)" fill="#e8c8c8"/>
      <path id="Path_30945" data-name="Path 30945" d="M296.932,64.759c-9.75,1.8-20.933,6.6-26.932,14.163v50.9a61.364,61.364,0,0,1,28.977-14.865v-48.5a1.727,1.727,0,0,0-2.045-1.7Zm-7.852,38.657a26.346,26.346,0,0,0-8.05,3.414,2.587,2.587,0,1,1-2.7-4.417,30.711,30.711,0,0,1,9.884-4.1,2.588,2.588,0,1,1,.863,5.1Zm0-16.452a21.6,21.6,0,0,0-8.064,3.29,2.588,2.588,0,1,1-2.959-4.246,26.762,26.762,0,0,1,10.16-4.148,2.588,2.588,0,1,1,.863,5.1Z" transform="translate(-223.417 -64.73)" fill="#e8c8c8"/>
    </g>
  </g>
</svg>
