<svg xmlns="http://www.w3.org/2000/svg" xmlns:xlink="http://www.w3.org/1999/xlink" width="1290.001" height="349.558" viewBox="0 0 1290.001 349.558">
  <defs>
    <clipPath id="clip-path">
      <path id="Union_16" data-name="Union 16" d="M554.8,5357.9H540a31,31,0,0,1-31-31V5062a31,31,0,0,1,31-31H1768a31,31,0,0,1,31,31v264.9a31,31,0,0,1-31,31H595.633L554.8,5380.557Z" transform="translate(-359 -4554)" fill="#150606" stroke="#707070" stroke-width="1"/>
    </clipPath>
    <clipPath id="clip-path-2">
      <rect id="Rectangle_5136" data-name="Rectangle 5136" width="1244.538" height="1244.457" fill="#150606"/>
    </clipPath>
  </defs>
  <g id="Mask_Group_112" data-name="Mask Group 112" transform="translate(-149.999 -477)" opacity="0.895" clip-path="url(#clip-path)">
    <g id="Group_6135" data-name="Group 6135" transform="translate(53.462 240.751)" opacity="0.077">
      <g id="Group_6134" data-name="Group 6134" clip-path="url(#clip-path-2)">
        <path id="Path_35969" data-name="Path 35969" d="M595.774,847.142c-19.494,13.035-38.3,26.061-57.561,38.4-95.764,61.359-195.353,114.987-308.5,135.925a366.238,366.238,0,0,1-107.148,3.374c-70.046-8.065-116.458-62.667-121.6-135C-4.268,816.1,14.577,747.066,42.442,680.1c72.77-174.867,184.429-323.71,314.445-459.012C416.983,158.552,483.2,101.866,547.342,43.3c24.338-22.227,25.312-21.316,52.14-.415C614.122,54.3,628.51,66.044,645.415,79.557c-8.651,8.164-15.1,14.938-22.245,20.892-178.493,148.833-335.247,316.9-455.755,516.789-39.971,66.3-74.944,135.347-90.009,211.988a297.778,297.778,0,0,0-3.626,86.96c5.133,49.443,46.439,82.188,101.366,83.757,67.051,1.912,129.2-19.088,187.063-49.605,65.427-34.513,128.546-73.609,191.321-112.858,18.411-11.51,29.047-10.491,42.244,9.661" transform="translate(0.732 215.935)" fill="#150606"/>
        <path id="Path_35970" data-name="Path 35970" d="M813.025,71.91c19.3,29.624,39.15,58.337,57.183,88.151,53.754,88.89,101.808,180.821,117.711,284.74,5.873,38.4,5.746,80-2.508,117.766-13.955,63.84-64.643,99.751-130.269,104.289-81.809,5.647-157.25-18.213-230.426-50.426-145.486-64.065-273.78-154.868-390.192-261.836C167.338,292.855,105.871,224.9,41.454,160.124c-13.215-13.288-13.621-24.888-1.209-38.663A357.957,357.957,0,0,0,69.608,84.53c11.132-16.237,19.079-13,30.707.388C222.726,225.849,358.353,352.284,513.636,456.582c86.121,57.841,175.381,110.351,278.092,132.966,28.722,6.324,59.762,7.28,89.125,4.4,51.2-5.025,84.181-47.711,84.84-105.1.767-65.373-19.476-126.227-49.326-182.706C881.8,240.733,842.46,177.778,803.355,114.894c-11.195-18.005-10.969-29.354,9.67-42.984" transform="translate(250.484 576.772)" fill="#150606"/>
        <path id="Path_35971" data-name="Path 35971" d="M984.9,596.227c-33.611-37.986-65.554-75.612-99.093-111.749-129.565-139.6-271.714-264.3-436.261-361.579-70.488-41.667-143.71-78.2-225.861-90.866-21.884-3.374-45.239-4.393-66.889-.622-54.711,9.526-82.982,46.2-84.984,102.422-2.2,61.81,15.272,119.453,42.758,172.837,34.892,67.755,74.944,132.9,114.356,198.222,9.156,15.173,11.952,25.186-1.028,39.006-14.722,15.66-27.207,33.422-41.6,51.445-4.61-4-8.561-6.242-10.888-9.607C106.847,486.715,47.436,382.976,15.169,265.887.7,213.377-6.661,159.722,7.97,106.066,25.11,43.2,70.908,6.919,136.245,1.318,219.651-5.845,296.49,18.737,371.073,51.662,523.587,118.984,657.22,215.254,777.494,329.1c74.908,70.912,142.717,149.32,213.963,224.129,15.354,16.129,14.794,29.453-6.558,42.993" transform="translate(0.004 0.559)" fill="#150606"/>
        <path id="Path_35972" data-name="Path 35972" d="M71.551,183.909c29.164-19.205,54.134-36.6,80.005-52.528C241.872,75.759,335.534,27.471,440.878,7.021c42.912-8.326,86.374-11.059,129.051,2,60.764,18.61,91.885,62.261,98.759,123.458,8.452,75.143-11.547,145.685-39.637,214.261C563.434,506.924,463.8,645.095,347.586,771.4c-58.2,63.262-122.177,121.248-184.14,180.992-18.574,17.924-22.489,16.634-42.659-6.179,7.83-7.424,15.561-15.155,23.688-22.426C305.089,780.225,448.42,622.01,556.407,434.28c37.445-65.085,69.82-132.686,81.953-207.838,2.959-18.339,4.474-37.337,3.365-55.838-3.527-59-42.7-95.773-101.853-98.615-70.651-3.4-134.905,19.936-195.516,51.436-61.63,32.015-120.481,69.478-179.63,106.039-14.515,8.976-24.185,10.509-37.229-1.254-16-14.442-33.783-26.927-55.947-44.3" transform="translate(573.892 -0.003)" fill="#150606"/>
        <path id="Path_35973" data-name="Path 35973" d="M59.01,174.725A120.661,120.661,0,0,1,182.261,55.489c68.513,1.182,120.9,55.784,119.9,124.982C301.2,247.6,246.642,300.339,178.788,299.725c-68.025-.613-120.77-55.667-119.777-125" transform="translate(473.196 444.91)" fill="#150606"/>
      </g>
    </g>
  </g>
</svg>
