<svg xmlns="http://www.w3.org/2000/svg"  viewBox="0 0 154 105.376"><defs><style>.a{opacity:0.36;}.b,.e{fill:#5c128d;}.c{fill:#f35cd2;}.d{fill:#fff;}.e{opacity:0.3;}</style></defs><g transform="translate(-204.243 -110.812)"><g class="a" transform="translate(204.243 110.812)"><path class="b" d="M27.915,191.251A27.794,27.794,0,0,1,8.262,143.8l24.892-24.894a3.815,3.815,0,0,1,5.241,0l34.064,34.069a3.7,3.7,0,0,1,0,5.24L47.567,183.108a27.6,27.6,0,0,1-19.653,8.143Zm7.86-64.481L13.5,149.044a20.382,20.382,0,1,0,28.825,28.825L64.6,155.6Zm0,0" transform="translate(-0.122 -85.874)"/><path class="c" d="M165.546,79.672l24.893-24.894a24.088,24.088,0,1,0-34.065-34.064L131.48,45.606Zm0,0" transform="translate(-95.827 -9.95)"/><path class="b" d="M155.6,73.427a3.706,3.706,0,0,1-2.621-1.086L118.912,38.273a3.7,3.7,0,0,1,0-5.24L143.8,8.142A27.793,27.793,0,1,1,183.11,47.447l-24.893,24.9a3.709,3.709,0,0,1-2.62,1.085ZM126.772,35.653,155.6,64.482,177.87,42.208a20.382,20.382,0,1,0-28.825-28.825Zm0,0" transform="translate(-85.879 0.001)"/><path class="d" d="M259.127,57a3.709,3.709,0,0,1-3.062-1.611,9.266,9.266,0,0,0-14.206-1.328,3.705,3.705,0,0,1-5.241-5.24A16.681,16.681,0,0,1,262.181,51.2a3.706,3.706,0,0,1-3.055,5.8Zm0,0" transform="translate(-171.637 -32.009)"/></g><path class="e" d="M44.254,55.588H9.042A27.8,27.8,0,0,1,0,54.088l6.161-6.114a20.767,20.767,0,0,0,2.889.2h31.5l0-34.326L54.507,0H79.459A27.793,27.793,0,0,1,99.114,47.444a27.62,27.62,0,0,1-19.655,8.143ZM47.961,7.41V48.178l31.5,0a20.382,20.382,0,1,0,0-40.764l-31.5,0ZM91.073,33.9h0a3.74,3.74,0,0,1-.684-.064,3.709,3.709,0,0,1-2.963-4.323,9.267,9.267,0,0,0-9.106-10.985,3.706,3.706,0,0,1,0-7.411A16.682,16.682,0,0,1,94.713,30.875,3.709,3.709,0,0,1,91.073,33.9Z" transform="translate(250.991 160.342)"/></g></svg>