<svg xmlns="http://www.w3.org/2000/svg" width="579.881" height="451.918" viewBox="0 0 579.881 451.918"><defs><style>.a,.b{fill:#bbd2f5;}.a{fill-rule:evenodd;}.c{fill:#32323f;opacity:0.16;}.d,.o,.t,.x{fill:#1f1f39;}.e,.i{fill:#fff;}.f{fill:#e5e5e5;}.g{fill:#0267a4;}.h{fill:#3f3f54;}.i{opacity:0.27;}.j{fill:#2c2c44;}.k{fill:#17172d;}.l{fill:#efaea6;}.m{fill:#603a3e;}.n{fill:#fdfffd;}.o{opacity:0.14;}.p{fill:#3b3b4c;}.q{fill:#201b2c;}.r{fill:#eeada5;}.s{fill:#775155;}.t{opacity:0.28;}.u{fill:#151515;}.v,.w{fill:#EC0085;}.v{opacity:0.18;}.x{opacity:0.62;}.y,.z{fill:none;stroke:#231f20;stroke-linecap:round;stroke-linejoin:round;opacity:0.69;}.y{stroke-width:5px;}.z{stroke-width:3.67px;}</style></defs><g transform="translate(-653.648 -404.886)"><g transform="translate(653.648 656.607)"><path class="a" d="M654.227,1157.929c-.915,3.205-1.381,6.254,3.667,10.656,3.94,3.436,8.158,1.1,12.425,3.356,5.828,3.084,5.1,7.919,12.677,8.528,6.54.525,8.036-9.45,17.573-5.515,7.2,2.972,15.348.333,15.1-6.575-.249-6.937,7-8.194,2.629-14.963-4.458-6.9-11.755-1.255-15.239-2.871-5.358-2.485-6.026-7.614-13.993-7.243-10.167.474-9.066,6.6-18.4,6.223C662.284,1149.184,655.8,1152.426,654.227,1157.929Z" transform="translate(-653.648 -1143.282)"/></g><path class="b" d="M2031.482,1003.349a146.152,146.152,0,0,1-44.116-3.775c-2.261-.53-4.659-1.238-6.191-3.2-2.321-2.977-1.623-7.988.88-10.766s6.275-3.61,9.755-3.224c2.228.247,4.513.93,6.664.223,2.687-.884,4.467-3.68,6.268-6.115s4.241-4.843,7.018-4.461c2.08.286,3.72,2.068,5.572,3.184s4.541,1.235,5.6-.822c2.272-4.4-.917-16.464,10.785-16.464,16.891,0,14.132,12.143,16.166,14.72,3.082,3.906,8.569,3.046,13.034,1.724s9.782-2.576,13.226.916c2.987,3.029,3.295,8.582,6.471,11.35,3.381,2.946,8.183,1.374,12.28.051s9.378-1.809,11.755,2.212c1.994,3.371.507,8.267-2.327,10.737s-6.573,3.074-10.136,3.319C2071.048,1004.55,2050.041,1002.069,2031.482,1003.349Z" transform="translate(-874.036 -364.506)"/><path class="b" d="M859.3,429.886c10.88,0,33.238,19.3,1.286,22.39s-79.81,1.669-99.175,1.734c-31.61.106-39.452-1.187-39.2-14.1.146-7.474,4.181-12.315,20.845-14.276,17.334-2.039,8.479-21.318,29.64-20.733,18.023.5,19.862,25.732,36.353,19.548s13.038,10.669,25.1,13.762C847.405,441.608,848.425,429.886,859.3,429.886Z" transform="translate(-45.187 0)"/><path class="c" d="M1285.4,1694.508c0,3.932-80.14,8.5-172.478,8.5s-167.193-3.188-167.193-7.12,74.855-7.12,167.193-7.12S1285.4,1690.575,1285.4,1694.508Z" transform="translate(-192.511 -846.202)"/><g transform="translate(874.862 831.115)"><ellipse class="d" cx="9.097" cy="9.175" rx="9.097" ry="9.175" transform="translate(0 0.044) rotate(-0.138)"/><path class="e" d="M1318,1674.654a3.855,3.855,0,1,0,3.845-3.9A3.871,3.871,0,0,0,1318,1674.654Z" transform="translate(-1312.735 -1665.448)"/></g><g transform="translate(877.138 639.079)"><path class="f" d="M1437.745,1173.276c-1.847-21.581-5.62-39.194-15.428-41.778s-18.2-2.07-10.589.545c4.941,1.7,9.462,7.818,10.8,12.845,3,11.235,1.055,23.309,1.9,28.482S1438.465,1181.691,1437.745,1173.276Z" transform="translate(-1374.841 -1116.869)"/><path class="d" d="M1367.549,1100.214c7.04,1.562,5.54,13.776-4.087,11.853s-44.024-7.734-49.289-8.785-9.957-13.2,6.223-11.192S1367.549,1100.214,1367.549,1100.214Z" transform="translate(-1309.232 -1091.867)"/></g><rect class="f" width="11.049" height="44.726" transform="matrix(-1, 0.002, -0.002, -1, 967.658, 789.388)"/><path class="g" d="M1254.9,1197.274c-.314,4.879-1.313,7.972,5.84,12.695,1.862,1.229,6.089,3.995,11.443,7.462.566.368,1.147.743,1.739,1.125q1.632,1.055,3.368,2.172c1.759,1.133,3.585,2.306,5.445,3.5,2.66,1.7,5.39,3.441,8.094,5.152.514.323,1.028.649,1.54.971,11.006,6.942,21.272,13.2,24.256,14.352,2.67,1.033,6.925.812,10.615-.073h0a22.317,22.317,0,0,0,4.09-1.383h0c3.046-1.417,4.467-3.317,1.689-5-.812-.494-2.352-1.429-4.427-2.7-6.641-4.055-18.773-11.509-30.155-18.755q-.771-.488-1.536-.98c-6.273-4.008-12.231-7.9-16.8-11.065q-.89-.617-1.707-1.194c-3.781-2.669-6.32-4.681-6.837-5.58-1.318-2.293-5.594-3.7-9.485-3.865h0C1258.393,1193.946,1255.056,1194.9,1254.9,1197.274Z" transform="translate(-396.133 -520.159)"/><path class="h" d="M1549.737,1379.118c.026,10.469,1.393,13.865-6.22,14.019s-11.421-.108-11.566-3.779-.029-11.693-.029-11.693Z" transform="translate(-578.839 -641.157)"/><path class="d" d="M1531.6,1351.476c-.811,4.385-2.009,9.718-24.783,9.289s-23.05-13.98-23.05-13.98l17.441-1.027,28.348.9Z" transform="translate(-547.128 -620.127)"/><path class="d" d="M1573.139,1390.7c10.343,2.64,15.838,4.063,20.2,3s21.549-5.527,21.557-2.055c.005,2-16.62,6.582-22.435,6.192s-20.686-4.957-20.686-4.957Z" transform="translate(-605.133 -649.515)"/><path class="d" d="M1270.053,1016.143c1.211,2.63,7.508,7.634,15.685,13.217q.847.578,1.721,1.163c5.267,3.536,11.183,7.25,16.963,10.7q.781.467,1.559.928c11.8,6.98,22.736,12.689,26.018,13.327h0c1.774.354-2,4.94,3.568,8.155h0a13.17,13.17,0,0,0,1.689.811h0a25.216,25.216,0,0,0,4.582,1.276,289.526,289.526,0,0,0,31.953,4.269c6.492.506,12.211.736,16.9.822,0,0,0,0,0,0,4.406.082,7.9.035,10.259-.03h0c2.254-.063,3.477-.141,3.477-.141l56.812-108.5,11.513-16.966s.145,1.1.142,1.107c-.665-.293-2.993.248-3.673-.056,0,0,3.591-2.224,3.589-2.224-28.711-12.8-61.978-32.062-75.423-18.861-6.425,6.308-20.743,63.316-35.052,84.995a58.448,58.448,0,0,1-9.639,11.682,17.42,17.42,0,0,1-7.494,4.2,9.593,9.593,0,0,1-3.7.109c-2.539-.43-5.514-1.006-8.783-1.673-5.181-1.06-11.1-2.354-17.184-3.67l-1.8-.389c-6.76-1.458-13.656-2.92-19.918-4.1q-1.048-.195-2.071-.382c-8.826-1.606-16.154-2.558-19.659-1.994h0C1270.277,1014.212,1269.487,1014.914,1270.053,1016.143Z" transform="translate(-406.152 -339.979)"/><path class="d" d="M1425.055,1103.113c-1.515,7.846,35.464,12.913,75.58,16.7,8.242.777,16.384-6.2,24.144-16.43,2.055-2.711,4.084-5.651,6.082-8.736,7.609-11.753,14.753-25.608,21.136-36.927,9.89-17.538,30.852-64.9,23.753-70.174v0a.006.006,0,0,0-.005,0,5.79,5.79,0,0,0-2-.889,12.746,12.746,0,0,0-4.729-.443c-6.38.669-32.773,75.644-52.631,102.344-2.122,2.852-4.221,5.462-6.286,7.743-5.865,6.479-11.463,10.316-16.558,9.581-17.459-2.514-45.27-8.527-59.508-7.313h-.005C1428.94,1098.994,1425.587,1100.348,1425.055,1103.113Z" transform="translate(-508.403 -383.105)"/><path class="d" d="M1254.9,1197.274c-.314,4.879-1.313,7.972,5.84,12.695,1.862,1.229,6.089,3.995,11.443,7.462.566.368,1.147.743,1.739,1.125q1.632,1.055,3.368,2.172c1.759,1.133,3.585,2.306,5.445,3.5,2.66,1.7,5.39,3.441,8.094,5.152.514.323,1.028.649,1.54.971,11.006,6.942,21.272,13.2,24.256,14.352,2.67,1.033,6.925.812,10.615-.073h0a22.317,22.317,0,0,0,4.09-1.383h0c3.046-1.417,4.467-3.317,1.689-5-.812-.494-2.352-1.429-4.427-2.7-6.641-4.055-18.773-11.509-30.155-18.755q-.771-.488-1.536-.98c-6.273-4.008-12.231-7.9-16.8-11.065q-.89-.617-1.707-1.194c-3.781-2.669-6.32-4.681-6.837-5.58-1.318-2.293-5.594-3.7-9.485-3.865h0C1258.393,1193.946,1255.056,1194.9,1254.9,1197.274Z" transform="translate(-396.133 -520.159)"/><path class="i" d="M1463.479,987.542v0a.005.005,0,0,0,0,0,5.792,5.792,0,0,0-2-.889,12.746,12.746,0,0,0-4.729-.443c-6.38.669-32.773,75.643-52.631,102.344-2.122,2.852-4.221,5.462-6.286,7.743-5.864,6.479-11.462,10.316-16.558,9.581-14.992-2.159-37.611-6.894-52.721-7.421-6.652-4.063-18.748-11.495-30.1-18.721q-.771-.488-1.536-.98c-6.273-4.008-12.231-7.9-16.8-11.065q-.89-.616-1.707-1.194c-3.781-2.669-6.32-4.681-6.837-5.58-1.318-2.294-5.594-3.7-9.485-3.865h0c-3.684-.155-7.021.8-7.175,3.173-.314,4.879-1.313,7.972,5.84,12.695,1.862,1.229,6.089,3.995,11.443,7.462.566.368,1.147.743,1.739,1.125q1.632,1.055,3.368,2.172c1.759,1.133,3.585,2.306,5.445,3.5,2.66,1.7,5.39,3.441,8.094,5.152.514.324,1.028.65,1.54.971,10.328,6.514,20,12.424,23.621,14.081,9.74,5.5,40.034,9.385,72.372,12.434,8.242.777,16.384-6.2,24.144-16.43,2.055-2.711,4.084-5.651,6.082-8.736,7.609-11.753,14.753-25.608,21.136-36.927C1449.617,1040.177,1470.579,992.815,1463.479,987.542Z" transform="translate(-396.133 -383.105)"/><path class="j" d="M1318.433,1595.985c.01,4.256,20.828-.072,42.087-4.433,9.274-1.9,18.631-3.81,26.381-5.015a79.765,79.765,0,0,1,13.462-1.249c5.185.168,14.195,1.446,24.463,3.092,3.9.625,7.987,1.3,12.113,1.993,23.7,3.966,48.74,8.336,48.338,5.368-.658-4.845-68.87-26.805-84.953-26.766C1384.426,1569.014,1318.424,1592.27,1318.433,1595.985Z" transform="translate(-438.158 -767.248)"/><g transform="translate(912.151 833.383)"><ellipse class="d" cx="9.097" cy="9.175" rx="9.097" ry="9.175" transform="translate(0 0.044) rotate(-0.138)"/><ellipse class="e" cx="3.854" cy="3.888" rx="3.854" ry="3.888" transform="translate(5.254 5.32) rotate(-0.156)"/></g><g transform="translate(996.457 833.177)"><ellipse class="d" cx="9.097" cy="9.175" rx="9.097" ry="9.175" transform="translate(0 0.046) rotate(-0.144)"/><ellipse class="e" cx="3.854" cy="3.888" rx="3.854" ry="3.888" transform="translate(5.256 5.32) rotate(-0.141)"/></g><g transform="translate(1030.828 831.134)"><ellipse class="d" cx="9.097" cy="9.175" rx="9.097" ry="9.175" transform="translate(0 0.044) rotate(-0.138)"/><path class="e" d="M1775.507,1674.711a3.854,3.854,0,1,0,3.845-3.9A3.871,3.871,0,0,0,1775.507,1674.711Z" transform="translate(-1770.243 -1665.504)"/></g><path class="k" d="M1441.891,1594.659c9.274-1.9,18.631-3.81,26.381-5.016l8.807-3.267s3.09-12.929-2.111-12.684C1469.951,1573.926,1453.785,1584.184,1441.891,1594.659Z" transform="translate(-519.529 -770.355)"/><path class="k" d="M1594.956,1592.681c3.9.625,7.987,1.3,12.113,1.993-8.984-10.205-30.067-21.355-30.5-18.8C1576.241,1577.762,1587.987,1587.242,1594.956,1592.681Z" transform="translate(-608.288 -771.549)"/><path class="j" d="M1564.836,1576.584c24.484,11.135,36.225,29.267,31.611,29.423-9.044.3-37.684-15.7-37.684-15.7Z" transform="translate(-596.559 -772.263)"/><path class="j" d="M1473.676,1576.667c-24.224,9.148-39.366,28.6-34.751,28.729,9.045.261,40.308-15.038,40.308-15.038Z" transform="translate(-517.03 -772.318)"/><path class="d" d="M1550.674,1475.519c.21,3.774.031,40.731.125,48.346.063,5.15-16.889,2.41-16.877-.284.016-3.674.491-44.253.6-48.022S1550.465,1471.745,1550.674,1475.519Z" transform="translate(-580.186 -703.8)"/><g transform="translate(796.699 437.436)"><g transform="translate(0)"><path class="l" d="M1906.367,551.712c.993-3.128,4.593-8.421,5.136-11.683s-7.67-6.3-11.751-4.4-6.028,4.734-5.6,8.549a62.745,62.745,0,0,1-.272,10.32l8.034,4.169Z" transform="translate(-1614.131 -523.221)"/><g transform="translate(236.035 6.509)"><path class="d" d="M1776.154,544.677c-3.341.235-7.935.429-9.424.49a.736.736,0,0,0-.669.492,6.547,6.547,0,0,0,.474,5.649.713.713,0,0,0,.566.236c2.238-.053,7.537-.156,9.525-.195a.716.716,0,0,0,.715-.759l-.4-5.255A.726.726,0,0,0,1776.154,544.677Z" transform="translate(-1765.656 -536.08)"/><g transform="translate(8.579)"><path class="m" d="M1791.414,527.555c-1.442,3.1.123,6.5.8,8.2,1.164.119,85.416-1.093,92.261-1.661,4.218-5.885,1.7-13.86-1.425-14.628C1821.841,525.267,1794.289,525.126,1791.414,527.555Z" transform="translate(-1790.823 -519.462)"/><path class="n" d="M2050.472,529.138c.071,3.5,1.51,6.308,3.214,6.28s3.029-2.886,2.958-6.382-1.51-6.308-3.215-6.28S2050.4,525.641,2050.472,529.138Z" transform="translate(-1961.955 -521.633)"/></g></g><g transform="translate(277.088 6.469)"><path class="o" d="M1903.487,532.556c-.047.221-.1.436-.146.651-1.652,7.346-2.929,10.3-6.419,10.958-3.591.678-9.868-1.633-9.774-6.935-3.823-3.361,4.005-1.644,2.086-3.861,8.406-1.557,8.337.278,10.765-.166.061-.009.122-.021.179-.034.041-.006.081-.012.122-.021a.523.523,0,0,0,.078-.015c.088-.015.132-.025.132-.025h.02C1902.361,532.764,1903.487,532.556,1903.487,532.556Z" transform="translate(-1886.08 -528.053)"/><path class="l" d="M1890.1,522.982c1.242-.648,6.455-5.469,10.954-2.877s4.106,3.716,3.767,5.915-3.807,8.4-8.5,8.309-5.559-5.531-6.247-6.728C1888.909,525.575,1888.858,523.63,1890.1,522.982Z" transform="translate(-1888.126 -519.346)"/></g><g transform="translate(191.275)"><path class="l" d="M1644.535,588.462l-10.176-9.288c2.61-5.513,5.746-19.884,9.038-24.342,3.612-4.891,3.946-4.365,3.946-4.365l5.759,9.044,2.71,4.256a15.947,15.947,0,0,0-2.455,6.043,33.093,33.093,0,0,0-.255,11.844C1653.638,585.437,1644.535,588.462,1644.535,588.462Z" transform="translate(-1634.359 -533.378)"/><path class="o" d="M1674.85,581.284a22.1,22.1,0,0,0-2.585,6.667c-9.044-.3-10.593-8.1-7.693-9.264a60.036,60.036,0,0,1,7.568-1.659Z" transform="translate(-1653.398 -550.895)"/><g transform="translate(5.717)"><path class="l" d="M1688.061,533.678c-.682,4.376,1.971,13.711-.924,13s-1.431,9.248-4.539,8.6c-7.532-1.569-14.982-8.382-15.077-12.225s2.867-13.791,2.867-13.791Z" transform="translate(-1661.931 -519.412)"/><path class="d" d="M1668.563,516.886c2.289.848,2.228,1.423,4.072,1.025s-.459-3.367,2.743-3.128,6.628.87,7.8-2.575c1.7-4.985-3.011-5.288-5.946-5.376-1.888-.056-1.388-4.068-5.02-4.772-2.848-.553-2.917,1.172-5.479.791-1.548-.23-3.9-3.444-6.709-2.194-5.2,2.318-2.551,7.365-7.072,10.09-5.273,3.179,2.408,14.559,3.813,13.75,1.64-.944.73-5.786,2.327-6.482,2.407-1.05,2.242.746,3.559,2.766,1.406,2.158,4.744,3.079,3.386-.76S1666.492,516.118,1668.563,516.886Z" transform="translate(-1651.128 -500.369)"/></g></g><path class="l" d="M1437.644,1161.925c5.209,2.134,18.922,5.839,18.922,5.839l4.8-14.084-20.646-5.377-9.324,7.459Z" transform="translate(-1309.313 -927.421)"/><g transform="translate(17.323 208.955)"><path class="e" d="M1180.3,1142.2c5.117,2.348,18.665,6.616,18.665,6.616l5.38-13.873-20.407-6.226-9.624,7.066Z" transform="translate(-1157.191 -1123.466)"/><path class="d" d="M1149.041,1133.921c-.225,1.587-1.37.437-3.771.111-5.5-.746-12.817,17.434-14.352,20.005-.792,1.328-9.061.714-6.249-6.337,2.432-6.1,10.149-25.658,12.853-32.313a3.3,3.3,0,0,1,3.484-2.042c5.315.7,12.7,3.993,12.122,5.921C1152.919,1122.441,1149.978,1127.309,1149.041,1133.921Z" transform="translate(-1124.088 -1113.317)"/></g><g transform="translate(53.344 204.625)"><path class="e" d="M1285.964,1129.5c5.117,2.348,18.665,6.617,18.665,6.617l5.38-13.873-20.406-6.226-9.625,7.067Z" transform="translate(-1262.856 -1110.764)"/><path class="d" d="M1254.707,1121.219c-.225,1.587-1.37.437-3.771.111-5.5-.746-12.817,17.434-14.352,20.006-.793,1.327-9.062.714-6.25-6.338,2.432-6.1,10.149-25.658,12.852-32.313a3.3,3.3,0,0,1,3.484-2.042c5.316.7,12.7,3.993,12.123,5.921C1258.585,1109.738,1255.644,1114.607,1254.707,1121.219Z" transform="translate(-1229.754 -1100.615)"/></g><path class="p" d="M1360.838,910.518l-12.1-5.842s-25.975-.028-39.809,1.284c-4.833.457-8.183,1.073-8.437,1.916-1.558,5.194-2.921,11.092-4.141,17.371-4.848,25.033-5.611,51.159-7.173,66.443-17.248-8.107-33.545-15.539-35.139-14.335-2.992,2.261-4.578,2.957-6.33,12.574-.207,1.133-.417,2.388-.632,3.787-13.091-5.687-25.641-11.787-31.2-13.444-1.057-1.4-4.558,7.023-7.2,19.3,0,0,69.372,44.983,94.632,30a17.025,17.025,0,0,0,1.45-.966q1.407.709,2.806,1.4c22.589,11.14,44.125,18.762,49.768,10.837C1372.172,1019.989,1368.453,934.8,1360.838,910.518Zm-29.214,99.608c-.278.6-3.958-.735-9.581-3.176-1.439-.628-3-1.323-4.67-2.078.075-.219.151-.437.231-.656v0c5.528-15.837,8.5-31.745,14.041-47.006l0,.008C1331.827,957.52,1336.147,1000.206,1331.624,1010.125Z" transform="translate(-1162.515 -766.847)"/><g transform="translate(0 97.083)"><path class="q" d="M1225.253,850.035l3.924-2.926,2.3-1.713c.13-.1.256-.2.377-.3a5.977,5.977,0,0,0,1.853-2.729,3.073,3.073,0,0,0-.345-2.771l-1.425-1.913-.218-.294-5.906-7.927a2.61,2.61,0,0,0-1.114-.856,5.328,5.328,0,0,0-5.01,1.015l-2.375,1.772-3.827,2.849,1.483,1.992,3.842-2.861.546-.4a4,4,0,0,1,3.711-.776,1.972,1.972,0,0,1,.867.654l5.209,6.987.436.588c.868,1.17.232,3.118-1.429,4.351l-.473.351-3.888,2.9-.024.018Z" transform="translate(-1165.689 -813.612)"/><path class="r" d="M1260.308,815.886c-2,2.108-.915,2.218-3.165,5.35s-4.294,8.838-5.95,7.7-.845-3.7-1.082-4.71-.594,2.025-2.708,2.266-5.949-2.87-6.225-5.466,1-5.578,3.818-7.989,7.877-4.165,9.374-4.9S1260.308,815.886,1260.308,815.886Z" transform="translate(-1183.914 -800.276)"/><path class="q" d="M1249.1,864.794l2.3-1.713c.13-.1.256-.2.377-.3a5.973,5.973,0,0,0,1.876-2.736,3.075,3.075,0,0,0-.347-2.779l-1.446-1.9-.043-.058-.111-.143-.535.717,0,.008-.721.967-.919,1.232c.868,1.17.226,3.117-1.427,4.354l-.5.369-3.891,2.9,1.483,1.992Z" transform="translate(-1185.609 -831.297)"/><path class="m" d="M1147.969,847.036,1119.5,868.487a3.826,3.826,0,0,1-5.358-.753l-.069-.092-38.881-50.25c-4.314-5.725-.243-8.734,1.443-10l26.25-21.038c1.689-1.273,7.663-2.581,11.051,2.047l34.047,45.128,1.28,1.693C1152.072,838.946,1151.787,844.159,1147.969,847.036Z" transform="translate(-1073.274 -785.152)"/><path class="s" d="M1226.851,940.56l-28.469,21.451a3.826,3.826,0,0,1-5.358-.753l-.069-.092c1.241-1.855,3.62-4.234,8.034-7.122,10.669-6.984,19.986-18.582,25.876-26.994l1.28,1.693C1230.954,932.47,1230.669,937.683,1226.851,940.56Z" transform="translate(-1152.155 -878.676)"/></g><path class="t" d="M1465.851,927.73c1.217-6.283,2.586-12.179,4.143-17.372.253-.843,3.6-1.461,8.434-1.917l25.3,5.944C1497.962,927.14,1478.207,927.013,1465.851,927.73Z" transform="translate(-1332.021 -769.328)"/><path class="e" d="M1558.585,603.864c5.287-.641,6.649,5.96,10.755,6.74,2.492.474,2.706-1.805,4.021-2.885.81-.665,2.1.072,4.074.487,5.186,1.092-7.5,104.461-7.5,104.461s-15.024,2.224-25.577.6-26.985-7.689-26.1-11.338,29.753-93.981,29.753-93.981S1553.3,604.5,1558.585,603.864Z" transform="translate(-1366.538 -568.554)"/><path class="u" d="M1387.548,655.064c2.174,16.4-9.22,30.277-10.488,38.3-1.254,7.924-1.387,19.908-9.179,23.378s-23.239,1.092-26.529,2.1c-4,1.222-11.6-2.175-7.859-9.335,3.03-5.805,19.843-25.672,22.573-37.1a33.448,33.448,0,0,0,1.059-6.442c.023-1.3.009-2.642-.026-3.983-.16-6.035-.786-12.076-.551-14.644l0-.021a3.843,3.843,0,0,1,.137-.8c.008-.027.017-.055.024-.075-2.489,1-28.9,1.026-42.225,9.3-17.835,12.879-29.187,27.613-33.415,28.138a25.835,25.835,0,0,1-9.993-11.923c-.006-.015,24.717-22.228,35.651-31.274,10.248-8.479,34.922-16.853,53.261-24.327,12.363-5.038,34.8-12.374,34.8-12.374C1394.636,609.835,1384.825,634.518,1387.548,655.064Z" transform="translate(-1203.646 -568.662)"/><path class="t" d="M1518.559,728.134l-.159,1.065,0,.01c-.175,2.694.417,8.544.573,14.393.033,1.34.047,2.68.025,3.982a33.346,33.346,0,0,1-1.059,6.44c-.531,2.223-.577,4.823-1.261,7.453.362-.381.163-.922.547-1.429,2.057-2.722,11.9-25.918,12.089-31.818A35.932,35.932,0,0,0,1518.559,728.134Z" transform="translate(-1365.519 -650.276)"/><g transform="translate(66.608 35.764)"><path class="v" d="M1567.882,626.459c-.486-.448-7.617,9.428-15.551,11.816a18.526,18.526,0,0,1-6.793.771c-1.432-.111-23.877-7.306-26.317-7.985,7.472-3.6,6.571-2.23,10.461-4.044,5.793,2.874,12.616,5.008,16.169,5.168a25.6,25.6,0,0,0,7.613-.859A42.6,42.6,0,0,0,1565.192,626c1.589-1,2.086-2.825,3.778-2.629C1571.215,623.627,1568.508,627.031,1567.882,626.459Z" transform="translate(-1433.805 -617.194)"/><path class="w" d="M1406.463,612.878a2.812,2.812,0,0,0-2.627-3.15c-1.691-.195-1.934.468-3.525,1.469-4.779,3.007-11.762,6.53-19.342,6.188s-23.074-12.766-34.476-12.077-16.289,10.06-32.6,10.131-32.4-9.306-37.219-9.226-7.827.668-8,2.547,1.693,5.319,4.789,7.149,31.861,8.3,39.7,8.461c12.791.255,25.314-9.385,33.5-8.852s24.457,7.789,34,8.727c10.645,1.046,21.138-9.916,21.761-9.343a2.9,2.9,0,0,0,2.6.993C1405.991,615.8,1406.366,613.945,1406.463,612.878Z" transform="translate(-1268.661 -605.279)"/></g><path class="u" d="M1716.9,579.87c-1.721,3.134-9.235,59.934-23.658,62.12-11.912,1.805-38.4-13.981-46.882-10-2.2,1.033-9.313,24.532-9.3,31.183.017,7.005-3.731,45.486-10.844,42.572-7.521-3.078-19.814,2.591-21.275-1.5-1.358-3.8,20.7-36.74,23.44-54.221s4.29-21.189,5.444-40.912l.531-19.833c18.959,3.316,43.8,31.817,53.191,29.312,4.971-3.929,13.56-41.7,14.4-42.707C1704.122,573.288,1718.627,576.737,1716.9,579.87Z" transform="translate(-1423.655 -549.54)"/></g><path class="x" d="M1505,1199.4c-1.781,8.779-12.288,20.653-14.482,23.058q-1.4-.691-2.806-1.4a17.007,17.007,0,0,1-1.451.965c-.02-.294.254-.687.978-1.2.171-.123.365-.254.588-.389,4.34-2.667,11.529-20.86,12.4-23.153.048-.123.075-.2.084-.226,0,0,.091-.147.25-.385-.079.219-.155.437-.23.656C1502,1198.076,1503.563,1198.771,1505,1199.4Z" transform="translate(-1345.473 -959.296)"/><path class="x" d="M1363.411,1156.516c-2.412,7.459-2.941,10.623-6.633,10.8s-34.547-8.23-35.469-8.775c.215-1.4.425-2.655.632-3.787a.911.911,0,0,1,.2.079c1.761.878,27.954,8.087,31.121,6.855s7.559-6.33,7.559-6.33Z" transform="translate(-1236.753 -931.674)"/></g><g transform="translate(929.47 667.693)"><path class="f" d="M1598.061,1261.523c-1.944-22.724-5.918-41.27-16.245-43.991s-19.164-2.179-11.149.574c5.2,1.787,9.963,8.232,11.375,13.526,3.155,11.83,1.111,24.543,2,29.991S1598.819,1270.383,1598.061,1261.523Z" transform="translate(-1531.826 -1202.128)"/><path class="d" d="M1524.148,1184.591c7.412,1.645,5.833,14.505-4.3,12.481s-46.356-8.144-51.9-9.251-10.484-13.9,6.553-11.785S1524.148,1184.591,1524.148,1184.591Z" transform="translate(-1462.743 -1175.801)"/></g><g transform="translate(706.584 737.181)"><line class="y" x2="74.879" y2="1.47" transform="translate(80.761)"/><line class="y" x2="175.095" y2="0.49" transform="translate(0 7.314)"/><line class="y" x2="112.205" y2="0.905" transform="translate(26.694 13.686)"/></g><g transform="translate(799.334 499.197)"><line class="z" x2="40.342" y2="1.47" transform="translate(43.511 0)"/><line class="z" x2="94.334" y2="0.49" transform="translate(0 7.314)"/><line class="z" x2="60.452" y2="0.905" transform="translate(14.382 13.686)"/></g><line class="y" x1="38.005" y1="0.905" transform="translate(764.044 761.726)"/></g></svg>