<svg xmlns="http://www.w3.org/2000/svg" width="562.785" height="264.886" viewBox="0 0 562.785 264.886"><defs><style>.a{fill:#d9e8fe;}.b{fill:#f5fbff;}.c{fill:#8fadef;}.d{fill:#dfebfd;}.e{fill:#9fc1f4;}.f{fill:#ff8c64;}.g{fill:#bbc9f9;}.h{fill:#35488b;}.i{fill:#2c3a64;}.j{fill:#dde7fe;}.k{fill:#6c7aff;}.l{fill:#cde2fc;}.m{fill:#a4c8f4;}.n,.p{fill:#fff;}.o{fill:#ccc;}.p{stroke:#ccc;opacity:0.5;}.q{fill:#f6f6f6;stroke:#cecece;}.r{fill:#505050;}.s{fill:#efefef;}.t{fill:#f9f9f9;}.u{fill:#242e41;}.v{fill:#4a5874;}.w{fill:#ffb93e;}.x{fill:#ffa412;}.y{fill:#e3eeff;}.z{fill:#cedbf3;}.aa{fill:#bdd8ff;}.ab{fill:#7da4ea;}.ac{fill:#f77d48;}.ad{fill:#e30045;}.ae{fill:#810027;}.af{fill:#0b0755;}.ag{fill:#151515;}.ah{fill:#f2beb7;}.ai{fill:#677694;}.aj{fill:#fefefe;}.ak{fill:#2a2a2a;}.al{fill:#e9b2ab;}.am{fill:#131313;}.an{fill:#f99746;}.ao{fill:#f2f7fe;}.ap{fill:#c4d9e8;}.aq{fill:#dfebf5;}.ar{fill:#233862;}.as{stroke:none;}.at{fill:none;}</style></defs><g transform="translate(872 -2653.293)"><g transform="translate(-872 2621)"><rect class="a" width="29.268" height="29.268" transform="translate(260.035 125.166) rotate(-11.916)"/><rect class="b" width="29.268" height="29.268" transform="translate(273.392 125.354) rotate(20.314)"/><g transform="translate(227.175 58.951)"><rect class="c" width="43.984" height="45.799" rx="15.696"/><path class="d" d="M14.336,0h11.5A14.337,14.337,0,0,1,40.173,14.337V27.494A14.336,14.336,0,0,1,25.837,41.831h-11.5A14.336,14.336,0,0,1,0,27.494V14.336A14.336,14.336,0,0,1,14.336,0Z" transform="translate(1.905 1.984)"/><g transform="translate(5.193 5.186)"><g transform="translate(15.888)"><path class="c" d="M1342.246,555.767a.913.913,0,1,1,.911.978A.946.946,0,0,1,1342.246,555.767Z" transform="translate(-1342.246 -554.789)"/><path class="c" d="M1377.214,564.235a.879.879,0,0,1,1.239-.38,1.016,1.016,0,0,1,.354,1.33.879.879,0,0,1-1.239.38A1.017,1.017,0,0,1,1377.214,564.235Z" transform="translate(-1369.862 -561.875)"/><path class="c" d="M1406.393,591.424a.875.875,0,0,1,1.26.292,1.022,1.022,0,0,1-.272,1.352.875.875,0,0,1-1.26-.292A1.022,1.022,0,0,1,1406.393,591.424Z" transform="translate(-1392.742 -583.693)"/><path class="c" d="M1419.533,632.053a.98.98,0,1,1-.911.978A.947.947,0,0,1,1419.533,632.053Z" transform="translate(-1402.763 -616.01)"/><path class="c" d="M1409.4,677.42a1.029,1.029,0,0,1,0,1.383.868.868,0,0,1-1.288,0,1.029,1.029,0,0,1,0-1.383A.868.868,0,0,1,1409.4,677.42Z" transform="translate(-1394.226 -651.729)"/><path class="c" d="M1381.85,707.07a1.03,1.03,0,0,1,0,1.383.868.868,0,0,1-1.289,0,1.029,1.029,0,0,1,0-1.383A.868.868,0,0,1,1381.85,707.07Z" transform="translate(-1372.394 -675.222)"/><path class="c" d="M1342.246,719.714a.913.913,0,1,1,.911.978A.946.946,0,0,1,1342.246,719.714Z" transform="translate(-1342.246 -684.693)"/></g><g transform="translate(0 1.857)"><path class="c" d="M1308.96,564.235a.879.879,0,0,0-1.239-.38,1.016,1.016,0,0,0-.354,1.33.88.88,0,0,0,1.239.38A1.017,1.017,0,0,0,1308.96,564.235Z" transform="translate(-1298.63 -563.732)"/><path class="c" d="M1279.782,591.424a.875.875,0,0,0-1.26.292,1.022,1.022,0,0,0,.272,1.352.875.875,0,0,0,1.26-.292A1.022,1.022,0,0,0,1279.782,591.424Z" transform="translate(-1275.751 -585.55)"/><path class="c" d="M1266.641,632.053a.98.98,0,1,0,.911.978A.946.946,0,0,0,1266.641,632.053Z" transform="translate(-1265.73 -617.867)"/><path class="c" d="M1276.772,677.42a1.029,1.029,0,0,0,0,1.383.868.868,0,0,0,1.289,0,1.029,1.029,0,0,0,0-1.383A.868.868,0,0,0,1276.772,677.42Z" transform="translate(-1274.268 -653.586)"/><path class="c" d="M1304.325,707.07a1.029,1.029,0,0,0,0,1.383.868.868,0,0,0,1.288,0,1.029,1.029,0,0,0,0-1.383A.867.867,0,0,0,1304.325,707.07Z" transform="translate(-1296.1 -677.079)"/></g></g><g transform="translate(21.746 9.991)"><path class="c" d="M1345.451,633.031a.913.913,0,1,1,.911.978A.946.946,0,0,1,1345.451,633.031Z" transform="translate(-1345.451 -620.814)"/><g transform="translate(0.787)"><rect class="c" width="0.249" height="12.216"/></g><g transform="translate(0.566 6.8)"><path class="c" d="M1348.637,616.392l-.461-.63,6.034-5.084.461.63Z" transform="translate(-1348.176 -610.678)"/></g></g></g><g transform="translate(330.881 32.293)"><g transform="translate(6.826)"><path class="e" d="M1775.633,417.255l-1.209-.664a2.673,2.673,0,0,1-1.057-3.626l5.566-10.148a2.674,2.674,0,0,1,3.626-1.057l1.732.95a.523.523,0,1,1-.5.917l-1.732-.95a1.627,1.627,0,0,0-2.207.643l-5.566,10.148a1.627,1.627,0,0,0,.644,2.207l1.209.663a1.627,1.627,0,0,0,2.207-.643l3.7-6.737a.523.523,0,0,1,.916.5l-3.7,6.737A2.674,2.674,0,0,1,1775.633,417.255Z" transform="translate(-1773.037 -401.432)"/></g><g transform="translate(0 1.214)"><path class="e" d="M1744.419,432.546l-2.168-1.189a4.325,4.325,0,0,1-1.505-5.914l8.369-15.257a.523.523,0,0,1,.916.5l-8.369,15.257a3.281,3.281,0,0,0,1.092,4.495l2.168,1.189a3.281,3.281,0,0,0,4.377-1.5l9.532-17.378a3.281,3.281,0,0,0-1.091-4.495.523.523,0,0,1,.5-.917,4.325,4.325,0,0,1,1.505,5.914l-9.532,17.379A4.325,4.325,0,0,1,1744.419,432.546Z" transform="translate(-1740.162 -407.28)"/></g></g><g transform="translate(415.271 80.722)"><g transform="translate(9.285 8.966)"><path class="f" d="M2192.046,679.648l.958-.993a2.674,2.674,0,0,1,3.776-.067l8.328,8.038a2.674,2.674,0,0,1,.067,3.776l-1.372,1.422a.523.523,0,0,1-.752-.726l1.372-1.422a1.627,1.627,0,0,0-.041-2.3l-8.329-8.037a1.627,1.627,0,0,0-2.3.041l-.958.993a1.627,1.627,0,0,0,.041,2.3l5.529,5.336a.523.523,0,0,1-.726.752l-5.529-5.336A2.674,2.674,0,0,1,2192.046,679.648Z" transform="translate(-2191.298 -677.841)"/></g><path class="f" d="M2147.689,637.649l1.717-1.779a4.325,4.325,0,0,1,6.1.1l12.521,12.084a.523.523,0,1,1-.726.752l-12.521-12.084a3.281,3.281,0,0,0-4.624-.128l-1.717,1.779a3.281,3.281,0,0,0,.292,4.616L2163,656.756a3.281,3.281,0,0,0,4.624.128.522.522,0,1,1,.752.726,4.325,4.325,0,0,1-6.1-.1l-14.262-13.765A4.325,4.325,0,0,1,2147.689,637.649Z" transform="translate(-2146.581 -634.66)"/></g><g transform="translate(228.914 102.983)"><path class="a" d="M1255.693,1032.021s-1.71-28.245-6.594-37.086h25.713v37.029Z" transform="translate(-1249.099 -942.387)"/><path class="g" d="M1317.609,1032.021s-1.709-28.245-6.594-37.086h25.713v37.029Z" transform="translate(-1298.159 -942.387)"/><g transform="translate(29.124 37.353)"><rect class="h" width="24.886" height="80.282"/><rect class="i" width="60.014" height="80.282" transform="translate(24.886)"/><circle class="j" cx="4.154" cy="4.154" r="4.154" transform="translate(8.289 5.874)"/><circle class="k" cx="2.937" cy="2.937" r="2.937" transform="translate(9.506 7.09)"/><rect class="c" width="11.705" height="21.145" transform="translate(6.681 20.034)"/></g><rect class="l" width="47.755" height="15.393" transform="translate(72.099 74.183)"/><rect class="m" width="47.755" height="15.393" transform="translate(119.855 74.183)"/><g transform="translate(72.099 81.712)"><rect class="c" width="11.917" height="0.334"/></g><g transform="translate(86.938 76.976)"><rect class="c" width="32.917" height="0.334"/></g><g transform="translate(72.099 85.857)"><rect class="c" width="21.069" height="0.334"/></g><path class="n" d="M0,0H47.755V15.393H0Z" transform="translate(57.288 58.79)"/><rect class="o" width="47.755" height="15.393" transform="translate(105.043 58.79)"/><g transform="translate(57.288 66.319)"><rect class="c" width="11.917" height="0.334"/></g><g transform="translate(72.126 61.583)"><rect class="c" width="32.917" height="0.334"/></g><g transform="translate(57.288 70.464)"><rect class="c" width="21.069" height="0.334"/></g><path class="p" d="M0,0H47.755V15.393H0Z" transform="translate(84.017 15.393)"/><rect class="o" width="47.755" height="15.393" transform="translate(131.772 15.393)"/><g transform="translate(84.017 22.923)"><rect class="c" width="11.917" height="0.334"/></g><g transform="translate(98.855 18.186)"><rect class="c" width="32.917" height="0.334"/></g><g transform="translate(84.017 26.853)"><rect class="c" width="21.069" height="0.334"/></g><g class="q" transform="translate(69.205)"><rect class="as" width="47.755" height="15.393"/><rect class="at" x="0.5" y="0.5" width="46.755" height="14.393"/></g><rect class="r" width="47.755" height="15.393" transform="translate(116.961)"/><g transform="translate(69.206 7.529)"><rect class="c" width="11.917" height="0.334"/></g><g transform="translate(114.497 7.529)"><rect class="c" width="11.917" height="0.334"/></g><g transform="translate(110.093 2.793)"><rect class="c" width="32.917" height="0.334"/></g><g transform="translate(69.206 11.674)"><rect class="c" width="21.069" height="0.334"/></g><rect class="s" width="47.755" height="28.024" transform="translate(170.759 58.79) rotate(180)"/><rect class="t" width="47.755" height="28.024" transform="translate(123.004 58.79) rotate(180)"/><g transform="translate(158.842 44.552)"><rect class="c" width="11.917" height="0.451"/></g><g transform="translate(90.274 36.033)"><rect class="h" width="65.646" height="0.244"/></g><g transform="translate(149.69 52.097)"><rect class="c" width="21.069" height="0.451"/></g><g transform="translate(109.139 41.053)"><rect class="h" width="22.633" height="0.244"/></g><g transform="translate(4.5 89.634)"><rect class="u" width="140.604" height="103.883" transform="translate(46.224)"/><rect class="v" width="111.48" height="103.883"/><path class="i" d="M3.461,0H31.917a3.461,3.461,0,0,1,3.461,3.461v0a3.461,3.461,0,0,1-3.461,3.461H3.461A3.461,3.461,0,0,1,0,3.461v0A3.461,3.461,0,0,1,3.461,0Z" transform="translate(31.695 10.036)"/></g><g transform="translate(44.766 122.574)"><rect class="e" width="26.728" height="26.729" transform="translate(4.623 0) rotate(9.959)"/><rect class="c" width="26.728" height="4.319" transform="matrix(0.985, 0.173, -0.173, 0.985, 4.623, 0)"/></g><g transform="translate(76.847 101.314)"><rect class="w" width="26.728" height="26.729" transform="matrix(0.967, -0.254, 0.254, 0.967, 0, 6.791)"/><rect class="x" width="26.728" height="4.319" transform="translate(0 6.791) rotate(-14.719)"/></g><g transform="translate(2.326 52.492)"><path class="c" d="M1263.138,1002.916a33.98,33.98,0,0,0-2.837-8.138l.217-.112a34.257,34.257,0,0,1,2.861,8.207Z" transform="translate(-1260.3 -994.666)"/></g><g transform="translate(6.773 52.499)"><path class="c" d="M1286.416,1013.033a77.9,77.9,0,0,0-4.7-18.235l.224-.1a78.2,78.2,0,0,1,4.716,18.3Z" transform="translate(-1281.718 -994.701)"/></g></g><g transform="translate(363.221 151.86)"><g transform="translate(0 52.999)"><rect class="y" width="105.921" height="78.258" transform="translate(38.94 13.317)"/><path class="z" d="M0,0H83.981V78.258H0Z" transform="translate(4.118 13.317)"/><path class="h" d="M2.607,0H24.044a2.607,2.607,0,0,1,2.607,2.607v0a2.607,2.607,0,0,1-2.607,2.607H2.607A2.607,2.607,0,0,1,0,2.607v0A2.607,2.607,0,0,1,2.607,0Z" transform="translate(27.995 20.878)"/><rect class="aa" width="88.099" height="17.241"/><rect class="ab" width="59.403" height="17.241" transform="translate(88.099)"/><g transform="translate(49.964 29.656)"><rect class="f" width="27.853" height="27.853" transform="matrix(0.967, -0.254, 0.254, 0.967, 0, 7.077)"/><rect class="ac" width="27.853" height="4.501" transform="matrix(0.967, -0.254, 0.254, 0.967, 0, 7.077)"/></g></g><g transform="translate(25.844 0)"><path class="ad" d="M2178.187,995.451l22.085-17.782,32.769,4.007v13.775Z" transform="translate(-2145.417 -977.583)"/><rect class="ae" width="17.953" height="54.855" transform="translate(54.855 0) rotate(90)"/><path class="j" d="M2240.724,1007.025a2.838,2.838,0,1,1-2.838,2.838A2.838,2.838,0,0,1,2240.724,1007.025Z" transform="translate(-2192.72 -1000.844)"/><path class="af" d="M2245.5,1013.052a1.587,1.587,0,1,1-1.586,1.587A1.587,1.587,0,0,1,2245.5,1013.052Z" transform="translate(-2197.495 -1005.619)"/><rect class="n" width="7.998" height="16.978" transform="translate(41.166 5.083) rotate(90)"/></g><g transform="translate(29.138 35.476)"><path class="n" d="M0,0H54.363V17.523H0Z"/><g transform="translate(0)"><rect class="o" width="54.363" height="17.523" transform="translate(54.363)"/><g transform="translate(0 8.571)"><rect class="h" width="13.566" height="0.381"/></g><g transform="translate(16.891 3.18)"><rect class="h" width="37.471" height="0.381"/></g><g transform="translate(0 13.289)"><rect class="h" width="23.983" height="0.381"/></g></g></g><g transform="translate(12.278 17.953)"><path class="n" d="M0,0H54.363V17.523H0Z"/><rect class="s" width="54.363" height="17.523" transform="translate(54.363)"/><g transform="translate(0 8.571)"><rect class="c" width="13.566" height="0.381"/></g><g transform="translate(16.891 3.18)"><rect class="c" width="37.471" height="0.381"/></g><g transform="translate(0 13.289)"><rect class="c" width="23.983" height="0.381"/></g></g></g><g transform="translate(61.931 49.773)"><g transform="translate(28.216 11.788)"><path class="v" d="M583.033,604.349a2.272,2.272,0,0,1-1.979-.724,1.7,1.7,0,0,1-.2-1.325c.984-5.213,18.138-20.054,40.79-35.289,22.112-14.872,46.63-27.878,49.383-23.9a1.706,1.706,0,0,1,.2,1.326c-.984,5.213-18.138,20.054-40.79,35.289C611.064,592.751,589.845,604.349,583.033,604.349Zm-1.574-1c1.03,1.487,6.943-.216,15.819-4.553a293.525,293.525,0,0,0,32.884-19.478c22.189-14.923,39.635-29.958,40.581-34.971a1.24,1.24,0,0,0-.124-.953c-1.029-1.486-6.943.216-15.818,4.553a293.457,293.457,0,0,0-32.885,19.479c-22.189,14.923-39.635,29.957-40.581,34.971a1.241,1.241,0,0,0,.124.954Z" transform="translate(-580.805 -542.384)"/></g><path class="ag" d="M732.377,1214.43c-15.4-4.944-113.667,37.338-113.667,37.338s-16,11.36-.722,35.141c12.686,19.746,108.115-40.578,109.844-33,4.13,18.092,39.33,52.8,39.33,52.8,5.878,1.928,18.961-5.922,18.961-5.922C772.379,1279.906,744.679,1218.38,732.377,1214.43Z" transform="translate(-576.816 -1062.777)"/><path class="ah" d="M883.447,783.835a18.5,18.5,0,0,1-2.505-6.866c-.348-3.455.195-13.184-2.24-15.454s-10.149-7.887-12.932-6.683,6.347,6.819,6.623,9.663.1,3.158-.962,3.347-4.575-3.993-4.591-2.663,3.418,8.649,5.127,10.116,4.248,12.741,4.248,12.741Z" transform="translate(-777.964 -698.797)"/><path class="ai" d="M772.116,871.947s-9.1,0-10.642,7.341a435.686,435.686,0,0,0,3.74,47.2c-19.624-18.541-12.36-18.259-28.312-30.335-6.483-4.907-12.324,11.972-12.162,23.916s41.8,39.237,52.523,35.884C788.889,952.315,791.271,926.272,772.116,871.947Z" transform="translate(-666.634 -791.727)"/><path class="aj" d="M1701.914,1539.485c.051-.036.333-.414.393-.467l18.467-31.02a1.6,1.6,0,0,0-1.029-2.42,7.231,7.231,0,0,0-7.3,2.658c-3.7,4.8-11.678,12.27-19.51,10.669-.249-.053-.5-.114-.756-.184-8.064-2.269-5.012,14.551-5.012,14.551s.266.191.728.5C1690.389,1535.473,1699.593,1541.113,1701.914,1539.485Z" transform="translate(-1428.776 -1293.66)"/><path class="ak" d="M508.718,1439.236s85.576-3.783,118.66,4.793c0,0,32.887,23.133,5.438,30.814-10.682,2.989-47.2,11.741-66.968,11.741-32.453,0-63.511.208-63.511.208-5-2.2-5.78-17-6.588-20.979C490.128,1438.112,508.718,1439.236,508.718,1439.236Z" transform="translate(-484.356 -1240.563)"/><path class="ak" d="M1085.331,1463.1s89.7,17.024,124.523,22.461c0,0-3.788,14.629-9.448,17.873,0,0-20.719,1.357-41.435,2.716-25.578,1.679-50.808-1.456-66.148-7.616C1058.187,1484.628,1085.331,1463.1,1085.331,1463.1Z" transform="translate(-944.337 -1260.133)"/><path class="ah" d="M661.084,881.879c-15.783-.7-36.377-24.995-36.377-24.995s11.662-3.532,19.422-16.786a45.721,45.721,0,0,0,3.965-8.861l5.243,8.7,7.728,12.826s-.7,1.868-2.269,5.16v0c-.523,1.1-1.141,2.356-1.864,3.752-.869,1.679-1.884,3.559-3.056,5.62C658.732,872.861,661.084,881.879,661.084,881.879Z" transform="translate(-587.375 -759.47)"/><path class="al" d="M744.811,883.983s-.7,1.868-2.269,5.16c-11.15-7.587-12.142-18.493-12.142-18.493s.865-.13,6.682.507Z" transform="translate(-671.122 -790.69)"/><path class="ah" d="M748.11,775.6s-23.828-8.305-18.428-23.065,5.962-25.772,21.4-21.093S767.407,742.831,766.8,748.2,754.448,777.383,748.11,775.6Z" transform="translate(-669.922 -679.536)"/><path class="am" d="M701.569,685.909c-.177-.319-.667-.649-1.847-.964a4.893,4.893,0,0,1,2.362-.174c.6-1.634,2.1-4.433,5.111-4.564a3.708,3.708,0,0,0-2.281,2.262c4.026-2.762,11.638-3.8,30.94,1.86,25.438,7.458,13.411,22.5,9.645,23.813s-11.052-5.944-17.4-6.739-9.437,8.114-11.815,8.931-1.083-1.233-3.674-3.143-3.866,2.852-3.691,6.158-5.471,6.142-5.471,6.142a22.284,22.284,0,0,0-2.222-4.7c-3.1-5.16-2.985-24.381-.36-27.932C701.1,686.547,701.333,686.229,701.569,685.909Z" transform="translate(-646.164 -639.802)"/><path class="v" d="M528.412,967.092c-1.793,46.229-17.305,39.095-9.239,52.778,5.141,8.716-5.6,15.595-17.392,24.479q-.519.39-1.038.787c-3.383,2.572-6.961,5.089-10.541,7.378a92.173,92.173,0,0,1-15.952,8.409c-4.944,1.892-9.148,2.58-11.854,1.4-.087-.035-.165-.067-.244-.106-2.312-1.141-4.232-4.232-5.8-8.421-2.82-7.465-6.022-36.991-6.934-45.812-.161-1.585-.252-2.5-.252-2.5-5.235-64.36,48.2-86.968,48.2-86.968s4.676,13.97,19.779,13.113C517.167,931.655,529.171,947.5,528.412,967.092Z" transform="translate(-447.997 -828.629)"/><path class="v" d="M504.119,1171.446c-.346.259-.692.523-1.038.786-3.383,2.572-6.961,5.089-10.541,7.379a92.165,92.165,0,0,1-15.952,8.409c-5.361,1.522-9.8,2.194-11.854,1.4-.087-.035-.165-.067-.244-.106-2.313-1.141-4.232-4.232-5.8-8.421-2.82-7.465-6.022-36.99-6.934-45.812,6.557-18.871,15.571-40.2,25.577-49.754,19.728-18.839,25.742,9.852,25.742,9.852S487.812,1132.831,504.119,1171.446Z" transform="translate(-450.335 -955.725)"/><path class="ai" d="M532.1,989.207c-7.822,19.445-24.065,56.951-18.287,75.2,0,0,23.391,6.173,24.07-1.065,3.8-40.464,38.606-84.726,11.737-83.859C542.107,979.722,534.91,982.23,532.1,989.207Z" transform="translate(-498.546 -876.921)"/><path class="ad" d="M722.183,992.806s18.654,56.332,7.85,110.673l-16.042,5.515-3.93-11.408s20.8-53.142,9.534-104.18Z" transform="translate(-655.006 -887.491)"/><path class="ah" d="M583.133,1607.5s6.1,8.325,13.569,7.145,10.226.983,13.569,2.753,4.262,2.7,3.065,3.17c-.9.353-17.227.174-25.244.065-2.633-.036-10.171-7.069-10.171-7.069Z" transform="translate(-550.305 -1374.545)"/><path class="ai" d="M513.457,1342.662c-1.136,30.4,9.345,51.133,12.188,61.76,0,0,3.456,1.639,6.144.754,5.878-1.936,5.808-6.6,5.808-6.6s.156-37.812.9-51.7C539.223,1333.338,513.694,1336.318,513.457,1342.662Z" transform="translate(-499.158 -1160.457)"/><path class="ad" d="M670.3,901.4s-5.011,1.35-7.495,5.63c0,0,1.953,8.44,21.028,13.16l-.72-2.206S672.217,912.63,670.3,901.4Z" transform="translate(-617.564 -815.065)"/><path class="ad" d="M756.938,973.282a33.4,33.4,0,0,0,4.708-2.093,7.78,7.78,0,0,1,.577,4.031s-1.259.789-4.565.267S756.938,973.282,756.938,973.282Z" transform="translate(-691.387 -870.362)"/><path class="n" d="M752.28,980.77s-3.8-.324-4.2.166,2.222,4.981,3.518,4.763S753.329,981.294,752.28,980.77Z" transform="translate(-685.103 -877.871)"/><g transform="translate(28.822 12.422)"><path class="v" d="M585.706,606.676a2.274,2.274,0,0,1-1.979-.724l.4-.28c1.991,2.874,22.036-6.1,48.7-24.031,22.189-14.923,39.635-29.958,40.581-34.971a1.241,1.241,0,0,0-.124-.953l.4-.281a1.705,1.705,0,0,1,.2,1.325c-.984,5.213-18.138,20.054-40.79,35.289C613.737,595.078,592.518,606.676,585.706,606.676Z" transform="translate(-583.727 -545.435)"/></g><g transform="translate(17.703 27.711)"><path class="v" d="M548.941,650.042a59.449,59.449,0,0,1-12.74-1.095c-3.4-.781-5.385-1.964-5.9-3.516a3.1,3.1,0,0,1,.408-2.588c2.31-3.951,11.6-7.927,16.927-9.945a221.208,221.208,0,0,1,34.128-9.334c14.644-2.884,28.781-4.481,39.807-4.5a59.819,59.819,0,0,1,12.923,1.095c3.4.781,5.385,1.964,5.9,3.516a3.1,3.1,0,0,1-.408,2.588c-2.31,3.951-11.6,7.927-16.927,9.945a221.229,221.229,0,0,1-34.128,9.334c-14.644,2.884-28.781,4.481-39.807,4.5Zm72.812-30.364h-.178c-10.988.018-25.083,1.611-39.69,4.487-25.895,5.1-47.194,13.084-50.644,18.987a2.516,2.516,0,0,0-.355,2.087c.878,2.665,7.457,4.19,18.059,4.19h.177c10.988-.017,25.083-1.611,39.69-4.487,25.895-5.1,47.194-13.084,50.644-18.987a2.517,2.517,0,0,0,.355-2.087C638.934,621.2,632.355,619.678,621.753,619.678Z" transform="translate(-530.175 -619.066)"/></g><path class="w" d="M601.244,676.254l-1.537,1.22,1.9.478.685,1.839,1.043-1.662,1.961-.083-1.259-1.506.527-1.89-1.821.732-1.635-1.085Z" transform="translate(-567.566 -635.117)"/><path class="v" d="M983.2,571.66l-.628,1.859,1.858-.632L986,574.059l-.027-1.962,1.6-1.135-1.875-.581-.584-1.873-1.131,1.6-1.962-.023Z" transform="translate(-870.497 -551.296)"/><path class="v" d="M881.859,507.986l-.828,1.779,1.916-.424,1.436,1.338.188-1.953,1.716-.952-1.8-.783-.375-1.926-1.3,1.469-1.948-.238Z" transform="translate(-790.343 -501.025)"/><path class="an" d="M996.7,744.068l-.829,1.779,1.916-.425,1.436,1.338.189-1.953,1.716-.952-1.8-.783-.375-1.926-1.3,1.469-1.948-.238Z" transform="translate(-881.338 -688.086)"/><path class="w" d="M627.343,811.276l-1.626,1.1,1.861.623.542,1.886,1.167-1.577,1.961.067-1.14-1.6.67-1.844-1.871.59-1.547-1.207Z" transform="translate(-588.176 -742.099)"/><path class="v" d="M444.92,759.382l10.42,3.526-1.224-4.256,6.1,1.162-10.708-5.352,1.864,4.971Z" transform="translate(-444.92 -698.638)"/><path class="v" d="M775.511,485.614l-.677,16.839,5.725-3.639.929,9.465,3.235-18.052-6.5,4.889Z" transform="translate(-706.329 -485.614)"/></g><g transform="translate(354.885 272.501)"><path class="n" d="M1855.813,1570.16c.3.724.856,4.561,2.037,7.77v0c.712,1.931,1.647,3.63,2.89,4.293,3.313,1.771,9.176-.626,9.176-.626s9.731,1.673,10.709,1.273,2.742-15.045,2.742-15.045-7.179-8.336-7.847-8.6-6.407,2.368-7.359,2.315-6.328-4-7.874-3.171S1855.332,1569,1855.813,1570.16Z" transform="translate(-1855.767 -1558.257)"/><path class="ao" d="M1915.452,1565.179s1.488,3.938,1.945,4.3,5.415-6.619,5.415-6.619C1922.144,1562.6,1916.4,1565.232,1915.452,1565.179Z" transform="translate(-1903.059 -1561.893)"/><path class="ao" d="M1870.934,1577.238s6.6,6.83,6.479,7.428-7.8,4.483-8.061,4.317,1.866-4.963,1.821-5.8S1870.934,1577.238,1870.934,1577.238Z" transform="translate(-1866.513 -1573.297)"/><path class="ao" d="M1855.813,1570.6c.3.724.856,4.561,2.037,7.77v0h0l-.432-7.232,2.865-12.331C1858.739,1559.645,1855.332,1569.437,1855.813,1570.6Z" transform="translate(-1855.767 -1558.695)"/><path class="ao" d="M1923.906,1618.125s9.731,1.673,10.708,1.273,2.743-15.046,2.743-15.046-2.547,7.421-2.614,7.794-3.036-.617-3.036-.617Z" transform="translate(-1909.757 -1594.781)"/><path class="ao" d="M1962.863,1603.673l-1.3,3.838-2.244-.124,1.757-1.545Z" transform="translate(-1937.813 -1594.243)"/></g><g transform="translate(409.917 279.753)"><path class="n" d="M2120.832,1601.173c.234.493.666,3.093,1.583,5.276v0a5.512,5.512,0,0,0,2.243,2.935c2.57,1.235,7.118-.318,7.118-.318s7.549,1.242,8.307.984,2.123-10.139,2.123-10.139-5.572-5.718-6.09-5.9-4.969,1.526-5.708,1.48-4.91-2.778-6.11-2.234S2120.458,1600.382,2120.832,1601.173Z" transform="translate(-2120.796 -1593.184)"/><path class="ap" d="M2167.081,1598.588a18.032,18.032,0,0,0,1.51,2.932c.355.252,4.2-4.412,4.2-4.412C2172.271,1596.922,2167.82,1598.635,2167.081,1598.588Z" transform="translate(-2157.47 -1596.282)"/><path class="aq" d="M2132.563,1605.98s5.125,4.693,5.029,5.1-6.047,2.941-6.252,2.826,1.446-3.333,1.411-3.9S2132.563,1605.98,2132.563,1605.98Z" transform="translate(-2129.137 -1603.323)"/><path class="ap" d="M2120.832,1601.446c.234.493.666,3.093,1.583,5.276v0h0l-.338-4.894,2.218-8.3C2123.1,1594.076,2120.458,1600.656,2120.832,1601.446Z" transform="translate(-2120.796 -1593.458)"/><path class="aq" d="M2173.672,1634.748s7.549,1.242,8.307.984,2.122-10.139,2.122-10.139-1.973,4.987-2.024,5.239-2.356-.452-2.356-.452Z" transform="translate(-2162.693 -1618.864)"/><path class="aq" d="M2203.872,1624.992l-1.01,2.58-1.741-.11,1.362-1.024Z" transform="translate(-2184.442 -1618.387)"/></g><g transform="translate(421.165 135.706)"><path class="n" d="M2175,907.451c.234.493.666,3.093,1.583,5.276v0a5.51,5.51,0,0,0,2.243,2.935c2.571,1.235,7.118-.318,7.118-.318s7.549,1.242,8.307.984,2.122-10.139,2.122-10.139-5.572-5.717-6.089-5.9-4.97,1.527-5.708,1.48-4.91-2.778-6.109-2.234S2174.625,906.661,2175,907.451Z" transform="translate(-2174.963 -899.463)"/><path class="ap" d="M2221.248,904.866a18.037,18.037,0,0,0,1.51,2.932c.355.252,4.2-4.411,4.2-4.411C2226.438,903.2,2221.987,904.913,2221.248,904.866Z" transform="translate(-2211.637 -902.56)"/><path class="aq" d="M2186.73,912.259s5.125,4.693,5.029,5.1-6.047,2.941-6.252,2.826,1.446-3.333,1.411-3.9S2186.73,912.259,2186.73,912.259Z" transform="translate(-2183.304 -909.602)"/><path class="ap" d="M2175,907.725c.234.493.666,3.093,1.583,5.276v0h0l-.338-4.894,2.218-8.3C2177.265,900.355,2174.625,906.934,2175,907.725Z" transform="translate(-2174.963 -899.736)"/><path class="aq" d="M2227.839,941.026s7.549,1.242,8.307.984,2.122-10.139,2.122-10.139-1.973,4.987-2.025,5.238-2.355-.452-2.355-.452Z" transform="translate(-2216.86 -925.142)"/><path class="aq" d="M2258.04,931.27l-1.01,2.58-1.741-.11,1.363-1.024Z" transform="translate(-2238.609 -924.665)"/></g><path class="ar" d="M.746,0H562.039a.746.746,0,0,1,.746.746v0a.746.746,0,0,1-.746.746H.746A.746.746,0,0,1,0,.747v0A.746.746,0,0,1,.746,0Z" transform="translate(0 295.687)"/></g></g></svg>