<svg xmlns="http://www.w3.org/2000/svg" width="426.75" height="439.143" viewBox="0 0 426.75 439.143"><defs><style>.a{fill:#e9e9e9;}.b{fill:#e0e6f1;}.c{fill:#fb9391;}.d{fill:#fff;}.e{fill:#17152b;}.f{fill:#333441;}.g{fill:#1c1c1c;}.h{fill:#43434a;}.i{fill:#060633;}.j{fill:#ea6868;}.k{fill:#EC0085;}.l{fill:#fa7267;}</style></defs><g transform="translate(-97.093 -33.304)"><g transform="translate(97.093 33.304)"><rect class="a" width="391.897" height="45.712" transform="translate(189.444 430.838) rotate(-90)"/><path class="a" d="M818.089,99.681H784.183L837.3,33.3l53.125,66.377Z" transform="translate(-621.809 -33.304)"/><path class="a" d="M181.859,436.291v26.551L97.093,421.249l84.767-41.6Z" transform="translate(-97.093 -297.801)"/><path class="a" d="M528.922,598.588l-40.142,9.294a182.082,182.082,0,0,0-32.044-50.259c-27.741-30.9-61.345-46.575-99.878-46.575V478.269c52.59,0,99.219,21.2,134.846,61.313C517.451,568.568,528.466,597.375,528.922,598.588Z" transform="translate(-295.471 -373.115)"/><path class="a" d="M1544.213,436.291v26.551l84.766-41.593-84.766-41.6Z" transform="translate(-1202.229 -297.801)"/><path class="a" d="M1087.111,478.269v32.779c-94.378,0-131.547,95.84-131.911,96.808l-40.152-9.268c.456-1.212,11.471-30.02,37.217-59.006C987.892,499.47,1034.521,478.269,1087.111,478.269Z" transform="translate(-721.748 -373.115)"/></g><ellipse class="b" cx="98.67" cy="9.353" rx="98.67" ry="9.353" transform="translate(208.39 453.741)"/><g transform="translate(225.556 211.53)"><path class="c" d="M765.181,1309.136s2.551,6.708,2.976,8.84,2.474,3.892,1.353,4.531-3.55-2.815-3.55-2.815a10.542,10.542,0,0,0-.741,2.581c-.186,1.361-.874,2.61-1.915,2.556s-.679-2.409-.679-2.409-.608,2.53-1.773,2.187c-.941-.277-.74-3.654-.74-3.654a20.419,20.419,0,0,1-.848,2.7c-.367.657-1.642.874-1.614-1.3s.046-2.114.046-2.114a16.465,16.465,0,0,1-1.061,2.555c-.34.422-1.641.542-1.307-1.27.588-3.191,2.325-9.372,4.771-12.385Z" transform="translate(-728.195 -1185.857)"/><path class="d" d="M884.777,1761.588s-.4,11.716-.5,11.879.776,1.674.776,1.674l3.661.84,3.445-1.387s.228-10.9.664-12.6S884.777,1761.588,884.777,1761.588Z" transform="translate(-826.71 -1531.026)"/><path class="e" d="M846.37,1813.759a9.613,9.613,0,0,1-7.848-1.356s-14.429,4.628-14.192,8.688c0,0-.661,1.174,5.492,1.211s15.71.224,15.973.094S847.228,1822.974,846.37,1813.759Z" transform="translate(-780.917 -1570.192)"/><path class="d" d="M1074.034,1761.588s.4,11.716.5,11.879-.776,1.674-.776,1.674l-3.661.84-3.445-1.387s-.228-10.9-.664-12.6S1074.034,1761.588,1074.034,1761.588Z" transform="translate(-965.466 -1531.026)"/><path class="e" d="M1067.844,1813.759a9.613,9.613,0,0,0,7.848-1.356s14.43,4.628,14.192,8.688c0,0,.662,1.174-5.492,1.211s-15.71.224-15.973.094S1066.986,1822.974,1067.844,1813.759Z" transform="translate(-966.663 -1570.192)"/><path class="d" d="M950.661,944.973l-16.185,5.38-4.057,9.456-.354,57.033,25.117,1.4,2.334-57.458Z" transform="translate(-861.681 -907.753)"/><path class="f" d="M915.061,1238.787s4.741,32.32,7.965,134.256l-13.328,1.3s-16.057-101.245-16.855-99.785c-4.461,8.162-14.187,99.785-14.187,99.785l-12.2-2.082-3.109-127.6Z" transform="translate(-810.732 -1132.133)"/><g transform="translate(0 132.9)"><path class="g" d="M733.7,1358.676l3.427.563.976-5.942,11.778,1.934-.976,5.942,3.427.563,1.032-6.282a2.931,2.931,0,0,0-2.312-3.429l-13.032-2.14a2.931,2.931,0,0,0-3.287,2.511Z" transform="translate(-711.718 -1349.848)"/><path class="g" d="M646.173,1369.284l50.287,8.257a.23.23,0,0,1,.19.265l-5.215,31.76a.23.23,0,0,1-.265.19l-50.287-8.257a.23.23,0,0,1-.19-.265l5.215-31.76A.23.23,0,0,1,646.173,1369.284Z" transform="translate(-640.691 -1364.688)"/><path class="h" d="M678.911,1418.771a.313.313,0,0,0,.088,0l28.016-3.757a.278.278,0,0,0,.244-.315.292.292,0,0,0-.329-.239l-27.92,3.744L656.7,1406.151a.292.292,0,0,0-.392.107.277.277,0,0,0,.115.381l22.392,12.1A.287.287,0,0,0,678.911,1418.771Z" transform="translate(-652.592 -1392.818)"/><rect class="d" width="3.078" height="5.385" transform="translate(27.421 28.439) rotate(-170.679)"/></g><g transform="translate(62.058)"><path class="c" d="M939.622,815.623l-.011,0c-.022-.152-.044-.3-.072-.455a11.893,11.893,0,1,0-21.5,8.888c1.588,2.536,2.972,4.7,4.341,6.46a16.989,16.989,0,0,1,3.527,10.188l.043,2.9c7.893,2.5,10.515-1.661,10.515-1.661l-.819-5.185a1.32,1.32,0,0,1,.989-1.484l.013,0C945.453,833.05,940.363,819.638,939.622,815.623Z" transform="translate(-912.957 -801.189)"/><path class="i" d="M962.449,882.936a.865.865,0,1,0-.694,1.007A.865.865,0,0,0,962.449,882.936Z" transform="translate(-947.158 -859.836)"/><path class="i" d="M949.815,860.329a.649.649,0,0,1-1-.531,3.478,3.478,0,0,1,3.4-3.481.649.649,0,1,1,.134,1.29,2.19,2.19,0,0,0-2.238,2.157A.648.648,0,0,1,949.815,860.329Z" transform="translate(-938.059 -840.046)"/><path class="i" d="M913.427,856.572l4.529,7.166L920,862.92l-.606-10.442Z" transform="translate(-911.032 -837.117)"/><path class="j" d="M1004.654,870.2a1.766,1.766,0,0,1,.7-1.032,2.98,2.98,0,0,1,3.245-.468c1.761,1.08-.192,5.531-3.465,4.338C1005.138,873.04,1004.137,872.427,1004.654,870.2Z" transform="translate(-980.587 -849.261)"/><path class="j" d="M924.606,887.709a1.767,1.767,0,0,0-.7-1.032,2.98,2.98,0,0,0-3.246-.468c-1.762,1.079.192,5.531,3.466,4.338C924.122,890.547,925.123,889.934,924.606,887.709Z" transform="translate(-916.046 -862.632)"/><path class="j" d="M989.272,879.987a2.216,2.216,0,0,1-2,.307.192.192,0,0,1,.14-.358,1.806,1.806,0,0,0,2.062-.693.679.679,0,0,0,.193-.419c-.018-.131-.2-.27-.463-.462a5.665,5.665,0,0,1-2.218-3.154.193.193,0,1,1,.367-.118,5.254,5.254,0,0,0,2.081,2.963c.32.238.573.427.614.717a.961.961,0,0,1-.268.706A2.561,2.561,0,0,1,989.272,879.987Z" transform="translate(-967.203 -854.282)"/><path class="i" d="M904.526,806.353a5.334,5.334,0,0,1-.91-2.358,19.243,19.243,0,0,1,.859-10.166,5.353,5.353,0,0,1,1.854-2.742.735.735,0,0,1,.448-.156c.393.033.517.542.537.936q.07,1.377.14,2.754a31.607,31.607,0,0,1,4.2-4.561,10.591,10.591,0,0,1,5.56-2.565,1.642,1.642,0,0,1,1.585.479c.434.656-.126,1.5-.657,2.08,4.127-.2,8.521-.338,12.084,1.753.493.29,1.025.76.908,1.319-.11.524-.731.763-1.267.78a4.395,4.395,0,0,0-1.59.119,15.2,15.2,0,0,0,1.886.965,1.8,1.8,0,0,1,1.064,1.685c-.17,1.056-1.566,1.291-2.635,1.271l-8.968-.164c.285.675.968,1.082,1.436,1.646s.627,1.568-.016,1.92a1.59,1.59,0,0,1-.917.1l-6.594-.616a2.482,2.482,0,0,1,.647,2.692,4,4,0,0,1-1.654,1.771C910.762,806.44,906.169,808.44,904.526,806.353Z" transform="translate(-903.291 -787.476)"/><path class="i" d="M931.764,818.719s-.444,23.13-9.069,24.515S907,825.078,907,825.078l12.7-8.175,9.763-.831Z" transform="translate(-906.124 -809.314)"/></g><path class="d" d="M946.095,952.245l2.836-4.795,3.673-.007a6.642,6.642,0,0,0,2.743-.6l3.592-1.638,4.278,5.514-3.642,1.259-4.3-1.011-2.906,2.993Z" transform="translate(-873.922 -907.932)"/><path class="c" d="M972,824.85a55,55,0,0,1-6.88,2.726c-1.961.434-3.539,2.311-4.159,1.325s2.516-3.244,2.516-3.244-3.954-1.031-5.218-1.162-3.462-.942-3.437-1.874,6.049.126,6.049.126-4.985-1.389-5.146-2.254,6.441-.029,6.441-.029-5.39-1.222-5.728-1.687.242-.917,2.256-.948a19.168,19.168,0,0,1,4.077.457,43.4,43.4,0,0,1-4.122-1.435c-.4-.293-.734-.988,2.252-.718s9.349,1.908,12.2,4.016Z" transform="translate(-880.586 -809.314)"/><path class="k" d="M848.693,972.3s21.384-7.441,23.641-7.623,17.219-.948,17.219-.948l15.6,6.4,4.989,83.6s-24.844,10.638-58.709,3.709v-37.971Z" transform="translate(-799.538 -922.078)"/><path class="f" d="M974.065,1346.151l-3.493-9.085-2.518,10.194Z" transform="translate(-890.691 -1207.187)"/><path class="k" d="M1034.591,871.909c.056-.085-1.2-1.692-.97-2.372l-8.476-5.12c.348-1.044-9.254-12.588-5.88-13.046,14.079-1.913,25.027-15.527,24.2-19.261-2.217-2.6-13.129-3.746-23.707-2.9l-.977-12.279a128.447,128.447,0,0,1,16.341-.114c5.085.326,20.561,1.317,22.189,11.743,1.1,7.018-4.58,18.3-19.59,38.953C1037.078,868.386,1034.751,871.666,1034.591,871.909Z" transform="translate(-929.251 -809.719)"/><path class="k" d="M765.2,1075.929c-1.563-44.345,18.9-74.709,19.667-75.929l7.957,7.761-5.214-3.278,7.8,16.815c-.168.269-19.325,13.825-17.9,54.2Z" transform="translate(-735.708 -949.776)"/><path class="j" d="M755.273,1352.392s1.527-5.847,2.375-5.738.7,4.907.729,4.835,1.011-5.042,2.184-5.289.754,5.266.754,5.266.58-4.73,1.392-4.854.753,4.463,1.069,4.477.07-3.934,1.07-4.132,1.563,5.353.65,6.059a1.474,1.474,0,0,1-1.815-.052s-1.659,1.016-2.555.436c0,0-2.615.491-3.052-.608C758.074,1352.791,756.16,1354.117,755.273,1352.392Z" transform="translate(-728.195 -1214.156)"/></g><g transform="translate(261.457 168.726)"><path class="l" d="M809.46,637.834l-1.108-1.921c-2.221-3.852-2.231-7.008-1.443-11.913.4-2.716.164-4.165-.946-6.091-.914-1.585-1.547-1.895-2.395-1.406-1.073.619-.428,2.132,1.073,4.735l-9.845,5.678c-3.283-5.947-3.908-12.524,5.542-17.974,8.712-5.024,14.095-2.1,17.164,3.222,2.381,4.128,1.88,6.529,1.331,11.069-.4,4.146-.128,5.655.882,7.405l.555.963Zm7.636,13.241-6.494-11.26,10.808-6.233,6.494,11.26Z" transform="translate(-792.606 -606.347)"/></g><g transform="translate(297.988 185.954)"><path class="l" d="M950.784,692.848l-.038-1.01c-.076-2.025.591-3.3,1.952-5.11a3.7,3.7,0,0,0,.914-2.657c-.031-.833-.221-1.093-.667-1.076-.565.021-.626.768-.574,2.137l-5.177.2c-.058-3.1,1.088-5.88,6.057-6.068,4.581-.173,6.129,2.151,6.235,4.949.082,2.171-.63,3.032-1.818,4.746-1.042,1.587-1.254,2.252-1.219,3.173l.019.506Zm.263,6.962-.223-5.921,5.683-.214.223,5.921Z" transform="translate(-947.191 -679.251)"/></g><g transform="translate(262.744 207.458)"><path class="l" d="M809.952,782.462l-.921-.417c-1.846-.837-2.687-2-3.7-4.03a3.7,3.7,0,0,0-1.968-2c-.76-.344-1.077-.291-1.261.115-.233.515.408.9,1.655,1.469l-2.139,4.718c-2.8-1.331-4.774-3.6-2.721-8.13,1.893-4.175,4.663-4.521,7.213-3.365,1.978.9,2.431,1.919,3.433,3.747.954,1.641,1.455,2.129,2.294,2.509l.462.209Zm6.345,2.877-5.4-2.446,2.348-5.18,5.4,2.446Z" transform="translate(-798.052 -770.244)"/></g></g></svg>