<svg xmlns="http://www.w3.org/2000/svg" xmlns:xlink="http://www.w3.org/1999/xlink" width="1336" height="389.591" viewBox="0 0 1336 389.591"><defs><style>.a{fill:#fff;}.b{clip-path:url(#a);}.c{opacity:0.47;}.d{fill:#ce2072;}.d,.e,.f{opacity:0.48;}.e{fill:#23cba1;}.f{fill:#8f4fc9;}</style><clipPath id="a"><path class="a" d="M0,0H1336V389.591H0Z"/></clipPath></defs><g class="b"><g class="c" transform="translate(317.199 -343.266)"><g transform="translate(0)"><path class="d" d="M194.167,37.491c32.922-50.618,108.816-49.988,142.6,1.185L522.6,320.148c36.7,55.583-3.183,127.922-70.216,127.365l-366.92-3.05c-67.033-.557-108.145-73.57-72.386-128.55Z" transform="translate(453.16 1199.798) rotate(-110)"/><path class="e" d="M194.167,37.491c32.922-50.618,108.816-49.988,142.6,1.185L522.6,320.148c36.7,55.583-3.183,127.922-70.216,127.365l-366.92-3.05c-67.033-.557-108.145-73.57-72.386-128.55Z" transform="translate(183.734 711.651) rotate(-110)"/><path class="f" d="M299.443,44.453c37.449-58.168,121.056-59.2,157.095-1.937l272.9,433.62c39.145,62.2-6.475,145.16-80.32,146.07l-556.489,6.86c-73.845.91-117.451-80.953-76.774-144.134Z" transform="matrix(-0.819, 0.574, -0.574, -0.819, 1536.515, 515.088)"/></g></g></g></svg>