<svg xmlns="http://www.w3.org/2000/svg" width="405.158" height="395.435" viewBox="0 0 405.158 395.435"><defs><style>.a{fill:#d8deec;}.b{fill:#420b29;}.c{fill:#0e1828;}.d{fill:#f2beb7;}.e{fill:#29323b;}.f{fill:#e9b2ab;}.g{fill:#f5916e;}.h{fill:#161d25;}.i{fill:#484092;}.j{fill:#df7e61;}.k{fill:#10171f;}.l{fill:#EC0085;}.m{fill:#b58883;}.n{fill:#2d1a10;}.o{fill:#272727;}.p{fill:#fff;}.q{isolation:isolate;}.r{fill:#2a2a2a;}.s{fill:#4e4e4e;}.t{fill:#661b3a;}.u{fill:#92002d;}.v{fill:#a20333;}.w{fill:#121315;}.x{fill:#4a5874;}.y{fill:#003560;}.z{fill:#404c64;}.aa{fill:#151515;}.ab{fill:#f68c68;}.ac{fill:#1c0e05;}.ad{fill:#111;}.ae{fill:#1c1c1c;}.af{fill:#e1a9a2;}.ag{fill:#9a002f;}.ah{fill:#2d2d2d;}.ai{fill:#006d93;}.aj{fill:#050609;}.ak{fill:#301204;}.al{fill:#e2a8a1;}.am{fill:#1a1a1a;}.an{fill:#3c0e25;}.ao{fill:#270b09;}.ap{fill:#f3a67a;}.aq{fill:#f7a67b;}.ar{fill:#d68a6a;}.as{fill:#e0e1e3;}.at{opacity:0;}.au{fill:#77bd79;}.av{fill:#ea77a8;}.aw{fill:#81b8e4;}.ax{fill:#91d7f4;}.ay{fill:#ffc865;}</style></defs><g transform="translate(2096.741 -138.599)"><g transform="translate(-2064.075 162.619)"><g transform="translate(53.386 0)"><path class="a" d="M-1584.383,1181.419c0,8.814-16.059,15.959-35.869,15.959s-35.868-7.145-35.868-15.959,16.059-15.959,35.868-15.959S-1584.383,1172.6-1584.383,1181.419Z" transform="translate(1656.119 -970.712)"/><g transform="translate(17.7)"><g transform="translate(26.465 197.05)"><path class="b" d="M-1443.8,1209.945l.588-.109.588-4.94-1.545-1.829Z" transform="translate(1445.158 -1197.357)"/><path class="c" d="M-1448.167,1204.037l.709.4-.111-8.084-1.248-.284Z" transform="translate(1448.818 -1191.85)"/><g transform="translate(0)"><path class="d" d="M-1442.468,1178.276l1.312,4.335a29.179,29.179,0,0,0,3.259,5.823s2.658,3.645-2.316,3.4c0,0-5.305-.283-5.224-3.686.069-2.927-2.621-6.56-2.621-6.56a2.962,2.962,0,0,1,.347-3.494l.92-1.051,4.462-.78Z" transform="translate(1448.554 -1176.265)"/><path class="c" d="M-1437.87,1192.658a6.683,6.683,0,0,1-5.778-1.749c-1.38-1.359-2.953-6.33-2.431-4.679.216.683-1.406-5.361-.974-6.305l-.92,1.051a3.088,3.088,0,0,0-.438,3.586s2.781,3.541,2.712,6.468c-.081,3.4,5.224,3.686,5.224,3.686,2.986.146,3.221-1.109,2.932-2.135A2.961,2.961,0,0,1-1437.87,1192.658Z" transform="translate(1448.816 -1179.145)"/><path class="c" d="M-1424.6,1224.153s.749,1.415-1.627,1.415c0,0-8.9-.565-8.9-4.39l0-3.08s.7,4.4,6.2,4.407c0,0,2.441,0,1.18-1.556Z" transform="translate(1438.042 -1209.185)"/></g></g><path class="e" d="M-1496.726,257.269a5.924,5.924,0,0,1-5.924,5.924,5.924,5.924,0,0,1-5.924-5.924,5.924,5.924,0,0,1,5.924-5.924A5.924,5.924,0,0,1-1496.726,257.269Z" transform="translate(1522.308 -251.345)"/><path class="d" d="M-1461.015,345.147h11.667c-.53-1.7-1.629-6.1.072-9.089l-11.788-7.741S-1458.968,341.306-1461.015,345.147Z" transform="translate(1484.92 -311.918)"/><path class="f" d="M-1459.707,337.816a5.125,5.125,0,0,0,3.673,3.24,12.31,12.31,0,0,0,5.925.439,9.225,9.225,0,0,1,.833-5.436l-11.788-7.741s.638,3.963.866,8.156C-1460.038,336.921-1459.882,337.37-1459.707,337.816Z" transform="translate(1484.92 -311.918)"/><path class="d" d="M-1459.193,283.54l.619-1.755,1.511-5.163a5.2,5.2,0,0,0,.026-2.74,8.292,8.292,0,0,1-.24-4.285c.961-4.7-1.124-7.151-1.124-7.151-2.742-4.319-9.213-4.3-9.213-4.3-8,.415-8.654,8.162-8.654,8.162-1.285,5.155,2.825,9.434,2.832,9.442a5.719,5.719,0,0,1,.827,2.089,6.437,6.437,0,0,0,1.173,1.958,14.391,14.391,0,0,0,4.1,3.293,15.845,15.845,0,0,0,6.168,1.455C-1460.349,284.536-1459.547,284.547-1459.193,283.54Z" transform="translate(1497.08 -256.698)"/><g transform="translate(0 199.511)"><path class="b" d="M-1570.5,1215.205l.593.084,2.142-4.489-.876-2.229Z" transform="translate(1571.037 -1204.15)"/><path class="c" d="M-1573.039,1208.209l.542.608,2.489-7.695-1.092-.668Z" transform="translate(1573.039 -1197.762)"/><g transform="translate(1.877)"><path class="d" d="M-1557.281,1190.37c-.118,3.612-.386,7.668,1.071,11.087,0,0,1.349,4.3-3.285,2.479,0,0-4.934-1.97-3.767-5.167,1-2.751-.377-7.054-.377-7.054a2.962,2.962,0,0,1,1.449-3.2l1.209-.7h4.638Z" transform="translate(1563.817 -1187.817)"/><path class="c" d="M-1556.779,1202.823a6.685,6.685,0,0,1-4.912-3.51c-.871-1.73-.767-6.944-.8-5.212-.014.716.388-5.53,1.1-6.285l-1.209.7a3.089,3.089,0,0,0-1.565,3.257s1.5,4.245.493,7c-1.167,3.2,3.767,5.167,3.767,5.167,2.781,1.1,3.406-.017,3.462-1.082A2.946,2.946,0,0,1-1556.779,1202.823Z" transform="translate(1564.228 -1187.817)"/><path class="c" d="M-1554.1,1234.823s.255,1.58-2,.818c0,0-8.25-3.392-7.019-7.013l.985-2.919s-.748,4.389,4.455,6.163c0,0,2.312.783,1.617-1.1Z" transform="translate(1563.452 -1217.637)"/></g></g><path class="g" d="M-1543,929.556c-5.917,10.925-6.964,15.371-8.016,23.679-.614,4.832-.41,25.184-1.044,28.22-.264,1.258,4.519.568,4.519.568.875-2.129,14.8-48.891,14.8-48.891s1.558-4.844.265-5.686C-1538.969,923.215-1540.424,924.794-1543,929.556Z" transform="translate(1556.539 -781.473)"/><path class="h" d="M-1551.8,983c.875-2.129,14.66-49.867,14.66-49.867s1.557-4.844.265-5.686c-6.495-4.231-7.949-2.652-10.528,2.11-5.917,10.925-6.964,15.371-8.016,23.679-.614,4.832-1.611,24.482-2.245,27.518C-1557.66,980.753-1554.121,984.97-1551.8,983Z" transform="translate(1560.936 -781.473)"/><path class="h" d="M-1491.994,565.359s4.547,19.244,3.936,21.346c-1.758,6.055-18.071,14.552-32.946,2.161,0,0,3.4-14.233,10.462-26.274C-1510.541,562.593-1507.946,565.274-1491.994,565.359Z" transform="translate(1532.089 -496.283)"/><path class="i" d="M-1478.951,391.078s5.951,11.5,8.607,17.815c-1.113,7.4-5.133,18.374-6.749,20.688-3.54,5.072-19.726.544-19.726.544l-4.666-15.577c13.619-4.89,6.447-19.24,6.447-19.24l2.135-1.348s2.178,7.053,11.042,6.8c0,0,2.912-1.9.769-9.941A12.489,12.489,0,0,1-1478.951,391.078Z" transform="translate(1516.728 -361.106)"/><path class="j" d="M-1465.251,660.3s1.567,31.046,7.31,47.743c.856,2.49,10.671-.819,10.671-.819s4.953-26.712,4.656-37.78c-.168-6.255-2.406-19.742-2.406-19.742S-1463.428,647.3-1465.251,660.3Z" transform="translate(1488.215 -564.696)"/><path class="j" d="M-1446.645,921.058l10.389-.707s-6.384,53-6.962,55.226c0,0-4.466,1.615-4.375.332.216-3.094-3.509-26.878-3.623-31.748C-1451.4,936.339-1451.092,931.4-1446.645,921.058Z" transform="translate(1477.2 -777.823)"/><path class="k" d="M-1465.251,660.3s1.567,31.046,7.31,47.743c.856,2.49,10.671-.819,10.671-.819s4.953-26.712,4.656-37.78c-.168-6.255-2.406-19.742-2.406-19.742S-1463.428,647.3-1465.251,660.3Z" transform="translate(1488.215 -564.696)"/><path class="k" d="M-1441.931,975.909c1.054-2.046,5.675-55.558,5.675-55.558l-10.389.707c-4.448,10.339-4.755,15.28-4.572,23.1.114,4.87,2.472,28.654,2.255,31.748C-1448.961,975.909-1443.315,978.6-1441.931,975.909Z" transform="translate(1477.2 -777.823)"/><g transform="translate(37.073 31.282)"><path class="f" d="M-1379.525,434.556-1387.4,406c-2.835-7.638-7.066-7.825-7.066-7.825-8.11,1.227-2.919,15.458-2.919,15.458l10.01,23.717" transform="translate(1399.022 -398.179)"/><g transform="translate(10.78 33.08)"><g transform="translate(26.876 17.004)"><path class="f" d="M-1217.607,640.893c-3.4-2.526-3.641-3.213-4.155-4.24-2.22-4.409,3.443-3.442,4.825-2.906.794.309.556,2.268,2.75,5.026,0,0,3.657,2.916,4.668,2.9,0,0,1,.3.9,1.038C-1208.624,642.707-1211.68,643.952-1217.607,640.893Z" transform="translate(1222.272 -633.267)"/></g><g transform="translate(3.578)"><path class="f" d="M-1331.63,553.452" transform="translate(1331.63 -553.452)"/></g><g transform="translate(0 0.139)"><path class="f" d="M-1340.316,555.6l23.064,17.448c.637,3.18-.82,3.408-.82,3.408l-18.6-8.465c-7.965-3.448-10.738-7.415-10.738-7.415s-3.255-3.049,1.927-6.107C-1345.487,554.472-1343.132,553.118-1340.316,555.6Z" transform="translate(1348.423 -554.104)"/></g><path class="f" d="M-1201.007,630.646s-1.009,1.952,1.627,1.827l2.789-1.539a1,1,0,0,0,.675-1.086s-.237-.47-1.1-.166Z" transform="translate(1232.562 -613.361)"/></g></g><path class="g" d="M-1524.882,683.553s.12,31.058,4.217,48.234c.61,2.561,9.967,1.776,9.967,1.776s6.106-29.372,6.884-40.415c.44-6.242,1.689-17.165,1.689-17.165S-1524.031,673.811-1524.882,683.553Z" transform="translate(1535.142 -585.353)"/><path class="d" d="M-1514.538,398.453c-4.775,3.49-2.333,8.739-2.333,8.739l9.016,21.9s14.622,4.973,18.162-.1c1.616-2.315,3.112-8.454,5.074-17.308,1.334-6.017,1.425-16.527-1.962-19.64-1.953-1.8-8.276-1.759-8.322-1.972l-10.243,3.3Z" transform="translate(1529.328 -360.516)"/><path class="g" d="M-1496.03,559.874c.866-.157,5.541,1.689,5.541,1.689s3.366,14.35,3.559,16.531-14.815,13.476-31.577,7.045c0,0,8.464-19.966,9.7-24.14C-1507.385,556.207-1496.03,559.874-1496.03,559.874Z" transform="translate(1530.125 -493.088)"/><path class="l" d="M-1385.27,433.689s4.948,5.826,5.363,10.154c.231,2.41-2.812,6.445-4.334,7.931C-1385.32,452.828-1391.71,437.71-1385.27,433.689Z" transform="translate(1427.505 -394.842)"/><path class="h" d="M-1519.22,656.926s-5.91,1.313-5.377,12.147c.52,10.581,19.783,12.78,22.257,2.12C-1499.68,659.72-1508.7,652.994-1519.22,656.926Z" transform="translate(1534.944 -569.631)"/><path class="h" d="M-1484.023,275.751c-.041-3.654.052-3.429.052-3.429.085-1.068,2.18,1.234,2.137-.157-.2-6.365,2.114-9.4,3.019-9.887a11.2,11.2,0,0,1,7.1-1.347c3.219.572,3.1,4.858,3.1,4.858,2.743-15.689-14.754-10.675-14.754-10.675a9.7,9.7,0,0,0-7.643,10.268c-1.045,8.623,7.125,13.605,7.125,13.605Z" transform="translate(1508.563 -253.711)"/><g transform="translate(21.691 16.028)"><path class="f" d="M-1467.814,331.346a1.712,1.712,0,0,1-1.111.337,2.52,2.52,0,0,1-2.3-2.587,2.314,2.314,0,0,1,2.187-2.519,2.181,2.181,0,0,1,1.536.7,3.144,3.144,0,0,1,.473,2.563A2.37,2.37,0,0,1-1467.814,331.346Z" transform="translate(1471.223 -326.576)"/><g transform="translate(1.155 0.81)"><path class="m" d="M-1464.269,330.88c-.073-.741-1.571-.034-1.344.384a2.285,2.285,0,0,0,.6.584,1.087,1.087,0,0,1,.461.81c0,.042.013.17-.03.2-.194.135-.829-.588-.968-.741a1.237,1.237,0,0,1-.18-1.183.741.741,0,0,1,.82-.554c.337.02.679.043.66.461,0,.008-.016.078-.02.04Z" transform="translate(1465.803 -330.377)"/><g transform="translate(0.193 1.2)"><path class="m" d="M-1464.036,336.08c.156-.156.305-.026.464.088a.711.711,0,0,1,.268.436,1.737,1.737,0,0,1-.186,1.236.933.933,0,0,1-.8.427c-.451-.013-.585-.411-.6-.793-.005-.1-.013-.343.086-.406s.185.1.257.172a.643.643,0,0,0,.382.144.819.819,0,0,0,.671-.3.376.376,0,0,0,.069-.115c0,.249-.014.3-.04.167a.7.7,0,0,0-.085-.176c-.1-.173-.281-.291-.4-.455-.056-.076-.161-.344-.082-.424Z" transform="translate(1464.898 -336.009)"/></g></g></g><g transform="translate(29.545 11.926)"><path class="n" d="M-1425.955,320.606c.044.444-.166.827-.467.856s-.58-.306-.622-.75.166-.826.467-.855S-1426,320.164-1425.955,320.606Z" transform="translate(1428.606 -317.186)"/><path class="n" d="M-1397.06,316.588c.016.445-.215.815-.517.825s-.56-.34-.576-.785.215-.815.517-.825S-1397.076,316.142-1397.06,316.588Z" transform="translate(1405.867 -313.996)"/><path class="o" d="M-1434.359,312.705c1.157-1.216,3.877-1.118,3.877-1.118s.182-.01.133-.564c0,0-.014-.491-.406-.442C-1430.755,310.58-1434.216,310.35-1434.359,312.705Z" transform="translate(1434.359 -309.882)"/><path class="o" d="M-1399.431,307.821c-1.208-.978-3.429-.215-3.429-.215-.391.057-.276.533-.276.533.1.548.276.509.276.509a7.509,7.509,0,0,1,3.275-.232C-1399.532,308.219-1399.478,308.022-1399.431,307.821Z" transform="translate(1409.801 -307.323)"/><g transform="translate(3.392 9.041)"><path class="p" d="M-1413.8,349.762l-4.383.811c-.23.043-.322.179-.2.3a3.451,3.451,0,0,0,2.682.995,3.423,3.423,0,0,0,2.131-1.9C-1413.505,349.831-1413.612,349.749-1413.8,349.762Z" transform="translate(1418.436 -349.761)"/></g><path class="f" d="M-1411.449,331.506c2.3-.166,2.423-.768,2.423-.768l-1.2-2.421S-1409.954,330.738-1411.449,331.506Z" transform="translate(1416.33 -323.844)"/></g><path class="h" d="M-1524.882,683.553s.12,31.058,4.217,48.234c.61,2.561,9.967,1.776,9.967,1.776s6.106-29.372,6.884-40.415c.44-6.242,1.689-17.165,1.689-17.165S-1524.031,673.811-1524.882,683.553Z" transform="translate(1535.142 -585.353)"/><path class="h" d="M-1491.994,565.359s4.547,19.244,3.936,21.346c-1.758,6.055-18.071,14.552-32.946,2.161,0,0,3.4-14.233,10.462-26.274C-1510.541,562.593-1507.946,565.274-1491.994,565.359Z" transform="translate(1532.089 -496.283)"/><path class="l" d="M-1495.7,430.125s16.645,5.129,20.186.057c1.616-2.315,5.176-13.891,6.289-21.289-2.656-6.311-8.607-17.815-8.607-17.815a12.489,12.489,0,0,0-2.14-.257c2.143,8.045-.769,9.941-.769,9.941-8.863.252-11.042-6.8-11.042-6.8l-2.135,1.348s6.6,13.714-6.141,19.986C-1500.063,415.3-1500.369,430.009-1495.7,430.125Z" transform="translate(1515.614 -361.106)"/><path class="p" d="M-1460.549,347.371a.758.758,0,0,1-.759.758.758.758,0,0,1-.758-.758.759.759,0,0,1,.758-.759A.759.759,0,0,1-1460.549,347.371Z" transform="translate(1485.708 -326.316)"/><g transform="translate(7.751 37.596)"><path class="d" d="M-1513.706,430.157a6.842,6.842,0,0,1-.3,9.672c-2.753,2.59-11.4,7.528-11.485,3.749-.159-7.427.131-11.462,2.884-14.051S-1516.3,427.4-1513.706,430.157Z" transform="translate(1527.895 -427.817)"/><path class="d" d="M-1522.159,455.54l-5.98-3.447-6.01,3.76s-3.518,22.411-2.222,27.54c1.381,5.465,3.891,1.439,5.079-.056C-1531.292,483.337-1521.483,459.895-1522.159,455.54Z" transform="translate(1536.657 -446.921)"/><path class="d" d="M-1531.048,582.338s10.753,7.68,20.3,11.856c0,0,3.153-1.324,1.576-2.782-2.677-2.475-14.383-13.684-17.086-16.164C-1531.048,573.612-1531.048,582.338-1531.048,582.338Z" transform="translate(1532.243 -543.678)"/><g transform="translate(20.979 47.646)"><g transform="translate(0 0.001)"><path class="d" d="M-1432.23,658.62c-3.891-1.682-4.278-2.3-5.014-3.178-3.169-3.785,2.564-4.139,4.033-3.933.842.119,1.058,2.081,3.826,4.265,0,0,4.226,2,5.206,1.751,0,0,1.046.059,1.108.805C-1423.071,658.331-1425.76,660.243-1432.23,658.62Z" transform="translate(1438.184 -651.464)"/></g><path class="d" d="M-1417.709,651.46s-1.666,1.432.824,2.3l3.162-.38s.892.035,1.032-.755c0,0-.044-.524-.958-.565Z" transform="translate(1422.501 -651.46)"/></g></g></g></g><g class="q" transform="translate(88.148 64.823)"><path class="r" d="M-1177.151,701.523c-.046-.012-.093-.021-.14-.031-.072-.016-.143-.033-.216-.047-.052-.01-.1-.018-.158-.027s-.1-.018-.152-.026l-.107,12.239-20.268,13.675.128-14.606,16.791-11.328q-.37.043-.745.105c-.054.007-.108.018-.163.027l-.287.052-.193.039q-.139.027-.278.059c-.058.012-.117.026-.175.039q-.22.051-.441.105l-.117.03q-.272.07-.543.151l-.1.029q-.375.11-.748.237l-.026.01q-.375.128-.745.272c-.017.008-.036.014-.053.021q-.42.165-.83.35l-.038.017q-.414.187-.817.4a.193.193,0,0,0-.027.013c-.271.14-.537.288-.8.441l-.014.009q-.4.234-.775.489c-2.237,1.509-3.414,3.2-3.427,4.648q.064-7.3.129-14.6c.012-1.444,1.189-3.139,3.427-4.649.251-.17.51-.332.774-.489l.015-.008c.26-.154.526-.3.8-.442l.028-.013q.4-.208.815-.4l.042-.017c.272-.123.547-.239.825-.349a.074.074,0,0,1,.017-.006c.015-.007.03-.012.046-.017q.363-.142.731-.268c.012-.006.023-.009.035-.013.246-.084.492-.161.74-.235l.064-.021.042-.012q.269-.078.539-.148c.04-.012.081-.021.12-.031.145-.036.29-.071.434-.1l.087-.021.1-.02.266-.056.2-.04.27-.05c.048-.007.1-.017.143-.026l.036,0c.249-.042.5-.075.742-.105l.064-.009.048,0q.323-.037.64-.058l.054-.005.072,0c.2-.013.4-.022.592-.026h.017c.184,0,.365,0,.545,0h.074l.062,0c.181.007.359.015.535.029h.016l.04.005c.182.016.36.036.535.06.02,0,.041,0,.06.007l.041.007c.07.01.139.023.208.035s.112.018.168.03.134.027.2.043c.046.01.093.018.138.03l.017,0c.157.039.309.082.457.128.035.01.069.022.1.034.15.049.3.1.437.161.113.051.217.1.317.156l.087.048c.035.021.073.04.107.059s.056.038.085.056.071.045.106.069c.055.037.108.075.158.114.03.023.06.045.089.069l.03.023c.06.05.117.1.17.153.008.007.015.015.022.021.043.042.084.083.122.126v0h0v0c.013.013.023.027.035.04l.055.065c.038.045.075.091.109.138l.048.065.024.032c.017.024.031.049.047.072.03.045.06.091.088.138l.059.1c.026.047.052.093.077.14.007.014.016.027.023.041l.023.048c.041.082.08.164.118.246.006.013.012.027.019.04.049.111.1.224.145.336.031.072.063.145.095.218.014.033.029.066.044.1.043.1.088.192.136.287.024.048.05.095.076.141.014.026.027.052.042.078.042.073.086.144.135.216.03.045.064.091.1.136q.068.1.144.191c.021.027.042.056.065.083q.1.127.215.251l.013.016c.079.085.163.17.249.253.025.025.052.048.078.071.064.06.129.118.2.176l.1.083c.069.056.14.11.213.165l.1.071c.107.075.215.149.33.221l.02.011.035.02.022.01.049.027.034.018.058.029.041.021.068.034.056.027.072.035.087.042.052.024.1.047.054.026.165.074c.384.171.836.358,1.257.5l20.287-13.69-.128,14.6-20.288,13.691c-.42-.141-.873-.327-1.256-.5l-.166-.075-.028-.013-.127-.06a.493.493,0,0,1-.047-.022c-.032-.014-.064-.029-.094-.044l-.057-.027-.07-.035-.044-.021-.066-.034-.033-.017-.059-.03c-.01-.005-.017-.01-.026-.014l-.045-.024-.018-.01a.242.242,0,0,1-.029-.016l-.006,0c-.114-.07-.223-.144-.329-.219l-.1-.074c-.072-.053-.141-.106-.208-.162-.017-.015-.037-.028-.054-.042l-.049-.043c-.066-.057-.13-.114-.192-.171-.027-.026-.055-.051-.082-.077-.087-.083-.169-.167-.247-.251l0,0-.015-.018c-.075-.081-.145-.164-.212-.246-.022-.027-.043-.056-.065-.083-.05-.064-.1-.129-.145-.193-.011-.016-.024-.031-.035-.047s-.041-.058-.06-.088c-.047-.07-.092-.141-.134-.214-.02-.034-.037-.067-.055-.1s-.042-.074-.06-.111l0-.005c-.049-.1-.095-.195-.139-.292l-.035-.082-.114-.261c-.043-.1-.087-.2-.131-.3l-.025-.056q-.054-.117-.111-.234c-.016-.031-.032-.063-.048-.095s-.049-.091-.075-.136-.039-.07-.059-.1-.058-.091-.088-.137-.045-.07-.07-.1l-.049-.067c-.035-.045-.07-.091-.108-.135-.019-.022-.038-.045-.058-.067-.049-.056-.1-.11-.156-.165a.275.275,0,0,1-.022-.022c-.062-.06-.13-.118-.2-.176l-.088-.068c-.05-.039-.1-.076-.159-.114l-.106-.07c-.061-.039-.124-.076-.19-.114l-.088-.048c-.1-.053-.2-.106-.316-.156-.14-.06-.287-.112-.437-.161-.035-.012-.069-.023-.1-.034C-1176.841,701.6-1176.994,701.56-1177.151,701.523Z" transform="translate(1260.989 -653.222)"/><path class="r" d="M-1492.949,725.377l.128-14.605,26.011,10.944-.106,12.155.025,0,.168.02c.208.023.414.044.618.061l.061.005c.15.012.3.022.447.03l.167.009.333.014.123,0c.261.007.52.009.771,0l.1,0c.211,0,.418-.013.621-.026.015,0,.031,0,.047,0,.19-.013.375-.031.557-.05l.137-.016c.155-.018.308-.04.457-.063l.054-.008c.162-.027.318-.058.472-.092l.117-.026q.216-.051.42-.109l.059-.015.084-.027c.075-.023.149-.047.221-.071l.111-.04c.061-.023.122-.045.182-.07.034-.013.067-.029.1-.042l.172-.078.094-.045.169-.089.078-.043c.078-.045.155-.092.227-.141a2.616,2.616,0,0,0,1.148-2.381c0-.238,0-.473.006-.711a3.244,3.244,0,0,1,.532-2.061,12.334,12.334,0,0,1,2.031-1.543l25.977,10.931-.128,14.606-25.978-10.931a12.265,12.265,0,0,0-2.03,1.541,3.009,3.009,0,0,0-.528,1.843q0,.354-.007.709a2.747,2.747,0,0,1-1.152,2.6c-.072.049-.148.1-.227.141l-.079.043c-.055.03-.11.059-.167.088l-.1.047c-.056.026-.113.052-.171.076l-.1.043-.055.023-.129.047-.108.04-.216.07-.091.029-.015,0-.038.009c-.138.04-.281.076-.427.11l-.061.016-.051.009c-.155.034-.313.065-.476.092l-.009,0-.036.005c-.152.025-.31.046-.469.065l-.068.009-.063.007c-.183.019-.369.036-.559.049h-.051c-.2.013-.411.022-.622.028l-.064,0h-.032c-.252,0-.509,0-.771,0h-.062c-.022,0-.044,0-.064,0-.11,0-.221-.007-.331-.014-.056,0-.111,0-.167-.008-.159-.009-.318-.019-.478-.034h-.028c-.206-.017-.414-.039-.624-.061l-.164-.02c-.184-.022-.369-.045-.555-.073l-.068-.009c-.008,0-.015,0-.023,0-.173-.026-.345-.053-.519-.082l-.089-.017c-.146-.024-.291-.05-.437-.078l-.2-.04c-.111-.022-.222-.044-.333-.068-.073-.015-.146-.032-.219-.049-.1-.022-.208-.047-.312-.072l-.083-.018-.072-.018c-.281-.069-.563-.141-.844-.221l-.11-.031c-.287-.082-.572-.167-.856-.259l-.087-.029c-.292-.1-.583-.2-.871-.3-.017-.006-.034-.014-.051-.019-.3-.111-.6-.23-.89-.353-.144-.06-.285-.122-.424-.183-.2-.088-.389-.178-.575-.269l-.19-.093q-.183-.092-.359-.183c-.07-.036-.138-.074-.206-.11l-.318-.176-.195-.113c-.039-.023-.08-.045-.118-.069-.065-.039-.127-.079-.191-.119s-.113-.069-.168-.1c-.114-.074-.226-.148-.335-.223-.035-.023-.072-.048-.107-.073-.141-.1-.276-.2-.406-.3-.034-.026-.065-.052-.1-.078-.077-.059-.155-.121-.228-.181l-.04-.035c-.1-.08-.184-.161-.273-.241-.039-.037-.08-.072-.118-.108-.122-.117-.239-.232-.346-.349h0c-.094-.1-.182-.205-.263-.306-.026-.034-.049-.066-.074-.1-.043-.056-.088-.113-.128-.169l-.029-.046c-.02-.028-.037-.057-.056-.085-.047-.072-.09-.143-.131-.214-.017-.03-.034-.059-.05-.089s-.02-.034-.028-.051c-.038-.075-.073-.149-.1-.224-.005-.012-.009-.024-.015-.037-.021-.052-.042-.1-.059-.156-.011-.034-.021-.066-.029-.1-.005-.017-.011-.034-.016-.05-.02-.075-.038-.15-.051-.223,0-.016,0-.03-.007-.045s0-.031-.006-.047a1.875,1.875,0,0,1-.019-.251v-.026q.045-5.2.092-10.4Z" transform="translate(1492.949 -677.716)"/><g transform="translate(0.128)"><path class="s" d="M-1380.564,582.038l-62.8-26.424-48.988,33.056,26.011,10.944a11.206,11.206,0,0,1-1.753,1.143,14.386,14.386,0,0,1-3.208.934c-2.188.4-4.874.337-6.432,1.388-2.437,1.645-.518,4.631,4.277,6.769.139.062.281.123.424.184,5.105,2.147,11.276,2.518,13.784.825,2.036-1.374.47-3.556,1.686-5.153a12.331,12.331,0,0,1,2.031-1.543l25.977,10.931,20.269-13.675c-.082-.039-.169-.079-.26-.119a24.2,24.2,0,0,0-2.668-.977c-3.023-.664-7.111.141-9.722-.957-3.2-1.424-2.547-4.657,1.391-7.314,3.981-2.687,9.815-3.769,13.03-2.417,1.994.889,1.917,2.287,2.691,3.436a5.91,5.91,0,0,0,1.8,1.716c.1.059.457.24.916.445.384.171.836.358,1.257.5Z" transform="translate(1492.347 -555.614)"/></g></g><g class="q" transform="translate(34.645 135.776)"><g transform="translate(93.019 14.93)"><path class="t" d="M-1275.572,958.737c0,.036,0,.071,0,.108s0,.078,0,.115-.007.062-.01.095-.008.073-.014.11-.013.072-.02.108-.011.055-.017.082-.02.074-.03.109-.015.052-.023.078-.011.03-.017.044a2.245,2.245,0,0,1-.125.3s0,.005,0,.007a2.429,2.429,0,0,1-.163.271c-.01.014-.019.03-.029.044a2.609,2.609,0,0,1-.2.249c-.02.023-.041.045-.062.067s-.046.05-.07.072-.056.053-.085.079-.052.048-.079.07-.05.042-.075.061l-.142.109-.078.055c-.053.036-.108.072-.165.106l-.074.047c-.049.03-.1.056-.151.083-.028.017-.055.032-.085.048-.082.04-.166.082-.253.121a6.936,6.936,0,0,1-1.049.338q-.438.105-.9.171c-.294.043-.6.075-.9.1-.428.034-.865.055-1.308.066-.969.029-1.962.018-2.927.045-.435.013-.865.033-1.283.066l.129,14.846c.419-.034.849-.054,1.284-.066.965-.027,1.958-.018,2.927-.045.443-.012.88-.032,1.308-.067q.461-.037.9-.1.464-.068.9-.173a6.718,6.718,0,0,0,1.05-.339q.131-.058.254-.122c.024-.012.046-.026.069-.037.057-.03.114-.061.168-.094l.017-.009.047-.031c.059-.035.117-.073.172-.11l.077-.055c.048-.037.1-.073.141-.109.015-.011.031-.022.044-.034l.032-.029c.027-.023.053-.045.078-.07s.057-.051.084-.078l.072-.072c.014-.017.03-.031.043-.045s.012-.014.018-.022a2.717,2.717,0,0,0,.2-.25l.013-.015c.006-.009.01-.018.016-.027a2.517,2.517,0,0,0,.164-.273h0v0a2.364,2.364,0,0,0,.126-.3.15.15,0,0,0,.01-.024.159.159,0,0,0,.005-.017c.01-.03.018-.059.026-.088s.019-.065.027-.1.012-.059.018-.089.012-.048.016-.073,0-.018,0-.027c.006-.039.011-.079.015-.12s.007-.057.009-.084c0-.045,0-.089.006-.134,0-.022,0-.043,0-.064v-.03Z" transform="translate(1290.516 -958.737)"/><path class="t" d="M-1304.493,975.032a.061.061,0,0,0-.016,0,24.529,24.529,0,0,0-2.694.99c-.092.04-.182.082-.265.123l.13,14.845c.084-.042.173-.082.266-.123a25.519,25.519,0,0,1,2.693-.99.058.058,0,0,0,.015,0c.234-.051.474-.093.718-.13.292-.042.592-.074.9-.1l-.129-14.846c-.306.025-.6.057-.9.1C-1304.02,974.937-1304.26,974.981-1304.493,975.032Z" transform="translate(1307.468 -971.379)"/></g><path class="u" d="M-1446.417,1061.207l-.13-14.845-26.436,11.125.108,12.353c-3.07.367-5.827.079-7.317-.925a2.655,2.655,0,0,1-1.166-2.415c0-.244,0-.489-.007-.734a3.3,3.3,0,0,0-.54-2.09,12.771,12.771,0,0,0-2.062-1.567l-26.407,11.11.13,14.846,26.407-11.112a12.738,12.738,0,0,1,2.062,1.568,3.054,3.054,0,0,1,.535,1.862q0,.368.006.736a2.785,2.785,0,0,0,1.171,2.642c2.549,1.721,8.821,1.344,14.009-.84.146-.061.29-.123.431-.187,3.452-1.537,5.438-3.509,5.424-5.122q-.047-5.284-.094-10.565Z" transform="translate(1560.164 -1012.764)"/><path class="v" d="M-1294.505,971.1l.131,14.844c-2.763,1.164-6.918.345-9.989,1.019a24.8,24.8,0,0,0-2.709.994c-.093.041-.182.081-.266.123l-.13-14.845c.083-.042.173-.083.265-.123a24.614,24.614,0,0,1,2.71-.994C-1301.423,971.445-1297.267,972.263-1294.505,971.1Z" transform="translate(1400.487 -953.537)"/><path class="v" d="M-1694.294,1048.32l-49.791-33.6.13,14.844,49.792,33.6Z" transform="translate(1744.085 -987.866)"/><path class="l" d="M-1645.322,936.9c-1.584-1.07-4.315-1-6.537-1.411a14.52,14.52,0,0,1-3.264-.951,11.382,11.382,0,0,1-1.781-1.16l26.436-11.125-20.6-13.9c.083-.042.173-.083.265-.123a24.637,24.637,0,0,1,2.71-.994c3.07-.674,7.226.144,9.988-1.018,3.145-1.4,2.482-4.688-1.522-7.388-4.047-2.731-9.976-3.831-13.341-2.413-1.928.86-1.851,2.282-2.636,3.447a6.013,6.013,0,0,1-1.828,1.747c-.1.058-.468.245-.937.456-.388.174-.844.36-1.268.5l-20.623-13.917-63.826,26.858,49.791,33.6,26.407-11.11a12.778,12.778,0,0,1,2.062,1.567c1.235,1.625-.357,3.842,1.712,5.239,2.55,1.719,8.822,1.343,14.01-.839.146-.061.29-.125.431-.187C-1644.8,941.608-1642.845,938.574-1645.322,936.9Z" transform="translate(1744.085 -888.657)"/></g><g transform="translate(222.498 14.298)"><path class="a" d="M-659.851,1323.259c0,8.815,16.059,15.959,35.869,15.959s35.867-7.144,35.867-15.959-16.059-15.959-35.867-15.959S-659.851,1314.445-659.851,1323.259Z" transform="translate(702.989 -1096.632)"/><g transform="translate(54.321 216.631)"><g transform="translate(0.001)"><path class="w" d="M-594.754,1341.707a19.522,19.522,0,0,1-6.711,3.914,5.728,5.728,0,0,1-5.592-1.448,1.071,1.071,0,0,1,.164-1.638c7.424-5.645,9.647-7.245,9.647-7.245h6.816a15.509,15.509,0,0,1,.148,3.846,5.909,5.909,0,0,1-3.74,2.267c-.14.023-.4-.183-.534-.129Z" transform="translate(607.355 -1335.29)"/></g><path d="M-606.928,1351.8a1.892,1.892,0,0,0,.143.466,3.734,3.734,0,0,0,3.45,1.727,9.989,9.989,0,0,0,4.244-1.44,18.908,18.908,0,0,0,3.515-2.385,10.566,10.566,0,0,1,2.657-1.328,13.607,13.607,0,0,0,2.681-1.806c0,.734-.047,1.344-.047,1.344a5.909,5.909,0,0,1-3.74,2.267c-.14.023-.4-.183-.534-.129l-.2.433a19.522,19.522,0,0,1-6.711,3.914,5.728,5.728,0,0,1-5.592-1.448A1.068,1.068,0,0,1-606.928,1351.8Z" transform="translate(607.358 -1344.529)"/></g><g transform="translate(60.45 105.354)"><path class="j" d="M-567.043,868.976c-7.58,8.369-10.584-.483-10.584-.483l-.939-51.437c-.1.766-.35-5.187,9.218-3.9,9.542,1.286,11.958,5.006,11.958,5.006s-5.249,35.527-9.653,50.813" transform="translate(578.591 -812.975)"/><path class="j" d="M-574.29,1055.091s3.845,54.17,4.159,56.07c0,0,4.675,1.034,4.7-.043.053-2.595,5.391-34.295,5.46-38.371.174-10.323-2.487-12.274-5.142-19.227C-565.117,1053.52-574.31,1046.722-574.29,1055.091Z" transform="translate(575.206 -1000.223)"/></g><g transform="translate(59.111 105.354)"><path class="x" d="M-569.707,870.924c4.4-15.286,7.371-52.76,7.371-52.76s-2.416-3.72-11.958-5.006c-9.569-1.288-9.317,4.665-9.218,3.9,0,0-2.9,27.892-.244,53.242C-583.756,870.3-575.582,874.64-569.707,870.924Z" transform="translate(584.876 -812.975)"/></g><path class="g" d="M-550.349,690.573c1.352,4.814,6.932,23.18,6.932,23.18-19.977,23.9-35.027,2.987-35.225.807-.238-2.609,2.674-12.573,3.2-23.318C-575.44,691.242-569.993,682.857-550.349,690.573Z" transform="translate(639.092 -608.727)"/><path class="y" d="M-578.977,771.516c-.947-6.438,1.016-12.93,2.026-19.435h29.263c1.872,6.237,3.82,12.645,3.82,12.645s1.251,14.756-11.28,16.523C-555.147,781.249-576.986,785.036-578.977,771.516Z" transform="translate(639.542 -659.7)"/><g transform="translate(73.168 106.79)"><path class="g" d="M-498.209,875.406c-6.257,9.4-10.538,1.09-10.538,1.09L-518.9,826.388c.016.772.3-6.527,9.958-6.669,9.628-.143,12.567,3.178,12.567,3.178s.252,36.74-1.838,52.51" transform="translate(518.896 -819.714)"/><path class="g" d="M-472.341,1066.183s10.05,57.083,10.642,58.916c0,0,4.776.33,4.637-.738-.332-2.574.53-38.569-.006-42.611-1.357-10.235-2.777-11.994-6.432-18.479C-463.5,1063.27-473.6,1057.91-472.341,1066.183Z" transform="translate(482.345 -1010.038)"/></g><g transform="translate(90.529 219.578)"><path class="w" d="M-434.576,1350.291l-2.828,8.62s.584,7.718,6.773,2.935l1.844-1.787a1.974,1.974,0,0,0,.665-1.895l-.55-3.3-.656-4.571S-433.207,1347.658-434.576,1350.291Z" transform="translate(437.404 -1349.121)"/><path d="M-430.631,1393.439l1.844-1.785a1.926,1.926,0,0,0,.633-.987l.033.193a1.974,1.974,0,0,1-.665,1.895l-1.844,1.787c-6.189,4.782-6.773-2.935-6.773-2.935l.11-.336C-436.946,1393.092-435.582,1397.266-430.631,1393.439Z" transform="translate(437.404 -1381.816)"/></g><g transform="translate(71.899 101.45)"><path class="z" d="M-415.527,1082.044" transform="translate(438.818 -1020.816)"/><path class="z" d="M-514.672,858.155c-3.525-10.346-10.179-53.139-10.179-53.139.015.771,1.993-10.22,11.647-10.362,9.627-.143,12.129,3.572,12.129,3.572s3.015,41.882.924,57.652C-500.151,855.878-506.932,863.71-514.672,858.155Z" transform="translate(524.851 -794.65)"/></g><path class="d" d="M-666.577,516.14s-16.347,19.224-24.476,25.593c0,0-5.462-2.019-5.294-5.731,0,0,11.968-17.7,19.482-28.177C-676.864,507.824-666.705,504.9-666.577,516.14Z" transform="translate(731.712 -467.211)"/><path class="d" d="M-779.963,632.028s-17.85,10.39-25.242,13.865c0,0-1.327,2.076.814,2.273,3.578.327,28.451-8.1,29.058-10.051C-772.5,629-779.963,632.028-779.963,632.028Z" transform="translate(817.696 -564.843)"/><path class="j" d="M-610.243,505.179a6.662,6.662,0,0,0,8.515,3.942,6.57,6.57,0,0,0,3.864-8.492,6.663,6.663,0,0,0-8.517-3.941A6.57,6.57,0,0,0-610.243,505.179Z" transform="translate(664.284 -458.397)"/><path class="aa" d="M-659.355,495.155a8.73,8.73,0,0,0-9.832,3.676l-14.258,20.682a23.546,23.546,0,0,0,9.878,10.179S-648.039,506.183-659.355,495.155Z" transform="translate(721.556 -457.231)"/><path class="g" d="M-420.558,1103.53" transform="translate(514.676 -936.274)"/><path class="ab" d="M-514.9,373.026s1.177-2.264,3.773-6.607c0,0,5.524-5.673,2.429-12.8,0,0-1.7-5.962-12.127-5.1C-520.828,348.518-521.826,364.93-514.9,373.026Z" transform="translate(593.624 -342.046)"/><path class="d" d="M-534.1,420.255s-1.754,16.357,1.988,17.594l-13.34-.794s2.1-4.942-.341-8.588Z" transform="translate(613.227 -398.568)"/><path class="f" d="M-544.715,434.2c.222-3.737-.248-4.5-1.074-5.731l11.694-8.211a79.62,79.62,0,0,0-.368,10.073C-537.85,433.533-540.646,434.287-544.715,434.2Z" transform="translate(613.227 -398.568)"/><path class="d" d="M-598.688,491.357c-2.971,2.169-3.313,7.359-2.251,10.6,1.217,3.724,1.7,8.475,2.92,13.86,1.652,7.3,2.771,12.916,4.612,20.163,1.525,5.993,25.607,1.163,25.607,1.163l8.63-29.494s1.487-7.7-5.488-10.262a104.37,104.37,0,0,0-12.728-5.789c-4.75-1.609-6.47-1.759-11.348-1.46C-588.734,490.14-595.268,490.38-598.688,491.357Z" transform="translate(657.06 -453.466)"/><path class="ac" d="M-571.845,354.657c-.688,3.138-1.469,4.777-.6,7.654.78,2.583.6,5.3,1.727,7.8,1.609,3.571,3.7,3.1,5.3-.181,1.639-3.363,3.346-7.907-.353-10.4-2.375-1.6-3.232-4.35-6.076-4.877Z" transform="translate(634.508 -346.945)"/><path class="d" d="M-566.144,374.019l-.555-1.849s-1.4-6.837-1.4-6.839a6.929,6.929,0,0,1,.109-2.842,6.98,6.98,0,0,0,.242-2.918c-.842-4.906,1.827-7.458,1.827-7.458,3.056-4.342,9.762-4,9.762-4,8.274.826,8.568,8.889,8.568,8.889,1.078,5.405-3.393,9.638-3.4,9.647-.357.337-.271,2.1-.4,2.6-.545,2.108-2.649,3.315-4.5,4.126a19.935,19.935,0,0,1-6.718,1.916C-563.459,375.325-565.826,375.08-566.144,374.019Z" transform="translate(630.866 -341.79)"/><path class="ad" d="M-567.746,419.268c1.087.981,2.567.533,3.725,1.244a1.956,1.956,0,0,0,1.961.192,3.076,3.076,0,0,1,1.871.062c.69.2,1.944.8,2.613,1.07a2.471,2.471,0,0,0,2.967-.685,5.867,5.867,0,0,0,1.539-2.437c.719-2.237,2.98-2.372,4.537-1.117a13.422,13.422,0,0,1-2.274,3.113c-.357.337-.271,3.563-.4,4.058-.545,2.108-2.649,3.315-4.5,4.126-2.035.891-5.138,1.014-7.368,1.107a3.538,3.538,0,0,1-2.881-1.92l-.555-1.849s-1.4-6.837-1.4-6.839c-.024-.12-.034-.252-.049-.38A2.078,2.078,0,0,0-567.746,419.268Z" transform="translate(630.678 -395.852)"/><path class="ae" d="M-578.935,329.087c1.873,0,1.851,1.569,3.286,2.442,3.076,1.871,7.85-.872,10.329,2.162a5.885,5.885,0,0,1,.628.962,14.193,14.193,0,0,1,1.183,4.534c.069.448-.263,1.591.144,1.933.233.2.637.139,1.065,0,.083.685-.468,1.212-.7,1.841s-.607,1.169-.272,1.808c.864,1.641.2,1.37.279,4.667a13.983,13.983,0,0,1,2.266-2.094,16.76,16.76,0,0,0,3.2-3.543,22.436,22.436,0,0,0,1.945-4.273,12.022,12.022,0,0,0,.693-7.51s-.566-5.847-5.457-6.473c0,0,.622-3.765-8.318-4.762,0,0-7.058.11-7.445-2.325a3.466,3.466,0,0,0-1.073,3.1,3.468,3.468,0,0,1-4.208-2.436S-583.81,327.87-578.935,329.087Z" transform="translate(641.716 -318.458)"/><g transform="translate(78.138 21.406)"><path class="d" d="M-495.109,423.767a1.471,1.471,0,0,0,.938.558c1.113.205,2.228-.832,2.49-2.315s-.426-2.845-1.538-3.049a1.8,1.8,0,0,0-1.493.462,3.758,3.758,0,0,0-.853,2.614A2.806,2.806,0,0,0-495.109,423.767Z" transform="translate(495.564 -418.936)"/><g transform="translate(1.115 0.88)"><g transform="translate(0.523)"><path class="af" d="M-487.857,423.528c.172-.777,1.671.166,1.378.579a2.41,2.41,0,0,1-.712.543,1.168,1.168,0,0,0-.592.8c-.012.046-.036.181.006.218.189.167.955-.519,1.123-.663a1.326,1.326,0,0,0,.343-1.234.8.8,0,0,0-.8-.7c-.358-.022-.725-.042-.758.406,0,.009.007.084.016.045Z" transform="translate(487.873 -423.067)"/></g><g transform="translate(0 1.24)"><path class="af" d="M-489.38,428.985c-.145-.187-.319-.068-.5.035a.748.748,0,0,0-.341.428,1.859,1.859,0,0,0,.04,1.336,1,1,0,0,0,.8.558c.48.043.674-.363.741-.766.018-.108.058-.365-.04-.444s-.209.082-.295.149a.67.67,0,0,1-.424.1.87.87,0,0,1-.675-.4.452.452,0,0,1-.057-.131q-.047.4.021.183a.742.742,0,0,1,.113-.176c.132-.17.336-.274.48-.434.069-.072.214-.345.142-.44Z" transform="translate(490.329 -428.887)"/></g></g></g><path class="f" d="M-550.707,414.7l2.255.871s-3.043.19-3.159-.694c0,0,.461-1.725.959-3.359C-550.652,411.515-551.041,414.568-550.707,414.7Z" transform="translate(617.809 -391.69)"/><g transform="translate(62.955 16.416)"><path class="ac" d="M-528.9,408.333c0,.478.263.862.587.862s.585-.384.585-.862-.262-.861-.585-.861S-528.9,407.857-528.9,408.333Z" transform="translate(536.978 -404.924)"/><path class="ac" d="M-559.425,404.94c0,.478.263.862.586.862s.585-.384.585-.862-.262-.861-.585-.861S-559.425,404.464-559.425,404.94Z" transform="translate(561.003 -402.254)"/><path class="ac" d="M-532.822,399.894c-.21.043-.262-.24-.262-.24a.983.983,0,0,1,.014-.5.489.489,0,0,1,.25-.255,7.13,7.13,0,0,1,2.491.326c.494.148,1.3.515,1.348.972.015.136.028.371-.126.413A20.3,20.3,0,0,0-532.822,399.894Z" transform="translate(540.294 -398.157)"/><path class="ac" d="M-566.755,396.509a17.643,17.643,0,0,1,2.908.3c.191.1.317-.158.318-.158a.987.987,0,0,0,.123-.491.484.484,0,0,0-.171-.312,5.274,5.274,0,0,0-2.155-.337,4.223,4.223,0,0,0-1.083.146A2.093,2.093,0,0,0-566.755,396.509Z" transform="translate(566.831 -395.513)"/></g><g transform="translate(65.607 25.761)"><path class="p" d="M-554.148,439.378c-.184,0-.284.084-.214.218a3.393,3.393,0,0,0,2.232,1.7,3.424,3.424,0,0,0,2.581-1.114c.113-.125.014-.251-.216-.28C-549.765,439.9-552.217,439.584-554.148,439.378Z" transform="translate(554.384 -439.378)"/></g><path class="z" d="M-499.637,776.661a18.168,18.168,0,0,1,0,17.542c-5.125,9.272-20.773,5.892-20.818-6.116C-520.5,776.224-509.706,771.688-499.637,776.661Z" transform="translate(593.291 -677.476)"/><path class="aa" d="M-588.734,490.6s-6.534.24-9.954,1.217c-2.971,2.169-3.313,7.359-2.251,10.6,1.217,3.724,1.7,8.475,2.92,13.86,1.652,7.3-.431,12.631,1.41,19.877,1.525,5.993,33.392,0,33.392,0l4.048-28.045s1.487-7.7-5.488-10.262a96.382,96.382,0,0,0-12.395-5.674s.839,5.674-8.409,4.107C-585.462,496.283-591.113,494.921-588.734,490.6Z" transform="translate(657.06 -453.927)"/><path class="aa" d="M-551.8,688.62c1.352,4.813,2.422,21.042,2.422,21.042-3.664,15.193-37.367,4.262-37.567,2.082-.238-2.609.8-15.025,1.323-25.77C-585.624,685.974-571.448,680.9-551.8,688.62Z" transform="translate(645.644 -606.39)"/><path class="d" d="M-470.431,541.577c2.2,4.473,10.362,27.046,12.985,30.615.7.948,7.425,5.283,8.94-.625-3.708-23.433-9.317-36.8-9.317-36.8s-6.551-5.462-11.784-.414C-469.607,534.355-471.982,538.479-470.431,541.577Z" transform="translate(554.338 -486.674)"/><path class="g" d="M-473.251,533.116a7.883,7.883,0,0,0,6.463,9.085,7.882,7.882,0,0,0,9.085-6.461,7.884,7.884,0,0,0-6.463-9.086A7.884,7.884,0,0,0-473.251,533.116Z" transform="translate(556.231 -482.211)"/><path class="aa" d="M-473.819,520.577s6.775,2.542,8.379,8.039l4.181,14.963s-5.479,7.969-13.647,7.7l-8.069-17.923S-488.4,523.3-473.819,520.577Z" transform="translate(564.572 -477.517)"/><path class="d" d="M-858.312,690.563l2.086-.057s-3.806.977-5.033-.26c0,0-.314-.195.174-.637a28.954,28.954,0,0,0,4.846-.54,21.137,21.137,0,0,1-5.7.565.621.621,0,0,1,.072-1.163c-.755-.293-.11-.791-.11-.791a13.215,13.215,0,0,1,2.267-.874,53.994,53.994,0,0,0,5.2-2.026s-2.2-1.438-1.374-2.6l3.388,1.787,3.066,1.971.408,2.075-3.19,2.217a19.881,19.881,0,0,1-4.855,1.305S-862.108,691.36-858.312,690.563Z" transform="translate(862.333 -604.695)"/><path class="z" d="M-477.074,1068.354l8.766,54.623s2.9,2.8,9.642,0l1.118-26.689s1.979-17.633-5-30.21C-462.553,1066.077-476.309,1054.976-477.074,1068.354Z" transform="translate(559.151 -903.399)"/><path class="x" d="M-565.967,1065.082s3.731,5.4.388,25.659L-569,1118.41a9.122,9.122,0,0,1-8.365.107l-2.758-55.12S-577.65,1054.039-565.967,1065.082Z" transform="translate(640.247 -901.779)"/></g><g class="q" transform="translate(182.777 94.518)"><path class="v" d="M-860.623,752.487a2.13,2.13,0,0,0-1.075-1.757,4.04,4.04,0,0,0-.363-.213c-.04-.021-.08-.039-.121-.059-.091-.044-.184-.086-.279-.126-.024-.01-.045-.022-.07-.031s-.043-.013-.063-.021c-.153-.058-.309-.113-.471-.161l-.008,0h0c-.164-.048-.334-.089-.506-.128a.59.59,0,0,0-.058-.016l-.073-.014c-.2-.044-.411-.083-.623-.119l-.016,0-.053-.008c-.219-.035-.44-.068-.663-.1l-.071-.01c-.235-.031-.471-.057-.708-.084a.366.366,0,0,0-.041-.005l-.574-.066c-.226-.026-.45-.052-.674-.08-.04-.007-.081-.01-.122-.016-.219-.03-.434-.061-.647-.094-.11-.018-.221-.037-.33-.057-.223-.04-.447-.087-.671-.135l-.12-.027c-.163-.036-.325-.075-.487-.115l-.012,0c-.163-.042-.323-.086-.483-.131l-.153-.047c-.11-.032-.22-.067-.327-.1-.053-.018-.106-.035-.159-.055-.112-.037-.221-.078-.328-.118-.041-.017-.082-.031-.122-.047-.138-.055-.271-.11-.4-.169a11.513,11.513,0,0,1-1.781-1.161l.13,14.845a11.384,11.384,0,0,0,1.781,1.161c.128.058.262.114.4.17a.3.3,0,0,1,.03.012l.093.034c.108.042.218.082.331.121.051.018.1.034.154.052.11.036.223.072.337.107l.093.028c.016.005.033.008.048.013.161.046.324.092.488.134h0c.165.041.331.079.5.118l.048.01.068.014c.225.049.45.1.675.137l.277.049c.017,0,.037,0,.055.008.212.034.427.063.645.093l.129.017.661.079h.007l.436.049c.058.007.117.015.176.02.24.029.479.057.717.087.019,0,.037.007.056.008.226.03.45.062.67.1l.071.01c.212.035.419.075.622.118l.131.03c.174.039.344.082.509.13s.324.105.479.164l.132.052c.1.039.189.081.281.125l.12.058a3.7,3.7,0,0,1,.364.214,2.128,2.128,0,0,1,1.075,1.755Z" transform="translate(910.668 -736.085)"/><path class="v" d="M-1020.242,843.3l.152-.034c.069-.014.137-.031.207-.045l.172-.03.146-.024.109,12.44,20.6,13.9-.131-14.844-17.063-11.515c.249.03.5.065.752.107.059.009.116.019.174.029.094.017.188.033.283.052.068.011.136.026.2.04.09.018.181.036.271.056l.19.043c.146.034.292.069.44.106.041.009.082.02.122.031.183.047.367.1.549.151l.105.031c.252.075.5.154.753.24l.037.013c.25.086.5.177.745.272l.061.025c.283.11.563.23.84.354l.041.018c.281.126.557.261.83.4l.026.013c.277.143.547.293.812.449l.014.008c.27.16.533.324.788.5,2.274,1.535,3.47,3.258,3.483,4.726q-.065-7.423-.131-14.846c-.013-1.466-1.209-3.19-3.482-4.724-.256-.173-.519-.339-.788-.5l-.014-.009c-.264-.156-.536-.305-.811-.448l-.029-.014c-.272-.14-.548-.275-.829-.4l-.041-.017q-.416-.188-.84-.355l-.016-.007-.044-.015c-.248-.1-.5-.191-.751-.276l-.029-.01c-.253-.087-.507-.166-.761-.241-.02-.005-.038-.013-.058-.019l-.038-.01c-.185-.055-.369-.1-.555-.153l-.113-.027c-.151-.039-.3-.075-.452-.109l-.085-.021-.094-.02c-.094-.021-.188-.04-.283-.059l-.2-.039c-.1-.018-.19-.035-.285-.05-.046-.009-.093-.018-.138-.025l-.036-.005c-.255-.043-.508-.078-.76-.108l-.059-.008-.045,0c-.22-.023-.439-.044-.656-.06l-.053,0a.658.658,0,0,1-.071,0c-.4-.024-.8-.034-1.18-.023-.022,0-.045,0-.069,0l-.059,0c-.186.006-.371.015-.551.03h-.013l-.032.005c-.189.015-.373.036-.555.062l-.058.006c-.014,0-.028.005-.042.007-.075.012-.149.025-.222.038-.053.01-.106.018-.157.029-.076.014-.151.032-.225.048-.04.009-.081.016-.12.026l-.017,0c-.16.039-.317.084-.468.131l-.1.035c-.153.051-.3.1-.445.164-.114.051-.22.105-.322.158l-.089.051c-.036.02-.074.039-.108.06l-.084.054-.109.072c-.056.037-.109.077-.161.117l-.09.069c-.01.009-.022.017-.032.025-.06.052-.119.1-.172.154a.156.156,0,0,1-.02.02c-.044.043-.087.087-.127.131-.013.013-.023.027-.034.04l-.058.066c-.039.047-.076.092-.111.14-.016.021-.033.043-.049.065l-.026.035c-.018.025-.031.05-.047.074-.031.045-.06.091-.088.138s-.042.07-.062.106-.051.091-.075.135c-.008.016-.018.031-.025.048s-.017.035-.026.052c-.039.079-.077.159-.114.238l-.024.053c-.047.107-.093.213-.139.319-.035.082-.07.165-.106.246l-.042.093c-.044.1-.089.195-.138.291-.026.052-.054.1-.082.151-.013.025-.025.048-.038.072-.042.073-.087.147-.135.218l-.1.135c-.047.065-.1.13-.148.2l-.066.083c-.069.084-.14.167-.215.252a.124.124,0,0,0-.018.02c-.08.086-.166.172-.254.257l-.078.074c-.065.059-.131.119-.2.178l-.1.086c-.069.056-.141.112-.214.165l-.1.076c-.108.075-.219.15-.335.223l-.037.02a.106.106,0,0,0-.016.01l-.047.025a.2.2,0,0,0-.026.014l-.056.027-.039.02-.06.03-.055.026c-.019.01-.04.019-.06.03s-.045.023-.071.035-.045.022-.068.031l-.076.037c-.034.017-.071.034-.108.049-.017.008-.032.017-.05.025-.055.025-.111.051-.171.075-.388.174-.843.362-1.267.5l-20.624-13.917.13,14.847,20.624,13.915c.423-.144.878-.332,1.267-.5l.319-.145s0,0,.006,0c.047-.02.09-.041.134-.062a.029.029,0,0,1,.01-.005l.094-.045.038-.02.069-.034c.015-.006.031-.015.044-.022l.052-.027.044-.022.036-.018.037-.021.024-.013.023-.013a.01.01,0,0,1,.006,0c.117-.072.228-.148.336-.225.033-.023.065-.048.1-.073.074-.055.146-.11.217-.169.016-.013.036-.026.053-.04l.048-.043c.069-.06.135-.118.2-.178l.082-.075c.087-.085.172-.17.252-.257l0,0,.017-.019c.075-.083.146-.165.214-.248l.068-.087c.05-.064.1-.128.145-.193.012-.017.027-.034.039-.052l.058-.083c.049-.073.094-.146.136-.219.015-.026.029-.053.043-.079.025-.045.05-.089.072-.135a.014.014,0,0,0,0-.006c.049-.1.095-.195.139-.293.013-.031.027-.061.04-.091.035-.082.071-.162.106-.244.046-.109.093-.216.141-.326.007-.016.015-.03.022-.045.037-.083.076-.163.117-.245.016-.032.032-.064.048-.094.024-.047.05-.1.077-.14s.039-.07.06-.105.058-.092.089-.137.046-.073.072-.109l.05-.066c.035-.045.071-.092.11-.138.019-.022.038-.045.059-.067.05-.057.1-.113.16-.167a.19.19,0,0,1,.021-.022c.064-.061.133-.121.205-.179.028-.024.059-.047.088-.069.052-.04.106-.079.162-.118.035-.024.071-.047.108-.07.062-.039.127-.078.194-.117l.089-.048c.1-.055.207-.108.322-.159.143-.059.292-.113.445-.164l.1-.034C-1020.558,843.378-1020.4,843.334-1020.242,843.3Z" transform="translate(1048.779 -794.202)"/><g transform="translate(49.791 33.598)"><path class="ag" d="M-751.241,852.7l.131,14.844L-814.937,894.4l-.131-14.844Z" transform="translate(815.068 -852.702)"/></g><path class="l" d="M-1048.779,721.855l26.4-11.111a12.689,12.689,0,0,1,2.065,1.566c1.235,1.626-.357,3.843,1.713,5.24,2.55,1.719,8.821,1.343,14.009-.839.145-.061.288-.122.428-.184,4.876-2.175,6.83-5.211,4.352-6.883-1.584-1.068-4.314-1-6.539-1.411a14.54,14.54,0,0,1-3.262-.95,11.513,11.513,0,0,1-1.781-1.161L-984.953,695l49.792,33.6-63.827,26.858-20.6-13.9c.081-.04.167-.079.255-.118a24.829,24.829,0,0,1,2.719-1c3.072-.674,7.227.145,9.881-.971,3.252-1.449,2.589-4.733-1.413-7.435-4.047-2.731-9.977-3.831-13.244-2.456-2.028.9-1.949,2.325-2.734,3.49a6.03,6.03,0,0,1-1.828,1.746c-.1.057-.469.245-.938.454-.388.174-.843.362-1.267.5Z" transform="translate(1048.779 -694.999)"/></g><g transform="translate(0 93.41)"><path class="d" d="M-1642.556,1036.544s2.185-1.417.087-4.031c-5.42-.345-11.793-3.272-11.793-3.272-7.968-2.506-19.159-14.84-24.252-20.452-5.722-6.3-14.384-.952-9.735,6.242,8.7,13.463,31.559,22.337,45.579,21.812" transform="translate(1735.831 -938.629)"/><path class="ah" d="M-1809.739,1237.237c3.331-15.554,4.327-51.581,4.327-51.581s-2.668-3.542-12.277-4.16c-9.635-.621-8.97,5.3-8.926,4.531a334.973,334.973,0,0,0,4.421,50.6S-1815.341,1241.353-1809.739,1237.237Z" transform="translate(1843.696 -1076.705)"/><path class="ai" d="M-1826.993,1139.426c-.947-6.437,1.015-12.93,2.027-19.435h29.263c1.873,6.238,3.819,12.645,3.819,12.645s1.252,14.756-11.28,16.525C-1803.164,1149.161-1825,1152.946-1826.993,1139.426Z" transform="translate(1844.172 -1028.34)"/><path class="a" d="M-1906.7,1655.484c0,12.406,22.6,22.463,50.486,22.463s50.483-10.057,50.483-22.463-22.6-22.462-50.483-22.462S-1906.7,1643.079-1906.7,1655.484Z" transform="translate(1906.703 -1432.072)"/><g transform="translate(70.181 215.45)"><path class="w" d="M-1567.611,1708.231l-1.667-.1c-.568-.088-.564.806-.641.836a18.143,18.143,0,0,1-3.948,1.252s-3.084-.4-3.415-1.335l.436-5.723c3.437-.289,7.024-.954,7.024-.954l7.555-1.061c3.635-.379,4.3.936,4.3.936S-1555.745,1705.409-1567.611,1708.231Z" transform="translate(1577.283 -1701.081)"/><path class="aj" d="M-1572.2,1710.025a9.062,9.062,0,0,1,1.954-.636c3.726-.653,7.372-1.022,10.475-3.417a3.07,3.07,0,0,0,1.347-2.181,1.354,1.354,0,0,1,.45.427s2.226,3.324-9.64,6.146l-1.667-.1c-.568-.088-.564.806-.641.836a18.136,18.136,0,0,1-3.948,1.252s-3.084-.4-3.415-1.335l.106-1.395A5.954,5.954,0,0,0-1572.2,1710.025Z" transform="translate(1577.283 -1703.213)"/></g><g transform="translate(19.711 214.032)"><path class="w" d="M-1804.511,1701.577l-1.668-.1c-.568-.088-.564.8-.642.836a18.206,18.206,0,0,1-3.947,1.252s-3.084-.4-3.413-1.337l.433-5.722c3.438-.289,7.026-.954,7.026-.954l7.555-1.062c3.636-.379,4.3.937,4.3.937S-1792.644,1698.755-1804.511,1701.577Z" transform="translate(1814.181 -1694.425)"/><path class="aj" d="M-1809.1,1703.374a9.1,9.1,0,0,1,1.954-.636c3.728-.653,7.373-1.022,10.476-3.419a3.067,3.067,0,0,0,1.347-2.18,1.352,1.352,0,0,1,.45.427s2.227,3.324-9.64,6.146l-1.668-.1c-.568-.088-.564.8-.642.836a18.206,18.206,0,0,1-3.947,1.252s-3.084-.4-3.413-1.337l.1-1.394A5.955,5.955,0,0,0-1809.1,1703.374Z" transform="translate(1814.181 -1696.562)"/></g><path class="ah" d="M-1809.782,1479.708c1.238-1.476,5.3-55.739,5.3-55.739.674-8.342-13.2-4.84-13.2-4.84-2.02,8.305-1.694,9.868-2.328,20.172-.252,4.07.4,37.78.246,40.372C-1819.761,1479.673-1813.323,1483.937-1809.782,1479.708Z" transform="translate(1838.523 -1263.173)"/><path class="aa" d="M-1804.026,1148.386s8.328,14.18,3.2,23.45-26.719-.819-25.392-11.554C-1824.759,1148.509-1814.094,1143.411-1804.026,1148.386Z" transform="translate(1843.408 -1049.192)"/><path class="g" d="M-1798.371,1058.483c1.353,4.813,6.932,23.18,6.932,23.18-15.291,14.42-35.025,2.987-35.225.807-.237-2.609,2.674-12.573,3.2-23.318C-1823.46,1059.153-1818.014,1050.767-1798.371,1058.483Z" transform="translate(1843.726 -977.367)"/><path class="c" d="M-1663.548,1449.954" transform="translate(1715.351 -1288.006)"/><path class="aa" d="M-1740.737,1217.3c-1.623-15.825-12.9-56.194-12.9-56.194s-3.294-3.033-12.627-.663c-9.356,2.377-10.366,14.552-10.56,13.806,0,0,10.86,25.551,25.309,48.063C-1751.511,1222.317-1744.531,1225.891-1740.737,1217.3Z" transform="translate(1804.491 -1059.464)"/><path class="aa" d="M-1641.734,1475.715c-.274-1.907-14.347-58.607-14.347-58.607-3.312-6.992-12.826.371-12.826.371a60.267,60.267,0,0,0,3.445,20.986c1.294,3.867,13.258,38.883,14.09,41.34C-1651.37,1479.807-1644.3,1482.047-1641.734,1475.715Z" transform="translate(1719.568 -1259.786)"/><g transform="translate(8.378 38.3)"><path class="d" d="M-1866.51,887s-1.513,25.467-.548,35.748c0,0,0,4.672,8.229,7.014,0,0,2.994-28.353,5.43-41.011C-1853.4,888.75-1858.26,879.362-1866.51,887Z" transform="translate(1867.38 -880.931)"/><path class="d" d="M-1854.341,882.217a6.66,6.66,0,0,1-8.717-3.471,6.571,6.571,0,0,1,3.508-8.645,6.662,6.662,0,0,1,8.718,3.472A6.569,6.569,0,0,1-1854.341,882.217Z" transform="translate(1864.4 -869.571)"/></g><path class="x" d="M-1863.369,864.224a8.728,8.728,0,0,0-6.337,8.367l-.973,25.1A23.542,23.542,0,0,0-1856.887,901S-1847.907,867.482-1863.369,864.224Z" transform="translate(1878.354 -827.063)"/><path class="g" d="M-1668.58,1471.44" transform="translate(1719.311 -1304.914)"/><path class="f" d="M-1772.974,789.425s.053,8.965.837,17.895l-11.827-1.959a8.751,8.751,0,0,0-.706-7.724Z" transform="translate(1810.668 -768.199)"/><path class="d" d="M-1846.706,859.268c-2.97,2.171-3.311,7.361-2.251,10.6,1.219,3.724,1.7,8.475,2.921,13.86,1.652,7.3,2.771,12.916,4.612,20.163,1.525,5.993,25.606,1.164,25.606,1.164l8.632-29.494s1.486-7.7-5.49-10.262a104.292,104.292,0,0,0-12.727-5.79c-4.75-1.608-6.472-1.759-11.348-1.459C-1836.75,858.052-1843.284,858.291-1846.706,859.268Z" transform="translate(1861.69 -822.107)"/><path class="aa" d="M-1747.658,1144.575a18.165,18.165,0,0,1,0,17.541c-5.125,9.271-20.771,5.891-20.818-6.116C-1768.522,1144.137-1757.725,1139.6-1747.658,1144.575Z" transform="translate(1797.925 -1046.118)"/><path class="x" d="M-1836.609,858.513s-6.534.24-9.956,1.217c-3.09,2.259-3.036,6.694-2.439,10.05,1.139,6.418,2.3,12.9,2.891,19.393.265,2.877.981,8.731,1.195,11.61.209,2.794,1.093,4.334,3.952,5.81,2.173,1.121,3.789.231,6.157.294a119.223,119.223,0,0,0,17.933-1.232c.252-.03,9.565,6.252,6.5,1.63l3.331-31.261s1.486-7.7-5.49-10.262a56.106,56.106,0,0,0-10.285-4.893S-1832.175,861.107-1836.609,858.513Z" transform="translate(1861.549 -822.568)"/><path class="d" d="M-1792.12,739.674l.5-1.947s1.2-7.178,1.2-7.179a7.216,7.216,0,0,0-.224-2.956,7.289,7.289,0,0,1-.367-3.03c.687-5.142-2.194-7.7-2.194-7.7-3.352-4.4-10.323-3.789-10.326-3.787-3.616.547-6.774,2.042-8.572,5.341-1.632,2.991-2.52,6.638-1.552,9.977a20.214,20.214,0,0,0,5.827,9.116c1.737,1.661,3.512,1.865,5.786,2.7a23.571,23.571,0,0,0,6.294.928C-1794.865,741.138-1792.41,740.792-1792.12,739.674Z" transform="translate(1833.793 -708.094)"/><path class="ak" d="M-1797.522,714.168l-1.111,4.457a2.166,2.166,0,0,0-1.6,2.713l.4,3.681-1,.384c.083-1.474-1.961-1.495-1.961-1.495-1.495-.086-1.749,1.188-1.663,2.415.222,3.185-.938,8.244-3.608,9.134-1.055.352-3.042.718-3.376-.711-.407-1.747-3.716-5.216-3.716-5.216-3.974-3.848-4.971-10.417-3.092-15.436a12.147,12.147,0,0,1,2.853-4.217,15.4,15.4,0,0,1,8.888-3.965s4.531-.553,7.078,1.235a14.729,14.729,0,0,1,3.289,3.008S-1795.179,712.2-1797.522,714.168Z" transform="translate(1837.818 -702.415)"/><g transform="translate(32.843 21.106)"><path class="d" d="M-1748.741,793.869a1.836,1.836,0,0,1-1.162.437,2.7,2.7,0,0,1-2.628-2.607,2.472,2.472,0,0,1,2.164-2.837,2.332,2.332,0,0,1,1.687.643,3.355,3.355,0,0,1,.679,2.7A2.523,2.523,0,0,1-1748.741,793.869Z" transform="translate(1752.542 -788.86)"/></g><g transform="translate(34.034 21.982)"><path class="al" d="M-1745.343,793.467c-.13-.785-1.679.071-1.409.5a2.4,2.4,0,0,0,.68.582,1.168,1.168,0,0,1,.546.831c.009.047.026.183-.018.218-.2.157-.924-.572-1.083-.724a1.33,1.33,0,0,1-.274-1.252.8.8,0,0,1,.841-.649c.359,0,.728,0,.734.448,0,.009-.012.085-.017.044Z" transform="translate(1746.952 -792.975)"/><g transform="translate(0.313 1.257)"><path class="al" d="M-1744.646,798.963c.156-.179.323-.051.5.062a.751.751,0,0,1,.316.448,1.859,1.859,0,0,1-.114,1.331,1,1,0,0,1-.83.511c-.481.017-.651-.4-.7-.806-.012-.108-.039-.367.065-.44s.2.094.286.167a.683.683,0,0,0,.418.127.875.875,0,0,0,.7-.365.493.493,0,0,0,.064-.128c.017.266.006.326-.031.182a.666.666,0,0,0-.1-.182c-.123-.178-.319-.293-.455-.461-.064-.077-.195-.355-.116-.446Z" transform="translate(1745.482 -798.874)"/></g></g><g transform="translate(91.487 93.067)"><path class="f" d="M-1467.14,1128.776c-.613-.907-.076-1.38-1.318-1.42-1.413-.047-2.679-.744-3.638-.717-1.671.047-7.98,1.518-3.746,5.13.985.842,3.805,4.612,5.758,3.5,2.884-1.653,1.9-1.043,3.369-4.632Z" transform="translate(1477.278 -1126.638)"/></g><path class="g" d="M-1710.222,906.649a7.4,7.4,0,0,0,2.229,10.232,7.4,7.4,0,0,0,10.231-2.228,7.4,7.4,0,0,0-2.229-10.232A7.4,7.4,0,0,0-1710.222,906.649Z" transform="translate(1753.006 -857.771)"/><path class="x" d="M-1796.865,1037.305c.961,10.1,1.583,34.823,1.583,34.823-3.584,9.562-37.764,1.492-37.963-.688-.239-2.609.462-20.984.99-31.729A41.209,41.209,0,0,1-1796.865,1037.305Z" transform="translate(1848.933 -960.987)"/><path class="x" d="M-1717.2,888.6c9,2.534,10.122,13.429,10.122,13.429l4.065,17.893s-10.229,8.112-16.464,5.83a132.832,132.832,0,0,1-6.673-26.969S-1726.085,888.9-1717.2,888.6Z" transform="translate(1764.616 -846.248)"/><path class="ak" d="M-1807.185,701.445c-1.017.82-2.312.282-3.474.011-1.585,1.861.312,3.719-2.09,4.621a26.617,26.617,0,0,1-4.562.841c-1.125.182-2.263-.079-3.067.761-.871.91-.046,3.743-1.075,4.285-1.8.95-3.211-3.975-5.5-3.585-1.957.332-2.3,3.437-1.618,4.964a2.422,2.422,0,0,0-.513-.348c-.933-2.431-2.124-2.474-3.153-4.2-1.595-2.681-1.325-2.041-1.643-4.615,0-.023.314-1.127.318-1.142.749-2.739,2.029-3.206,2.644-4.369a23.093,23.093,0,0,1,2.482-3.168c.767-1,1.152-2.338,2.033-3.228A9.519,9.519,0,0,1-1821.04,690c1.981-.261,3.865.969,5.827.624.806-.141,1.559-.872,2.366-.826.985.056,1.667,1.033,2.519,1.415,1.583.712,4.078.424,5.429,1.539,1.5,1.231,1.173,3.011.253,4.52-.516.846-1.563,1.333-2.028,2.21C-1806.8,699.723-1807.153,701.419-1807.185,701.445Z" transform="translate(1849.398 -689.794)"/></g><g transform="translate(296.805 97.3)"><path class="d" d="M-457.24,708.62a278.563,278.563,0,0,0-14.689,30.531s.12,3.078,2.387,2.127,20.561-26.862,20.579-29.22C-448.915,705.994-457.24,708.62-457.24,708.62Z" transform="translate(480.795 -708.054)"/><path class="d" d="M-509.055,850.726l1.976-.672s-3.346,2.059-4.884,1.243c0,0-.357-.094-.023-.66a29,29,0,0,0,4.47-1.95,21.194,21.194,0,0,1-5.279,2.227s-1.068-.307-.276-1.133c-.808-.056-.339-.723-.339-.723a13.175,13.175,0,0,1,1.907-1.506,53.839,53.839,0,0,0,4.364-3.472s-2.525-.724-2.081-2.073l3.764.7,3.512.976,1,1.862-2.391,3.06a19.914,19.914,0,0,1-4.25,2.685S-512.445,852.613-509.055,850.726Z" transform="translate(513.545 -813.469)"/></g><g class="q" transform="translate(155.917 167.916)"><path class="am" d="M-881.141,1096.086a2.093,2.093,0,0,1,1.057-1.728,3.721,3.721,0,0,1,.357-.21c.039-.021.079-.039.12-.058.089-.043.18-.084.273-.124.023-.009.045-.021.069-.029s.043-.015.064-.022c.149-.057.3-.11.461-.157l.008,0s0,0,0,0c.161-.046.327-.088.5-.126.02-.005.039-.012.059-.016l.076-.014q.3-.064.6-.117l.02,0,.065-.01c.205-.032.412-.062.622-.091l.083-.01c.226-.03.454-.056.681-.082l.04,0,.154-.018.461-.052q.321-.037.638-.078l.128-.015c.211-.029.419-.058.625-.092.109-.017.218-.035.326-.054q.331-.063.663-.135l.124-.027c.159-.035.317-.073.474-.113l.015,0c.159-.04.317-.084.474-.13l.145-.043c.108-.032.216-.067.321-.1l.158-.053c.106-.036.21-.075.312-.114.043-.016.088-.031.13-.048.136-.054.268-.11.394-.168a11.141,11.141,0,0,0,1.752-1.142l-.128,14.6a11.1,11.1,0,0,1-1.752,1.142c-.128.059-.261.114-.4.169l-.03.013-.09.033c-.106.04-.213.079-.323.117l-.153.052q-.159.052-.322.1l-.1.031c-.017.005-.034.009-.05.013-.155.045-.311.088-.47.13l-.02,0c-.154.04-.311.076-.468.113l-.052.012-.077.015c-.22.048-.44.094-.66.134-.089.017-.18.033-.272.048-.019,0-.039,0-.058.009q-.3.049-.617.089l-.139.018c-.2.026-.41.051-.617.075h-.019l-.438.051-.219.024c-.225.026-.45.052-.673.082l-.08.01c-.21.027-.418.057-.624.091l-.084.013c-.207.035-.409.074-.607.117-.044.009-.087.018-.13.028-.171.039-.339.081-.5.129h0c-.161.048-.316.1-.467.16l-.132.052c-.094.039-.185.079-.274.124l-.119.057c-.124.066-.244.135-.357.21a2.094,2.094,0,0,0-1.056,1.728Z" transform="translate(943.816 -1079.947)"/><path class="am" d="M-1148.667,1123.676c-.006-.027-.012-.056-.017-.083s-.012-.05-.016-.075c0-.009,0-.018,0-.026-.006-.039-.01-.078-.014-.116s-.007-.058-.01-.087,0-.082-.005-.123c0-.023,0-.045,0-.07v-.029l.129-14.606c0,.034,0,.066,0,.1s0,.082.005.122.007.058.01.087.008.077.014.116.013.068.02.1.011.056.017.084.019.069.029.1.015.053.023.079.01.027.015.041a2.425,2.425,0,0,0,.124.295.015.015,0,0,1,0,.007,2.582,2.582,0,0,0,.161.267c.01.014.019.029.029.043a2.777,2.777,0,0,0,.2.245l.062.066.069.07.083.078.078.069.075.061c.045.036.092.071.14.106.025.018.05.037.075.053.055.038.111.074.169.109.021.014.042.027.065.041.051.031.106.061.16.089l.073.04c.081.04.164.08.25.119.166.07.339.132.515.19.059.018.121.032.181.05.121.035.24.07.365.1.032.008.066.014.1.021.141.033.282.061.426.086l.174.029c.134.022.27.041.407.058.045.007.09.012.135.017.178.021.358.039.541.053.114.009.23.016.345.022.1.007.194.013.292.018.118.007.237.009.356.014l.287.01c.229.007.457.01.688.013h.019c.27,0,.542.007.813.009l.518.007.256,0,.44.009.112,0c.065,0,.127.005.191.007l.333.013.31.017.32.02.108.008v0h0v0c.119.009.238.021.355.034l.072.007c.154.017.306.035.456.057.018,0,.035.007.053.01.224.033.444.071.657.118l.02,0,.022.005.029.007.046.013.038.012.061.019.047.014.077.025.049.015.091.03.056.018.1.034.059.021.111.037.064.022.114.041.075.026.108.039.089.032.106.039.095.035.109.04c.031.013.064.025.1.036l.109.043.1.038c.036.013.072.028.109.041l.1.039.109.044.095.039.115.048.083.035c.064.027.128.055.189.083.092.04.179.08.262.12l-.129,14.6-.261-.121-.19-.083-.063-.026-.135-.058-.078-.031-.125-.051-.087-.035-.118-.047-.092-.035-.115-.044-.095-.036c-.037-.013-.073-.028-.109-.042l-.093-.034-.11-.04-.087-.031-.106-.038-.094-.034-.089-.031-.093-.032-.083-.028-.082-.029c-.027-.008-.054-.018-.08-.026l-.072-.025-.074-.024-.065-.021-.062-.021-.057-.017a.388.388,0,0,0-.051-.015l-.044-.013-.042-.013-.031-.008-.041-.01c-.214-.048-.435-.086-.66-.12-.166-.025-.333-.048-.5-.066l-.087-.008q-.224-.023-.453-.04l-.317-.021-.313-.017c-.108-.005-.217-.009-.327-.013l-.312-.01-.427-.008-.268-.005-.513-.005c-.223,0-.447,0-.67-.008h-.169q-.34,0-.678-.014h-.033c-.094,0-.187-.008-.28-.01l-.335-.013c-.1-.005-.2-.013-.3-.02s-.223-.013-.333-.021l-.037,0c-.172-.014-.341-.031-.509-.051l-.127-.016c-.085-.011-.169-.021-.253-.032v0h0v0c-.055-.008-.107-.018-.161-.027l-.171-.029c-.144-.025-.286-.055-.427-.086-.034-.008-.068-.013-.1-.021l-.028-.006c-.117-.029-.228-.062-.34-.095-.059-.017-.119-.031-.177-.049-.177-.057-.349-.119-.515-.19-.087-.039-.169-.079-.25-.12l-.083-.045c-.051-.027-.1-.055-.149-.083l-.019-.01-.053-.035c-.056-.034-.11-.069-.162-.1-.027-.018-.052-.037-.079-.056-.047-.035-.093-.069-.137-.105-.015-.012-.03-.022-.045-.034v0h0v0l-.033-.028-.074-.066c-.029-.027-.058-.053-.086-.081s-.046-.045-.068-.069l-.044-.044a.248.248,0,0,0-.017-.022,2.858,2.858,0,0,1-.2-.246c0-.005-.009-.01-.011-.016s-.01-.018-.016-.026a2.72,2.72,0,0,1-.162-.267v0a.014.014,0,0,1,0-.006,2.314,2.314,0,0,1-.123-.29c0-.009-.008-.017-.01-.026v0h0v0c0-.006,0-.013-.006-.02-.008-.025-.016-.05-.023-.078S-1148.659,1123.713-1148.667,1123.676Z" transform="translate(1154.3 -1093.774)"/><g transform="translate(0 33.056)"><path class="r" d="M-1174.724,1194.675l-.129,14.606,62.8,26.424.128-14.606Z" transform="translate(1174.853 -1194.675)"/></g><g transform="translate(62.798 26.424)"><path class="am" d="M-879.964,1196.6l-.128,14.606,48.988-33.056.128-14.606Z" transform="translate(880.091 -1163.548)"/></g><g transform="translate(0.129)"><path class="s" d="M-1062.465,1065.941l-25.98-10.931a12.468,12.468,0,0,0-2.029,1.541c-1.215,1.6.351,3.781-1.685,5.155-2.509,1.692-8.679,1.322-13.783-.825q-.216-.091-.425-.184c-4.8-2.138-6.715-5.125-4.28-6.769,1.558-1.052,4.246-.985,6.432-1.388a14.264,14.264,0,0,0,3.209-.936,11.15,11.15,0,0,0,1.752-1.142l-26.009-10.945-20.289,13.692c-.42-.141-.871-.328-1.255-.5-.458-.2-.82-.386-.914-.445a5.93,5.93,0,0,1-1.8-1.717c-.773-1.148-.7-2.547-2.592-3.393-3.312-1.395-9.144-.313-13.128,2.375-3.938,2.657-4.589,5.889-1.5,7.268,2.718,1.146,6.8.337,9.825,1a23.969,23.969,0,0,1,2.667.977c.092.04.179.08.262.121l-20.267,13.674,62.8,26.424Z" transform="translate(1174.249 -1039.517)"/></g></g><g transform="translate(220.397 139.129)"><path class="a" d="M-744.244,1819.737c0,8.815-16.059,15.959-35.869,15.959s-35.868-7.144-35.868-15.959,16.059-15.959,35.868-15.959S-744.244,1810.923-744.244,1819.737Z" transform="translate(827.956 -1612.169)"/><g transform="translate(21.27 203.724)"><g transform="translate(5.47)"><path class="j" d="M-743.755,1864s-3.8-.7-2.734,2.409c0,0,8.883,3.814,15.087,2.954,0,0,4.36-.146,3.676-4.877l.072-3.844-5.849,1.108.332,3.653Z" transform="translate(746.679 -1860.642)"/></g><path class="an" d="M-747.93,1875.32a2.462,2.462,0,0,1-.584,1.649c-1.531,1.765-4.54,1.818-6.658,1.683a71.653,71.653,0,0,1-10.132-1.417c-.725-.153-.926-.39-.935-.6a2.958,2.958,0,0,1,2.279-1.8l-3.238-.414c-2.989-.107-4.346.579-5.043,1.03-.827,2.365,3.2,3.943,3.2,3.943a65.537,65.537,0,0,0,9.431,2.632s11.37,2.682,12.744-.816Z" transform="translate(772.353 -1871.475)"/></g><g transform="translate(43.857 198.439)"><g transform="translate(5.47)"><path class="j" d="M-637.737,1839.195s-3.8-.7-2.734,2.408c0,0,8.883,3.815,15.086,2.956,0,0,4.36-.147,3.676-4.877l.073-3.844-5.849,1.106.333,3.654Z" transform="translate(640.661 -1835.837)"/></g><path class="an" d="M-641.913,1850.515a2.453,2.453,0,0,1-.583,1.648c-1.531,1.766-4.54,1.819-6.659,1.684a71.829,71.829,0,0,1-10.132-1.417c-.725-.153-.926-.39-.935-.6a2.958,2.958,0,0,1,2.28-1.8l-3.239-.414c-2.989-.107-4.346.578-5.043,1.03-.827,2.364,3.2,3.941,3.2,3.941a65.594,65.594,0,0,0,9.431,2.634s11.37,2.681,12.744-.816Z" transform="translate(666.336 -1846.67)"/></g><g transform="translate(26.93 77.218)"><g transform="translate(24.198 11.05)"><path class="x" d="M-631.882,1329.569a10.859,10.859,0,0,0,10.857,10.857,10.858,10.858,0,0,0,10.857-10.857,10.858,10.858,0,0,0-10.857-10.857A10.858,10.858,0,0,0-631.882,1329.569Z" transform="translate(631.951 -1318.712)"/><path class="x" d="M-614.446,1416.453s-.151,2.73-5.055,2.8c0,0-4.641,1.583-6.645-4.461-7.9-23.8-5.809-48.638-5.809-48.638s11.149-6.21,21.533-1.963C-610.422,1364.188-612.1,1395.43-614.446,1416.453Z" transform="translate(632.205 -1353.331)"/></g><path class="x" d="M-603.765,1607.189s3.825,51.441,4.182,53.279a6.381,6.381,0,0,0,7.029-.065c-.019-2.524,2.731-23.558,3.016-27.509.488-6.79,1.3-15.368-2.987-25.124Z" transform="translate(634.022 -1534.68)"/><g transform="translate(0 11.048)"><path class="z" d="M-735.3,1413.4s-1.046,2.525-5.7.963c0,0-4.9-.043-4.792-6.408.434-25.074,11.422-51.058,11.422-51.058s12.374-1.182,20.766,6.266C-713.6,1363.159-726.119,1394.337-735.3,1413.4Z" transform="translate(745.786 -1348.703)"/><path class="z" d="M-693.138,1325.964a10.857,10.857,0,0,0,6.647,13.84,10.858,10.858,0,0,0,13.841-6.647,10.858,10.858,0,0,0-6.648-13.84A10.857,10.857,0,0,0-693.138,1325.964Z" transform="translate(704.839 -1318.702)"/></g><path class="z" d="M-658.308,1287.17c-1.312-12.073-7.369-17.677-7.369-17.677l-20.987-2.651s-5.786,10.067-6.391,20.327c2.508,6.843,11.45,8.837,11.45,8.837l6.79,2.015S-659.427,1295.684-658.308,1287.17Z" transform="translate(704.288 -1266.843)"/><g transform="translate(0.553 69.987)"><path class="z" d="M-742.773,1600.655s10.41,54.039,11.035,55.8c-.274-.132,4.92,2.387,7.22-.866-.392-2.492-.611-29.94-.915-33.89-.522-6.788-.45-13.121-6.137-22.135C-731.57,1599.567-745.783,1589.393-742.773,1600.655Z" transform="translate(743.192 -1595.351)"/></g></g><path class="ao" d="M-654.833,1801.263" transform="translate(701.141 -1610.189)"/><g transform="translate(61.258 28.897)"><g transform="translate(1.779 28.994)"><path class="f" d="M-564.879,1176.124s-3.823,4.5-11.427,15.371l1.314,2.228s13.024-6.56,17.178-13.925Z" transform="translate(576.306 -1176.124)"/></g><path class="f" d="M-582.216,1052.918s9.8,21.393,15.692,20.579c0,0,2.032.127,2.439-1.4,0,0,4.158-3.688-13.132-30.288a5.33,5.33,0,0,0-5.15-1.676S-587.619,1043.6-582.216,1052.918Z" transform="translate(584.657 -1040.032)"/></g><g transform="translate(47.844 25.037)"><rect class="ap" width="10.598" height="11.264"/></g><g transform="translate(40.069 1.566)"><path class="d" d="M-682.895,935.471l-.4-1.8s-.794-6.6-.794-6.6a6.007,6.007,0,0,1,.393-2.679,6.091,6.091,0,0,0,.54-2.74,7.727,7.727,0,0,1,2.641-6.895c3.617-3.838,10.586-2.919,10.588-2.919,3.6.685,6.688,2.208,8.31,5.3,1.47,2.806,2.154,6.173.993,9.164a18.611,18.611,0,0,1-6.369,8c-1.84,1.423-3.635,1.518-5.966,2.159a26.044,26.044,0,0,1-6.375.52C-680.219,936.946-682.666,936.505-682.895,935.471Z" transform="translate(684.114 -911.744)"/></g><g transform="translate(46.115 19.188)"><path class="ao" d="M-655.738,994.462" transform="translate(655.738 -994.462)"/></g><g transform="translate(41.008)"><path class="ae" d="M-674.6,923.583c.523-.742,2.427-1.2,2.428-1.2,2.3,0,2,3.071,2.217,4.4.071.434.154.878.253,1.321,1.1,3.9,4.377,3.87,7.182,4.342.1-.061.213-.123.328-.186a11.219,11.219,0,0,1,2.122-3.529c4.212-3.641,5.586-10.184,3.982-15.333a12.2,12.2,0,0,0-2.628-4.4,15.5,15.5,0,0,0-8.7-4.488c-3.26-.614-14.925.968-11.742,8.052,0,0,4.8,5.537,4.562,11.016" transform="translate(679.707 -904.395)"/></g><g transform="translate(46.115 17.375)"><g transform="translate(0 0.214)"><path class="aq" d="M-655.738,988.553a2.207,2.207,0,0,1,2.6-1.52,1.737,1.737,0,0,1,1.269,1.872c-.017.189-.059.376-.078.565a3.988,3.988,0,0,1-2.465,2.791" transform="translate(655.738 -986.953)"/></g><g transform="translate(0.682 1.109)"><path class="ar" d="M-650.836,991.294a1.17,1.17,0,0,0-.512-.139c-.772-.049-1.4,1.142-.623,1.355a.44.44,0,0,1-.01.611c-.266.289-.623.7-.543,1.112.049.241.317.371.56.431.194.048.232-.1.079-.176a.875.875,0,0,1-.295-.241c-.007-.014-.015-.027-.023-.042a.11.11,0,0,1-.018-.031.258.258,0,0,1-.008-.176.478.478,0,0,0,.6-.007c.147-.176.035-.453.085-.654a1.533,1.533,0,0,1,.179-.4.412.412,0,0,0-.284-.69,1.772,1.772,0,0,0-.235.017c-.324-.168.038-.654.235-.732a.622.622,0,0,1,.674.118.961.961,0,0,1,.215.683,2.253,2.253,0,0,1-.21.817c-.071.146-.159.317-.23.463-.08.165.112.238.193.071a4.844,4.844,0,0,0,.552-1.345A1.022,1.022,0,0,0-650.836,991.294Z" transform="translate(652.536 -991.154)"/></g><path class="ar" d="M-655.738,987.763s.092-.132.243-.371a3.076,3.076,0,0,1,.32-.37,2.5,2.5,0,0,1,.489-.38,2.034,2.034,0,0,1,.66-.239,1.706,1.706,0,0,1,.754.052,2.044,2.044,0,0,1,.382.162,1.781,1.781,0,0,1,.3.233,1.458,1.458,0,0,1,.4.686,2.07,2.07,0,0,1,.012.853l-.028.232,0,.03v0c0-.014-.006.034,0-.028v.006l0,.014-.011.057-.023.114a2.576,2.576,0,0,1-.11.409,3.3,3.3,0,0,1-.359.715,4.265,4.265,0,0,1-.463.575,5.206,5.206,0,0,1-.873.724c-.231.153-.375.231-.375.231a2.694,2.694,0,0,0,.422-.139,4.389,4.389,0,0,0,1.029-.589,3.528,3.528,0,0,0,.578-.565,3.044,3.044,0,0,0,.478-.788,2.952,2.952,0,0,0,.155-.463l.029-.112.014-.057,0-.015.007-.045.005-.03.034-.232a2.541,2.541,0,0,0-.01-1.038,1.994,1.994,0,0,0-.568-.925,2.679,2.679,0,0,0-.209-.17l-.244-.136a2.16,2.16,0,0,0-.467-.165,1.939,1.939,0,0,0-.955.013,2.1,2.1,0,0,0-.75.375,2.147,2.147,0,0,0-.468.5,3.284,3.284,0,0,0-.261.45C-655.687,987.608-655.738,987.763-655.738,987.763Z" transform="translate(655.738 -985.949)"/><g transform="translate(0.04 4.386)"><path class="p" d="M-654.264,1007.181a.642.642,0,0,1-.643.641.642.642,0,0,1-.642-.641.643.643,0,0,1,.642-.643A.643.643,0,0,1-654.264,1007.181Z" transform="translate(655.548 -1006.538)"/><path class="as" d="M-654.752,1007.523a.507.507,0,0,1-.508-.509.5.5,0,0,1,.353-.476h0a.643.643,0,0,0-.642.643.642.642,0,0,0,.642.641.642.642,0,0,0,.643-.641c0-.016,0-.031,0-.046A.5.5,0,0,1-654.752,1007.523Z" transform="translate(655.548 -1006.538)"/></g></g><g transform="translate(34.036 28.915)"><path class="l" d="M-671.009,1096.1c-.041-.06-11.7-16.787-11.7-16.787-.545-2.468.684-7.376.684-7.376l3.74-25.725c-.443-2.948-.647-6.691-4.637-6.021a24.7,24.7,0,0,0-5.105,1.423c.508,2.389-3.615,3.923-3.615,3.923-5.672,2.45-6.983.836-6.983.836-1.51.817-6.615,3.367-7.939,4.456-1.377,1.133-2.209,2.9-1.776,5.865l4.082,24.382-.718,6.057-7.457,18.907a16.032,16.032,0,0,1,7.266-.868c2.319.278,4.317,1.645,6.62,1.9,3.48.382,6.063-.873,8.689-2.538A41.9,41.9,0,0,0-679.8,1101h.219c2.6.014,5.55-.031,7.471-2.068C-671.707,1098.506-670.516,1096.811-671.009,1096.1Z" transform="translate(712.433 -1040.116)"/></g><g transform="translate(35.085 39.589)"><path class="d" d="M-707.509,1129.293l.068-29.619c.721-8.116,4.752-9.412,4.752-9.412,8.147-.955,6.892,14.143,6.892,14.143l-3.4,25.516" transform="translate(707.509 -1090.219)"/></g><g transform="translate(0 87.543)"><path class="d" d="M-863.042,1322.62c3.737-2,4.072-2.646,4.731-3.586,2.841-4.036-2.9-3.909-4.348-3.581-.83.19-.881,2.163-3.455,4.571,0,0-4.045,2.347-5.042,2.181,0,0-1.037.148-1.037.9C-872.193,1323.1-869.353,1324.779-863.042,1322.62Z" transform="translate(872.193 -1315.306)"/></g><g transform="translate(9.911 74.528)"><g transform="translate(30.506 0.057)"><path class="d" d="M-682.48,1254.485" transform="translate(682.48 -1254.485)"/></g><path class="d" d="M-799.884,1255.231l-25.369,13.885c-1.1,3.053.313,3.492.313,3.492l19.641-5.65c8.384-2.245,11.708-5.765,11.708-5.765s3.666-2.54-1.013-6.323C-794.6,1254.87-796.735,1253.185-799.884,1255.231Z" transform="translate(825.67 -1254.217)"/></g><g transform="translate(42.921 0.358)"><path class="ae" d="M-669.788,923.092c.658,4.912-.083,11.414,2.364,16.783,1.089,2.39,2.291,3.574,1.638,6.347-.534,2.269-1.608,4.41-2.189,6.76-1.286,5.186.461,10.253,6.505,8.375,2.9-.9,3.222-.886,5.861.137a7.667,7.667,0,0,0,6.5.026c3.417-1.665,2.388-4.179,4.3-6.7,1.458-1.92,3.521-1.872,4.621-4.452,1.326-3.114-.254-4.776-1.87-7.417-1.683-2.752-1.952-4.565-1.4-7.883.465-2.788-.224-4.2-1.146-6.761-.946-2.626-.534-4.915-.982-7.549-.887-5.208-3.733-12.277-9.189-13.805-2.674-.748-6.13-1.333-8.7-.389-3.5,1.284-7.406,2.654-7.255,6.964A71.217,71.217,0,0,0-669.788,923.092Z" transform="translate(670.73 -906.075)"/></g><path class="d" d="M-842.654,1309.148s.712,2.08-1.877,1.57l-2.534-1.931a1,1,0,0,1-.509-1.173s.3-.429,1.112,0Z" transform="translate(852.865 -1221.559)"/></g></g><g class="at" transform="translate(-2096.741 138.599)"><path class="au" d="M-618.679,193.393a8.759,8.759,0,0,1-8.759,8.759,8.76,8.76,0,0,1-8.759-8.759,8.759,8.759,0,0,1,8.759-8.759A8.758,8.758,0,0,1-618.679,193.393Z" transform="translate(939.538 -174.826)"/><path class="au" d="M-1900.872,1921.239a8.759,8.759,0,0,1-8.759,8.759,8.76,8.76,0,0,1-8.759-8.759,8.759,8.759,0,0,1,8.759-8.759A8.759,8.759,0,0,1-1900.872,1921.239Z" transform="translate(1948.565 -1534.563)"/><path class="av" d="M-1923.591,515.488a6.269,6.269,0,0,1-6.27,6.269,6.269,6.269,0,0,1-6.269-6.269,6.268,6.268,0,0,1,6.269-6.268A6.269,6.269,0,0,1-1923.591,515.488Z" transform="translate(1962.526 -430.261)"/><path class="av" d="M-228.166,736.384a6.269,6.269,0,0,1-6.269,6.268,6.268,6.268,0,0,1-6.27-6.268,6.269,6.269,0,0,1,6.27-6.27A6.27,6.27,0,0,1-228.166,736.384Z" transform="translate(628.303 -604.095)"/><circle class="aw" cx="6.269" cy="6.269" r="6.269" transform="translate(211.593 71.821) rotate(-45)"/><path class="ax" d="M-2047.491,1133.9a6.269,6.269,0,0,1-6.27,6.268,6.269,6.269,0,0,1-6.269-6.268,6.269,6.269,0,0,1,6.269-6.269A6.269,6.269,0,0,1-2047.491,1133.9Z" transform="translate(2060.029 -916.919)"/><path class="ax" d="M-204.594,1327.42a6.268,6.268,0,0,1-6.269,6.268,6.268,6.268,0,0,1-6.269-6.268,6.269,6.269,0,0,1,6.269-6.269A6.269,6.269,0,0,1-204.594,1327.42Z" transform="translate(609.752 -1069.214)"/><path class="ay" d="M-1262.9,144.867a6.269,6.269,0,0,1-6.269,6.269,6.269,6.269,0,0,1-6.269-6.269,6.268,6.268,0,0,1,6.269-6.268A6.268,6.268,0,0,1-1262.9,144.867Z" transform="translate(1442.589 -138.599)"/><path class="ay" d="M-340.585,1783.888a6.269,6.269,0,0,1-6.269,6.269,6.269,6.269,0,0,1-6.269-6.269,6.269,6.269,0,0,1,6.269-6.268A6.269,6.269,0,0,1-340.585,1783.888Z" transform="translate(716.771 -1428.434)"/></g></g></svg>