<svg id="Group_15841" data-name="Group 15841" xmlns="http://www.w3.org/2000/svg" width="16.884" height="18.335" viewBox="0 0 16.884 18.335">
  <g id="Group_15840" data-name="Group 15840">
    <path id="Path_51761" data-name="Path 51761" d="M13.454,5.324H9.939L13.8,1.17,12.6,0,8.529,4.375,6.314,1.962,5.1,3.124l2.021,2.2H3.43A3.472,3.472,0,0,0,0,8.829v6a3.472,3.472,0,0,0,3.43,3.505H13.454a3.472,3.472,0,0,0,3.43-3.505v-6a3.472,3.472,0,0,0-3.43-3.505m1.768,9.506a1.79,1.79,0,0,1-1.768,1.807H3.43A1.79,1.79,0,0,1,1.662,14.83v-6A1.79,1.79,0,0,1,3.43,7.022H13.454a1.79,1.79,0,0,1,1.768,1.807Z" fill="#fff"/>
  </g>
</svg>
