<svg xmlns="http://www.w3.org/2000/svg" width="78.654" height="67.255" viewBox="0 0 78.654 67.255">
  <g id="Group_6902" data-name="Group 6902" transform="translate(-388.673 -540.811)">
    <g id="Group_6890" data-name="Group 6890" transform="translate(388.673 540.812)">
      <g id="Group_6891" data-name="Group 6891" transform="translate(0 0)">
        <path id="Path_30973" data-name="Path 30973" d="M92.614,11.393c0-2.112-.818-2.936-2.919-2.937q-10.749-.005-21.5-.007H62.124q-8.473,0-16.95,0c-1.852,0-2.729.86-2.758,2.7-.027,1.581-.019,3.035.022,4.454a.652.652,0,0,0,.2.372c1.275.8,2.608,1.589,3.9,2.354l.541.319V13.218H87.869V42.576H47.089v-5.6H42.416v1.95c0,1.851,0,3.683,0,5.516a2.991,2.991,0,0,0,.666,2.2,3.04,3.04,0,0,0,2.231.679h13.9L47.58,64.4l.831,0c.563,0,1.115-.008,1.659-.008.981,0,1.741.012,2.464.039l.1,0A1.094,1.094,0,0,0,53.66,63.8q1.712-2.535,3.439-5.062l.113-.166c2.111-3.1,4.294-6.3,6.4-9.483a3.262,3.262,0,0,1,3.46-1.786,5.918,5.918,0,0,0,1.7.009A2.191,2.191,0,0,1,71,48.5C74.546,53.781,78.246,59.2,81.51,63.99l.029.042a1.721,1.721,0,0,0,.243.294l.046.044h.064c1.616.03,3.228.027,4.961.025h.6L75.831,47.322l8.74,0c1.767.005,3.535.007,5.3,0,1.449-.01,2.335-.573,2.631-1.673a5.311,5.311,0,0,0,.111-1.367v-.089q0-9.049,0-18.1Z" transform="translate(-13.961 -2.781)" fill="#544b7d"/>
        <path id="Path_30974" data-name="Path 30974" d="M4.69,33.757a3.3,3.3,0,0,1,3.616-3.615l1.93-.006c2.824-.009,5.744-.019,8.616.013a5.1,5.1,0,0,1,2.341.5c2.116,1.133,4.178,2.357,6.279,3.616A8.873,8.873,0,0,0,32.18,35.8q3.853-.01,7.712-.005H44.5V31.122l-3.2,0c-2.7.005-5.484.01-8.289-.005a3.49,3.49,0,0,1-1.6-.371l-.076-.041c-1.726-.926-3.512-1.884-5.224-2.947-2.925-1.818-5.4-2.536-8.031-2.331-.677.053-1.365.038-1.973.025-.29-.006-.581-.012-.87-.012H9.7c-.741,0-1.507.007-2.26.035A7.918,7.918,0,0,0,.044,32.974C-.019,38.394,0,43.906.017,49.246l.007,1.93a1.137,1.137,0,0,0,.313.657c.729.755,1.47,1.5,2.209,2.241l.062.062c.767.769,1.635,1.64,2.464,2.5a2.244,2.244,0,0,1,.6,1.427c.024,2.331.019,4.7.014,6.993l0,10.56H21.712V48.255H17.036v22.65H10.354V66.576c0-3.515.005-7.149-.024-10.736a1.617,1.617,0,0,0-.392-.964C9.2,54.1,8.434,53.331,7.672,52.569S6.137,51.033,5.39,50.247A2.6,2.6,0,0,1,4.714,48.6c-.029-3.859-.027-7.77-.025-11.553Z" transform="translate(0 -8.362)" fill="#e9003c"/>
        <path id="Path_30975" data-name="Path 30975" d="M15.114,16.051l1.456.382L17.9,16.09a8.381,8.381,0,0,0,6.5-9.539A8.12,8.12,0,0,0,16.524,0H16.4A8.079,8.079,0,0,0,8.634,6.421a7.622,7.622,0,0,0,.745,5.3,8.491,8.491,0,0,0,5.735,4.334m-1.967-8a3.34,3.34,0,0,1,.978-2.4,3.407,3.407,0,0,1,2.395-.974h.02a3.3,3.3,0,0,1,2.351.993,3.352,3.352,0,1,1-5.743,2.376" transform="translate(-2.783 0)" fill="#e9003c"/>
      </g>
    </g>
  </g>
</svg>
