<svg xmlns="http://www.w3.org/2000/svg" xmlns:xlink="http://www.w3.org/1999/xlink" width="96" height="96" viewBox="0 0 96 96">
  <defs>
    <clipPath id="clip-Course">
      <rect width="96" height="96"/>
    </clipPath>
  </defs>
  <g id="Course" clip-path="url(#clip-Course)">
    <g id="Group_7218" data-name="Group 7218" transform="translate(13.035 13.375)">
      <g id="Group_7219" data-name="Group 7219" transform="translate(0 0)">
        <path id="Path_39217" data-name="Path 39217" d="M43.31,63.353v6.208H41.386q-17.08,0-34.161,0c-4.9,0-7.222-2.312-7.222-7.2,0-22.144,0-29.97,0-52.114C0,5.294,2.275,3,7.167,3q22.206,0,44.41,0c4.757,0,7.168,2.377,7.173,7.109.012,9.734,0,.119,0,9.853,0,.5-.044,1-.064,1.426-1.284.436-2.449.872-3.639,1.223A1.968,1.968,0,0,1,52.605,20.5c-.005-9.507,0,.336,0-9.17V9.239H6.266V63.353Z" transform="translate(0 -3)" fill="#e8c8c8"/>
        <path id="Path_39218" data-name="Path 39218" d="M86.117,68.86a7.3,7.3,0,0,1-.225,1.273,2.353,2.353,0,0,0,.874,2.694c2.446,2.282,2.455,3.114.014,5.379a2.633,2.633,0,0,0-.862,2.857c.662,2.912-.01,3.854-3.025,4.149a2.762,2.762,0,0,0-2.529,1.859c-1.231,2.721-2.21,3.06-4.736,1.6a2.932,2.932,0,0,0-3.31-.039c-2.586,1.5-3.572,1.175-4.769-1.49A2.875,2.875,0,0,0,64.892,85.2C62,84.931,61.3,83.942,61.943,81.138a2.744,2.744,0,0,0-.909-3c-2.356-2.158-2.352-3.077.026-5.251a2.749,2.749,0,0,0,.876-3.014c-.637-2.8.1-3.771,2.984-4.022a2.778,2.778,0,0,0,2.568-1.83c1.3-2.859,2.168-3.157,4.841-1.6a2.93,2.93,0,0,0,3.3-.05c2.538-1.452,3.509-1.168,4.648,1.43a3.052,3.052,0,0,0,2.945,2.076c2.193.128,2.952.955,2.894,2.98m-6.87,6.707a5.308,5.308,0,0,0-10.615-.091,5.308,5.308,0,1,0,10.615.091" transform="translate(-18.676 -37.539)" fill="#e8c8c8"/>
        <path id="Path_39219" data-name="Path 39219" d="M77.405,114.193c-1.9,1.743-3.634,3.383-5.425,4.959-.957.841-1.679.612-1.691-.571-.056-5.272-.025-10.546-.025-16.258,2.2,2.247,4.261,1.775,6.4.558a2.014,2.014,0,0,1,1.677.1c2.065,1.173,4.03,1.511,6.047-.575.072.725.15,1.145.151,1.565.008,4.661.024,9.322-.021,13.982a5.719,5.719,0,0,1-.555,1.66,6.422,6.422,0,0,1-1.435-.736c-1.7-1.5-3.357-3.059-5.128-4.688" transform="translate(-22.137 -50.406)" fill="#e8c8c8"/>
        <path id="Path_39220" data-name="Path 39220" d="M35.182,43.041q-7.082,0-14.164,0c-1.953,0-2.931-.714-2.9-2.074.029-1.314.979-2.016,2.811-2.018,9.442-.007,11.337-.008,20.779,0,1.825,0,2.727.729,2.7,2.1s-.886,1.991-2.783,1.994c-4.664.008-1.78,0-6.444,0" transform="translate(-5.708 -17.042)" fill="#e8c8c8"/>
        <path id="Path_39221" data-name="Path 39221" d="M31.248,28.287c-3.468,0-6.936.016-10.4-.006-1.79-.012-2.825-.8-2.713-2.092.138-1.6,1.262-1.994,2.658-1.993q10.319.007,20.637,0c1.4,0,2.518.4,2.618,2.021.082,1.31-.914,2.051-2.734,2.062-3.354.021-6.709.005-10.063.005" transform="translate(-5.71 -12.396)" fill="#e8c8c8"/>
      </g>
    </g>
  </g>
</svg>
