<?xml version="1.0" encoding="utf-8"?>
<!-- Generator: Adobe Illustrator 27.4.1, SVG Export Plug-In . SVG Version: 6.00 Build 0)  -->
<svg version="1.1" id="Layer_1" xmlns="http://www.w3.org/2000/svg" xmlns:xlink="http://www.w3.org/1999/xlink" x="0px" y="0px"
	 viewBox="0 0 73.8 72.9" style="enable-background:new 0 0 73.8 72.9;" xml:space="preserve">
<style type="text/css">
	.st0{clip-path:url(#SVGID_00000155133842485349068440000008438020131398181543_);}
	.st1{fill:#E8C8C8;}
</style>
<g>
	<defs>
		<rect id="SVGID_1_" x="-11" y="-11.4" width="96" height="96"/>
	</defs>
	<clipPath id="SVGID_00000096020778742078634550000017419716920755092621_">
		<use xlink:href="#SVGID_1_"  style="overflow:visible;"/>
	</clipPath>
	<g id="Course" style="clip-path:url(#SVGID_00000096020778742078634550000017419716920755092621_);">
		<g id="Group_7218" transform="translate(13.035 13.375)">
			<g id="Group_7219" transform="translate(0 0)">
				<path id="Path_39217" class="st1" d="M32.3,49v6.2h-1.9c-11.4,0-22.8,0-34.2,0c-4.9,0-7.2-2.3-7.2-7.2c0-22.1,0-30,0-52.1
					c0-5,2.3-7.2,7.2-7.2c14.8,0,29.6,0,44.4,0c4.8,0,7.2,2.4,7.2,7.1c0,9.7,0,0.1,0,9.9c0,0.5,0,1-0.1,1.4
					c-1.3,0.4-2.4,0.9-3.6,1.2c-1.1,0.3-2.1-0.4-2.4-1.4c-0.1-0.2-0.1-0.5-0.1-0.7c0-9.5,0,0.3,0-9.2v-2.1H-4.8V49H32.3z"/>
				<path id="Path_39218" class="st1" d="M56.4,19.9c0,0.4-0.1,0.9-0.2,1.3c-0.3,1,0,2.1,0.9,2.7c2.4,2.3,2.5,3.1,0,5.4
					c-0.9,0.7-1.2,1.8-0.9,2.9c0.7,2.9,0,3.9-3,4.1c-1.1,0-2.2,0.8-2.5,1.9c-1.2,2.7-2.2,3.1-4.7,1.6c-1-0.7-2.3-0.7-3.3,0
					c-2.6,1.5-3.6,1.2-4.8-1.5c-0.4-1.1-1.5-1.9-2.7-1.9c-2.9-0.3-3.6-1.3-2.9-4.1c0.4-1.1,0-2.3-0.9-3C29,27,29,26.1,31.4,24
					c0.9-0.7,1.2-1.9,0.9-3c-0.6-2.8,0.1-3.8,3-4c1.2,0,2.2-0.7,2.6-1.8c1.3-2.9,2.2-3.2,4.8-1.6c1,0.7,2.3,0.6,3.3,0
					c2.5-1.5,3.5-1.2,4.6,1.4c0.4,1.3,1.6,2.1,2.9,2.1C55.7,17.1,56.5,17.9,56.4,19.9 M49.5,26.6c0-2.9-2.4-5.3-5.3-5.3
					c-2.9,0-5.2,2.3-5.3,5.2c-0.1,2.9,2.3,5.4,5.2,5.4s5.4-2.3,5.4-5.2C49.5,26.7,49.5,26.7,49.5,26.6"/>
				<path id="Path_39219" class="st1" d="M44.2,52.4c-1.9,1.7-3.6,3.4-5.4,5c-1,0.8-1.7,0.6-1.7-0.6c-0.1-5.3,0-10.5,0-16.3
					c2.2,2.2,4.3,1.8,6.4,0.6c0.5-0.2,1.2-0.2,1.7,0.1c2.1,1.2,4,1.5,6-0.6c0.1,0.7,0.2,1.1,0.2,1.6c0,4.7,0,9.3,0,14
					c-0.1,0.6-0.3,1.1-0.6,1.7c-0.5-0.2-1-0.4-1.4-0.7C47.7,55.6,46,54,44.2,52.4"/>
				<path id="Path_39220" class="st1" d="M18.5,14.6c-4.7,0-9.4,0-14.2,0c-2,0-2.9-0.7-2.9-2.1c0-1.3,1-2,2.8-2c9.4,0,11.3,0,20.8,0
					c1.8,0,2.7,0.7,2.7,2.1s-0.9,2-2.8,2C20.2,14.6,23.1,14.6,18.5,14.6"/>
				<path id="Path_39221" class="st1" d="M14.5,4.5c-3.5,0-6.9,0-10.4,0c-1.8,0-2.8-0.8-2.7-2.1c0.1-1.6,1.3-2,2.7-2
					c6.9,0,13.8,0,20.6,0c1.4,0,2.5,0.4,2.6,2c0.1,1.3-0.9,2.1-2.7,2.1C21.2,4.5,17.9,4.5,14.5,4.5"/>
			</g>
		</g>
	</g>
</g>
</svg>
