<svg xmlns="http://www.w3.org/2000/svg" width="19.148" height="19.091" viewBox="0 0 19.148 19.091"><defs><style>.a{fill:#fff;}.b{fill:#80aed1;stroke:#80aed1;stroke-width:0.2px;}</style></defs><g transform="translate(0.17 0.1)"><circle class="a" cx="9.289" cy="9.289" r="9.289" transform="translate(-0.17 0.157)"/><g transform="translate(-0.013)"><path class="b" d="M9.445,0a9.445,9.445,0,1,0,9.445,9.445A9.456,9.456,0,0,0,9.445,0Zm0,17.428a7.982,7.982,0,1,1,7.982-7.982A7.992,7.992,0,0,1,9.445,17.428Z"/><g transform="translate(5.056 4.99)"><path class="b" d="M145.07,138.9h-2.927V135.97a.732.732,0,1,0-1.463,0V138.9h-2.927a.732.732,0,0,0,0,1.463h2.927v2.927a.732.732,0,1,0,1.463,0V140.36h2.927a.732.732,0,0,0,0-1.463Z" transform="translate(-137.022 -135.238)"/></g></g></g></svg>