<svg width="17" height="16" viewBox="0 0 17 16" fill="none" xmlns="http://www.w3.org/2000/svg">
<path d="M0.796795 15.7093C1.18815 16.0969 1.8202 16.0969 2.21155 15.7093L8.53278 9.41122L14.844 15.6993C15.2421 16.039 15.8355 16.0161 16.2061 15.6469C16.5767 15.2776 16.5997 14.6864 16.2587 14.2897L9.94753 8.00165L16.2587 1.71357C16.5997 1.31693 16.5767 0.725676 16.2061 0.35642C15.8355 -0.0128367 15.2421 -0.0356743 14.844 0.303999L8.53278 6.59208L2.22158 0.294002C1.82814 -0.0980006 1.19024 -0.0980006 0.796795 0.294002C0.403352 0.686004 0.403352 1.32157 0.796795 1.71357L7.11803 8.00165L0.796795 14.2897C0.606845 14.4774 0.5 14.733 0.5 14.9995C0.5 15.2661 0.606845 15.5216 0.796795 15.7093Z" fill="black"/>
</svg>
