<svg id="Group_10130" data-name="Group 10130" xmlns="http://www.w3.org/2000/svg" xmlns:xlink="http://www.w3.org/1999/xlink" width="19.51" height="20.34" viewBox="0 0 19.51 20.34">
  <defs>
    <clipPath id="clip-path">
      <rect id="Rectangle_6329" data-name="Rectangle 6329" width="19.51" height="20.34" fill="#242424" stroke="#070707" stroke-width="0.6"/>
    </clipPath>
  </defs>
  <g id="Group_7487" data-name="Group 7487" transform="translate(0)" clip-path="url(#clip-path)">
    <path id="Path_44685" data-name="Path 44685" d="M2.83,2.167c0-.122,0-.235,0-.347A1.768,1.768,0,0,1,3.838.2a1.814,1.814,0,0,1,2.61,1.377,3.293,3.293,0,0,1,.02.5c0,.072.014.09.085.09q2.512,0,5.024,0c.449,0,.9,0,1.346,0,.107,0,.129-.034.124-.133a2.046,2.046,0,0,1,.117-.864A1.832,1.832,0,0,1,14.856.006a1.787,1.787,0,0,1,1.69,1.143,2.076,2.076,0,0,1,.136.913c0,.091.024.1.1.1a6.507,6.507,0,0,1,.98.062A2.244,2.244,0,0,1,19.508,4.38c0,.96,0,1.921,0,2.881,0,.4.005.8.005,1.207q0,4.783,0,9.565a2.228,2.228,0,0,1-.825,1.8,2.294,2.294,0,0,1-1.525.5q-6.195,0-12.39,0c-.823,0-1.646.007-2.469,0A2.232,2.232,0,0,1,.149,18.888,2.115,2.115,0,0,1,0,18.007Q0,11.35,0,4.692A2.885,2.885,0,0,1,.116,3.7,2.275,2.275,0,0,1,2.167,2.168c.215,0,.43,0,.663,0m15.662,6.04H1.167a.676.676,0,0,1-.074,0c-.065-.007-.087.022-.084.086.006.145.011.289.011.434q0,3.66,0,7.319c0,.685-.007,1.37,0,2.055a1.21,1.21,0,0,0,1.27,1.231q1.346-.006,2.692-.006H17.162a1.351,1.351,0,0,0,.621-.107,1.233,1.233,0,0,0,.712-1.2q-.006-4.639,0-9.279V8.207M16.663,3.178l-.012.056a1.834,1.834,0,0,1-2.41,1.349,1.76,1.76,0,0,1-1.151-1.33c-.014-.066-.049-.073-.1-.073l-6.36,0H6.444l-.013.058A1.774,1.774,0,0,1,5.776,4.3,1.815,1.815,0,0,1,2.87,3.259c-.012-.062-.038-.079-.1-.078-.191,0-.382,0-.572,0a1.145,1.145,0,0,0-.808.342,1.277,1.277,0,0,0-.373.957c0,.883,0,1.766-.008,2.648a.332.332,0,0,0,.009.052H18.5c0-.036,0-.064,0-.092q0-.726-.01-1.451c0-.462.005-.926-.018-1.387a1.145,1.145,0,0,0-.8-1.005,4.058,4.058,0,0,0-1.007-.068M5.44,2.321h.014c0-.162,0-.325,0-.487a.788.788,0,0,0-.789-.82.8.8,0,0,0-.818.816q0,.524,0,1.048a.794.794,0,0,0,.739.795.784.784,0,0,0,.851-.707c.018-.214,0-.43,0-.645m10.22.028h.005c0-.18,0-.36,0-.54a.781.781,0,0,0-.785-.8.8.8,0,0,0-.815.756q-.018.577,0,1.154a.8.8,0,0,0,1.595.013c.01-.194,0-.388,0-.582" transform="translate(0 0)" fill="#242424" stroke="#070707" stroke-width="0.6"/>
  </g>
</svg>
