<svg id="Group_19524" data-name="Group 19524" xmlns="http://www.w3.org/2000/svg" width="18.898" height="19.144" viewBox="0 0 18.898 19.144">
  <g id="Group_19073" data-name="Group 19073">
    <path id="Path_76351" data-name="Path 76351" d="M3.762,1.657c0-.327,0-.638,0-.949A.713.713,0,0,1,4.509,0a.7.7,0,0,1,.653.74c0,.274,0,.548,0,.822,0,.073.02.1.095.1q4.175,0,8.351,0c.037,0,.074,0,.127-.008,0-.078,0-.151,0-.225,0-.265,0-.53.016-.794A.674.674,0,0,1,14.483,0a.72.72,0,0,1,.652.708c0,.311,0,.623,0,.948h.1c.623,0,1.248-.022,1.87.013a1.855,1.855,0,0,1,1.759,1.613,6.681,6.681,0,0,1,.026.98q0,4.5,0,8.991c0,1.287,0,2.573,0,3.86a1.982,1.982,0,0,1-.476,1.379,1.858,1.858,0,0,1-1.437.648c-2.051.006-4.1,0-6.153,0H1.918A1.909,1.909,0,0,1,.006,17.324C0,17.134,0,16.944,0,16.754Q0,10.31,0,3.866a2.545,2.545,0,0,1,.125-.957A1.832,1.832,0,0,1,1.8,1.672c.58-.04,1.165-.012,1.748-.015h.21M1.4,6.637V17.021c0,.093-.007.187,0,.28a.464.464,0,0,0,.448.441c.243.007.486,0,.729,0l14.4,0a.478.478,0,0,0,.524-.529c0-.165-.006-.33-.006-.5q0-4.991,0-9.982v-.1ZM15.135,3.066c0,.257,0,.5,0,.749a.72.72,0,0,1-.677.7.684.684,0,0,1-.708-.641c-.014-.236-.009-.473-.013-.71,0-.033,0-.065-.006-.1h-.086q-4.189,0-8.379,0c-.076,0-.1.018-.1.1,0,.252,0,.505-.017.756a.7.7,0,0,1-.766.6.688.688,0,0,1-.6-.6c-.028-.246-.017-.5-.022-.746,0-.036,0-.071,0-.11-.632,0-1.25.012-1.867-.006a.506.506,0,0,0-.5.505c.012.473.007.947.009,1.42,0,.08,0,.16,0,.24H17.5c0-.584,0-1.16,0-1.736a.445.445,0,0,0-.45-.424c-.39,0-.779,0-1.169,0Z" transform="translate(0.001 0)" fill="#969bc1"/>
  </g>
</svg>
