<svg id="Group_31173" data-name="Group 31173" xmlns="http://www.w3.org/2000/svg" xmlns:xlink="http://www.w3.org/1999/xlink" width="12.03" height="12.542" viewBox="0 0 12.03 12.542">
  <defs>
    <clipPath id="clip-path">
      <rect id="Rectangle_6329" data-name="Rectangle 6329" width="12.03" height="12.542" fill="#8e8e8e" stroke="#8e8e8e" stroke-width="0.4"/>
    </clipPath>
  </defs>
  <g id="Group_7487" data-name="Group 7487" transform="translate(0 0)" clip-path="url(#clip-path)">
    <path id="Path_44685" data-name="Path 44685" d="M1.745,1.336c0-.075,0-.145,0-.214a1.09,1.09,0,0,1,.621-1,1.119,1.119,0,0,1,1.61.849,2.031,2.031,0,0,1,.012.306c0,.045.009.056.053.056h3.1c.277,0,.553,0,.83,0,.066,0,.08-.021.077-.082A1.262,1.262,0,0,1,8.117.721,1.13,1.13,0,0,1,9.16,0,1.1,1.1,0,0,1,10.2.708a1.28,1.28,0,0,1,.084.563c0,.056.015.062.064.064a4.012,4.012,0,0,1,.6.038A1.384,1.384,0,0,1,12.029,2.7c0,.592,0,1.184,0,1.777,0,.248,0,.5,0,.744q0,2.949,0,5.9a1.374,1.374,0,0,1-.509,1.112,1.415,1.415,0,0,1-.94.311q-3.82,0-7.64,0c-.507,0-1.015,0-1.523,0a1.376,1.376,0,0,1-1.327-.893A1.3,1.3,0,0,1,0,11.1Q0,7,0,2.893a1.779,1.779,0,0,1,.071-.612,1.4,1.4,0,0,1,1.265-.945c.133,0,.265,0,.409,0M11.4,5.06H.719a.417.417,0,0,1-.046,0c-.04,0-.054.013-.052.053,0,.089.007.178.007.268q0,2.257,0,4.513c0,.422,0,.845,0,1.267a.746.746,0,0,0,.783.759q.83,0,1.66,0h7.509a.833.833,0,0,0,.383-.066.76.76,0,0,0,.439-.739q0-2.861,0-5.722V5.06m-1.128-3.1-.007.034a1.131,1.131,0,0,1-1.486.832,1.085,1.085,0,0,1-.71-.82c-.009-.041-.03-.045-.064-.045H3.973L3.965,2a1.094,1.094,0,0,1-.4.652,1.119,1.119,0,0,1-1.792-.64c-.007-.038-.023-.049-.061-.048-.118,0-.235,0-.353,0a.706.706,0,0,0-.5.211.787.787,0,0,0-.23.59c0,.544,0,1.089,0,1.633a.2.2,0,0,0,.005.032H11.408c0-.022,0-.04,0-.057q0-.448-.006-.895c0-.285,0-.571-.011-.855A.706.706,0,0,0,10.9,2a2.5,2.5,0,0,0-.621-.042m-6.92-.528h.008c0-.1,0-.2,0-.3A.486.486,0,0,0,2.877.625a.492.492,0,0,0-.5.5q0,.323,0,.646a.49.49,0,0,0,.455.49.484.484,0,0,0,.525-.436c.011-.132,0-.265,0-.4m6.3.017h0c0-.111,0-.222,0-.333A.482.482,0,0,0,9.176.621a.493.493,0,0,0-.5.466q-.011.356,0,.712a.493.493,0,0,0,.983.008c.006-.119,0-.239,0-.359" transform="translate(0 0)" fill="#8e8e8e" stroke="#8e8e8e" stroke-width="0.4"/>
  </g>
</svg>
