<svg xmlns="http://www.w3.org/2000/svg" width="10.576" height="12.843" viewBox="0 0 10.576 12.843"><defs><style>.a{fill:#80aed1;}</style></defs><path class="a" d="M1247.468,575.868a1.308,1.308,0,0,0,1.321.974h5a1.308,1.308,0,0,0,1.321-.974l.987-8.041h-9.615Zm5.743-6.605a.481.481,0,0,1,.962,0l-.481,5.666a.481.481,0,0,1-.962,0Zm-2.4,0a.481.481,0,0,1,.961,0v5.666a.481.481,0,0,1-.961,0v-5.666Zm-1.923-.479a.48.48,0,0,1,.481.479l.481,5.666a.481.481,0,0,1-.962,0l-.481-5.666A.48.48,0,0,1,1248.884,568.784Zm6.923-2.87h-2.115v-.958c0-.726-.236-.957-.962-.957h-2.884a.839.839,0,0,0-.962.957v.958h-2.115a.72.72,0,1,0,0,1.436h9.038a.72.72,0,1,0,0-1.436Zm-3.077,0h-2.884v-.958h2.884v.958Z" transform="translate(-1246 -564)"/></svg>