<svg xmlns="http://www.w3.org/2000/svg" width="56.998" height="49.834" viewBox="0 0 56.998 49.834">
  <g id="Group_6899" data-name="Group 6899" transform="translate(0.001)">
    <g id="Group_6900" data-name="Group 6900" transform="translate(-0.001 0)">
      <path id="Path_30983" data-name="Path 30983" d="M44.434,14.293H56.982c.006.136.014.234.014.332q0,13.5,0,26.993a8.02,8.02,0,0,1-1.344,4.766,7.718,7.718,0,0,1-5.2,3.31,11.393,11.393,0,0,1-1.827.129q-20.162.011-40.322.011a7.985,7.985,0,0,1-6.5-2.993,7.775,7.775,0,0,1-1.79-5.064Q-.011,21.06,0,.342C0,.007,0,.007.478.007h35.48c2.709,0,5.417,0,8.126-.006.249,0,.336.055.336.32q-.011,6.873,0,13.746c0,.063.01.124.018.226M3.34,3.331v.324q0,19.133.006,38.265a4.442,4.442,0,0,0,2.281,3.952,5.209,5.209,0,0,0,2.863.623q12.5-.013,24.991-.01c2.884,0,5.769.009,8.655.011.112,0,.223-.021.364-.035-.055-.092-.083-.14-.112-.187a8.056,8.056,0,0,1-1.282-4.339c-.01-1.215-.01-2.43-.01-3.645q0-17.337,0-34.675c0-.228-.058-.3-.294-.3-1.252.013-2.5.007-3.757.007l-27.939,0H3.34M53.658,17.637a.721.721,0,0,0-.116-.026l-8.512.017c-.609,0-.615,0-.615.613q0,11.574,0,23.148a7.746,7.746,0,0,0,.1,1.385A4.59,4.59,0,0,0,49.9,46.441a4.377,4.377,0,0,0,3.761-4.448q0-12.018,0-24.038v-.319" transform="translate(0.001 0)" fill="#e9003c"/>
      <path id="Path_30984" data-name="Path 30984" d="M24.576,27.128h13c.622,0,.625,0,.627.613,0,.8-.009,1.6.006,2.393,0,.263-.069.346-.341.346q-7.443-.011-14.886,0H11.456c-.083,0-.167-.006-.25,0-.171.006-.245-.058-.243-.245q.011-1.42,0-2.839c0-.21.082-.259.286-.259q6.664.008,13.328,0Z" transform="translate(-2.162 -5.351)" fill="#544b7d"/>
      <path id="Path_30985" data-name="Path 30985" d="M24.567,35.778H37.813c.365,0,.371,0,.373.359.006.891,0,1.781.014,2.672,0,.254-.088.306-.323.306q-12.592-.008-25.184-.006c-.482,0-.965-.007-1.447,0-.218,0-.288-.073-.286-.291q.014-1.391,0-2.782c0-.211.073-.265.276-.264q6.665.007,13.33,0" transform="translate(-2.161 -7.056)" fill="#544b7d"/>
      <path id="Path_30986" data-name="Path 30986" d="M24.593,47.728H11.488c-.093,0-.186-.009-.279,0-.2.018-.254-.067-.253-.259.009-.937.013-1.874,0-2.81,0-.273.14-.267.334-.267q10.336,0,20.673,0c1.956,0,3.913.008,5.871,0,.282,0,.364.084.36.362-.014.908-.011,1.817,0,2.726,0,.223-.079.254-.276.254q-6.192-.006-12.383,0h-.946Z" transform="translate(-2.16 -8.755)" fill="#544b7d"/>
      <path id="Path_30988" data-name="Path 30988" d="M40.959,18.516c0,1.072,0,2.1,0,3.127,0,.164-.079.206-.226.2-.287-.012-.575-.022-.861-.022q-7.3.008-14.6.025c-.229,0-.29-.039-.285-.287.02-.945.013-1.89,0-2.835,0-.178.07-.21.207-.209.324,0,.649,0,.973,0l14.019,0h.776" transform="translate(-4.927 -3.652)" fill="#544b7d"/>
    </g>
  </g>
</svg>
