<svg xmlns="http://www.w3.org/2000/svg" width="19.126" height="19.126" viewBox="0 0 19.126 19.126">
  <g id="Group_28759" data-name="Group 28759" transform="translate(0 0)">
    <g id="Group_28760" data-name="Group 28760">
      <path id="Path_76935" data-name="Path 76935" d="M9.563,0a9.563,9.563,0,1,0,9.563,9.563A9.563,9.563,0,0,0,9.563,0m0,17.256a7.693,7.693,0,1,1,7.693-7.693,7.7,7.7,0,0,1-7.693,7.693" transform="translate(0 0.001)" fill="#fff"/>
      <path id="Path_76936" data-name="Path 76936" d="M396.571,162.159a.816.816,0,0,1-.58-.24l-3.575-3.575a1.5,1.5,0,0,1-.443-1.069v-5.128a.828.828,0,0,1,.827-.827l.055,0a.841.841,0,0,1,.773.849v4.805a.623.623,0,0,0,.184.443l3.323,3.323a.834.834,0,0,1,.054,1.137.822.822,0,0,1-.617.28Z" transform="translate(-383.384 -148.003)" fill="#fff"/>
    </g>
  </g>
</svg>
