<svg xmlns="http://www.w3.org/2000/svg" xmlns:xlink="http://www.w3.org/1999/xlink" width="96" height="96" viewBox="0 0 96 96">
  <defs>
    <clipPath id="clip-events">
      <rect width="96" height="96"/>
    </clipPath>
  </defs>
  <g id="events" clip-path="url(#clip-events)">
    <g id="election-event-on-a-calendar-with-star-symbol" transform="translate(8.796 8.173)">
      <g id="Group_5165" data-name="Group 5165" transform="translate(0)">
        <path id="Path_30951" data-name="Path 30951" d="M44.652,69.692,43.43,76.951a2.647,2.647,0,0,0,3.836,2.789l6.526-3.407,6.526,3.407a2.648,2.648,0,0,0,3.838-2.789l-1.221-7.259,5.255-5.155a2.648,2.648,0,0,0-1.466-4.512l-7.282-1.08-3.28-6.592a2.649,2.649,0,0,0-4.744,0l-3.276,6.592L40.86,60.026a2.649,2.649,0,0,0-1.466,4.512Z" transform="translate(-14.59 -18.411)" fill="#e8c8c8"/>
        <path id="Path_30952" data-name="Path 30952" d="M71.474,8.468H63.136V3.843A3.843,3.843,0,0,0,59.293,0h-.609a3.842,3.842,0,0,0-3.842,3.843V8.468H25.422V3.843A3.843,3.843,0,0,0,21.58,0h-.61a3.842,3.842,0,0,0-3.842,3.843V8.468H8.887a7.919,7.919,0,0,0-7.91,7.91V71.744a7.92,7.92,0,0,0,7.91,7.91H71.475a7.92,7.92,0,0,0,7.91-7.91V16.378A7.92,7.92,0,0,0,71.474,8.468ZM70.442,70.712H9.919v-43.1H70.442Z" transform="translate(-0.977)" fill="#e8c8c8"/>
      </g>
    </g>
  </g>
</svg>
