<svg xmlns="http://www.w3.org/2000/svg" width="25.689" height="16.453" viewBox="0 0 25.689 16.453"><defs><style>.a{fill:#ff296a;stroke:#fff;stroke-width:0.3px;}</style></defs><g transform="translate(0.173 0.15)"><g transform="translate(0 0)"><g transform="translate(0 0)"><path class="a" d="M25.183,100.419c-.226-.31-5.621-7.584-12.511-7.584S.387,100.109.161,100.418a.836.836,0,0,0,0,.986c.226.31,5.621,7.584,12.511,7.584s12.285-7.274,12.511-7.583A.835.835,0,0,0,25.183,100.419Zm-12.511,6.9c-5.075,0-9.471-4.828-10.772-6.406,1.3-1.58,5.686-6.405,10.772-6.405s9.47,4.827,10.772,6.406C22.144,102.492,17.758,107.317,12.672,107.317Z" transform="translate(0 -92.835)"/></g></g><g transform="translate(7.659 3.064)"><path class="a" d="M159.735,154.725a5.013,5.013,0,1,0,5.013,5.013A5.019,5.019,0,0,0,159.735,154.725Zm0,8.355a3.342,3.342,0,1,1,3.342-3.342A3.346,3.346,0,0,1,159.735,163.08Z" transform="translate(-154.722 -154.725)"/></g></g></svg>