<svg xmlns="http://www.w3.org/2000/svg" width="61.836" height="57.966" viewBox="0 0 61.836 57.966">
  <g id="Group_6885" data-name="Group 6885" transform="translate(0 0)">
    <g id="Group_6886" data-name="Group 6886">
      <path id="Path_30969" data-name="Path 30969" d="M14.917,42.5q-6.3,0-12.59,0A2.291,2.291,0,0,1,.64,41.994a1.861,1.861,0,0,1-.312-2.436,6.016,6.016,0,0,1,.747-.865q2.068-2.074,4.153-4.13c.175-.172.08-.266-.023-.4-.7-.916-1.453-1.8-2.1-2.76A18.554,18.554,0,0,1,.083,22.819a16.864,16.864,0,0,1,.29-5.16,20.108,20.108,0,0,1,4.846-9.3,22.347,22.347,0,0,1,4.989-4.154A26.651,26.651,0,0,1,17.731.962,29.747,29.747,0,0,1,23.86.03a29.187,29.187,0,0,1,8.52.889,26.24,26.24,0,0,1,5.969,2.315,24.967,24.967,0,0,1,4.96,3.406,21.826,21.826,0,0,1,3.346,3.756,19.682,19.682,0,0,1,3.238,7.366,17.724,17.724,0,0,1-.524,8.991A19.509,19.509,0,0,1,46.581,32.2a21.471,21.471,0,0,1-5.393,5.352A27.584,27.584,0,0,1,33.964,41.1a31.7,31.7,0,0,1-6.039,1.255,27.009,27.009,0,0,1-2.954.142c-3.352.016-6.7.006-10.055.006M6.692,38.639h.366q8.862,0,17.724,0a26.722,26.722,0,0,0,7.534-1.026,21.025,21.025,0,0,0,9.959-6.08,15.229,15.229,0,0,0,4-8.514A14.576,14.576,0,0,0,43.636,12.68a19.508,19.508,0,0,0-7.973-6.55,23.625,23.625,0,0,0-7.816-2.116,26.6,26.6,0,0,0-7.748.323,22.629,22.629,0,0,0-8.528,3.5,16.945,16.945,0,0,0-7.259,9.853,14.108,14.108,0,0,0-.1,6.723,14.411,14.411,0,0,0,2.708,5.8C7.683,31.2,8.572,32.079,9.411,33a1.9,1.9,0,0,1,.01,2.8c-.536.573-1.114,1.106-1.661,1.669-.37.381-.718.784-1.068,1.168" transform="translate(0 0)" fill="#e9003c"/>
      <path id="Path_30970" data-name="Path 30970" d="M70.6,79.354c-.377-.405-.745-.817-1.129-1.211-.505-.519-1.029-1.02-1.535-1.539a1.924,1.924,0,0,1-.028-2.913c.622-.67,1.271-1.318,1.868-2.009a14.615,14.615,0,0,0,3.217-6.2,14.4,14.4,0,0,0-1.96-11.524c-.437-.685-.955-1.319-1.44-1.973a1.889,1.889,0,0,1-.359-1.679,1.8,1.8,0,0,1,1.349-1.369,1.779,1.779,0,0,1,1.932.605A21.755,21.755,0,0,1,76.26,56a17.375,17.375,0,0,1,1.019,6.034A18.569,18.569,0,0,1,74,72.4c-.586.863-1.266,1.663-1.92,2.479-.143.18-.118.268.031.418q2.2,2.2,4.378,4.417a3.989,3.989,0,0,1,.443.533,1.854,1.854,0,0,1-1.274,2.9,6.122,6.122,0,0,1-.871.066q-11.2.005-22.4,0a28.543,28.543,0,0,1-15.754-4.581,22.13,22.13,0,0,1-6.293-6.212,1.988,1.988,0,0,1-.411-1.586,1.906,1.906,0,0,1,3.4-.794c.452.577.841,1.205,1.31,1.768a20.018,20.018,0,0,0,7.855,5.655A23.712,23.712,0,0,0,50.2,79.28c.643.039,1.287.07,1.931.07q9.088.008,18.176,0H70.6" transform="translate(-15.445 -25.253)" fill="#544b7d"/>
      <path id="Path_30971" data-name="Path 30971" d="M37.531,35.835H26.119a1.945,1.945,0,0,1-1.913-1.067,1.876,1.876,0,0,1,1.364-2.727,4.489,4.489,0,0,1,.78-.068q11.261-.005,22.521,0a1.989,1.989,0,0,1,1.929,1,1.914,1.914,0,0,1-1.737,2.868c-.855.017-1.71,0-2.566,0H37.531" transform="translate(-12.4 -16.523)" fill="#e9003c"/>
      <path id="Path_30972" data-name="Path 30972" d="M33.644,51.836q-3.774,0-7.547,0a1.914,1.914,0,0,1-1.934-1.171,1.869,1.869,0,0,1,1.4-2.624,4.083,4.083,0,0,1,.719-.066q7.456-.006,14.913,0a1.953,1.953,0,0,1,1.87.989,1.918,1.918,0,0,1-1.787,2.874c-1.781.01-3.562,0-5.343,0H33.644" transform="translate(-12.402 -24.793)" fill="#e9003c"/>
    </g>
  </g>
</svg>
