<svg id="Group_7314" data-name="Group 7314" xmlns="http://www.w3.org/2000/svg" width="12.321" height="10.665" viewBox="0 0 12.321 10.665">
  <path id="Path_39861" data-name="Path 39861" d="M95.546,340.643h0Z" transform="translate(-92.555 -329.978)" fill="#fff"/>
  <g id="Group_7313" data-name="Group 7313" transform="translate(0 0)">
    <g id="Group_7315" data-name="Group 7315">
      <path id="Path_39862" data-name="Path 39862" d="M8.378,2.164q-1.751,0-3.5,0a.066.066,0,0,0-.075.051,1.666,1.666,0,0,1-.39.623,1.7,1.7,0,0,1-.835.453,1.668,1.668,0,0,1-1.806-.84A2.718,2.718,0,0,1,1.66,2.2a.047.047,0,0,0-.052-.035c-.343,0-.687,0-1.031,0a.515.515,0,0,1-.472-.321.506.506,0,0,1,.108-.532.472.472,0,0,1,.335-.145c.35,0,.7,0,1.05,0a.057.057,0,0,0,.065-.044A1.64,1.64,0,0,1,2.735.081,1.589,1.589,0,0,1,3.714.074a1.631,1.631,0,0,1,1.093,1.06.041.041,0,0,0,.044.033l2.729,0q2.135,0,4.27,0a.506.506,0,0,1,.468.248.491.491,0,0,1-.264.721.584.584,0,0,1-.195.03q-1.741,0-3.482,0M3.229,1a.676.676,0,0,0-.666.658.669.669,0,1,0,1.338,0A.667.667,0,0,0,3.229,1" transform="translate(-0.07 0)" fill="#fff"/>
      <path id="Path_39863" data-name="Path 39863" d="M8.355,236.028H4.866c-.085,0-.085,0-.116.079a1.663,1.663,0,0,1-.834.919,1.614,1.614,0,0,1-.673.158,1.622,1.622,0,0,1-.957-.265,1.656,1.656,0,0,1-.67-.861.04.04,0,0,0-.046-.033q-.509,0-1.019,0a.51.51,0,0,1-.509-.4.5.5,0,0,1,.428-.6c.035,0,.07-.005.105-.005.332,0,.664,0,1,0,.033,0,.041-.016.05-.041a1.616,1.616,0,0,1,.858-.958,1.61,1.61,0,0,1,1.649.127,1.593,1.593,0,0,1,.632.828c.014.038.031.051.07.046a.766.766,0,0,1,.1,0h6.882a.508.508,0,0,1,.456.236.491.491,0,0,1-.246.729.572.572,0,0,1-.194.033q-1.737,0-3.474,0m-5.159.166a.665.665,0,0,0,0-1.331.665.665,0,1,0,0,1.331" transform="translate(-0.028 -226.54)" fill="#fff"/>
      <path id="Path_39864" data-name="Path 39864" d="M4.019,118.074H7.525c.04,0,.054-.013.067-.049a1.665,1.665,0,0,1,2.74-.631,1.525,1.525,0,0,1,.4.632.059.059,0,0,0,.068.048q.5,0,1,0a.5.5,0,0,1,.486.3.5.5,0,0,1-.4.688c-.084.007-.169.007-.253.008-.277,0-.554,0-.832,0a.06.06,0,0,0-.069.047,1.632,1.632,0,0,1-.643.835,1.587,1.587,0,0,1-1.137.266,1.634,1.634,0,0,1-1.358-1.1.056.056,0,0,0-.063-.044l-6.984,0a.518.518,0,0,1-.434-.2.473.473,0,0,1-.06-.514.457.457,0,0,1,.395-.283,1.27,1.27,0,0,1,.128-.007H4.019m5.138,1.167a.669.669,0,0,0,.67-.652.669.669,0,1,0-1.338-.026.667.667,0,0,0,.668.678" transform="translate(0 -113.247)" fill="#fff"/>
    </g>
  </g>
</svg>
