<svg xmlns="http://www.w3.org/2000/svg" width="31.035" height="31.035" viewBox="0 0 31.035 31.035"><defs><style>.a{fill:#23cba1;}</style></defs><g transform="translate(0 0)"><path class="a" d="M3.552,8.207H20.621a3.1,3.1,0,0,0,3.1,3.1h3.1a3.1,3.1,0,0,0,3.1-3.1h1.552a1.552,1.552,0,0,0,0-3.1H29.932a3.1,3.1,0,0,0-3.1-3.1h-3.1a3.1,3.1,0,0,0-3.1,3.1H3.552a1.552,1.552,0,1,0,0,3.1ZM23.725,5.1h3.1v3.1h-3.1Zm7.759,10.862H17.518a3.1,3.1,0,0,0-3.1-3.1h-3.1a3.1,3.1,0,0,0-3.1,3.1H3.552a1.552,1.552,0,0,0,0,3.1H8.207a3.1,3.1,0,0,0,3.1,3.1h3.1a3.1,3.1,0,0,0,3.1-3.1H31.483a1.552,1.552,0,0,0,0-3.1Zm-20.173,3.1v-3.1h3.1v3.1Zm20.173,7.759H26.828a3.1,3.1,0,0,0-3.1-3.1h-3.1a3.1,3.1,0,0,0-3.1,3.1H3.552a1.552,1.552,0,0,0,0,3.1H17.518a3.1,3.1,0,0,0,3.1,3.1h3.1a3.1,3.1,0,0,0,3.1-3.1h4.655a1.552,1.552,0,0,0,0-3.1Zm-10.862,3.1v-3.1h3.1v3.1Z" transform="translate(-2 -2)"/></g></svg>