<svg xmlns="http://www.w3.org/2000/svg" width="34.858" height="30.172" viewBox="0 0 34.858 30.172">
  <g id="Group_7314" data-name="Group 7314" transform="translate(0 0)">
    <path id="Path_39861" data-name="Path 39861" d="M95.546,340.643h0Z" transform="translate(-87.083 -310.471)" fill="#ea1e5d"/>
    <g id="Group_7313" data-name="Group 7313">
      <g id="Group_7315" data-name="Group 7315">
        <path id="Path_39862" data-name="Path 39862" d="M23.571,6.122q-4.953,0-9.906,0a.186.186,0,0,0-.212.144,4.713,4.713,0,0,1-1.1,1.762A4.808,4.808,0,0,1,9.988,9.307,4.718,4.718,0,0,1,4.878,6.93a7.689,7.689,0,0,1-.314-.715.134.134,0,0,0-.147-.1c-.972,0-1.944.007-2.915,0A1.458,1.458,0,0,1,.167,5.213a1.432,1.432,0,0,1,.3-1.5A1.336,1.336,0,0,1,1.42,3.3c.99-.007,1.98,0,2.971,0a.16.16,0,0,0,.183-.123A4.641,4.641,0,0,1,7.608.228a4.5,4.5,0,0,1,2.768-.02,4.613,4.613,0,0,1,3.091,3,.115.115,0,0,0,.126.092q3.86,0,7.719,0,6.041,0,12.081,0a1.432,1.432,0,0,1,1.325.7,1.389,1.389,0,0,1-.746,2.04,1.652,1.652,0,0,1-.551.085q-4.925.007-9.851,0M9,2.822A1.912,1.912,0,0,0,7.119,4.683a1.892,1.892,0,1,0,3.785.012A1.887,1.887,0,0,0,9,2.822" transform="translate(-0.065 0)" fill="#ea1e5d"/>
        <path id="Path_39863" data-name="Path 39863" d="M23.584,239.991H13.712c-.24,0-.239,0-.329.225a4.706,4.706,0,0,1-2.358,2.6,4.565,4.565,0,0,1-1.9.447,4.589,4.589,0,0,1-2.707-.75,4.684,4.684,0,0,1-1.9-2.436.114.114,0,0,0-.131-.093q-1.441.007-2.882.007a1.443,1.443,0,0,1-1.441-1.118,1.4,1.4,0,0,1,1.211-1.694c.1-.01.2-.015.3-.015.939,0,1.877,0,2.816.005.094,0,.117-.047.142-.117a4.57,4.57,0,0,1,2.429-2.711,4.554,4.554,0,0,1,4.666.359,4.506,4.506,0,0,1,1.788,2.342c.039.108.088.144.2.129a2.163,2.163,0,0,1,.287-.008q9.735,0,19.47,0a1.436,1.436,0,0,1,1.29.669,1.389,1.389,0,0,1-.7,2.064,1.618,1.618,0,0,1-.549.094q-4.914.008-9.829,0m-14.6.471a1.882,1.882,0,0,0-.01-3.765,1.883,1.883,0,1,0,.01,3.765" transform="translate(-0.027 -213.148)" fill="#ea1e5d"/>
        <path id="Path_39864" data-name="Path 39864" d="M11.371,120.209q4.959,0,9.918,0c.113,0,.152-.036.189-.139a4.71,4.71,0,0,1,7.751-1.784,4.315,4.315,0,0,1,1.12,1.788.167.167,0,0,0,.194.135q1.408-.007,2.816,0a1.419,1.419,0,0,1,1.376.856,1.4,1.4,0,0,1-1.122,1.946c-.238.02-.478.021-.717.022-.784,0-1.568,0-2.352,0a.169.169,0,0,0-.194.134,4.617,4.617,0,0,1-1.819,2.362,4.489,4.489,0,0,1-3.216.752,4.623,4.623,0,0,1-3.841-3.122.159.159,0,0,0-.179-.125q-9.879,0-19.758,0a1.466,1.466,0,0,1-1.228-.556,1.337,1.337,0,0,1-.171-1.453,1.293,1.293,0,0,1,1.117-.8,3.586,3.586,0,0,1,.364-.019h9.752m14.537,3.3a1.893,1.893,0,0,0,1.9-1.844,1.893,1.893,0,1,0-3.786-.074,1.888,1.888,0,0,0,1.889,1.918" transform="translate(0 -106.553)" fill="#ea1e5d"/>
      </g>
    </g>
  </g>
</svg>
