<svg id="Group_7313" data-name="Group 7313" xmlns="http://www.w3.org/2000/svg" width="21.096" height="18.227" viewBox="0 0 21.096 18.227">
  <g id="Group_7315" data-name="Group 7315">
    <path id="Path_39862" data-name="Path 39862" d="M14.293,3.705q-3,0-5.995,0a.112.112,0,0,0-.128.087A2.852,2.852,0,0,1,7.5,4.856a2.91,2.91,0,0,1-1.429.776A2.855,2.855,0,0,1,2.981,4.194a4.653,4.653,0,0,1-.19-.433A.081.081,0,0,0,2.7,3.7c-.588,0-1.176,0-1.764,0a.882.882,0,0,1-.808-.549.867.867,0,0,1,.184-.91A.809.809,0,0,1,.888,2c.6,0,1.2,0,1.8,0A.1.1,0,0,0,2.8,1.921,2.809,2.809,0,0,1,4.632.138,2.721,2.721,0,0,1,6.308.126,2.792,2.792,0,0,1,8.179,1.94.069.069,0,0,0,8.255,2l4.672,0q3.656,0,7.312,0a.867.867,0,0,1,.8.425.841.841,0,0,1-.451,1.235,1,1,0,0,1-.334.051q-2.981,0-5.962,0m-8.816-2A1.157,1.157,0,0,0,4.337,2.834a1.145,1.145,0,1,0,2.29.007,1.142,1.142,0,0,0-1.15-1.133" transform="translate(-0.068 0)" fill="#fff"/>
    <path id="Path_39863" data-name="Path 39863" d="M14.285,237.571H8.31c-.145,0-.145,0-.2.136a2.848,2.848,0,0,1-1.427,1.574,2.763,2.763,0,0,1-1.153.27,2.777,2.777,0,0,1-1.638-.454,2.835,2.835,0,0,1-1.147-1.474.069.069,0,0,0-.079-.056q-.872,0-1.744,0a.874.874,0,0,1-.872-.677.85.85,0,0,1,.733-1.025c.06-.006.12-.009.18-.009.568,0,1.136,0,1.7,0,.057,0,.071-.028.086-.071a2.766,2.766,0,0,1,1.47-1.641,2.756,2.756,0,0,1,2.824.217,2.727,2.727,0,0,1,1.082,1.417c.024.065.053.087.12.078a1.307,1.307,0,0,1,.174,0q5.891,0,11.783,0a.869.869,0,0,1,.78.4.841.841,0,0,1-.421,1.249.979.979,0,0,1-.332.057q-2.974,0-5.948,0m-8.833.285a1.139,1.139,0,0,0-.006-2.278,1.139,1.139,0,1,0,.006,2.278" transform="translate(-0.028 -221.325)" fill="#fff"/>
    <path id="Path_39864" data-name="Path 39864" d="M6.881,118.905q3,0,6,0c.068,0,.092-.022.115-.084a2.85,2.85,0,0,1,4.691-1.08,2.611,2.611,0,0,1,.678,1.082.1.1,0,0,0,.117.082q.852,0,1.7,0a.859.859,0,0,1,.833.518.847.847,0,0,1-.679,1.178c-.144.012-.289.013-.434.013-.475,0-.949,0-1.424,0a.1.1,0,0,0-.118.081,2.794,2.794,0,0,1-1.1,1.429,2.717,2.717,0,0,1-1.946.455A2.8,2.8,0,0,1,13,120.69a.1.1,0,0,0-.108-.076l-11.958,0a.887.887,0,0,1-.743-.336.809.809,0,0,1-.1-.88.782.782,0,0,1,.676-.484,2.166,2.166,0,0,1,.22-.011h5.9m8.8,2a1.145,1.145,0,0,0,1.148-1.116,1.146,1.146,0,1,0-2.291-.045,1.142,1.142,0,0,0,1.143,1.161" transform="translate(0 -110.641)" fill="#fff"/>
  </g>
</svg>
