<svg xmlns="http://www.w3.org/2000/svg" xmlns:xlink="http://www.w3.org/1999/xlink" width="65" height="65" viewBox="0 0 65 65">
  <defs>
    <clipPath id="clip-path">
      <path id="Rectangle_5141" data-name="Rectangle 5141" d="M0,0H11.893A11.893,11.893,0,0,1,23.786,11.893v9.215A11.893,11.893,0,0,1,11.893,33h0A11.893,11.893,0,0,1,0,21.107V0A0,0,0,0,1,0,0Z" fill="#c21753"/>
    </clipPath>
  </defs>
  <g id="Group_6221" data-name="Group 6221" transform="translate(-198 -5697.302)">
    <rect id="Rectangle_5142" data-name="Rectangle 5142" width="65" height="65" transform="translate(198 5697.302)" fill="#e397b2"/>
    <g id="Group_6162" data-name="Group 6162" transform="translate(218.607 5713.302)">
      <g id="Group_6151" data-name="Group 6151" transform="translate(0 0)" clip-path="url(#clip-path)">
        <path id="Path_35982" data-name="Path 35982" d="M3.5,10.535a2.232,2.232,0,0,1,.082.3c.094.941.128,1.893.287,2.823a7.149,7.149,0,0,0,2.1,4.07,2.327,2.327,0,0,0,.32.22L6.4,17.9a5.99,5.99,0,0,0-.054-.8,20.961,20.961,0,0,1-.056-8.066A12.662,12.662,0,0,1,10,2.479,15.073,15.073,0,0,1,12.925.2c.092-.056.191-.1.381-.2-.073.254-.114.414-.164.572a6.1,6.1,0,0,0,1.734,6.515,35.4,35.4,0,0,0,3.47,2.929,14.407,14.407,0,0,1,4.626,5.609,8.592,8.592,0,0,1,.8,3.293,38.888,38.888,0,0,1-.125,4.354,9.232,9.232,0,0,1-1.769,4.339,12.057,12.057,0,0,1-7.011,4.977A11.317,11.317,0,0,1,4.634,30.408,11.994,11.994,0,0,1,.523,24.537,9.119,9.119,0,0,1,0,21.448c.034-1.338.039-2.683.18-4.011A10.286,10.286,0,0,1,1.53,13.443c.5-.885,1.1-1.718,1.657-2.57a3.005,3.005,0,0,1,.316-.338m9.827,9.448L13.185,20A3.953,3.953,0,0,0,13,20.4a8.58,8.58,0,0,1-3.675,4.661A9.612,9.612,0,0,1,6.132,26.3c-.09.019-.215.069-.24.136s.056.182.121.241a8.683,8.683,0,0,0,7.218,2.52,8.4,8.4,0,0,0,4.5-1.913A8.834,8.834,0,0,0,20.957,20.6a7.636,7.636,0,0,0-.8-3.515,8.757,8.757,0,0,0-4.274-4.428c-.293-.135-.609-.221-.915-.329l-.079.12c.192.392.366.794.578,1.174a8.366,8.366,0,0,1,1.2,3.979,8.864,8.864,0,0,1-1.7,5.358,7.7,7.7,0,0,1-2.29,2.187,5.621,5.621,0,0,1,.2-.893,10.721,10.721,0,0,0,.554-3.844,2.385,2.385,0,0,0-.107-.428" transform="translate(0.001)" fill="#c21753"/>
      </g>
    </g>
  </g>
</svg>
