<svg xmlns="http://www.w3.org/2000/svg" width="15.471" height="13.134" viewBox="0 0 15.471 13.134">
  <g id="Component_1_54" data-name="Component 1 – 54" transform="translate(0.1 -0.902)">
    <path id="Path_28317" data-name="Path 28317" d="M651.455,337.465l-1.5.32c0,.423.005-.162,0,.253-.008.5-.2.733-.689.735q-3.337.015-6.674,0a.612.612,0,0,1-.69-.685c0-3.5,0-5,0-8.494,0-.5.2-.7.711-.7q3.312-.007,6.625,0c.519,0,.712.208.714.748,0,1.112,0,1.225,0,2.337v.456c.069.031.1.056.124.054.432-.032.984.077,1.26-.149.227-.186.128-.771.182-1.251a5.632,5.632,0,0,1,1.8,1.15c.336.369.285.734-.2.922a7.26,7.26,0,0,1-1.806.475c-1.372.154-2.753.226-4.212.337,0-.581.008-1.057,0-1.533-.01-.42-.149-.5-.5-.258-1.382.947-2.757,1.9-4.136,2.856-.317.219-.292.433.006.642q2.037,1.43,4.079,2.853a2.2,2.2,0,0,0,.479.172v-1.5c.975-.192,1.919-.371,2.859-.565a14.629,14.629,0,0,0,4.1-1.379,5.225,5.225,0,0,0,1.129-.814,1.34,1.34,0,0,0,.148-1.953,4.918,4.918,0,0,0-1.192-1.11,23.525,23.525,0,0,0-2.337-1.248c-.255-.124-.365-.246-.348-.531.024-.4.012.194,0-.209a2.007,2.007,0,0,0-2.051-2.051c-2.273-.013-4.546-.008-6.818,0a2.018,2.018,0,0,0-2.149,2.149c-.007,2.95,0,4.9,0,7.85,0,.613-.008.225,0,.837a2.02,2.02,0,0,0,2.072,2.086q3.457.018,6.915,0a2,2,0,0,0,2.081-1.971A6.768,6.768,0,0,0,651.455,337.465Z" transform="translate(-640.377 -326.337)" fill="#EC0085" stroke="#fff" stroke-width="0.2"/>
  </g>
</svg>
