<svg xmlns="http://www.w3.org/2000/svg" width="21.689" height="21.218" viewBox="0 0 21.689 21.218"><defs><style>.a{fill:#ff7863;stroke:#fff;stroke-width:0.4px;}</style></defs><g transform="translate(0.199 0.199)"><path class="a" d="M655.82,341.849l-2.1.445c0,.589.007,1.168,0,1.747-.011.7-.284,1.022-.961,1.025q-4.651.021-9.3,0a.853.853,0,0,1-.961-.955q0-7.314,0-14.628c0-.7.281-.971.991-.973q4.617-.01,9.235,0c.724,0,.992.29,1,1.042.007,1.55,0,3.1,0,4.651v.636c.1.044.136.078.173.076.6-.045,1.372.108,1.756-.207.317-.26.179-1.075.253-1.744a7.85,7.85,0,0,1,2.516,1.6c.468.514.4,1.022-.275,1.285a10.119,10.119,0,0,1-2.517.662c-1.912.214-3.837.314-5.871.47,0-.81.012-1.474,0-2.136-.014-.585-.208-.693-.695-.36-1.927,1.319-3.843,2.654-5.765,3.982-.442.306-.406.6.008.9q2.84,1.993,5.686,3.977a3.07,3.07,0,0,0,.667.24v-2.1c1.359-.268,2.674-.517,3.985-.788a20.389,20.389,0,0,0,5.719-1.923,7.282,7.282,0,0,0,1.574-1.135,1.868,1.868,0,0,0,.206-2.723,6.857,6.857,0,0,0-1.661-1.548,32.79,32.79,0,0,0-3.258-1.74c-.356-.173-.509-.344-.486-.74.033-.56.016-1.123.006-1.685a2.8,2.8,0,0,0-2.859-2.859c-3.168-.018-6.336-.011-9.5,0a2.814,2.814,0,0,0-3,3c-.01,4.112,0,8.224,0,12.336,0,.854-.011,1.708,0,2.561a2.815,2.815,0,0,0,2.888,2.908q4.819.025,9.639,0a2.781,2.781,0,0,0,2.9-2.747C655.858,343.576,655.82,342.749,655.82,341.849Z" transform="translate(-640.377 -326.337)"/></g></svg>