<svg xmlns="http://www.w3.org/2000/svg" width="110.604" height="24.165" viewBox="0 0 110.604 24.165">
  <g id="Group_31807" data-name="Group 31807" transform="translate(0)">
    <g id="Group_31783" data-name="Group 31783" transform="translate(0 0)">
      <path id="Path_80935" data-name="Path 80935" d="M214.882,28.44l-2.906-5.48,1.579-.838,2.912,5.493a2.221,2.221,0,0,0,1.324,1.23,2.875,2.875,0,0,0,2.991-1.586,2.221,2.221,0,0,0-.276-1.786l-2.912-5.493,1.579-.837,2.906,5.48a3.919,3.919,0,0,1,.512,2.117,3.312,3.312,0,0,1-.564,1.641c-.043.064-.088.127-.137.189a5.28,5.28,0,0,1-3.621,1.92,3.375,3.375,0,0,1-1.913-.442,3.882,3.882,0,0,1-1.474-1.609" transform="translate(-127.858 -11.547)" fill="#fff"/>
      <path id="Path_80936" data-name="Path 80936" d="M205.07,6.017a5.11,5.11,0,0,1-.609-2.232A3.313,3.313,0,0,1,205,1.878,4.085,4.085,0,0,1,206.613.5,3.689,3.689,0,0,1,209.65.205a4.379,4.379,0,0,1,2.324,2.244l2.319,4.569-1.488.756c-.387-.746-1.048-2.016-1.61-3.075-.663-1.25-1.21-2.574-2.262-2.956a2.512,2.512,0,0,0-2.027.424c.821-.2,1.948,1.221,2.437,1.992.363.574,1.638,3.012,2.266,4.222l-2.125,1.079-2.12,1.077Z" transform="translate(-123.325 0)" fill="#fff"/>
      <path id="Path_80937" data-name="Path 80937" d="M9.547,12.43v1.487H5.7v12.52H3.863V13.918H0V12.43Z" transform="translate(0 -7.498)" fill="#fff"/>
      <path id="Path_80938" data-name="Path 80938" d="M37.551,25.891h-8.86a3.474,3.474,0,0,0,3.6,3.457,3.418,3.418,0,0,0,1.992-.553,2.926,2.926,0,0,0,1.123-1.477h1.982a4.731,4.731,0,0,1-1.78,2.582,5.4,5.4,0,0,1-3.317.995,5.632,5.632,0,0,1-2.822-.7,5,5,0,0,1-1.952-2,6.17,6.17,0,0,1-.708-3,6.255,6.255,0,0,1,.688-2.994,4.812,4.812,0,0,1,1.932-1.979,5.778,5.778,0,0,1,2.862-.693,5.6,5.6,0,0,1,2.791.683,4.751,4.751,0,0,1,1.871,1.879,5.517,5.517,0,0,1,.658,2.7,10.8,10.8,0,0,1-.061,1.105m-2.306-3.286a3.021,3.021,0,0,0-1.265-1.146,3.965,3.965,0,0,0-1.769-.392,3.426,3.426,0,0,0-2.377.884A3.592,3.592,0,0,0,28.712,24.4h7a3.36,3.36,0,0,0-.465-1.8" transform="translate(-16.171 -11.775)" fill="#fff"/>
      <path id="Path_80939" data-name="Path 80939" d="M65.113,25.124l-4.349-4.863v4.863H58.924V10.253h1.841v8.742l4.268-4.883H67.6L62.383,19.6l5.239,5.527Z" transform="translate(-35.541 -6.184)" fill="#fff"/>
      <path id="Path_80940" data-name="Path 80940" d="M83.149,15.461A6.735,6.735,0,0,1,85.687,12.9a7.038,7.038,0,0,1,3.571-.925,7.282,7.282,0,0,1,4.025,1.106,6.34,6.34,0,0,1,2.508,3.135h-2.2A4.412,4.412,0,0,0,91.9,14.265a4.913,4.913,0,0,0-2.64-.683,5.166,5.166,0,0,0-2.65.683A4.794,4.794,0,0,0,84.767,16.2a6.187,6.187,0,0,0-.667,2.944,6.142,6.142,0,0,0,.667,2.924,4.79,4.79,0,0,0,1.841,1.939,5.163,5.163,0,0,0,2.65.684,4.966,4.966,0,0,0,2.64-.673,4.35,4.35,0,0,0,1.689-1.939h2.2a6.294,6.294,0,0,1-2.508,3.1,7.326,7.326,0,0,1-4.025,1.1,7.1,7.1,0,0,1-3.571-.914,6.682,6.682,0,0,1-2.538-2.542,7.279,7.279,0,0,1-.931-3.678,7.334,7.334,0,0,1,.931-3.688" transform="translate(-49.591 -7.222)" fill="#fff"/>
      <path id="Path_80941" data-name="Path 80941" d="M121.035,22.2a4.978,4.978,0,0,1,1.892-1.98,5.216,5.216,0,0,1,2.68-.7,4.947,4.947,0,0,1,2.528.623,4.167,4.167,0,0,1,1.6,1.567V19.7h1.861V30.715h-1.861v-2.05a4.324,4.324,0,0,1-1.628,1.6,4.9,4.9,0,0,1-2.519.633,5.017,5.017,0,0,1-4.551-2.753,6.291,6.291,0,0,1-.688-2.975,6.155,6.155,0,0,1,.688-2.964m8.193.814a3.565,3.565,0,0,0-1.365-1.417,3.893,3.893,0,0,0-3.773-.01A3.5,3.5,0,0,0,122.734,23a4.448,4.448,0,0,0-.506,2.17,4.551,4.551,0,0,0,.506,2.2,3.558,3.558,0,0,0,1.355,1.427,3.683,3.683,0,0,0,1.881.492,3.742,3.742,0,0,0,1.892-.492,3.546,3.546,0,0,0,1.365-1.427,4.514,4.514,0,0,0,.506-2.181,4.456,4.456,0,0,0-.506-2.17" transform="translate(-72.59 -11.775)" fill="#fff"/>
      <path id="Path_80942" data-name="Path 80942" d="M158.784,20.154a4.9,4.9,0,0,1,2.518-.633,5.219,5.219,0,0,1,2.681.7,4.973,4.973,0,0,1,1.891,1.98,6.154,6.154,0,0,1,.688,2.964,6.288,6.288,0,0,1-.688,2.974A5.044,5.044,0,0,1,161.3,30.9a4.852,4.852,0,0,1-2.5-.633,4.535,4.535,0,0,1-1.648-1.577V35.94h-1.841V19.7h1.841v2.03a4.373,4.373,0,0,1,1.628-1.578M164.175,23a3.489,3.489,0,0,0-1.365-1.407,3.8,3.8,0,0,0-1.891-.483,3.7,3.7,0,0,0-1.871.492,3.613,3.613,0,0,0-1.376,1.427,4.827,4.827,0,0,0,0,4.341,3.609,3.609,0,0,0,1.376,1.427,3.7,3.7,0,0,0,1.871.492,3.737,3.737,0,0,0,1.891-.492,3.542,3.542,0,0,0,1.365-1.427,4.555,4.555,0,0,0,.506-2.2,4.451,4.451,0,0,0-.506-2.17" transform="translate(-93.681 -11.775)" fill="#fff"/>
      <path id="Path_80943" data-name="Path 80943" d="M188.818,29.482h5.441v1.507h-7.545V29.482l5.381-8.019h-5.34V19.976h7.464v1.487Z" transform="translate(-112.62 -12.049)" fill="#fff"/>
      <rect id="Rectangle_18027" data-name="Rectangle 18027" width="1.841" height="14.872" transform="translate(96 4.069)" fill="#fff"/>
      <path id="Path_80944" data-name="Path 80944" d="M262.24,25.891h-8.86a3.474,3.474,0,0,0,3.6,3.457,3.418,3.418,0,0,0,1.992-.553,2.926,2.926,0,0,0,1.123-1.477h1.982A4.731,4.731,0,0,1,260.3,29.9a5.4,5.4,0,0,1-3.317.995,5.632,5.632,0,0,1-2.822-.7,5,5,0,0,1-1.952-2,6.17,6.17,0,0,1-.708-3,6.256,6.256,0,0,1,.688-2.994,4.812,4.812,0,0,1,1.932-1.979,5.778,5.778,0,0,1,2.862-.693,5.6,5.6,0,0,1,2.791.683,4.751,4.751,0,0,1,1.871,1.879,5.517,5.517,0,0,1,.658,2.7,10.79,10.79,0,0,1-.061,1.105m-2.306-3.286a3.021,3.021,0,0,0-1.265-1.146,3.965,3.965,0,0,0-1.769-.392,3.426,3.426,0,0,0-2.377.884A3.592,3.592,0,0,0,253.4,24.4h7a3.36,3.36,0,0,0-.465-1.8" transform="translate(-151.697 -11.775)" fill="#fff"/>
    </g>
  </g>
</svg>
