<svg xmlns="http://www.w3.org/2000/svg" width="14.098" height="14.093" viewBox="0 0 14.098 14.093">
  <g id="Group_28737" data-name="Group 28737" transform="translate(0 0)">
    <g id="Group_28587" data-name="Group 28587" transform="translate(0 0)">
      <path id="Path_76858" data-name="Path 76858" d="M13.769,7.045l-.024-.02a.91.91,0,0,1-.133-1.265l.014-.018A.91.91,0,0,0,13.157,4.3l-.023-.006a.91.91,0,0,1-.636-1.1l.005-.019a.91.91,0,0,0-1.016-1.126l-.014,0A.91.91,0,0,1,10.44,1.3l0-.011A.91.91,0,0,0,9.051.672l-.008,0A.91.91,0,0,1,7.793.411v0a.91.91,0,0,0-1.519,0l-.006.01a.91.91,0,0,1-1.25.266A.91.91,0,0,0,3.628,1.3l0,.02a.91.91,0,0,1-1.032.75H2.587A.91.91,0,0,0,1.571,3.2l.007.028a.91.91,0,0,1-.637,1.1l-.014,0A.91.91,0,0,0,.458,5.772l.02.026A.911.911,0,0,1,.346,7.062l-.017.014A.91.91,0,0,0,.487,8.583L.513,8.6a.91.91,0,0,1,.393,1.21l-.01.02a.91.91,0,0,0,.759,1.312h.019a.91.91,0,0,1,.853.947V12.1a.91.91,0,0,0,1.229.891l.01,0a.91.91,0,0,1,1.167.52l0,.006a.91.91,0,0,0,1.486.315l.007-.007a.91.91,0,0,1,1.278,0h0a.91.91,0,0,0,1.486-.315l.006-.014a.91.91,0,0,1,1.167-.52h0a.91.91,0,0,0,1.229-.891v-.025a.91.91,0,0,1,.853-.947h.01A.91.91,0,0,0,13.215,9.8L13.2,9.77a.91.91,0,0,1,.393-1.21l.017-.009a.91.91,0,0,0,.158-1.506M7.036,12.509a5.486,5.486,0,1,1,5.486-5.486,5.486,5.486,0,0,1-5.486,5.486" transform="translate(0 0)" fill="#228fe5"/>
      <path id="Path_76859" data-name="Path 76859" d="M10.638,5.595a5.039,5.039,0,1,0,4.42,2.624,5.042,5.042,0,0,0-4.42-2.624M7.491,10.243a.559.559,0,0,1,.79,0L9.639,11.6l3.355-3.355a.559.559,0,0,1,.79.791L9.638,13.182l-.79-.791h0L7.491,11.033a.559.559,0,0,1,0-.79" transform="translate(-3.589 -3.585)" fill="#228fe5"/>
    </g>
  </g>
</svg>
