<svg xmlns="http://www.w3.org/2000/svg" width="18.219" height="17.056" viewBox="0 0 18.219 17.056">
  <g id="Group_31777" data-name="Group 31777" transform="translate(0)">
    <g id="Group_28583" data-name="Group 28583" transform="translate(0 0)">
      <path id="Path_76856" data-name="Path 76856" d="M9.87.462l2.158,4.284a.846.846,0,0,0,.638.454l4.826.687a.826.826,0,0,1,.47,1.417L14.47,10.639a.82.82,0,0,0-.244.735l.824,4.709a.844.844,0,0,1-1.23.875L9.5,14.735a.862.862,0,0,0-.789,0L4.4,16.958a.844.844,0,0,1-1.23-.875l.824-4.709a.82.82,0,0,0-.244-.735L.257,7.3a.826.826,0,0,1,.47-1.417L5.553,5.2a.846.846,0,0,0,.638-.454L8.35.462a.856.856,0,0,1,1.52,0" transform="translate(0 0.001)" fill="#6ac641"/>
    </g>
  </g>
</svg>
