<svg xmlns="http://www.w3.org/2000/svg" width="18.099" height="22.075" viewBox="0 0 18.099 22.075">
  <path id="Path_51713" data-name="Path 51713" d="M365.562,136.411a8.2,8.2,0,0,0-2.039-1.681,19.042,19.042,0,0,0-1.874-.943c-1.011-.445-1.39-1.261-.875-1.994a2.2,2.2,0,0,1,2.619-.546,14.265,14.265,0,0,1,4.848,3.106.644.644,0,0,0,.272.175c-.041-.1-.078-.209-.125-.311a8.585,8.585,0,0,0-3-3.453,1.21,1.21,0,0,1-.352-1.9,2.249,2.249,0,0,1,2.873-.222,12.068,12.068,0,0,1,3.288,3.32c.038.059.084.114.17.228a2.345,2.345,0,0,0,.036-.256c0-.527-.012-1.054.005-1.58a1.738,1.738,0,0,1,3.367.036c0,3.908.006,7.816-.008,11.724a6.925,6.925,0,0,1-.529,2.859c-.764,1.709-2.438,2.717-4.525,3.37a9.823,9.823,0,0,1-10.523-2.747,4.951,4.951,0,0,1-1.292-2.419,1.752,1.752,0,0,1,.065-.819,1.581,1.581,0,0,1,1.486-.814,1.628,1.628,0,0,1,1.533.85,2.811,2.811,0,0,0,2.2,1.653c1.582.313,3.276-.531,3.594-1.765a2.173,2.173,0,0,0-1.454-2.527,4.107,4.107,0,0,0-3.8.31c-.2.14-.381.3-.574.453a1.953,1.953,0,0,1-2.051.176,1.068,1.068,0,0,1-.534-1.529c1.055-1.849,3.7-3.032,6.3-2.825C364.941,136.367,365.221,136.386,365.562,136.411Z" transform="translate(-357.28 -127.495)" fill="none" stroke="#6c6c6c" stroke-width="1.2"/>
</svg>
