<svg xmlns="http://www.w3.org/2000/svg" width="11.319" height="14.947" viewBox="0 0 11.319 14.947">
  <path id="Path_76855" data-name="Path 76855" d="M362.48,133.611a5.045,5.045,0,0,0-1.221-1.105,11.04,11.04,0,0,0-1.122-.62c-.605-.293-.832-.829-.524-1.311a1.239,1.239,0,0,1,1.568-.359,8.5,8.5,0,0,1,2.9,2.042.385.385,0,0,0,.163.115c-.025-.068-.047-.137-.075-.2a5.53,5.53,0,0,0-1.794-2.271.839.839,0,0,1-.211-1.246,1.258,1.258,0,0,1,1.72-.146,7.635,7.635,0,0,1,1.969,2.183c.023.038.05.075.1.15a1.677,1.677,0,0,0,.021-.169c0-.346-.007-.693,0-1.039a1.021,1.021,0,0,1,2.016.024q0,3.854,0,7.709a4.949,4.949,0,0,1-.317,1.88,4.123,4.123,0,0,1-2.709,2.216,5.546,5.546,0,0,1-6.3-1.806,3.367,3.367,0,0,1-.774-1.59,1.262,1.262,0,0,1,.039-.538.934.934,0,0,1,.89-.535.962.962,0,0,1,.918.559,1.716,1.716,0,0,0,1.315,1.087,1.82,1.82,0,0,0,2.152-1.16,1.455,1.455,0,0,0-.871-1.662,2.271,2.271,0,0,0-2.277.2c-.122.092-.228.2-.344.3a1.084,1.084,0,0,1-1.228.116.732.732,0,0,1-.32-1.005,3.932,3.932,0,0,1,3.775-1.857C362.108,133.582,362.276,133.595,362.48,133.611Z" transform="translate(-357.28 -127.526)" fill="none" stroke="#606060" stroke-width="1.2"/>
</svg>
