<svg xmlns="http://www.w3.org/2000/svg" xmlns:xlink="http://www.w3.org/1999/xlink" width="654.106" height="559.652" viewBox="0 0 654.106 559.652">
  <defs>
    <clipPath id="clip-path">
      <rect id="Rectangle_6509" data-name="Rectangle 6509" width="351.634" height="205.323" fill="none"/>
    </clipPath>
    <filter id="Path_39857" x="345.36" y="61.732" width="138.591" height="255.607" filterUnits="userSpaceOnUse">
      <feOffset dy="10" input="SourceAlpha"/>
      <feGaussianBlur stdDeviation="5" result="blur"/>
      <feFlood flood-opacity="0.361"/>
      <feComposite operator="in" in2="blur"/>
      <feComposite in="SourceGraphic"/>
    </filter>
    <filter id="Path_39858" x="245.857" y="61.732" width="138.591" height="255.607" filterUnits="userSpaceOnUse">
      <feOffset dy="10" input="SourceAlpha"/>
      <feGaussianBlur stdDeviation="5" result="blur-2"/>
      <feFlood flood-opacity="0.361"/>
      <feComposite operator="in" in2="blur-2"/>
      <feComposite in="SourceGraphic"/>
    </filter>
  </defs>
  <g id="Group_7305" data-name="Group 7305" transform="translate(-960 -121.992)">
    <g id="Group_7302" data-name="Group 7302" opacity="0.419">
      <path id="Polygon_74" data-name="Polygon 74" d="M121.452,0l40.484,71.4-40.484,71.4H40.484L0,71.4,40.484,0Z" transform="translate(1143.117 423.814) rotate(13)" fill="#43464b" opacity="0.217"/>
      <path id="Polygon_75" data-name="Polygon 75" d="M121.452,0l40.484,71.4-40.484,71.4H40.484L0,71.4,40.484,0Z" transform="translate(1178.448 272.071) rotate(13)" fill="#3b4758" opacity="0.217"/>
      <path id="Polygon_76" data-name="Polygon 76" d="M121.452,0l40.484,71.4-40.484,71.4H40.484L0,71.4,40.484,0Z" transform="translate(1218.03 121.992) rotate(13)" fill="#ff93b2" opacity="0.217"/>
      <path id="Polygon_77" data-name="Polygon 77" d="M121.452,0l40.484,71.4-40.484,71.4H40.484L0,71.4,40.484,0Z" transform="translate(1066.926 165.948) rotate(13)" fill="#3d4857" opacity="0.217"/>
      <path id="Polygon_74-2" data-name="Polygon 74" d="M82.5,0,110,48.5,82.5,97h-55L0,48.5,27.5,0Z" transform="translate(1411.222 349.701) rotate(13)" fill="#43464b" opacity="0.217"/>
      <path id="Polygon_77-2" data-name="Polygon 77" d="M82.5,0,110,48.5,82.5,97h-55L0,48.5,27.5,0Z" transform="translate(1442.723 237.33) rotate(13)" fill="#3d4857" opacity="0.217"/>
      <path id="Polygon_78" data-name="Polygon 78" d="M89.756,0l29.919,52.765L89.756,105.531H29.919L0,52.765,29.919,0Z" transform="translate(1328.796 258.086) rotate(13)" fill="#31455f" opacity="0.217"/>
      <path id="Polygon_79" data-name="Polygon 79" d="M82.5,0,110,48.5,82.5,97h-55L0,48.5,27.5,0Z" transform="translate(1306.723 379.33) rotate(13)" fill="#7e9ecb" opacity="0.217"/>
      <path id="Polygon_75-2" data-name="Polygon 75" d="M85.749,0l28.583,50.465L85.749,100.93H28.583L0,50.465,28.583,0Z" transform="translate(1465.713 557.582) rotate(13)" fill="#3d4857" opacity="0.217"/>
      <path id="Polygon_76-2" data-name="Polygon 76" d="M97.749,0l32.583,57.465L97.749,114.93H32.583L0,57.465,32.583,0Z" transform="translate(1487.114 426) rotate(13)" fill="#c9a2ae" opacity="0.217"/>
      <path id="Polygon_77-3" data-name="Polygon 77" d="M97.749,0l32.583,57.465L97.749,114.93H32.583L0,57.465,32.583,0Z" transform="translate(1368.369 461.768) rotate(13)" fill="#3d4857" opacity="0.217"/>
      <path id="Polygon_78-2" data-name="Polygon 78" d="M124.015,0l41.338,72.256-41.338,72.256H41.338L0,72.256,41.338,0Z" transform="translate(992.508 465.996) rotate(13)" fill="#3d4857" opacity="0.217"/>
    </g>
    <g id="Group_7259" data-name="Group 7259" transform="translate(1023.597 407)">
      <g id="Group_7258" data-name="Group 7258" clip-path="url(#clip-path)">
        <path id="Path_39437" data-name="Path 39437" d="M147.086,55.745c-1.3,2-2.821,4.15-5.137,4.713-1.97.478-4-.336-5.831-1.215a67.26,67.26,0,0,1-9.624-5.653,4.9,4.9,0,0,1-2.18-2.5,4.959,4.959,0,0,1,.681-3.284,32.4,32.4,0,0,1,6.1-9.32,14.27,14.27,0,0,1,9.949-4.457,11.184,11.184,0,0,1,8.944,4.817,11.958,11.958,0,0,1,1.61,8.909c-.5,2.943-2.91,5.544-4.51,7.994" transform="translate(75.586)" fill="#00003d"/>
        <path id="Path_39438" data-name="Path 39438" d="M119.13,28.1c0,3.638,3.224,6.588,7.2,6.588s7.2-2.95,7.2-6.588-3.225-6.588-7.2-6.588-7.2,2.95-7.2,6.588" transform="translate(98.97)" fill="#00003e"/>
        <path id="Path_39439" data-name="Path 39439" d="M168.479,65.464a16.542,16.542,0,0,0,2.872-10.288,11.381,11.381,0,0,0-5.43-8.936,13.007,13.007,0,0,0-9.309-.913,38.617,38.617,0,0,0-8.8,3.7l-13.4,6.991c-1.63.852-3.456,1.967-3.7,3.79-.243,1.806,1.2,3.367,2.613,4.521a38.361,38.361,0,0,0,22.146,8.483c2.027.1,4.759.524,6.539-.548a22.634,22.634,0,0,0,6.469-6.8" transform="translate(49.549)" fill="#392d31"/>
        <path id="Path_39440" data-name="Path 39440" d="M127.362,44.88c0,4.136,3.734,7.489,8.34,7.489s8.34-3.353,8.34-7.489-3.734-7.489-8.34-7.489-8.34,3.353-8.34,7.489" transform="translate(80.23)" fill="#00003d"/>
        <path id="Path_39441" data-name="Path 39441" d="M136.423,53.594a17.13,17.13,0,0,0-22.867-11.182,62.006,62.006,0,0,1,15.181-20.9A13.854,13.854,0,0,0,131,28.4a8.46,8.46,0,0,0,6.068,3.69,14,14,0,0,0,6.121-1.416c1.167-.465,4.984-2.787,6.162-1.8,1.026.861-1.336,4.443-1.826,5.461q-3.124,6.49-6.862,12.661-1.034,1.7-2.112,3.382c-.3.467-2.251,2.762-2.129,3.218" transform="translate(88.469)" fill="#392d31"/>
        <path id="Path_39442" data-name="Path 39442" d="M109.284,8.183c-2.856,6.522-3.165,17.527,2.429,19.977s14.974-4.584,17.829-11.107.636-13.8-4.958-16.245-12.444.852-15.3,7.375" transform="translate(113.567)" fill="#392d31"/>
        <path id="Path_39443" data-name="Path 39443" d="M109.527,86.388a2.9,2.9,0,0,1-.766,3.25,2.825,2.825,0,0,1-2.7,0c-1.767-.805-4.472-4.756-2.721-6.706,1.894-2.11,5.622,1.6,6.189,3.454" transform="translate(139.16)" fill="#4d4d4d"/>
        <path id="Path_39444" data-name="Path 39444" d="M82.409,86.9c.337,2.057.616,4.313,2.118,5.759A8.805,8.805,0,0,0,87.12,94.2l5.852,2.626c2.386,1.071,4.886,2.165,7.5,2.032s5.341-1.918,5.606-4.52a5.638,5.638,0,0,0-2.266-4.722,16.648,16.648,0,0,0-4.85-2.443c-4.264-1.591-8.535-3.185-12.92-4.417-.89-.25-5.428-1.888-5.729-.831-.072.252,1.159,1.721,1.316,2.071a11.746,11.746,0,0,1,.782,2.9" transform="translate(165.229)" fill="#8a8a8a"/>
        <path id="Path_39445" data-name="Path 39445" d="M292.349,77.749,174.566,113.7l-1.607,86.51,88.264,5.115,12.567-13.006,77.451-75.112a56.265,56.265,0,0,0-11.253-19.728c-17.231-19.429-42.573-19.763-47.639-19.728" transform="translate(-172.566)" fill="#d6d6d6"/>
        <path id="Path_39446" data-name="Path 39446" d="M240.306,160.031c30.78-20.821,54.187-46.561,78.377-72.024a54.017,54.017,0,0,1,11.032,9.471,56.232,56.232,0,0,1,11.252,19.727l-77.45,75.112L250.95,205.323l-77.99-4.52c22.694-12.21,44.6-26.49,67.346-40.772" transform="translate(-162.293)" fill="#d6d6d6"/>
        <path id="Path_39447" data-name="Path 39447" d="M273.257,160.031c-22.745,14.282-44.652,28.562-67.346,40.772l-10.275-.6-.392-86.51L315.026,77.75c4.058-.028,21.122.19,36.608,10.257-24.19,25.463-47.6,51.2-78.377,72.024" transform="translate(-195.244)" fill="#392d31"/>
        <path id="Path_39448" data-name="Path 39448" d="M173.449,77.749c-4.474,5.785,1.221,22.508,17.536,33.318s37.316,12.234,41.356,6.138-4.672-21.05-20.987-31.861-35.786-10.335-37.9-7.6" transform="translate(-53.667)" fill="#00003d"/>
        <path id="Path_39449" data-name="Path 39449" d="M206.48,107.217c8.8,6.1,18.8,6.913,22.333,1.813s-.727-14.18-9.524-20.281-18.8-6.913-22.333-1.812.727,14.18,9.524,20.28" transform="translate(-74.135)" fill="#00003d"/>
        <path id="Path_39450" data-name="Path 39450" d="M228.052,83.3c-1.874-1.693-6.225-3.49-8.563-4.447-15.271-6.248-28.181-12.539-43.452-18.787-10.427-4.266-16.357-8.578-27.62-8.8-12.337-.247-29.887,5.573-38.6,14.313a23.1,23.1,0,0,0-5.978,9.006c-1.107,3.466-.86,7.507,1.312,10.426,3.39,4.558,10.022,5.054,14.648,8.351,7.045,5.021,8.568,15.847,16.24,19.847,3.118,1.625,6.76,1.814,10.274,1.97l47.043,2.086c6.265.278,12.6.551,18.757-.633s12.219-3.983,16.153-8.867a17.567,17.567,0,0,0,3.885-12.31c-.185-2.113-1.209-4.015-1.362-6.028a8.387,8.387,0,0,0-2.738-6.124" transform="translate(16.228)" fill="#392d31"/>
        <path id="Path_39451" data-name="Path 39451" d="M61.221,67.513c-1.541-1.256-3.441-2.411-5.395-2.047-2.058.385-3.421,2.294-4.563,4.048q-7.386,11.352-14.771,22.7a22.045,22.045,0,0,0-2.644,4.938,7.41,7.41,0,0,0,.11,5.479,6.728,6.728,0,0,0,5.8,3.521,11.065,11.065,0,0,0,6.647-2.2A32.977,32.977,0,0,0,51.6,99.1l8.823-9.539c3.072-3.322,6.735-7.2,7.691-11.8.8-3.826-4.25-8.093-6.888-10.243" transform="translate(250.061)" fill="#6c5b60"/>
        <path id="Path_39452" data-name="Path 39452" d="M13.556,69.04a4.806,4.806,0,0,1-2.133,1.731c-1.327.4-2.688-.4-3.845-1.162C4.44,67.542,1.051,65.128.2,61.468a9.788,9.788,0,0,1,.931-6.375,24.984,24.984,0,0,1,3.779-5.348A118.2,118.2,0,0,1,16.362,38.189c2.775-2.437,5.761-4.8,9.3-5.87a14.787,14.787,0,0,1,9.378.373,12.856,12.856,0,0,1,4.187,2.383c1.509,1.4.766,2.232-.394,3.623q-8.073,9.676-16.134,19.366L13.556,69.04" transform="translate(311.564)" fill="#6c5b60"/>
        <path id="Path_39453" data-name="Path 39453" d="M109.617,109.291c1.847,1.507,4.291,3.082,4.132,5.461a4.081,4.081,0,0,1-2.061,3.045,11.29,11.29,0,0,1-3.6,1.233,88.068,88.068,0,0,1-27.8,1.843A58.605,58.605,0,0,1,54.1,111.816a3.971,3.971,0,0,1-1.732-1.823c-.466-1.344.544-2.747,1.65-3.641a16.961,16.961,0,0,1,8.852-3.275c3.17-.356,6.372-.207,9.559-.349,7.475-.331,14.778-2.253,22.013-4.165,3.18-.84,7.879-3.465,9.432.71,1.45,3.9,2.34,7.241,5.744,10.018" transform="translate(185.627)" fill="#a68f95"/>
        <path id="Path_39454" data-name="Path 39454" d="M43.3,103.73a8.951,8.951,0,1,0,8.951-8.951A8.951,8.951,0,0,0,43.3,103.73" transform="translate(247.134)" fill="#00003d"/>
        <path id="Path_39455" data-name="Path 39455" d="M24.253,68.339a8.495,8.495,0,1,0,8.495-8.495,8.495,8.495,0,0,0-8.495,8.495" transform="translate(286.138)" fill="#00003d"/>
        <path id="Path_39456" data-name="Path 39456" d="M54.516,74.1a5.338,5.338,0,0,0-2.1-3.564c-1.612-1.076-3.732-.834-5.649-.55q-2.98.444-5.96.884a10.535,10.535,0,0,0-3.078.782,10.055,10.055,0,0,0-3.695,3.839q-2.871,4.4-5.312,9.058a17.381,17.381,0,0,0-2.113,5.683,12.1,12.1,0,0,0,2.909,9,25.689,25.689,0,0,0,7.628,5.935c1.079.6,2.384,1.177,3.5.648a3.994,3.994,0,0,0,1.486-1.547A111.481,111.481,0,0,0,53.819,80.743a12.84,12.84,0,0,0,.7-6.643" transform="translate(270.419)" fill="#a68f95"/>
        <path id="Path_39457" data-name="Path 39457" d="M45.307,63.413a18.371,18.371,0,0,0-12.87,1.737c-1.06.574-2.172,1.276-3.353,1.108A3.33,3.33,0,0,1,26.877,64.7a8.629,8.629,0,0,1-1.035-2.648,29.95,29.95,0,0,1,1.995-19.973A27.8,27.8,0,0,1,41.928,28.513c2.4-1.005,2.357.453,2.4,2.434.064,2.632.159,5.265.238,7.9q.234,7.834.47,15.669l.267,8.9" transform="translate(281.359)" fill="#a68f95"/>
        <path id="Path_39458" data-name="Path 39458" d="M68.686,65.189a8.41,8.41,0,1,1-8.41-8.41,8.41,8.41,0,0,1,8.41,8.41" transform="translate(231.082)" fill="#00003d"/>
        <path id="Path_39459" data-name="Path 39459" d="M92.024,80.081a8.41,8.41,0,1,1-8.41-8.41,8.41,8.41,0,0,1,8.41,8.41" transform="translate(184.406)" fill="#00003d"/>
        <path id="Path_39460" data-name="Path 39460" d="M90.558,51.862a8.41,8.41,0,1,1-8.41-8.41,8.41,8.41,0,0,1,8.41,8.41" transform="translate(187.338)" fill="#00003d"/>
        <path id="Path_39461" data-name="Path 39461" d="M84.141,95.32a8.41,8.41,0,1,1-8.41-8.41,8.41,8.41,0,0,1,8.41,8.41" transform="translate(200.172)" fill="#00003d"/>
        <path id="Path_39462" data-name="Path 39462" d="M110.2,101.764c.731.16,1.6.36,1.864,1.061.32.856-.531,1.669-1.292,2.176A66.474,66.474,0,0,1,84.518,115.29c-2.376.38-5,.581-7.006-.751-2.077-1.379-2.885-3.99-3.548-6.394a20.93,20.93,0,0,1-1.05-6.131,7.078,7.078,0,0,1,2.505-5.494A9.809,9.809,0,0,1,80.2,95a72.031,72.031,0,0,1,19.017.2c2.394.344,3.079,1.786,4.714,3.29a13.638,13.638,0,0,0,6.269,3.277" transform="translate(166.588)" fill="#6c5b60"/>
        <path id="Path_39463" data-name="Path 39463" d="M67.189,93.736A6.528,6.528,0,0,1,64.3,96.088c-2.066.649-4.175-.71-5.915-2-2.245-1.663-4.6-3.459-5.635-6.053-1.441-3.6.033-7.673,1.868-11.086a13.844,13.844,0,0,1,4.356-5.346c2.671-1.714,6.081-1.671,9.237-1.341a39.88,39.88,0,0,0,7.5.382c.8-.066,1.8-.367,2.144.561.266.714-.554,2.568-.754,3.291a53.344,53.344,0,0,1-5.409,12.749,52.65,52.65,0,0,1-4.5,6.489" transform="translate(221.563)" fill="#6c5b60"/>
        <path id="Path_39464" data-name="Path 39464" d="M120.877,102.987c0,6.2-4.5,11.228-10.048,11.228s-10.048-5.027-10.048-11.228,4.5-11.227,10.048-11.227,10.048,5.026,10.048,11.227" transform="translate(129.976)" fill="#00003d"/>
        <path id="Path_39465" data-name="Path 39465" d="M74.032,58.385c.206,1.281.337,2.718-.437,3.758-.808,1.084-2.3,1.343-3.646,1.47a56.727,56.727,0,0,1-7.6.2,10.645,10.645,0,0,1-4.982-1.1,9.649,9.649,0,0,1-3.2-3.516,25.8,25.8,0,0,1-3.644-15.3A23.686,23.686,0,0,1,56.9,29.576c1.729-1.8,3.006-1.975,4.412-.026,1.513,2.1,3.063,4.131,4.408,6.346a62.975,62.975,0,0,1,6.293,13.938,61.919,61.919,0,0,1,2.014,8.551" transform="translate(227.005)" fill="#6c5b60"/>
        <path id="Path_39466" data-name="Path 39466" d="M107.9,86.814c1.232.232,2.749.5,3.144,1.69.344,1.036-.426,2.081-1.155,2.893A118.428,118.428,0,0,1,89.8,109.186c-2.18,1.528-4.915,3.04-7.363,2-2.339-1-3.206-3.869-3.365-6.407A22.852,22.852,0,0,1,96.019,81.251c1.126-.3,2.025-.679,2.944-.055.877.594,1.564,1.84,2.418,2.544a14.548,14.548,0,0,0,6.515,3.074" transform="translate(161.479)" fill="#a58f95"/>
        <path id="Path_39467" data-name="Path 39467" d="M88.515,76.757c-.173,1.351-.476,2.9-1.674,3.55-1.219.66-2.742.016-3.832-.84s-2.064-1.956-3.393-2.353c-2.123-.633-4.668.684-6.519-.533-1.425-.937-1.669-2.9-1.73-4.6a36.505,36.505,0,0,1,1-11.419,16.006,16.006,0,0,1,6.439-9.236c3.128-1.978,10.048-3.025,12.259,1,.794,1.446.155,3.391-.054,4.911-.416,3.022-.774,6.053-1.161,9.078L88.515,76.757" transform="translate(188.867)" fill="#a58f95"/>
        <path id="Path_39468" data-name="Path 39468" d="M103.072,45.473A19.328,19.328,0,0,0,88.941,49.8a6.191,6.191,0,0,1-2.2,1.425c-1.454.392-2.932-.492-4.1-1.444a18.313,18.313,0,0,1-6.916-11.731,13.277,13.277,0,0,1,1.46-7.716c.935-1.746,3.384-5.08,5.714-4.817,1.118.127,2.211,1.4,3.058,2.046,1.269.972,2.515,1.972,3.727,3.015a78.638,78.638,0,0,1,6.78,6.586q1.834,2.01,3.526,4.144c.469.591,2.472,4.1,3.083,4.164" transform="translate(172.922)" fill="#a58f95"/>
        <path id="Path_39469" data-name="Path 39469" d="M223.971,72.013c1.2,1.314,2.8,2.642,2.706,4.42a3.634,3.634,0,0,1-2.181,2.9,10.722,10.722,0,0,1-3.7.8l-9.7.916a16.168,16.168,0,0,1-4.757-.021,5.458,5.458,0,0,1-3.821-2.593c-1.043-2-.243-4.481.956-6.393a17.053,17.053,0,0,1,7.587-6.458c3.225-1.417,6.217-1.1,9.555-1.475a13.747,13.747,0,0,0,3.354,7.909" transform="translate(-77.083)" fill="#ca9ca7"/>
        <path id="Path_39470" data-name="Path 39470" d="M140.8,93.415l22.9-2.271c10.53-1.044,21.632-2,31.272,2.362,3.07,1.39,6.236,3.874,6.208,7.243-.021,2.5-1.914,4.687-4.187,5.718a15.511,15.511,0,0,1-7.349.952c-11.692-.7-22.849-5.751-34.56-6-4.182-.088-8.339.43-12.5.742-3.329.25-7.665,1.014-10.724-.672-1.84-1.014-3.989-3.328-2.222-5.31,2.184-2.448,8.178-2.472,11.162-2.768" transform="translate(21.469)" fill="#c99ca7"/>
        <path id="Path_39471" data-name="Path 39471" d="M193.991,78.78,164.849,64.837c-5.879-2.812-11.761-5.626-17.752-8.11-4.724-1.958-9.761-3.732-14.7-2.7s-9.638,5.81-9.379,11.523c.179,3.937,2.58,7.312,5.306,9.745,6.118,5.462,14.086,7.508,21.843,8.11s15.564-.083,23.312.651a64.548,64.548,0,0,1,10.858,1.979c3.718,1.011,7.36,3.125,11.1,3.846,2.534.488,5.854-.8,5.577-4.365-.284-3.672-4.5-5.536-7.019-6.74" transform="translate(27.603)" fill="#c99ca7"/>
        <path id="Path_39472" data-name="Path 39472" d="M149.816,56.426a4.115,4.115,0,0,1-2.292.126,1.981,1.981,0,0,1-1.471-1.619,2.73,2.73,0,0,1,.8-1.859c1.172-1.416,7.12-5.973,9-3.812,2.075,2.38-4.443,6.694-6.038,7.164" transform="translate(49.328)" fill="#fff"/>
        <path id="Path_39473" data-name="Path 39473" d="M143.063,31.752a2.151,2.151,0,0,1-.659.975c-1.113,1.094-2.427,2.07-3.066,3.494-.307.684-.543,1.549-1.26,1.769a2.075,2.075,0,0,1-1.549-.377,2.92,2.92,0,0,1-.739-.516c-.7-.744-.44-1.954-.017-2.884a11.413,11.413,0,0,1,3.837-4.692,2.108,2.108,0,0,1,2.252-.368,2.844,2.844,0,0,1,1.2,2.6" transform="translate(73.179)" fill="#fff"/>
        <path id="Path_39474" data-name="Path 39474" d="M123.876,3.706a4.552,4.552,0,0,1,3.507-1.893,1.3,1.3,0,0,1,.878.358,1.152,1.152,0,0,1,.149,1.157,3.531,3.531,0,0,1-.678,1.015,88.744,88.744,0,0,0-5.316,7.464c-.709,1.037-1.52.879-1.738-.356a7.335,7.335,0,0,1,.751-3.731,13.894,13.894,0,0,1,2.447-4.014" transform="translate(102.509)" fill="#fff"/>
        <path id="Path_39475" data-name="Path 39475" d="M101.282,39.037a3.215,3.215,0,0,1,.439.991.907.907,0,0,1-.368.952,1.193,1.193,0,0,1-1.092-.133,5.951,5.951,0,0,1-2.658-7.8c.3-.652,1.543-2.735,2.392-1.594.515.692-.013,2.567.042,3.38a9.995,9.995,0,0,0,1.245,4.206" transform="translate(152.85)" fill="#fff"/>
        <path id="Path_39476" data-name="Path 39476" d="M87.659,57.772a12.2,12.2,0,0,0-2.338,5.8,3.274,3.274,0,0,0,.072,1.465,3.739,3.739,0,0,0,.447.821,6.256,6.256,0,0,0,2.352,2.447q-.063-.9-.124-1.8a10.122,10.122,0,0,1,.258-3.989c.239-.694,1.287-1.881,1.087-2.6-.1-.351-1.933-1.908-1.754-2.146" transform="translate(176.921)" fill="#fff"/>
        <path id="Path_39477" data-name="Path 39477" d="M97.1,90.556a3.434,3.434,0,0,0-.682.712c-.6.913-.31,2.119,0,3.167,3.222-1.112,5.47-4.137,8.641-5.386a8.4,8.4,0,0,0,1.345-.578c.671-.412,1.408-1.687.265-1.919a8.184,8.184,0,0,0-3.212.609A17.447,17.447,0,0,0,97.1,90.556" transform="translate(148.305)" fill="#fff"/>
        <path id="Path_39478" data-name="Path 39478" d="M69.08,79.073a19.519,19.519,0,0,1,2.43-4.366A2.266,2.266,0,0,1,72.79,73.6a2.128,2.128,0,0,1,1.644.636c.55.442,1.12,1.086.923,1.763a2.055,2.055,0,0,1-.771.92,22.375,22.375,0,0,0-4.2,5.159c-.394.576-1.091.882-1.616.174-.568-.764.026-2.388.307-3.181" transform="translate(207.7)" fill="#fff"/>
        <path id="Path_39479" data-name="Path 39479" d="M68.114,40.5a4.665,4.665,0,0,0,1.1,3.667c.3.339.847.634,1.159.307a.919.919,0,0,0,.187-.455A42.443,42.443,0,0,1,73,36.256c.207-.487.918-2.036-.028-1.944-.636.061-1.553,1.245-1.991,1.66A8.135,8.135,0,0,0,68.114,40.5" transform="translate(210.11)" fill="#fff"/>
        <path id="Path_39480" data-name="Path 39480" d="M69.413,105.613l5.368-.787q-.276,1.242-.553,2.485a.9.9,0,0,1-.169.414c-.218.245-.608.182-.93.117a11.544,11.544,0,0,0-2.462-.188,8.837,8.837,0,0,1-2.3.028c-.558-.152-.969-.555-.715-1.136.285-.653,1.137-.855,1.763-.933" transform="translate(209.28)" fill="#fff"/>
        <path id="Path_39481" data-name="Path 39481" d="M45.67,91.523c-.65-.443-1.722-.4-1.973-1.149a1.572,1.572,0,0,1,.079-.935,56.552,56.552,0,0,1,3.436-8.754,1.864,1.864,0,0,1,.311-.492,1.49,1.49,0,0,1,.711-.367,2.791,2.791,0,0,1,2.043.168c-1.03,1.571-1.528,3.76-2.215,5.523q-1.176,3.011-2.392,6.006" transform="translate(257.705)" fill="#fff"/>
        <path id="Path_39482" data-name="Path 39482" d="M42.093,40.308c-.7.028-1.178.709-1.527,1.321A21.436,21.436,0,0,0,37.6,49.267a1.711,1.711,0,0,0,.129,1.135,1.691,1.691,0,0,0,.545.487,12.572,12.572,0,0,0,1.762.951,1.487,1.487,0,0,0,.378-1.13,17,17,0,0,1,2.844-8.477c.34-.506.513-.82.154-1.273a1.844,1.844,0,0,0-1.321-.652" transform="translate(270.455)" fill="#fff"/>
        <path id="Path_39483" data-name="Path 39483" d="M21,38.186a2.7,2.7,0,0,0-2.3.037,10.874,10.874,0,0,0-2.918,1.823,4.438,4.438,0,0,0-1.638,2.116,2.471,2.471,0,0,0,.665,2.385,5.608,5.608,0,0,1,2.334-2.819,12.794,12.794,0,0,1,3.426-1.441c.314-.092,1.691-.351,1.742-.737.042-.319-1.053-1.214-1.311-1.364" transform="translate(315.256)" fill="#fff"/>
        <path id="Path_39484" data-name="Path 39484" d="M256.026,132.435c-3.472,1.422-7.073,2.935-9.552,5.752s-3.442,7.348-1.144,10.313c2.9,3.736,8.662,2.941,13.218,1.684a341.174,341.174,0,0,0,80.044-33.551c4.573-2.647,18.3-13.63,9.518-19.347-5.082-3.308-18.1,4.826-22.713,6.728-23.1,9.53-46.247,18.947-69.371,28.421" transform="translate(-243.375)" fill="#c99ca7"/>
      </g>
    </g>
    <g id="Group_7304" data-name="Group 7304">
      <g id="Group_7296" data-name="Group 7296" transform="translate(1193 193.723)">
        <g id="Group_7301" data-name="Group 7301">
          <g transform="matrix(1, 0, 0, 1, -233, -71.73)" filter="url(#Path_39857)">
            <path id="Path_39857-2" data-name="Path 39857" d="M210.365,159.414a35.1,35.1,0,0,0,2.41-15.372l-.045-.637.608-.2a13.411,13.411,0,0,0,8.62-8.347,13.23,13.23,0,0,0-1.475-11.28l-.415-.657.635-.449c5.008-3.544,6.811-10.791,3.936-15.825l-.353-.619.564-.436a16.261,16.261,0,0,0,4.507-19.568,24.061,24.061,0,0,0-4.177-5.411,30.62,30.62,0,0,1-3.615-4.381c-2.024-3.2-2.313-6.889-2.592-10.459-.06-.779-.121-1.555-.2-2.32a43.157,43.157,0,0,0-17.706-30.5,38.7,38.7,0,0,0-4.849-3.006c-1.1-.574-2.312-1.075-3.481-1.559-.692-.286-1.372-.567-2.017-.858a7.232,7.232,0,0,1-2.414-1.573,6.988,6.988,0,0,1-1.208-2.379l-.132-.378a17.426,17.426,0,0,0-3.009-5.592,14.4,14.4,0,0,0-8.591-4.858l-.481-.084-.155-.463a10.348,10.348,0,0,0-9.495-6.736,8.576,8.576,0,0,0-1.79.187l-.5.107-.317-.4c-.26-.327-.529-.635-.8-.917A15.436,15.436,0,0,0,150.671,0a17.686,17.686,0,0,0-3.043.263,13.939,13.939,0,0,0-6.646,3.176,16.225,16.225,0,0,0-4.613,7.97,50.627,50.627,0,0,0-1.347,9.711l-.06.806c-.3,4.026-.581,8.107-.83,12.13-.506,8.193-.908,16.5-1.2,24.691-.572,16.259-.718,32.755-.434,49.029.286,16.343,1.013,32.891,2.161,49.186.538,7.641,1.154,15.831,2.006,23.953.609,5.815,1.627,11.9,4.919,16.978l.181.279-.065.326a14.491,14.491,0,0,0,1.288,9.244,13.918,13.918,0,0,0,12.107,7.865,11.728,11.728,0,0,0,1.272-.069,14.96,14.96,0,0,0,11.639-7.619l.285-.529.59.113a26.53,26.53,0,0,0,4.971.469,26.937,26.937,0,0,0,12.608-3.132,26.021,26.021,0,0,0,11.371-12.385,26.968,26.968,0,0,0,2.218-8.661,29.008,29.008,0,0,0,.037-3.039,15.9,15.9,0,0,1,.737-6.41,17.477,17.477,0,0,1,3.4-4.823m16.286-52.055a7.321,7.321,0,0,1-4,3.009A1.942,1.942,0,0,0,215.2,121.9a1.653,1.653,0,0,0,.462,1.624,8.8,8.8,0,0,1,2.981,5.2c.268,2.188-.774,4.575-1.711,6.5a8.436,8.436,0,0,1-6.1,4.876,2.256,2.256,0,0,0-1.958,1.451c-.272,1.133.656,2.543.194,3.619-.168.391-.6.611-.819.97a3.578,3.578,0,0,0-.51,1.534,19.787,19.787,0,0,0,.075,3.722,11.514,11.514,0,0,1-.1,4.5,30.431,30.431,0,0,1-1.646,4.238,32.162,32.162,0,0,1-4.492,6.961l-.252.294c-1.94,2.267-3.773,4.408-4.425,7.226a23.9,23.9,0,0,0-.43,5.386v.355l-.259.242a1.158,1.158,0,0,0-.19.229,6.266,6.266,0,0,1-5.336,2.831,6.824,6.824,0,0,1-2.617-.518.469.469,0,0,0-.187-.036,1.175,1.175,0,0,0-.975.781c-.219.8.563,1.189.808,1.29a7.516,7.516,0,0,0,2.884.563,8.577,8.577,0,0,0,3.4-.725l1.479-.645-.351,1.575a41.678,41.678,0,0,1-2.649,8.574l-.03.063-.039.057a22.214,22.214,0,0,1-8.926,7.581,23.382,23.382,0,0,1-12.5,1.864l-.129-.013a22.815,22.815,0,0,1-3.184-.641,1.752,1.752,0,0,0-.472-.067c-.983,0-1.311.691-1.806,1.367a11.708,11.708,0,0,1-1.406,1.219c-.543.516-1.062,1.056-1.583,1.593a22.046,22.046,0,0,1-3.335,2.988,7.325,7.325,0,0,1-6.8.875,10.771,10.771,0,0,1-5.318-4.168,11.163,11.163,0,0,1-1.82-6.958l.323-.23a1.546,1.546,0,0,0,.193-.158,1.924,1.924,0,0,0-.052-2.659,19.023,19.023,0,0,1-2.358-3.807c-2.381-4.979-2.841-10.742-3.286-16.315-.07-.887-.141-1.769-.218-2.64-.7-7.842-1.31-15.809-1.812-23.679-.436-6.854-.806-13.945-1.1-21.079l-.054-1.323,1.208.542a3.589,3.589,0,0,0,1.474.311c1.556,0,3.454-.977,5.206-2.68.126-.123.256-.255.392-.393.962-.974,2.159-2.187,3.735-2.195.882,0,2.218,1.046,1.6,2.028l-.242.381-.174,0a.872.872,0,0,0,.041.624,1.2,1.2,0,0,0,1.007.737.887.887,0,0,0,.638-.306,3.071,3.071,0,0,0,.262-3.864,3.58,3.58,0,0,0-3.14-1.623,4.932,4.932,0,0,0-1.092.125c-1.715.392-3,1.63-4.365,2.942l-.363.348a5.2,5.2,0,0,1-3.295,1.79,2.508,2.508,0,0,1-1.511-.507c-.385-.281-1.024-.032-1.44.044.015,0-.034-.847-.037-.917-.272-7.411-.458-14.827-.553-22.042q-.108-8.267-.062-16.533.047-8.457.25-16.913c.121-4.613.216-9.229.389-13.841.186-4.947.426-10.142.713-15.441l.035-.649.64-.114a.894.894,0,0,0,.5-.3,9.568,9.568,0,0,1,6.94-3.049,8.381,8.381,0,0,1,3.423.713,1.612,1.612,0,0,0,.646.147.906.906,0,0,0,.832-.472,1.192,1.192,0,0,0,.065-.91.722.722,0,0,0-.35-.446,11.778,11.778,0,0,0-4.746-1A11.21,11.21,0,0,0,138.97,36.9l-1.385.96c.108-1.863.337-3.758.337-5.624l.7-.1a.768.768,0,0,0,.521-.239,21.671,21.671,0,0,1,13.247-7.444.7.7,0,0,0,.453-.341,1.206,1.206,0,0,0,.172-.9,1.034,1.034,0,0,0-1.07-.716,1.687,1.687,0,0,0-.274.022,23.325,23.325,0,0,0-12.08,5.947l-1.52,1.419.142-2.074q.227-3.309.475-6.616l.035-.478a39.394,39.394,0,0,1,1.38-8.982,14.28,14.28,0,0,1,1.4-3.194,10.455,10.455,0,0,1,8.977-4.894,12.691,12.691,0,0,1,6.374,1.594,10.947,10.947,0,0,1,2.68,2.143l.284.314-.091.413c-.492,2.231,2.826,2.9,4.068,1.519a3.181,3.181,0,0,1,.242-.264c.351-.308,1.138-.208,1.571-.178a6.634,6.634,0,0,1,1.622.32,7.048,7.048,0,0,1,2.795,1.736q.213.214.407.447l3.827,4.586a10.806,10.806,0,0,1,4.68,1.755,10.628,10.628,0,0,1,3.73,4.238,24.184,24.184,0,0,1,.93,2.233,13.064,13.064,0,0,0,1.974,3.873c1.3,1.554,3.187,2.3,5.181,3.1.327.13.653.26.976.394A38.85,38.85,0,0,1,208.351,45.5a39.413,39.413,0,0,1,4.931,9.7,46.183,46.183,0,0,1,2.1,11.443c.347,4.065.946,8.711,3.677,12.409a39.082,39.082,0,0,0,2.848,3.3c2.44,2.627,4.2,5.04,4.753,8.693.526,3.469.046,7.182-2.3,9.929a12.2,12.2,0,0,1-3.9,3.011c-.849-.513-1.752-.934-2.6-1.45-1.188-.723-2.174-1.474-2.294-2.944a40.452,40.452,0,0,0-.331-5.4,17.453,17.453,0,0,0-5.392-9.225l-.479-.436.314-.566a10.775,10.775,0,0,0,.82-8.2,9.721,9.721,0,0,0-4.665-5.914,1.062,1.062,0,0,0-.5-.139,1.167,1.167,0,0,0-1.03.9.8.8,0,0,0,.451.973,8.371,8.371,0,0,1,4.074,5.827,7.783,7.783,0,0,1-1.536,6.519,1.182,1.182,0,0,0-.318.873,1.249,1.249,0,0,0,.552.833,14.558,14.558,0,0,1,6.009,12.966c-.085,1.583-.158,2.95.826,3.93a10.229,10.229,0,0,0,2.181,1.483c.287.162.57.323.842.487l1.471.892a5.449,5.449,0,0,1,1.54,1.535c.233.29.467.58.675.889,1.93,2.858,1.306,6.913-.563,9.642" transform="translate(233 71.73)" fill="#fff" stroke="#fff" stroke-width="10"/>
          </g>
          <g transform="matrix(1, 0, 0, 1, -233, -71.73)" filter="url(#Path_39858)">
            <path id="Path_39858-2" data-name="Path 39858" d="M59.586,169.522a17.519,17.519,0,0,1,3.4,4.823,15.9,15.9,0,0,1,.737,6.41,29.011,29.011,0,0,0,.037,3.039,26.993,26.993,0,0,0,2.217,8.661,26.025,26.025,0,0,0,11.372,12.386,26.948,26.948,0,0,0,12.608,3.131,26.519,26.519,0,0,0,4.97-.469l.591-.113.285.529a14.958,14.958,0,0,0,11.639,7.619,11.7,11.7,0,0,0,1.272.069,13.916,13.916,0,0,0,12.106-7.865A14.484,14.484,0,0,0,122.1,198.5l-.065-.326.181-.279c3.291-5.082,4.309-11.163,4.919-16.977.852-8.123,1.467-16.313,2.006-23.954,1.148-16.295,1.875-32.843,2.161-49.186.284-16.274.138-32.769-.434-49.029-.288-8.191-.691-16.5-1.2-24.691-.248-4.023-.527-8.1-.829-12.129l-.06-.807a50.7,50.7,0,0,0-1.347-9.71,16.231,16.231,0,0,0-4.613-7.971A13.951,13.951,0,0,0,116.179.263,17.774,17.774,0,0,0,113.137,0a15.431,15.431,0,0,0-11.162,4.445c-.27.281-.539.589-.8.916l-.317.4-.5-.107a8.579,8.579,0,0,0-1.791-.187A10.348,10.348,0,0,0,89.078,12.2l-.155.463-.481.085A14.389,14.389,0,0,0,79.851,17.6,17.425,17.425,0,0,0,76.842,23.2l-.132.378A7.006,7.006,0,0,1,75.5,25.954a7.25,7.25,0,0,1-2.414,1.574c-.645.29-1.325.572-2.017.858-1.169.483-2.379.984-3.481,1.558a38.7,38.7,0,0,0-4.849,3.006,43.157,43.157,0,0,0-17.706,30.5c-.079.766-.14,1.542-.2,2.32-.279,3.57-.567,7.262-2.592,10.459a30.492,30.492,0,0,1-3.614,4.381,24.071,24.071,0,0,0-4.178,5.412,16.261,16.261,0,0,0,4.508,19.567l.564.436-.354.619c-2.874,5.034-1.071,12.281,3.937,15.825l.635.449-.416.658a13.231,13.231,0,0,0-1.474,11.279,13.409,13.409,0,0,0,8.62,8.347l.607.2-.044.637a35.086,35.086,0,0,0,2.41,15.373m-10.706-51.59c.208-.308.441-.6.674-.889a5.465,5.465,0,0,1,1.541-1.535l1.471-.892c.272-.164.555-.325.842-.487a10.28,10.28,0,0,0,2.181-1.483c.983-.98.91-2.347.826-3.93a14.544,14.544,0,0,1,6.009-12.966,1.25,1.25,0,0,0,.552-.832,1.187,1.187,0,0,0-.318-.874,7.784,7.784,0,0,1-1.537-6.519,8.372,8.372,0,0,1,4.074-5.826.8.8,0,0,0,.452-.974,1.169,1.169,0,0,0-1.03-.9,1.069,1.069,0,0,0-.5.139,9.719,9.719,0,0,0-4.664,5.915,10.763,10.763,0,0,0,.82,8.2l.313.567-.478.435a17.453,17.453,0,0,0-5.392,9.225,40.457,40.457,0,0,0-.331,5.4c-.12,1.469-1.106,2.22-2.294,2.943-.848.517-1.752.937-2.6,1.45a12.19,12.19,0,0,1-3.9-3.011c-2.343-2.747-2.823-6.459-2.3-9.928.554-3.654,2.313-6.066,4.754-8.693a39.439,39.439,0,0,0,2.848-3.3c2.731-3.7,3.33-8.344,3.677-12.409a46.091,46.091,0,0,1,2.1-11.443A39.39,39.39,0,0,1,55.457,45.5,38.84,38.84,0,0,1,72.07,31.87c.322-.133.649-.263.976-.394,1.994-.794,3.877-1.544,5.181-3.1A13.081,13.081,0,0,0,80.2,24.5a24.189,24.189,0,0,1,.93-2.233,10.635,10.635,0,0,1,3.73-4.238,10.792,10.792,0,0,1,4.68-1.754l3.827-4.587c.129-.154.265-.3.406-.447A7.062,7.062,0,0,1,96.569,9.51a6.7,6.7,0,0,1,1.622-.32c.434-.03,1.221-.13,1.572.179a2.89,2.89,0,0,1,.242.264c1.242,1.379,4.56.712,4.068-1.519l-.091-.414.284-.314a10.966,10.966,0,0,1,2.679-2.143,12.7,12.7,0,0,1,6.375-1.594A10.456,10.456,0,0,1,122.3,8.544a14.3,14.3,0,0,1,1.4,3.193,39.346,39.346,0,0,1,1.379,8.983l.036.477q.25,3.307.475,6.617l.142,2.073-1.52-1.418a23.331,23.331,0,0,0-12.08-5.948,1.818,1.818,0,0,0-.274-.022,1.034,1.034,0,0,0-1.07.716,1.21,1.21,0,0,0,.171.9.709.709,0,0,0,.454.341A21.672,21.672,0,0,1,124.661,31.9a.763.763,0,0,0,.521.239l.7.1c0,1.867.229,3.761.338,5.625l-1.385-.96a11.205,11.205,0,0,0-6.422-1.973,11.775,11.775,0,0,0-4.746,1,.723.723,0,0,0-.35.447,1.185,1.185,0,0,0,.064.909.909.909,0,0,0,.833.472,1.612,1.612,0,0,0,.646-.147,8.377,8.377,0,0,1,3.423-.713,9.564,9.564,0,0,1,6.939,3.049.9.9,0,0,0,.5.3l.64.113.035.65c.287,5.3.527,10.493.713,15.44.173,4.612.268,9.228.389,13.842q.2,8.454.25,16.912.045,8.267-.062,16.533c-.1,7.215-.281,14.631-.553,22.042,0,.07-.052.915-.037.918-.416-.077-1.055-.326-1.44-.044a2.513,2.513,0,0,1-1.511.506,5.194,5.194,0,0,1-3.3-1.79l-.363-.348c-1.363-1.311-2.65-2.55-4.365-2.941a4.882,4.882,0,0,0-1.092-.126,3.58,3.58,0,0,0-3.14,1.623,3.068,3.068,0,0,0,.262,3.864.885.885,0,0,0,.637.306,1.2,1.2,0,0,0,1.008-.737.867.867,0,0,0,.04-.624l-.173,0-.242-.38c-.623-.983.714-2.033,1.6-2.028,1.576.008,2.773,1.22,3.735,2.194.135.138.266.271.392.393,1.752,1.7,3.649,2.68,5.206,2.68a3.581,3.581,0,0,0,1.473-.311l1.209-.542-.054,1.324c-.293,7.133-.662,14.225-1.1,21.078-.5,7.87-1.111,15.837-1.812,23.68-.077.87-.148,1.752-.219,2.639-.444,5.573-.9,11.336-3.285,16.316a19.031,19.031,0,0,1-2.358,3.806,1.922,1.922,0,0,0-.052,2.659,1.554,1.554,0,0,0,.193.159l.322.23a11.159,11.159,0,0,1-1.819,6.958,10.781,10.781,0,0,1-5.318,4.168,7.331,7.331,0,0,1-6.805-.876,22.033,22.033,0,0,1-3.334-2.988c-.522-.537-1.04-1.077-1.583-1.592a11.624,11.624,0,0,1-1.406-1.22c-.495-.675-.823-1.366-1.806-1.366a1.709,1.709,0,0,0-.472.067,23.109,23.109,0,0,1-3.184.641l-.13.012a23.383,23.383,0,0,1-12.5-1.864,22.21,22.21,0,0,1-8.925-7.581l-.04-.057-.029-.063a41.658,41.658,0,0,1-2.649-8.574l-.351-1.575,1.479.646a8.594,8.594,0,0,0,3.4.724,7.516,7.516,0,0,0,2.884-.563c.244-.1,1.027-.493.808-1.29a1.176,1.176,0,0,0-.975-.781.483.483,0,0,0-.187.036,6.829,6.829,0,0,1-2.618.518,6.266,6.266,0,0,1-5.335-2.831,1.186,1.186,0,0,0-.19-.229l-.259-.242v-.355a23.9,23.9,0,0,0-.43-5.386c-.652-2.818-2.485-4.959-4.425-7.226l-.252-.294a32.142,32.142,0,0,1-4.492-6.96,30.243,30.243,0,0,1-1.646-4.239,11.5,11.5,0,0,1-.1-4.5,19.788,19.788,0,0,0,.075-3.722,3.584,3.584,0,0,0-.511-1.534c-.221-.359-.65-.579-.818-.97-.462-1.076.466-2.486.193-3.619a2.255,2.255,0,0,0-1.958-1.451,8.436,8.436,0,0,1-6.095-4.876c-.937-1.925-1.979-4.312-1.711-6.5a8.8,8.8,0,0,1,2.98-5.205A1.647,1.647,0,0,0,48.6,121.9a1.941,1.941,0,0,0-1.305-1.429,7.316,7.316,0,0,1-4-3.009c-1.869-2.729-2.493-6.783-.563-9.642" transform="translate(233 71.73)" fill="#fff" stroke="#fff" stroke-width="10"/>
          </g>
          <path id="Path_39783" data-name="Path 39783" d="M210.365,159.415a35.1,35.1,0,0,0,2.41-15.372l-.045-.638.608-.2a13.407,13.407,0,0,0,8.619-8.348,13.224,13.224,0,0,0-1.474-11.279l-.415-.658.635-.449c5.008-3.544,6.81-10.791,3.936-15.825l-.353-.619.563-.436a16.259,16.259,0,0,0,4.508-19.567,24.037,24.037,0,0,0-4.178-5.411,30.68,30.68,0,0,1-3.614-4.381c-2.024-3.2-2.313-6.889-2.592-10.459-.061-.779-.121-1.555-.2-2.321a43.15,43.15,0,0,0-17.706-30.5,38.781,38.781,0,0,0-4.849-3.007c-1.1-.574-2.312-1.074-3.481-1.558-.692-.286-1.372-.568-2.017-.858a7.263,7.263,0,0,1-2.414-1.573,6.988,6.988,0,0,1-1.208-2.379l-.133-.379a17.37,17.37,0,0,0-3.009-5.591,14.38,14.38,0,0,0-8.59-4.858l-.481-.084-.155-.464a10.347,10.347,0,0,0-9.495-6.735,8.576,8.576,0,0,0-1.79.187l-.5.106-.317-.4c-.26-.327-.529-.635-.8-.916A15.436,15.436,0,0,0,150.671,0a17.785,17.785,0,0,0-3.043.262,13.94,13.94,0,0,0-6.646,3.177,16.225,16.225,0,0,0-4.613,7.97,50.617,50.617,0,0,0-1.347,9.71l-.06.807c-.3,4.026-.581,8.107-.83,12.129-.506,8.193-.908,16.5-1.2,24.691-.572,16.26-.718,32.756-.434,49.029.286,16.343,1.013,32.892,2.161,49.187.538,7.64,1.154,15.83,2.006,23.953.609,5.814,1.627,11.9,4.919,16.978l.181.279-.065.326a14.487,14.487,0,0,0,1.288,9.243,13.916,13.916,0,0,0,12.107,7.865,11.989,11.989,0,0,0,1.272-.068,14.961,14.961,0,0,0,11.639-7.62l.285-.529.59.113a26.439,26.439,0,0,0,4.971.47,26.937,26.937,0,0,0,12.608-3.132,26.021,26.021,0,0,0,11.371-12.385,26.981,26.981,0,0,0,2.218-8.661,29.3,29.3,0,0,0,.037-3.04,15.9,15.9,0,0,1,.737-6.41,17.492,17.492,0,0,1,3.4-4.823" fill="#d80032"/>
          <path id="Path_39784" data-name="Path 39784" d="M152.41,55.839a7.454,7.454,0,0,0-3.8-.978,8.83,8.83,0,0,0-3.118.57c-2.742,1.047-4.889,3.155-7.027,5.408a1.019,1.019,0,0,0-.256.465c-.006.091-.018.181-.023.272a1.194,1.194,0,0,0,1.066,1.048.864.864,0,0,0,.628-.31l.192-.2c2.09-2.206,4.952-5.226,8.463-5.226a6.275,6.275,0,0,1,1.571.2,3.532,3.532,0,0,1,2.938,3.277c0,1.343-.793,2.859-2.068,2.966a1.03,1.03,0,0,0-.186,2.05,4.624,4.624,0,0,0,4.189-3.967,5.257,5.257,0,0,0-2.566-5.575" fill="#fff"/>
          <path id="Path_39785" data-name="Path 39785" d="M210.365,159.414a35.1,35.1,0,0,0,2.41-15.372l-.045-.637.608-.2a13.411,13.411,0,0,0,8.62-8.347,13.23,13.23,0,0,0-1.475-11.28l-.415-.657.635-.449c5.008-3.544,6.811-10.791,3.936-15.825l-.353-.619.564-.436a16.261,16.261,0,0,0,4.507-19.568,24.061,24.061,0,0,0-4.177-5.411,30.62,30.62,0,0,1-3.615-4.381c-2.024-3.2-2.313-6.889-2.592-10.459-.06-.779-.121-1.555-.2-2.32a43.157,43.157,0,0,0-17.706-30.5,38.7,38.7,0,0,0-4.849-3.006c-1.1-.574-2.312-1.075-3.481-1.559-.692-.286-1.372-.567-2.017-.858a7.232,7.232,0,0,1-2.414-1.573,6.988,6.988,0,0,1-1.208-2.379l-.132-.378a17.426,17.426,0,0,0-3.009-5.592,14.4,14.4,0,0,0-8.591-4.858l-.481-.084-.155-.463a10.348,10.348,0,0,0-9.495-6.736,8.576,8.576,0,0,0-1.79.187l-.5.107-.317-.4c-.26-.327-.529-.635-.8-.917A15.436,15.436,0,0,0,150.671,0a17.686,17.686,0,0,0-3.043.263,13.939,13.939,0,0,0-6.646,3.176,16.225,16.225,0,0,0-4.613,7.97,50.627,50.627,0,0,0-1.347,9.711l-.06.806c-.3,4.026-.581,8.107-.83,12.13-.506,8.193-.908,16.5-1.2,24.691-.572,16.259-.718,32.755-.434,49.029.286,16.343,1.013,32.891,2.161,49.186.538,7.641,1.154,15.831,2.006,23.953.609,5.815,1.627,11.9,4.919,16.978l.181.279-.065.326a14.491,14.491,0,0,0,1.288,9.244,13.918,13.918,0,0,0,12.107,7.865,11.728,11.728,0,0,0,1.272-.069,14.96,14.96,0,0,0,11.639-7.619l.285-.529.59.113a26.53,26.53,0,0,0,4.971.469,26.937,26.937,0,0,0,12.608-3.132,26.021,26.021,0,0,0,11.371-12.385,26.968,26.968,0,0,0,2.218-8.661,29.008,29.008,0,0,0,.037-3.039,15.9,15.9,0,0,1,.737-6.41,17.477,17.477,0,0,1,3.4-4.823m16.286-52.055a7.321,7.321,0,0,1-4,3.009A1.942,1.942,0,0,0,215.2,121.9a1.653,1.653,0,0,0,.462,1.624,8.8,8.8,0,0,1,2.981,5.2c.268,2.188-.774,4.575-1.711,6.5a8.436,8.436,0,0,1-6.1,4.876,2.256,2.256,0,0,0-1.958,1.451c-.272,1.133.656,2.543.194,3.619-.168.391-.6.611-.819.97a3.578,3.578,0,0,0-.51,1.534,19.787,19.787,0,0,0,.075,3.722,11.514,11.514,0,0,1-.1,4.5,30.431,30.431,0,0,1-1.646,4.238,32.162,32.162,0,0,1-4.492,6.961l-.252.294c-1.94,2.267-3.773,4.408-4.425,7.226a23.9,23.9,0,0,0-.43,5.386v.355l-.259.242a1.158,1.158,0,0,0-.19.229,6.266,6.266,0,0,1-5.336,2.831,6.824,6.824,0,0,1-2.617-.518.469.469,0,0,0-.187-.036,1.175,1.175,0,0,0-.975.781c-.219.8.563,1.189.808,1.29a7.516,7.516,0,0,0,2.884.563,8.577,8.577,0,0,0,3.4-.725l1.479-.645-.351,1.575a41.678,41.678,0,0,1-2.649,8.574l-.03.063-.039.057a22.214,22.214,0,0,1-8.926,7.581,23.382,23.382,0,0,1-12.5,1.864l-.129-.013a22.815,22.815,0,0,1-3.184-.641,1.752,1.752,0,0,0-.472-.067c-.983,0-1.311.691-1.806,1.367a11.708,11.708,0,0,1-1.406,1.219c-.543.516-1.062,1.056-1.583,1.593a22.046,22.046,0,0,1-3.335,2.988,7.325,7.325,0,0,1-6.8.875,10.771,10.771,0,0,1-5.318-4.168,11.163,11.163,0,0,1-1.82-6.958l.323-.23a1.546,1.546,0,0,0,.193-.158,1.924,1.924,0,0,0-.052-2.659,19.023,19.023,0,0,1-2.358-3.807c-2.381-4.979-2.841-10.742-3.286-16.315-.07-.887-.141-1.769-.218-2.64-.7-7.842-1.31-15.809-1.812-23.679-.436-6.854-.806-13.945-1.1-21.079l-.054-1.323,1.208.542a3.589,3.589,0,0,0,1.474.311c1.556,0,3.454-.977,5.206-2.68.126-.123.256-.255.392-.393.962-.974,2.159-2.187,3.735-2.195.882,0,2.218,1.046,1.6,2.028l-.242.381-.174,0a.872.872,0,0,0,.041.624,1.2,1.2,0,0,0,1.007.737.887.887,0,0,0,.638-.306,3.071,3.071,0,0,0,.262-3.864,3.58,3.58,0,0,0-3.14-1.623,4.932,4.932,0,0,0-1.092.125c-1.715.392-3,1.63-4.365,2.942l-.363.348a5.2,5.2,0,0,1-3.295,1.79,2.508,2.508,0,0,1-1.511-.507c-.385-.281-1.024-.032-1.44.044.015,0-.034-.847-.037-.917-.272-7.411-.458-14.827-.553-22.042q-.108-8.267-.062-16.533.047-8.457.25-16.913c.121-4.613.216-9.229.389-13.841.186-4.947.426-10.142.713-15.441l.035-.649.64-.114a.894.894,0,0,0,.5-.3,9.568,9.568,0,0,1,6.94-3.049,8.381,8.381,0,0,1,3.423.713,1.612,1.612,0,0,0,.646.147.906.906,0,0,0,.832-.472,1.192,1.192,0,0,0,.065-.91.722.722,0,0,0-.35-.446,11.778,11.778,0,0,0-4.746-1A11.21,11.21,0,0,0,138.97,36.9l-1.385.96c.108-1.863.337-3.758.337-5.624l.7-.1a.768.768,0,0,0,.521-.239,21.671,21.671,0,0,1,13.247-7.444.7.7,0,0,0,.453-.341,1.206,1.206,0,0,0,.172-.9,1.034,1.034,0,0,0-1.07-.716,1.687,1.687,0,0,0-.274.022,23.325,23.325,0,0,0-12.08,5.947l-1.52,1.419.142-2.074q.227-3.309.475-6.616l.035-.478a39.394,39.394,0,0,1,1.38-8.982,14.28,14.28,0,0,1,1.4-3.194,10.455,10.455,0,0,1,8.977-4.894,12.691,12.691,0,0,1,6.374,1.594,10.947,10.947,0,0,1,2.68,2.143l.284.314-.091.413c-.492,2.231,2.826,2.9,4.068,1.519a3.181,3.181,0,0,1,.242-.264c.351-.308,1.138-.208,1.571-.178a6.634,6.634,0,0,1,1.622.32,7.048,7.048,0,0,1,2.795,1.736q.213.214.407.447l3.827,4.586a10.806,10.806,0,0,1,4.68,1.755,10.628,10.628,0,0,1,3.73,4.238,24.184,24.184,0,0,1,.93,2.233,13.064,13.064,0,0,0,1.974,3.873c1.3,1.554,3.187,2.3,5.181,3.1.327.13.653.26.976.394A38.85,38.85,0,0,1,208.351,45.5a39.413,39.413,0,0,1,4.931,9.7,46.183,46.183,0,0,1,2.1,11.443c.347,4.065.946,8.711,3.677,12.409a39.082,39.082,0,0,0,2.848,3.3c2.44,2.627,4.2,5.04,4.753,8.693.526,3.469.046,7.182-2.3,9.929a12.2,12.2,0,0,1-3.9,3.011c-.849-.513-1.752-.934-2.6-1.45-1.188-.723-2.174-1.474-2.294-2.944a40.452,40.452,0,0,0-.331-5.4,17.453,17.453,0,0,0-5.392-9.225l-.479-.436.314-.566a10.775,10.775,0,0,0,.82-8.2,9.721,9.721,0,0,0-4.665-5.914,1.062,1.062,0,0,0-.5-.139,1.167,1.167,0,0,0-1.03.9.8.8,0,0,0,.451.973,8.371,8.371,0,0,1,4.074,5.827,7.783,7.783,0,0,1-1.536,6.519,1.182,1.182,0,0,0-.318.873,1.249,1.249,0,0,0,.552.833,14.558,14.558,0,0,1,6.009,12.966c-.085,1.583-.158,2.95.826,3.93a10.229,10.229,0,0,0,2.181,1.483c.287.162.57.323.842.487l1.471.892a5.449,5.449,0,0,1,1.54,1.535c.233.29.467.58.675.889,1.93,2.858,1.306,6.913-.563,9.642" fill="#fff" stroke="#707070" stroke-width="1"/>
          <path id="Path_39786" data-name="Path 39786" d="M152.336,147.888A17.548,17.548,0,0,1,154,141.371a13.221,13.221,0,0,1,1-1.547l.9-1.2.528,1.4a6.105,6.105,0,0,0,4.586,3.946,1.71,1.71,0,0,0,.284.024,1.018,1.018,0,0,0,1.052-.72,1.181,1.181,0,0,0-.164-.884.75.75,0,0,0-.47-.355,4.234,4.234,0,0,1-3.649-3.792,1.037,1.037,0,0,0-.2-.581l-.437-.572.509-.507.115-.115c.573-.57,1.165-1.161,1.708-1.755a13.305,13.305,0,0,0,3.656-6.875,6.92,6.92,0,0,0-1.971-6.528,1.3,1.3,0,0,0-.822-.327.923.923,0,0,0-.67.284,1.146,1.146,0,0,0-.292.821.809.809,0,0,0,.246.581c2.358,2.018,1.794,5.354.48,7.8a21.074,21.074,0,0,1-4.02,4.862,32.733,32.733,0,0,0-2.481,2.632,14.241,14.241,0,0,0-2.57,4.5,24.353,24.353,0,0,0-.9,4.656c-.043.339-.086.678-.132,1.016-.314,2.309-.9,6.608-4.454,8.191a.706.706,0,0,0-.351.447,1.21,1.21,0,0,0,.064.91.914.914,0,0,0,.843.468,1.583,1.583,0,0,0,.636-.143c3.315-1.475,4.5-5.443,4.848-7.08.212-.979.334-1.983.463-3.047" fill="#fff"/>
          <path id="Path_39787" data-name="Path 39787" d="M151.848,161.633a.725.725,0,0,0-.215-.542,1.18,1.18,0,0,0-.811-.4,1.1,1.1,0,0,0-1.025,1.1,5.133,5.133,0,0,0,1.308,3.918,5.718,5.718,0,0,0,4.081,1.99h0a.875.875,0,0,0,.927-.936,1.023,1.023,0,0,0-.984-1.108,3.276,3.276,0,0,1-2.38-1.139,3.814,3.814,0,0,1-.9-2.892" fill="#fff"/>
          <path id="Path_39788" data-name="Path 39788" d="M190.48,127.421a26.644,26.644,0,0,0-13.34-7.569q-.062-.013-.12-.021l-.562-.075-.128-.553a11.469,11.469,0,0,0-2.108-4.651l-.7-.876,1.05-.4a28.6,28.6,0,0,0,6.725-3.681l.539-.4.5.449,3.605,3.253,1.317,1.188a.994.994,0,0,0,.675.283,1.252,1.252,0,0,0,1.09-.772.758.758,0,0,0-.259-.9l-4.681-4.223-.657-.593.641-.61a28.817,28.817,0,0,0,4.241-5.086.768.768,0,0,0,.085-.837,1.256,1.256,0,0,0-1.06-.6.959.959,0,0,0-.833.475,26.056,26.056,0,0,1-5.186,5.792l-.025.02-.026.019a1.341,1.341,0,0,0-.143.116l-.021.02-.022.018a26.233,26.233,0,0,1-8.8,4.7,1.112,1.112,0,0,0-.346.173l-.407.305-.455-.229c-.378-.191-.763-.372-1.148-.554-.73-.344-1.485-.7-2.211-1.126-2.7-1.582-3.745-4.568-4.667-7.2-.255-.729-.5-1.418-.765-2.071-.977-2.371-3.237-6.348-7.4-6.349a7.213,7.213,0,0,0-.742.04,7.042,7.042,0,0,0-5.244,3.352,6.593,6.593,0,0,0-.52,5.881,1.183,1.183,0,0,0,1.007.836,1.033,1.033,0,0,0,.279-.04,1.18,1.18,0,0,0,.678-.6.731.731,0,0,0,.062-.572,4.83,4.83,0,0,1,7.34-5.839,9.9,9.9,0,0,1,2.831,4.465c.208.543.407,1.089.6,1.635.442,1.214.9,2.469,1.457,3.638a10.449,10.449,0,0,0,2.835,3.749,15.542,15.542,0,0,0,3.135,1.778,22.821,22.821,0,0,1,2.57,1.346c3.272,2.078,3.619,6.433,3.9,9.933.035.448.07.882.11,1.295.83,8.613,1.241,17.627-3.527,24.836a30.845,30.845,0,0,1-3.318,3.97,20.447,20.447,0,0,0-4.068,5.412,7.421,7.421,0,0,0-.433,5.425,13.267,13.267,0,0,0,1.879,3.286c.438.623.891,1.268,1.29,1.961a5.662,5.662,0,0,1,.482,4.679,7.988,7.988,0,0,1-4.33,4.666,9.058,9.058,0,0,1-3.754.778c-2.737,0-5.871-1.071-9.313-3.183a.982.982,0,0,0-.508-.162,1.091,1.091,0,0,0-.93.837.926.926,0,0,0,.436,1.107c2.525,1.549,6.379,3.4,10.4,3.4a10.793,10.793,0,0,0,5.3-1.319,10.214,10.214,0,0,0,3.329-2.965l.717-1,.647,1.05A12.4,12.4,0,0,0,174.8,183.2l.344.159.1.364a1.069,1.069,0,0,0,.244.432,3.521,3.521,0,0,1,.63,3.873,3.8,3.8,0,0,1-3.476,2.235,1.172,1.172,0,0,0-.978.665.732.732,0,0,0,.027.8,4.8,4.8,0,0,1,.859,3.622,4.038,4.038,0,0,1-1.734,2.712,1,1,0,0,0-.42,1.194,1.038,1.038,0,0,0,.869.8.912.912,0,0,0,.5-.176,6.715,6.715,0,0,0,2.721-7.073l-.178-.688.656-.274a5.536,5.536,0,0,0,3.326-6.515l-.265-1.083,1.113.07q.358.022.719.023.311,0,.623-.017a1.057,1.057,0,0,0,1-1.161.823.823,0,0,0-.829-.887l-.077,0c-.2.011-.391.017-.586.017a10.476,10.476,0,0,1-9.483-6.146c-.079-.173-.848-1.23-.848-1.23a7.607,7.607,0,0,0-.771-5.059,15.268,15.268,0,0,0-1.234-1.828,9.369,9.369,0,0,1-2.1-4.082c-.33-2.144.933-4.07,2.07-5.509.742-.937,1.559-1.814,2.349-2.662.72-.772,1.464-1.571,2.13-2.4a22.963,22.963,0,0,0,3.45-5.938,35.4,35.4,0,0,0,2.131-13.488,86.135,86.135,0,0,0-.695-10.855l-.168-1.249,1.21.353a24.622,24.622,0,0,1,17.322,29.238.958.958,0,0,0,.168.849,1.273,1.273,0,0,0,.965.449.775.775,0,0,0,.818-.68,27.351,27.351,0,0,0,.428-9.775,26.635,26.635,0,0,0-4.664-11.725l-.711-1,1.2-.27a22.638,22.638,0,0,0,14.368-10.449.837.837,0,0,0,.05-.9,1.257,1.257,0,0,0-1.037-.6.886.886,0,0,0-.786.481,20.756,20.756,0,0,1-14.8,9.815.433.433,0,0,0-.06.014l-.474.135Z" fill="#fff"/>
          <path id="Path_39789" data-name="Path 39789" d="M186.771,86.683l-.837-.257.311-.818a14.518,14.518,0,0,0,.938-5.567,1.017,1.017,0,0,0-1.078-.983,1.042,1.042,0,0,0-.752.28.865.865,0,0,0-.214.652,12.627,12.627,0,0,1-1.366,6.144l-.065.124-.1.095a1.3,1.3,0,0,0-.357.6l-.036.132-.076.112a9.576,9.576,0,0,1-3.267,3.029,9.141,9.141,0,0,1-4.452,1.138,8.173,8.173,0,0,1-5.152-1.735,16.782,16.782,0,0,1-2.292-2.414,16.825,16.825,0,0,0-1.9-2.053,15.663,15.663,0,0,0-4.728-2.789,14.685,14.685,0,0,0-5.176-.894c-.137,0-.273,0-.41,0-.36.008-.73.03-1.1.052-.522.031-1.061.062-1.6.062a7.012,7.012,0,0,1-3.358-.715,6.708,6.708,0,0,1-3.16-7.974.772.772,0,0,0-.058-.739,1.161,1.161,0,0,0-.935-.421,1,1,0,0,0-1.007.712,8.79,8.79,0,0,0,4.084,10.161,9.672,9.672,0,0,0,4.727.97c.589,0,1.181-.021,1.776-.045q.411-.016.821-.016a13.052,13.052,0,0,1,5.823,1.215,15.632,15.632,0,0,1,5.162,4.324,11.5,11.5,0,0,0,4.861,3.7,10.258,10.258,0,0,0,3.579.632,11.374,11.374,0,0,0,9.184-4.669l.334-.453.543.149a22.025,22.025,0,0,1,15.939,25.95.98.98,0,0,0,.183.86,1.292,1.292,0,0,0,.971.453.751.751,0,0,0,.793-.673,24.3,24.3,0,0,0-3.747-19.048,24.667,24.667,0,0,0-12.795-9.291" fill="#fff"/>
          <path id="Path_39790" data-name="Path 39790" d="M180.515,64.938a.463.463,0,0,0,.183-.035,22.658,22.658,0,0,0,9.334-7.305l.6-.8.667.741c1.629,1.81,3.544,4.278,3.883,7.329a6.4,6.4,0,0,1-3.4,6.768,16.8,16.8,0,0,1-5.84,1.314c-.51.053-1.016.1-1.509.168a15.727,15.727,0,0,0-7.689,2.644,20.188,20.188,0,0,0-3.612,3.6l-.842,1.043-.545-1.224a14.261,14.261,0,0,0-5.7-6.373l-.925-.551.778-.745a23.881,23.881,0,0,0,4.107-5.2c1.487-2.548,3.815-7.493,2.7-11.979-1.006-4.03-4.744-7.07-7.907-8.571a20.691,20.691,0,0,0-8.94-1.976,29.449,29.449,0,0,0-15.64,4.964.957.957,0,0,0-.43,1.145,1.06,1.06,0,0,0,.9.82.953.953,0,0,0,.505-.168A28.268,28.268,0,0,1,154,45.836c.563-.044,1.132-.067,1.691-.067a18.5,18.5,0,0,1,8.839,2.143c1.892,1.032,6.3,3.925,6.4,8.5.091,4.269-2.238,8.313-3.635,10.344a21.058,21.058,0,0,1-4.119,4.432l-.245.2-.313-.017h0a.932.932,0,0,0-.874.681l-.09.269-.237.156c-.6.4-1.226.766-1.847,1.1a.784.784,0,0,0-.453.957,1.177,1.177,0,0,0,1.043.91,1.07,1.07,0,0,0,.5-.136,23.09,23.09,0,0,0,2.238-1.357l.373-.255.415.178a12.184,12.184,0,0,1,7.11,9.4c.022.146.088.592.775.592a1.418,1.418,0,0,0,1.111-.506l.131-.186c1.945-2.751,4.149-5.869,7.556-7.1a27.093,27.093,0,0,1,5.934-1.183c3.694-.454,7.183-.882,9.45-3.966a9.433,9.433,0,0,0,.993-8.387,19.941,19.941,0,0,0-4.622-7.1l-.4-.425.269-.514a21.963,21.963,0,0,0,2.516-9.78.878.878,0,0,0-.229-.661,1.063,1.063,0,0,0-.762-.284.988.988,0,0,0-1.052.971,20.455,20.455,0,0,1-12.112,18.128c-.315.132-1.024.522-.813,1.291a1.176,1.176,0,0,0,.975.783" fill="#fff"/>
          <path id="Path_39791" data-name="Path 39791" d="M161.407,24.6a.836.836,0,0,0,.221.027c.436,0,.963-.273,1.015-.638a3.7,3.7,0,0,1,3.9-3,4.577,4.577,0,0,1,1.554.267c2.8,1.006,4.307,4.175,5.2,6.472,2.294,5.9,3.417,12.675,3.535,21.33a.982.982,0,0,0,1.045.969,1.077,1.077,0,0,0,.767-.285.891.891,0,0,0,.231-.662,83.183,83.183,0,0,0-.883-11.424,49.764,49.764,0,0,0-2.349-9.454c-.932-2.567-2.068-5.2-4.054-7.068a7.4,7.4,0,0,0-5.1-2.152,6.985,6.985,0,0,0-1.554.178c-1.815.415-3.912,1.87-4.227,4.083-.048.338-.077,1.148.692,1.359" fill="#fff"/>
          <path id="Path_39792" data-name="Path 39792" d="M193.747,78.249a1.082,1.082,0,0,0,1.094,1.025,5.384,5.384,0,0,1,4.7,4.806c.051.363.579.635,1.018.635a.857.857,0,0,0,.218-.026c.787-.217.728-1.1.691-1.362a7.39,7.39,0,0,0-6.77-6.1l-.051,0a1.069,1.069,0,0,0-.9,1.027" fill="#fff"/>
          <path id="Path_39793" data-name="Path 39793" d="M189.061,147.808a.93.93,0,0,0-.472-.134,1.243,1.243,0,0,0-.968.566,10.921,10.921,0,0,1-8.878,4.444h-.069a.931.931,0,0,0-.953,1.005.968.968,0,0,0,.964,1.038h.08a13.1,13.1,0,0,0,10.705-5.587.759.759,0,0,0,.089-.589,1.173,1.173,0,0,0-.5-.743" fill="#fff"/>
          <path id="Path_39794" data-name="Path 39794" d="M177.495,173.858a.914.914,0,0,0,.649-.3,8.258,8.258,0,0,0,1.307-9.82.849.849,0,0,0-.761-.483,1.246,1.246,0,0,0-1.028.6.88.88,0,0,0,.032.929,6.093,6.093,0,0,1-1,7.335.853.853,0,0,0-.229,1,1.2,1.2,0,0,0,1.027.746" fill="#fff"/>
          <path id="Path_39795" data-name="Path 39795" d="M191.13,164.261a8.115,8.115,0,0,0-3.726.909.768.768,0,0,0-.455.935,1.188,1.188,0,0,0,1.06.921,1.079,1.079,0,0,0,.5-.132,5.632,5.632,0,0,1,2.582-.624,5.953,5.953,0,0,1,4.2,1.747.911.911,0,0,0,.646.3,1.2,1.2,0,0,0,1.019-.743.864.864,0,0,0-.225-1.009,7.818,7.818,0,0,0-5.6-2.307" fill="#fff"/>
          <path id="Path_39796" data-name="Path 39796" d="M160.812,190.591a1.029,1.029,0,0,0-.5.148,12.767,12.767,0,0,0-5.946,14.093.837.837,0,0,0,.87.694,1.242,1.242,0,0,0,.957-.443.908.908,0,0,0,.136-.821,10.683,10.683,0,0,1,5.032-11.769.847.847,0,0,0,.448-1.025,1.131,1.131,0,0,0-.992-.877" fill="#fff"/>
          <path id="Path_39797" data-name="Path 39797" d="M59.586,169.522a17.519,17.519,0,0,1,3.4,4.823,15.9,15.9,0,0,1,.737,6.41,29.011,29.011,0,0,0,.037,3.039,26.993,26.993,0,0,0,2.217,8.661A26.023,26.023,0,0,0,77.344,204.84a26.937,26.937,0,0,0,12.608,3.132,26.519,26.519,0,0,0,4.97-.469l.591-.113.285.529a14.96,14.96,0,0,0,11.639,7.619,11.7,11.7,0,0,0,1.272.069,13.916,13.916,0,0,0,12.106-7.865A14.484,14.484,0,0,0,122.1,198.5l-.065-.326.181-.279c3.291-5.082,4.309-11.163,4.919-16.978.852-8.122,1.467-16.312,2.006-23.953,1.148-16.295,1.875-32.843,2.161-49.186.284-16.274.138-32.769-.434-49.029-.288-8.191-.691-16.5-1.2-24.691-.248-4.023-.527-8.1-.829-12.13l-.06-.806a50.7,50.7,0,0,0-1.347-9.71,16.231,16.231,0,0,0-4.613-7.971A13.951,13.951,0,0,0,116.179.263,17.674,17.674,0,0,0,113.137,0a15.431,15.431,0,0,0-11.162,4.445c-.27.281-.539.589-.8.916l-.317.4-.5-.107a8.579,8.579,0,0,0-1.791-.187A10.348,10.348,0,0,0,89.078,12.2l-.155.463-.481.085A14.389,14.389,0,0,0,79.851,17.6,17.425,17.425,0,0,0,76.842,23.2l-.132.378A7.006,7.006,0,0,1,75.5,25.954a7.232,7.232,0,0,1-2.414,1.573c-.645.291-1.325.572-2.017.859-1.169.483-2.379.984-3.481,1.558a38.7,38.7,0,0,0-4.849,3.006,43.157,43.157,0,0,0-17.706,30.5c-.079.766-.14,1.541-.2,2.32-.279,3.57-.567,7.262-2.592,10.459a30.546,30.546,0,0,1-3.614,4.381,24.088,24.088,0,0,0-4.178,5.411,16.262,16.262,0,0,0,4.508,19.568l.564.436-.354.619c-2.874,5.034-1.071,12.281,3.937,15.825l.635.449-.416.658a13.231,13.231,0,0,0-1.474,11.279,13.409,13.409,0,0,0,8.62,8.347l.607.2-.044.637a35.088,35.088,0,0,0,2.41,15.373" fill="#414f7b"/>
          <path id="Path_39798" data-name="Path 39798" d="M111.4,55.839a7.457,7.457,0,0,1,3.8-.978,8.83,8.83,0,0,1,3.118.57c2.742,1.047,4.889,3.155,7.027,5.408a1.019,1.019,0,0,1,.256.465c.006.091.018.181.023.272a1.193,1.193,0,0,1-1.066,1.048.864.864,0,0,1-.628-.31l-.192-.2c-2.09-2.206-4.952-5.226-8.463-5.226a6.275,6.275,0,0,0-1.571.2,3.53,3.53,0,0,0-2.937,3.277c0,1.343.792,2.859,2.067,2.966a1.03,1.03,0,0,1,.186,2.05,4.624,4.624,0,0,1-4.189-3.967,5.257,5.257,0,0,1,2.566-5.575" fill="#fff"/>
          <path id="Path_39799" data-name="Path 39799" d="M59.586,169.522a17.519,17.519,0,0,1,3.4,4.823,15.9,15.9,0,0,1,.737,6.41,29.011,29.011,0,0,0,.037,3.039,26.993,26.993,0,0,0,2.217,8.661,26.025,26.025,0,0,0,11.372,12.386,26.948,26.948,0,0,0,12.608,3.131,26.519,26.519,0,0,0,4.97-.469l.591-.113.285.529a14.958,14.958,0,0,0,11.639,7.619,11.7,11.7,0,0,0,1.272.069,13.916,13.916,0,0,0,12.106-7.865A14.484,14.484,0,0,0,122.1,198.5l-.065-.326.181-.279c3.291-5.082,4.309-11.163,4.919-16.977.852-8.123,1.467-16.313,2.006-23.954,1.148-16.295,1.875-32.843,2.161-49.186.284-16.274.138-32.769-.434-49.029-.288-8.191-.691-16.5-1.2-24.691-.248-4.023-.527-8.1-.829-12.129l-.06-.807a50.7,50.7,0,0,0-1.347-9.71,16.231,16.231,0,0,0-4.613-7.971A13.951,13.951,0,0,0,116.179.263,17.774,17.774,0,0,0,113.137,0a15.431,15.431,0,0,0-11.162,4.445c-.27.281-.539.589-.8.916l-.317.4-.5-.107a8.579,8.579,0,0,0-1.791-.187A10.348,10.348,0,0,0,89.078,12.2l-.155.463-.481.085A14.389,14.389,0,0,0,79.851,17.6,17.425,17.425,0,0,0,76.842,23.2l-.132.378A7.006,7.006,0,0,1,75.5,25.954a7.25,7.25,0,0,1-2.414,1.574c-.645.29-1.325.572-2.017.858-1.169.483-2.379.984-3.481,1.558a38.7,38.7,0,0,0-4.849,3.006,43.157,43.157,0,0,0-17.706,30.5c-.079.766-.14,1.542-.2,2.32-.279,3.57-.567,7.262-2.592,10.459a30.492,30.492,0,0,1-3.614,4.381,24.071,24.071,0,0,0-4.178,5.412,16.261,16.261,0,0,0,4.508,19.567l.564.436-.354.619c-2.874,5.034-1.071,12.281,3.937,15.825l.635.449-.416.658a13.231,13.231,0,0,0-1.474,11.279,13.409,13.409,0,0,0,8.62,8.347l.607.2-.044.637a35.086,35.086,0,0,0,2.41,15.373m-10.706-51.59c.208-.308.441-.6.674-.889a5.465,5.465,0,0,1,1.541-1.535l1.471-.892c.272-.164.555-.325.842-.487a10.28,10.28,0,0,0,2.181-1.483c.983-.98.91-2.347.826-3.93a14.544,14.544,0,0,1,6.009-12.966,1.25,1.25,0,0,0,.552-.832,1.187,1.187,0,0,0-.318-.874,7.784,7.784,0,0,1-1.537-6.519,8.372,8.372,0,0,1,4.074-5.826.8.8,0,0,0,.452-.974,1.169,1.169,0,0,0-1.03-.9,1.069,1.069,0,0,0-.5.139,9.719,9.719,0,0,0-4.664,5.915,10.763,10.763,0,0,0,.82,8.2l.313.567-.478.435a17.453,17.453,0,0,0-5.392,9.225,40.457,40.457,0,0,0-.331,5.4c-.12,1.469-1.106,2.22-2.294,2.943-.848.517-1.752.937-2.6,1.45a12.19,12.19,0,0,1-3.9-3.011c-2.343-2.747-2.823-6.459-2.3-9.928.554-3.654,2.313-6.066,4.754-8.693a39.439,39.439,0,0,0,2.848-3.3c2.731-3.7,3.33-8.344,3.677-12.409a46.091,46.091,0,0,1,2.1-11.443A39.39,39.39,0,0,1,55.457,45.5,38.84,38.84,0,0,1,72.07,31.87c.322-.133.649-.263.976-.394,1.994-.794,3.877-1.544,5.181-3.1A13.081,13.081,0,0,0,80.2,24.5a24.189,24.189,0,0,1,.93-2.233,10.635,10.635,0,0,1,3.73-4.238,10.792,10.792,0,0,1,4.68-1.754l3.827-4.587c.129-.154.265-.3.406-.447A7.062,7.062,0,0,1,96.569,9.51a6.7,6.7,0,0,1,1.622-.32c.434-.03,1.221-.13,1.572.179a2.89,2.89,0,0,1,.242.264c1.242,1.379,4.56.712,4.068-1.519l-.091-.414.284-.314a10.966,10.966,0,0,1,2.679-2.143,12.7,12.7,0,0,1,6.375-1.594A10.456,10.456,0,0,1,122.3,8.544a14.3,14.3,0,0,1,1.4,3.193,39.346,39.346,0,0,1,1.379,8.983l.036.477q.25,3.307.475,6.617l.142,2.073-1.52-1.418a23.331,23.331,0,0,0-12.08-5.948,1.818,1.818,0,0,0-.274-.022,1.034,1.034,0,0,0-1.07.716,1.21,1.21,0,0,0,.171.9.709.709,0,0,0,.454.341A21.672,21.672,0,0,1,124.661,31.9a.763.763,0,0,0,.521.239l.7.1c0,1.867.229,3.761.338,5.625l-1.385-.96a11.205,11.205,0,0,0-6.422-1.973,11.775,11.775,0,0,0-4.746,1,.723.723,0,0,0-.35.447,1.185,1.185,0,0,0,.064.909.909.909,0,0,0,.833.472,1.612,1.612,0,0,0,.646-.147,8.377,8.377,0,0,1,3.423-.713,9.564,9.564,0,0,1,6.939,3.049.9.9,0,0,0,.5.3l.64.113.035.65c.287,5.3.527,10.493.713,15.44.173,4.612.268,9.228.389,13.842q.2,8.454.25,16.912.045,8.267-.062,16.533c-.1,7.215-.281,14.631-.553,22.042,0,.07-.052.915-.037.918-.416-.077-1.055-.326-1.44-.044a2.513,2.513,0,0,1-1.511.506,5.194,5.194,0,0,1-3.3-1.79l-.363-.348c-1.363-1.311-2.65-2.55-4.365-2.941a4.882,4.882,0,0,0-1.092-.126,3.58,3.58,0,0,0-3.14,1.623,3.068,3.068,0,0,0,.262,3.864.885.885,0,0,0,.637.306,1.2,1.2,0,0,0,1.008-.737.867.867,0,0,0,.04-.624l-.173,0-.242-.38c-.623-.983.714-2.033,1.6-2.028,1.576.008,2.773,1.22,3.735,2.194.135.138.266.271.392.393,1.752,1.7,3.649,2.68,5.206,2.68a3.581,3.581,0,0,0,1.473-.311l1.209-.542-.054,1.324c-.293,7.133-.662,14.225-1.1,21.078-.5,7.87-1.111,15.837-1.812,23.68-.077.87-.148,1.752-.219,2.639-.444,5.573-.9,11.336-3.285,16.316a19.031,19.031,0,0,1-2.358,3.806,1.922,1.922,0,0,0-.052,2.659,1.554,1.554,0,0,0,.193.159l.322.23a11.159,11.159,0,0,1-1.819,6.958,10.781,10.781,0,0,1-5.318,4.168,7.331,7.331,0,0,1-6.805-.876,22.033,22.033,0,0,1-3.334-2.988c-.522-.537-1.04-1.077-1.583-1.592a11.624,11.624,0,0,1-1.406-1.22c-.495-.675-.823-1.366-1.806-1.366a1.709,1.709,0,0,0-.472.067,23.109,23.109,0,0,1-3.184.641l-.13.012a23.383,23.383,0,0,1-12.5-1.864,22.21,22.21,0,0,1-8.925-7.581l-.04-.057-.029-.063a41.658,41.658,0,0,1-2.649-8.574l-.351-1.575,1.479.646a8.594,8.594,0,0,0,3.4.724,7.516,7.516,0,0,0,2.884-.563c.244-.1,1.027-.493.808-1.29a1.176,1.176,0,0,0-.975-.781.483.483,0,0,0-.187.036,6.829,6.829,0,0,1-2.618.518,6.266,6.266,0,0,1-5.335-2.831,1.186,1.186,0,0,0-.19-.229l-.259-.242v-.355a23.9,23.9,0,0,0-.43-5.386c-.652-2.818-2.485-4.959-4.425-7.226l-.252-.294a32.142,32.142,0,0,1-4.492-6.96,30.243,30.243,0,0,1-1.646-4.239,11.5,11.5,0,0,1-.1-4.5,19.788,19.788,0,0,0,.075-3.722,3.584,3.584,0,0,0-.511-1.534c-.221-.359-.65-.579-.818-.97-.462-1.076.466-2.486.193-3.619a2.255,2.255,0,0,0-1.958-1.451,8.436,8.436,0,0,1-6.095-4.876c-.937-1.925-1.979-4.312-1.711-6.5a8.8,8.8,0,0,1,2.98-5.205A1.647,1.647,0,0,0,48.6,121.9a1.941,1.941,0,0,0-1.305-1.429,7.316,7.316,0,0,1-4-3.009c-1.869-2.729-2.493-6.783-.563-9.642" fill="#fff" stroke="#707070" stroke-width="1"/>
          <path id="Path_39800" data-name="Path 39800" d="M111.472,147.888a17.548,17.548,0,0,0-1.666-6.517,13.221,13.221,0,0,0-1-1.547l-.9-1.2-.528,1.4a6.105,6.105,0,0,1-4.587,3.946,1.689,1.689,0,0,1-.283.024,1.02,1.02,0,0,1-1.053-.72,1.186,1.186,0,0,1,.165-.884.75.75,0,0,1,.47-.355,4.235,4.235,0,0,0,3.649-3.792,1.037,1.037,0,0,1,.2-.581l.437-.572-.509-.507-.115-.115c-.573-.57-1.165-1.161-1.708-1.755a13.305,13.305,0,0,1-3.656-6.875,6.917,6.917,0,0,1,1.971-6.528,1.3,1.3,0,0,1,.822-.327.919.919,0,0,1,.669.284,1.142,1.142,0,0,1,.293.821.809.809,0,0,1-.246.581c-2.358,2.018-1.794,5.354-.48,7.8a21.073,21.073,0,0,0,4.02,4.862,32.733,32.733,0,0,1,2.481,2.632,14.241,14.241,0,0,1,2.57,4.5,24.352,24.352,0,0,1,.9,4.656c.043.339.086.678.132,1.016.314,2.309.9,6.608,4.454,8.191a.706.706,0,0,1,.351.447,1.21,1.21,0,0,1-.064.91.914.914,0,0,1-.843.468,1.583,1.583,0,0,1-.636-.143c-3.315-1.475-4.495-5.443-4.848-7.08-.212-.979-.334-1.983-.463-3.047" fill="#fff"/>
          <path id="Path_39801" data-name="Path 39801" d="M111.959,161.633a.725.725,0,0,1,.215-.542,1.18,1.18,0,0,1,.811-.4,1.1,1.1,0,0,1,1.025,1.1,5.133,5.133,0,0,1-1.308,3.918,5.718,5.718,0,0,1-4.081,1.99h0a.876.876,0,0,1-.928-.936,1.025,1.025,0,0,1,.985-1.108,3.276,3.276,0,0,0,2.38-1.139,3.814,3.814,0,0,0,.9-2.892" fill="#fff"/>
          <path id="Path_39802" data-name="Path 39802" d="M73.327,127.421a26.644,26.644,0,0,1,13.34-7.569q.062-.013.12-.021l.562-.075.128-.553a11.469,11.469,0,0,1,2.108-4.651l.7-.876-1.05-.4a28.6,28.6,0,0,1-6.725-3.681l-.539-.4-.5.449-3.6,3.253-1.317,1.188a.994.994,0,0,1-.675.283,1.252,1.252,0,0,1-1.09-.772.758.758,0,0,1,.259-.9l4.681-4.223.657-.593-.641-.61a28.774,28.774,0,0,1-4.241-5.086.768.768,0,0,1-.085-.837,1.256,1.256,0,0,1,1.06-.6.959.959,0,0,1,.833.475,26.055,26.055,0,0,0,5.186,5.792l.025.02.026.019a1.341,1.341,0,0,1,.143.116l.021.02.022.018a26.233,26.233,0,0,0,8.8,4.7,1.123,1.123,0,0,1,.346.173l.407.305.455-.229c.378-.191.763-.372,1.148-.554.73-.344,1.485-.7,2.211-1.126,2.7-1.582,3.745-4.568,4.667-7.2.255-.729.5-1.418.765-2.071.977-2.371,3.237-6.348,7.4-6.349a7.213,7.213,0,0,1,.742.04,7.043,7.043,0,0,1,5.244,3.352,6.593,6.593,0,0,1,.52,5.881,1.183,1.183,0,0,1-1.007.836,1.033,1.033,0,0,1-.279-.04,1.18,1.18,0,0,1-.678-.6.731.731,0,0,1-.062-.572,4.83,4.83,0,0,0-7.34-5.839,9.9,9.9,0,0,0-2.831,4.465c-.208.543-.407,1.089-.605,1.635-.442,1.214-.9,2.469-1.457,3.638a10.449,10.449,0,0,1-2.835,3.749,15.542,15.542,0,0,1-3.135,1.778,22.821,22.821,0,0,0-2.57,1.346c-3.272,2.078-3.619,6.433-3.9,9.933-.036.448-.07.882-.11,1.295-.83,8.613-1.241,17.627,3.527,24.836a30.844,30.844,0,0,0,3.318,3.97,20.49,20.49,0,0,1,4.068,5.412,7.421,7.421,0,0,1,.433,5.425,13.267,13.267,0,0,1-1.879,3.286c-.438.623-.891,1.268-1.29,1.961a5.662,5.662,0,0,0-.482,4.679,7.988,7.988,0,0,0,4.33,4.666,9.058,9.058,0,0,0,3.754.778c2.737,0,5.871-1.071,9.313-3.183a.982.982,0,0,1,.508-.162,1.091,1.091,0,0,1,.93.837.926.926,0,0,1-.436,1.107c-2.525,1.549-6.379,3.4-10.4,3.4a10.793,10.793,0,0,1-5.3-1.319,10.2,10.2,0,0,1-3.329-2.965l-.717-1-.647,1.05a12.4,12.4,0,0,1-5.332,4.672l-.344.159-.1.364a1.06,1.06,0,0,1-.245.432,3.522,3.522,0,0,0-.629,3.873,3.8,3.8,0,0,0,3.476,2.235,1.172,1.172,0,0,1,.978.665.732.732,0,0,1-.027.8,4.8,4.8,0,0,0-.859,3.622,4.038,4.038,0,0,0,1.734,2.712,1,1,0,0,1,.42,1.194,1.038,1.038,0,0,1-.869.8.912.912,0,0,1-.5-.176,6.715,6.715,0,0,1-2.721-7.073l.178-.688-.656-.274a5.536,5.536,0,0,1-3.326-6.515l.265-1.083-1.113.07q-.358.022-.719.023-.311,0-.623-.017a1.058,1.058,0,0,1-1-1.161.824.824,0,0,1,.83-.887l.077,0q.294.017.586.017a10.476,10.476,0,0,0,9.483-6.146c.079-.173.848-1.23.848-1.23a7.607,7.607,0,0,1,.771-5.059,15.267,15.267,0,0,1,1.234-1.828,9.369,9.369,0,0,0,2.1-4.082c.33-2.144-.933-4.07-2.07-5.509-.742-.937-1.559-1.814-2.349-2.662-.72-.772-1.465-1.571-2.13-2.4a22.963,22.963,0,0,1-3.45-5.938,35.4,35.4,0,0,1-2.131-13.488,86.132,86.132,0,0,1,.695-10.855l.168-1.249-1.21.353a24.622,24.622,0,0,0-17.322,29.238.958.958,0,0,1-.168.849,1.273,1.273,0,0,1-.965.449.774.774,0,0,1-.818-.68,27.351,27.351,0,0,1-.428-9.775,26.635,26.635,0,0,1,4.664-11.725l.711-1-1.2-.27a22.642,22.642,0,0,1-14.369-10.449.839.839,0,0,1-.049-.9,1.257,1.257,0,0,1,1.037-.6.883.883,0,0,1,.785.481,20.758,20.758,0,0,0,14.8,9.815.434.434,0,0,1,.06.014l.474.135Z" fill="#fff"/>
          <path id="Path_39803" data-name="Path 39803" d="M77.036,86.683l.837-.257-.312-.818a14.537,14.537,0,0,1-.937-5.567,1.017,1.017,0,0,1,1.078-.983,1.042,1.042,0,0,1,.752.28.865.865,0,0,1,.214.652,12.615,12.615,0,0,0,1.366,6.144l.065.124.1.095a1.308,1.308,0,0,1,.357.6l.036.132.076.112a9.576,9.576,0,0,0,3.267,3.029,9.141,9.141,0,0,0,4.452,1.138,8.173,8.173,0,0,0,5.152-1.735,16.838,16.838,0,0,0,2.292-2.414,16.826,16.826,0,0,1,1.9-2.053,15.663,15.663,0,0,1,4.728-2.789,14.685,14.685,0,0,1,5.176-.894c.137,0,.273,0,.41,0,.36.008.73.03,1.1.052.522.031,1.061.062,1.6.062a7.012,7.012,0,0,0,3.358-.715,6.708,6.708,0,0,0,3.16-7.974.769.769,0,0,1,.058-.739,1.161,1.161,0,0,1,.935-.421,1,1,0,0,1,1.007.712,8.79,8.79,0,0,1-4.084,10.161,9.672,9.672,0,0,1-4.727.97c-.589,0-1.181-.021-1.776-.045q-.411-.016-.821-.016a13.052,13.052,0,0,0-5.823,1.215,15.632,15.632,0,0,0-5.162,4.324,11.5,11.5,0,0,1-4.861,3.7,10.258,10.258,0,0,1-3.579.632,11.367,11.367,0,0,1-9.184-4.669l-.334-.453-.543.149a22.025,22.025,0,0,0-15.939,25.95.98.98,0,0,1-.183.86,1.292,1.292,0,0,1-.971.453.751.751,0,0,1-.793-.673,24.3,24.3,0,0,1,3.747-19.048,24.667,24.667,0,0,1,12.8-9.291" fill="#fff"/>
          <path id="Path_39804" data-name="Path 39804" d="M83.293,64.938a.463.463,0,0,1-.183-.035A22.658,22.658,0,0,1,73.776,57.6l-.6-.8-.667.741c-1.629,1.81-3.544,4.278-3.883,7.329a6.4,6.4,0,0,0,3.4,6.768,16.8,16.8,0,0,0,5.84,1.314c.51.053,1.016.1,1.508.168a15.727,15.727,0,0,1,7.69,2.644,20.188,20.188,0,0,1,3.612,3.6l.842,1.043.545-1.224a14.261,14.261,0,0,1,5.7-6.373l.925-.551-.778-.745a23.882,23.882,0,0,1-4.107-5.2c-1.487-2.548-3.815-7.493-2.7-11.979,1.006-4.03,4.744-7.07,7.907-8.571a20.691,20.691,0,0,1,8.94-1.976,29.449,29.449,0,0,1,15.64,4.964.958.958,0,0,1,.43,1.145,1.06,1.06,0,0,1-.9.82.953.953,0,0,1-.5-.168,28.268,28.268,0,0,0-12.813-4.706c-.563-.044-1.132-.067-1.691-.067a18.5,18.5,0,0,0-8.839,2.143c-1.892,1.032-6.3,3.925-6.4,8.5-.091,4.269,2.238,8.313,3.635,10.344a21.058,21.058,0,0,0,4.119,4.432l.244.2.314-.017h0a.932.932,0,0,1,.874.681l.09.269.237.156c.6.4,1.226.766,1.847,1.1a.784.784,0,0,1,.453.957,1.177,1.177,0,0,1-1.043.91,1.077,1.077,0,0,1-.5-.136,23.2,23.2,0,0,1-2.237-1.357l-.373-.255-.415.178a12.184,12.184,0,0,0-7.11,9.4c-.022.146-.088.592-.775.592a1.418,1.418,0,0,1-1.111-.506L91,83.168c-1.945-2.751-4.15-5.869-7.556-7.1a27.091,27.091,0,0,0-5.935-1.183c-3.693-.454-7.182-.882-9.449-3.966a9.433,9.433,0,0,1-.993-8.387,19.94,19.94,0,0,1,4.622-7.1l.4-.425-.269-.514A21.95,21.95,0,0,1,69.3,44.71a.878.878,0,0,1,.229-.661,1.063,1.063,0,0,1,.762-.284.988.988,0,0,1,1.052.971A20.454,20.454,0,0,0,83.455,62.864c.315.132,1.024.522.813,1.291a1.176,1.176,0,0,1-.975.783" fill="#fff"/>
          <path id="Path_39805" data-name="Path 39805" d="M102.4,24.6a.842.842,0,0,1-.221.027c-.436,0-.963-.273-1.015-.638a3.7,3.7,0,0,0-3.9-3,4.577,4.577,0,0,0-1.554.267c-2.8,1.006-4.307,4.175-5.2,6.472-2.294,5.9-3.417,12.675-3.535,21.33a.982.982,0,0,1-1.045.969,1.077,1.077,0,0,1-.767-.285.891.891,0,0,1-.231-.662,83.184,83.184,0,0,1,.883-11.424A49.764,49.764,0,0,1,88.163,28.2c.931-2.567,2.068-5.2,4.054-7.068a7.4,7.4,0,0,1,5.094-2.152,6.994,6.994,0,0,1,1.555.178c1.815.415,3.912,1.87,4.227,4.083.048.338.077,1.148-.692,1.359" fill="#fff"/>
          <path id="Path_39806" data-name="Path 39806" d="M70.06,78.249a1.082,1.082,0,0,1-1.094,1.025,5.384,5.384,0,0,0-4.7,4.806c-.051.363-.579.635-1.018.635a.857.857,0,0,1-.218-.026c-.787-.217-.728-1.1-.691-1.362a7.39,7.39,0,0,1,6.77-6.1l.051,0a1.069,1.069,0,0,1,.9,1.027" fill="#fff"/>
          <path id="Path_39807" data-name="Path 39807" d="M74.746,147.808a.927.927,0,0,1,.472-.134,1.243,1.243,0,0,1,.968.566,10.921,10.921,0,0,0,8.878,4.444h.069a.931.931,0,0,1,.953,1.005.969.969,0,0,1-.964,1.038h-.08a13.1,13.1,0,0,1-10.705-5.587.759.759,0,0,1-.089-.589,1.173,1.173,0,0,1,.5-.743" fill="#fff"/>
          <path id="Path_39808" data-name="Path 39808" d="M86.313,173.858a.915.915,0,0,1-.65-.3,8.258,8.258,0,0,1-1.307-9.82.849.849,0,0,1,.761-.483,1.246,1.246,0,0,1,1.028.6.878.878,0,0,1-.032.929,6.093,6.093,0,0,0,1,7.335.853.853,0,0,1,.229,1,1.2,1.2,0,0,1-1.026.746" fill="#fff"/>
          <path id="Path_39809" data-name="Path 39809" d="M72.677,164.261a8.115,8.115,0,0,1,3.726.909.768.768,0,0,1,.455.935,1.189,1.189,0,0,1-1.06.921,1.079,1.079,0,0,1-.5-.132,5.633,5.633,0,0,0-2.583-.624,5.956,5.956,0,0,0-4.2,1.747.907.907,0,0,1-.645.3,1.2,1.2,0,0,1-1.019-.743.865.865,0,0,1,.224-1.009,7.822,7.822,0,0,1,5.6-2.307" fill="#fff"/>
          <path id="Path_39810" data-name="Path 39810" d="M103,190.591a1.036,1.036,0,0,1,.506.148,12.767,12.767,0,0,1,5.945,14.093.837.837,0,0,1-.87.694,1.242,1.242,0,0,1-.957-.443.908.908,0,0,1-.136-.821,10.683,10.683,0,0,0-5.032-11.769.847.847,0,0,1-.448-1.025,1.131,1.131,0,0,1,.992-.877" fill="#fff"/>
          <path id="Path_39811" data-name="Path 39811" d="M74.792,117.411a3.815,3.815,0,1,1,3.815-3.815,3.818,3.818,0,0,1-3.815,3.815" fill="#c11717"/>
          <path id="Path_39812" data-name="Path 39812" d="M74.792,110.531a3.065,3.065,0,1,1-3.065,3.065,3.065,3.065,0,0,1,3.065-3.065m0-1.5a4.565,4.565,0,1,0,4.565,4.565,4.57,4.57,0,0,0-4.565-4.565" fill="#fff"/>
          <path id="Path_39813" data-name="Path 39813" d="M162.188,146.207A3.815,3.815,0,1,1,166,142.392a3.818,3.818,0,0,1-3.815,3.815" fill="#39384c"/>
          <path id="Path_39814" data-name="Path 39814" d="M162.188,139.327a3.065,3.065,0,1,1-3.065,3.065,3.065,3.065,0,0,1,3.065-3.065m0-1.5a4.565,4.565,0,1,0,4.565,4.565,4.57,4.57,0,0,0-4.565-4.565" fill="#fff"/>
          <path id="Path_39815" data-name="Path 39815" d="M191.975,81.037a3.815,3.815,0,1,1,3.814-3.815,3.819,3.819,0,0,1-3.814,3.815" fill="#39384c"/>
          <path id="Path_39816" data-name="Path 39816" d="M191.975,74.157a3.065,3.065,0,1,1-3.065,3.065,3.065,3.065,0,0,1,3.065-3.065m0-1.5a4.565,4.565,0,1,0,4.565,4.565,4.57,4.57,0,0,0-4.565-4.565" fill="#fff"/>
          <path id="Path_39817" data-name="Path 39817" d="M149.59,41.578a3.815,3.815,0,1,1,3.814-3.815,3.819,3.819,0,0,1-3.814,3.815" fill="#39384c"/>
          <path id="Path_39818" data-name="Path 39818" d="M149.59,34.7a3.065,3.065,0,1,1-3.065,3.065A3.065,3.065,0,0,1,149.59,34.7m0-1.5a4.565,4.565,0,1,0,4.565,4.565A4.57,4.57,0,0,0,149.59,33.2" fill="#fff"/>
          <path id="Path_39819" data-name="Path 39819" d="M84.057,69.2a3.815,3.815,0,1,1,3.814-3.815A3.819,3.819,0,0,1,84.057,69.2" fill="#c11717"/>
          <path id="Path_39820" data-name="Path 39820" d="M84.057,62.316a3.065,3.065,0,1,1-3.065,3.065,3.065,3.065,0,0,1,3.065-3.065m0-1.5a4.565,4.565,0,1,0,4.565,4.565,4.57,4.57,0,0,0-4.565-4.565" fill="#fff"/>
          <path id="Path_39821" data-name="Path 39821" d="M114.036,182.111a3.815,3.815,0,1,1,3.815-3.815,3.818,3.818,0,0,1-3.815,3.815" fill="#c11717"/>
          <path id="Path_39822" data-name="Path 39822" d="M114.036,175.231a3.065,3.065,0,1,1-3.065,3.065,3.065,3.065,0,0,1,3.065-3.065m0-1.5A4.565,4.565,0,1,0,118.6,178.3a4.57,4.57,0,0,0-4.565-4.565" fill="#fff"/>
          <path id="Path_39823" data-name="Path 39823" d="M67.321,155.285a3.815,3.815,0,1,1,3.814-3.815,3.819,3.819,0,0,1-3.814,3.815" fill="#c11717"/>
          <path id="Path_39824" data-name="Path 39824" d="M67.32,148.4a3.065,3.065,0,1,1-3.065,3.065A3.065,3.065,0,0,1,67.32,148.4m0-1.5a4.565,4.565,0,1,0,4.565,4.565A4.57,4.57,0,0,0,67.32,146.9" fill="#fff"/>
          <path id="Path_39825" data-name="Path 39825" d="M189.061,151.623a3.815,3.815,0,1,1,3.815-3.815,3.818,3.818,0,0,1-3.815,3.815" fill="#39384c"/>
          <path id="Path_39826" data-name="Path 39826" d="M189.061,144.743A3.065,3.065,0,1,1,186,147.808a3.065,3.065,0,0,1,3.065-3.065m0-1.5a4.565,4.565,0,1,0,4.565,4.565,4.57,4.57,0,0,0-4.565-4.565" fill="#fff"/>
          <path id="Path_39827" data-name="Path 39827" d="M145.541,75.565a3.815,3.815,0,1,1,3.814-3.815,3.819,3.819,0,0,1-3.814,3.815" fill="#39384c"/>
          <path id="Path_39828" data-name="Path 39828" d="M145.54,68.685a3.065,3.065,0,1,1-3.065,3.065,3.065,3.065,0,0,1,3.065-3.065m0-1.5A4.565,4.565,0,1,0,150.1,71.75a4.57,4.57,0,0,0-4.565-4.565" fill="#fff"/>
          <path id="Path_39829" data-name="Path 39829" d="M114.036,132.777a3.815,3.815,0,1,1,3.815-3.815,3.818,3.818,0,0,1-3.815,3.815" fill="#c11717"/>
          <path id="Path_39830" data-name="Path 39830" d="M114.036,125.9a3.065,3.065,0,1,1-3.065,3.065,3.065,3.065,0,0,1,3.065-3.065m0-1.5a4.565,4.565,0,1,0,4.565,4.565,4.57,4.57,0,0,0-4.565-4.565" fill="#fff"/>
          <path id="Path_39831" data-name="Path 39831" d="M202.465,117.411a3.815,3.815,0,1,1,3.814-3.815,3.818,3.818,0,0,1-3.814,3.815" fill="#39384c"/>
          <path id="Path_39832" data-name="Path 39832" d="M202.465,110.531A3.065,3.065,0,1,1,199.4,113.6a3.065,3.065,0,0,1,3.065-3.065m0-1.5a4.565,4.565,0,1,0,4.565,4.565,4.57,4.57,0,0,0-4.565-4.565" fill="#fff"/>
          <path id="Path_39833" data-name="Path 39833" d="M230.872,91.81c.02.322.037.641.038.963,20.907,2.3,32.812,5.241,32.812,8.086,0,3.071-13.882,6.253-38,8.626-22.862,2.249-54.923,3.769-93.089,3.776h-.274l-1.187,0c-38.261-.031-70.33-1.585-93.066-3.864C14.542,107.033,1,103.892,1,100.859c0-2.8,11.556-5.7,31.9-7.986,0-.321.011-.641.029-.962C12.929,94.153,0,97.182,0,100.859c0,3.974,15.112,7.191,37.931,9.476,25.044,2.508,59.372,3.893,93.218,3.925l1.211,0h.3c33.737-.008,68.042-1.363,93.232-3.837,23.321-2.29,38.832-5.538,38.832-9.565,0-3.733-13.33-6.8-33.85-9.049" fill="#fff"/>
          <path id="Path_39834" data-name="Path 39834" d="M212.764,143.888l.011.154c.02.3.023.595.036.892,25.3,2.8,26.661,5.9,26.661,6.524,0,.639-1.42,3.884-28.66,6.739-.866.091-1.756.181-2.675.271-19.643,1.923-45.5,3.014-73.141,3.1-1.182,0-2.362.009-3.549.009-.882,0-1.756,0-2.635-.006-27.983-.065-54.2-1.159-74.055-3.1-.593-.058-1.155-.116-1.726-.174-28.138-2.879-29.609-6.19-29.609-6.836,0-.631,1.4-3.8,27.579-6.624.012-.264.014-.528.032-.792l.018-.254c-17.284,1.851-28.629,4.424-28.629,7.67,0,3.391,12.39,6.049,31.006,7.915,20.347,2.04,48.133,3.132,75.312,3.2q1.354,0,2.707,0,1.807,0,3.621-.007c27.315-.092,55.146-1.216,75.348-3.294,18.084-1.861,30.056-4.485,30.056-7.818,0-3.188-10.943-5.727-27.708-7.57" fill="#fff"/>
          <path id="Path_39835" data-name="Path 39835" d="M45.656,59.5c21.156,2.664,53.814,4.063,85.354,4.076h.437l1.351,0c31.7-.04,64.408-1.476,85.33-4.188,13.7-1.775,22.344-4.1,22.344-6.93,0-3.22-11.173-5.779-28.235-7.626.236.371.479.739.7,1.116,25.176,2.8,26.532,5.889,26.532,6.51,0,.578-1.166,3.29-21.56,5.916-2.864.369-6.1.736-9.775,1.1-20.155,1.972-46.855,3.07-75.31,3.1-.461,0-.919,0-1.38,0h-.465c-28.8-.012-55.853-1.114-76.225-3.107-3.3-.323-6.24-.653-8.885-.984-21.237-2.661-22.45-5.442-22.45-6.028,0-.629,1.4-3.791,27.513-6.616.225-.377.465-.745.7-1.116-17.615,1.855-29.215,4.45-29.215,7.732,0,2.894,9.024,5.254,23.234,7.043" fill="#fff"/>
        </g>
      </g>
      <g id="Group_7299" data-name="Group 7299" transform="translate(1293.802 268)">
        <g id="Group_7298" data-name="Group 7298">
          <g id="Group_7300" data-name="Group 7300">
            <path id="Path_39836" data-name="Path 39836" d="M52.542,54.408h-41.5a3.292,3.292,0,0,1-3.282-3.281V11.9a3.292,3.292,0,0,1,3.282-3.282h41.5A3.291,3.291,0,0,1,55.823,11.9V51.127a3.291,3.291,0,0,1-3.281,3.281" fill="#fff"/>
            <path id="Path_39837" data-name="Path 39837" d="M20.046,14.5h-.61a.952.952,0,0,1-.949-.948V.948A.951.951,0,0,1,19.436,0h.61a.951.951,0,0,1,.948.948V13.555a.951.951,0,0,1-.948.948" fill="#fff"/>
            <path id="Path_39838" data-name="Path 39838" d="M25.955,14.5h-.609a.952.952,0,0,1-.949-.948V.948A.951.951,0,0,1,25.346,0h.609A.951.951,0,0,1,26.9.948V13.555a.952.952,0,0,1-.949.948" fill="#fff"/>
            <path id="Path_39839" data-name="Path 39839" d="M31.864,14.5h-.609a.952.952,0,0,1-.95-.948V.948A.951.951,0,0,1,31.255,0h.609a.951.951,0,0,1,.948.948V13.555a.951.951,0,0,1-.948.948" fill="#fff"/>
            <path id="Path_39840" data-name="Path 39840" d="M37.773,14.5h-.61a.952.952,0,0,1-.949-.948V.948A.951.951,0,0,1,37.163,0h.61a.95.95,0,0,1,.948.948V13.555a.951.951,0,0,1-.948.948" fill="#fff"/>
            <path id="Path_39841" data-name="Path 39841" d="M43.682,14.5h-.61a.952.952,0,0,1-.949-.948V.948A.951.951,0,0,1,43.072,0h.61a.951.951,0,0,1,.948.948V13.555a.951.951,0,0,1-.948.948" fill="#fff"/>
            <path id="Path_39842" data-name="Path 39842" d="M20.046,63.118h-.61a.952.952,0,0,1-.949-.948V49.563a.952.952,0,0,1,.949-.949h.61a.952.952,0,0,1,.948.949V62.17a.951.951,0,0,1-.948.948" fill="#fff"/>
            <path id="Path_39843" data-name="Path 39843" d="M25.955,63.118h-.609a.952.952,0,0,1-.949-.948V49.563a.952.952,0,0,1,.949-.949h.609a.952.952,0,0,1,.949.949V62.17a.952.952,0,0,1-.949.948" fill="#fff"/>
            <path id="Path_39844" data-name="Path 39844" d="M31.864,63.118h-.609a.952.952,0,0,1-.95-.948V49.563a.952.952,0,0,1,.95-.949h.609a.952.952,0,0,1,.948.949V62.17a.951.951,0,0,1-.948.948" fill="#fff"/>
            <path id="Path_39845" data-name="Path 39845" d="M37.773,63.118h-.61a.952.952,0,0,1-.949-.948V49.563a.952.952,0,0,1,.949-.949h.61a.951.951,0,0,1,.948.949V62.17a.951.951,0,0,1-.948.948" fill="#fff"/>
            <path id="Path_39846" data-name="Path 39846" d="M43.682,63.118h-.61a.952.952,0,0,1-.949-.948V49.563a.952.952,0,0,1,.949-.949h.61a.952.952,0,0,1,.948.949V62.17a.951.951,0,0,1-.948.948" fill="#fff"/>
            <path id="Path_39847" data-name="Path 39847" d="M14.5,43.072v.61a.951.951,0,0,1-.948.948H.948A.951.951,0,0,1,0,43.682v-.61a.952.952,0,0,1,.948-.949H13.555a.952.952,0,0,1,.948.949" fill="#fff"/>
            <path id="Path_39848" data-name="Path 39848" d="M14.5,37.163v.61a.952.952,0,0,1-.948.949H.948A.952.952,0,0,1,0,37.773v-.61a.951.951,0,0,1,.948-.948H13.555a.951.951,0,0,1,.948.948" fill="#fff"/>
            <path id="Path_39849" data-name="Path 39849" d="M14.5,31.254v.61a.951.951,0,0,1-.948.948H.948A.951.951,0,0,1,0,31.864v-.61a.952.952,0,0,1,.948-.949H13.555a.952.952,0,0,1,.948.949" fill="#fff"/>
            <path id="Path_39850" data-name="Path 39850" d="M14.5,25.345v.61a.952.952,0,0,1-.948.949H.948A.952.952,0,0,1,0,25.955v-.61A.951.951,0,0,1,.948,24.4H13.555a.951.951,0,0,1,.948.948" fill="#fff"/>
            <path id="Path_39851" data-name="Path 39851" d="M14.5,19.436v.61a.951.951,0,0,1-.948.948H.948A.951.951,0,0,1,0,20.046v-.61a.952.952,0,0,1,.948-.949H13.555a.952.952,0,0,1,.948.949" fill="#fff"/>
            <path id="Path_39852" data-name="Path 39852" d="M63.118,43.072v.61a.951.951,0,0,1-.948.948H49.563a.952.952,0,0,1-.949-.948v-.61a.952.952,0,0,1,.949-.949H62.17a.952.952,0,0,1,.948.949" fill="#fff"/>
            <path id="Path_39853" data-name="Path 39853" d="M63.118,37.163v.61a.952.952,0,0,1-.948.949H49.563a.952.952,0,0,1-.949-.949v-.61a.952.952,0,0,1,.949-.948H62.17a.951.951,0,0,1,.948.948" fill="#fff"/>
            <path id="Path_39854" data-name="Path 39854" d="M63.118,31.254v.61a.951.951,0,0,1-.948.948H49.563a.952.952,0,0,1-.949-.948v-.61a.952.952,0,0,1,.949-.949H62.17a.952.952,0,0,1,.948.949" fill="#fff"/>
            <path id="Path_39855" data-name="Path 39855" d="M63.118,25.345v.61a.952.952,0,0,1-.948.949H49.563a.952.952,0,0,1-.949-.949v-.61a.952.952,0,0,1,.949-.948H62.17a.951.951,0,0,1,.948.948" fill="#fff"/>
            <path id="Path_39856" data-name="Path 39856" d="M63.118,19.436v.61a.951.951,0,0,1-.948.948H49.563a.952.952,0,0,1-.949-.948v-.61a.953.953,0,0,1,.949-.949H62.17a.952.952,0,0,1,.948.949" fill="#fff"/>
          </g>
        </g>
        <text id="AI" transform="translate(18.597 41.124)" font-size="26.382" font-family="HelveticaNeue-Bold, Helvetica Neue" font-weight="700"><tspan x="0" y="0">AI</tspan></text>
      </g>
    </g>
  </g>
</svg>
