<svg xmlns="http://www.w3.org/2000/svg" xmlns:xlink="http://www.w3.org/1999/xlink" width="649.096" height="394.091" viewBox="0 0 649.096 394.091">
  <defs>
    <linearGradient id="linear-gradient" x1="0.5" x2="0.5" y2="1" gradientUnits="objectBoundingBox">
      <stop offset="0" stop-color="#d3dbe8"/>
      <stop offset="1" stop-color="#f8e4e4"/>
    </linearGradient>
  </defs>
  <g id="Group_7417" data-name="Group 7417" transform="translate(-996.691 -172.061)">
    <path id="Path_40232" data-name="Path 40232" d="M2928.809,1002.746a1.358,1.358,0,0,1-1.358-1.358v-4.822a1.358,1.358,0,1,1,2.716,0v4.822a1.358,1.358,0,0,1-1.357,1.358" transform="translate(-1401.151 -1116.981) rotate(9)" fill="#69d0d6"/>
    <path id="Union_53" data-name="Union 53" d="M8058.309,906.783c0-.734.013-1.462.038-2.191-34.423-9.62-59.347-37.82-59.347-71.109,0-23.071,11.974-43.7,30.783-57.391a90.408,90.408,0,0,1-3.824-26.187c0-43.445,30.174-78.663,67.4-78.663,16.4,0,31.433,6.837,43.117,18.2,11.982-24.626,36.063-41.445,63.818-41.445,24.771,0,46.615,13.4,59.544,33.786a98.817,98.817,0,0,1,11.9-.713c56.328,0,101.99,47.425,101.99,105.927q0,5.131-.461,10.14A81.883,81.883,0,0,1,8389,845.105c0,50.109-46.669,90.729-104.24,90.729a118.244,118.244,0,0,1-33.591-4.815c-12.9,31.333-50.113,53.98-94.013,53.98C8102.564,985,8058.309,949.982,8058.309,906.783Z" transform="translate(-6858.676 -470.681)" fill="url(#linear-gradient)"/>
    <g id="Group_7415" data-name="Group 7415" transform="translate(8346 2308)">
      <g id="Group_7415-2" data-name="Group 7415">
        <path id="Path_39313" data-name="Path 39313" d="M153.892,70.007V174.679l-5.774,3.333L129.036,172.4l-12.754-15.486v-3.826L109,139.423V124.01l4.555-16.471,4.372-4.554V96.608l3.826-4.555v-7.47l7.2-4.158V76.384l8.467-3.1,6-3.462Z" transform="translate(-7168.557 -2079.055)" fill="#fff" stroke="#68356a" stroke-linejoin="round" stroke-width="2"/>
        <line id="Line_445" data-name="Line 445" x1="11.191" transform="translate(-7025.856 -1978.803)" fill="none" stroke="#68356a" stroke-linejoin="round" stroke-width="2"/>
        <line id="Line_446" data-name="Line 446" x1="10.567" y2="13.635" transform="translate(-7031.887 -1969.693)" fill="none" stroke="#68356a" stroke-linejoin="round" stroke-width="2"/>
        <line id="Line_447" data-name="Line 447" x2="6.281" transform="translate(-7039.606 -1998.63)" fill="none" stroke="#68356a" stroke-linejoin="round" stroke-width="2"/>
        <path id="Path_39314" data-name="Path 39314" d="M112.355,126.8h5.565l7.277,7.277" transform="translate(-7169.283 -2091.368)" fill="#fff" stroke="#68356a" stroke-linejoin="round" stroke-width="2"/>
        <path id="Path_39315" data-name="Path 39315" d="M162.08,157.916h-15.2v6.923l7.535,7.535" transform="translate(-7176.745 -2098.094)" fill="#fff" stroke="#68356a" stroke-linejoin="round" stroke-width="2"/>
        <line id="Line_448" data-name="Line 448" y1="5.921" x2="5.921" transform="translate(-7052.274 -1931.888)" fill="none" stroke="#68356a" stroke-linejoin="round" stroke-width="2"/>
        <path id="Path_39316" data-name="Path 39316" d="M125.265,98.181H136.7v15.532h9.519" transform="translate(-7172.073 -2085.183)" fill="#fff" stroke="#68356a" stroke-linejoin="round" stroke-width="2"/>
        <path id="Path_39317" data-name="Path 39317" d="M134.562,197.669V186.737h9.657" transform="translate(-7174.083 -2104.323)" fill="#fff" stroke="#68356a" stroke-linejoin="round" stroke-width="2"/>
        <path id="Path_39318" data-name="Path 39318" d="M126.153,126.312l5.649,5.649-13.6,13.6-9.2-9.346" transform="translate(-7168.557 -2091.263)" fill="#fff" stroke="#68356a" stroke-linejoin="round" stroke-width="2"/>
        <path id="Path_39319" data-name="Path 39319" d="M146.881,89.11h7.06l8.032-8.032" transform="translate(-7176.745 -2081.487)" fill="#fff" stroke="#68356a" stroke-linejoin="round" stroke-width="2"/>
        <line id="Line_449" data-name="Line 449" x2="7.626" y2="7.626" transform="translate(-7022.265 -1934.165)" fill="none" stroke="#68356a" stroke-linejoin="round" stroke-width="2"/>
        <path id="Path_39320" data-name="Path 39320" d="M147.695,194.787h9.292v-4.1" transform="translate(-7176.921 -2105.176)" fill="#fff" stroke="#68356a" stroke-linejoin="round" stroke-width="2"/>
        <path id="Path_39321" data-name="Path 39321" d="M119.568,163.95l6.034-6.034,5.858,5.858" transform="translate(-7170.842 -2098.094)" fill="#fff" stroke="#68356a" stroke-linejoin="round" stroke-width="2"/>
        <path id="Path_39322" data-name="Path 39322" d="M135.717,154.1l7.826-7.826H159.56" transform="translate(-7174.332 -2095.578)" fill="#fff" stroke="#68356a" stroke-linejoin="round" stroke-width="2"/>
        <path id="Path_39323" data-name="Path 39323" d="M128.737,180l7.157-7.157,4.684,4.684" transform="translate(-7172.823 -2101.319)" fill="#fff" stroke="#68356a" stroke-linejoin="round" stroke-width="2"/>
        <path id="Path_39324" data-name="Path 39324" d="M120.384,111.195l2.892,2.893,6.274-6.274" transform="translate(-7171.018 -2087.265)" fill="#fff" stroke="#68356a" stroke-linejoin="round" stroke-width="2"/>
        <path id="Path_39325" data-name="Path 39325" d="M157.883,132.116l3.346,3.346h3.122" transform="translate(-7179.123 -2092.518)" fill="#fff" stroke="#68356a" stroke-linejoin="round" stroke-width="2"/>
        <path id="Path_39326" data-name="Path 39326" d="M144.74,90.862a1.678,1.678,0,1,0,1.678-1.678,1.678,1.678,0,0,0-1.678,1.678" transform="translate(-7176.282 -2083.239)" fill="#fff" stroke="#68356a" stroke-width="1"/>
        <path id="Path_39327" data-name="Path 39327" d="M149.854,108.178a1.678,1.678,0,1,0,1.678-1.678,1.678,1.678,0,0,0-1.678,1.678" transform="translate(-7177.387 -2086.981)" fill="#fff" stroke="#68356a" stroke-width="1"/>
        <path id="Path_39328" data-name="Path 39328" d="M149.854,117.533a1.678,1.678,0,1,0,1.678-1.678,1.678,1.678,0,0,0-1.678,1.678" transform="translate(-7177.387 -2089.003)" fill="#fff" stroke="#68356a" stroke-width="1"/>
        <path id="Path_39329" data-name="Path 39329" d="M129.937,107.35a1.678,1.678,0,1,0,1.678-1.678,1.678,1.678,0,0,0-1.678,1.678" transform="translate(-7173.083 -2086.802)" fill="#fff" stroke="#68356a" stroke-width="1"/>
        <path id="Path_39330" data-name="Path 39330" d="M155.64,119.8a1.678,1.678,0,1,0,1.678-1.678,1.678,1.678,0,0,0-1.678,1.678" transform="translate(-7178.638 -2089.493)" fill="#fff" stroke="#68356a" stroke-width="1"/>
        <path id="Path_39331" data-name="Path 39331" d="M142.159,137.193a1.678,1.678,0,1,0,1.678-1.678,1.678,1.678,0,0,0-1.678,1.678" transform="translate(-7175.724 -2093.252)" fill="#fff" stroke="#68356a" stroke-width="1"/>
        <path id="Path_39332" data-name="Path 39332" d="M133.576,155.8a1.678,1.678,0,1,0,1.678-1.678,1.678,1.678,0,0,0-1.678,1.678" transform="translate(-7173.869 -2097.273)" fill="#fff" stroke="#68356a" stroke-width="1"/>
        <path id="Path_39333" data-name="Path 39333" d="M117.427,165.151a1.678,1.678,0,1,0,1.678-1.678,1.678,1.678,0,0,0-1.678,1.678" transform="translate(-7170.379 -2099.294)" fill="#fff" stroke="#68356a" stroke-width="1"/>
        <path id="Path_39334" data-name="Path 39334" d="M132.6,165.123a1.678,1.678,0,1,0,1.678-1.678,1.678,1.678,0,0,0-1.678,1.678" transform="translate(-7173.658 -2099.289)" fill="#fff" stroke="#68356a" stroke-width="1"/>
        <path id="Path_39335" data-name="Path 39335" d="M126.6,181.509a1.678,1.678,0,1,0,1.678-1.678,1.678,1.678,0,0,0-1.678,1.678" transform="translate(-7172.361 -2102.83)" fill="#fff" stroke="#68356a" stroke-width="1"/>
        <path id="Path_39336" data-name="Path 39336" d="M141.7,178.342a1.678,1.678,0,1,0,1.678-1.678,1.679,1.679,0,0,0-1.678,1.678" transform="translate(-7175.625 -2102.146)" fill="#fff" stroke="#68356a" stroke-width="1"/>
        <path id="Path_39337" data-name="Path 39337" d="M154.435,175.9a1.678,1.678,0,1,0,1.678-1.678,1.678,1.678,0,0,0-1.678,1.678" transform="translate(-7178.377 -2101.617)" fill="#fff" stroke="#68356a" stroke-width="1"/>
        <path id="Path_39338" data-name="Path 39338" d="M144.74,186.274a1.678,1.678,0,1,0,1.678-1.678,1.678,1.678,0,0,0-1.678,1.678" transform="translate(-7176.282 -2103.86)" fill="#fff" stroke="#68356a" stroke-width="1"/>
        <path id="Path_39339" data-name="Path 39339" d="M145.554,195.455a1.678,1.678,0,1,0,1.678-1.678,1.678,1.678,0,0,0-1.678,1.678" transform="translate(-7176.458 -2105.844)" fill="#fff" stroke="#68356a" stroke-width="1"/>
        <path id="Path_39340" data-name="Path 39340" d="M157.408,190.225a1.678,1.678,0,1,0,1.678-1.678,1.678,1.678,0,0,0-1.678,1.678" transform="translate(-7179.02 -2104.714)" fill="#fff" stroke="#68356a" stroke-width="1"/>
        <path id="Path_39341" data-name="Path 39341" d="M154.435,165.151a1.678,1.678,0,1,0,1.678-1.678,1.678,1.678,0,0,0-1.678,1.678" transform="translate(-7178.377 -2099.294)" fill="#fff" stroke="#68356a" stroke-width="1"/>
        <path id="Path_39342" data-name="Path 39342" d="M123.705,168.028a1.678,1.678,0,1,0,1.678-1.678,1.678,1.678,0,0,0-1.678,1.678" transform="translate(-7171.736 -2099.916)" fill="#fff" stroke="#68356a" stroke-width="1"/>
        <path id="Path_39343" data-name="Path 39343" d="M128.737,125.849a1.678,1.678,0,1,0,1.678-1.678,1.678,1.678,0,0,0-1.678,1.678" transform="translate(-7172.823 -2090.8)" fill="#fff" stroke="#68356a" stroke-width="1"/>
        <path id="Path_39344" data-name="Path 39344" d="M126.6,135.619a1.678,1.678,0,1,0,1.678-1.678,1.678,1.678,0,0,0-1.678,1.678" transform="translate(-7172.361 -2092.912)" fill="#fff" stroke="#68356a" stroke-width="1"/>
        <path id="Path_39345" data-name="Path 39345" d="M155.64,131.653a1.678,1.678,0,1,0,1.678-1.678,1.678,1.678,0,0,0-1.678,1.678" transform="translate(-7178.638 -2092.055)" fill="#fff" stroke="#68356a" stroke-width="1"/>
        <path id="Path_39346" data-name="Path 39346" d="M140.324,82.885A1.678,1.678,0,1,0,142,81.207a1.678,1.678,0,0,0-1.678,1.678" transform="translate(-7175.328 -2081.515)" fill="#fff" stroke="#68356a" stroke-width="1"/>
        <path id="Path_39347" data-name="Path 39347" d="M170.058,70.007V174.679l5.774,3.333,19.081-5.611,12.754-15.486v-3.826l7.288-13.665V124.01L210.4,107.539l-4.372-4.554V96.608L202.2,92.053v-7.47L195,80.425V76.384l-8.467-3.1-6-3.462Z" transform="translate(-7181.754 -2079.055)" fill="#fff" stroke="#68356a" stroke-linejoin="round" stroke-width="2"/>
        <line id="Line_450" data-name="Line 450" x2="11.191" transform="translate(-7011.696 -1978.803)" fill="none" stroke="#68356a" stroke-linejoin="round" stroke-width="2"/>
        <line id="Line_451" data-name="Line 451" x2="10.567" y2="13.635" transform="translate(-7005.041 -1969.693)" fill="none" stroke="#68356a" stroke-linejoin="round" stroke-width="2"/>
        <line id="Line_452" data-name="Line 452" x1="6.281" transform="translate(-6993.036 -1998.63)" fill="none" stroke="#68356a" stroke-linejoin="round" stroke-width="2"/>
        <path id="Path_39348" data-name="Path 39348" d="M220.433,126.8h-5.565l-7.277,7.277" transform="translate(-7189.866 -2091.368)" fill="#fff" stroke="#68356a" stroke-linejoin="round" stroke-width="2"/>
        <path id="Path_39349" data-name="Path 39349" d="M170.058,157.916h15.2v6.923l-7.535,7.535" transform="translate(-7181.754 -2098.094)" fill="#fff" stroke="#68356a" stroke-linejoin="round" stroke-width="2"/>
        <line id="Line_453" data-name="Line 453" x1="5.921" y1="5.921" transform="translate(-6980.008 -1931.888)" fill="none" stroke="#68356a" stroke-linejoin="round" stroke-width="2"/>
        <path id="Path_39350" data-name="Path 39350" d="M205.287,98.181H193.854v15.532h-9.519" transform="translate(-7184.839 -2085.183)" fill="#fff" stroke="#68356a" stroke-linejoin="round" stroke-width="2"/>
        <path id="Path_39351" data-name="Path 39351" d="M199.1,197.669V186.737h-9.657" transform="translate(-7185.944 -2104.323)" fill="#fff" stroke="#68356a" stroke-linejoin="round" stroke-width="2"/>
        <path id="Path_39352" data-name="Path 39352" d="M203.888,126.312l-5.649,5.649,13.6,13.6,9.2-9.346" transform="translate(-7187.845 -2091.263)" fill="#fff" stroke="#68356a" stroke-linejoin="round" stroke-width="2"/>
        <path id="Path_39353" data-name="Path 39353" d="M185.286,89.11h-7.06l-8.032-8.032" transform="translate(-7181.784 -2081.487)" fill="#fff" stroke="#68356a" stroke-linejoin="round" stroke-width="2"/>
        <line id="Line_454" data-name="Line 454" x1="7.626" y2="7.626" transform="translate(-7011.722 -1934.165)" fill="none" stroke="#68356a" stroke-linejoin="round" stroke-width="2"/>
        <path id="Path_39354" data-name="Path 39354" d="M186.072,194.787H176.78v-4.1" transform="translate(-7183.207 -2105.176)" fill="#fff" stroke="#68356a" stroke-linejoin="round" stroke-width="2"/>
        <path id="Path_39355" data-name="Path 39355" d="M213.482,163.95l-6.034-6.034-5.858,5.858" transform="translate(-7188.569 -2098.094)" fill="#fff" stroke="#68356a" stroke-linejoin="round" stroke-width="2"/>
        <path id="Path_39356" data-name="Path 39356" d="M194.037,154.1l-7.826-7.826H170.194" transform="translate(-7181.784 -2095.578)" fill="#fff" stroke="#68356a" stroke-linejoin="round" stroke-width="2"/>
        <path id="Path_39357" data-name="Path 39357" d="M204.327,180l-7.157-7.157-4.684,4.684" transform="translate(-7186.601 -2101.319)" fill="#fff" stroke="#68356a" stroke-linejoin="round" stroke-width="2"/>
        <path id="Path_39358" data-name="Path 39358" d="M213.417,111.195l-2.892,2.893-6.274-6.274" transform="translate(-7189.144 -2087.265)" fill="#fff" stroke="#68356a" stroke-linejoin="round" stroke-width="2"/>
        <path id="Path_39359" data-name="Path 39359" d="M176.662,132.116l-3.346,3.346h-3.122" transform="translate(-7181.784 -2092.518)" fill="#fff" stroke="#68356a" stroke-linejoin="round" stroke-width="2"/>
        <path id="Path_39360" data-name="Path 39360" d="M190.663,90.862a1.678,1.678,0,1,1-1.678-1.678,1.678,1.678,0,0,1,1.678,1.678" transform="translate(-7185.482 -2083.239)" fill="#fff" stroke="#68356a" stroke-width="1"/>
        <path id="Path_39361" data-name="Path 39361" d="M185.55,108.178a1.678,1.678,0,1,1-1.678-1.678,1.678,1.678,0,0,1,1.678,1.678" transform="translate(-7184.377 -2086.981)" fill="#fff" stroke="#68356a" stroke-width="1"/>
        <path id="Path_39362" data-name="Path 39362" d="M185.55,117.533a1.678,1.678,0,1,1-1.678-1.678,1.678,1.678,0,0,1,1.678,1.678" transform="translate(-7184.377 -2089.003)" fill="#fff" stroke="#68356a" stroke-width="1"/>
        <path id="Path_39363" data-name="Path 39363" d="M205.466,107.35a1.678,1.678,0,1,1-1.678-1.678,1.679,1.679,0,0,1,1.678,1.678" transform="translate(-7188.681 -2086.802)" fill="#fff" stroke="#68356a" stroke-width="1"/>
        <path id="Path_39364" data-name="Path 39364" d="M179.763,119.8a1.678,1.678,0,1,1-1.678-1.678,1.678,1.678,0,0,1,1.678,1.678" transform="translate(-7183.126 -2089.493)" fill="#fff" stroke="#68356a" stroke-width="1"/>
        <path id="Path_39365" data-name="Path 39365" d="M193.244,137.193a1.678,1.678,0,1,1-1.678-1.678,1.678,1.678,0,0,1,1.678,1.678" transform="translate(-7186.04 -2093.252)" fill="#fff" stroke="#68356a" stroke-width="1"/>
        <path id="Path_39366" data-name="Path 39366" d="M201.827,155.8a1.678,1.678,0,1,1-1.678-1.678,1.678,1.678,0,0,1,1.678,1.678" transform="translate(-7187.895 -2097.273)" fill="#fff" stroke="#68356a" stroke-width="1"/>
        <path id="Path_39367" data-name="Path 39367" d="M217.976,165.151a1.678,1.678,0,1,1-1.678-1.678,1.678,1.678,0,0,1,1.678,1.678" transform="translate(-7191.385 -2099.294)" fill="#fff" stroke="#68356a" stroke-width="1"/>
        <path id="Path_39368" data-name="Path 39368" d="M202.8,165.123a1.678,1.678,0,1,1-1.678-1.678,1.678,1.678,0,0,1,1.678,1.678" transform="translate(-7188.106 -2099.289)" fill="#fff" stroke="#68356a" stroke-width="1"/>
        <path id="Path_39369" data-name="Path 39369" d="M208.807,181.509a1.678,1.678,0,1,1-1.678-1.678,1.678,1.678,0,0,1,1.678,1.678" transform="translate(-7189.403 -2102.83)" fill="#fff" stroke="#68356a" stroke-width="1"/>
        <path id="Path_39370" data-name="Path 39370" d="M193.7,178.342a1.678,1.678,0,1,1-1.678-1.678,1.678,1.678,0,0,1,1.678,1.678" transform="translate(-7186.139 -2102.146)" fill="#fff" stroke="#68356a" stroke-width="1"/>
        <path id="Path_39371" data-name="Path 39371" d="M180.969,175.9a1.678,1.678,0,1,1-1.678-1.678,1.678,1.678,0,0,1,1.678,1.678" transform="translate(-7183.387 -2101.617)" fill="#fff" stroke="#68356a" stroke-width="1"/>
        <path id="Path_39372" data-name="Path 39372" d="M190.663,186.274a1.678,1.678,0,1,1-1.678-1.678,1.678,1.678,0,0,1,1.678,1.678" transform="translate(-7185.482 -2103.86)" fill="#fff" stroke="#68356a" stroke-width="1"/>
        <path id="Path_39373" data-name="Path 39373" d="M189.85,195.455a1.678,1.678,0,1,1-1.678-1.678,1.678,1.678,0,0,1,1.678,1.678" transform="translate(-7185.306 -2105.844)" fill="#fff" stroke="#68356a" stroke-width="1"/>
        <path id="Path_39374" data-name="Path 39374" d="M178,190.225a1.678,1.678,0,1,1-1.678-1.678A1.678,1.678,0,0,1,178,190.225" transform="translate(-7182.744 -2104.714)" fill="#fff" stroke="#68356a" stroke-width="1"/>
        <path id="Path_39375" data-name="Path 39375" d="M180.969,165.151a1.678,1.678,0,1,1-1.678-1.678,1.678,1.678,0,0,1,1.678,1.678" transform="translate(-7183.387 -2099.294)" fill="#fff" stroke="#68356a" stroke-width="1"/>
        <path id="Path_39376" data-name="Path 39376" d="M211.7,168.028a1.678,1.678,0,1,1-1.678-1.678,1.678,1.678,0,0,1,1.678,1.678" transform="translate(-7190.028 -2099.916)" fill="#fff" stroke="#68356a" stroke-width="1"/>
        <path id="Path_39377" data-name="Path 39377" d="M206.667,125.849a1.678,1.678,0,1,1-1.678-1.678,1.678,1.678,0,0,1,1.678,1.678" transform="translate(-7188.941 -2090.8)" fill="#fff" stroke="#68356a" stroke-width="1"/>
        <path id="Path_39378" data-name="Path 39378" d="M208.807,135.619a1.678,1.678,0,1,1-1.678-1.678,1.678,1.678,0,0,1,1.678,1.678" transform="translate(-7189.403 -2092.912)" fill="#fff" stroke="#68356a" stroke-width="1"/>
        <path id="Path_39379" data-name="Path 39379" d="M179.763,131.653a1.678,1.678,0,1,1-1.678-1.678,1.678,1.678,0,0,1,1.678,1.678" transform="translate(-7183.126 -2092.055)" fill="#fff" stroke="#68356a" stroke-width="1"/>
        <path id="Path_39380" data-name="Path 39380" d="M195.079,82.885a1.678,1.678,0,1,1-1.678-1.678,1.679,1.679,0,0,1,1.678,1.678" transform="translate(-7186.436 -2081.515)" fill="#fff" stroke="#68356a" stroke-width="1"/>
      </g>
      <g id="Group_7416" data-name="Group 7416">
        <path id="Path_39381" data-name="Path 39381" d="M146.543,195.608a78.387,78.387,0,1,1,78.387-78.387,78.476,78.476,0,0,1-78.387,78.387m0-148.936a70.549,70.549,0,1,0,70.549,70.549,70.629,70.629,0,0,0-70.549-70.549" transform="translate(-7159.73 -2072.357)" fill="#8c8385"/>
        <path id="Path_39382" data-name="Path 39382" d="M76.622,169.047a86.619,86.619,0,1,1,154.27-54.1" transform="translate(-7157.461 -2070.087)" fill="none" stroke="#db9eb2" stroke-width="6"/>
        <path id="Path_39384" data-name="Path 39384" d="M44.855,112.185a96.653,96.653,0,0,1,96.652-96.653" transform="translate(-7154.694 -2067.321)" fill="none" stroke="#cc9ca7" stroke-width="6"/>
        <path id="Path_39387" data-name="Path 39387" d="M114.408,11.66a106.9,106.9,0,0,1,77.1-2.784" transform="translate(-7169.727 -2064.612)" fill="none" stroke="#392d31" stroke-width="6"/>
        <path id="Path_39389" data-name="Path 39389" d="M179.228,193.624a70.527,70.527,0,0,1-98.586-87.661l-7.325-2.8a78.357,78.357,0,0,0,109.542,97.4Z" transform="translate(-7159.73 -2086.261)" fill="#cc9ca7"/>
      </g>
    </g>
    <g id="Group_7402" data-name="Group 7402" transform="translate(-37.799 169.356) rotate(-7)">
      <g id="Group_7400" data-name="Group 7400">
        <path id="Path_40148" data-name="Path 40148" d="M2424.09,1448.973a2,2,0,1,1-2-2,2,2,0,0,1,2,2" transform="translate(-936.318 -1415.196) rotate(9)" fill="#3f89a1"/>
        <path id="Path_40196" data-name="Path 40196" d="M2105.914,1791.413a2,2,0,1,1-2-2,2,2,0,0,1,2,2" transform="translate(-637.294 -1649.691) rotate(9)" fill="#3f89a1"/>
        <path id="Path_40216" data-name="Path 40216" d="M1752.214,1773.827a2,2,0,1,1-2-2,2,2,0,0,1,2,2" transform="translate(-355.532 -1590.589) rotate(9)" fill="#3f89a1"/>
        <rect id="Rectangle_6601" data-name="Rectangle 6601" width="57.534" height="37.289" transform="matrix(0.84, -0.543, 0.543, 0.84, 1051.456, 456.755)" fill="#be667b"/>
        <path id="Path_40234" data-name="Path 40234" d="M1580,1932l-23.553-27.281c-.766-.854-1.161-2.7-.308-3.467s2.647-.172,3.413.682l23.553,27.282c.766.854,1.162,2.7.308,3.467s-2.647.172-3.413-.682" transform="translate(-184.506 -1669.74) rotate(9)" fill="#cb9ca7"/>
        <path id="Path_40235" data-name="Path 40235" d="M1604.238,1910.26l-23.553-27.282c-.766-.854-1.162-2.7-.308-3.467s2.647-.172,3.413.682l23.553,27.282c.766.854,1.161,2.7.308,3.467s-2.647.172-3.413-.682" transform="translate(-206.735 -1655.365) rotate(9)" fill="#cb9ca7"/>
        <path id="Path_40236" data-name="Path 40236" d="M1628.48,1888.518l-23.553-27.282c-.766-.854-1.162-2.7-.308-3.467s2.647-.172,3.413.682l23.553,27.281c.766.854,1.162,2.7.308,3.467s-2.647.172-3.413-.681" transform="translate(-228.966 -1640.99) rotate(9)" fill="#cb9ca7"/>
        <path id="Path_40237" data-name="Path 40237" d="M1652.722,1866.776l-23.553-27.282c-.766-.854-1.162-2.7-.308-3.467s2.647-.172,3.413.682l23.553,27.282c.766.854,1.162,2.7.308,3.467s-2.647.172-3.413-.682" transform="translate(-251.195 -1626.616) rotate(9)" fill="#cb9ca7"/>
        <path id="Path_40238" data-name="Path 40238" d="M1676.963,1845.033l-23.553-27.282c-.766-.854-1.162-2.7-.308-3.467s2.647-.172,3.413.682l23.553,27.282c.766.854,1.162,2.7.308,3.467s-2.647.172-3.413-.682" transform="translate(-273.425 -1612.241) rotate(9)" fill="#cb9ca7"/>
        <path id="Path_40239" data-name="Path 40239" d="M1701.206,1823.291l-23.553-27.281c-.766-.854-1.162-2.7-.308-3.467s2.647-.172,3.413.682l23.553,27.281c.766.854,1.162,2.7.308,3.467s-2.647.172-3.413-.682" transform="translate(-295.655 -1597.866) rotate(9)" fill="#182a69"/>
        <path id="Path_40240" data-name="Path 40240" d="M1725.448,1801.547l-23.553-27.281c-.766-.854-1.162-2.7-.308-3.467s2.647-.172,3.413.682l23.553,27.282c.766.854,1.162,2.7.308,3.467s-2.647.172-3.413-.682" transform="translate(-317.885 -1583.49) rotate(9)" fill="#182a69"/>
        <path id="Path_40241" data-name="Path 40241" d="M1749.689,1779.805l-23.553-27.282c-.766-.854-1.162-2.7-.308-3.467s2.647-.172,3.413.682l23.553,27.281c.766.854,1.162,2.7.308,3.467s-2.647.172-3.413-.682" transform="translate(-340.114 -1569.115) rotate(9)" fill="#182a69"/>
        <path id="Path_40242" data-name="Path 40242" d="M1602.123,1932.008a.578.578,0,0,1-.318-.083c-11.715-6.971-21.49-24.672-21.9-25.423a.59.59,0,0,1,1.035-.567c.1.181,10.033,18.17,21.469,24.977a.589.589,0,0,1-.286,1.1" transform="translate(-203.318 -1676.611) rotate(9)" fill="#392d31"/>
        <path id="Path_40243" data-name="Path 40243" d="M1626.7,1909.977a.593.593,0,0,1-.367-.115c-12.562-9.336-21.5-25.466-21.583-25.628a.589.589,0,1,1,1.033-.567c.088.159,8.9,16.068,21.253,25.248a.59.59,0,0,1-.336,1.063" transform="translate(-226.096 -1661.891) rotate(9)" fill="#392d31"/>
        <path id="Path_40244" data-name="Path 40244" d="M1652.946,1887.7a.573.573,0,0,1-.285-.066c-13.393-6.885-22.209-25.388-22.578-26.172a.59.59,0,0,1,1.067-.5c.088.19,9.018,18.927,22.05,25.628a.589.589,0,0,1-.254,1.113" transform="translate(-249.345 -1646.857) rotate(9)" fill="#392d31"/>
        <path id="Path_40245" data-name="Path 40245" d="M1676.514,1866.557a.584.584,0,0,1-.343-.1,65.524,65.524,0,0,1-22.532-26.166.59.59,0,1,1,1.09-.451,64.291,64.291,0,0,0,22.1,25.637.589.589,0,0,1-.311,1.08" transform="translate(-270.957 -1632.876) rotate(9)" fill="#392d31"/>
        <path id="Path_40246" data-name="Path 40246" d="M1919.3,1660.637s5.993,3.493,38-12.673c25.015-12.635,26.867-31.756,26.867-31.756s-32.244-18.938-46.57-11.051-18.294,55.48-18.294,55.48" transform="translate(-514.344 -1476.979) rotate(9)" fill="#cb9ca7"/>
        <path id="Path_40247" data-name="Path 40247" d="M2093.185,1452.305s44.037-3.691,50.722-2.2,16.6,27.046,18.37,30.546-7.7,25.582-12.617,30.875c-7.667,8.26-8.574-6.394-7.323-11.3s4.649-15.505,4.649-15.505l-11.467-15.458s-24.286,2.9-30.441,3.793c-2.844.412-20.107-20.214-11.893-20.753" transform="translate(-671.72 -1375.576) rotate(9)" fill="#cb9ca7"/>
        <path id="Path_40248" data-name="Path 40248" d="M2407.338,1616.327a7.612,7.612,0,0,1-3.051,2.47,17.235,17.235,0,0,1-3.69,1.3,19.777,19.777,0,0,1-3.885.525,14.525,14.525,0,0,1-3.884-.4.415.415,0,0,1,.114-.818,18.753,18.753,0,0,0,3.67-.078,18.949,18.949,0,0,0,3.526-.836c1.146-.393,2.252-.883,3.366-1.36a18.094,18.094,0,0,1,3.5-1.266.307.307,0,0,1,.379.229.3.3,0,0,1-.044.229" transform="translate(-892.693 -1547.296) rotate(9)" fill="#cc9ca7"/>
        <path id="Path_40249" data-name="Path 40249" d="M2180.512,1408.852s49.907,5.758,57.023,8.92,12.443,33.865,13.625,38.161-4.916,31.64-11.468,36.586c-7.764,5.86-9.331-8.465-8.529-14.164,1.183-8.408,2.657-18.441,2.657-18.441l-9.929-22.671s-27.718-2.21-34.776-2.6c-3.262-.179-17.878-27.035-8.6-25.795" transform="translate(-746.368 -1353.701) rotate(9)" fill="#392d31"/>
        <path id="Path_40250" data-name="Path 40250" d="M2255.412,1460.81c5.108.342,6.847.615,13.774,1.152,6.9-3.657,26.057-9.722,28.212-9.809,1.712-.069,5.789-.294,8.99-.475-1.657-4.007-3.505-7.042-5.493-7.925-1.933-.859-7.035-1.91-13.425-2.985-10.9,2.379-21.957,5.152-21.957,5.152Z" transform="translate(-804.884 -1389.273) rotate(9)" fill="#cb9ca7"/>
        <path id="Path_40251" data-name="Path 40251" d="M2442.686,1462.406a.355.355,0,0,1,.288.107,4.505,4.505,0,0,1,1.177,3.113,7.958,7.958,0,0,1-.654,3.206,15.9,15.9,0,0,1-3.608,5.072,29.978,29.978,0,0,1-4.663,3.814c-.83.549-1.635,1.136-2.5,1.619l-2.581,1.462a.519.519,0,0,1-.564-.869c1.59-1.174,3.159-2.308,4.642-3.536a36.371,36.371,0,0,0,4.146-3.921,18.964,18.964,0,0,0,3.008-4.549,9.721,9.721,0,0,0,1-5.03l-.01-.1a.355.355,0,0,1,.321-.386" transform="translate(-941.809 -1428.768) rotate(9)" fill="#cc9ca7"/>
        <path id="Path_40252" data-name="Path 40252" d="M2496.615,1665.133a10.185,10.185,0,0,1-3.732,2.658,16.653,16.653,0,0,1-4.375,1.343,20.586,20.586,0,0,1-4.6.114,15.5,15.5,0,0,1-4.418-1.1.289.289,0,0,1,.141-.556,19.028,19.028,0,0,0,4.285.083,22.416,22.416,0,0,0,4.119-.817c1.336-.406,2.694-.731,4.036-1.176a30.82,30.82,0,0,1,4.191-1.126.364.364,0,0,1,.44.283.36.36,0,0,1-.081.3" transform="translate(-956.194 -1597.425) rotate(9)" fill="#cc9ca7"/>
        <path id="Path_40253" data-name="Path 40253" d="M2225.605,1353.418s53.864-9.528,62.273-8.444,23.525,31.461,26.1,35.575-4.031,34.942-9.489,42.021c-8.518,11.049-12.273-6-11.818-15.169.311-6.259,2.774-19.386,2.774-19.386l-16.725-19.721s-28.995,6.713-36.479,8.507c-3.459.829-26.7-21.79-16.632-23.383" transform="translate(-791.13 -1308.178) rotate(9)" fill="#392d31"/>
        <path id="Path_40254" data-name="Path 40254" d="M2288.614,1344.974c-7.962-1.026-56.645,7.455-61.8,8.361-.961,1.254-1.9,2.516-2.812,3.751,1.1,4.811,6.453,9.752,11.888,14.208,17.263-5.416,39.051-12.454,45.568-14.8,5.534-1.991,12.86-2.264,17.48-2.2-3.711-5.077-7.418-8.949-10.323-9.324" transform="translate(-791.856 -1308.292) rotate(9)" fill="#cb9ca7"/>
        <path id="Path_40255" data-name="Path 40255" d="M2529.313,1343.684a.339.339,0,0,1,.231.188,6.159,6.159,0,0,1,.412,3.326,16.645,16.645,0,0,1-.653,3.094,36.316,36.316,0,0,1-2.357,5.731c-.89,1.851-1.883,3.642-2.878,5.424s-2.06,3.521-3.155,5.239a.52.52,0,0,1-.908-.5c1.741-3.668,3.544-7.282,5.034-11.009.743-1.858,1.43-3.735,2.077-5.592l.937-2.775c.3-.9.634-1.878.821-2.7l.038-.168a.335.335,0,0,1,.4-.253" transform="translate(-1029.643 -1344.956) rotate(9)" fill="#cc9ca7"/>
        <path id="Path_40256" data-name="Path 40256" d="M2627.6,1540.934a4.166,4.166,0,0,1-1.386,2.532,10.487,10.487,0,0,1-2.2,1.658,13.811,13.811,0,0,1-4.993,1.753,50.16,50.16,0,0,1-5.161.515c-1.716.081-3.428.045-5.132-.007a.289.289,0,0,1-.045-.573,79.659,79.659,0,0,0,9.806-2.208c1.56-.511,3.134-.875,4.636-1.392a13.2,13.2,0,0,0,2.153-.928,4.532,4.532,0,0,0,1.639-1.422l.075-.127a.325.325,0,0,1,.6.2" transform="translate(-1075.664 -1514.31) rotate(9)" fill="#cc9ca7"/>
        <path id="Path_40257" data-name="Path 40257" d="M2162.614,1346.913s-9.675,2.574-17.1,8.659c-6.045,4.953,10.113,19.664,15.263,17.385s21-15.524,21-15.524Z" transform="translate(-727.507 -1299.767) rotate(9)" fill="#182a69"/>
        <path id="Path_40258" data-name="Path 40258" d="M2205.721,1198.324s75.157-19.815,93.441-25.255,37.445-10.15,43.481-6,.32,13.9-34.005,23.031c-34.934,9.3-70,25.8-78.793,27.335-3.885.679-5.98-2.042-14.747-10.7-6.287-6.21-14.24-7.435-9.377-8.408" transform="translate(-798.787 -1161.728) rotate(9)" fill="#392d31"/>
        <path id="Path_40259" data-name="Path 40259" d="M2712.4,1205.8a7.7,7.7,0,0,1,4.925,2.2c.312.337.631.677.933,1.031.272.37.518.762.777,1.148a10.216,10.216,0,0,1,.921,2.553,18.78,18.78,0,0,1,.41,2.619c.033.871.076,1.737.042,2.594-.08.856-.119,1.708-.234,2.548l-.458,2.493a.288.288,0,0,1-.572-.044,45.159,45.159,0,0,0-.31-4.932c-.11-.8-.26-1.589-.413-2.366a22.014,22.014,0,0,0-2.679-6.251,8.556,8.556,0,0,0-3.437-2.917.358.358,0,0,1-.226-.474.341.341,0,0,1,.32-.2" transform="translate(-1201.414 -1258.683) rotate(9)" fill="#cc9ca7"/>
        <path id="Path_40260" data-name="Path 40260" d="M2487.218,1264.785a4.185,4.185,0,0,1,3.247.33,7.678,7.678,0,0,1,2.469,2.009,15.585,15.585,0,0,1,2.774,5.341,35.537,35.537,0,0,1,1.37,5.667c.318,1.9.478,3.817.622,5.724a.519.519,0,0,1-1.027.141,56.467,56.467,0,0,0-2.918-10.8,20.492,20.492,0,0,0-2.612-4.624,9.014,9.014,0,0,0-3.819-3.089l-.113-.044a.352.352,0,0,1,.008-.659" transform="translate(-1013.229 -1277.26) rotate(9)" fill="#cc9ca7"/>
        <path id="Path_40261" data-name="Path 40261" d="M1959.939,1683.105a127.371,127.371,0,0,1-14.652-11.5,12.373,12.373,0,0,1,16.76-18.208c6.774,6.215,20.105,15.721,27.208,16.392a12.373,12.373,0,1,1-2.334,24.636c-9.291-.88-19.133-6.054-26.982-11.317" transform="translate(-526.044 -1517.43) rotate(9)" fill="#392d31"/>
        <path id="Path_40262" data-name="Path 40262" d="M1710.5,1421.323c16.5-15.089,29.171-22.087,39.734-29.128,11.154-7.435,25.276-.086,33.323,8.041,7.071,7.142,11.04,14.839,7.489,29.763-.958,4.025-3.343,14.023-17.291,21.949-1.79,1.017-7.684-10-12.577-11.842-1.462-.551-8.579-2.117-22.632,8.8-13.349,10.368.6,34-10.51,38.314-13.368,5.191-22.749,10.1-34.773,7.787-4.265-.822-21.293-16.067-23.506-24.095-3.24-11.751,14.747-25.814,40.743-49.587" transform="translate(-340.906 -1273.272) rotate(9)" fill="#392d31"/>
        <path id="Path_40263" data-name="Path 40263" d="M1770,1824.515c-10.24,2.464-20.583,5.344-25.212,6.658,4.137,3.693,8.031,6.455,9.779,6.791,12.024,2.316,21.4-2.594,34.773-7.786,6.1-2.369,4.647-10.565,4.305-19.19-9.764,8.007-15.324,11.525-23.645,13.527" transform="translate(-347.8 -1621.598) rotate(9)" fill="#392d31"/>
        <path id="Path_40264" data-name="Path 40264" d="M2196.756,1471.313c-1.186,3.742,1.678,3.93-23.348,25.007,4.245,3.585,8.6,11.108,10.094,10.259,13.949-7.927,16.333-17.925,17.291-21.949,3.313-13.923.079-21.555-6.111-28.314,1.967,4.089,3.738,9.745,2.074,15" transform="translate(-737.063 -1391.327) rotate(9)" fill="#cb9ca7"/>
        <path id="Path_40265" data-name="Path 40265" d="M1885.439,1559.322c-.139.126-1.053.954-1.375,1.247,11.321,1.869,37.172,13.164,47.1,17.629a10.743,10.743,0,0,1,4.146.152c-4.5-2.08-35.995-16.483-49.876-19.029" transform="translate(-491.638 -1437.239) rotate(9)" fill="#cb9ca7"/>
        <path id="Path_40266" data-name="Path 40266" d="M1819.176,1707.868c-11.267-7.808-17.6-17.959-17.365-27.845.177-7.551,4.2-14.17,11.343-18.638,14.223-8.906,49.954-9.195,51.467-9.208l.009,1.573c-.37,0-36.8.3-50.641,8.967-6.675,4.18-10.442,10.338-10.605,17.344-.219,9.348,5.865,19.012,16.69,26.517Z" transform="translate(-413.78 -1501.334) rotate(9)" fill="#cc9ca7"/>
        <path id="Path_40267" data-name="Path 40267" d="M1858.984,1746.085a3.968,3.968,0,1,1-4.854-2.814,3.968,3.968,0,0,1,4.854,2.814" transform="translate(-441.858 -1580.649) rotate(9)" fill="#fff"/>
        <path id="Path_40268" data-name="Path 40268" d="M1863.5,1752.24a2.631,2.631,0,1,1-3.219-1.866,2.631,2.631,0,0,1,3.219,1.866" transform="translate(-446.689 -1587.297) rotate(9)" fill="#182a69"/>
        <path id="Path_40269" data-name="Path 40269" d="M1982.991,1488.216c2.524.958,3.375-2.054,1.074-2.976,0,0-4.337-1.843-10.823-4.1q-1.638,1.18-3.336,2.453c4.777,1.626,9.828,3.39,13.085,4.626" transform="translate(-570.507 -1385.377) rotate(9)" fill="#cb9ca7"/>
        <path id="Path_40270" data-name="Path 40270" d="M1958.809,1508.447s-5.961-2.531-14.356-5.3q-1.563,1.208-3.177,2.509c5.615,1.887,12.417,4.233,16.459,5.767,2.524.958,3.375-2.054,1.074-2.975" transform="translate(-544.719 -1399.409) rotate(9)" fill="#cb9ca7"/>
        <path id="Path_40271" data-name="Path 40271" d="M1934.07,1534.978c2.524.958,3.375-2.054,1.074-2.975,0,0-7.662-3.257-17.864-6.427q-1.472,1.22-2.988,2.527c5.974,1.979,14.891,5.02,19.778,6.874" transform="translate(-520.201 -1413.987) rotate(9)" fill="#cb9ca7"/>
        <path id="Path_40272" data-name="Path 40272" d="M2198.578,1741.922c13.418,4.444,15.394,18.344.471,21.715-10.3,2.327-6.823.092-26.089,3.539-15.409,2.757-17.158-6.371-17.206-14.49-.079-13.492,5.926-17.109,18.293-14.839,13.617,2.5,17.075,1.606,24.53,4.075" transform="translate(-687.165 -1614.627) rotate(9)" fill="#644b53"/>
        <path id="Path_40273" data-name="Path 40273" d="M1273.048,1909.193c-1.818-2.005-4.221-.355-16.821,6.045-11.173,5.675-39.983,19.065-45.464,23.888s28.722,27.814,32.982,32.078c9.246,9.255,21.273,16.229,28.34,9.756,5.622-5.15,11.61-14.662,17.122-21.392,11.034-13.472,14.988-14.844,12.9-17.987-.565-.852-4.711-2.575-14.825-13.616-9.78-10.676-13.4-17.852-14.238-18.772" transform="translate(93.848 -1631.817) rotate(9)" fill="#392d31"/>
        <path id="Path_40274" data-name="Path 40274" d="M1428.313,2096.441c9.764,7.274,16.544,7.677,21.11,3.495,5.622-5.15,11.61-14.662,17.122-21.392,11.034-13.472,14.987-14.843,12.9-17.987-.39-.589-2.5-1.6-7.1-5.816-1.283,3.452-6.732,14-10.372,17.874-6.986,7.438-25.01,18.311-33.662,23.827" transform="translate(-62.695 -1777.07) rotate(9)" fill="#ca9ca7"/>
        <path id="Path_40275" data-name="Path 40275" d="M1362.191,1942.709a187.619,187.619,0,0,0,20.424-10.185c1.058-.616,1.146-1.479.786-2.051-1.542.79-3.285,1.686-5.318,2.718-7.808,3.966-13.454,6.254-18.019,8.918a1.525,1.525,0,0,0,2.127.6" transform="translate(-23.699 -1668.611) rotate(9)" fill="#cb9ca7"/>
        <path id="Path_40276" data-name="Path 40276" d="M1392.828,1953.255c2.013-1.171.557-3.27-.931-2.469-2.709,1.458-14.84,7.587-20.634,10.234-2.128.972-.828,3.278,1.141,2.421a187.623,187.623,0,0,0,20.424-10.185" transform="translate(-29.252 -1686.063) rotate(9)" fill="#ca9ca7"/>
      </g>
      <g id="Group_7401" data-name="Group 7401">
        <path id="Path_40151" data-name="Path 40151" d="M3246.519,1059.511a2,2,0,1,1-2-2,2,2,0,0,1,2,2" transform="translate(-1646.206 -1207.073) rotate(9)" fill="#57b2cf"/>
        <path id="Path_40222" data-name="Path 40222" d="M3907.214,627.288a2,2,0,1,1-2-2,2,2,0,0,1,2,2" transform="translate(-2231.669 -944.048) rotate(9)" fill="#3f89a1"/>
        <path id="Path_40277" data-name="Path 40277" d="M3228.717,657.364s-9.119,30.385-9.949,37.4-2.043,24.313.407,29.775c2.156,4.806,22.235,25.492,27.658,26.615s7.878-5.533,5.226-14.582c-3.271-11.168-14.593-21.182-14.593-21.182s2.469-12.819,4.042-15.388c0,0,8.448,17.979,10.548,21.214,3.316,5.106,20.674,23.048,24.442,26.229,4.539,3.833,11.927-1.215,11.009-8.589-1.839-14.764-15.923-21.5-17.022-22.741s-6.9-18.292-7.168-21.6,10.7,18.095,10.7,18.095,15.47,16.7,18.337,18.525,10.452-5.912,3.167-15.855c-4.75-6.482-9.752-12.222-11.237-14.825s18.109-24.374,18.521-25.935c1.394-5.281,6.231-41.256.364-40.288s-74.457,23.142-74.457,23.142" transform="translate(-1680.133 -864.031) rotate(9)" fill="#e5aea3"/>
        <path id="Path_40278" data-name="Path 40278" d="M3181.6,161.112s-62.415,50.063-77.267,54.735c-24.353,7.66-65.558,11.442-93.4,18.443-5.023,1.263-13.523,1.273-18.432,4.932-1.63,1.215-7.941,5.543-10.5,7.424-9.4,6.9-35.9,22.535-44.21,30.541-9.478,9.133-26.557,34.347-31.784,42.766-6.895,11.105,9.631,15.567,21.312,6.638,8.535-6.525,19.4-24.935,22.784-27.142,1.59-1.036,36.9-18.315,40.167-19.747,6.215-2.722,20.69-5.912,25.83-5.13,9.177,1.4,24.575,8.966,23.7,12.233-1.289,4.82-13.1,13.135-29.962,19.715-5,1.953-16.528,1.972-29.333,7.033-8.839,3.494-13.747,15.129-3.747,20.07,5.628,2.781,24.382-.65,36.656-3.218,5.108-1.069,24.611-6.079,31.451-7.475,13.259-2.707,34.427-13.49,46.352-19.984,24.632-13.416,17.7-20.83,31.5-29.428,7.065-4.4,72.736-30.727,91.914-38.036,27.259-10.389-20.357-81.268-33.028-74.369" transform="translate(-1488.761 -443.942) rotate(9)" fill="#f3beb6"/>
        <path id="Path_40279" data-name="Path 40279" d="M3611.1,197.469c8.819-7.116,28.225-23.352,43.547-33.062-4.043-3.175-7.587-4.568-9.933-3.291,0,0-62.415,50.063-77.267,54.735-24.353,7.66-65.558,11.442-93.4,18.443,0,0,85.126-9.136,99.089-11.641s23.783-13.741,37.963-25.183" transform="translate(-1946.165 -516.391) rotate(9)" fill="#f2a99e"/>
        <path id="Path_40281" data-name="Path 40281" d="M3049.59,699.644c-6.519-3.316-9.221-14.258-17.8-7.125s-41.03,22.236-48.416,24.223c-10.664,2.868-10.618-3.945-12.619,5.8-1.2,5.848-5.589,12.125-12.04,20.264-6.494,8.194-13.492,16.6-24.006,18.536,4.723,1.234,11.567.071,17.265-4.284,8.535-6.525,19.4-24.935,22.783-27.142,1.59-1.036,36.9-18.315,40.167-19.747,6.215-2.722,20.689-5.911,25.83-5.13,9.177,1.4,24.574,8.965,23.7,12.233-.437,1.632-2.405,4.221-5.352,6.993,0,0,11.1-5.788,15.028-12.4s-18.025-8.9-24.543-12.217" transform="translate(-1445.776 -872.963) rotate(9)" fill="#e69e91"/>
        <path id="Path_40282" data-name="Path 40282" d="M2910.661,973.62s3.681,1.005,5.066,4.185c1.044,2.4-4.583,11.5-7.073,10.984-4.266-.881-4.263-3.268-4.263-3.268s-.321-3.6,6.27-11.9" transform="translate(-1385.38 -1096.714) rotate(9)" fill="#f7e1d7"/>
        <path id="Path_40283" data-name="Path 40283" d="M3332.621,1004.793a4.4,4.4,0,0,1,4.584,2.055c3.189,5.863.26,8.931-.438,9.26s-2.025-.371-1.92-2.524c.006-.129-2.226-8.79-2.226-8.79" transform="translate(-1725.267 -1176.154) rotate(9)" fill="#de7b54"/>
        <path id="Path_40284" data-name="Path 40284" d="M3269.021,1008.418c-1.247,1.6-.459,8.579,3.587,9.97,1.728.594,7.111.547,11.439-2,1.168-.686,1.169-4.043.667-6.6-.44-2.249-1.316-3.8-2.4-4.51-2.937-1.943-11.146.372-13.3,3.138" transform="translate(-1673.787 -1167.861) rotate(9)" fill="#f0d2c5"/>
      </g>
    </g>
  </g>
</svg>
