<svg xmlns="http://www.w3.org/2000/svg" xmlns:xlink="http://www.w3.org/1999/xlink" width="650.482" height="557.082" viewBox="0 0 650.482 557.082"><defs><style>.a{fill:url(#a);}.b{fill:url(#g);}.c,.e{opacity:0.54;}.d{fill:#dde3e6;stroke:rgba(0,0,0,0);stroke-miterlimit:10;opacity:0.53;mix-blend-mode:multiply;isolation:isolate;}.e{fill:#f2f4f5;}.f{fill:#575757;}.bk,.g,.s{opacity:0.25;}.h{fill:#171717;}.i,.v{opacity:0.2;}.aa,.ac,.ae,.ag,.az,.be,.j,.v,.y{fill:#fff;}.k{fill:#38404a;}.l{fill:#f1997c;}.m{fill:#ea7764;}.ah,.n{fill:#e30045;}.o{fill:#c70842;}.p{fill:#2e2e2e;}.q{fill:#efefef;}.r,.s{fill:#5e5e5e;}.t{fill:#2d2d2d;}.u{fill:url(#h);}.w{fill:#d5d5d5;}.x{fill:url(#i);}.y{stroke:#e30045;}.z{fill:#e4abbc;}.aa{stroke:#10d2ab;opacity:0.5;}.ab{fill:#67e2c9;}.ac{stroke:#09aa89;}.ad{fill:#10d2ab;}.ad,.af,.ah{font-size:14px;font-family:ProximaNova-Bold, Proxima Nova;font-weight:700;}.ae{stroke:#bebebe;}.af{fill:#0c0c0c;}.ag{stroke:#b7b7b7;}.ai{fill:#e49574;}.aj{fill:url(#k);}.ak{fill:url(#l);}.al,.aq,.ar{fill:none;}.al{stroke:#707070;}.am{clip-path:url(#o);}.an{fill:url(#p);}.ao{fill:url(#q);}.ap{opacity:0.24;fill:url(#r);}.aq,.ar{opacity:0.99;}.ar{stroke:#101010;stroke-width:3px;}.as{clip-path:url(#w);}.at{fill:url(#x);}.au{fill:url(#y);}.av{fill:url(#aa);}.aw{fill:url(#ab);}.ax{fill:url(#ac);}.ay{fill:url(#ad);}.az{opacity:0.47;}.ba{fill:url(#ae);}.bb{opacity:0.83;fill:url(#af);}.bc{clip-path:url(#ag);}.bd{fill:#36251e;}.be{opacity:0.65;}.bf{fill:#46332c;}.bg{fill:#33221b;}.bh{fill:url(#ai);}.bi{fill:url(#ak);}.bj{fill:url(#al);}.bk{fill:#bfbfbf;}.bl,.bm{stroke:none;}.bm{fill:#101010;}.bn{filter:url(#u);}.bo{filter:url(#m);}.bp{filter:url(#e);}.bq{filter:url(#b);}</style><linearGradient id="a" x1="0.5" x2="0.5" y2="1" gradientUnits="objectBoundingBox"><stop offset="0" stop-color="#fff"/><stop offset="0.515" stop-color="#e2e2e2"/><stop offset="1" stop-color="#6e6e6e"/></linearGradient><filter id="b" x="291.968" y="156.1" width="44.236" height="32.539" filterUnits="userSpaceOnUse"><feOffset dy="3" input="SourceAlpha"/><feGaussianBlur stdDeviation="3" result="c"/><feFlood flood-opacity="0.161"/><feComposite operator="in" in2="c"/><feComposite in="SourceGraphic"/></filter><filter id="e" x="337.828" y="156.1" width="44.235" height="32.539" filterUnits="userSpaceOnUse"><feOffset dy="3" input="SourceAlpha"/><feGaussianBlur stdDeviation="3" result="f"/><feFlood flood-opacity="0.161"/><feComposite operator="in" in2="f"/><feComposite in="SourceGraphic"/></filter><radialGradient id="g" cx="0.5" cy="0.5" r="0.5" gradientTransform="translate(-0.046 1) rotate(-90) scale(1 1.092)" gradientUnits="objectBoundingBox"><stop offset="0" stop-color="#d92b3e"/><stop offset="1" stop-color="#700521"/></radialGradient><linearGradient id="h" x1="-0.261" y1="-0.131" x2="0.618" y2="0.655" gradientUnits="objectBoundingBox"><stop offset="0" stop-color="#fff"/><stop offset="0.216" stop-color="#fff" stop-opacity="0.761"/><stop offset="0.604" stop-color="#fff" stop-opacity="0.357"/><stop offset="0.874" stop-color="#fff" stop-opacity="0.098"/><stop offset="1" stop-color="#fff" stop-opacity="0"/></linearGradient><linearGradient id="i" x1="0.331" y1="0.994" x2="0.747" y2="-0.099" xlink:href="#h"/><linearGradient id="k" x1="0.5" x2="0.5" y2="1" gradientUnits="objectBoundingBox"><stop offset="0" stop-color="#db8866"/><stop offset="1" stop-color="#f7e5db"/></linearGradient><linearGradient id="l" x1="0.5" x2="0.5" y2="1" gradientUnits="objectBoundingBox"><stop offset="0" stop-color="#878787"/><stop offset="0.05" stop-color="#b7b7b7"/><stop offset="0.159" stop-color="#fff"/><stop offset="0.929" stop-color="#d5d5d5"/><stop offset="1" stop-color="#727272" stop-opacity="0"/></linearGradient><filter id="m" x="291.968" y="156.1" width="44.236" height="32.539" filterUnits="userSpaceOnUse"><feOffset dy="3" input="SourceAlpha"/><feGaussianBlur stdDeviation="3" result="n"/><feFlood flood-opacity="0.161"/><feComposite operator="in" in2="n"/><feComposite in="SourceGraphic"/></filter><clipPath id="o"><g class="bq" transform="matrix(1, 0, 0, 1, 0, 0)"><path class="a" d="M-4402.406,1834.229c-.138.259-9.239-.431-4.964-7.463s12.687-7.032,12.687-7.032,9.651,0,12.408,9.514a6.186,6.186,0,0,1-3.724,3.861S-4402.268,1833.971-4402.406,1834.229Z" transform="translate(4408.51 -1819.73)"/></g></clipPath><radialGradient id="p" cx="0.5" cy="0.5" r="0.5" gradientUnits="objectBoundingBox"><stop offset="0" stop-color="#bb8050"/><stop offset="0.661" stop-color="#d5995b"/><stop offset="1" stop-color="#7b5137"/></radialGradient><radialGradient id="q" cx="0.5" cy="0.5" r="0.5" gradientUnits="objectBoundingBox"><stop offset="0" stop-color="#856654"/><stop offset="1" stop-color="#424844"/></radialGradient><linearGradient id="r" x1="0.5" x2="0.5" y2="1" gradientUnits="objectBoundingBox"><stop offset="0" stop-color="#fff" stop-opacity="0.702"/><stop offset="1" stop-color="#fff" stop-opacity="0.212"/></linearGradient><filter id="u" x="337.827" y="156.1" width="44.235" height="32.539" filterUnits="userSpaceOnUse"><feOffset dy="3" input="SourceAlpha"/><feGaussianBlur stdDeviation="3" result="v"/><feFlood flood-opacity="0.161"/><feComposite operator="in" in2="v"/><feComposite in="SourceGraphic"/></filter><clipPath id="w"><g class="bp" transform="matrix(1, 0, 0, 1, 0, 0)"><path class="a" d="M-4388.38,1834.229c.138.259,9.238-.431,4.963-7.463s-12.684-7.032-12.684-7.032-9.652,0-12.41,9.514a6.185,6.185,0,0,0,3.722,3.861S-4388.519,1833.971-4388.38,1834.229Z" transform="translate(4408.51 -1819.73)"/></g></clipPath><radialGradient id="x" gradientTransform="matrix(-1, 0, 0, 1, 1, 0)" xlink:href="#p"/><radialGradient id="y" gradientTransform="matrix(-1, 0, 0, 1, 1, 0)" xlink:href="#q"/><linearGradient id="aa" x1="1.021" y1="1" x2="0" y2="1" gradientUnits="objectBoundingBox"><stop offset="0" stop-color="#fff"/><stop offset="0.51" stop-color="#e09375"/><stop offset="1" stop-color="#e4a48b"/></linearGradient><radialGradient id="ab" cx="0.5" cy="0.5" r="0.5" gradientUnits="objectBoundingBox"><stop offset="0" stop-color="#eb815b"/><stop offset="1" stop-color="#9f4b33"/></radialGradient><linearGradient id="ac" x1="-0.021" x2="1" xlink:href="#aa"/><radialGradient id="ad" gradientTransform="matrix(1, 0, 0, -1, 0, 1)" xlink:href="#ab"/><linearGradient id="ae" x1="1.021" y1="1" x2="0" y2="1" gradientUnits="objectBoundingBox"><stop offset="0" stop-color="#edc0ab"/><stop offset="0.402" stop-color="#f6d0c3"/><stop offset="1" stop-color="#eec1ac"/></linearGradient><linearGradient id="af" x1="0.5" x2="0.5" y2="1" gradientUnits="objectBoundingBox"><stop offset="0" stop-color="#ff895e"/><stop offset="0.515" stop-color="#b15f40"/><stop offset="1" stop-color="#ffd2c2"/></linearGradient><clipPath id="ag"><path class="b" d="M29.206,32.985c16.467,0,31.164.251,30.137,5.992S45.993,56.8,29.526,56.8,2.275,45.054-.291,38.977,12.738,32.985,29.206,32.985Z" transform="translate(0.569 -32.985)"/></clipPath><linearGradient id="ai" x1="-0.021" x2="1" xlink:href="#ae"/><linearGradient id="ak" x1="0.5" y1="1.323" x2="0.5" y2="0.054" xlink:href="#h"/><linearGradient id="al" x1="0.5" x2="0.5" y2="1" gradientUnits="objectBoundingBox"><stop offset="0" stop-color="#a2a2a2"/><stop offset="0.05" stop-color="#ececec"/><stop offset="1" stop-color="#7b7878"/></linearGradient></defs><g transform="translate(-1091.697 -161.413)"><g class="c" transform="translate(0 -3)"><path class="d" d="M5030,1180.291c0-2.406,37-4.583,96.651-6.152-8.779-1.508-40.415-7.366-15.512-9.494,28.687-2.452,76.986-5.148,76.986-5.148l-2.356,2.167c42.286-3.968,102.567-9.008,159.646-13.105l-.569,4.925c2.979,1.886,37.91-4.445,40.384-7.656,11.714-.762,23.061-1.459,33.8-2.069-2.961.653-4.7,1.259-4.7,1.728,0,3.075-2.258,5.771-5.7,17.428.028.034.054.068.083.1a4.6,4.6,0,0,1,3.251-1.334v-3.333h-.965c-2.337-7.577,80.291-14.949,80.291-14.949l1.171.44c-.428-1.139-1.714-2.044-3.667-2.748,13.388,0,20.985.7,20.411,2.325l2.318-.894,72.491,5.429s24.051,1.348,6.626,13.17h3.707a4.607,4.607,0,0,1,1.755.341h0l.02.011a4.218,4.218,0,0,1,.934.552c26.047,1.579,42.433,3.874,42.433,6.428,0,2.1-4.392,4.587-18.248,6.895,36.7,1.4,58.245,3.1,58.245,4.939,0,4.776-57.546,11.57-324.661,13.661q-18.163.142-35.688.14C5150.979,1194.091,5030,1184.757,5030,1180.291Zm149.374-6.919ZM5418,1161.685h3.706a4.613,4.613,0,0,1,2.744.909l.074.06c19.959-1.229,45.811-2.037,74.432-2.224l-3.5-2.078H5418Zm172.631-.559v0Zm-69.569-.708c23,.113-2.635-2.065-2.635-2.065C5519.415,1159.126,5520.269,1159.793,5521.065,1160.417Zm-175.408-13.966,8.7,1.224c8.762-4.541,31.006-5.258,31.006-2.189a.568.568,0,0,1-.138.341c-12.907.84-26.265,1.758-39.815,2.731Zm143.131-5.357c-16.172,0-40.8,1.018-69.76,2.663C5433.274,1140.619,5475.78,1136.4,5488.789,1141.1Z" transform="translate(-3937.803 -473.097)"/></g><path class="e" d="M-1751.367,2701.131s-25.624-50.211-32.319-85.359c-3.7-19.4-15.328-46.546-11.214-100.419,1.115-14.6,22.936-45.956,26.278-61.931,6.491-31.031-1.818-47.976,17.255-80.338,64.119-108.791-22.277-110.465,142.91-187.069s144.708,71.582,201.356,38.108c38.068-22.495,76.72,62.894,85.359,123.855,4.156,29.321,7.3,38.531-13.39,80.338,1.583,40.582,52.425,35.153,73,82.141s-2.027,145.821-46.349,190.674C-1308.477,2705.4-1751.367,2701.131-1751.367,2701.131Z" transform="translate(2952.431 -2002.317)"/><g transform="translate(1179.002 227.168)"><path class="f" d="M0,0H482.193a0,0,0,0,1,0,0V3.084a12.777,12.777,0,0,1-12.777,12.777H12.777A12.777,12.777,0,0,1,0,3.084V0A0,0,0,0,1,0,0Z" transform="translate(9.274 323.215)"/><path class="g" d="M504.172,385.012c0,2.317-95.354,4.195-212.979,4.195s-212.979-1.878-212.979-4.195,95.354-4.195,212.979-4.195S504.172,382.695,504.172,385.012Z" transform="translate(-39.822 -56.241)"/><path class="h" d="M0,0H404.87V132.156H0Z" transform="translate(47.935 339.077)"/><rect class="i" width="404.924" height="15.407" transform="translate(47.881 339.077)"/><path d="M340.081,393.1v-122.9a23.919,23.919,0,0,0-23.85-23.849H210.118a23.919,23.919,0,0,0-23.85,23.849V393.1Z" transform="translate(-14.914 -87.239)"/><g transform="translate(197.798 186.045)"><path class="j" d="M308.477,406.768l-.246-32.794c0-6.149-.633-5.794.277-6.149V276.092a7.557,7.557,0,0,0-7.76-7.852H215.694c-4.975,0-7.769,3.512-7.769,7.852v97.019l-.166,33.657Z" transform="translate(-207.758 -268.236)"/><path class="k" d="M230.965,268.237s.778,23.465,21.572,23.465c23.417,0,21.517-23.465,21.517-23.465Z" transform="translate(-202.408 -268.237)"/></g><path class="l" d="M263.85,250.347v22.011a18.706,18.706,0,0,1-.432,3.532c-.85,4.014-3.418,10.01-11.105,10.01-9.319,0-12.433-6-13.47-10.01a15.73,15.73,0,0,1-.518-3.532V250.347Z" transform="translate(-2.915 -86.316)"/><path class="m" d="M263.871,250.347v12.1a28.182,28.182,0,0,1-11.81,1.984c-6.865-.2-10.37-1.037-13.826-2.419l.111-11.667Z" transform="translate(-2.935 -86.316)"/><g transform="translate(292.942 188.033)"><path class="n" d="M369.483,386.72a30.24,30.24,0,0,1-2.731,7.355,27.031,27.031,0,0,1-5.319,7.051,24.485,24.485,0,0,1-4.034,3.091,23.032,23.032,0,0,1-5.025,2.291,22.323,22.323,0,0,1-5.589,1.016c-.47.027-.934.031-1.4.031l-.162,0h-.063l-.121-.006-.241-.015-.968-.044-3.867-.187-30.956-1.5V379.876l27.05-1.31L290,321.807a12.419,12.419,0,0,0-.912-.988c-3.726-10.117-4.349-21.123-3.865-30.3a106.716,106.716,0,0,1,3.032-20.5l.187-.166,75.855,91.917,1.2,1.448.335.537a29.675,29.675,0,0,1,3.34,7.614,30.64,30.64,0,0,1,1.12,7.781A31.389,31.389,0,0,1,369.483,386.72Z" transform="translate(-285.078 -269.853)"/><path class="o" d="M369.456,386.72a30.238,30.238,0,0,1-2.731,7.355,27.031,27.031,0,0,1-5.319,7.051,24.485,24.485,0,0,1-4.034,3.091,23.033,23.033,0,0,1-5.025,2.291,22.324,22.324,0,0,1-5.589,1.016c-.47.027-.934.031-1.4.031l-.162,0h-.063l-.121-.006-.241-.015-.968-.044-3.867-.187-30.956-1.5v-9.817c8.174,1.087,18.477,2.386,26.961,3.25,16.937,1.728,31.453-10.715,24.886-25.577-4.911-11.113-50.111-57.181-72.607-79.72-.76-.764-1.867-2.04-3.028-3.418a106.719,106.719,0,0,1,3.032-20.5l.187-.166,75.855,91.917,1.2,1.448.335.537a29.675,29.675,0,0,1,3.34,7.614,30.64,30.64,0,0,1,1.12,7.781A31.389,31.389,0,0,1,369.456,386.72Z" transform="translate(-285.052 -269.853)"/></g><g transform="translate(118.312 188.14)"><path class="n" d="M143.969,386.807a30.189,30.189,0,0,0,2.731,7.355,27.01,27.01,0,0,0,5.32,7.051,24.49,24.49,0,0,0,4.034,3.091,23.034,23.034,0,0,0,5.025,2.291,22.324,22.324,0,0,0,5.589,1.016c.47.027.933.031,1.4.031l.162,0h.062l.122-.006.241-.015.968-.044,3.868-.187,30.956-1.5V379.963l-27.05-1.311,46.061-56.759a12.987,12.987,0,0,1,.913-.988c3.726-10.117,4.349-21.123,3.864-30.3a106.679,106.679,0,0,0-3.031-20.5l-.187-.166-75.855,91.918-1.2,1.448-.336.535a29.717,29.717,0,0,0-3.338,7.614,30.641,30.641,0,0,0-1.12,7.781A31.39,31.39,0,0,0,143.969,386.807Z" transform="translate(-143.163 -269.94)"/><path class="o" d="M143.969,386.807a30.189,30.189,0,0,0,2.731,7.355,27.01,27.01,0,0,0,5.32,7.051,24.49,24.49,0,0,0,4.034,3.091,23.034,23.034,0,0,0,5.025,2.291,22.324,22.324,0,0,0,5.589,1.016c.47.027.933.031,1.4.031l.162,0h.062l.122-.006.241-.015.968-.044,3.868-.187,30.956-1.5V396.07c-8.174,1.085-18.479,2.385-26.961,3.249-16.937,1.728-31.453-10.715-24.886-25.577,4.911-11.113,50.111-57.181,72.606-79.72.76-.764,1.867-2.039,3.027-3.418a106.679,106.679,0,0,0-3.031-20.5l-.187-.166-75.855,91.918-1.2,1.448-.336.535a29.717,29.717,0,0,0-3.338,7.614,30.641,30.641,0,0,0-1.12,7.781A31.39,31.39,0,0,0,143.969,386.807Z" transform="translate(-143.163 -269.94)"/></g><g transform="translate(49.655 159.801)"><path class="p" d="M146.651,264.052A4.232,4.232,0,0,1,140.8,265.3l-6.469-4.2-7.29-4.731L96.207,281.539l19.68,107.467,1.221,6.665,1.424,7.765a4.232,4.232,0,0,1-3.4,4.924,4.411,4.411,0,0,1-.768.07,4.229,4.229,0,0,1-4.154-3.469l-1.7-9.29-1.221-6.665-19.852-108.4a4.226,4.226,0,0,1,1.486-4.039l35.159-28.7a4.224,4.224,0,0,1,4.976-.27l11.1,7.2,5.246,3.4A4.231,4.231,0,0,1,146.651,264.052Z" transform="translate(-87.368 -246.909)"/><path class="q" d="M137.853,262.575A4.232,4.232,0,0,1,132,263.82l-6.469-4.2c.581-3.314,3.8-5.338,5.828-6.3l5.246,3.4A4.231,4.231,0,0,1,137.853,262.575Z" transform="translate(-78.57 -245.432)"/></g><g transform="translate(96.616 163.777)"><g transform="translate(0 0)"><path class="r" d="M166.573,271.912l.009,0a14.34,14.34,0,0,1,2.647,1.952,14.051,14.051,0,1,1-19.173,20.546q-.41-.377-.779-.79a14.053,14.053,0,0,1,17.3-21.711Z" transform="translate(-120.907 -245.543)"/><path class="r" d="M165.882,271.57l.009,0a14.343,14.343,0,0,1,2.647,1.952,14.127,14.127,0,0,1,2.383,2.905l0,.007-18.532,19.788a14.1,14.1,0,0,1-3.021-2.155q-.41-.377-.779-.79C152.706,286.507,160.169,275.131,165.882,271.57Z" transform="translate(-120.217 -245.201)"/><path class="r" d="M131.589,257.9c3.166-3.391,7.473-4.517,9.619-2.514s1.319,6.377-1.847,9.769-7.473,4.517-9.619,2.514S128.422,261.3,131.589,257.9Z" transform="translate(-124.836 -249.16)"/><path class="s" d="M131.589,257.9c3.166-3.391,7.473-4.517,9.619-2.514s1.319,6.377-1.847,9.769-7.473,4.517-9.619,2.514S128.422,261.3,131.589,257.9Z" transform="translate(-124.836 -249.16)"/><path class="r" d="M184.882,259.089a5.378,5.378,0,0,1,.265,7.6L146.021,308.6l0,.009-.034.039c-.023.017-.044.044-.069.062l-.207.229-2,2.14a5.377,5.377,0,0,1-7.611.261,33.238,33.238,0,0,1-1.613-47.028l3.368-3.613a33.558,33.558,0,0,1,6.664-5.5s.06-.039.173-.1A33.283,33.283,0,0,1,184.882,259.089Z" transform="translate(-125.531 -250.141)"/><path class="r" d="M181.293,259.089a5.378,5.378,0,0,1,.265,7.6L142.432,308.6c1.062-1.392,26.521-35.028,19.09-48-7.085-12.364-18.867-6.363-20.419-5.5A33.283,33.283,0,0,1,181.293,259.089Z" transform="translate(-121.942 -250.141)"/></g><path class="g" d="M181.293,259.089a5.378,5.378,0,0,1,.265,7.6L142.432,308.6c1.062-1.392,26.521-35.028,19.09-48-7.085-12.364-18.867-6.363-20.419-5.5A33.283,33.283,0,0,1,181.293,259.089Z" transform="translate(-121.942 -250.141)"/></g><path class="t" d="M140.763,377.091v9.287H86.385v-9.287a9.289,9.289,0,0,1,9.287-9.288h35.8A9.286,9.286,0,0,1,140.763,377.091Z" transform="translate(-37.939 -59.241)"/><rect class="g" width="54.377" height="8.018" transform="translate(48.447 319.118)"/><path class="u" d="M142.184,305.5l32.292,81.017,81.479-79.456-74.646-43.472Z" transform="translate(-25.076 -83.263)"/><path class="q" d="M113.376,369.052h-8.6l-1.221-6.665h8.6Z" transform="translate(-33.98 -60.489)"/><ellipse class="v" cx="17.989" cy="17.989" rx="17.989" ry="17.989" transform="translate(230.106 263.064)"/><g transform="translate(236.403 269.037)"><path class="j" d="M249.068,343.973a2.413,2.413,0,1,0,2.441,2.382A2.412,2.412,0,0,0,249.068,343.973Z" transform="translate(-237.391 -333.771)"/><path class="j" d="M263.237,351.681a1.634,1.634,0,0,0-1.654-1.613c-.026,0-.05.007-.078.009a11.246,11.246,0,0,0-1.148-1.378c-.145-.151-.305-.3-.463-.45.154-.154.31-.308.452-.461,1.826-1.985,2.467-3.8,1.806-5.119s-2.5-1.888-5.184-1.607a17.419,17.419,0,0,0-1.9.311,17.369,17.369,0,0,0-.594-1.826c-.984-2.51-2.337-3.882-3.811-3.864a2.562,2.562,0,0,0-1.461.508,1.627,1.627,0,0,0-1.918,2.617c-.117.262-.229.538-.336.831a17.449,17.449,0,0,0-.55,1.84,17.7,17.7,0,0,0-1.9-.266c-2.687-.214-4.514.4-5.142,1.734s.055,3.134,1.929,5.073c.145.15.305.3.463.45l-.107.108a1.629,1.629,0,0,0-1.881,2.476,3.266,3.266,0,0,0-.268,3c.562,1.121,1.981,1.7,4.046,1.676.359,0,.74-.027,1.137-.068a18.008,18.008,0,0,0,1.895-.311,17.636,17.636,0,0,0,.594,1.825c.984,2.51,2.338,3.882,3.811,3.865s2.792-1.424,3.715-3.957a17.523,17.523,0,0,0,.55-1.838,17.654,17.654,0,0,0,1.9.265q.6.048,1.139.041c2.064-.025,3.468-.64,4-1.774a2.378,2.378,0,0,0,.2-.7A1.625,1.625,0,0,0,263.237,351.681Zm-6.153-9.508c.374-.039.728-.06,1.059-.064,1.578-.02,2.653.352,3.009,1.061.432.859-.162,2.265-1.629,3.859-.144.158-.3.315-.461.471a25.2,25.2,0,0,0-3.29-2.32,27.012,27.012,0,0,0-.432-2.721A16.264,16.264,0,0,1,257.084,342.173Zm-4.454,9.78c-.585.294-1.17.56-1.752.81-.588-.235-1.18-.487-1.772-.767-.77-.364-1.5-.744-2.179-1.135-.071-.781-.116-1.6-.126-2.454s.012-1.673.065-2.457c.672-.406,1.389-.8,2.152-1.187.585-.293,1.169-.56,1.751-.808.589.235,1.18.486,1.772.765.757.358,1.484.739,2.18,1.137.071.781.114,1.6.124,2.452s-.012,1.671-.065,2.454C254.1,351.178,253.377,351.578,252.63,351.953Zm2.025.177c-.071.623-.162,1.217-.27,1.778-.656-.161-1.33-.361-2.014-.591.253-.119.507-.237.76-.364C253.655,352.69,254.159,352.413,254.655,352.13Zm-5.258,1.223c-.679.247-1.349.463-2,.64-.121-.559-.225-1.151-.313-1.771.5.271,1.014.535,1.543.785C248.884,353.129,249.141,353.24,249.4,353.353Zm-3.715-4.932c.007.585.034,1.158.071,1.728a23.333,23.333,0,0,1-2.345-1.7,23.378,23.378,0,0,1,2.3-1.756C245.688,347.262,245.675,347.837,245.682,348.422Zm1.309-3.834c.073-.623.162-1.217.269-1.778.656.161,1.33.359,2.014.591-.253.119-.507.237-.759.364C247.993,344.026,247.487,344.3,246.991,344.587Zm5.258-1.224c.679-.247,1.349-.461,2-.64.121.559.226,1.151.314,1.772-.5-.272-1.015-.537-1.544-.786C252.762,343.588,252.507,343.476,252.249,343.363Zm3.715,4.933c-.007-.585-.034-1.159-.071-1.728a23.365,23.365,0,0,1,2.348,1.7,23.116,23.116,0,0,1-2.306,1.756C255.958,349.455,255.972,348.879,255.964,348.3Zm-7.621-9.089.027,0a1.634,1.634,0,0,0,1.613-1.654,1.6,1.6,0,0,0-.086-.482,1.439,1.439,0,0,1,.784-.273c1.186-.015,2.477,1.811,3.3,4.836a27.839,27.839,0,0,0-3.23,1.106,27.486,27.486,0,0,0-3.256-1.026A14.593,14.593,0,0,1,248.344,339.207Zm-7.973,4.216c.338-.717,1.4-1.115,2.982-1.135.331,0,.685.009,1.061.039a16.358,16.358,0,0,1,1.752.244,27.2,27.2,0,0,0-.367,2.73,25.247,25.247,0,0,0-3.23,2.4C240.743,345.965,239.927,344.362,240.371,343.423Zm4.191,11.12c-2.155.225-3.637-.138-4.068-1a2.155,2.155,0,0,1,.213-1.856,1.654,1.654,0,0,0,.407.053,1.634,1.634,0,0,0,1.613-1.654,1.6,1.6,0,0,0-.221-.787l.081-.084a25.127,25.127,0,0,0,3.288,2.317,26.673,26.673,0,0,0,.433,2.722A16.658,16.658,0,0,1,244.562,354.543Zm6.4,5.374c-1.185.015-2.477-1.813-3.3-4.837a27.405,27.405,0,0,0,3.23-1.106A27.484,27.484,0,0,0,254.148,355C253.4,358.045,252.15,359.9,250.965,359.917Zm6.268-5.527a16.7,16.7,0,0,1-1.752-.244,27.3,27.3,0,0,0,.367-2.731,25.317,25.317,0,0,0,3.233-2.4c.162.153.325.306.474.459a11.065,11.065,0,0,1,.907,1.063,1.629,1.629,0,0,0,.812,2.76C260.859,354.163,259.388,354.561,257.233,354.39Z" transform="translate(-239.132 -335.682)"/></g><g transform="translate(391.123 233.743)"><g transform="translate(0 47.531)"><rect class="w" width="38.24" height="47.568" transform="translate(0 0)"/><path class="q" d="M372.464,345.627h0a52.143,52.143,0,0,0,28.453,46.451l2.19,1.117H364.868V345.627Z" transform="translate(-364.868 -345.627)"/></g><g transform="translate(22.487 57.501)"><path class="w" d="M401.686,353.976a15.754,15.754,0,1,0,12.961,15.5A15.828,15.828,0,0,0,401.686,353.976Zm0,23.852a8.709,8.709,0,0,1-2.792.457,8.8,8.8,0,0,1,0-17.607,8.709,8.709,0,0,1,2.792.457,8.8,8.8,0,0,1,0,16.694Z" transform="translate(-383.142 -353.729)"/></g><g transform="translate(4.936 0)"><path class="x" d="M377.651,352.872s-14.713-8.845-6.03-20.484,9.89-19.841,4.582-25.388c0,0,11.548,4.824,11.8,17.125S373.31,339.166,377.651,352.872Z" transform="translate(-368.879 -307)"/><path class="x" d="M387.664,349.214s-8.449-5.08-3.463-11.764,5.68-11.393,2.632-14.579c0,0,6.631,2.77,6.779,9.834S385.171,341.342,387.664,349.214Z" transform="translate(-365.71 -303.342)"/></g><path class="q" d="M398.735,353.976v7.158a8.709,8.709,0,0,0-2.792-.457v-6.949A15.829,15.829,0,0,1,398.735,353.976Z" transform="translate(-357.705 -296.228)"/></g><path class="q" d="M398.735,373.314v7.157a15.711,15.711,0,0,1-2.792.249v-6.949A8.71,8.71,0,0,0,398.735,373.314Z" transform="translate(33.419 -57.971)"/><g transform="translate(361.217 90.266)"><ellipse class="y" cx="12.704" cy="12.704" rx="12.704" ry="12.704" transform="matrix(0.155, -0.988, 0.988, 0.155, 0, 25.101)"/></g><g transform="translate(367.449 97.81)"><path class="z" d="M347.549,261.612A5.55,5.55,0,0,1,342,256.068a5.47,5.47,0,0,1,.476-2.229.008.008,0,0,1,.015,0l.228,2.28a.537.537,0,0,0,.533.483.469.469,0,0,0,.054,0,.552.552,0,0,0,.478-.612l-.355-3.553a.539.539,0,0,0-.587-.481l-3.577.358a.537.537,0,0,0,.107,1.068l1.808-.181a.007.007,0,0,1,.007.01,6.969,6.969,0,0,0,7.927,9.651.708.708,0,0,0,.353-1.169l-.01-.011a.71.71,0,0,0-.679-.21A5.518,5.518,0,0,1,347.549,261.612Z" transform="translate(-338.785 -249.092)"/><path class="z" d="M366.5,253.7a.536.536,0,0,0-.735-.189l-1.895,1.12a6.877,6.877,0,0,0,.5-2.559A6.983,6.983,0,0,0,357.4,245.1a6.773,6.773,0,0,0-1.115.093.708.708,0,0,0-.391,1.192l.011.011a.706.706,0,0,0,.621.207,5.386,5.386,0,0,1,.874-.072,5.551,5.551,0,0,1,5.544,5.544,5.481,5.481,0,0,1-.384,2.014l-.976-1.651a.537.537,0,0,0-.924.547l1.829,3.094a.537.537,0,0,0,.735.189l3.094-1.829A.536.536,0,0,0,366.5,253.7Z" transform="translate(-348.631 -245.1)"/></g><g transform="translate(191.492 -20.168)"><ellipse class="aa" cx="21.887" cy="21.887" rx="21.887" ry="21.887" transform="translate(0 15.483) rotate(-20.714)"/></g><g transform="translate(209.032 -2.506)"><path class="ab" d="M175.464,144.3v-2.633h-2.3a5.888,5.888,0,0,0-.892-2.188l1.745-1.745-1.862-1.862-1.8,1.8a5.867,5.867,0,0,0-1.476-.623v-2.4h-2.633v2.3a5.878,5.878,0,0,0-2.188.892l-1.526-1.526-1.862,1.862,1.579,1.579a5.859,5.859,0,0,0-.726,1.915h-2.3V144.3h2.4a5.912,5.912,0,0,0,.974,2l-1.755,1.755,1.862,1.862,1.9-1.9a5.906,5.906,0,0,0,1.635.567v2.3h2.633v-2.4a5.888,5.888,0,0,0,1.476-.622l1.8,1.8,1.862-1.862-1.745-1.745a5.877,5.877,0,0,0,.788-1.749Zm-8.119.878a2.414,2.414,0,1,1,2.414-2.414A2.417,2.417,0,0,1,167.345,145.176Z" transform="translate(-152.482 -134.642)"/><path class="ab" d="M156.061,161.2V159.88h-1.15a2.951,2.951,0,0,0-.446-1.094l.873-.873-.93-.931-.9.9a2.933,2.933,0,0,0-.738-.311v-1.2h-1.317v1.15a2.96,2.96,0,0,0-1.094.446l-.763-.763-.931.931.789.789a2.947,2.947,0,0,0-.363.957h-1.15V161.2h1.2a2.939,2.939,0,0,0,.487,1l-.878.878.931.931.951-.952a2.941,2.941,0,0,0,.818.284v1.15h1.317v-1.2a2.933,2.933,0,0,0,.738-.311l.9.9.93-.931-.873-.873a2.946,2.946,0,0,0,.394-.874Zm-4.06.439a1.207,1.207,0,1,1,1.207-1.207A1.209,1.209,0,0,1,152,161.636Z" transform="translate(-147.942 -143.384)"/></g><g transform="translate(108.261 121.729)"><rect class="ac" width="83.514" height="26" rx="13"/><text class="ad" transform="translate(9.257 18)"><tspan x="0" y="0">Blockchain</tspan></text></g><g transform="translate(281.843 6.197)"><rect class="ac" width="61.374" height="26" rx="13"/><text class="ad" transform="translate(13.687 18)"><tspan x="0" y="0">React</tspan></text></g><g transform="translate(108.261 23.26)"><rect class="ae" width="75.942" height="26" rx="13"/><text class="af" transform="translate(39.13 18)"><tspan x="-18.655" y="0">AI/ML</tspan></text></g><g transform="translate(315.642 50.588)"><rect class="ag" width="55.15" height="23.133" rx="11.567"/><text class="af" transform="translate(28.24 16.567)"><tspan x="-11.179" y="0">IOT</tspan></text></g><g transform="translate(86.244 75.301)"><rect class="y" width="63.774" height="26.826" rx="13.413" transform="translate(0 3)"/><text class="ah" transform="translate(32.008 21.838)"><tspan x="-18.753" y="0">Cloud</tspan></text></g><g transform="translate(331.478 125.304)"><rect class="y" width="71.942" height="26.826" rx="13.413" transform="translate(0 3)"/><text class="ah" transform="translate(36.13 21.838)"><tspan x="-20.944" y="0">Flutter</tspan></text></g><path class="j" d="M91.077,231.808c-17.3,1.048-18.148,1.9-19.2,19.2-1.048-17.3-1.9-18.149-19.2-19.2,17.3-1.048,18.148-1.9,19.2-19.2C72.93,229.91,73.779,230.76,91.077,231.808Z" transform="translate(-52.684 -18.134)"/><path class="j" d="M91.077,231.808c-17.3,1.048-18.148,1.9-19.2,19.2-1.048-17.3-1.9-18.149-19.2-19.2,17.3-1.048,18.148-1.9,19.2-19.2C72.93,229.91,73.779,230.76,91.077,231.808Z" transform="translate(392.47 8.753)"/><path class="j" d="M91.077,231.808c-17.3,1.048-18.148,1.9-19.2,19.2-1.048-17.3-1.9-18.149-19.2-19.2,17.3-1.048,18.148-1.9,19.2-19.2C72.93,229.91,73.779,230.76,91.077,231.808Z" transform="translate(311.947 -212.611)"/><g transform="translate(191.776 29.661)"><g transform="translate(0 0)"><path class="ai" d="M-4357.415,1708.7c-47.3-.563-60.254-7.321-67.855,7.6s-9.574,41.671-9.574,45.895-1.97,76.585,40.546,83.342,59.068-39.982,55.972-78.274-6.981-48.992-6.981-48.992Z" transform="translate(4443.867 -1695.26)"/><g transform="translate(8.642 61.257)"><path class="aj" d="M-4413.38,1815.835s4.732-5.258,17.527-4.206,12.268,6.046,12.268,6.046.029.109.112.461c.308,1.3,1.572,7.467-.812,11.545-2.718,4.644-10.866,5-10.866,5s-9.29.263-13.5-2.454-5.872-5-5.872-8.15A49.174,49.174,0,0,1-4413.38,1815.835Z" transform="translate(4424.827 -1810.093)"/><g class="bo" transform="matrix(1, 0, 0, 1, -287.72, -156.67)"><path class="ak" d="M-4402.406,1834.229c-.138.259-9.239-.431-4.964-7.463s12.687-7.032,12.687-7.032,9.627.078,12.408,9.514c-.894,3.568-3.724,3.861-3.724,3.861S-4402.268,1833.971-4402.406,1834.229Z" transform="translate(4709.48 -1657.63)"/></g><path class="al" d="M-4375.741,1820.67" transform="translate(4405.003 -1814.786)"/><g class="am" transform="translate(13.244 5.427)"><g transform="translate(6.364 -0.336)"><ellipse class="an" cx="8.215" cy="7.433" rx="8.215" ry="7.433" transform="translate(0 0.055)"/><ellipse class="ao" cx="5.085" cy="4.303" rx="5.085" ry="4.303" transform="translate(3.912 2.402)"/><path class="ap" d="M-4378,1823.367l1.65-4.32s5.884,1.882,5.78,4.63c-.051,0-4.3,1.867-4.3,1.867Z" transform="translate(4386.55 -1819.047)"/></g></g><g class="aq" transform="translate(8.106 0.738)"><path class="bl" d="M24.238-.371h0c6.157.485,10.873,4.9,10.873,10.943h0c1.095,8.406-4.778,14.237-10.873,14.237h0C6.874,26.113,1,19.1,1,13.059V10.572C1,4.528,4.453-2.424,24.238-.371Z"/><path class="bm" d="M 17.69307899475098 2.261808395385742 C 14.65009880065918 2.261808395385742 12.06280899047852 2.5653076171875 10.00305938720703 3.163877487182617 C 8.349699020385742 3.644357681274414 7.031648635864258 4.317148208618164 6.085498809814453 5.163558959960938 C 4.662677764892578 6.436408996582031 4 8.155057907104492 4 10.57223796844482 L 4 13.05933856964111 C 4 14.05317783355713 4.228908538818359 15.01611804962158 4.68035888671875 15.9213981628418 C 5.198848724365234 16.96110916137695 6.001049041748047 17.89648818969727 7.064668655395508 18.70154762268066 C 9.887369155883789 20.83808898925781 14.42522811889648 21.96739768981934 20.18765830993652 21.96739768981934 C 21.40338897705078 21.96739768981934 22.69050979614258 21.91705894470215 24.01324844360352 21.81777763366699 L 24.12537002563477 21.80935859680176 L 24.2377986907959 21.80935859680176 C 26.33277893066406 21.80935859680176 28.40533828735352 20.81755828857422 29.92405891418457 19.08825874328613 C 31.76082992553711 16.99680709838867 32.54644775390625 14.11000823974609 32.1362190246582 10.95960807800293 L 32.11111068725586 10.76673793792725 L 32.11111068725586 10.57223796844482 C 32.11111068725586 8.466387748718262 31.33889007568359 6.592597961425781 29.8779182434082 5.15342903137207 C 28.40464019775391 3.702117919921875 26.31786918640137 2.802297592163086 24.00201034545898 2.619718551635742 L 23.92821884155273 2.612977981567383 C 21.68215942382813 2.379959106445313 19.58434867858887 2.261808395385742 17.69307899475098 2.261808395385742 M 17.69307327270508 -0.738189697265625 C 19.64718627929688 -0.738189697265625 21.81902694702148 -0.6219444274902344 24.2377986907959 -0.371002197265625 C 30.39456939697266 0.1143989562988281 35.11111068725586 4.528457641601563 35.11111068725586 10.57223796844482 C 36.20573806762695 18.97857856750488 30.33277893066406 24.80935859680176 24.2377986907959 24.80935859680176 C 6.874124526977539 26.11265754699707 1 19.10311889648438 1 13.05933856964111 L 1 10.57223796844482 C 1 5.267330169677734 3.663082122802734 -0.738189697265625 17.69307327270508 -0.738189697265625 Z"/></g><path class="ar" d="M-4425.3,1819.549l-10.308-3.076" transform="translate(4435.606 -1812.64)"/></g><g transform="translate(63.877 61.257)"><path class="aj" d="M-4384,1815.835s-4.732-5.258-17.526-4.206-12.269,6.046-12.269,6.046-.03.109-.112.461c-.309,1.3-1.572,7.467.814,11.545,2.716,4.644,10.866,5,10.866,5s9.289.263,13.5-2.454,5.87-5,5.87-8.15A49.233,49.233,0,0,0-4384,1815.835Z" transform="translate(4415.903 -1810.093)"/><g class="bn" transform="matrix(1, 0, 0, 1, -342.96, -156.67)"><path class="ak" d="M-4388.38,1834.229c.138.259,9.238-.431,4.963-7.463s-12.684-7.032-12.684-7.032-9.628.078-12.41,9.514c.893,3.568,3.722,3.861,3.722,3.861S-4388.519,1833.971-4388.38,1834.229Z" transform="translate(4755.34 -1657.63)"/></g><path class="al" d="M-4375.741,1820.67" transform="translate(4389.827 -1814.786)"/><g class="as" transform="translate(3.869 5.427)"><g transform="translate(3.012 -0.359)"><ellipse class="at" cx="8.31" cy="7.576" rx="8.31" ry="7.576"/><ellipse class="au" cx="4.888" cy="4.644" rx="4.888" ry="4.644" transform="translate(3.422 1.955)"/><path class="ap" d="M-4370.568,1823.367l-1.651-4.32s-5.883,1.882-5.78,4.63c.053,0,4.3,1.867,4.3,1.867Z" transform="translate(4378.878 -1819.024)"/></g></g><g class="aq" transform="translate(-1 0.738)"><path class="bl" d="M12.006-.371h0C5.849.114,1.132,4.528,1.132,10.572h0C.038,18.979,5.911,24.809,12.006,24.809h0c17.364,1.3,23.238-5.706,23.238-11.75V10.572C35.244,4.528,31.791-2.424,12.006-.371Z"/><path class="bm" d="M 18.54770660400391 2.261808395385742 C 16.65826606750488 2.261808395385742 14.56138610839844 2.379959106445313 12.31532669067383 2.612977981567383 L 12.24153518676758 2.619718551635742 C 9.925676345825195 2.802297592163086 7.838905334472656 3.702117919921875 6.365625381469727 5.15342903137207 C 4.904666900634766 6.592597961425781 4.1324462890625 8.466387748718262 4.1324462890625 10.57223796844482 L 4.1324462890625 10.76673793792725 L 4.107336044311523 10.95960807800293 C 3.697105407714844 14.11000823974609 4.482725143432617 16.99681854248047 6.319496154785156 19.08825874328613 C 7.838205337524414 20.81755828857422 9.9107666015625 21.80935859680176 12.00574684143066 21.80935859680176 L 12.1181755065918 21.80935859680176 L 12.23029518127441 21.81777763366699 C 13.55303573608398 21.91705894470215 14.84015655517578 21.96739768981934 16.05588531494141 21.96739768981934 C 21.81831741333008 21.96739768981934 26.35617637634277 20.83808898925781 29.17888641357422 18.70154762268066 C 30.24250602722168 17.89648818969727 31.04469680786133 16.96110916137695 31.56319618225098 15.9213981628418 C 32.01464462280273 15.01610851287842 32.24355697631836 14.05317783355713 32.24355697631836 13.05933856964111 L 32.24355697631836 10.57223796844482 C 32.24355697631836 8.155208587646484 31.58088684082031 6.436668395996094 30.15810585021973 5.163908004760742 C 29.21194648742676 4.317527770996094 27.89385604858398 3.64472770690918 26.24044609069824 3.164207458496094 C 24.1806755065918 2.565597534179688 21.59333610534668 2.261987686157227 18.54821586608887 2.261808395385742 L 18.54770660400391 2.261808395385742 M 18.55047225952148 -0.738189697265625 C 32.58046722412109 -0.7373809814453125 35.24355697631836 5.267330169677734 35.24355697631836 10.57223796844482 L 35.24355697631836 13.05933856964111 C 35.24355697631836 19.10311889648438 29.36939430236816 26.11265563964844 12.00574684143066 24.80935859680176 C 5.9107666015625 24.80935859680176 0.03781509399414063 18.97857856750488 1.1324462890625 10.57223796844482 C 1.1324462890625 4.528457641601563 5.848976135253906 0.1143989562988281 12.00574684143066 -0.371002197265625 C 14.42451858520508 -0.6219444274902344 16.59635925292969 -0.7383022308349609 18.55047225952148 -0.738189697265625 Z"/></g><path class="ar" d="M-4435.607,1819.549l10.308-3.076" transform="translate(4468.648 -1812.64)"/></g><path d="M29.206,32.985c16.467,0,31.164.251,30.137,5.992S45.993,56.8,29.526,56.8,2.275,45.054-.291,38.977,12.738,32.985,29.206,32.985Z" transform="translate(28.293 70.625)"/><g transform="translate(44.587 69.763)"><path class="av" d="M-4348.87,1826.8v31.985s-11.99-2.358-13.009-4.333,2.357-13.38,2.357-13.38l3.7-6.371.89-7.008,6.066-1.657Z" transform="translate(4362.071 -1826.034)"/><path class="aw" d="M3.227,0C4.982,0,6.586.964,6.382,1.358s-2.771.47-4.075.942S.293,2.37.027,1.358,1.472,0,3.227,0Z" transform="matrix(0.921, 0.391, -0.391, 0.921, 3.332, 26.095)"/></g><path class="j" d="M-188.424,1006.419s.073,6.465,24.188,5.811,24.987-3.486,26.73-6.174-15.98,0-15.98,0l-4.867-1.67-4.721,1.017-2.4-.436-22.953-.581Z" transform="translate(221.596 -900.234)"/><g transform="translate(57.788 69.763)"><path class="ax" d="M-4362.069,1826.8v31.985s11.989-2.358,13.008-4.333-2.356-13.38-2.356-13.38l-3.7-6.371-.891-7.008-6.065-1.657Z" transform="translate(4362.069 -1826.034)"/><path class="ay" d="M3.227,2.5c1.755,0,3.359-.964,3.155-1.358S3.611.668,2.307.2.293.127.027,1.138,1.472,2.5,3.227,2.5Z" transform="matrix(-0.921, 0.391, -0.391, -0.921, 10.845, 28.393)"/></g><path class="az" d="M-226.774,957.389s10.68,9.666,31.793,5.615c.368.246-3.437,13.012-3.437,13.012s-19.15,1.227-19.15,8.225S-226.774,957.389-226.774,957.389Z" transform="translate(241.2 -876.209)"/><path class="az" d="M-194.956,957.389s-10.68,9.666-31.793,5.615c-.368.246,3.437,13.012,3.437,13.012s19.15,1.227,19.15,8.225S-194.956,957.389-194.956,957.389Z" transform="translate(297.151 -876.209)"/><g transform="translate(0 62.86)"><path class="ba" d="M-4443.926,1822.173c.063-5.4-.631-8.5-1.448-9.253s-6.464-3.577-7.594,5.523.943,13.493,3.012,15.188,5.21,6.652,5.838,7.092,1.255-.314,1.255-.314S-4443.99,1827.57-4443.926,1822.173Z" transform="translate(4453.287 -1811.912)"/><path class="bb" d="M-4442.038,1839.569a21.716,21.716,0,0,1-5.551-7.218c-1.883-4.267-1.82-10.1.691-11.359s4.392,2.008,4.392,2.008v3.264s-3.954-1.757-3.954,0,4.707,9.853,4.707,9.853Z" transform="translate(4451.046 -1816.407)"/></g><g class="bc" transform="translate(27.724 103.609)"><ellipse class="b" cx="20.342" cy="10.562" rx="20.342" ry="10.562" transform="translate(10.697 9.736)"/></g><path class="bd" d="M-158,1056.664v1.488s7.207,4.629,7.439,5.356h5.257s7.538-5.521,7.869-5.356a14.905,14.905,0,0,1,0-1.719s-6.612,2.083-9.489,2.017a57.185,57.185,0,0,1-8.794-.992C-156.415,1057.193-158,1056.664-158,1056.664Z" transform="translate(206.043 -926.841)"/><path class="be" d="M-138.051,967.2h-3.685l.632-32.348h3.053Z" transform="translate(197.728 -864.689)"/><path class="ar" d="M-4349.129,1827.212s5.932-5.123,13.751,0" transform="translate(4400.042 -1755.22)"/><path class="az" d="M-208.785,876.578c-.258-8.347-5.412-37.808,18.942-29.461s32.988-1.6,36.6-2.7,10.824-3.928,13.788,7.979,8.634,29.093,5.928,27.129-20.489-8.1-25.772-4.3-8.891,11.907-8.891,11.907h-9.536s-3.35-10.68-14.046-11.907-17.009,2.946-17.009,2.946Z" transform="translate(228.695 -817.895)"/><path class="bf" d="M-4397.315,1799.856c.9-.188,7.841-2.338,11.422-1.282s5.429,1.583,6.07,1.282a2.048,2.048,0,0,0,.339-3.242c-1.32-1.47-4.562-3.166-8.9-2.413a16.364,16.364,0,0,0-8.107,3.732C-4397.581,1798.914-4398.222,1800.045-4397.315,1799.856Z" transform="translate(4424.895 -1739.903)"/><path class="bf" d="M-4379.27,1799.856c-.905-.188-7.841-2.338-11.423-1.282s-5.43,1.583-6.069,1.282a2.047,2.047,0,0,1-.34-3.242c1.319-1.47,4.562-3.166,8.9-2.413a16.357,16.357,0,0,1,8.106,3.732C-4379.006,1798.914-4378.365,1800.045-4379.27,1799.856Z" transform="translate(4465.955 -1739.903)"/><path class="bg" d="M-4440.8,1761.507c-1.394,19.428,3.11-20.554,5.081-23.933s3.961-12.046,5.932-15.425-33.718,6.086-2.313,10.178,30.486-15.5,37.243-15.5,10.535,7.669,24.948,0,19.5,16.522,19.5,16.522a66.5,66.5,0,0,1,6.476,26.749c.284,14.923-1.97-17.176,4.225-13.8s-3.379-50.118-24.215-53.5c-2.815-2.534-34.068-22.244-62.505,3.942s-18.3,49.555-18.3,49.555S-4439.408,1742.079-4440.8,1761.507Z" transform="translate(4449.81 -1683.311)"/></g><g transform="translate(104.675 62.86)"><path class="bh" d="M-4452.225,1822.173c-.061-5.4.632-8.5,1.448-9.253s6.464-3.577,7.594,5.523-.941,13.493-3.012,15.188-5.209,6.652-5.837,7.092-1.256-.314-1.256-.314S-4452.161,1827.57-4452.225,1822.173Z" transform="translate(4453.288 -1811.912)"/><path class="bb" d="M-4448.616,1839.569a21.706,21.706,0,0,0,5.55-7.218c1.883-4.267,1.82-10.1-.69-11.359s-4.394,2.008-4.394,2.008v3.264s3.956-1.757,3.956,0-4.708,9.853-4.708,9.853Z" transform="translate(4450.033 -1816.407)"/></g></g><g transform="translate(141.701 138.964)"><path class="bi" d="M357.97,361.867H178.81L162.17,229.976H374.609Z" transform="translate(-162.17 -229.976)"/><path class="bj" d="M360.3,311.576l-9.828,70.7-1.01,7.26a9.8,9.8,0,0,1-9.794,9.794H192.608a9.8,9.8,0,0,1-9.794-9.794l-1.01-7.26-9.828-70.7a5.771,5.771,0,0,1,5.715-6.565H354.583A5.771,5.771,0,0,1,360.3,311.576Z" transform="translate(-159.923 -212.679)"/><path class="bk" d="M348.617,367.8l-1.01,20.077c0,14.956-4.386,27.084-9.794,27.084H190.756c-5.408,0-9.794-12.128-9.794-27.084l-1.01-20.077Z" transform="translate(-158.071 -228.311)"/></g></g></g></svg>