<svg xmlns="http://www.w3.org/2000/svg" xmlns:xlink="http://www.w3.org/1999/xlink" width="455.578" height="769.532" viewBox="0 0 455.578 769.532"><defs><style>.a{fill:url(#a);}.b{fill:url(#g);}.c{fill:#e6e6e6;mix-blend-mode:multiply;isolation:isolate;}.d{fill:#fad9c7;}.d,.e,.f,.g,.h,.i,.j,.k,.l,.m,.n,.o,.p,.q,.r,.s,.t{fill-rule:evenodd;}.e{fill:#1eb18c;}.f{fill:#111;}.g{fill:#231916;stroke:#231916;stroke-miterlimit:22.926;stroke-width:0.374px;}.h{fill:#2c5277;}.i{fill:#3e3a39;}.j{fill:#0a7a5e;}.k{fill:#343231;}.l{fill:#4e749c;}.m{fill:#2f2d2c;}.n{fill:#d1cce5;}.o{fill:#ef8200;}.p{fill:#23cba1;}.q{fill:#43678a;}.r{fill:#406a91;}.s{fill:#de7703;}.t{fill:#f7c7b7;}.u{fill:#e49574;}.v{fill:url(#h);}.w{fill:url(#i);}.ac,.ad,.x{fill:none;}.x{stroke:#707070;}.y{clip-path:url(#l);}.z{fill:url(#m);}.aa{fill:url(#n);}.ab{opacity:0.24;fill:url(#o);}.ac,.ad{opacity:0.99;}.ad{stroke:#101010;stroke-width:3px;}.ae{clip-path:url(#t);}.af{fill:url(#u);}.ag{fill:url(#v);}.ah{fill:url(#x);}.ai{fill:url(#y);}.aj,.an,.as{fill:#fff;}.ak{fill:url(#z);}.al{fill:url(#aa);}.am{fill:#423129;}.an{opacity:0.47;}.ao{fill:url(#ab);}.ap{opacity:0.83;fill:url(#ac);}.aq{clip-path:url(#ad);}.ar{fill:#36251e;}.as{opacity:0.65;}.at{fill:#46332c;}.au{fill:#33221b;}.av{fill:url(#af);}.aw,.ax{stroke:none;}.ax{fill:#101010;}.ay{filter:url(#r);}.az{filter:url(#j);}.ba{filter:url(#e);}.bb{filter:url(#b);}</style><linearGradient id="a" x1="0.5" x2="0.5" y2="1" gradientUnits="objectBoundingBox"><stop offset="0" stop-color="#fff"/><stop offset="0.515" stop-color="#e2e2e2"/><stop offset="1" stop-color="#6e6e6e"/></linearGradient><filter id="b" x="197.346" y="84.783" width="53.717" height="37.793" filterUnits="userSpaceOnUse"><feOffset dy="3" input="SourceAlpha"/><feGaussianBlur stdDeviation="3" result="c"/><feFlood flood-opacity="0.161"/><feComposite operator="in" in2="c"/><feComposite in="SourceGraphic"/></filter><filter id="e" x="259.779" y="84.783" width="53.717" height="37.793" filterUnits="userSpaceOnUse"><feOffset dy="3" input="SourceAlpha"/><feGaussianBlur stdDeviation="3" result="f"/><feFlood flood-opacity="0.161"/><feComposite operator="in" in2="f"/><feComposite in="SourceGraphic"/></filter><radialGradient id="g" cx="0.5" cy="0.5" r="0.5" gradientTransform="translate(-0.046 1) rotate(-90) scale(1 1.092)" gradientUnits="objectBoundingBox"><stop offset="0" stop-color="#d92b3e"/><stop offset="1" stop-color="#700521"/></radialGradient><linearGradient id="h" x1="0.5" x2="0.5" y2="1" gradientUnits="objectBoundingBox"><stop offset="0" stop-color="#db8866"/><stop offset="1" stop-color="#f7e5db"/></linearGradient><linearGradient id="i" x1="0.5" x2="0.5" y2="1" gradientUnits="objectBoundingBox"><stop offset="0" stop-color="#878787"/><stop offset="0.05" stop-color="#b7b7b7"/><stop offset="0.159" stop-color="#fff"/><stop offset="0.929" stop-color="#d5d5d5"/><stop offset="1" stop-color="#727272" stop-opacity="0"/></linearGradient><filter id="j" x="197.346" y="84.783" width="53.717" height="37.793" filterUnits="userSpaceOnUse"><feOffset dy="3" input="SourceAlpha"/><feGaussianBlur stdDeviation="3" result="k"/><feFlood flood-opacity="0.161"/><feComposite operator="in" in2="k"/><feComposite in="SourceGraphic"/></filter><clipPath id="l"><g class="bb" transform="matrix(1, 0, 0, 1, 0, 0)"><path class="a" d="M-4400.2,1839.468c-.188.352-12.577-.587-6.758-10.16s17.27-9.573,17.27-9.573,13.14,0,16.894,12.952a8.425,8.425,0,0,1-5.069,5.256S-4400.012,1839.116-4400.2,1839.468Z" transform="translate(4408.51 -1819.73)"/></g></clipPath><radialGradient id="m" cx="0.5" cy="0.5" r="0.5" gradientUnits="objectBoundingBox"><stop offset="0" stop-color="#bb8050"/><stop offset="0.661" stop-color="#d5995b"/><stop offset="1" stop-color="#7b5137"/></radialGradient><radialGradient id="n" cx="0.5" cy="0.5" r="0.5" gradientUnits="objectBoundingBox"><stop offset="0" stop-color="#856654"/><stop offset="1" stop-color="#424844"/></radialGradient><linearGradient id="o" x1="0.5" x2="0.5" y2="1" gradientUnits="objectBoundingBox"><stop offset="0" stop-color="#fff" stop-opacity="0.702"/><stop offset="1" stop-color="#fff" stop-opacity="0.212"/></linearGradient><filter id="r" x="259.778" y="84.783" width="53.717" height="37.793" filterUnits="userSpaceOnUse"><feOffset dy="3" input="SourceAlpha"/><feGaussianBlur stdDeviation="3" result="s"/><feFlood flood-opacity="0.161"/><feComposite operator="in" in2="s"/><feComposite in="SourceGraphic"/></filter><clipPath id="t"><g class="ba" transform="matrix(1, 0, 0, 1, 0, 0)"><path class="a" d="M-4381.105,1839.468c.188.352,12.577-.587,6.757-10.16s-17.269-9.573-17.269-9.573-13.14,0-16.894,12.952a8.423,8.423,0,0,0,5.068,5.256S-4381.293,1839.116-4381.105,1839.468Z" transform="translate(4408.51 -1819.73)"/></g></clipPath><radialGradient id="u" gradientTransform="matrix(-1, 0, 0, 1, 1, 0)" xlink:href="#m"/><radialGradient id="v" gradientTransform="matrix(-1, 0, 0, 1, 1, 0)" xlink:href="#n"/><linearGradient id="x" x1="1.021" y1="1" x2="0" y2="1" gradientUnits="objectBoundingBox"><stop offset="0" stop-color="#fff"/><stop offset="0.51" stop-color="#e09375"/><stop offset="1" stop-color="#e4a48b"/></linearGradient><radialGradient id="y" cx="0.5" cy="0.5" r="0.5" gradientUnits="objectBoundingBox"><stop offset="0" stop-color="#eb815b"/><stop offset="1" stop-color="#9f4b33"/></radialGradient><linearGradient id="z" x1="-0.021" x2="1" xlink:href="#x"/><radialGradient id="aa" gradientTransform="matrix(1, 0, 0, -1, 0, 1)" xlink:href="#y"/><linearGradient id="ab" x1="1.021" y1="1" x2="0" y2="1" gradientUnits="objectBoundingBox"><stop offset="0" stop-color="#edc0ab"/><stop offset="0.402" stop-color="#f6d0c3"/><stop offset="1" stop-color="#eec1ac"/></linearGradient><linearGradient id="ac" x1="0.5" x2="0.5" y2="1" gradientUnits="objectBoundingBox"><stop offset="0" stop-color="#ff895e"/><stop offset="0.515" stop-color="#b15f40"/><stop offset="1" stop-color="#ffd2c2"/></linearGradient><clipPath id="ad"><path class="b" d="M39.966,32.985c22.418,0,42.426.341,41.028,8.158S62.82,65.408,40.4,65.408,3.3,49.415-.19,41.142,17.547,32.985,39.966,32.985Z" transform="translate(0.569 -32.985)"/></clipPath><linearGradient id="af" x1="-0.021" x2="1" xlink:href="#ab"/></defs><g transform="translate(-125.135 -166.126)"><g transform="translate(125.135 325.759)"><ellipse class="c" cx="172.687" cy="15.237" rx="172.687" ry="15.237" transform="translate(110.204 579.425)"/><path class="d" d="M170.53,171.322s-10.211-13.046-18.247-16.041-21.434-10.109-22.27-8,10.046,9.855,10.046,9.855l2.846,2.91a99.457,99.457,0,0,0-19.757-4.613c-11.888-1.632-20.761-3.523-21.6-2.585s-.335,3.154-.335,3.154-6.362-1.185-7.2,1.593,3.515,4.637,3.515,4.637-3.85,1.029-2.678,3.3,6.195,3.349,6.195,3.349-1.172,1.915,1.341,3.457,22.939,4.034,25.114,5.885,19.61,8.626,32.733,6.608Z" transform="translate(-93.907 -70.471)"/><path class="e" d="M274.922,186.194c-2.678-12.725-10.129-41.912-10.129-41.912s-47.32,68.506-52.676,66.5-67.795-39.488-67.795-39.488l-13.563,19.089s72.471,64.885,86.535,60.2S274.922,186.194,274.922,186.194Z" transform="translate(-68.368 -72.283)"/><path class="f" d="M255.455,438.405c-.395,5.931,3.557,7.922-4.735,12.239s-37.314,9.855-34.944,10.595,48.766.57,49.949.349a23.252,23.252,0,0,0,3.229-1.222l1.532,1.2,10.329-.362-.3-2.514s-.84-6.754-3.312-10.756-7.512-9.135-8.1-9.124S255.455,438.405,255.455,438.405Z" transform="translate(-9.545 131.548)"/><path class="f" d="M295.561,438.752c-.394,5.931,3.557,7.922-4.734,12.239s-37.314,9.855-34.945,10.595,48.766.57,49.949.349a23.015,23.015,0,0,0,3.229-1.222l1.532,1.2,10.329-.362-.3-2.514s-.84-6.753-3.31-10.756-7.512-9.135-8.106-9.124S295.561,438.752,295.561,438.752Z" transform="translate(18.249 131.788)"/><path class="g" d="M209.834,249.564c-5.534,31.163-9.489,58.979-.791,110.918s53.77,215.761,55.549,214.462,16.524-2.106,16.409-3.03-4.746-92.623-16.211-116.427c.791-26.836-7.906-110.281-7.512-106.819s32.816,94.7,39.142,115.907,35.552,112.018,35.552,112.018,19.592,1.276,19.405.515-6.721-75.31-26.885-127.682c0,0,1.668-56.394-1.893-106.585,0,0-1.4-58.448-15.569-82.023Z" transform="translate(-17.639 0.678)"/><path class="e" d="M263.519,135.246c-9.378,1.339-46.213,18.083-46.213,18.083s-10.717,20.761-16.744,85.059,11.377,80.157,7.366,93.1c-16.514,53.279,124.574,40.649,106.826,8.705-3.349-6.027-12.391-4.688-9.041-39.515S333.842,227,347.237,192.844s-15.4-61.617-15.4-61.617Z" transform="translate(-20.881 -81.331)"/><path class="d" d="M240.757,122.518c-.245,7.649.892,26.123-1.038,34.537,0,0-5.948,9.33-13.878,11.553l.852,22.055s21.432-11.553,36.166-19.925,42.864-20.761,42.864-20.761-5.692.335-9.041-19.422-1.674-28.8-1.674-28.8Z" transform="translate(-2.474 -101.755)"/><path class="h" d="M262.573,144.707c-1.092-.718-14.484-4.354-14.484-4.354l-20.259,22.52,36.835-14.233Z" transform="translate(-1.095 -75.006)"/><path class="i" d="M232.747,156.489c.8-1.036,19.365-18.31,19.405-15.569s3.027,10.06,3.027,10.06l-19.634,9.528Z" transform="translate(2.311 -74.817)"/><path class="j" d="M244.373,138.678a59.013,59.013,0,0,0,1.053-10.405c-9.466,4.756-26.3,14.507-26.3,14.507l12.218,29.506c.2-8.568-.852-22.055-.852-22.055C238.425,148.008,244.373,138.678,244.373,138.678Z" transform="translate(-7.127 -83.378)"/><path class="i" d="M246.654,145.814c-6.532-2.939-23.851-.223-23.839-.227s-1.888,12.716-1.255,15.906c.317,1.6,5.021,2.424,10.695,1.95,5.628-.469,10.739.283,11.406-1.783C245,157.511,246.654,145.814,246.654,145.814Z" transform="translate(-5.531 -72.169)"/><path class="k" d="M246.607,145.707a16.076,16.076,0,0,0-4.578-1.106c-.325,2.92-1.571,12.354-4.349,14.538-2.814,2.214-12.6,2.286-16.182,2.164l.015.083c.317,1.6,5.021,2.424,10.695,1.95,5.628-.469,10.739.283,11.406-1.783C244.955,157.4,246.607,145.707,246.607,145.707Z" transform="translate(-5.484 -72.062)"/><path class="j" d="M239.8,152.21c2.345,2.678,14.567,19.757,14.567,19.757S306.27,138.48,306.1,137.309s-11.386-14.066-11.386-14.066Z" transform="translate(7.197 -86.864)"/><path class="i" d="M233.007,150.784c-10.6,26.873-24.43,148.779-22.876,168.92,0,0,17.214,31.995,17.883,29.121s20.963-23.765,20.963-23.765c-9.623-61.306-5.507-110.3-2.782-171.174Z" transform="translate(-13.445 -67.777)"/><path class="l" d="M145.364,159.075c-.418.5-16.576,23.692-16.576,23.692s9.125,7.368,9.461,6.865,16.607-24.525,16.607-24.525Z" transform="translate(-69.734 -62.032)"/><path class="m" d="M239.526,320.632l-20.221,22.883c1.271,1.825,2.13,2.741,2.269,2.142.669-2.871,20.963-23.765,20.963-23.765q-1.237-7.875-2.181-15.493c-6.535-52.577-3.315-97.123-.84-150.436,0,0-1.937-.074-4.378-.176-.391-.017-.794-.032-1.205-.051l-.115-.005c-3.1-.13-6.574-.284-7.906-.374.911.108,2.805.354,4.812.628,3.152.432,6.577.928,6.882,1.06.586.251-2.345,65.467-3.183,87.319-.56,14.634,1.92,43.883,3.62,61.6C238.88,314.7,239.526,320.632,239.526,320.632Z" transform="translate(-7.004 -64.608)"/><path class="n" d="M310.628,270.33,264.472,274.9l5.321,84.591,107.458-15.4-3.914-79.34Z" transform="translate(24.297 11.2)"/><path class="o" d="M317.793,267.911l-46.38.335-2.428,84.724L377.4,347.444l3.349-79.365Z" transform="translate(27.425 13.393)"/><path class="d" d="M313.53,258.319c-3.838,2.846-14.1,8.137-18.72,11.533-2.65,1.947-.816,4.756-.816,4.756s6.9-.049,9.185-.044c-2.116,15.212-9.61,33.078-6.349,36.022,4.984,3.137,12.767-18.767,12.767-18.767s-6.418,19.465-4.954,22.952,3.977-.557,6.628-5.162,5.3-15.767,5.372-15.349-5.164,16.256-2.512,17.582,8.792-15.141,8.792-15.141-3.867,11.655-.489,12.559,9.787-23.946,9.787-23.946h0a27.593,27.593,0,0,0,1.569-7.741c-.168-2.846-2.2-16.864-2.2-16.864Z" transform="translate(44.328 6.746)"/><path class="p" d="M292.3,135.1c-7.7-4.019-18.3,8.589-27.337,21.649s41.525,68.316,48.891,81.041,13.228,109.924,13.228,109.924,27.628,2.846,28.967-1.173-7.368-91.336-7.368-113.439S292.3,135.1,292.3,135.1Z" transform="translate(23.89 -79.172)"/><path class="l" d="M299.742,252.484l32.65.083.418,13.981c-8.81,2.47-23.286,4.221-31.94,1.018Z" transform="translate(48.74 2.702)"/><path class="p" d="M135.412,186.716C154.574,203.3,202.863,243.74,214.069,240c6.6-2.2,19.7-16.524,31.751-31.1a439.494,439.494,0,0,1,7.839-49.36L243.9,198.27s-14.231,22.883-31.255,29.022-73.66-45.855-73.66-45.855C137.61,183.472,136.357,185.321,135.412,186.716Z" transform="translate(-65.143 -61.709)"/><path class="q" d="M140,182.194c.945-1.4,2.2-3.244,3.574-5.279L138.46,168.4l-.66-1.1-.742-1.233c-1.4,2.008-2.8,4.018-4.043,5.8-2.421,3.471-4.227,6.063-4.227,6.063s9.125,7.368,9.461,6.865C138.313,184.692,138.977,183.711,140,182.194Z" transform="translate(-69.734 -57.187)"/><path class="p" d="M279.343,322.515c4.695,2.66-8.65,9.767-33.486,16.744a96.373,96.373,0,0,1-30.718,3.168c28.165,10.744,77.928,4.055,88.262-11.084,2.3-3.371,2.648-7.161.364-11.272-3.349-6.027-12.391-4.688-9.041-39.515,2.7-28.053,19.3-58.715,32.658-87.434-8.3-10.695-17.23-22.659-23.11-32.863,5.194,12.154,11.8,27.7,12.466,29.7,1.116,3.349-14.511,18.42-30.139,60.278s-12.279,58.326-15.906,62.511c-2.457,2.834.227,5.089,3.674,7.075C276.011,320.771,277.828,321.656,279.343,322.515Z" transform="translate(-9.891 -61.212)"/><path class="e" d="M313.741,225.878c5.663,9.782,10.436,69.476,12.34,96.569l9.789.025s.554-14.284-4.47-39.4-7.813-55.255-7.813-55.255L335.306,216.1l-11.719-1.116-25.143-26.794-34.4-36.655s2.848,6.625,6.328,14.772c5.88,10.2,14.809,22.168,23.11,32.863C302.656,210.983,311.059,221.248,313.741,225.878Z" transform="translate(24.004 -67.258)"/><path class="r" d="M311.134,252.513l-9.789-.025-1.6,0,1.119,14.97.008.112c4.219,1.561,9.821,1.945,15.476,1.644l-.191-2.448-.274-3.5-.841-10.734Z" transform="translate(48.74 2.702)"/><path class="s" d="M270.275,291.55l-1.29,45.038,9.8-.5,33.451-1.7,65.161-3.322.953-22.585q-2.329.066-5.067.076c-11.778.039-29.464-.813-55.282-3.912a158.547,158.547,0,0,1-41.636-10.39Q273.168,292.935,270.275,291.55Z" transform="translate(27.425 29.775)"/><path class="t" d="M98.468,164.151c-1.046-1.185-1.4-2.859,0-3.349s24.628,2.023,25.116,2.093-24.767-4.046-24.767-4.046-3.069-2.441-1.6-4.046c1.082-1.187,14.218.868,21.273,2.077-5.871-1.117-15.508-3.2-15.413-4.729a2.594,2.594,0,0,1,1.448-1.783c-1.671-.164-2.712-.147-2.973.146-.836.936-.335,3.154-.335,3.154s-6.362-1.185-7.2,1.593,3.515,4.637,3.515,4.637-3.85,1.029-2.678,3.3,6.195,3.349,6.195,3.349-1.172,1.915,1.341,3.457,22.939,4.034,25.114,5.885c2.013,1.71,17.059,7.629,29.689,6.921.735-1.055,1.527-2.191,2.341-3.357a20.934,20.934,0,0,0-3.017,1.233c-1.185.769-5.929,1.187-13.952-.7a66.466,66.466,0,0,1-14.79-5.58s-21.767-4.256-22.326-4.536-3.349-1.534-2.79-2.511c.467-.818,14.106.951,18.845,1.634C116.174,168.11,99.34,165.138,98.468,164.151Z" transform="translate(-93.907 -68.137)"/><path class="t" d="M115.239,147.4c-.488,1.227,11.468,11.311,11.468,11.311-1.321,11.282.913,13.373,8.638,15.442-7.436-2.8-8.9-6.554-6.442-15.434.01-.037-.931-.852-4.487-5a43.479,43.479,0,0,0-7.83-6.67C115.852,146.96,115.725,146.176,115.239,147.4Z" transform="translate(-79.133 -70.593)"/></g><g transform="translate(301.685 166.126)"><g transform="translate(0 0)"><path class="u" d="M-4329.427,1709.423c-64.4-.766-82.03-9.966-92.378,10.349s-13.033,56.731-13.033,62.48-2.683,104.262,55.2,113.461,80.416-54.431,76.2-106.562-9.5-66.7-9.5-66.7Z" transform="translate(4447.122 -1691.131)"/><g transform="translate(11.766 83.394)"><path class="v" d="M-4412.968,1817.406s6.442-7.158,23.86-5.727,16.7,8.232,16.7,8.232.041.149.153.627c.42,1.763,2.14,10.166-1.107,15.717-3.7,6.323-14.793,6.8-14.793,6.8s-12.646.358-18.372-3.34-7.993-6.8-7.993-11.095A66.975,66.975,0,0,1-4412.968,1817.406Z" transform="translate(4428.551 -1809.588)"/><g class="az" transform="matrix(1, 0, 0, 1, -188.32, -83.39)"><path class="w" d="M-4400.2,1839.468c-.188.352-12.577-.587-6.758-10.16s17.27-9.573,17.27-9.573,13.107.106,16.894,12.952c-1.218,4.857-5.069,5.256-5.069,5.256S-4400.012,1839.116-4400.2,1839.468Z" transform="translate(4614.86 -1728.95)"/></g><path class="x" d="M-4375.741,1820.67" transform="translate(4415.578 -1812.659)"/><g class="y" transform="translate(18.03 7.388)"><g transform="translate(8.664 -0.457)"><ellipse class="z" cx="11.184" cy="10.119" rx="11.184" ry="10.119" transform="translate(0 0.075)"/><ellipse class="aa" cx="6.923" cy="5.858" rx="6.923" ry="5.858" transform="translate(5.326 3.27)"/><path class="ab" d="M-4378,1824.928l2.246-5.88s8.011,2.563,7.869,6.3c-.071,0-5.859,2.542-5.859,2.542Z" transform="translate(4389.64 -1819.047)"/></g></g><g class="ac" transform="translate(11.396 0.738)"><path class="aw" d="M32.636-.238h0c8.382.661,14.8,6.67,14.8,14.9h0c1.49,11.444-6.505,19.382-14.8,19.382h0C9,35.816,1,26.273,1,18.046V14.66C1,6.432,5.7-3.033,32.636-.238Z"/><path class="ax" d="M 23.7256908416748 2.261802673339844 C 19.48062133789063 2.261802673339844 15.85652160644531 2.689472198486328 12.95407104492188 3.532941818237305 C 10.54619979858398 4.232681274414063 8.610408782958984 5.227022171020508 7.200469970703125 6.488351821899414 C 6.036869049072266 7.529302597045898 5.215431213378906 8.749471664428711 4.689201354980469 10.21859169006348 C 4.231880187988281 11.49534225463867 4 12.98953247070313 4 14.6596622467041 L 4 18.04556274414063 C 4 19.5679931640625 4.349971771240234 21.04171180725098 5.040180206298828 22.42577171325684 C 5.821269989013672 23.99205207824707 7.019649505615234 25.39352226257324 8.602031707763672 26.59124183654785 C 10.46585083007813 28.00199127197266 12.8414421081543 29.11347198486328 15.66281127929688 29.89480209350586 C 18.92682075500488 30.7987117767334 22.78217124938965 31.25703239440918 27.12178039550781 31.25703239440918 C 28.80372047424316 31.25703239440918 30.58329010009766 31.18747138977051 32.41106033325195 31.0502815246582 L 32.52317047119141 31.04187202453613 L 32.63560104370117 31.04187202453613 C 35.7995719909668 31.04187202453613 38.91804122924805 29.55724143981934 41.19139862060547 26.96865272521973 C 43.90077972412109 23.88361358642578 45.06282043457031 19.64976119995117 44.46348190307617 15.04704284667969 L 44.43836212158203 14.85416221618652 L 44.43836212158203 14.6596622467041 C 44.43836212158203 11.49588203430176 43.27526092529297 8.67784309387207 41.07481002807617 6.510211944580078 C 38.88753128051758 4.355562210083008 35.80669021606445 3.021011352539063 32.39981079101563 2.752412796020508 L 32.36286926269531 2.749502182006836 L 32.32601928710938 2.745672225952148 C 29.23126029968262 2.424602508544922 26.33769035339355 2.261802673339844 23.7256908416748 2.261802673339844 M 23.72569465637207 -0.7381935119628906 C 26.38599395751953 -0.7381935119628906 29.34272003173828 -0.5799369812011719 32.63560104370117 -0.2383079528808594 C 41.01734161376953 0.4225120544433594 47.43836212158203 6.431741714477539 47.43836212158203 14.6596622467041 C 48.92858123779297 26.10394287109375 40.93321990966797 34.04187393188477 32.63560104370117 34.04187393188477 C 30.69360542297363 34.18763732910156 28.85687828063965 34.25703048706055 27.12178230285645 34.25703048706055 C 7.736656188964844 34.25703048706055 1 25.59753036499023 1 18.04556274414063 L 1 14.6596622467041 C 1 7.437633514404297 4.625465393066406 -0.7381935119628906 23.72569465637207 -0.7381935119628906 Z"/></g><path class="ad" d="M-4421.574,1820.66l-14.032-4.187" transform="translate(4435.606 -1811.255)"/></g><g transform="translate(86.961 83.394)"><path class="v" d="M-4372.972,1817.406s-6.443-7.158-23.86-5.727-16.7,8.232-16.7,8.232-.041.149-.153.627c-.421,1.763-2.14,10.166,1.108,15.717,3.7,6.323,14.793,6.8,14.793,6.8s12.646.358,18.372-3.34,7.994-6.8,7.994-11.095A66.975,66.975,0,0,0-4372.972,1817.406Z" transform="translate(4416.404 -1809.588)"/><g class="ay" transform="matrix(1, 0, 0, 1, -263.51, -83.39)"><path class="w" d="M-4381.105,1839.468c.188.352,12.577-.587,6.757-10.16s-17.269-9.573-17.269-9.573-13.107.106-16.894,12.952c1.217,4.857,5.068,5.256,5.068,5.256S-4381.293,1839.116-4381.105,1839.468Z" transform="translate(4677.29 -1728.95)"/></g><path class="x" d="M-4375.741,1820.67" transform="translate(4394.918 -1812.659)"/><g class="ae" transform="translate(5.268 7.388)"><g transform="translate(4.101 -0.489)"><ellipse class="af" cx="11.313" cy="10.314" rx="11.313" ry="10.314"/><ellipse class="ag" cx="6.654" cy="6.322" rx="6.654" ry="6.322" transform="translate(4.658 2.662)"/><path class="ab" d="M-4367.882,1824.928l-2.248-5.88s-8.01,2.563-7.869,6.3c.07,0,5.859,2.542,5.859,2.542Z" transform="translate(4379.195 -1819.016)"/></g></g><g class="ac" transform="translate(-1 0.738)"><path class="aw" d="M15.983-.238h0C7.6.423,1.18,6.432,1.18,14.66h0C-.31,26.1,7.685,34.042,15.983,34.042h0c23.639,1.774,31.636-7.768,31.636-16V14.66C47.619,6.432,42.918-3.033,15.983-.238Z"/><path class="ax" d="M 24.88919830322266 -0.7381973266601563 L 24.88919830322266 2.261802673339844 C 22.27970886230469 2.261802673339844 19.38740921020508 2.424602508544922 16.29264831542969 2.745672225952148 L 16.25579833984375 2.749502182006836 L 16.21885871887207 2.752412796020508 C 12.81197738647461 3.021011352539063 9.73114013671875 4.355562210083008 7.543857574462891 6.510211944580078 C 5.343406677246094 8.67784309387207 4.180309295654297 11.49588203430176 4.180309295654297 14.6596622467041 L 4.180309295654297 14.85416221618652 L 4.155197143554688 15.04703140258789 C 3.55584716796875 19.64976119995117 4.717899322509766 23.88361358642578 7.427268981933594 26.96866226196289 C 9.700637817382813 29.55724143981934 12.81910705566406 31.04187202453613 15.98306846618652 31.04187202453613 L 16.09549903869629 31.04187202453613 L 16.20760917663574 31.0502815246582 C 18.03537750244141 31.18747138977051 19.81494903564453 31.25703239440918 21.49688911437988 31.25703239440918 C 25.83649826049805 31.25703239440918 29.69184875488281 30.7987117767334 32.95585632324219 29.89480209350586 C 35.77722930908203 29.11347198486328 38.15281677246094 28.00199127197266 40.01663970947266 26.59124183654785 C 41.59902954101563 25.39352226257324 42.79740905761719 23.99205207824707 43.57849884033203 22.42577171325684 C 44.26870727539063 21.04170227050781 44.61867904663086 19.5679931640625 44.61867904663086 18.04556274414063 L 44.61867904663086 14.6596622467041 C 44.61867904663086 12.98958206176758 44.38679885864258 11.49545288085938 43.92948913574219 10.21879196166992 C 43.40327835083008 8.749792098999023 42.58184814453125 7.529712677001953 41.41825866699219 6.488811492919922 C 40.00830841064453 5.227531433105469 38.07248687744141 4.233192443847656 35.66455078125 3.533391952514648 C 32.76208877563477 2.689872741699219 29.13794898986816 2.262042999267578 24.89280891418457 2.261802673339844 L 24.88919830322266 -0.7381973266601563 M 24.89297485351563 -0.7381935119628906 C 43.99320602416992 -0.7370986938476563 47.61867904663086 7.437633514404297 47.61867904663086 14.6596622467041 L 47.61867904663086 18.04556274414063 C 47.61867904663086 25.59753036499023 40.88201522827148 34.25703048706055 21.49688720703125 34.25703048706055 C 19.76178932189941 34.25703048706055 17.92506408691406 34.18763732910156 15.98306846618652 34.04187393188477 C 7.685447692871094 34.04187393188477 -0.3099021911621094 26.10394287109375 1.180309295654297 14.6596622467041 C 1.180309295654297 6.431741714477539 7.601329803466797 0.4225120544433594 15.98306846618652 -0.2383079528808594 C 19.27594947814941 -0.5799369812011719 22.23267555236816 -0.7383460998535156 24.89297485351563 -0.7381935119628906 Z"/></g><path class="ad" d="M-4435.606,1820.66l14.032-4.187" transform="translate(4480.589 -1811.255)"/></g><path d="M39.966,32.985c22.418,0,42.426.341,41.028,8.158S62.82,65.408,40.4,65.408,3.3,49.415-.19,41.142,17.547,32.985,39.966,32.985Z" transform="translate(38.312 108.068)"/><g transform="translate(60.7 94.975)"><path class="ah" d="M-4344.1,1827.075v43.543s-16.323-3.209-17.71-5.9,3.209-18.215,3.209-18.215l5.031-8.674,1.213-9.541,8.257-2.255Z" transform="translate(4362.07 -1826.034)"/><path class="ai" d="M4.393,0C6.782,0,8.966,1.313,8.688,1.849s-3.772.64-5.547,1.282S.4,3.226.037,1.849,2,0,4.393,0Z" transform="matrix(0.921, 0.391, -0.391, 0.921, 4.536, 35.526)"/></g><path class="aj" d="M-188.424,1007.154s.1,8.8,32.929,7.911,34.016-4.746,36.39-8.405-21.755,0-21.755,0l-6.625-2.274-6.428,1.384-3.263-.593-31.248-.791Z" transform="translate(233.583 -862.595)"/><g transform="translate(78.672 94.975)"><path class="ak" d="M-4362.07,1827.075v43.543s16.323-3.209,17.711-5.9-3.209-18.215-3.209-18.215l-5.031-8.674-1.214-9.541-8.257-2.255Z" transform="translate(4362.07 -1826.034)"/><path class="al" d="M4.393,3.4c2.389,0,4.572-1.313,4.295-1.849S4.916.91,3.141.268.4.172.037,1.55,2,3.4,4.393,3.4Z" transform="matrix(-0.921, 0.391, -0.391, -0.921, 14.764, 38.654)"/></g><path class="am" d="M-168.416,999.688c-1.131-1.383-19.815-4.728-36.543-1.606s-5.214,18.062-5.214,18.062,2.824,8.7,2.173,10.926-2.39,3.568-7.169,0-13.035-22.076-13.035-22.076,2.226,54.861,59.363,62.666c.652.223,0-9.589,0-9.589s-22-3.574-26.123-12.494-5.214-14.717-7.169-18.508-11.514-18.508-7.169-22.076,24.549,0,24.549,0,10.863,1.338,13.252.892S-167.284,1001.071-168.416,999.688Z" transform="translate(246.892 -859.055)"/><path class="am" d="M-228.518,999.688c1.131-1.383,19.815-4.728,36.543-1.607s5.214,18.062,5.214,18.062-2.824,8.7-2.173,10.926,2.39,3.568,7.169,0,13.035-22.076,13.035-22.076-3.939,54.815-61.076,62.62c-.652.223-.225-9.563-.225-9.563s23.934-3.553,28.062-12.473,5.214-14.717,7.169-18.508,11.514-18.508,7.169-22.076-24.549,0-24.549,0-10.863,1.338-13.252.892S-229.649,1001.071-228.518,999.688Z" transform="translate(307.856 -859.054)"/><path class="an" d="M-226.774,957.389s14.539,13.159,43.283,7.644c.5.334-4.679,17.714-4.679,17.714s-26.07,1.671-26.07,11.2S-226.774,957.389-226.774,957.389Z" transform="translate(246.413 -846.872)"/><path class="an" d="M-183.457,957.389S-198,970.547-226.74,965.032c-.5.334,4.679,17.714,4.679,17.714s26.07,1.671,26.07,11.2S-183.457,957.389-183.457,957.389Z" transform="translate(322.584 -846.872)"/><g transform="translate(0 85.577)"><path class="ao" d="M-4440.543,1825.881c.085-7.348-.859-11.571-1.97-12.6s-8.8-4.87-10.338,7.519,1.282,18.37,4.1,20.677,7.092,9.057,7.946,9.655,1.709-.427,1.709-.427S-4440.629,1833.229-4440.543,1825.881Z" transform="translate(4453.287 -1811.912)"/><path class="ap" d="M-4439.556,1846.386a29.564,29.564,0,0,1-7.557-9.826c-2.564-5.81-2.478-13.756.939-15.465s5.981,2.734,5.981,2.734v4.443s-5.383-2.392-5.383,0,6.407,13.414,6.407,13.414Z" transform="translate(4451.82 -1814.853)"/></g><g class="aq" transform="translate(37.742 141.052)"><ellipse class="b" cx="27.693" cy="14.379" rx="27.693" ry="14.379" transform="translate(14.563 13.255)"/></g><path class="ar" d="M-158,1056.748v2.025s9.812,6.3,10.127,7.292h7.156s10.262-7.516,10.712-7.292a20.3,20.3,0,0,1,0-2.34s-9,2.836-12.918,2.746a77.924,77.924,0,0,1-11.972-1.35C-155.841,1057.468-158,1056.748-158,1056.748Z" transform="translate(223.405 -880.008)"/><path class="as" d="M-136.719,978.892h-5.017l.86-44.039h4.157Z" transform="translate(217.963 -839.333)"/><path class="ad" d="M-4349.129,1828.036s8.076-6.974,18.721,0" transform="translate(4418.44 -1730.026)"/><path class="an" d="M-208.558,888.6c-.351-11.364-7.368-51.472,25.788-40.108s44.909-2.172,49.821-3.677,14.736-5.348,18.771,10.863,11.754,39.607,8.07,36.933S-134,881.58-141.194,886.76s-12.1,16.21-12.1,16.21H-166.28s-4.561-14.539-19.122-16.21-23.156,4.011-23.156,4.011Z" transform="translate(235.664 -808.709)"/><path class="at" d="M-4397.16,1801.967c1.231-.257,10.676-3.182,15.551-1.745s7.391,2.156,8.264,1.745a2.787,2.787,0,0,0,.462-4.414c-1.8-2-6.21-4.311-12.112-3.285a22.263,22.263,0,0,0-11.036,5.081C-4397.519,1800.684-4398.392,1802.224-4397.16,1801.967Z" transform="translate(4434.705 -1720.347)"/><path class="at" d="M-4372.593,1801.967c-1.231-.257-10.676-3.182-15.552-1.745s-7.391,2.156-8.263,1.745a2.787,2.787,0,0,1-.462-4.414c1.8-2,6.21-4.311,12.113-3.285a22.252,22.252,0,0,1,11.035,5.081C-4372.233,1800.684-4371.361,1802.224-4372.593,1801.967Z" transform="translate(4490.603 -1720.347)"/><path class="au" d="M-4438.747,1789.765c-1.9,26.449,4.235-27.982,6.918-32.582s5.392-16.4,8.075-21-45.9,8.285-3.149,13.856,41.5-21.1,50.7-21.1,14.341,10.441,33.963,0,26.554,22.493,26.554,22.493a90.561,90.561,0,0,1,8.815,36.415c.384,20.316-2.683-23.382,5.75-18.783s-4.6-68.23-32.965-72.83c-3.833-3.45-46.381-30.282-85.1,5.367s-24.916,67.463-24.916,67.463S-4436.85,1763.317-4438.747,1789.765Z" transform="translate(4451.012 -1683.311)"/></g><g transform="translate(142.503 85.577)"><path class="av" d="M-4451.84,1825.881c-.085-7.348.86-11.571,1.971-12.6s8.8-4.87,10.338,7.519-1.282,18.37-4.1,20.677-7.092,9.057-7.946,9.655-1.708-.427-1.708-.427S-4451.753,1833.229-4451.84,1825.881Z" transform="translate(4453.287 -1811.912)"/><path class="ap" d="M-4448.514,1846.386a29.567,29.567,0,0,0,7.558-9.826c2.563-5.81,2.478-13.756-.94-15.465s-5.981,2.734-5.981,2.734v4.443s5.383-2.392,5.383,0-6.408,13.414-6.408,13.414Z" transform="translate(4450.44 -1814.853)"/></g></g></g></svg>