<svg id="Group_6296" data-name="Group 6296" xmlns="http://www.w3.org/2000/svg" xmlns:xlink="http://www.w3.org/1999/xlink" width="27.959" height="37.663" viewBox="0 0 27.959 37.663">
  <defs>
    <clipPath id="clip-path">
      <rect id="Rectangle_5169" data-name="Rectangle 5169" width="27.959" height="37.663" fill="#e7245f"/>
    </clipPath>
  </defs>
  <g id="Group_6187" data-name="Group 6187" clip-path="url(#clip-path)">
    <path id="Path_36009" data-name="Path 36009" d="M37.976,1.029,38.267,0a4.922,4.922,0,0,1,.724.926,5.458,5.458,0,0,1-1.05,6.508A28.644,28.644,0,0,1,34.267,10.7a4.045,4.045,0,0,0-1.622,5.177c.478,1.282.962,2.561,1.424,3.849a2.518,2.518,0,0,1,.051.665,1.907,1.907,0,0,1-.635-.216,12.807,12.807,0,0,1-3.54-4.356,4.391,4.391,0,0,1,.357-4.856,28.093,28.093,0,0,1,3.119-3.179A21.145,21.145,0,0,1,35.73,6.089a5.375,5.375,0,0,0,2.246-5.06" transform="translate(-20.74)" fill="#e7245f"/>
    <path id="Path_36010" data-name="Path 36010" d="M2.889,108.212c.973.2,1.938.456,2.92.584a49.892,49.892,0,0,0,12.614.074c1.938-.239,3.856-.656,5.775-1.035.429-.085,1.055-.132.838-.891.189-.043.44-.185.558-.112a1.026,1.026,0,0,1,.017,1.735,4.629,4.629,0,0,1-1.63.81,61.549,61.549,0,0,1-6.908,1.317,58.115,58.115,0,0,1-12.553-.1,22.9,22.9,0,0,1-3.071-.684,2.439,2.439,0,0,1-.887-.5,1.117,1.117,0,0,1,.232-2.044,13.8,13.8,0,0,1,2.681-.706,14.414,14.414,0,0,1,2.123-.171c.147-.006.3.157.45.241-.124.122-.227.309-.374.353-.929.278-1.867.524-2.8.781.005.115.01.23.016.346" transform="translate(0 -75.158)" fill="#e7245f"/>
    <path id="Path_36011" data-name="Path 36011" d="M13.738,70.976c1.038.1,2.074.251,3.114.275a51.766,51.766,0,0,0,11.49-.738,1.638,1.638,0,0,1,.586.112c-.12.187-.2.479-.367.545a27.652,27.652,0,0,1-4.381,1.607,27.31,27.31,0,0,1-11.738-.017,3.03,3.03,0,0,1-1.267-.543c-.358-.3-.79-.8-.766-1.194a1.579,1.579,0,0,1,.9-1.082,14.252,14.252,0,0,1,2.766-.673,13.839,13.839,0,0,1,2.2-.131c.216,0,.433.184.65.284a2.318,2.318,0,0,1-.544.381c-.893.3-1.8.563-2.7.84l.055.332" transform="translate(-7.346 -48.796)" fill="#e7245f"/>
    <path id="Path_36012" data-name="Path 36012" d="M50.838,37.018a5.334,5.334,0,0,1-2.47,3.67.383.383,0,0,1-.375-.03.428.428,0,0,1-.048-.395c.9-1.573.359-2.811-.714-4.1-1.1-1.322-1.532-3.769-.377-5.2a12.486,12.486,0,0,1,4.068-3.079c.733-.389,1.5-.718,2.265-1.04.159-.067.382.016.576.029-.08.181-.112.416-.247.535-.953.844-1.935,1.654-2.889,2.5a7.546,7.546,0,0,0-.9.965,2.175,2.175,0,0,0-.149,3.008,6.021,6.021,0,0,1,1.261,3.149" transform="translate(-32.586 -18.922)" fill="#e7245f"/>
    <path id="Path_36013" data-name="Path 36013" d="M25.081,98.141a17.238,17.238,0,0,0,6.4.262,3.437,3.437,0,0,0,.722-.119c1.344-.566,2.406.041,3.433.8.147.108.38.324.349.4a.824.824,0,0,1-.434.415,14.6,14.6,0,0,1-6.1,1.063,46.135,46.135,0,0,1-4.936-.609,2.867,2.867,0,0,1-1.283-.664,1.11,1.11,0,0,1,.246-1.93,3.828,3.828,0,0,1,1.047-.316c.493-.089.878-.009.562.7" transform="translate(-16.07 -68.753)" fill="#e7245f"/>
    <path id="Path_36014" data-name="Path 36014" d="M25.381,117c3-.163,6.016-.235,9.008-.519a11.03,11.03,0,0,0,5.579-2.069,1.726,1.726,0,0,1,.51-.167c.025.2.146.48.058.583-.529.621-1,1.435-1.689,1.744a15.945,15.945,0,0,1-4.041,1.208,45.345,45.345,0,0,1-15.7-.371c-.236-.046-.436-.273-.652-.416a2.7,2.7,0,0,1,.752-.24c2.056-.019,4.112-.011,6.169-.011,0,.086.005.173.007.26" transform="translate(-13.024 -80.633)" fill="#e7245f"/>
    <path id="Path_36015" data-name="Path 36015" d="M21.158,85.243c.964.108,1.925.264,2.892.316a28.7,28.7,0,0,0,7.582-.7,3.156,3.156,0,0,1,2.281,1.11c.036.114-.271.467-.46.5-1.728.333-3.459.664-5.2.91a16.926,16.926,0,0,1-7.136-.314,5.674,5.674,0,0,1-1.585-.729.8.8,0,0,1,.008-1.449,6.765,6.765,0,0,1,1.533-.664c.164-.057.386.051.582.083a4.573,4.573,0,0,1-.306.5c-.055.069-.176.087-.267.128l.077.306" transform="translate(-13.465 -59.434)" fill="#e7245f"/>
    <path id="Path_36016" data-name="Path 36016" d="M73.927,68.125c.668-.227,1.322-.508,2.005-.67a2.884,2.884,0,0,1,3.377,1.278,3.173,3.173,0,0,1-.369,4,9.983,9.983,0,0,1-4.976,2.5c-.129.034-.3-.076-.446-.12.065-.163.084-.38.2-.481.653-.552,1.36-1.044,1.989-1.621a9.185,9.185,0,0,0,1.3-1.483,1.483,1.483,0,0,0-.726-2.477,10.33,10.33,0,0,0-1.559-.378c-.245-.058-.489-.123-.733-.184l-.069-.367" transform="translate(-51.887 -47.528)" fill="#e7245f"/>
  </g>
</svg>
