<svg xmlns="http://www.w3.org/2000/svg" xmlns:xlink="http://www.w3.org/1999/xlink" width="1920" height="825" viewBox="0 0 1920 825"><defs><style>.a{fill:#fff;stroke:#707070;}.b{clip-path:url(#a);}.c{opacity:0.15;}.d{fill:#7335ab;}.e{fill:#9547dc;}.f{fill:#401568;}.g{fill:#7d3eb7;}.h{opacity:0.11;}</style><clipPath id="a"><rect class="a" width="1920" height="825" transform="translate(0 112)"/></clipPath></defs><g class="b" transform="translate(0 -112)"><g class="c" transform="translate(342 -273)"><rect class="d" width="15" height="917" rx="7.5" transform="translate(1326 313)"/><rect class="d" width="15" height="501" rx="7.5" transform="translate(1466 553)"/><rect class="e" width="15" height="917" rx="7.5" transform="translate(1354 356)"/><rect class="e" width="15" height="917" rx="7.5" transform="translate(1438 368)"/><rect class="f" width="15" height="917" rx="7.5" transform="translate(1382 341)"/><rect class="g" width="15" height="917" rx="7.5" transform="translate(1410 397)"/></g><g class="h" transform="translate(-1269 17)"><rect class="d" width="15" height="917" rx="7.5" transform="translate(1326 313)"/><rect class="d" width="15" height="501" rx="7.5" transform="translate(1466 553)"/><rect class="e" width="15" height="917" rx="7.5" transform="translate(1354 356)"/><rect class="e" width="15" height="917" rx="7.5" transform="translate(1438 368)"/><rect class="f" width="15" height="917" rx="7.5" transform="translate(1382 341)"/><rect class="g" width="15" height="917" rx="7.5" transform="translate(1410 397)"/></g></g></svg>