<svg xmlns="http://www.w3.org/2000/svg" xmlns:xlink="http://www.w3.org/1999/xlink" width="96" height="96" viewBox="0 0 96 96">
  <defs>
    <clipPath id="clip-jobs">
      <rect width="96" height="96"/>
    </clipPath>
  </defs>
  <g id="jobs" clip-path="url(#clip-jobs)">
    <g id="portfolio_2_" data-name="portfolio (2)" transform="translate(6.99 12.019)">
      <path id="Path_30955" data-name="Path 30955" d="M211,240h14.275v4.758H211Zm0,0" transform="translate(-177.533 -201.933)" fill="#e8c8c8"/>
      <path id="Path_30956" data-name="Path 30956" d="M65.885,107.958H52.5v2.379a2.378,2.378,0,0,1-2.379,2.379H31.088a2.378,2.378,0,0,1-2.379-2.379v-2.379H15.326a7.13,7.13,0,0,1-6.771-4.879L0,77.41v51.96a7.146,7.146,0,0,0,7.138,7.138H74.073a7.146,7.146,0,0,0,7.138-7.138V77.412l-8.555,25.666A7.128,7.128,0,0,1,65.885,107.958Zm0,0" transform="translate(0 -65.132)" fill="#e8c8c8"/>
      <path id="Path_30957" data-name="Path 30957" d="M71.837,0H52.8a7.146,7.146,0,0,0-7.138,7.138V9.517H25.809l8.973,26.924a2.379,2.379,0,0,0,2.258,1.626H50.424V35.688A2.378,2.378,0,0,1,52.8,33.309H71.837a2.378,2.378,0,0,1,2.379,2.379v2.379H87.6a2.379,2.379,0,0,0,2.258-1.626L98.833,9.517H78.975V7.138A7.146,7.146,0,0,0,71.837,0ZM50.424,9.517V7.138A2.381,2.381,0,0,1,52.8,4.758H71.837a2.381,2.381,0,0,1,2.379,2.379V9.517Zm0,0" transform="translate(-21.715)" fill="#e8c8c8"/>
    </g>
  </g>
</svg>
