<svg xmlns="http://www.w3.org/2000/svg" width="23.063" height="25.185" viewBox="0 0 23.063 25.185">
  <g id="Group_28700" data-name="Group 28700" transform="translate(1.481 2.25)">
    <g id="Group_28693" data-name="Group 28693" transform="translate(-1.231 -2)">
      <path id="Path_51804" data-name="Path 51804" d="M6.2,8.538a.57.57,0,0,0,.8,0l.132-.132a.569.569,0,0,0,0-.8L4.62,5.084a.57.57,0,0,0-.8,0l-.132.132a.57.57,0,0,0,0,.8Z" transform="translate(-1.505 -1.039)" fill="#371987" stroke="#371089" stroke-width="0.5"/>
      <path id="Path_51805" data-name="Path 51805" d="M19.985,43.566h-4.22a.507.507,0,0,0-.507.507v.087a.507.507,0,0,0,.507.507h4.22a.507.507,0,0,0,.507-.507v-.087a.507.507,0,0,0-.507-.507" transform="translate(-6.366 -19.981)" fill="#371987" stroke="#371089" stroke-width="0.5"/>
      <path id="Path_51806" data-name="Path 51806" d="M30.054,8.538a.57.57,0,0,0,.8,0l2.517-2.517a.568.568,0,0,0,0-.8l-.132-.132a.57.57,0,0,0-.8,0L29.922,7.6a.568.568,0,0,0,0,.8Z" transform="translate(-13.253 -0.902)" fill="#371987" stroke="#371089" stroke-width="0.5"/>
      <path id="Path_51807" data-name="Path 51807" d="M19.993,37.217H14.768a.55.55,0,1,0,0,1.1h5.225a.55.55,0,1,0,0-1.1" transform="translate(-5.872 -15.53)" fill="#371987" stroke="#371089" stroke-width="0.5"/>
      <path id="Path_51809" data-name="Path 51809" d="M14.823,8.263h0c-.081,0-.162,0-.244,0a6.143,6.143,0,0,0-6,6.113,9.034,9.034,0,0,0,1.551,4.46,11.091,11.091,0,0,1,1.277,2.839c.018.087.08.461.143.882a.63.63,0,1,0,1.246-.19c-.042-.27-.141-.908-.157-.976a12.2,12.2,0,0,0-1.407-3.177,7.966,7.966,0,0,1-1.387-3.839,4.854,4.854,0,0,1,4.849-4.849h.018a4.855,4.855,0,0,1,4.85,4.849,7.965,7.965,0,0,1-1.388,3.839,12.221,12.221,0,0,0-1.407,3.177c-.015.065-.1.639-.156.975a.63.63,0,1,0,1.246.19c.063-.419.124-.794.142-.878a11.119,11.119,0,0,1,1.278-2.844,9.031,9.031,0,0,0,1.55-4.459,6.143,6.143,0,0,0-6-6.113" transform="translate(-3.192 -2.491)" fill="#9b0984" stroke="#9d0085" stroke-width="0.5"/>
      <path id="Path_51810" data-name="Path 51810" d="M35.5,19.031H33.067a.609.609,0,0,0-.569.641v.1a.609.609,0,0,0,.569.641H35.5a.609.609,0,0,0,.569-.641v-.1a.609.609,0,0,0-.569-.641" transform="translate(-13.505 -7.607)" fill="#371987" stroke="#371089" stroke-width="0.5"/>
      <path id="Path_51811" data-name="Path 51811" d="M19.566,4.024h.1a.642.642,0,0,0,.641-.641V.641A.642.642,0,0,0,19.667,0h-.1a.642.642,0,0,0-.641.641V3.383a.642.642,0,0,0,.641.641" transform="translate(-8.108 0)" fill="#371987" stroke="#371089" stroke-width="0.5"/>
      <path id="Path_51812" data-name="Path 51812" d="M3.382,19.031H.641A.642.642,0,0,0,0,19.672v.1a.642.642,0,0,0,.641.641H3.382a.642.642,0,0,0,.641-.641v-.1a.642.642,0,0,0-.641-.641" transform="translate(0 -7.607)" fill="#371987" stroke="#371089" stroke-width="0.5"/>
    </g>
  </g>
</svg>
