<svg id="Group_28768" data-name="Group 28768" xmlns="http://www.w3.org/2000/svg" width="26.484" height="18.522" viewBox="0 0 26.484 18.522">
  <g id="Group_28769" data-name="Group 28769" transform="translate(0 0)">
    <path id="Path_76941" data-name="Path 76941" d="M73.84.763V15.337c4.853-1.348,8.717-.424,11.335,1.64V2.462C83.518.7,79.013-1.04,73.84.763M84,14.848a12.754,12.754,0,0,0-5.791-1.311,16.725,16.725,0,0,0-3.2.32V1.624C78.955.53,82.439,1.639,84,2.965Z" transform="translate(-71.277 -0.002)" fill="#fff"/>
    <path id="Path_76942" data-name="Path 76942" d="M431.693,2.459V16.975c2.618-2.064,6.482-2.989,11.335-1.64V.76c-5.173-1.8-9.678-.06-11.335,1.7m10.163-.838V13.854a13.864,13.864,0,0,0-8.991.991V2.962c1.564-1.325,5.048-2.435,8.991-1.341" transform="translate(-419.092 0)" fill="#fff"/>
    <path id="Path_76943" data-name="Path 76943" d="M512.009,56.941V71.847l-1.486-.413c-1.473-.409-6.061-1.372-8.578.83,3.375-1.05,7.019.008,8.359.38l3.086.842V57.064Z" transform="translate(-486.906 -54.965)" fill="#fff"/>
    <path id="Path_76944" data-name="Path 76944" d="M1.381,56.941V71.847l1.486-.413c1.473-.409,6.061-1.372,8.578.83-3.375-1.05-7.019.008-8.359.38L0,73.487V57.064Z" transform="translate(0 -54.965)" fill="#fff"/>
  </g>
</svg>
