<svg xmlns="http://www.w3.org/2000/svg" width="34.973" height="34.973" viewBox="0 0 34.973 34.973"><defs><style>.a{fill:#fff;opacity:0.9;}.b{fill:#ff2704;stroke:#ff2704;stroke-width:0.5px;}</style></defs><g transform="translate(-89.5 -480)"><circle class="a" cx="17.487" cy="17.487" r="17.487" transform="translate(89.5 480)"/><path class="b" d="M8.922,15.875a1.046,1.046,0,0,1-.69-.259c-.721-.63-1.416-1.223-2.029-1.745l0,0A37.735,37.735,0,0,1,1.77,9.71,6.642,6.642,0,0,1,0,5.363,5.577,5.577,0,0,1,1.416,1.554,4.8,4.8,0,0,1,4.985,0a4.488,4.488,0,0,1,2.8.968A5.736,5.736,0,0,1,8.922,2.151,5.737,5.737,0,0,1,10.056.968,4.488,4.488,0,0,1,12.859,0a4.8,4.8,0,0,1,3.569,1.554,5.577,5.577,0,0,1,1.415,3.809,6.641,6.641,0,0,1-1.77,4.347,37.73,37.73,0,0,1-4.43,4.158c-.614.523-1.31,1.117-2.033,1.748a1.047,1.047,0,0,1-.69.259ZM4.985,1.045a3.764,3.764,0,0,0-2.8,1.217,4.537,4.537,0,0,0-1.139,3.1,5.588,5.588,0,0,0,1.529,3.68,37.133,37.133,0,0,0,4.3,4.03l0,0C7.5,13.6,8.194,14.195,8.92,14.83c.731-.636,1.429-1.232,2.046-1.757a37.143,37.143,0,0,0,4.3-4.029A5.589,5.589,0,0,0,16.8,5.363a4.537,4.537,0,0,0-1.139-3.1,3.764,3.764,0,0,0-2.8-1.217,3.467,3.467,0,0,0-2.164.749,5.072,5.072,0,0,0-1.206,1.4.66.66,0,0,1-1.133,0,5.067,5.067,0,0,0-1.206-1.4,3.467,3.467,0,0,0-2.164-.749Zm0,0" transform="translate(98.552 490.588)"/></g></svg>