<svg xmlns="http://www.w3.org/2000/svg" width="18.746" height="18.702" viewBox="0 0 18.746 18.702"><defs><style>.a{fill:#0084b3;}</style></defs><path class="a" d="M-531.988,493.5a2.257,2.257,0,0,1,2.242,2.254A2.239,2.239,0,0,1-532,497.993a2.242,2.242,0,0,1-2.249-2.251,2.259,2.259,0,0,1,2.264-2.245Zm0,0" transform="translate(534.252 -493.497)"/><path class="a" d="M-530.339,518.941h-2.636a.619.619,0,0,1-.62-.619V507.077a.619.619,0,0,1,.62-.62h2.636a.619.619,0,0,1,.62.62v11.245a.619.619,0,0,1-.62.619Zm0,0" transform="translate(533.91 -500.241)"/><path class="a" d="M-508.3,510.061a4.268,4.268,0,0,0-4.269-4.269h-.676a3.789,3.789,0,0,0-3.115,1.627,3.8,3.8,0,0,0-.208.333l-.035,0v-1.38a.257.257,0,0,0-.257-.257h-3.289a.257.257,0,0,0-.257.257v11.97a.258.258,0,0,0,.257.257h3.36a.257.257,0,0,0,.257-.258v-6.915a2.192,2.192,0,0,1,2.149-2.2,2.168,2.168,0,0,1,1.562.637,2.166,2.166,0,0,1,.636,1.537v6.944a.258.258,0,0,0,.257.258h3.369a.257.257,0,0,0,.257-.257v-8.28Zm0,0" transform="translate(527.047 -499.895)"/></svg>