<svg xmlns="http://www.w3.org/2000/svg" width="13.817" height="13.813" viewBox="0 0 13.817 13.813">
  <g id="Group_28609" data-name="Group 28609" transform="translate(0)">
    <g id="Group_28610" data-name="Group 28610">
      <path id="Path_76869" data-name="Path 76869" d="M45.232,9.166a3.337,3.337,0,0,1-2.376-.982c-.072-.073-.142-.149-.207-.227a3.348,3.348,0,0,1-.349-.513l.087-.087A.917.917,0,0,1,42.8,7.12a.928.928,0,0,1,.241-.032.913.913,0,0,1,.5.15.933.933,0,0,1,.145.118l.057.064.031.024a2.289,2.289,0,0,0,.321.2l.019.01a1.376,1.376,0,0,0,.232.094l.012,0a2.162,2.162,0,0,0,.879.188,2.12,2.12,0,0,0,1.249-.4,2.162,2.162,0,0,0,.26-.221l2.451-2.451a2.138,2.138,0,0,0-3.024-3.023L44.386,3.631a4.587,4.587,0,0,0-1.351-.2q-.089,0-.178,0l2.45-2.45a3.36,3.36,0,0,1,4.752,4.751L47.608,8.184a3.337,3.337,0,0,1-2.375.982Z" transform="translate(-37.224)" fill="#b2b2b2"/>
      <path id="Path_76870" data-name="Path 76870" d="M3.361,47.882A3.354,3.354,0,0,1,.637,42.565c.027-.038.052-.073.079-.108s.049-.063.076-.094c.072-.086.132-.154.193-.214L3.436,39.7a3.364,3.364,0,0,1,4.751,0,3.3,3.3,0,0,1,.555.74l-.087.087a.921.921,0,0,1-1.026.185l-.08-.046-.088-.016a.7.7,0,0,1-.075-.04l-.042-.025-.02-.02a2.154,2.154,0,0,0-.164-.148L7.142,40.4c-.051-.041-.1-.079-.157-.114s-.109-.068-.165-.1v-.02L6.5,40.052l-.05-.016-.092-.026-.093-.023c-.033-.007-.068-.014-.1-.019l-.084-.012c-.035,0-.072-.009-.11-.012l-.077,0-.1,0h-.05a2.146,2.146,0,0,0-.651.122l-.043.015c-.04.015-.081.032-.122.051l-.06.028c-.034.017-.07.035-.105.055l-.075.044c-.035.022-.062.039-.089.057l-.091.067-.064.049c-.051.042-.1.087-.15.136L1.849,43.013a2.138,2.138,0,0,0,3.024,3.024l1.785-1.785a4.582,4.582,0,0,0,1.351.2q.089,0,.177,0L5.736,46.9a3.336,3.336,0,0,1-2.375.982" transform="translate(0.001 -34.069)" fill="#b2b2b2"/>
    </g>
  </g>
</svg>
