<svg xmlns="http://www.w3.org/2000/svg" width="15.785" height="15.749" viewBox="0 0 15.785 15.749">
  <g id="Group_3856" data-name="Group 3856" transform="translate(0)">
    <path id="Path_28183" data-name="Path 28183" d="M-532.346,493.5a1.9,1.9,0,0,1,1.888,1.9,1.886,1.886,0,0,1-1.9,1.888,1.888,1.888,0,0,1-1.894-1.9,1.9,1.9,0,0,1,1.906-1.891Zm0,0" transform="translate(534.252 -493.497)" fill="#fff"/>
    <path id="Path_28184" data-name="Path 28184" d="M-530.853,516.969h-2.219a.521.521,0,0,1-.522-.521v-9.469a.522.522,0,0,1,.522-.522h2.219a.522.522,0,0,1,.522.522v9.469a.521.521,0,0,1-.522.521Zm0,0" transform="translate(533.86 -501.223)" fill="#fff"/>
    <path id="Path_28185" data-name="Path 28185" d="M-510.213,509.386a3.594,3.594,0,0,0-3.594-3.594h-.569a3.191,3.191,0,0,0-2.623,1.37,3.189,3.189,0,0,0-.175.281l-.029,0v-1.162a.217.217,0,0,0-.216-.217h-2.769a.217.217,0,0,0-.217.217v10.079a.217.217,0,0,0,.217.216h2.829a.217.217,0,0,0,.216-.217v-5.823a1.846,1.846,0,0,1,1.809-1.854,1.826,1.826,0,0,1,1.315.536,1.824,1.824,0,0,1,.536,1.294v5.847a.217.217,0,0,0,.216.217h2.837a.217.217,0,0,0,.216-.217v-6.972Zm0,0" transform="translate(525.998 -500.826)" fill="#fff"/>
  </g>
</svg>
