<svg id="Group_31464" data-name="Group 31464" xmlns="http://www.w3.org/2000/svg" xmlns:xlink="http://www.w3.org/1999/xlink" width="10.611" height="13.877" viewBox="0 0 10.611 13.877">
  <defs>
    <clipPath id="clip-path">
      <rect id="Rectangle_6485" data-name="Rectangle 6485" width="10.611" height="13.877" fill="#8e8e8e" stroke="#8e8e8e" stroke-width="0.4"/>
    </clipPath>
  </defs>
  <g id="Group_7663" data-name="Group 7663" clip-path="url(#clip-path)">
    <path id="Path_46044" data-name="Path 46044" d="M5.325,0a5.346,5.346,0,0,1,5.247,4.6A4.746,4.746,0,0,1,10.1,7.272a23.009,23.009,0,0,1-3.13,4.79c-.446.556-.913,1.095-1.379,1.635-.2.236-.365.24-.563.014A30.724,30.724,0,0,1,.812,7.9,6.416,6.416,0,0,1,.051,5.853,4.889,4.889,0,0,1,.915,2.337,5.29,5.29,0,0,1,5.325,0M5.3,13.148c.31-.368.593-.694.866-1.029a26.7,26.7,0,0,0,3.2-4.651,4.5,4.5,0,0,0,.569-3.1A4.72,4.72,0,0,0,4.553.657,4.58,4.58,0,0,0,1.007,6.982,30.776,30.776,0,0,0,5.3,13.148" transform="translate(0 -0.001)" fill="#8e8e8e" stroke="#8e8e8e" stroke-width="0.4"/>
    <path id="Path_46045" data-name="Path 46045" d="M22.193,28.262a3.242,3.242,0,1,1,3.255-3.227,3.25,3.25,0,0,1-3.255,3.227m-.028-.588a2.653,2.653,0,1,0-2.619-2.736,2.658,2.658,0,0,0,2.619,2.736" transform="translate(-16.894 -19.412)" fill="#8e8e8e" stroke="#8e8e8e" stroke-width="0.4"/>
  </g>
</svg>
