<svg id="Group_10418" data-name="Group 10418" xmlns="http://www.w3.org/2000/svg" xmlns:xlink="http://www.w3.org/1999/xlink" width="16.943" height="22.158" viewBox="0 0 16.943 22.158">
  <defs>
    <clipPath id="clip-path">
      <rect id="Rectangle_6485" data-name="Rectangle 6485" width="16.943" height="22.158" fill="#fff" stroke="#fff" stroke-width="0.4"/>
    </clipPath>
  </defs>
  <g id="Group_7663" data-name="Group 7663" clip-path="url(#clip-path)">
    <path id="Path_46044" data-name="Path 46044" d="M8.5,0a8.536,8.536,0,0,1,8.378,7.337,7.578,7.578,0,0,1-.748,4.273,36.74,36.74,0,0,1-5,7.649c-.713.887-1.459,1.748-2.2,2.611-.325.377-.582.384-.9.022A49.058,49.058,0,0,1,1.3,12.609,10.244,10.244,0,0,1,.082,9.346,7.807,7.807,0,0,1,1.461,3.731,8.447,8.447,0,0,1,8.5,0M8.467,20.994c.494-.587.946-1.109,1.382-1.644a42.635,42.635,0,0,0,5.11-7.427,7.183,7.183,0,0,0,.908-4.944,7.536,7.536,0,0,0-8.6-5.93c-4.665.688-7.708,5.876-5.662,10.1a49.142,49.142,0,0,0,6.858,9.847" transform="translate(0 -0.001)" fill="#fff" stroke="#fff" stroke-width="0.4"/>
    <path id="Path_46045" data-name="Path 46045" d="M24.127,32.131a5.176,5.176,0,1,1,5.2-5.153,5.19,5.19,0,0,1-5.2,5.153m-.044-.939A4.237,4.237,0,1,0,19.9,26.823a4.244,4.244,0,0,0,4.181,4.369" transform="translate(-15.665 -18)" fill="#fff" stroke="#fff" stroke-width="0.4"/>
  </g>
</svg>
