<svg xmlns="http://www.w3.org/2000/svg" width="126.73" height="32.923" viewBox="0 0 126.73 32.923">
  <g id="Group_34760" data-name="Group 34760" transform="translate(0 0)">
    <path id="Path_83455" data-name="Path 83455" d="M0,19.329v3.009H4.085V35.308H7.84V22.338h4.085V19.329Z" transform="translate(0 -8.441)" fill="#1a1a1a"/>
    <g id="Group_34759" data-name="Group 34759" transform="translate(10.827 0)">
      <g id="Group_34761" data-name="Group 34761" transform="translate(0 0)">
        <path id="Path_83456" data-name="Path 83456" d="M31.45,33.213h-8.5a2.551,2.551,0,0,0,.736,1.746,2.245,2.245,0,0,0,1.592.6,1.974,1.974,0,0,0,1.954-1.186h4a5.487,5.487,0,0,1-1.108,2.174,5.557,5.557,0,0,1-2.01,1.515,6.452,6.452,0,0,1-2.7.549,6.57,6.57,0,0,1-3.206-.768,5.463,5.463,0,0,1-2.2-2.2,6.78,6.78,0,0,1-.791-3.338A6.855,6.855,0,0,1,20,28.975a5.4,5.4,0,0,1,2.185-2.2,6.62,6.62,0,0,1,3.227-.768,6.552,6.552,0,0,1,3.162.747,5.359,5.359,0,0,1,2.163,2.13,6.473,6.473,0,0,1,.779,3.228,9.59,9.59,0,0,1-.066,1.1m-3.777-2.087a1.933,1.933,0,0,0-.659-1.537,2.428,2.428,0,0,0-1.647-.571,2.379,2.379,0,0,0-1.592.549,2.442,2.442,0,0,0-.8,1.559Z" transform="translate(-19.219 -11.358)" fill="#1a1a1a"/>
        <path id="Path_83457" data-name="Path 83457" d="M51.072,35.477l-3.733-5.139v5.139H43.584V19.226h3.755v8.982l3.711-4.985h4.634l-5.095,6.149,5.139,6.1Z" transform="translate(-29.859 -8.395)" fill="#1a1a1a"/>
        <path id="Path_83458" data-name="Path 83458" d="M66.559,24.184a7.063,7.063,0,0,1,2.756-2.789,8,8,0,0,1,4.008-1,7.667,7.667,0,0,1,4.7,1.449A6.96,6.96,0,0,1,80.634,25.8H76.506A3.34,3.34,0,0,0,75.2,24.326a3.68,3.68,0,0,0-1.921-.5,3.588,3.588,0,0,0-2.812,1.208,4.676,4.676,0,0,0-1.076,3.228,4.674,4.674,0,0,0,1.076,3.228,3.586,3.586,0,0,0,2.812,1.208,3.67,3.67,0,0,0,1.921-.505,3.331,3.331,0,0,0,1.306-1.471h4.128a6.908,6.908,0,0,1-2.613,3.942,7.711,7.711,0,0,1-4.7,1.438,8,8,0,0,1-4.008-1,7.084,7.084,0,0,1-2.756-2.778,8.219,8.219,0,0,1-.989-4.063,8.285,8.285,0,0,1,.989-4.073" transform="translate(-39.459 -8.906)" fill="#1a1a1a"/>
        <path id="Path_83459" data-name="Path 83459" d="M94.82,28.975a5.327,5.327,0,0,1,1.944-2.2,5.075,5.075,0,0,1,2.745-.768,4.712,4.712,0,0,1,2.272.527,3.886,3.886,0,0,1,1.5,1.384V26.186h3.755V38.439h-3.755V36.7a4.063,4.063,0,0,1-1.527,1.384,4.718,4.718,0,0,1-2.272.527,4.979,4.979,0,0,1-2.723-.78,5.382,5.382,0,0,1-1.944-2.218,8.091,8.091,0,0,1,0-6.643m7.687,1.12a2.64,2.64,0,0,0-3.8-.011,3.031,3.031,0,0,0-.78,2.207,3.109,3.109,0,0,0,.78,2.229,2.615,2.615,0,0,0,3.8.011,3.072,3.072,0,0,0,.78-2.218,3.072,3.072,0,0,0-.78-2.218" transform="translate(-51.921 -11.358)" fill="#1a1a1a"/>
        <path id="Path_83460" data-name="Path 83460" d="M126.2,26.537a4.654,4.654,0,0,1,2.262-.527,5.078,5.078,0,0,1,2.745.768,5.324,5.324,0,0,1,1.943,2.2,8.086,8.086,0,0,1,0,6.643,5.384,5.384,0,0,1-1.943,2.218,5.02,5.02,0,0,1-2.745.78,4.665,4.665,0,0,1-2.251-.527,4.124,4.124,0,0,1-1.526-1.362v7.555h-3.755v-18.1h3.755V27.92a4.071,4.071,0,0,1,1.515-1.384m3.063,3.547a2.577,2.577,0,0,0-1.922-.8,2.533,2.533,0,0,0-1.9.813,3.069,3.069,0,0,0-.78,2.218,3.069,3.069,0,0,0,.78,2.218,2.628,2.628,0,0,0,3.81-.011,3.084,3.084,0,0,0,.791-2.229,3.033,3.033,0,0,0-.78-2.207" transform="translate(-63.632 -11.358)" fill="#1a1a1a"/>
        <path id="Path_83461" data-name="Path 83461" d="M149.406,35.479h5.314v3.1h-9.509V35.589l5.1-6.171h-5.051v-3.1h9.355v2.987Z" transform="translate(-74.237 -11.494)" fill="#1a1a1a"/>
        <rect id="Rectangle_19567" data-name="Rectangle 19567" width="3.755" height="16.251" transform="translate(98.423 10.83)" fill="#1a1a1a"/>
        <path id="Path_83462" data-name="Path 83462" d="M215.369,33.213h-8.5a2.554,2.554,0,0,0,.736,1.746,2.246,2.246,0,0,0,1.592.6,1.975,1.975,0,0,0,1.955-1.186h4a5.488,5.488,0,0,1-1.109,2.174,5.555,5.555,0,0,1-2.009,1.515,6.452,6.452,0,0,1-2.7.549,6.567,6.567,0,0,1-3.206-.768,5.46,5.46,0,0,1-2.2-2.2,6.78,6.78,0,0,1-.791-3.338,6.855,6.855,0,0,1,.78-3.338,5.4,5.4,0,0,1,2.185-2.2,6.621,6.621,0,0,1,3.228-.768,6.553,6.553,0,0,1,3.163.747,5.357,5.357,0,0,1,2.163,2.13,6.468,6.468,0,0,1,.78,3.228,9.585,9.585,0,0,1-.066,1.1m-3.777-2.087a1.933,1.933,0,0,0-.659-1.537,2.428,2.428,0,0,0-1.647-.571,2.379,2.379,0,0,0-1.592.549,2.439,2.439,0,0,0-.8,1.559Z" transform="translate(-99.532 -11.358)" fill="#1a1a1a"/>
        <path id="Path_83463" data-name="Path 83463" d="M180.131,27.581l-3.855-7.522-3.326,1.7,3.862,7.538a2.055,2.055,0,0,1,.275,1.608,2.3,2.3,0,0,1-1.2,1.157,2.273,2.273,0,0,1-1.624.289,2.054,2.054,0,0,1-1.145-1.162l-3.863-7.538-3.326,1.705,3.855,7.523a5.559,5.559,0,0,0,2.092,2.329,4.921,4.921,0,0,0,2.527.692c.086,0,.173,0,.26-.006a7.305,7.305,0,0,0,5.082-2.6c.07-.089.138-.18.2-.27a4.873,4.873,0,0,0,.861-2.395,5.6,5.6,0,0,0-.679-3.046" transform="translate(-83.285 -8.759)" fill="#1a1a1a"/>
        <path id="Path_83464" data-name="Path 83464" d="M158.342,8.744a7.439,7.439,0,0,1-.885-3.244,4.809,4.809,0,0,1,.78-2.772A5.936,5.936,0,0,1,160.584.721,5.363,5.363,0,0,1,165,.3a6.367,6.367,0,0,1,3.378,3.262l3.37,6.639-2.163,1.1c-.563-1.084-1.524-2.93-2.339-4.469-.963-1.817-1.758-3.74-3.286-4.3a3.649,3.649,0,0,0-2.946.617c1.193-.3,2.831,1.774,3.54,2.895.528.834,2.382,4.378,3.294,6.136l-3.088,1.568-3.082,1.564Z" transform="translate(-79.584 0)" fill="#1a73e8"/>
      </g>
    </g>
  </g>
</svg>
