<svg xmlns="http://www.w3.org/2000/svg" width="130.735" height="28.563" viewBox="0 0 130.735 28.563">
  <g id="Group_31782" data-name="Group 31782" transform="translate(0 0)">
    <g id="Group_31783" data-name="Group 31783" transform="translate(0 0)">
      <path id="Path_80935" data-name="Path 80935" d="M215.41,30.132l-3.434-6.478,1.866-.99,3.442,6.492a2.625,2.625,0,0,0,1.565,1.454,3.4,3.4,0,0,0,3.536-1.875,2.626,2.626,0,0,0-.326-2.111l-3.442-6.492,1.866-.99,3.435,6.478a4.632,4.632,0,0,1,.6,2.5,3.915,3.915,0,0,1-.667,1.94c-.051.076-.1.15-.161.224a6.242,6.242,0,0,1-4.281,2.27,3.99,3.99,0,0,1-2.261-.523,4.589,4.589,0,0,1-1.742-1.9" transform="translate(-112.548 -10.164)" fill="#fff"/>
      <path id="Path_80936" data-name="Path 80936" d="M205.181,7.112a6.04,6.04,0,0,1-.72-2.638A3.915,3.915,0,0,1,205.1,2.22a4.828,4.828,0,0,1,1.91-1.633,4.361,4.361,0,0,1,3.589-.344A5.176,5.176,0,0,1,213.341,2.9l2.742,5.4-1.759.893c-.458-.882-1.239-2.383-1.9-3.635-.783-1.478-1.431-3.042-2.674-3.494a2.969,2.969,0,0,0-2.4.5c.97-.242,2.3,1.444,2.88,2.355.43.678,1.937,3.561,2.679,4.99L210.4,11.18l-2.506,1.273Z" transform="translate(-108.558 0)" fill="#fff"/>
      <path id="Path_80937" data-name="Path 80937" d="M11.285,12.43v1.758H6.742v14.8H4.566v-14.8H0V12.43Z" transform="translate(0 -6.6)" fill="#fff"/>
      <path id="Path_80938" data-name="Path 80938" d="M39.506,27.051H29.034a4.106,4.106,0,0,0,4.256,4.086,4.04,4.04,0,0,0,2.355-.653,3.458,3.458,0,0,0,1.327-1.746h2.343a5.592,5.592,0,0,1-2.1,3.052,6.376,6.376,0,0,1-3.921,1.176,6.657,6.657,0,0,1-3.336-.831,5.9,5.9,0,0,1-2.307-2.364,7.293,7.293,0,0,1-.837-3.551,7.394,7.394,0,0,1,.813-3.539,5.688,5.688,0,0,1,2.283-2.34,6.83,6.83,0,0,1,3.383-.819,6.614,6.614,0,0,1,3.3.807A5.615,5.615,0,0,1,38.8,22.55a6.521,6.521,0,0,1,.777,3.195,12.76,12.76,0,0,1-.072,1.306m-2.726-3.884a3.571,3.571,0,0,0-1.495-1.354,4.687,4.687,0,0,0-2.092-.463,4.049,4.049,0,0,0-2.81,1.045,4.246,4.246,0,0,0-1.327,2.9H37.33a3.971,3.971,0,0,0-.55-2.126" transform="translate(-14.235 -10.364)" fill="#fff"/>
      <path id="Path_80939" data-name="Path 80939" d="M66.24,27.831,61.1,22.083v5.748H58.924V10.253H61.1V20.586l5.045-5.772h3.037L63.012,21.3,69.2,27.831Z" transform="translate(-31.285 -5.443)" fill="#fff"/>
      <path id="Path_80940" data-name="Path 80940" d="M83.318,16.1a7.961,7.961,0,0,1,3-3.029,8.319,8.319,0,0,1,4.221-1.093A8.608,8.608,0,0,1,95.3,13.281a7.494,7.494,0,0,1,2.965,3.706H95.655a5.216,5.216,0,0,0-2-2.3,5.807,5.807,0,0,0-3.12-.808,6.107,6.107,0,0,0-3.132.808,5.666,5.666,0,0,0-2.176,2.292,7.312,7.312,0,0,0-.788,3.48,7.26,7.26,0,0,0,.788,3.456A5.662,5.662,0,0,0,87.407,26.2a6.1,6.1,0,0,0,3.132.808,5.87,5.87,0,0,0,3.12-.8,5.142,5.142,0,0,0,2-2.292h2.606a7.44,7.44,0,0,1-2.965,3.67,8.66,8.66,0,0,1-4.758,1.295,8.39,8.39,0,0,1-4.221-1.081,7.9,7.9,0,0,1-3-3,8.6,8.6,0,0,1-1.1-4.347,8.669,8.669,0,0,1,1.1-4.359" transform="translate(-43.653 -6.357)" fill="#fff"/>
      <path id="Path_80941" data-name="Path 80941" d="M121.16,22.692a5.884,5.884,0,0,1,2.236-2.34,6.165,6.165,0,0,1,3.168-.831,5.848,5.848,0,0,1,2.988.736,4.925,4.925,0,0,1,1.889,1.853V19.735h2.2V32.752h-2.2V30.329a5.111,5.111,0,0,1-1.925,1.888,5.786,5.786,0,0,1-2.977.749,5.93,5.93,0,0,1-5.38-3.254,7.436,7.436,0,0,1-.813-3.516,7.275,7.275,0,0,1,.813-3.5m9.684.962a4.214,4.214,0,0,0-1.614-1.675,4.6,4.6,0,0,0-4.459-.012,4.14,4.14,0,0,0-1.6,1.663,5.258,5.258,0,0,0-.6,2.565,5.379,5.379,0,0,0,.6,2.6,4.205,4.205,0,0,0,1.6,1.687,4.354,4.354,0,0,0,2.223.582,4.423,4.423,0,0,0,2.236-.582,4.191,4.191,0,0,0,1.614-1.687,5.336,5.336,0,0,0,.6-2.577,5.267,5.267,0,0,0-.6-2.565" transform="translate(-63.898 -10.364)" fill="#fff"/>
      <path id="Path_80942" data-name="Path 80942" d="M159.415,20.269a5.787,5.787,0,0,1,2.977-.748,6.169,6.169,0,0,1,3.168.831,5.878,5.878,0,0,1,2.235,2.34,7.274,7.274,0,0,1,.813,3.5,7.432,7.432,0,0,1-.813,3.516,5.962,5.962,0,0,1-5.4,3.254,5.735,5.735,0,0,1-2.953-.748,5.361,5.361,0,0,1-1.948-1.864v8.575h-2.176V19.734h2.176v2.4a5.168,5.168,0,0,1,1.925-1.865m6.372,3.361a4.124,4.124,0,0,0-1.614-1.663,4.5,4.5,0,0,0-2.236-.57,4.372,4.372,0,0,0-2.212.582,4.27,4.27,0,0,0-1.626,1.687,5.706,5.706,0,0,0,0,5.131,4.266,4.266,0,0,0,1.626,1.686,4.367,4.367,0,0,0,2.212.582,4.417,4.417,0,0,0,2.236-.582,4.187,4.187,0,0,0,1.614-1.686,5.385,5.385,0,0,0,.6-2.6,5.261,5.261,0,0,0-.6-2.565" transform="translate(-82.464 -10.364)" fill="#fff"/>
      <path id="Path_80943" data-name="Path 80943" d="M189.2,31.212h6.432v1.781h-8.919V31.212l6.36-9.478h-6.312V19.976h8.822v1.758Z" transform="translate(-99.135 -10.606)" fill="#fff"/>
      <rect id="Rectangle_18027" data-name="Rectangle 18027" width="2.176" height="17.578" transform="translate(113.472 4.809)" fill="#fff"/>
      <path id="Path_80944" data-name="Path 80944" d="M264.2,27.051H253.723a4.106,4.106,0,0,0,4.256,4.086,4.04,4.04,0,0,0,2.355-.653,3.458,3.458,0,0,0,1.327-1.746H264a5.592,5.592,0,0,1-2.1,3.052,6.377,6.377,0,0,1-3.921,1.176,6.657,6.657,0,0,1-3.336-.831,5.9,5.9,0,0,1-2.307-2.364,7.293,7.293,0,0,1-.837-3.551,7.394,7.394,0,0,1,.813-3.539,5.688,5.688,0,0,1,2.283-2.34,6.83,6.83,0,0,1,3.383-.819,6.614,6.614,0,0,1,3.3.807,5.615,5.615,0,0,1,2.212,2.221,6.521,6.521,0,0,1,.777,3.195,12.747,12.747,0,0,1-.072,1.306m-2.726-3.884a3.571,3.571,0,0,0-1.495-1.354,4.687,4.687,0,0,0-2.091-.463,4.049,4.049,0,0,0-2.81,1.045,4.246,4.246,0,0,0-1.327,2.9h8.273a3.971,3.971,0,0,0-.55-2.126" transform="translate(-133.532 -10.364)" fill="#fff"/>
    </g>
  </g>
</svg>
