<!-- <svg xmlns="http://www.w3.org/2000/svg" width="236" height="44" viewBox="0 0 236 44"><defs><style>.a{fill:#23cba1;font-size:39px;font-family:ProximaNova-Bold, Proxima Nova;font-weight:700;}.b{fill:#ff492c;}</style></defs><text class="a" transform="translate(0 36)"><tspan x="0" y="0">&lt;Dev&gt;</tspan><tspan class="b" y="0">Stream</tspan></text></svg> -->
<svg xmlns="http://www.w3.org/2000/svg" width="213.347" height="48.302" viewBox="0 0 213.347 48.302"><defs><style>.a{fill:#ff492c;}.b{fill:#23cba1;}.c{fill:#440a03;}.d{fill:#2d0354;}</style></defs><g transform="translate(-408.121 -862.838)"><path class="a" d="M444.146,881.553a9.587,9.587,0,0,0-9.75,9.867c0,6.044,4.329,9.906,10.062,9.906a11.744,11.744,0,0,0,7.762-2.613l-2.184-3.2A7.706,7.706,0,0,1,445,897.387c-3.2,0-5.109-1.989-5.421-4.368h14v-1.092C453.585,885.765,449.763,881.553,444.146,881.553Zm-4.641,8.112a4.527,4.527,0,0,1,4.641-4.173,4.365,4.365,0,0,1,4.642,4.173Z"/><path class="a" d="M464.7,895.125l-4.914-13.1h-5.3l7.566,18.837h5.343l7.566-18.837h-5.343Z"/><path class="b" d="M532.833,896.919c-1.092,0-1.716-.9-1.716-2.067v-8.5h3.822v-4.329h-3.822v-5.149h-4.992v5.149H523v4.329h3.121v9.828c0,3.354,1.872,5.148,5.343,5.148a6.114,6.114,0,0,0,4.134-1.209l-1.053-3.744A2.706,2.706,0,0,1,532.833,896.919Z"/><path class="b" d="M543.284,884.595v-2.574h-4.952v18.837h4.952V888.417a6.086,6.086,0,0,1,6.007-1.989v-4.836A8.059,8.059,0,0,0,543.284,884.595Z"/><path class="b" d="M559.912,881.553a9.588,9.588,0,0,0-9.751,9.867c0,6.044,4.329,9.906,10.063,9.906a11.743,11.743,0,0,0,7.761-2.613l-2.184-3.2a7.706,7.706,0,0,1-5.031,1.872c-3.2,0-5.11-1.989-5.421-4.368h14v-1.092C569.35,885.765,565.528,881.553,559.912,881.553Zm-4.641,8.112a4.527,4.527,0,0,1,4.641-4.173,4.364,4.364,0,0,1,4.641,4.173Z"/><path class="b" d="M579.972,881.553a12.354,12.354,0,0,0-8.23,2.964l1.872,3.315a7.929,7.929,0,0,1,5.5-2.223c2.5,0,4.135,1.248,4.135,3.159v2.613a7.615,7.615,0,0,0-5.968-2.3c-3,0-6.551,1.6-6.551,6.006,0,4.211,3.548,6.24,6.551,6.24a7.8,7.8,0,0,0,5.968-2.418v1.95H588.2V888.691C588.2,883.269,584.262,881.553,579.972,881.553Zm3.276,14.781a4.955,4.955,0,0,1-3.978,1.638c-1.951,0-3.549-1.014-3.549-2.769,0-1.833,1.6-2.846,3.549-2.846a4.955,4.955,0,0,1,3.978,1.637Z"/><path class="b" d="M615.93,881.553a8,8,0,0,0-6.474,3.431c-.7-2.144-2.457-3.431-5.227-3.431a8.243,8.243,0,0,0-6.162,2.925v-2.457h-4.953v18.837h4.953V888.183a5.057,5.057,0,0,1,3.9-2.223c2.027,0,2.807,1.248,2.807,3v11.895h4.993V888.144a5,5,0,0,1,3.9-2.184c2.028,0,2.808,1.248,2.808,3v11.895h4.992V887.247C621.468,883.386,619.4,881.553,615.93,881.553Z"/><path class="a" d="M408.121,875.283h10.257c8.152,0,13.807,5.186,13.807,13.026S426.53,901.3,418.378,901.3H408.121Zm10.257,21.138a7.788,7.788,0,0,0,8.152-8.112c0-4.6-2.808-8.151-8.152-8.151h-4.719v16.263Z"/><path class="b" d="M512.2,884.946c-3-.7-5.187-1.248-5.187-3,0-1.559,1.325-2.651,3.821-2.651a11.1,11.1,0,0,1,7.45,2.847l3.081-4.057a14.47,14.47,0,0,0-10.14-3.627c-6.123,0-9.868,3.511-9.868,7.84,0,5.811,5.46,6.981,9.712,7.956,3,.7,5.265,1.365,5.265,3.315,0,1.481-1.482,2.925-4.524,2.925a11.408,11.408,0,0,1-8.269-3.51l-3.042,4.212c2.457,2.457,6.045,4.134,11.038,4.134,7.02,0,10.413-3.588,10.413-8.346C521.952,887.208,516.492,885.921,512.2,884.946Z"/><path class="c" d="M507.972,892.583a8.336,8.336,0,0,0,1.528.59c.044-.058.081-.12.122-.179C509.1,892.873,508.557,892.742,507.972,892.583Z"/><path class="c" d="M461.157,877.734c-.011-.152-.664.3,0,0Z"/><path class="c" d="M496.574,897.507l5.475-7.581a9,9,0,0,1-3.69-7.632,10.245,10.245,0,0,1,5.841-9.225l-2.875-6.281a6.773,6.773,0,0,0-8.968-3.336L461.2,877.718c-.018.008-.022.008-.038.016,0,.04-.028.112-.157.266l.518,1.521,3.181,8.484,3.182-8.484h10.774l-9.575,23.837h-3.587l1.293,2.824a6.772,6.772,0,0,0,8.967,3.336l22.522-10.31Z"/><path class="a" d="M498.38,899.313l-1.806-1.806,5.475-7.581a9,9,0,0,1-3.69-7.632c0-4.51,2.8-8.121,7.131-9.8l-2.148-4.693a6.775,6.775,0,0,0-8.968-3.336l-31.162,14.266a6.759,6.759,0,0,0-1.6,1.036l3.091,8.243,3.182-8.484h10.774l-9.575,23.837h-2.032l1.755,3.833a6.774,6.774,0,0,0,8.968,3.336L499.7,900.49A16.058,16.058,0,0,1,498.38,899.313Z"/><path class="d" d="M493.931,889.171l-9.593,7.377a.782.782,0,0,1-.425.161.784.784,0,0,1-.834-.729l-.906-13.395a.783.783,0,0,1,1.171-.732l10.5,6.017a.784.784,0,0,1,.088,1.3Z"/></g></svg>