<svg xmlns="http://www.w3.org/2000/svg" width="245.154" height="45.63" viewBox="0 0 245.154 45.63">
  <g id="Group_7370" data-name="Group 7370" transform="translate(-57.846 -26)">
    <g id="Group_5124" data-name="Group 5124" transform="translate(26.001 -589.372)">
      <path id="Path_30912" data-name="Path 30912" d="M48.212,635.451H42.334v19H37.613v-19H31.845v-4.345H48.212Z" transform="translate(0 6.225)" fill="#151515"/>
      <path id="Path_30913" data-name="Path 30913" d="M51.075,644.546H43.649v5.578H52.42v4.332H38.928V631.106H52.446v4.345h-8.8v4.925h7.426Z" transform="translate(11.412 6.225)" fill="#151515"/>
      <path id="Path_30914" data-name="Path 30914" d="M51.543,645.765l-1.937,2.53v6.16H44.884V631.106h4.721v10.3l1.642-2.966,4.225-7.33h5.836l-6.617,10.327,6.617,13.022h-5.6Z" transform="translate(21.008 6.225)" fill="#151515"/>
      <path id="Path_30915" data-name="Path 30915" d="M67.87,646.757a9.719,9.719,0,0,1-1.1,4.306,7.156,7.156,0,0,1-2.831,2.893,8.331,8.331,0,0,1-4.162,1.029,7.148,7.148,0,0,1-6.079-3q-2.221-3-2.22-8.465v-1.154a16.549,16.549,0,0,1,1-6.006,8.793,8.793,0,0,1,2.885-3.977,7.108,7.108,0,0,1,4.358-1.4,7.608,7.608,0,0,1,5.732,2.24,9.582,9.582,0,0,1,2.46,6.162H63.2a4.676,4.676,0,0,0-.9-3.063,3.326,3.326,0,0,0-2.582-.927,2.723,2.723,0,0,0-2.582,1.569,11.762,11.762,0,0,0-.859,5.019v1.653a13.05,13.05,0,0,0,.786,5.337,2.773,2.773,0,0,0,2.71,1.6,3.26,3.26,0,0,0,2.488-.911,4.328,4.328,0,0,0,.914-2.9Z" transform="translate(31.626 6.017)" fill="#151515"/>
      <path id="Path_30916" data-name="Path 30916" d="M70.722,650.092H64.252l-1.131,4.363H58.079l7.183-23.349H69.7l7.236,23.349H71.864Zm-5.34-4.345h4.209l-2.112-8.1Z" transform="translate(42.268 6.225)" fill="#151515"/>
      <path id="Path_30917" data-name="Path 30917" d="M70.62,646.53v7.925H65.9V631.106h7.815a7.871,7.871,0,0,1,3.974.987,6.748,6.748,0,0,1,2.676,2.8,8.821,8.821,0,0,1,.948,4.131,7.357,7.357,0,0,1-2.05,5.46,7.624,7.624,0,0,1-5.63,2.042Zm0-4.345h3.094a2.636,2.636,0,0,0,2.092-.815,3.383,3.383,0,0,0,.718-2.311,4.23,4.23,0,0,0-.739-2.614,2.445,2.445,0,0,0-2.016-.995H70.62Z" transform="translate(54.868 6.225)" fill="#151515"/>
      <path id="Path_30918" data-name="Path 30918" d="M83.3,648.445a2.516,2.516,0,0,0-.734-1.924,8.608,8.608,0,0,0-2.575-1.426,22.75,22.75,0,0,1-3.013-1.428,6.827,6.827,0,0,1-3.807-6.126,6.222,6.222,0,0,1,.948-3.423,6.3,6.3,0,0,1,2.684-2.308,8.994,8.994,0,0,1,3.9-.825,7.87,7.87,0,0,1,3.789.9,6.384,6.384,0,0,1,2.6,2.556,7.641,7.641,0,0,1,.93,3.794H83.316a3.122,3.122,0,0,0-.734-2.214,2.586,2.586,0,0,0-1.985-.786,2.857,2.857,0,0,0-2,.666,2.178,2.178,0,0,0,.076,3.321,9.649,9.649,0,0,0,2.838,1.507,16.007,16.007,0,0,1,3.334,1.674,6.911,6.911,0,0,1,3.175,6.014,6.157,6.157,0,0,1-1.938,4.81,7.647,7.647,0,0,1-5.314,1.75,9.1,9.1,0,0,1-4.311-1.021,6.876,6.876,0,0,1-2.9-2.789,8.328,8.328,0,0,1-.977-4.081h4.737a4,4,0,0,0,.812,2.765,3.434,3.434,0,0,0,2.643.89,2.692,2.692,0,0,0,1.849-.6A2.141,2.141,0,0,0,83.3,648.445Z" transform="translate(65.634 6.029)" fill="#151515"/>
      <path id="Path_30919" data-name="Path 30919" d="M94.082,650.123H102.3v4.332H89.361V631.106h4.721Z" transform="translate(92.67 6.225)" fill="#151515"/>
      <path id="Path_30920" data-name="Path 30920" d="M107.278,644.546H99.852v5.578h8.771v4.332H95.131V631.106h13.518v4.345h-8.8v4.925h7.426Z" transform="translate(101.966 6.225)" fill="#151515"/>
      <path id="Path_30921" data-name="Path 30921" d="M85.764,642.41l-4.04-2.23,4.844-8.531a8.442,8.442,0,0,1,4.669-4.1,7.244,7.244,0,0,1,5.852.789,7.87,7.87,0,0,1,3.016,2.76,6.241,6.241,0,0,1,.888,3.677,9.627,9.627,0,0,1-1.353,4.209l-4.789,8.437-4.016-2.214" transform="translate(80.365)" fill="#2a2a2a"/>
      <path id="Path_30922" data-name="Path 30922" d="M82.346,640.629s.658-.574,2.191,1.358c0,0,4.285-7.6,5.256-9.006a18.947,18.947,0,0,1,1.851-2.488c1-1.042,2.107-1.844,2.974-1.582,0,0-2.75-1.562-4.353-.452a5.977,5.977,0,0,0-1.454,1.3,27.357,27.357,0,0,0-2.575,4.06C84.529,636.767,82.346,640.629,82.346,640.629Z" transform="translate(81.367 1.317)" fill="#fff"/>
      <rect id="Rectangle_4015" data-name="Rectangle 4015" width="4.242" height="16.701" transform="translate(160.764 640.795) rotate(-60)" fill="#fff"/>
      <path id="Path_30923" data-name="Path 30923" d="M99.214,639.388l-5.029,8.988a10.592,10.592,0,0,1-3.058,3.567,6.677,6.677,0,0,1-3.771,1.285,7.981,7.981,0,0,1-4.079-1.115,7.246,7.246,0,0,1-3.812-4.731,9.048,9.048,0,0,1,1.2-6.439l5.084-9.087,4.144,2.319-5.141,9.189q-1.845,3.463.689,4.88a2.624,2.624,0,0,0,2.418.225,5.327,5.327,0,0,0,2.222-2.426l5.011-8.959Z" transform="translate(76.432 7.432)" fill="#e30045"/>
    </g>
    <rect id="Rectangle_6275" data-name="Rectangle 6275" width="61" height="30" rx="15" transform="translate(242 26)" fill="rgba(6,37,74,0.75)"/>
    <text id="beta" transform="translate(273 46)" fill="#fff" font-size="18" font-family="HelveticaNeueLTPro-Md, Helvetica Neue LT Pro" font-weight="500"><tspan x="-18" y="0">beta</tspan></text>
  </g>
</svg>
