<svg xmlns="http://www.w3.org/2000/svg" width="133.196" height="26.519" viewBox="0 0 133.196 26.519">
  <g id="Group_17295" data-name="Group 17295" transform="translate(-66.874 -30.769)">
    <path id="Path_40984" data-name="Path 40984" d="M0,16.875v2.135H4.3V32.828H6.931V19.009h4.274V16.875Z" transform="translate(66.874 18.446)" fill="#fff"/>
    <path id="Path_40985" data-name="Path 40985" d="M66.445,37.288H56.718a3.5,3.5,0,0,0,1.132,2.433,3.588,3.588,0,0,0,2.5.918,3.084,3.084,0,0,0,3-1.768h2.842A5.7,5.7,0,0,1,64.1,41.73a6.16,6.16,0,0,1-3.754,1.113,6.534,6.534,0,0,1-3.269-.815,5.815,5.815,0,0,1-2.264-2.3,6.964,6.964,0,0,1-.82-3.431,7.13,7.13,0,0,1,.8-3.432,5.585,5.585,0,0,1,2.241-2.284,6.7,6.7,0,0,1,3.316-.8,6.52,6.52,0,0,1,3.212.781,5.537,5.537,0,0,1,2.195,2.192A6.572,6.572,0,0,1,66.538,36a8.174,8.174,0,0,1-.092,1.286m-2.657-2.112a2.971,2.971,0,0,0-1.04-2.319,3.734,3.734,0,0,0-2.519-.872,3.4,3.4,0,0,0-2.333.861,3.589,3.589,0,0,0-1.155,2.33Z" transform="translate(25.844 8.637)" fill="#fff"/>
    <path id="Path_40986" data-name="Path 40986" d="M121.97,23.245l5.869,6.313h-3.558l-4.713-5.44v5.44h-2.634V12.571h2.634v9.87l4.621-5.532h3.651Z" transform="translate(-21.988 21.716)" fill="#fff"/>
    <path id="Path_40987" data-name="Path 40987" d="M167.6,19.961a7.79,7.79,0,0,1,2.981-2.9,8.811,8.811,0,0,1,8.687.207,7.136,7.136,0,0,1,2.9,3.546H179a4.229,4.229,0,0,0-1.733-1.882,5.172,5.172,0,0,0-2.565-.62,5.634,5.634,0,0,0-2.842.712,4.968,4.968,0,0,0-1.952,2.043,6.526,6.526,0,0,0-.7,3.1,6.523,6.523,0,0,0,.7,3.1,5.041,5.041,0,0,0,1.952,2.055,5.563,5.563,0,0,0,2.842.723,5.169,5.169,0,0,0,2.565-.62A4.226,4.226,0,0,0,179,27.537h3.165a7.072,7.072,0,0,1-2.9,3.535,8.477,8.477,0,0,1-4.563,1.24,8.337,8.337,0,0,1-4.136-1.045,7.811,7.811,0,0,1-2.969-2.9,8.106,8.106,0,0,1-1.1-4.2,8.106,8.106,0,0,1,1.1-4.2" transform="translate(-59.654 19.1)" fill="#fff"/>
    <path id="Path_40988" data-name="Path 40988" d="M241.593,32.882a5.813,5.813,0,0,1,5.21-3.1,5.587,5.587,0,0,1,2.622.585,5.322,5.322,0,0,1,1.791,1.457V29.99h2.657V42.638h-2.657V40.755a5.227,5.227,0,0,1-1.825,1.492,5.941,5.941,0,0,1-5.637-.241,5.957,5.957,0,0,1-2.16-2.342,7.163,7.163,0,0,1-.8-3.409,6.963,6.963,0,0,1,.8-3.374m9.08,1.148a3.8,3.8,0,0,0-1.421-1.469,3.737,3.737,0,0,0-1.895-.505,3.8,3.8,0,0,0-1.895.494A3.733,3.733,0,0,0,244.042,34a4.489,4.489,0,0,0-.543,2.261,4.684,4.684,0,0,0,.543,2.3,3.813,3.813,0,0,0,1.432,1.5,3.689,3.689,0,0,0,1.883.517,3.735,3.735,0,0,0,1.895-.505,3.775,3.775,0,0,0,1.421-1.481,4.623,4.623,0,0,0,.543-2.284,4.559,4.559,0,0,0-.543-2.273" transform="translate(-116.115 8.636)" fill="#fff"/>
    <path id="Path_40989" data-name="Path 40989" d="M314.069,30.379a5.608,5.608,0,0,1,2.611-.6,5.85,5.85,0,0,1,3.038.815,5.744,5.744,0,0,1,2.16,2.284,7.05,7.05,0,0,1,.786,3.375,7.25,7.25,0,0,1-.786,3.409,5.847,5.847,0,0,1-2.16,2.342,5.725,5.725,0,0,1-3.038.838,5.552,5.552,0,0,1-2.588-.585,5.789,5.789,0,0,1-1.848-1.457v7.851H309.61V29.989h2.634v1.859a5.35,5.35,0,0,1,1.825-1.469m5.372,3.616a3.715,3.715,0,0,0-1.432-1.446,3.867,3.867,0,0,0-1.906-.494,3.777,3.777,0,0,0-3.316,1.974,4.556,4.556,0,0,0-.543,2.272,4.621,4.621,0,0,0,.543,2.284,3.765,3.765,0,0,0,5.222,1.469,3.818,3.818,0,0,0,1.432-1.5,4.691,4.691,0,0,0,.543-2.3,4.5,4.5,0,0,0-.543-2.261" transform="translate(-168.409 8.637)" fill="#fff"/>
    <path id="Path_40990" data-name="Path 40990" d="M374.5,42.3a4.717,4.717,0,0,1-1.883-1.469,3.647,3.647,0,0,1-.739-2.078H374.6a1.84,1.84,0,0,0,.774,1.343,2.82,2.82,0,0,0,1.767.54,2.99,2.99,0,0,0,1.721-.425,1.28,1.28,0,0,0,.612-1.09,1.119,1.119,0,0,0-.682-1.056,12.843,12.843,0,0,0-2.16-.757,20.924,20.924,0,0,1-2.333-.757,4.086,4.086,0,0,1-1.559-1.125,2.935,2.935,0,0,1-.658-2,3.1,3.1,0,0,1,.6-1.848,4,4,0,0,1,1.721-1.32,6.472,6.472,0,0,1,2.576-.482,5.346,5.346,0,0,1,3.5,1.09,3.909,3.909,0,0,1,1.421,2.973h-2.634a1.861,1.861,0,0,0-.694-1.354,2.605,2.605,0,0,0-1.686-.5,2.754,2.754,0,0,0-1.594.39,1.207,1.207,0,0,0-.554,1.033,1.114,1.114,0,0,0,.37.85,2.632,2.632,0,0,0,.9.539q.531.2,1.571.494a17.186,17.186,0,0,1,2.276.746,4.243,4.243,0,0,1,1.537,1.113,2.939,2.939,0,0,1,.67,1.951,3.256,3.256,0,0,1-.6,1.928,3.981,3.981,0,0,1-1.7,1.331,6.362,6.362,0,0,1-2.576.482A6.454,6.454,0,0,1,374.5,42.3" transform="translate(-215.728 8.636)" fill="#fff"/>
    <rect id="Rectangle_6741" data-name="Rectangle 6741" width="2.634" height="16.987" transform="translate(182.326 34.287)" fill="#fff"/>
    <path id="Path_40991" data-name="Path 40991" d="M515.025,37.288H505.3a3.5,3.5,0,0,0,1.132,2.433,3.587,3.587,0,0,0,2.5.918,3.084,3.084,0,0,0,3-1.768h2.842a5.7,5.7,0,0,1-2.091,2.858,6.161,6.161,0,0,1-3.755,1.113,6.534,6.534,0,0,1-3.269-.815,5.813,5.813,0,0,1-2.264-2.3,6.964,6.964,0,0,1-.82-3.431,7.128,7.128,0,0,1,.8-3.432,5.584,5.584,0,0,1,2.241-2.284,6.7,6.7,0,0,1,3.315-.8,6.519,6.519,0,0,1,3.212.781,5.539,5.539,0,0,1,2.2,2.192A6.572,6.572,0,0,1,515.118,36a8.143,8.143,0,0,1-.093,1.286m-2.657-2.112a2.971,2.971,0,0,0-1.04-2.319,3.734,3.734,0,0,0-2.518-.872,3.394,3.394,0,0,0-2.334.861,3.588,3.588,0,0,0-1.155,2.33Z" transform="translate(-315.048 8.637)" fill="#fff"/>
    <path id="Subtraction_44" data-name="Subtraction 44" d="M6.482,12.047a3.989,3.989,0,0,1-2.011-.54A4.61,4.61,0,0,1,2.733,9.616L0,4.487,2.517,3.152,5.255,8.289a1.9,1.9,0,0,0,1.1,1.058,1.451,1.451,0,0,0,.367.046,2.487,2.487,0,0,0,1.148-.335A2.1,2.1,0,0,0,8.94,7.969a1.9,1.9,0,0,0-.266-1.5L5.939,1.336,8.457,0l2.725,5.114a4.572,4.572,0,0,1,.593,2.505,4.043,4.043,0,0,1-.842,2.195A5.709,5.709,0,0,1,9.073,11.35a5.709,5.709,0,0,1-2.313.688C6.662,12.044,6.571,12.047,6.482,12.047Z" transform="translate(169.248 39.737)" fill="#fff" stroke="rgba(0,0,0,0)" stroke-width="1"/>
    <path id="Subtraction_47" data-name="Subtraction 47" d="M2.861,10.968h0L.626,6.95A4.279,4.279,0,0,1,.19,3.5,4.957,4.957,0,0,1,2.663.774,5.7,5.7,0,0,1,5.136.006C5.2,0,5.272,0,5.345,0a3.757,3.757,0,0,1,1.98.552A4.816,4.816,0,0,1,8.99,2.368l2.3,4.13L5.764,9.428C4.728,7.509,4.086,6.28,3.908,5.874c-.419-.956-.954-2.729-.3-3.313-.013,0-1.315.5-1.571,1.525-.248,1,.341,2.066.965,3.2.113.206.2.374.289.531.325.611.725,1.354,1.224,2.274l.753-.4-2.4,1.276Z" transform="translate(165.292 31.269)" fill="#ef1054" stroke="rgba(0,0,0,0)" stroke-width="1"/>
  </g>
</svg>
