<svg id="Group_7659" data-name="Group 7659" xmlns="http://www.w3.org/2000/svg" xmlns:xlink="http://www.w3.org/1999/xlink" width="230.366" height="45" viewBox="0 0 230.366 45">
  <defs>
    <clipPath id="clip-path">
      <rect id="Rectangle_6743" data-name="Rectangle 6743" width="230.366" height="45" fill="none"/>
    </clipPath>
  </defs>
  <path id="Path_40984" data-name="Path 40984" d="M0,16.875v3.692H7.432v23.9h4.556v-23.9h7.393V16.875Z" transform="translate(0 -9.868)"/>
  <g id="Group_7658" data-name="Group 7658">
    <g id="Group_7657" data-name="Group 7657" clip-path="url(#clip-path)">
      <path id="Path_40985" data-name="Path 40985" d="M75.53,42.764H58.707a6.053,6.053,0,0,0,1.958,4.208,6.206,6.206,0,0,0,4.316,1.588A5.334,5.334,0,0,0,70.176,45.5h4.915a9.861,9.861,0,0,1-3.616,4.943,10.654,10.654,0,0,1-6.493,1.926,11.3,11.3,0,0,1-5.655-1.409,10.057,10.057,0,0,1-3.916-3.971,12.045,12.045,0,0,1-1.418-5.935,12.332,12.332,0,0,1,1.378-5.935,9.66,9.66,0,0,1,3.876-3.95,11.594,11.594,0,0,1,5.734-1.39,11.277,11.277,0,0,1,5.555,1.35,9.577,9.577,0,0,1,3.8,3.791,11.367,11.367,0,0,1,1.359,5.618,14.138,14.138,0,0,1-.16,2.223m-4.6-3.653a5.139,5.139,0,0,0-1.8-4.01,6.458,6.458,0,0,0-4.356-1.508,5.871,5.871,0,0,0-4.036,1.489,6.208,6.208,0,0,0-2,4.03Z" transform="translate(-31.575 -17.417)"/>
      <path id="Path_40986" data-name="Path 40986" d="M125.645,31.032l10.15,10.918h-6.154l-8.152-9.409V41.95h-4.556V12.571h4.556V29.642l7.992-9.567h6.314Z" transform="translate(-68.383 -7.352)"/>
      <path id="Path_40987" data-name="Path 40987" d="M168.4,22.842a13.473,13.473,0,0,1,5.155-5.022,15.239,15.239,0,0,1,15.025.357,12.341,12.341,0,0,1,5.015,6.133h-5.474a7.314,7.314,0,0,0-3-3.255,8.945,8.945,0,0,0-4.436-1.072,9.744,9.744,0,0,0-4.915,1.231,8.592,8.592,0,0,0-3.376,3.533,11.287,11.287,0,0,0-1.219,5.359,11.282,11.282,0,0,0,1.219,5.359,8.718,8.718,0,0,0,3.376,3.554,9.621,9.621,0,0,0,4.915,1.251,8.941,8.941,0,0,0,4.436-1.072,7.31,7.31,0,0,0,3-3.255h5.474a12.232,12.232,0,0,1-5.015,6.113,14.662,14.662,0,0,1-7.892,2.144,14.42,14.42,0,0,1-7.153-1.807,13.51,13.51,0,0,1-5.135-5.022,14.019,14.019,0,0,1-1.9-7.265,14.019,14.019,0,0,1,1.9-7.265" transform="translate(-97.368 -9.364)"/>
      <path id="Path_40988" data-name="Path 40988" d="M242.175,35.142a10.053,10.053,0,0,1,9.011-5.359,9.664,9.664,0,0,1,4.536,1.012,9.2,9.2,0,0,1,3.1,2.521V30.14h4.6V52.015h-4.6V48.76a9.039,9.039,0,0,1-3.157,2.58,10.275,10.275,0,0,1-9.75-.416,10.3,10.3,0,0,1-3.736-4.05,12.388,12.388,0,0,1-1.379-5.9,12.042,12.042,0,0,1,1.379-5.836m15.7,1.985a6.566,6.566,0,0,0-2.458-2.541,6.464,6.464,0,0,0-3.277-.874,6.578,6.578,0,0,0-3.277.854,6.457,6.457,0,0,0-2.457,2.5,7.765,7.765,0,0,0-.939,3.91,8.1,8.1,0,0,0,.939,3.971,6.594,6.594,0,0,0,2.477,2.6,6.38,6.38,0,0,0,3.256.894,6.46,6.46,0,0,0,3.277-.874,6.528,6.528,0,0,0,2.458-2.561,8,8,0,0,0,.939-3.95,7.885,7.885,0,0,0-.939-3.931" transform="translate(-140.818 -17.417)"/>
      <path id="Path_40989" data-name="Path 40989" d="M317.322,30.814a9.7,9.7,0,0,1,4.515-1.032,10.117,10.117,0,0,1,5.255,1.41,9.935,9.935,0,0,1,3.736,3.95,12.192,12.192,0,0,1,1.359,5.836,12.54,12.54,0,0,1-1.359,5.9,10.114,10.114,0,0,1-3.736,4.05,9.9,9.9,0,0,1-5.255,1.449,9.6,9.6,0,0,1-4.475-1.012,10.012,10.012,0,0,1-3.2-2.521V62.417H309.61V30.139h4.555v3.216a9.252,9.252,0,0,1,3.157-2.541m9.291,6.253a6.426,6.426,0,0,0-2.478-2.5,6.689,6.689,0,0,0-3.3-.854,6.533,6.533,0,0,0-5.735,3.414,7.879,7.879,0,0,0-.939,3.93,7.992,7.992,0,0,0,.939,3.95,6.511,6.511,0,0,0,9.031,2.541,6.6,6.6,0,0,0,2.478-2.6,8.114,8.114,0,0,0,.939-3.97,7.776,7.776,0,0,0-.939-3.91" transform="translate(-181.06 -17.417)"/>
      <path id="Path_40990" data-name="Path 40990" d="M376.413,51.44a8.158,8.158,0,0,1-3.257-2.541,6.308,6.308,0,0,1-1.279-3.593h4.716a3.183,3.183,0,0,0,1.339,2.322,4.877,4.877,0,0,0,3.057.933,5.171,5.171,0,0,0,2.977-.734,2.213,2.213,0,0,0,1.059-1.886,1.936,1.936,0,0,0-1.179-1.826,22.212,22.212,0,0,0-3.736-1.31,36.185,36.185,0,0,1-4.036-1.31,7.067,7.067,0,0,1-2.7-1.946,5.075,5.075,0,0,1-1.139-3.454,5.359,5.359,0,0,1,1.039-3.2,6.912,6.912,0,0,1,2.977-2.283,11.193,11.193,0,0,1,4.456-.834,9.246,9.246,0,0,1,6.054,1.886,6.76,6.76,0,0,1,2.457,5.141h-4.555a3.218,3.218,0,0,0-1.2-2.343,4.505,4.505,0,0,0-2.917-.873,4.763,4.763,0,0,0-2.757.675,2.087,2.087,0,0,0-.959,1.786,1.926,1.926,0,0,0,.639,1.469,4.552,4.552,0,0,0,1.559.933q.918.338,2.717.854a29.72,29.72,0,0,1,3.936,1.29,7.337,7.337,0,0,1,2.658,1.925A5.083,5.083,0,0,1,389.5,45.9a5.632,5.632,0,0,1-1.039,3.334,6.886,6.886,0,0,1-2.938,2.3,11,11,0,0,1-4.455.834,11.162,11.162,0,0,1-4.656-.933" transform="translate(-217.474 -17.417)"/>
      <rect id="Rectangle_6741" data-name="Rectangle 6741" width="4.556" height="29.379" transform="translate(199.677 5.219)"/>
      <path id="Path_40991" data-name="Path 40991" d="M524.11,42.764H507.288a6.05,6.05,0,0,0,1.958,4.208,6.2,6.2,0,0,0,4.315,1.588,5.335,5.335,0,0,0,5.2-3.057h4.915a9.86,9.86,0,0,1-3.616,4.943,10.655,10.655,0,0,1-6.494,1.926,11.3,11.3,0,0,1-5.654-1.409,10.055,10.055,0,0,1-3.916-3.971,12.045,12.045,0,0,1-1.419-5.935,12.328,12.328,0,0,1,1.379-5.935,9.657,9.657,0,0,1,3.876-3.95,11.594,11.594,0,0,1,5.734-1.39,11.274,11.274,0,0,1,5.555,1.35,9.579,9.579,0,0,1,3.8,3.791,11.367,11.367,0,0,1,1.359,5.618,14.081,14.081,0,0,1-.16,2.223m-4.6-3.653a5.139,5.139,0,0,0-1.8-4.01,6.458,6.458,0,0,0-4.355-1.508,5.871,5.871,0,0,0-4.036,1.489,6.206,6.206,0,0,0-2,4.03Z" transform="translate(-293.904 -17.417)"/>
      <path id="Path_40992" data-name="Path 40992" d="M444.378,41.442,438.652,30.7l-4.35,2.318,5.737,10.766a3.289,3.289,0,0,1,.46,2.6,4.46,4.46,0,0,1-4.473,2.384,3.29,3.29,0,0,1-1.9-1.831l-5.738-10.765-4.349,2.318,5.725,10.742a7.975,7.975,0,0,0,3.006,3.272,6.9,6.9,0,0,0,3.479.933c.159,0,.318-.005.48-.015a10.474,10.474,0,0,0,7.219-3.848,6.991,6.991,0,0,0,1.457-3.8,7.908,7.908,0,0,0-1.026-4.333" transform="translate(-247.978 -17.953)"/>
      <path id="Path_40993" data-name="Path 40993" d="M420.031,17.741l-4.436,2.467-4.553-8.189a7.366,7.366,0,0,1-.754-5.969,8.528,8.528,0,0,1,4.276-4.71A9.794,9.794,0,0,1,418.842.01a6.506,6.506,0,0,1,3.784.946,8.274,8.274,0,0,1,2.881,3.139l4.5,8.1L425.6,14.646" transform="translate(-239.742 0)" fill="#ec1a57"/>
      <path id="Path_40994" data-name="Path 40994" d="M424.095,26.49s-.144-.837,2.193-1.1c0,0-4.088-7.466-4.758-8.994s-1.679-4.7-.528-5.731c0,0-2.264.825-2.717,2.639-.5,1.985.951,4.169,2.168,6.452,1.565,2.936,3.641,6.733,3.641,6.733" transform="translate(-244.555 -6.237)" fill="#fff"/>
      <rect id="Rectangle_6742" data-name="Rectangle 6742" width="23.914" height="3.925" transform="matrix(0.883, -0.469, 0.469, 0.883, 171.898, 20.701)" fill="#fff"/>
    </g>
  </g>
</svg>
