<svg xmlns="http://www.w3.org/2000/svg" width="21.326" height="14.995" viewBox="0 0 21.326 14.995"><defs><style>.a{fill:#95adde;}</style></defs><g transform="translate(0 -76)"><g transform="translate(14.67 77.071)"><g transform="translate(0 0)"><path class="a" d="M358.679,101.721l-6.468,6.426,6.468,6.426a1.853,1.853,0,0,0,.188-.8V102.524A1.853,1.853,0,0,0,358.679,101.721Z" transform="translate(-352.211 -101.721)"/></g></g><g transform="translate(1.071 76)"><g transform="translate(0 0)"><path class="a" d="M44.1,76H26.524a1.853,1.853,0,0,0-.8.188l8.266,8.225a1.876,1.876,0,0,0,2.65,0L44.9,76.188A1.853,1.853,0,0,0,44.1,76Z" transform="translate(-25.721 -76)"/></g></g><g transform="translate(0 77.071)"><g transform="translate(0 0)"><path class="a" d="M.188,101.721a1.853,1.853,0,0,0-.188.8V113.77a1.852,1.852,0,0,0,.188.8l6.468-6.426Z" transform="translate(0 -101.721)"/></g></g><g transform="translate(1.071 84.381)"><g transform="translate(0 0)"><path class="a" d="M38.437,277.211l-.915.915a3.127,3.127,0,0,1-4.417,0l-.915-.915-6.468,6.426a1.852,1.852,0,0,0,.8.188H44.1a1.852,1.852,0,0,0,.8-.188Z" transform="translate(-25.721 -277.211)"/></g></g></g></svg>