<svg xmlns="http://www.w3.org/2000/svg" width="21.862" height="21.151" viewBox="0 0 21.862 21.151">
  <g id="Group_16722" data-name="Group 16722" transform="translate(0)">
    <g id="Group_16723" data-name="Group 16723" transform="translate(0 0)">
      <path id="Path_64442" data-name="Path 64442" d="M14.877,24.476a3.492,3.492,0,0,1-5.31-.974,3.279,3.279,0,0,1-.439-1.7.11.11,0,0,0-.1-.13,3.306,3.306,0,0,1-1.893-1.151,3.431,3.431,0,0,1-.817-2.618,3.3,3.3,0,0,1,.964-2.06.128.128,0,0,0,.021-.172,2.922,2.922,0,0,1-.287-1.159,3.054,3.054,0,0,1,.864-2.3,3.121,3.121,0,0,1,2.1-.987.16.16,0,0,0,.116-.075,4.242,4.242,0,0,1,1.714-2.114,4.159,4.159,0,0,1,4.662.131.474.474,0,0,0,.447.075,3.734,3.734,0,0,1,3.692.945,3.791,3.791,0,0,1,1.154,2.261,3.541,3.541,0,0,1,.017.643.157.157,0,0,0,.094.171,2.393,2.393,0,0,1,1.209,1.413,2.362,2.362,0,0,1-.3,2.122,2.014,2.014,0,0,1-.184.241.133.133,0,0,0-.011.191,3.751,3.751,0,0,1,.622,1.967,3.85,3.85,0,0,1-2.337,3.664,3.549,3.549,0,0,1-1.1.285.237.237,0,0,0-.238.189,2.8,2.8,0,0,1-4.658,1.137M16.718,19a2,2,0,0,0,1.43,1.934A6.983,6.983,0,0,0,19.2,21.1a1.714,1.714,0,0,0,.825-.1.542.542,0,0,0,.387-.543.568.568,0,0,0-.407-.6,1.72,1.72,0,0,0-.258-.063c-.266-.052-.536-.086-.8-.157a.5.5,0,0,1-.406-.537,3.07,3.07,0,0,1,.063-.661,11.135,11.135,0,0,1,.721-1.955,17.922,17.922,0,0,0,.848-2.116,1.838,1.838,0,0,0,.091-.873,1.272,1.272,0,0,0-.73-1.05,1.891,1.891,0,0,0-1.707.05c-.042.024-.086.045-.128.069a.179.179,0,0,1-.224-.025l-.4-.356a1.164,1.164,0,0,0-.885-.294,1.235,1.235,0,0,0-.75.363c-.148.131-.3.263-.455.384a.487.487,0,0,1-.566.045c-.3-.155-.6-.295-.908-.434a1.127,1.127,0,0,0-.638-.113,2,2,0,0,0-1.619,1.095,3.4,3.4,0,0,0-.186.421c-.343,1.015-.69,2.028-1.015,3.049-.218.685-.423,1.376-.6,2.074a1.377,1.377,0,0,0,.533,1.5,1.59,1.59,0,0,0,1.64.223,1.236,1.236,0,0,0,.649-.726c.257-.616.493-1.24.737-1.861q.536-1.367,1.072-2.733a1.14,1.14,0,0,1,.135-.257.476.476,0,0,1,.512-.2.427.427,0,0,1,.313.394.937.937,0,0,1-.035.406c-.12.364-.256.724-.395,1.082-.252.648-.517,1.292-.766,1.941a.866.866,0,0,0,0,.7.739.739,0,0,0,.946.323,1.191,1.191,0,0,0,.725-.659c.179-.354.351-.711.529-1.065.51-1.016,1.019-2.034,1.536-3.046a1.51,1.51,0,0,1,.286-.372.39.39,0,0,1,.422-.069c.126.045.136.174.151.285a.406.406,0,0,1-.027.189c-.064.178-.129.358-.209.529-.388.829-.785,1.652-1.168,2.482A2.357,2.357,0,0,0,16.718,19" transform="translate(-4.182 -5.573)" fill="#f6f6f6"/>
      <path id="Path_64443" data-name="Path 64443" d="M47.287,56.773a1.054,1.054,0,0,1-1.031-1.057,1.041,1.041,0,1,1,2.08.07,1.051,1.051,0,0,1-1.049.987" transform="translate(-30.721 -36.32)" fill="#f6f6f6"/>
      <path id="Path_64444" data-name="Path 64444" d="M37.831,3.137A1.051,1.051,0,0,1,36.752,4.17a1.034,1.034,0,0,1-1.008-1.047A1.055,1.055,0,0,1,36.78,2.081a1.07,1.07,0,0,1,1.052,1.056" transform="translate(-23.74 -1.382)" fill="#f6f6f6"/>
      <path id="Path_64445" data-name="Path 64445" d="M2.08,28.385a1.023,1.023,0,0,1-1.044,1.022A1.037,1.037,0,0,1,0,28.359a1.059,1.059,0,0,1,1.036-1.031A1.046,1.046,0,0,1,2.08,28.385" transform="translate(0 -18.15)" fill="#f6f6f6"/>
      <path id="Path_64446" data-name="Path 64446" d="M13.31,11.871a.674.674,0,0,1-.678-.7.712.712,0,0,1,.672-.683.735.735,0,0,1,.712.72.726.726,0,0,1-.706.667" transform="translate(-8.39 -6.963)" fill="#f6f6f6"/>
      <path id="Path_64447" data-name="Path 64447" d="M55.355,18.177a.695.695,0,1,1,.691-.676.7.7,0,0,1-.691.676" transform="translate(-36.308 -11.15)" fill="#f6f6f6"/>
      <path id="Path_64448" data-name="Path 64448" d="M30.135,58.863a.691.691,0,1,1-.025,1.382.691.691,0,0,1,.025-1.382" transform="translate(-19.555 -39.094)" fill="#f6f6f6"/>
      <path id="Path_64449" data-name="Path 64449" d="M59.59,31.541a.691.691,0,1,1-.694.678.68.68,0,0,1,.694-.678" transform="translate(-39.117 -20.948)" fill="#f6f6f6"/>
      <path id="Path_64450" data-name="Path 64450" d="M18.932.339A.338.338,0,0,1,19.269,0,.334.334,0,0,1,19.6.345a.379.379,0,0,1-.337.35.365.365,0,0,1-.331-.356" transform="translate(-12.574 0)" fill="#f6f6f6"/>
      <path id="Path_64451" data-name="Path 64451" d="M11.185,50.812a.331.331,0,0,1-.346.327.342.342,0,0,1-.314-.364.329.329,0,0,1,.344-.318.32.32,0,0,1,.316.354" transform="translate(-6.99 -33.512)" fill="#f6f6f6"/>
      <path id="Path_64452" data-name="Path 64452" d="M63.424,25.245a.38.38,0,0,1,.327.346.385.385,0,0,1-.353.339.375.375,0,0,1-.327-.361.342.342,0,0,1,.353-.324" transform="translate(-41.889 -16.767)" fill="#f6f6f6"/>
    </g>
  </g>
</svg>
