<svg xmlns="http://www.w3.org/2000/svg" width="400.251" height="291.535" viewBox="0 0 400.251 291.535"><defs><style>.a{fill:#f1f1f1;}.b{fill:#9e9e9e;}.c{fill:#e6e6e6;}.d{fill:#bbd2f5;}.e{fill:#869cbe;}.f{fill:#4a5874;}.g{fill:#151515;}.h{fill:#00003b;}.i{fill:#290075;}.j{fill:#00c7ff;}.k{fill:#82e6ff;}.l{fill:#fff;}.m{fill:#e30045;}.n{fill:#e9b2ab;}.o{fill:#f2beb7;}.p{fill:#171717;}.q{fill:#131313;}.r{fill:#be0d43;}.s{fill:#161616;}.t{fill:#710123;}.u{fill:#101010;}.v{fill:#484848;}.w{fill:#737373;}.x{fill:#363636;}.y{fill:#eee;}.z{fill:#717171;}.aa{fill:#ececec;}</style></defs><g transform="translate(-112.169 -160.758)"><g transform="translate(112.169 160.758)"><path class="a" d="M230.574,431.217s-22.028-15.832-33.3-34.166c0,0,7.272,16.527,8.39,30.26,0,0-57.688-8.133-68.253-36.991s-6.124-60.586-25.246-67.435c0,0,9.049-3.011,23.134,0s4.226,9.973,9.507,12.3,21.17-3.1,25.023,5.251-6.334,10.777-1.065,13.083,17.453,0,17.453,0-12.368-37.06-9.107-49.069,14.755,2.044,17.107-3.751-8.916-18-5.043-26.687,7.747,3.422,11.62.537S210.905,253.922,222.227,251s24.479,0,24.479,0-15.675,7.187-21.458,22.732,5.655,15.544,12.437,33.151-6.77,23.384-9.327,37.574,4.487,9.26,12.234,28.628S230.574,431.217,230.574,431.217Z" transform="translate(-112.169 -235.13)"/><path class="a" d="M433.27,484.471s.913-26.527,7.317-45.434c0,0-8.858,21.236-13.669,24.121,0,0-9.1-23.51-5.786-45.583s8.311-49.9,23.486-70.861,29.935-23.551,29.935-23.551,13.836,16.829,0,33.982,6.508,1.039,16.91,4.242,19.178,30.019-6.94,44.814-8.645,12.35.651,20.508S477.33,477.474,433.27,484.471Z" transform="translate(-273.711 -273.631)"/><g transform="translate(26.88 111.564)"><path class="b" d="M262,585.129a.579.579,0,0,1-.534-.357,438.11,438.11,0,0,0-25.229-49.254,375.493,375.493,0,0,0-29.2-42.784c-12.508-15.686-25.345-28.534-38.157-38.188a.578.578,0,0,1,.7-.923c12.892,9.714,25.8,22.633,38.372,38.4a376.674,376.674,0,0,1,29.3,42.924,439.249,439.249,0,0,1,25.293,49.385.579.579,0,0,1-.534.8Z" transform="translate(-168.649 -453.506)"/></g><g transform="translate(96.371 34.423)"><path class="b" d="M347.507,502.954a.579.579,0,0,1-.562-.446c-.1-.438-10.393-44.378-19.251-92.045-5.2-28-8.9-51.793-10.995-70.714-2.621-23.711-2.709-39.835-.26-47.922a.578.578,0,1,1,1.106.335c-4.321,14.275-.419,55.108,11.284,118.087,8.853,47.64,19.138,91.557,19.241,92a.58.58,0,0,1-.564.711Z" transform="translate(-314.666 -291.415)"/></g><path class="c" d="M378.141,422s18.766-52.533,21.087-68.439-15.666-3.363-14.074-14.337,19.878-12.323,23.36-28.419-19.278-.83-19.118-13.88,24.811-11.661,23.126-25.7-24.9,3.719-21.418-7.1,1.826-40.95-30.62-45.034a84.9,84.9,0,0,1-1.277,52.131C349.318,298.961,356.279,382.919,378.141,422Z" transform="translate(-239.33 -219.086)"/><g transform="translate(133.958 28.529)"><path class="b" d="M394.223,490.916a.586.586,0,0,1-.07,0,.578.578,0,0,1-.5-.643c.049-.4,4.94-40.805,7.368-86.74,1.425-26.97,1.735-50.54.92-70.056-1.016-24.352-3.793-42.4-8.252-53.649a.578.578,0,1,1,1.075-.426c4.507,11.369,7.311,29.547,8.332,54.03.816,19.553.506,43.161-.922,70.168-2.43,45.973-7.325,86.409-7.374,86.812A.578.578,0,0,1,394.223,490.916Z" transform="translate(-393.644 -279.032)"/></g><g transform="translate(142.694 84.179)"><path class="b" d="M412.58,552.2a.578.578,0,0,1-.57-.679c.052-.3,5.359-29.973,12.856-63.763,6.924-31.209,17.19-72.411,26.77-91.473a.578.578,0,1,1,1.033.519c-18.245,36.3-39.31,153.738-39.521,154.92A.578.578,0,0,1,412.58,552.2Z" transform="translate(-412.001 -395.964)"/></g><g transform="translate(145.286 102.678)"><path class="b" d="M418.024,575.344a.579.579,0,0,1-.529-.809c.434-1,43.6-100.212,57.77-139.319a.578.578,0,1,1,1.087.394C462.173,474.751,418.989,574,418.554,575A.578.578,0,0,1,418.024,575.344Z" transform="translate(-417.447 -434.835)"/></g><path class="d" d="M329.289,714.326l6.727,55.843h24.478l4.275-55.843Z" transform="translate(-225.959 -478.634)"/><path class="e" d="M399.133,714.326h18.381l-10.269,55.843H394.859Z" transform="translate(-260.323 -478.634)"/></g><g transform="translate(165.184 107.792)"><g transform="translate(0 69.253)"><path d="M619.762,278.036s-6,7.977-8.438,5.147c-1.618-1.876.86-5.05,3.005-6.873,0,0-3.16,1.356-4.208-.395-1.442-2.409,5.877-6.157,5.877-6.157s-3.768-.7-2.835-2.551,11.106-9.249,11.106-9.249a1.518,1.518,0,0,1,1.962.89,4.151,4.151,0,0,1,3.24-2.177c2.311-.216,14.814,6.659,19.6,11.255S619.762,278.036,619.762,278.036Z" transform="translate(-426.055 -255.068)"/><path class="f" d="M223.565,567.882H460.749s.722,7.752-8.134,7.752H233.328S223.565,575.668,223.565,567.882Z" transform="translate(-223.565 -418.171)"/><g transform="translate(23.885 157.111)"><path class="f" d="M273.753,583.783l2.225,117.559h4.4L292.253,583.43Z" transform="translate(-273.753 -583.43)"/><path class="f" d="M651.41,583.783l-2.225,117.559h-4.4L632.91,583.43Z" transform="translate(-461.982 -583.43)"/></g><path class="g" d="M885.767,545.93c3.7-10.027,7.135-39.467,7.023-47.737-.275-20.366-1.539-29.273-7.023-51.336,0,0-31.082,1.777-35.823,0L838.788,547.082l17.217,70.364h13.05s.223-41.462-5.356-56.839c-4.14-11.411-6.1-16.244-6.1-16.244,1.7-6.588,10.841-56.573,10.841-56.573l-1.269,55.223,10.339,74.433h14.263S897.666,560.694,885.767,545.93Z" transform="translate(-545.995 -354.744)"/><g transform="translate(326.379 189.619)"><path class="h" d="M909.359,651.738h0Z" transform="translate(-909.359 -651.738)"/></g><path class="i" d="M902.546,814.3c.349-2.62-2.337-3.656-4.868-3.707a6.677,6.677,0,0,1-2.574,1.941c-6.757,2.875-14.674,5.377-16.039,6.239s-.466,1.62-.466,1.62h18.259l7.642-2.131V820.4h6.845a50.247,50.247,0,0,0-.491-6.977C908.059,813.623,905.3,813.927,902.546,814.3Z" transform="translate(-566.706 -545.374)"/><path class="i" d="M855.806,816.3c1.387-.925,2.081-3.005,0-3.7a29.918,29.918,0,0,0-4.2-.841,6.624,6.624,0,0,1-2.068,1.387c-6.757,2.875-14.674,5.377-16.04,6.239s-.466,1.62-.466,1.62h18.259l7.641-2.131v2.131h6.845a50.164,50.164,0,0,0-.509-7.1A32.48,32.48,0,0,0,855.806,816.3Z" transform="translate(-542.826 -545.984)"/><path class="j" d="M886.718,807.481l.576-2.178H875.406c-.07.127-.6,1.521-.672,1.644q6.184,1.1,12.367,2.46C886.893,808.184,886.718,807.481,886.718,807.481Z" transform="translate(-564.833 -542.6)"/><path class="k" d="M873.5,808.757a7.51,7.51,0,0,1-1.12,1.429,29.925,29.925,0,0,1,4.2.841c2.081.693,1.387,2.774,0,3.7a32.484,32.484,0,0,1,9.464-2.393c-.059-.409-.118-.781-.176-1.116Q879.684,809.856,873.5,808.757Z" transform="translate(-563.6 -544.41)"/><path class="j" d="M932.2,807.481l.576-2.178H920.892c-.092.168-.643,1.6-.746,1.765,4.126.727,8.252,1.292,12.379,1.986C932.344,808.049,932.2,807.481,932.2,807.481Z" transform="translate(-588.633 -542.6)"/><path class="k" d="M919.549,809.012a7.641,7.641,0,0,1-.542.754c2.531.051,5.218,1.087,4.868,3.707,2.756-.376,5.513-.68,8.307-.883-.087-.61-.174-1.144-.255-1.592C927.8,810.3,923.676,809.739,919.549,809.012Z" transform="translate(-588.037 -544.544)"/><path class="h" d="M903.606,617.446s5.9-56.752-6-71.516c3.7-10.027,7.135-39.467,7.024-47.737-.275-20.366-1.539-29.273-7.024-51.336,0,0-31.081,1.777-35.823,0l-.408,3.665c2.786.934,10.3,2.863,23.921,2.394,17.814-.613,16.421,41.886,15.551,55.979s-8.538,35.97-14.456,40.317c0,0,8.188,1.981,12.541,18.521,3.564,13.545,1.09,40.42.076,49.712Z" transform="translate(-557.83 -354.744)"/><path class="h" d="M875.628,515.287s-6.649,56.64-19.709,68.969c0,0,11.033,5.268,15.708,34.167,2.879,17.8,4.341,27.476,5.039,32.285h1.368s.223-41.462-5.356-56.839c-4.14-11.411-6.1-16.244-6.1-16.244,1.7-6.588,10.841-56.573,10.841-56.573l.9-9.491-7.784-1.239Z" transform="translate(-554.973 -388.005)"/><g transform="translate(315.496 94.265)"><path class="l" d="M893.68,480.009a.578.578,0,0,1-.545-.386c-.053-.15-5.308-15.169-6.641-27.6a.578.578,0,1,1,1.149-.123c1.318,12.3,6.53,27.195,6.582,27.344a.578.578,0,0,1-.545.77Z" transform="translate(-886.49 -451.379)"/></g><g transform="translate(312.302 94.046)"><path class="l" d="M887.493,471.937a.579.579,0,0,1-.13-.015c-.12-.028-2.963-.731-4.587-5.373-1.539-4.4-2.932-14.545-2.991-14.975a.578.578,0,1,1,1.146-.156c.014.1,1.435,10.46,2.936,14.749,1.4,3.993,3.665,4.605,3.761,4.63a.578.578,0,0,1-.135,1.14Z" transform="translate(-879.78 -450.918)"/></g><g transform="translate(304.281 93.668)"><path class="l" d="M883.611,451.874c-10.873,0-20.016-.588-20.144-.6a.578.578,0,1,1,.076-1.153,317.426,317.426,0,0,0,33.424.238.578.578,0,0,1,.068,1.154C892.6,451.78,887.964,451.874,883.611,451.874Z" transform="translate(-862.927 -450.123)"/></g><g transform="translate(310.718 92.279)"><path class="l" d="M877.029,449.75a.578.578,0,0,1-.578-.578v-1.389a.578.578,0,0,1,1.156,0v1.389A.578.578,0,0,1,877.029,449.75Z" transform="translate(-876.451 -447.205)"/></g><path class="m" d="M733.92,332.444s41.693,29.967,44.306,32.989c0,0,2.995,4.781,7.467,1.246,4.742,1.777,35.823,0,35.823,0s20.077-5.569-19.757-36.928c-52.509-41.337-69.317-37.015-80.526-34.193,0,0-6.688,11.549-4.656,42.012,2.289,34.317,6.408,69.137,8.179,83.434-.061,1.778,2.184,3.446,2.325,4.444a39.764,39.764,0,0,1-.083,4.916l15.21-1.646s.344-2.25.769-5.848c3.962-1.84,2.347-23.22,1.113-34.729C742.308,371.551,733.92,332.444,733.92,332.444Z" transform="translate(-481.744 -274.565)"/><path class="n" d="M619.645,553.974s-6.628-1.243-8.491-1.581l-7.114,7.372s5.816-.313,8.187-2.007c0,0,3.784,2.007,6.042,2.007h7.011Z" transform="translate(-422.967 -410.053)"/><path class="o" d="M689.206,291.01l-2.7,7.8,12.714,5.86c1.236-3.76,2.53-7.512,3.558-11.321Z" transform="translate(-466.185 -273.066)"/><path class="n" d="M686.5,298.809l4.882,2.25c3.253-1.426,7.195-5.6,9.739-7.948l-11.92-2.1Z" transform="translate(-466.185 -273.066)"/><path class="o" d="M655.863,269.373a8.175,8.175,0,0,1,3.735,10.906l-3.061,6.251a8.176,8.176,0,0,1-10.906,3.734l-16.082-7.877a8.174,8.174,0,0,1-3.735-10.9l3.062-6.251a8.175,8.175,0,0,1,10.905-3.736Z" transform="translate(-433.945 -257.166)"/><path d="M655.864,269.373,639.783,261.5a8.175,8.175,0,0,0-10.905,3.736l-3.062,6.251a8.171,8.171,0,0,0,.818,8.488,16.611,16.611,0,0,0,5.121-6.5c1.279-2.751,2.828-9.967,5-4.688.46,1.117-1.355.863,2.915,3.274s4.771,1.886,7.392,3.056,3.383,5.148-3.26,14.26l6.58,3.426c2.082,1.113,4.181-2.239,6.154-6.265l1.349-2.756c-.916-4.544-4.516-8.451-8.93-10.74-1.156-.693-3.005-3.236-2.081-3.236,4.161,0,7.166,3.93,11.1,5.548a5.75,5.75,0,0,0,2.414.59A8.165,8.165,0,0,0,655.864,269.373Z" transform="translate(-433.946 -257.166)"/><path class="o" d="M663.223,269.959a3.233,3.233,0,0,1,1.992-3.267c1.8-.514,3.984,1.6,4.876,4.729a8.983,8.983,0,0,1-.121,5.25S663.162,275.275,663.223,269.959Z" transform="translate(-453.983 -260.282)"/><g transform="translate(210.572 7.551)"><path class="p" d="M669.84,276.306a.575.575,0,0,1-.354-.122,8.236,8.236,0,0,1-3.463-6.437.578.578,0,0,1,.578-.573h0a.578.578,0,0,1,.573.583,7.1,7.1,0,0,0,3.016,5.516.578.578,0,0,1-.355,1.034Z" transform="translate(-666.023 -269.173)"/></g><g transform="translate(211.516 9.414)"><path class="q" d="M668.585,275.511a.567.567,0,0,1-.089-.007.577.577,0,0,1-.483-.656,2.29,2.29,0,0,1,1.145-1.72.578.578,0,0,1,.427,1.075c-.207.082-.383.53-.429.821A.579.579,0,0,1,668.585,275.511Z" transform="translate(-668.006 -273.087)"/></g><path class="r" d="M679.342,359.109a139.5,139.5,0,0,1,.273-24.141l-8.626,53.25s-18.5,37.984-21.062,41.668-1.527,3.947-1.527,3.947l-3.254,3.83,15.036,5.408s1.789-2.371,3.032-4.072c7.07-1.138,15.51-16.486,20.121-34.005C682.547,393.947,680.083,370.2,679.342,359.109Z" transform="translate(-444.51 -296.104)"/><path class="o" d="M643.7,555.989a4.405,4.405,0,0,1-4.243,2.915h-9.477l-8.232-2.451s-4.076,2.451-6.653,2.451c2.983-3.7,5.095-5.956,5.095-5.956l4.265-.627,4.943-1.57Z" transform="translate(-428.76 -409.193)"/><path class="n" d="M755.557,581.929l-1.5-4.714-13.589,1.511s-.254.724-.71,1.924A65.154,65.154,0,0,0,755.557,581.929Z" transform="translate(-494.092 -423.062)"/><path class="o" d="M757.592,602.659l-5.406-16.947a65.156,65.156,0,0,1-15.8-1.28c-.655,1.728-1.728,4.443-3.062,7.414a32.01,32.01,0,0,0,.7,6.171s1.448-.027,2.6-5.2c0,0,.526,15.916,5.641,15.651l-.809-10.271c1.064,3.645,3.47,10.6,6.519,11.426,2.431.66,5.594-.947,7.8-2.393h0l-3.042-10.012A11.343,11.343,0,0,0,757.592,602.659Z" transform="translate(-490.72 -426.845)"/><path class="m" d="M714.213,310.058l-3.533-3.5,3.533-15.075,4.13,2.822Z" transform="translate(-478.855 -273.317)"/><path class="n" d="M654.411,312.384l2.589,5.1s1.343.492,2.916-2.22S654.411,312.384,654.411,312.384Z" transform="translate(-449.365 -284.268)"/><g transform="translate(204.198 25.419)"><path class="s" d="M654.317,309.444a4.687,4.687,0,0,1-1.272-.219.578.578,0,0,1,.325-1.11,4.966,4.966,0,0,0,.618.137c-.124-.134-.3-.306-.543-.523a.578.578,0,1,1,.766-.866c.8.707,1.489,1.453,1.123,2.116A1.058,1.058,0,0,1,654.317,309.444Z" transform="translate(-652.63 -306.717)"/></g><g transform="translate(200.324 22.021)"><path class="s" d="M645.068,303.073a.578.578,0,0,1-.417-.977,8.94,8.94,0,0,1,4.682-2.515.578.578,0,1,1,.14,1.147,7.89,7.89,0,0,0-3.988,2.167A.578.578,0,0,1,645.068,303.073Z" transform="translate(-644.49 -299.577)"/></g><g transform="translate(233.866 20.415)"><path class="l" d="M719.2,378.471a.578.578,0,0,1-.574-.522c-1.367-13.982-2.465-27.144-3.263-39.118-2.02-30.291,4.456-41.863,4.732-42.341a.578.578,0,0,1,1,.579c-.034.059-1.671,2.975-3.044,9.5-2.311,10.984-2.111,23.563-1.536,32.18.8,11.963,1.9,25.112,3.26,39.083a.578.578,0,0,1-.519.631Z" transform="translate(-714.969 -296.203)"/></g><path class="r" d="M748.866,341.23l2.178,16.034s41.693,29.967,44.306,32.989C791.579,374.658,748.866,341.23,748.866,341.23Z" transform="translate(-498.868 -299.386)"/><g transform="translate(246.335 147.951)"><path class="l" d="M741.747,566.522a.578.578,0,0,1-.052-1.154l12.842-1.183a.578.578,0,0,1,.106,1.151L741.8,566.519Z" transform="translate(-741.17 -564.183)"/></g><g transform="translate(204.341 137.589)"><path class="l" d="M666.241,547.994a.574.574,0,0,1-.19-.032l-12.732-4.425a.578.578,0,0,1,.379-1.092l12.732,4.425a.578.578,0,0,1-.19,1.124Z" transform="translate(-652.93 -542.412)"/></g><g transform="translate(248.693 32.668)"><path class="l" d="M749.458,346.655a.578.578,0,0,1-.568-.478c-.024-.138-2.44-13.931-2.767-23.631a.578.578,0,0,1,.558-.6h.02a.578.578,0,0,1,.577.558c.324,9.618,2.726,23.332,2.75,23.47a.578.578,0,0,1-.469.669A.558.558,0,0,1,749.458,346.655Z" transform="translate(-746.122 -321.949)"/></g><path class="m" d="M706.97,323.163l-3.369.679,3.369,6.07v-5.3l.686-.768Z" transform="translate(-475.145 -289.917)"/><path class="t" d="M703.6,321.018l2.579-3.244,1.256.579-.466,1.986Z" transform="translate(-475.145 -287.093)"/><g transform="translate(213.064 29.399)"><path class="l" d="M671.838,318.259a.578.578,0,0,1-.389-1l2.219-2.023a.578.578,0,1,1,.779.854l-2.219,2.023A.577.577,0,0,1,671.838,318.259Z" transform="translate(-671.26 -315.081)"/></g><g transform="translate(197.406)"><path d="M641.479,259.087a.588.588,0,0,1-.107-.01.578.578,0,0,1-.462-.675,4.488,4.488,0,0,0-.681-3.386,1.507,1.507,0,0,0-1.273-.553h-.02a.578.578,0,0,1-.02-1.156,2.681,2.681,0,0,1,2.19.955,5.582,5.582,0,0,1,.941,4.353A.578.578,0,0,1,641.479,259.087Z" transform="translate(-638.357 -253.307)"/></g><g transform="translate(18.812 71.469)"><path class="u" d="M342.42,519.31h76.055s-28.4-45.856-55.273-44.08H301.707Z" transform="translate(-283.33 -441.056)"/><path class="v" d="M272.68,519.31H335.1s-30.785-49.7-58.577-43.613S272.68,519.31,272.68,519.31Z" transform="translate(-263.093 -441.056)"/><rect class="w" width="51.539" height="4.611" transform="translate(57.337 67.781)"/><path class="x" d="M0,0H51.539V4.611H0Z" transform="translate(109.375 67.781)"/><path class="l" d="M408.1,534.532v-7.305l8.418-.26-8.418-.491V525.2l5.4.014-5.4-.5v-.5h80.18v10.325Z" transform="translate(-339.089 -466.751)"/><path class="y" d="M483.8,534.532v-3.7l5.785-.188-5.785-.429v-.847l1-.617-1-.375v-1.066l2.312-.408-2.312-.848v-1.844h47.586v1.5l-2.044.49,2.044.49v1.861l-2.968.582,2.968.518v1.094l-2.8.109,2.8,1.053v2.624Z" transform="translate(-378.761 -466.751)"/><path class="z" d="M321.893,443.817l-25.629-40.338-4.943,3.33,22.571,35.109Z" transform="translate(-277.887 -403.479)"/><path class="x" d="M301.707,403.479l43.661,2.74L370.8,447.368l-43.461-3.551Z" transform="translate(-283.33 -403.479)"/><path class="l" d="M340.905,450.8l-21.291-34.872.319-.724,2.186,2.642-1.571-4.039.322-.732,1.46,1.468-1.158-2.153.263-.6,25.811,40.855Z" transform="translate(-292.715 -407.838)"/><path class="aa" d="M323.441,411.8l29.918,2.352L376.905,451.3l-27.653,1.357Z" transform="translate(-294.72 -407.838)"/></g></g></g></g></svg>