<?xml version="1.0" encoding="UTF-8"?>
<svg id="Layer_1" data-name="Layer 1" xmlns="http://www.w3.org/2000/svg" xmlns:xlink="http://www.w3.org/1999/xlink" viewBox="0 0 337.55 341.74">
  <defs>
    <style>
      .cls-1 {
        fill: none;
      }

      .cls-2 {
        clip-path: url(#clippath);
      }

      .cls-3 {
        fill: #f2f2f2;
      }

      .cls-4 {
        fill: #e6e6e6;
      }

      .cls-5 {
        fill: #fcfcfc;
      }

      .cls-6 {
        fill: #ea2d2e;
      }

      .cls-7 {
        fill: #fff;
      }

      .cls-8 {
        fill: #f2b279;
      }

      .cls-9 {
        fill: #fefefe;
      }

      .cls-10 {
        fill: #ffc48f;
      }

      .cls-11 {
        fill: #ffa88a;
      }

      .cls-12 {
        fill: #f90;
      }

      .cls-13 {
        fill: #fbfbfb;
      }

      .cls-14 {
        fill: #f16529;
      }

      .cls-15 {
        fill: #e81a22;
      }

      .cls-16 {
        fill: #67217a;
      }

      .cls-17 {
        fill: #999;
      }

      .cls-18 {
        fill: #b4bbbf;
      }

      .cls-19 {
        fill: #b8151a;
      }

      .cls-20 {
        fill: #b5c6c9;
      }

      .cls-21 {
        fill: #9e8567;
      }

      .cls-22 {
        fill: #b3b3b3;
      }

      .cls-23 {
        fill: #666;
      }

      .cls-24 {
        fill: #333;
      }

      .cls-25 {
        fill: #c1272d;
      }

      .cls-26 {
        fill: #cf171e;
      }

      .cls-27 {
        fill: #ccc;
      }

      .cls-28 {
        fill: #c99987;
      }

      .cls-29 {
        fill: #101d29;
      }

      .cls-30 {
        fill: #242424;
      }

      .cls-31 {
        fill: #1e2f3d;
      }

      .cls-32 {
        fill: #24394a;
      }

      .cls-33 {
        fill: #1fa8e5;
      }

      .cls-34 {
        fill: #42210b;
      }

      .cls-35 {
        fill: #1c2f37;
      }

      .cls-36 {
        fill: #0c1f29;
      }

      .cls-37 {
        fill: #1a1a1a;
      }

      .cls-38 {
        fill: #535353;
      }

      .cls-39 {
        fill: #3a5c78;
      }

      .cls-40 {
        fill: #784836;
      }

      .cls-41 {
        clip-path: url(#clippath-1);
      }

      .cls-42 {
        clip-path: url(#clippath-3);
      }

      .cls-43 {
        clip-path: url(#clippath-2);
      }

      .cls-44 {
        isolation: isolate;
      }
    </style>
    <clipPath id="clippath">
      <path class="cls-1" d="m109.01,85.84l177.96,11.43-9.72-16.96-163.29-2.48-4.95,8Z"/>
    </clipPath>
    <clipPath id="clippath-1">
      <path class="cls-1" d="m102.82,81.4l171.97-12-14.82-35.97-153.84,39.26-3.31,8.71Z"/>
    </clipPath>
    <clipPath id="clippath-2">
      <path class="cls-1" d="m105.4,78.44l167.31-61.98-15.78-11.54L106.68,69.11l-1.27,9.33Z"/>
    </clipPath>
    <clipPath id="clippath-3">
      <path class="cls-1" d="m104.39,101.49l177.21,20.74-8.82-17.45-163.02-11.02-5.37,7.73Z"/>
    </clipPath>
  </defs>
  <g id="Path_30241" data-name="Path 30241">
    <g class="cls-2">
      <polygon class="cls-7" points="121.95 77.84 109.01 84.43 109.01 77.84 121.95 77.84"/>
      <polygon class="cls-7" points="138.89 77.84 109.01 93.06 109.01 84.43 121.95 77.84 138.89 77.84"/>
      <polygon class="cls-9" points="155.82 77.84 117.68 97.27 109.01 97.27 109.01 93.06 138.89 77.84 155.82 77.84"/>
      <polygon class="cls-5" points="172.76 77.84 134.61 97.27 117.68 97.27 155.82 77.84 172.76 77.84"/>
      <polygon class="cls-13" points="189.7 77.84 151.55 97.27 134.61 97.27 172.76 77.84 189.7 77.84"/>
      <polygon class="cls-13" points="210.13 77.84 171.98 97.27 151.55 97.27 189.7 77.84 210.13 77.84"/>
      <polygon class="cls-5" points="230.56 77.84 192.42 97.27 171.98 97.27 210.13 77.84 230.56 77.84"/>
      <polygon class="cls-9" points="251 77.84 212.85 97.27 192.42 97.27 230.56 77.84 251 77.84"/>
      <polygon class="cls-7" points="271.43 77.84 233.29 97.27 212.85 97.27 251 77.84 271.43 77.84"/>
      <polygon class="cls-7" points="280.08 77.84 241.94 97.27 233.29 97.27 271.43 77.84 280.08 77.84"/>
      <polygon class="cls-9" points="286.97 78.74 250.59 97.27 241.94 97.27 280.08 77.84 286.97 77.84 286.97 78.74"/>
      <polygon class="cls-5" points="286.97 83.15 259.24 97.27 250.59 97.27 286.97 78.74 286.97 83.15"/>
      <polygon class="cls-13" points="286.97 87.56 267.89 97.27 259.24 97.27 286.97 83.15 286.97 87.56"/>
      <polygon class="cls-13" points="267.89 97.27 286.97 87.56 286.97 97.27 267.89 97.27"/>
    </g>
  </g>
  <g id="Line_14" data-name="Line 14">
    <rect class="cls-7" x="133.04" y="63.3" width="104.67" height="1.5" transform="translate(-8.02 31.41) rotate(-9.48)"/>
  </g>
  <g id="shadow">
    <g id="Rectangle_2868" data-name="Rectangle 2868">
      <rect class="cls-20" x="4.97" y="143" width="45.74" height="8.99"/>
    </g>
    <g id="Rectangle_2869" data-name="Rectangle 2869">
      <rect class="cls-20" x="4.97" y="133.6" width="45.74" height="9"/>
    </g>
    <g id="Path_30242" data-name="Path 30242">
      <path class="cls-20" d="m10.71,133.22h35.76c.8,0,1.58-.22,2.26-.63h.11c-.19-.12-.37-.27-.53-.42h.11c.07,0,.14,0,.21,0-.57-.24-1-.71-1.18-1.3-.01-.05-.04-.09-.06-.14-.07-.25-.11-.52-.11-.78v-1.88c0-.27.04-.53.11-.79.01-.05.05-.1.06-.15.05-.15.11-.29.18-.43.27-.35.6-.65.99-.87-.07,0-.14,0-.21,0h-.1s.04-.03.07-.05c.14-.13.3-.26.46-.37h-.12c-.68-.42-1.46-.64-2.25-.63.8,0,1.58-.22,2.26-.63h.11c-.15-.1-.3-.22-.43-.35-.03-.03-.06-.05-.09-.08h.31c-.39-.22-.72-.52-.99-.87-.07-.13-.13-.26-.18-.4-.02-.06-.05-.11-.07-.17-.07-.26-.11-.52-.11-.79v-1.89c0-.27.04-.53.11-.79.02-.07.06-.13.08-.19.05-.13.1-.25.16-.37.27-.36.6-.65.99-.88h-.31s.09-.07.13-.1c.13-.12.26-.22.4-.32h-.11c-.68-.42-1.46-.63-2.26-.63h-2.2c.63,0,1.24-.23,1.73-.63.03,0,.06,0,.09,0-.11-.1-.21-.21-.31-.32-.03-.04-.06-.06-.09-.1h.08c.05,0,.1,0,.16,0-.31-.23-.56-.53-.75-.87-.05-.13-.1-.27-.14-.41-.01-.06-.04-.11-.05-.16-.06-.26-.09-.52-.09-.79v-1.89c0-.27.03-.53.09-.79,0-.02.01-.03.02-.05.04-.18.1-.35.17-.52.19-.34.45-.63.75-.87-.05,0-.11,0-.16,0h-.08s.08-.09.12-.13c.09-.1.18-.2.28-.29h-.09c-.49-.4-1.1-.63-1.73-.63h-27.3c-1.72.1-3.04,1.57-2.95,3.29v1.88c-.09,1.72,1.23,3.19,2.95,3.29h-6.25c-1.97-.15-3.69,1.32-3.86,3.29v1.88c.17,1.97,1.89,3.43,3.86,3.29-1.97-.15-3.69,1.32-3.86,3.29v1.88c.17,1.97,1.89,3.43,3.86,3.28Z"/>
    </g>
  </g>
  <g id="man_with_table" data-name="man with table">
    <g id="Rectangle_2870" data-name="Rectangle 2870">
      <rect x="282.05" y="238.23" width="3.83" height="4.85"/>
    </g>
    <g id="Path_30243" data-name="Path 30243">
      <path d="m245.58,275.91h4.09v-1.77h-2.59c-.91,0-1.65-.74-1.65-1.65h0v-20.55c0-.91.74-1.65,1.65-1.65h2.59v-2.66h-2.59c-.91,0-1.65-.73-1.65-1.64h0v-5.83c0-.91.74-1.65,1.65-1.65h2.6v-2.06h5.94v2.05h2.6c.91,0,1.65.74,1.65,1.65h0v5.83c0,.91-.74,1.65-1.65,1.65h-2.6v2.66h2.6c.91,0,1.65.74,1.65,1.65h0v20.55c0,.91-.74,1.65-1.65,1.65h-2.6v1.77h4.09c1.1-.05,2.03.79,2.09,1.89v23.59c-.06,1.1-.99,1.95-2.09,1.89h-14.12c-1.1.05-2.03-.79-2.09-1.89v-23.6c.06-1.1.99-1.94,2.09-1.89Z"/>
    </g>
    <g id="Path_30244" data-name="Path 30244">
      <path d="m330.31,165.95s-6.05,24-2.87,39.6c0,0,6.42,25.32-11.54,35.03,0,0-11.63,4.12-23.62,1.77v-5.89s23.62.59,26.57-10.3c0,0,3.23-5.9,1.17-21.64,0,0-2.94-14.84-.88-20.3l8.3-19.29,2.87,1.02Z"/>
    </g>
    <g id="Rectangle_2871" data-name="Rectangle 2871">
      <rect x="247.02" y="303.29" width="11.23" height="14.72"/>
    </g>
    <g id="Group_4061" data-name="Group 4061">
      <g id="Path_30245" data-name="Path 30245">
        <path class="cls-37" d="m259.82,310.27l48.64,3.78s6.8,1.44,5.23,6.81h-58.1v-8.9l4.23-1.68Z"/>
      </g>
      <g id="Path_30246" data-name="Path 30246">
        <path class="cls-37" d="m246.24,310.27l-48.64,3.78s-6.81,1.44-5.23,6.81h58.1v-8.9l-4.23-1.68Z"/>
      </g>
      <g id="Path_30247" data-name="Path 30247">
        <path d="m305.84,326.22c0,1.66,1.35,3.01,3.01,3.01h6.55c1.66,0,3.01-1.35,3.01-3.01h0c0-1.66-1.35-3.01-3.01-3.01h-6.55c-1.66,0-3.01,1.35-3.01,3.01Z"/>
      </g>
      <g id="Path_30248" data-name="Path 30248">
        <path class="cls-23" d="m316.57,323.45c1.53.65,2.24,2.41,1.59,3.94-.47,1.11-1.56,1.83-2.77,1.83h-1.36c-.07-.37-.1-.74-.1-1.11-.12-1.94.91-3.77,2.64-4.67Z"/>
      </g>
      <g id="Rectangle_2872" data-name="Rectangle 2872">
        <rect class="cls-37" x="308.84" y="320.85" width="4.06" height="2.36"/>
      </g>
      <g id="Path_30249" data-name="Path 30249">
        <path d="m266.48,338.73c0,1.66,1.35,3.01,3.01,3.01h6.55c1.66,0,3.01-1.35,3.01-3.01h0c0-1.66-1.35-3.01-3.01-3.01h-6.54c-1.66,0-3.01,1.35-3.01,3.01Z"/>
      </g>
      <g id="Path_30250" data-name="Path 30250">
        <path class="cls-23" d="m277.21,335.97c1.53.65,2.24,2.42,1.59,3.95-.47,1.11-1.56,1.83-2.77,1.83h-1.36c-.07-.37-.1-.74-.1-1.11-.12-1.94.91-3.77,2.64-4.67Z"/>
      </g>
      <g id="Rectangle_2873" data-name="Rectangle 2873">
        <rect class="cls-37" x="269.49" y="333.37" width="4.06" height="2.36"/>
      </g>
      <g id="Path_30251" data-name="Path 30251">
        <path d="m190,326.22c0,1.66,1.35,3.01,3.01,3.01h6.54c1.66,0,3.01-1.35,3.01-3.01h0c0-1.66-1.35-3.01-3.01-3.01h-6.54c-1.66,0-3.01,1.35-3.01,3.01h0Z"/>
      </g>
      <g id="Path_30252" data-name="Path 30252">
        <path class="cls-23" d="m200.73,323.45c1.53.65,2.24,2.41,1.59,3.94-.47,1.11-1.56,1.83-2.77,1.83h-1.36c-.07-.37-.11-.74-.11-1.11-.12-1.94.91-3.77,2.64-4.67Z"/>
      </g>
      <g id="Rectangle_2874" data-name="Rectangle 2874">
        <rect class="cls-37" x="193.01" y="320.85" width="4.06" height="2.36"/>
      </g>
      <g id="Path_30253" data-name="Path 30253">
        <path class="cls-37" d="m258.09,315.56c13.89,11.6,12.5,10.21,13.89,11.6l1.4,1.39s2.44,1.54,1.74,5.39h-6.98l-.7-1.54-18.41-11.55,1.42-5.29h7.63Z"/>
      </g>
    </g>
    <g id="Path_30254" data-name="Path 30254">
      <path d="m331.71,155.05c1.88,1.63,2.93,4.01,2.87,6.5,0,4.31-2.86,7.8-6.39,7.8-.25-.01-.5-.04-.74-.09l4.27-14.21Z"/>
    </g>
    <g id="Path_30255" data-name="Path 30255">
      <path d="m276.76,245.22c0,1.18.96,2.14,2.14,2.14h9.26c1.18,0,2.14-.96,2.14-2.14h0c0-1.18-.96-2.14-2.14-2.14h-9.26c-1.18,0-2.14.95-2.14,2.13h0Z"/>
    </g>
    <g id="Path_30256" data-name="Path 30256">
      <path class="cls-24" d="m199.09,232.05h108.98s2.24-.59,2.24,4.42c0,2.6-25.4,4.71-56.73,4.71s-56.73-2.11-56.73-4.71c0-5,2.24-4.42,2.24-4.42Z"/>
    </g>
    <g id="Path_30257" data-name="Path 30257">
      <path d="m199.09,232.05c-.11-8.24,11.57-11.12,11.57-11.12h85.85s11.68,2.88,11.57,11.12c-4.22.78-8.49,1.27-12.78,1.47-13.2.72-33.16.97-41.72.97s-26.35-.42-39.39-1.12c-8.88-.48-15.11-1.33-15.11-1.33Z"/>
    </g>
    <g id="Path_30258" data-name="Path 30258">
      <path class="cls-8" d="m189.4,127.25l-19.88.3-9.52,2.2-13.13,7.41s1.7,2.08,5-.07c0,0-.37,4.77,2.74.89l4.88-3.51,11.17-1.09,3.33-.05-4.35,1.91s-7.32,4.89-3.98,5.42c0,0,2.42.16,7.35-2.27l5.73-1.71s6.3.94,9.64,1.48l1.01-10.9Z"/>
    </g>
    <g id="Path_30260" data-name="Path 30260">
      <path class="cls-10" d="m319.05,63.27s-.19,10.99,1.86,12.76-17.66,8.83-27.08,9.42l-1.47-7.36-3.53-7.72-4.15-1.21,15.07-21.1,8.11-.63,11.2,15.84Z"/>
    </g>
    <g id="Path_30264" data-name="Path 30264">
      <path class="cls-26" d="m291.25,85.44s-22.07,22.35-31.84,38.1l-9.46,10.15-60.55-6.44.49,13.24,54.11,15.08s16.9,6.22,26.52-9.53l24.76-45.71-1.45-14.89h-2.57Z"/>
    </g>
    <g id="Group_4062" data-name="Group 4062">
      <g id="Path_30266" data-name="Path 30266">
        <path class="cls-23" d="m116.14,301.82l6.3-9.25,16.37,6.19-.76,6.94-1.67,4.17h-10.29l-9.95-8.05Z"/>
      </g>
      <g id="Path_30267" data-name="Path 30267">
        <path d="m86.6,315.87s-7.23.84-4.73,6.12c0,0,20.87,6.4,35.05,1.39l7.23-2.79v3.07l16.13-1.39v-6.4s1.95-9.18-2.23-11.68c0,0-8.34,4.73-13.35,2.78l-10.01-7.79s-11.68,13.04-13.07,13.05c0,0-8.07,3.36-15.02,3.63Z"/>
      </g>
    </g>
    <g id="Path_30271" data-name="Path 30271">
      <path class="cls-7" d="m293.83,85.44h-3.09l2.59-2.52.5,2.52Z"/>
    </g>
    <g id="Path_30272" data-name="Path 30272">
      <path class="cls-7" d="m193.71,124.88l1.66,19.15-6.21-2.44.07-15.12,4.48-1.59Z"/>
    </g>
    <g id="Path_30273" data-name="Path 30273">
      <path class="cls-19" d="m321,76.54s16.4,12.73,13.17,44.82l-11.77,34.74-19.52,42.98-4.36,9.42-52.51-36.52c8.52-13.25,15.56-27.39,21.01-42.17,3.51-9.24,8.37-17.54,13.56-25.91,3.55-5.72,7.54-14.52,13.26-18.45l27.17-8.91Z"/>
    </g>
    <g id="Path_30274" data-name="Path 30274">
      <path class="cls-34" d="m298.49,207.99s1.53,7.54-4.76,7.96l-51.74-40.01s.59-5.13,4.01-3.97l52.5,36.02Z"/>
    </g>
    <g id="Path_30275" data-name="Path 30275">
      <path class="cls-35" d="m128.73,299.71s-9.2-.55-16.34-5.52c0,0,15.47-44.11,19.64-83.88,0,0,0-14.35,24.4-15.56l85.56-18.8,20.27,15.68-109.03,32.36-24.49,75.73Z"/>
    </g>
    <g id="Group_4064" data-name="Group 4064">
      <g id="Path_30276" data-name="Path 30276">
        <path class="cls-23" d="m125.91,314.92l6.31-9.25,16.37,6.19-.76,6.94-1.67,4.17h-10.29l-9.96-8.05Z"/>
      </g>
      <g id="Path_30277" data-name="Path 30277">
        <path d="m96.37,328.97s-7.23.84-4.73,6.12c0,0,20.86,6.4,35.04,1.39l7.23-2.79v3.07l16.14-1.39v-6.4s1.95-9.18-2.23-11.68c0,0-8.34,4.73-13.35,2.78l-10.01-7.79s-11.68,13.04-13.07,13.05c0,0-8.07,3.36-15.02,3.63Z"/>
      </g>
    </g>
    <g id="Path_30281" data-name="Path 30281">
      <path class="cls-7" d="m319.93,73.99l-26.1,11.46.25,3.53,30.16-9.08-4.31-5.91Z"/>
    </g>
    <g id="Path_30282" data-name="Path 30282">
      <path class="cls-18" d="m125.85,299.19l17.26-67.29-4.32,35.67-10.05,32.14s-1.26-.26-2.88-.52Z"/>
    </g>
    <g id="Path_30283" data-name="Path 30283">
      <path class="cls-36" d="m292.28,214.84s-10.92,13.26-40.75,12.87l-70.26,2.58s-18.3,78.31-26.91,83.02l-29.02-4.32s16.87-53.61,18.64-81.28c0,0,2.93-21.93,25.46-23.7l90.22-14.4,32.63,25.23Z"/>
    </g>
    <g id="Path_30284" data-name="Path 30284">
      <path class="cls-15" d="m318.85,90.74s-20.46-3.24-26.57,23.26l-13.47,36.8c-.19.53-15.67-1.54-17.18-1.7-6.07-.57-12.09-1.57-18.02-2.99-8.57-2.28-16.97-5.14-25.16-8.55l-3.24,13.25s20.9,13.84,33.56,17.66l25.5,8.54s9.53,4.71,16.45-3.83l34.93-43.27s14.08-28.85-6.82-39.16Z"/>
    </g>
    <g id="Path_30286" data-name="Path 30286">
      <path class="cls-37" d="m334.16,121.36s7.32,2.58.42,21.16l-11.32,37.72s-5.65,8.38-13.3,3.21l24.19-62.09Z"/>
    </g>
    <g id="table">
      <g id="Rectangle_2877" data-name="Rectangle 2877">
        <rect class="cls-27" x="8.84" y="157.86" width="189.76" height="2.55"/>
      </g>
      <g id="Path_30288" data-name="Path 30288">
        <path class="cls-28" d="m32.23,139.58l144.69.13,32.22,13.71H0l32.23-13.85Z"/>
      </g>
      <g id="Path_30289" data-name="Path 30289">
        <path class="cls-40" d="m0,157.16c0,.39.45.7.99.7h207.16c.55,0,.99-.32.99-.7v-3.74c0-.39-.44-.71-.99-.71H.99C.45,152.72,0,153.04,0,153.43v3.74Z"/>
      </g>
      <g id="Rectangle_2878" data-name="Rectangle 2878">
        <rect class="cls-4" x="177.15" y="157.86" width="5.4" height="36.7"/>
      </g>
    </g>
    <g id="keyboard">
      <g id="Path_30291" data-name="Path 30291">
        <path class="cls-4" d="m137.74,148.66h40.51v-3.47l-40.51-6.57v10.05Z"/>
      </g>
      <g id="Group_4066" data-name="Group 4066">
        <g id="Path_30292" data-name="Path 30292">
          <path class="cls-7" d="m139.26,136.22c-.08.42.2.82.62.9l4.92.92c.42.08.82-.2.9-.62l.05-.28c.08-.42-.2-.82-.62-.9l-4.92-.92c-.42-.08-.82.2-.9.62l-.06.28Z"/>
        </g>
        <g id="Rectangle_2879" data-name="Rectangle 2879">
          <path class="cls-7" d="m148.08,138.1l.14-.76c.05-.29.33-.48.62-.42l5.4,1.01c.29.05.48.33.42.62l-.14.76c-.05.29-.33.48-.62.42l-5.4-1.01c-.29-.05-.48-.33-.42-.62Z"/>
        </g>
        <g id="Path_30293" data-name="Path 30293">
          <path class="cls-7" d="m156.99,139.52c-.08.42.2.82.62.9l4.92.91c.42.08.82-.2.9-.62,0,0,0,0,0,0l.05-.28c.08-.42-.2-.82-.62-.9,0,0,0,0,0,0l-4.92-.92c-.42-.08-.82.2-.9.62,0,0,0,0,0,0l-.05.29Z"/>
        </g>
        <g id="Path_30294" data-name="Path 30294">
          <path class="cls-7" d="m165.85,141.17c-.08.42.2.82.61.9,0,0,0,0,0,0l4.91.92c.42.08.82-.2.9-.62l.05-.28c.08-.42-.19-.82-.61-.9,0,0,0,0,0,0l-4.92-.92c-.42-.07-.82.2-.9.62l-.05.28Z"/>
        </g>
        <g id="Path_30295" data-name="Path 30295">
          <path class="cls-7" d="m174.71,142.82c-.08.42.2.82.62.9,0,0,0,0,0,0l4.92.92c.42.08.82-.2.9-.62,0,0,0,0,0,0l.05-.28c.08-.42-.2-.82-.61-.9,0,0,0,0,0,0l-4.92-.92c-.42-.08-.82.2-.9.62l-.06.28Z"/>
        </g>
        <g id="Path_30296" data-name="Path 30296">
          <path class="cls-7" d="m136.64,140.31c-.08.42.2.82.62.9l45.65,8.5c.42.08.82-.2.9-.62l.54-2.91c.08-.42-.2-.82-.61-.9l-45.66-8.5c-.42-.08-.82.2-.9.62,0,0,0,0,0,0l-.54,2.91Z"/>
        </g>
      </g>
    </g>
    <g id="Path_30297" data-name="Path 30297">
      <path class="cls-10" d="m218.07,138.4l-11.72-3.94s-12.95-6.32-15.6-5.44l-12.96,2.06-7.06,7.4s-2.35,6.43,0,6.73l8.83-6.18,8.83-2.95-7.65,4.41s-9.42,7.66-6.48,7.95c0,0,2.94-.59,8.83-4.71l9.12-2.94-8.24,4.41s-9.13,5.6-2.94,5.6l7.36-2.94,5.6-2.65s3.53,2.65,11.77,2.36h3.24l6.48,1.77,2.6-10.93Z"/>
    </g>
    <g id="Path_30298" data-name="Path 30298">
      <path class="cls-7" d="m223.12,136.56l-2.4,18.69-5.88-4.46,3.51-13.66,4.76-.58Z"/>
    </g>
  </g>
  <g id="shadow-2">
    <path class="cls-20" d="m108.22,143.29h-24.31v-17.86h2.56c.43.05.83-.25.89-.68v-.1c1.58-.9,3.16-1.8,4.7-2.75,1.16-.6,2.21-1.4,3.1-2.35.36-.37.66-.78.89-1.24.2-.79.26-1.61.16-2.42V40.43c0-.66-.79-1.54-1.23-2.02-1.05-.93-2.23-1.71-3.5-2.31-1.05-.58-2.07-1.17-3.09-1.79-.34-.21-.69-.4-1.03-.61v-.16c-.06-.43-.46-.74-.89-.69h-5.61c-.43-.05-.83.26-.89.69v25.98c-.05-1.31-1.16-2.33-2.47-2.29h-.43c-1.31-.05-2.42.97-2.47,2.29v39.43c.05,1.31,1.16,2.33,2.47,2.28h.43c1.31.05,2.42-.97,2.47-2.28v25.14c-3.48,2.1-3.93,8-3.93,8v11.2h-16.44c-.39-.01-.72.29-.74.69v2.57c.02.39.35.7.74.68h48.61c.39.02.72-.29.74-.68v-2.57c-.01-.39-.34-.7-.74-.69,0,0,0,0,0,0Z"/>
  </g>
  <g id="books">
    <g id="Group_4071" data-name="Group 4071">
      <g id="Group_4068" data-name="Group 4068">
        <g id="Rectangle_2880" data-name="Rectangle 2880">
          <rect class="cls-37" x="16.79" y="138.95" width="45.74" height="10.08"/>
        </g>
        <g id="Rectangle_2881" data-name="Rectangle 2881">
          <rect class="cls-7" x="58.04" y="141.66" width="2.8" height="4.67"/>
        </g>
        <g id="Group_4067" data-name="Group 4067">
          <g id="Path_30299" data-name="Path 30299">
            <path class="cls-7" d="m29.03,140.3h.89v3.11h.02c.35-.59,1.01-.94,1.69-.9,1.24,0,2.1,1.02,2.1,2.52.16,1.29-.76,2.47-2.06,2.63-.06,0-.12.01-.18.02-.69.04-1.33-.32-1.67-.91h-.02l-.05.81h-.77c.02-.34.04-.85.04-1.28v-5.99Zm.89,5.28c0,.11.01.22.04.33.15.62.72,1.06,1.36,1.05.95,0,1.51-.76,1.51-1.9,0-1-.51-1.84-1.49-1.84-.65.02-1.21.47-1.37,1.1-.03.12-.05.25-.05.38v.88Z"/>
          </g>
          <g id="Path_30300" data-name="Path 30300">
            <path class="cls-7" d="m39.37,145.05c.11,1.34-.88,2.51-2.22,2.62-.09,0-.17,0-.26,0-1.3.02-2.37-1.03-2.39-2.33,0-.07,0-.14,0-.21-.11-1.33.88-2.51,2.22-2.61.08,0,.16,0,.24,0,1.3-.03,2.37,1,2.4,2.29,0,.08,0,.17,0,.25Zm-3.93.05c0,1.09.62,1.91,1.5,1.91s1.51-.81,1.51-1.92c0-.84-.42-1.89-1.49-1.89s-1.52.98-1.52,1.91h0Z"/>
          </g>
          <g id="Path_30301" data-name="Path 30301">
            <path class="cls-7" d="m45.02,145.05c.11,1.34-.88,2.51-2.22,2.62-.09,0-.17,0-.26,0-1.3.02-2.38-1.03-2.39-2.33,0-.07,0-.14,0-.21-.11-1.34.89-2.51,2.22-2.61.08,0,.16,0,.24,0,1.3-.03,2.37,1,2.4,2.29,0,.08,0,.16,0,.24Zm-3.93.05c0,1.09.62,1.91,1.5,1.91s1.51-.81,1.51-1.92c0-.84-.42-1.89-1.49-1.89s-1.52.98-1.52,1.91h0Z"/>
          </g>
          <g id="Path_30302" data-name="Path 30302">
            <path class="cls-7" d="m47.05,144.89h.02c.12-.18.29-.39.43-.57l1.47-1.71h1.08l-1.91,2.04,2.19,2.92h-1.11l-1.7-2.38-.46.51v1.87h-.89v-7.27h.89v4.58Z"/>
          </g>
        </g>
        <g id="Path_30303" data-name="Path 30303">
          <path class="cls-7" d="m22.1,143.93c-.43,0-.78-.35-.78-.79,0-.43.35-.78.79-.78.43,0,.78.35.78.78,0,.43-.35.79-.79.79Z"/>
        </g>
        <g id="Path_30304" data-name="Path 30304">
          <path class="cls-7" d="m21.31,144.72c-.22,0-.4-.18-.4-.4s.18-.4.4-.4.4.18.4.4h0c0,.22-.18.4-.4.4Z"/>
        </g>
        <g id="Path_30305" data-name="Path 30305">
          <path class="cls-7" d="m19.7,145.65c-.22.03-.42-.12-.45-.34-.03-.22.12-.42.34-.45.04,0,.07,0,.11,0,.22-.03.42.12.45.34.03.22-.12.42-.34.45-.04,0-.07,0-.11,0Z"/>
        </g>
        <g id="Path_30306" data-name="Path 30306">
          <path class="cls-7" d="m20.37,146.33c-.22,0-.4-.18-.4-.4s.18-.4.4-.4.4.18.4.4h0c0,.22-.18.4-.4.4h0Z"/>
        </g>
        <g id="Path_30307" data-name="Path 30307">
          <path class="cls-7" d="m19.3,146.91c-.32,0-.58-.27-.58-.59s.27-.58.59-.58c.32,0,.58.26.58.58,0,.32-.26.58-.58.58,0,0,0,0,0,0Z"/>
        </g>
        <g id="Path_30308" data-name="Path 30308">
          <path class="cls-7" d="m20.91,142.76c-.22,0-.4-.18-.4-.4s.18-.4.4-.4.4.18.4.4h0c0,.22-.18.4-.4.4Z"/>
        </g>
      </g>
      <g id="Group_4070" data-name="Group 4070">
        <g id="Rectangle_2882" data-name="Rectangle 2882">
          <rect class="cls-7" x="16.79" y="128.42" width="45.74" height="10.09"/>
        </g>
        <g id="Rectangle_2883" data-name="Rectangle 2883">
          <rect x="58.04" y="131.13" width="2.8" height="4.67"/>
        </g>
        <g id="Rectangle_2884" data-name="Rectangle 2884">
          <rect x="19.91" y="131.13" width="1" height="4.67"/>
        </g>
        <g id="Group_4069" data-name="Group 4069">
          <g id="Path_30309" data-name="Path 30309">
            <path class="cls-21" d="m29.03,129.78h.89v3.11h.02c.35-.59,1.01-.94,1.69-.9,1.23.06,2.18,1.1,2.12,2.32,0,.06,0,.13-.02.19.16,1.29-.76,2.47-2.05,2.63-.06,0-.12.01-.19.02-.69.04-1.34-.32-1.67-.92h-.02l-.05.81h-.77c.02-.34.04-.84.04-1.28v-5.98Zm.89,5.28c0,.11.01.22.04.33.16.62.72,1.06,1.36,1.05.95,0,1.51-.77,1.51-1.91,0-.99-.51-1.84-1.49-1.84-.65.02-1.21.47-1.37,1.1-.03.12-.05.25-.05.38v.88Z"/>
          </g>
          <g id="Path_30310" data-name="Path 30310">
            <path class="cls-21" d="m39.37,134.52c.11,1.34-.88,2.51-2.22,2.62-.08,0-.17,0-.25,0-1.3.02-2.38-1.03-2.39-2.33,0-.07,0-.14,0-.21-.11-1.33.88-2.5,2.22-2.61.08,0,.16,0,.25,0,1.29-.03,2.37.99,2.4,2.29,0,.08,0,.17,0,.25Zm-3.93.05c0,1.09.62,1.91,1.5,1.91s1.51-.81,1.51-1.93c0-.84-.42-1.89-1.49-1.89s-1.52.98-1.52,1.91Z"/>
          </g>
          <g id="Path_30311" data-name="Path 30311">
            <path class="cls-21" d="m45.02,134.52c.11,1.34-.88,2.51-2.22,2.62-.08,0-.17,0-.25,0-1.31.02-2.38-1.03-2.39-2.34,0-.07,0-.14,0-.21-.11-1.33.89-2.5,2.22-2.61.08,0,.16,0,.25,0,1.29-.03,2.37.99,2.4,2.29,0,.08,0,.16,0,.25Zm-3.93.05c0,1.09.62,1.91,1.5,1.91s1.51-.81,1.51-1.93c0-.84-.42-1.89-1.49-1.89s-1.52.98-1.52,1.91Z"/>
          </g>
          <g id="Path_30312" data-name="Path 30312">
            <path class="cls-21" d="m47.05,134.35h.02c.12-.17.29-.39.43-.56l1.47-1.71h1.08l-1.91,2.03,2.19,2.92h-1.11l-1.7-2.38-.46.51v1.86h-.89v-7.26h.89v4.58Z"/>
          </g>
        </g>
      </g>
    </g>
    <g id="Group_4075" data-name="Group 4075">
      <g id="Group_4072" data-name="Group 4072">
        <g id="Path_30313" data-name="Path 30313">
          <path class="cls-25" d="m59.1,114.84v-2.11c0-1.16.57-2.26,1.51-2.94-.68-.49-1.49-.75-2.32-.74H22.53c-2.08-.05-3.81,1.6-3.86,3.68,0,0,0,0,0,0v2.11c.05,2.08,1.77,3.73,3.86,3.69,0,0,0,0,0,0h35.76c.83,0,1.64-.26,2.32-.74-.95-.68-1.51-1.78-1.51-2.94Z"/>
        </g>
        <g id="Path_30314" data-name="Path 30314">
          <path class="cls-27" d="m59.1,114.84v-2.11c0-1.19.59-2.29,1.56-2.97-.08,0-.14,0-.22,0H24.68c-2.13,0-3.86,1.4-3.86,3.14v1.79c0,1.73,1.73,3.14,3.86,3.14h35.76c.07,0,.14,0,.22,0-.97-.68-1.56-1.79-1.56-2.98Z"/>
        </g>
        <g id="Path_30315" data-name="Path 30315">
          <path class="cls-3" d="m58.92,114.71v-1.85c.02-1.08.6-2.07,1.52-2.62H25.39c-2.08,0-3.77,1.24-3.77,2.76v1.58c0,1.52,1.69,2.76,3.77,2.76h34.84c.07,0,.14,0,.21,0-.92-.56-1.5-1.55-1.52-2.62Z"/>
        </g>
      </g>
      <g id="Group_4073" data-name="Group 4073">
        <g id="Path_30316" data-name="Path 30316">
          <path class="cls-25" d="m56.71,105.36v-2.1c-.03-1.1.39-2.16,1.16-2.94-.48-.47-1.11-.74-1.78-.75h-27.31c-1.63,0-2.95,1.65-2.95,3.69v2.1c0,2.03,1.32,3.69,2.95,3.69h27.31c.67-.01,1.3-.28,1.78-.75-.77-.78-1.18-1.84-1.15-2.94Z"/>
        </g>
        <g id="Path_30317" data-name="Path 30317">
          <path class="cls-17" d="m56.71,105.36v-2.1c-.03-1.11.4-2.19,1.19-2.98-.05,0-.11,0-.16,0h-27.31c-1.68.05-3,1.46-2.95,3.14v1.8c-.05,1.68,1.27,3.08,2.95,3.14h27.31c.05,0,.11,0,.16-.01-.79-.79-1.22-1.86-1.19-2.98Z"/>
        </g>
        <g id="Path_30318" data-name="Path 30318">
          <path class="cls-4" d="m56.58,105.23v-1.85c-.02-1,.41-1.96,1.16-2.62-.05,0-.11,0-.16,0h-26.62c-1.56-.03-2.84,1.21-2.88,2.77v1.58c.03,1.56,1.32,2.79,2.88,2.76h26.62c.05,0,.11,0,.16,0-.76-.66-1.18-1.62-1.16-2.62Z"/>
        </g>
      </g>
      <g id="Group_4074" data-name="Group 4074">
        <g id="Path_30319" data-name="Path 30319">
          <path class="cls-34" d="m59.1,124.32v-2.1c0-1.17.57-2.26,1.51-2.94-.68-.49-1.49-.75-2.32-.75H22.53c-2.08-.05-3.81,1.6-3.86,3.68,0,0,0,0,0,0v2.1c.05,2.08,1.77,3.73,3.86,3.68,0,0,0,0,0,0h35.76c.83,0,1.64-.26,2.32-.74-.94-.68-1.51-1.77-1.51-2.94Z"/>
        </g>
        <g id="Path_30320" data-name="Path 30320">
          <path class="cls-22" d="m59.1,124.32v-2.1c0-1.19.59-2.3,1.56-2.98-.08,0-.14-.01-.22-.01H24.68c-2.13,0-3.86,1.41-3.86,3.14v1.79c0,1.74,1.73,3.14,3.86,3.14h35.76c.07,0,.14,0,.22-.01-.97-.68-1.56-1.78-1.56-2.97Z"/>
        </g>
        <g id="Path_30321" data-name="Path 30321">
          <path class="cls-3" d="m58.92,124.19v-1.85c.02-1.08.59-2.07,1.52-2.62-.07,0-.14-.01-.21,0H25.39c-2.08,0-3.77,1.24-3.77,2.77v1.57c0,1.53,1.69,2.76,3.77,2.76h34.84c.07,0,.14,0,.21,0-.92-.55-1.5-1.54-1.52-2.62Z"/>
        </g>
      </g>
    </g>
  </g>
  <g id="Path_30331" data-name="Path 30331">
    <g class="cls-41">
      <polygon class="cls-7" points="110.22 33.43 117.72 81.4 102.82 81.4 102.82 33.43 110.22 33.43"/>
      <polygon class="cls-7" points="210.28 33.43 217.78 81.4 117.72 81.4 110.22 33.43 210.28 33.43"/>
      <polygon class="cls-7" points="220.58 33.43 228.09 81.4 217.78 81.4 210.28 33.43 220.58 33.43"/>
      <polygon class="cls-9" points="230.89 33.43 238.39 81.4 228.09 81.4 220.58 33.43 230.89 33.43"/>
      <polygon class="cls-5" points="241.2 33.43 248.7 81.4 238.39 81.4 230.89 33.43 241.2 33.43"/>
      <polygon class="cls-13" points="251.5 33.43 259.01 81.4 248.7 81.4 241.2 33.43 251.5 33.43"/>
      <polygon class="cls-13" points="268.79 33.43 274.79 71.83 274.79 81.4 259.01 81.4 251.5 33.43 268.79 33.43"/>
      <polygon class="cls-13" points="274.79 71.83 268.79 33.43 274.79 33.43 274.79 71.83"/>
    </g>
  </g>
  <g id="computer">
    <g id="Rectangle_2885" data-name="Rectangle 2885">
      <path class="cls-29" d="m71.19,142.98h49.08c.28,0,.51.22.51.5,0,0,0,0,0,0v3.24c0,.28-.23.51-.51.51h-49.08c-.28,0-.51-.23-.51-.51v-3.25c0-.28.23-.51.51-.51h0Z"/>
    </g>
    <g id="Path_30322" data-name="Path 30322">
      <path class="cls-29" d="m95.73,123.27v19.89h-7.86v-12.28s.45-6.38,3.93-8.64l3.93,1.03Z"/>
    </g>
    <g id="Path_30323" data-name="Path 30323">
      <path class="cls-7" d="m99.18,24.57c.34.22.69.44,1.03.66,1.02.67,2.04,1.3,3.09,1.93,1.28.66,2.46,1.5,3.49,2.5.61.59,1.04,1.35,1.23,2.18v81.53c.1.87.04,1.76-.16,2.62-.23.49-.53.94-.89,1.34-.88,1.02-1.93,1.88-3.1,2.54-1.54,1.03-3.12,2-4.7,2.97V24.57Z"/>
    </g>
    <g id="Path_30324" data-name="Path 30324">
      <path class="cls-22" d="m94.76,25.13c1.57,1.14,3.16,2.28,4.71,3.45.83.63,1.68,1.22,2.53,1.81,1.07.63,2.03,1.42,2.86,2.34.52.58.86,1.28,1.01,2.04v76.36c.08.82.03,1.65-.13,2.45-.19.45-.43.87-.73,1.26-.7.94-1.55,1.74-2.53,2.38-1.8,1.38-3.7,2.64-5.53,3.99-.73.53-1.46,1.05-2.19,1.57V25.13Z"/>
    </g>
    <g id="Rectangle_2886" data-name="Rectangle 2886">
      <path class="cls-29" d="m88.12,49.99h1.98c.94,0,1.69.76,1.69,1.7v44.15c0,.94-.76,1.7-1.7,1.7h-1.98c-.94,0-1.69-.76-1.69-1.69,0,0,0,0,0,0v-44.16c0-.93.76-1.69,1.69-1.69h0Z"/>
    </g>
    <g id="Path_30325" data-name="Path 30325">
      <path class="cls-31" d="m89.32,97.54h-.21v-47.54h.21c1.36,0,2.47,1.11,2.47,2.47v42.6c0,1.36-1.1,2.47-2.47,2.47h0Z"/>
    </g>
    <g id="Path_30326" data-name="Path 30326">
      <path class="cls-23" d="m104.54,32.36c.12.11.23.23.33.36.52.58.86,1.28,1.01,2.04v76.36c.08.82.03,1.65-.13,2.45-.19.45-.43.87-.73,1.26-.15.22-.31.42-.48.62V32.36Z"/>
    </g>
    <g id="Path_30327" data-name="Path 30327">
      <path class="cls-32" d="m91.79,122.94c.04.45.44.78.89.74h5.61c.45.04.85-.29.89-.74V24.39c-.04-.45-.44-.78-.89-.74h-5.61c-.45-.04-.84.29-.89.74v98.54Z"/>
    </g>
    <g id="Path_30328" data-name="Path 30328">
      <path class="cls-39" d="m96.94,23.65h1.36c.45-.04.85.29.89.74v98.55c-.05.45-.44.78-.89.74h-1.36V23.65Z"/>
    </g>
  </g>
  <g id="IOT" class="cls-44">
    <g class="cls-44">
      <path class="cls-14" d="m193.83,70.48l-3.34.47-2.28-16.19,3.34-.47,2.28,16.19Z"/>
      <path class="cls-14" d="m209.13,60.45c.22,1.59.14,3.03-.26,4.31-.39,1.28-1.07,2.32-2.03,3.12-.96.8-2.12,1.3-3.47,1.49-1.34.19-2.58.03-3.73-.46-1.14-.5-2.09-1.3-2.83-2.42-.75-1.12-1.23-2.45-1.46-4.01l-.11-.8c-.22-1.59-.13-3.04.27-4.33.4-1.29,1.08-2.34,2.04-3.13.96-.8,2.11-1.29,3.46-1.48s2.59-.03,3.73.47c1.14.5,2.08,1.32,2.83,2.45.75,1.13,1.23,2.49,1.45,4.08l.1.72Zm-3.48-.26c-.24-1.7-.72-2.94-1.46-3.74-.73-.8-1.66-1.12-2.79-.96-1.12.16-1.92.71-2.41,1.67-.48.96-.61,2.28-.38,3.96l.11.79c.23,1.65.72,2.89,1.45,3.72.74.83,1.68,1.16,2.82,1,1.12-.16,1.92-.72,2.4-1.68.48-.96.6-2.29.37-3.97l-.11-.79Z"/>
      <path class="cls-14" d="m221.99,52.77l-4.96.7,1.9,13.49-3.34.47-1.9-13.49-4.89.69-.38-2.7,13.19-1.85.38,2.7Z"/>
    </g>
  </g>
  <g id="AWS" class="cls-44">
    <g class="cls-44">
      <path class="cls-12" d="m130.23,84.66l-2.31-.13-.51,1.29-1.4-.08,2.73-6.26,1.22.07,2.04,6.52-1.4-.08-.37-1.34Zm-1.89-1.17l1.6.09-.67-2.44-.92,2.35Z"/>
      <path class="cls-12" d="m137.5,84.53l1.11-4.5,1.31.07-1.77,6.31-1.33-.07-.81-4.33-1.27,4.22-1.33-.07-1.07-6.47,1.31.07.62,4.58,1.3-4.48,1.11.06.8,4.6Z"/>
      <path class="cls-12" d="m143.69,85.03c.01-.25-.06-.44-.23-.59s-.48-.3-.92-.47c-.45-.17-.8-.34-1.06-.5-.7-.43-1.04-.98-1-1.64.02-.34.13-.65.34-.91.21-.26.5-.46.87-.59.37-.13.79-.19,1.24-.16.46.03.86.13,1.21.31.35.19.61.43.79.75.18.31.26.66.24,1.04l-1.32-.07c.02-.29-.06-.52-.24-.7-.17-.17-.43-.27-.76-.29-.32-.02-.58.04-.76.16-.19.13-.29.3-.3.52-.01.21.08.39.29.54.2.15.5.3.9.44.74.27,1.27.58,1.59.93s.47.78.45,1.27c-.03.55-.26.98-.7,1.27-.44.29-1.01.42-1.72.38-.49-.03-.93-.14-1.33-.34-.39-.2-.69-.46-.88-.79-.2-.32-.28-.69-.26-1.11l1.32.07c-.04.71.36,1.08,1.21,1.13.31.02.56-.03.74-.15.18-.12.28-.29.29-.52Z"/>
    </g>
  </g>
  <g id="CLOUD" class="cls-44">
    <g class="cls-44">
      <path class="cls-33" d="m203.25,86.08c-.12.91-.49,1.62-1.13,2.11-.64.49-1.46.71-2.46.66-1.09-.06-1.93-.47-2.52-1.24-.59-.77-.84-1.79-.77-3.08l.03-.52c.04-.82.23-1.53.55-2.14s.76-1.06,1.32-1.37c.55-.3,1.19-.44,1.9-.4.98.05,1.76.36,2.33.92.57.56.88,1.32.92,2.27l-1.75-.1c-.01-.55-.14-.96-.39-1.22-.25-.26-.64-.41-1.18-.44-.58-.03-1.03.15-1.35.56s-.5,1.04-.55,1.93l-.04.64c-.05.92.05,1.6.31,2.04.26.44.68.68,1.29.71.54.03.95-.07,1.23-.31.28-.23.46-.61.52-1.12l1.76.1Z"/>
      <path class="cls-33" d="m206.08,87.66l3.73.2-.08,1.41-5.48-.3.46-8.52,1.75.1-.39,7.11Z"/>
      <path class="cls-33" d="m217.58,85.63c-.05.84-.23,1.57-.57,2.18-.33.62-.78,1.08-1.35,1.39-.57.31-1.21.45-1.93.41-.71-.04-1.33-.24-1.86-.61-.54-.37-.94-.88-1.21-1.52-.27-.65-.38-1.38-.34-2.2l.02-.42c.04-.84.24-1.57.57-2.19.34-.62.79-1.09,1.36-1.4.57-.31,1.21-.45,1.92-.41.71.04,1.33.24,1.86.61.53.37.93.88,1.2,1.54.27.65.38,1.4.33,2.23l-.02.38Zm-1.76-.48c.05-.89-.07-1.58-.37-2.06-.29-.48-.74-.74-1.33-.77-.59-.03-1.06.17-1.4.61s-.54,1.1-.6,1.99l-.02.42c-.05.87.08,1.55.37,2.05s.74.76,1.34.79c.59.03,1.05-.17,1.4-.62.34-.44.54-1.11.59-2l.02-.42Z"/>
      <path class="cls-33" d="m225.55,81.59l-.31,5.61c-.05.93-.38,1.65-1,2.16-.61.51-1.42.74-2.43.68-.99-.05-1.77-.36-2.33-.92-.56-.56-.82-1.3-.78-2.22l.31-5.67,1.75.1-.31,5.62c-.03.56.08.97.33,1.24.25.27.62.42,1.09.44.99.05,1.52-.44,1.59-1.48l.31-5.67,1.76.1Z"/>
      <path class="cls-33" d="m226.53,90.19l.46-8.52,2.62.14c.75.04,1.41.25,1.98.62.57.37,1.01.88,1.3,1.51.3.64.42,1.36.38,2.15l-.02.39c-.04.79-.24,1.49-.6,2.09-.36.6-.84,1.05-1.46,1.36-.61.31-1.29.44-2.04.41l-2.64-.14Zm2.14-7l-.31,5.69.85.05c.69.04,1.22-.16,1.61-.59.39-.43.61-1.06.66-1.89l.03-.45c.05-.87-.1-1.53-.43-2-.33-.47-.85-.72-1.54-.76l-.87-.05Z"/>
    </g>
  </g>
  <g id="Path_30330" data-name="Path 30330">
    <g class="cls-43">
      <polygon class="cls-7" points="105.4 22 147.75 4.92 183.53 4.92 105.4 76.8 105.4 22"/>
      <polygon class="cls-7" points="239.13 4.92 159.23 78.44 105.4 78.44 105.4 76.8 183.53 4.92 239.13 4.92"/>
      <polygon class="cls-7" points="247.26 4.92 167.36 78.44 159.23 78.44 239.13 4.92 247.26 4.92"/>
      <polygon class="cls-9" points="255.39 4.92 175.49 78.44 167.36 78.44 247.26 4.92 255.39 4.92"/>
      <polygon class="cls-5" points="263.52 4.92 183.62 78.44 175.49 78.44 255.39 4.92 263.52 4.92"/>
      <polygon class="cls-13" points="271.65 4.92 191.75 78.44 183.62 78.44 263.52 4.92 271.65 4.92"/>
      <rect class="cls-13" x="177.41" y="41.68" width="108.58" transform="translate(32.98 167.9) rotate(-42.62)"/>
      <polygon class="cls-13" points="272.71 60.52 228.31 78.44 191.75 78.44 271.65 4.92 272.71 4.92 272.71 60.52"/>
    </g>
  </g>
  <g id="golang" class="cls-44">
    <g class="cls-44">
      <path class="cls-6" d="m134.73,61.85c-.21-.53-.26-1-.14-1.42s.39-.72.82-.89c.38-.15.72-.14,1.03.03l-.09-.34.83-.33,1.34,3.31c.12.3.16.59.11.87-.04.28-.17.52-.37.74s-.47.39-.8.53c-.25.1-.52.15-.79.15-.28,0-.51-.06-.7-.17l.18-.72c.33.16.66.18.99.05.24-.1.41-.24.49-.42.08-.18.08-.4-.02-.63l-.08-.18c-.11.32-.34.56-.69.7-.41.17-.81.14-1.2-.08s-.68-.6-.9-1.13l-.02-.04Zm.94-.3c.13.31.29.53.48.66.2.13.4.15.62.06.28-.11.44-.3.47-.56l-.58-1.44c-.21-.16-.45-.18-.72-.07-.22.09-.36.25-.41.48-.05.23,0,.52.14.88Z"/>
      <path class="cls-6" d="m138.42,60.35c-.14-.34-.2-.67-.17-.99.02-.32.13-.6.32-.85.19-.25.44-.43.77-.57.46-.19.9-.2,1.31-.03.41.17.72.48.96.96l.1.23c.21.53.24,1.01.07,1.44-.17.44-.5.75-.99.96-.49.2-.95.2-1.38,0-.42-.2-.74-.57-.96-1.12l-.02-.04Zm.94-.31c.13.33.29.55.49.67.19.12.4.14.63.04.22-.09.36-.25.42-.46.05-.22,0-.52-.14-.89-.13-.32-.29-.54-.49-.67-.2-.12-.41-.14-.63-.05-.22.09-.36.25-.41.47s0,.52.14.88Z"/>
      <path class="cls-6" d="m143.91,60.17l-.92.37-1.97-4.87.92-.37,1.97,4.87Z"/>
      <path class="cls-6" d="m146.65,59.06c-.07-.07-.15-.16-.22-.27-.12.34-.36.58-.71.72-.34.14-.65.15-.95.05s-.51-.31-.63-.6c-.15-.36-.12-.7.07-1,.19-.3.54-.56,1.05-.77l.42-.17-.08-.2c-.06-.16-.16-.27-.28-.33-.12-.06-.27-.06-.44.01-.15.06-.26.15-.32.26-.06.11-.06.23,0,.36l-.92.37c-.08-.2-.09-.41-.04-.62.05-.22.17-.42.36-.61.19-.19.42-.34.7-.45.42-.17.8-.2,1.13-.09.33.11.58.36.73.75l.6,1.49c.13.32.28.55.43.68l.02.05-.93.37Zm-1.01-.33c.14-.05.25-.13.34-.24s.14-.22.16-.34l-.24-.59-.34.14c-.46.19-.64.44-.54.77l.02.06c.05.11.12.19.23.23.11.04.23.03.37-.02Z"/>
      <path class="cls-6" d="m147.6,54.69l.19.38c.12-.41.39-.69.8-.86.36-.15.68-.15.94,0,.26.14.48.42.66.85l.89,2.21-.92.37-.89-2.19c-.08-.19-.18-.32-.3-.37s-.28-.04-.48.04c-.26.1-.41.29-.45.56l.98,2.42-.92.37-1.39-3.43.86-.35Z"/>
      <path class="cls-6" d="m150.94,55.3c-.21-.53-.26-1-.14-1.42.12-.42.39-.72.82-.89.38-.15.72-.14,1.03.03l-.09-.34.83-.34,1.34,3.31c.12.3.16.59.11.87-.05.28-.17.52-.37.74-.2.22-.47.39-.8.53-.25.1-.52.15-.8.15-.28,0-.51-.06-.7-.17l.18-.72c.33.16.66.18.98.05.24-.1.41-.24.49-.42.08-.18.08-.4-.02-.63l-.07-.18c-.12.32-.34.56-.69.7-.41.17-.81.14-1.2-.08s-.68-.6-.9-1.13l-.02-.04Zm.94-.3c.13.31.29.53.48.66.2.13.4.15.62.06.28-.11.44-.3.47-.56l-.58-1.44c-.21-.16-.45-.18-.72-.07-.22.09-.36.25-.41.48-.05.23,0,.52.14.88Z"/>
    </g>
  </g>
  <g id="Java" class="cls-44">
    <g class="cls-44">
      <path class="cls-16" d="m197.14,31.53l1.91-.74,2.47,6.43c.23.59.3,1.17.21,1.72-.09.55-.32,1.04-.7,1.48-.38.43-.87.76-1.47.99-.98.38-1.84.42-2.58.13s-1.29-.89-1.64-1.81l1.93-.74c.17.46.4.75.67.9.28.14.62.13,1.03-.02.37-.14.61-.38.73-.71.12-.33.09-.73-.09-1.2l-2.47-6.43Z"/>
      <path class="cls-16" d="m208.14,37.96c-.15-.13-.29-.32-.42-.55-.25.67-.74,1.14-1.45,1.42-.68.26-1.31.28-1.91.06-.59-.22-1.01-.63-1.24-1.22-.28-.73-.23-1.4.17-2s1.1-1.1,2.12-1.5l.85-.33-.15-.4c-.12-.32-.3-.54-.54-.67-.24-.13-.53-.12-.89.01-.31.12-.53.29-.65.5-.12.22-.13.46-.03.71l-1.84.71c-.15-.4-.17-.82-.06-1.25.12-.44.36-.84.74-1.2.38-.37.85-.66,1.41-.87.85-.33,1.61-.37,2.27-.14.66.23,1.14.74,1.44,1.51l1.15,2.99c.26.65.54,1.11.85,1.38l.04.11-1.86.72Zm-2.02-.7c.27-.1.5-.26.68-.47.18-.21.29-.44.32-.69l-.46-1.19-.69.27c-.92.35-1.29.86-1.11,1.52l.04.11c.09.23.24.39.46.47.22.09.47.08.75-.03Z"/>
      <path class="cls-16" d="m212.77,33.59l-.51-5.14,1.93-.74.33,7.8-1.76.68-4.98-6.01,1.93-.74,3.07,4.16Z"/>
      <path class="cls-16" d="m221.56,32.79c-.15-.13-.29-.32-.42-.55-.26.67-.74,1.14-1.46,1.42-.68.26-1.31.28-1.91.06-.59-.22-1.01-.63-1.24-1.22-.28-.73-.23-1.4.17-2,.39-.6,1.1-1.1,2.12-1.5l.85-.33-.15-.4c-.12-.32-.3-.54-.54-.67-.24-.13-.53-.12-.89.01-.31.12-.53.29-.64.5-.12.22-.13.45-.03.71l-1.84.71c-.15-.4-.17-.82-.06-1.25.12-.43.36-.84.74-1.2s.85-.66,1.41-.87c.85-.33,1.61-.37,2.27-.14.66.23,1.15.74,1.44,1.51l1.15,2.99c.26.65.54,1.11.85,1.38l.04.11-1.86.72Zm-2.02-.7c.27-.1.5-.26.68-.47.18-.21.29-.44.32-.68l-.46-1.19-.69.26c-.92.36-1.29.86-1.11,1.52l.04.11c.09.23.24.39.46.47s.47.08.75-.03Z"/>
    </g>
  </g>
  <g id="Group_4077" data-name="Group 4077">
    <g id="Path_30332" data-name="Path 30332">
      <g class="cls-42">
        <polygon class="cls-7" points="119.13 93.76 104.39 97.72 104.39 93.76 119.13 93.76"/>
        <polygon class="cls-7" points="265.98 93.76 160.15 122.23 104.39 122.23 104.39 97.72 119.13 93.76 265.98 93.76"/>
        <polygon class="cls-7" points="266.73 93.76 160.91 122.23 160.15 122.23 265.98 93.76 266.73 93.76"/>
        <polygon class="cls-9" points="267.49 93.76 161.66 122.23 160.91 122.23 266.73 93.76 267.49 93.76"/>
        <polygon class="cls-5" points="268.25 93.76 162.42 122.23 161.66 122.23 267.49 93.76 268.25 93.76"/>
        <polygon class="cls-13" points="269 93.76 163.17 122.23 162.42 122.23 268.25 93.76 269 93.76"/>
        <polygon class="cls-13" points="281.6 112.66 246.02 122.23 163.17 122.23 269 93.76 281.6 93.76 281.6 112.66"/>
        <polygon class="cls-13" points="246.02 122.23 281.6 112.66 281.6 122.23 246.02 122.23"/>
      </g>
    </g>
    <g id="Blockchain" class="cls-44">
      <g class="cls-44">
        <path class="cls-6" d="m127.07,100.16l.67-6.36,2.23.23c.77.08,1.34.29,1.71.63.37.34.52.79.46,1.36-.03.31-.14.58-.33.8-.19.22-.43.37-.72.45.32.12.56.31.72.57.16.27.22.58.19.94-.06.61-.31,1.05-.73,1.33s-1,.38-1.72.3l-2.47-.26Zm1.6-2.63l-.18,1.72,1.12.12c.31.03.56-.02.75-.14.19-.13.3-.32.32-.58.06-.58-.21-.91-.81-.98l-1.2-.13Zm.1-.93l.97.1c.66.06,1.02-.17,1.08-.69.03-.29-.03-.51-.19-.65-.15-.14-.41-.23-.77-.27l-.92-.1-.17,1.6Z"/>
        <path class="cls-6" d="m134.04,100.89l-1.27-.13.71-6.71,1.27.13-.71,6.71Z"/>
        <path class="cls-6" d="m135.13,98.57c.05-.47.18-.88.4-1.22.22-.35.51-.61.87-.77.36-.17.77-.22,1.21-.18.64.07,1.14.32,1.5.75.36.43.53.99.51,1.66l-.03.32c-.08.73-.34,1.29-.79,1.68-.45.4-1.02.56-1.7.49-.68-.07-1.2-.35-1.56-.83-.36-.48-.5-1.1-.42-1.85v-.06Zm1.25.22c-.05.45,0,.8.15,1.06.14.25.37.4.69.43.31.03.56-.06.75-.28.2-.22.32-.58.38-1.1.05-.44,0-.79-.15-1.05-.15-.26-.38-.41-.69-.44-.31-.03-.56.06-.75.29-.19.22-.32.59-.37,1.09Z"/>
        <path class="cls-6" d="m142.2,100.81c.23.02.43-.02.59-.13.16-.11.25-.28.28-.49l1.18.12c-.04.32-.15.6-.35.85-.2.25-.46.43-.77.55-.31.12-.65.15-1.01.12-.68-.07-1.19-.34-1.53-.81-.34-.47-.48-1.08-.4-1.84v-.08c.08-.73.34-1.29.77-1.68.43-.39.99-.55,1.66-.48.59.06,1.05.28,1.37.66.32.37.46.84.4,1.4l-1.18-.12c.02-.25-.03-.45-.16-.62-.13-.17-.31-.26-.55-.29-.29-.03-.53.05-.7.25-.17.2-.28.54-.33,1.02v.13c-.06.49-.03.85.1,1.07s.34.36.64.39Z"/>
        <path class="cls-6" d="m146.72,100.3l-.5.41-.15,1.44-1.26-.13.71-6.71,1.26.13-.39,3.72.28-.29,1.36-1.29,1.52.16-1.92,1.79,1.57,2.95-1.45-.15-1.02-2.02Z"/>
        <path class="cls-6" d="m151.56,101.79c.23.02.43-.02.59-.13.16-.11.25-.28.28-.49l1.18.12c-.04.32-.15.6-.35.85-.2.25-.46.43-.77.55-.31.11-.65.15-1.01.12-.68-.07-1.19-.34-1.53-.81-.35-.47-.48-1.08-.4-1.84v-.08c.08-.73.34-1.29.77-1.68.43-.39.99-.55,1.66-.48.59.06,1.05.28,1.37.65.32.37.46.84.4,1.4l-1.18-.12c.02-.25-.03-.45-.16-.62-.13-.17-.31-.27-.55-.29-.29-.03-.53.05-.7.25s-.28.54-.33,1.02v.13c-.06.49-.03.85.1,1.07.13.23.34.36.64.39Z"/>
        <path class="cls-6" d="m155.84,98.92c.38-.37.82-.52,1.33-.47,1.03.11,1.48.76,1.37,1.95l-.32,3.03-1.26-.13.31-2.99c.03-.27,0-.48-.11-.62-.1-.14-.29-.23-.56-.26-.37-.04-.65.08-.85.34l-.35,3.36-1.26-.13.71-6.71,1.26.13-.26,2.5Z"/>
        <path class="cls-6" d="m161.92,103.82c-.05-.12-.07-.26-.08-.44-.34.31-.76.44-1.25.38-.46-.05-.83-.22-1.11-.52-.28-.3-.39-.65-.35-1.06.05-.5.28-.87.68-1.1.4-.23.95-.31,1.65-.24l.58.06.03-.27c.02-.22-.02-.4-.11-.54-.1-.14-.27-.23-.51-.25-.21-.02-.39.01-.52.1-.13.09-.21.22-.23.4l-1.26-.13c.03-.27.14-.52.33-.74.19-.21.45-.37.77-.47s.68-.13,1.06-.09c.58.06,1.03.26,1.34.58.31.33.44.76.38,1.29l-.22,2.05c-.04.45-.02.79.08,1.04v.07s-1.28-.13-1.28-.13Zm-.95-.99c.19.02.36,0,.53-.07.17-.07.29-.17.38-.3l.09-.81-.47-.05c-.63-.07-.99.12-1.08.55v.07c-.03.16.01.29.11.41.1.11.25.18.44.2Z"/>
        <path class="cls-6" d="m165.31,104.17l-1.27-.13.5-4.73,1.27.13-.5,4.73Zm-.72-6.09c.02-.19.1-.34.24-.45.14-.11.32-.15.54-.13.22.02.38.1.5.24.12.14.16.3.14.49-.02.19-.1.34-.24.45-.14.11-.32.15-.53.13s-.38-.1-.49-.24c-.12-.14-.17-.3-.15-.49Z"/>
        <path class="cls-6" d="m168.01,99.68l-.02.55c.38-.39.86-.55,1.43-.49.5.05.86.24,1.07.56.21.32.29.77.24,1.36l-.32,3.05-1.26-.13.32-3.02c.03-.27,0-.47-.11-.6-.1-.13-.29-.21-.56-.24-.36-.04-.64.09-.85.37l-.35,3.33-1.26-.13.5-4.73,1.19.12Z"/>
      </g>
    </g>
    <g id="K8s" class="cls-44">
      <g class="cls-44">
        <path class="cls-38" d="m186.15,105.83l-.93.81-.23,2.22-1.6-.17.82-7.78,1.6.17-.37,3.53.81-.89,2.25-2.35,1.97.21-3.12,3.17,2.39,4.62-1.91-.2-1.67-3.33Z"/>
        <path class="cls-38" d="m195.83,104.23c-.04.38-.17.7-.39.97s-.5.48-.85.62c.36.22.63.5.82.84s.26.73.21,1.16c-.07.69-.36,1.21-.88,1.56-.51.35-1.17.49-1.98.4s-1.43-.35-1.86-.81c-.43-.45-.61-1.02-.54-1.71.04-.43.2-.79.45-1.09.25-.3.58-.52.97-.65-.31-.21-.55-.47-.7-.78-.16-.31-.21-.66-.17-1.03.07-.66.35-1.17.83-1.51.48-.35,1.1-.48,1.86-.4.75.08,1.33.34,1.74.77.4.44.57.99.5,1.66Zm-1.75,3.32c.04-.34-.03-.62-.21-.84-.17-.22-.43-.35-.76-.39-.33-.03-.6.04-.82.22-.22.18-.34.44-.38.78-.04.33.03.61.2.83.17.22.43.35.77.39.33.04.61-.04.82-.21.21-.17.33-.44.37-.78Zm.2-3.41c.03-.3-.02-.55-.16-.75-.14-.2-.36-.32-.65-.35-.29-.03-.52.03-.7.2-.18.16-.28.4-.32.71-.03.31.02.57.16.77.14.21.36.32.65.35.29.03.53-.04.71-.21.18-.17.28-.41.32-.72Z"/>
        <path class="cls-38" d="m199.8,108.8c.02-.19-.06-.35-.23-.48-.18-.13-.46-.26-.87-.39-1.34-.43-1.97-1.09-1.88-1.97.05-.51.31-.92.77-1.22.46-.3,1.04-.41,1.72-.34.73.08,1.3.31,1.71.7s.58.86.52,1.42l-1.54-.16c.02-.22-.03-.41-.16-.57-.13-.16-.34-.26-.64-.29-.26-.03-.47,0-.62.11-.16.1-.24.24-.26.43-.02.17.05.32.2.44s.42.24.79.36c.38.12.69.24.95.36.78.39,1.14.95,1.06,1.68-.06.53-.33.93-.81,1.21-.49.28-1.09.38-1.8.3-.48-.05-.91-.18-1.26-.4s-.63-.48-.81-.8c-.18-.32-.25-.66-.22-1.01l1.46.15c-.01.27.06.5.24.66.17.17.42.26.74.3.3.03.53,0,.69-.1.16-.09.25-.24.27-.42Z"/>
      </g>
    </g>
    <g id="AI_ML" data-name="AI ML" class="cls-44">
      <g class="cls-44">
        <path class="cls-16" d="m217.51,110.78l-3.32-.35-.83,1.83-2.01-.21,4.38-8.84,1.75.18,2.48,9.55-2.01-.21-.44-1.96Zm-2.65-1.83l2.3.24-.8-3.56-1.5,3.32Z"/>
        <path class="cls-16" d="m222.83,113.25l-1.89-.2.96-9.19,1.89.2-.96,9.19Z"/>
        <path class="cls-16" d="m224.96,114.27l-1.36-.14,4.43-9.63,1.36.14-4.43,9.63Z"/>
        <path class="cls-16" d="m232.85,105l1.67,6.91,3.04-6.42,2.49.26-.96,9.19-1.9-.2.26-2.51.64-4.32-3.2,6.59-1.3-.14-1.76-7.1-.26,4.35-.26,2.51-1.89-.2.96-9.19,2.47.26Z"/>
        <path class="cls-16" d="m242.8,113.79l4.02.42-.16,1.52-5.92-.62.96-9.19,1.89.2-.8,7.67Z"/>
      </g>
    </g>
  </g>
  <g id="Line_15" data-name="Line 15">
    <rect class="cls-7" x="132.42" y="68.35" width="103.82" height="1.5" transform="translate(-5.83 18.2) rotate(-5.57)"/>
  </g>
  <g id="Group_4091" data-name="Group 4091">
    <g id="Path_30352" data-name="Path 30352">
      <path class="cls-11" d="m268.31,28.64c-1.34-13.87,11.3-25.24,25.24-25.24s23.46,11.43,25.18,27.16c8.32,46.2-28.98,46.09-28.98,46.09-10.08,1.93-19.08-23.49-21.44-48.01Z"/>
    </g>
    <g id="Path_30353" data-name="Path 30353">
      <path class="cls-30" d="m266.28,5.09c13.77-10.37,36.8-1.68,36.8-1.68,22.81-8.69,22.81,23.93,22.81,23.93-.33,12.88-6.72,25.42-6.72,25.42,0,0-4.06-7.75-16.32-14.99-9.91-5.86-6.08-14.81-6.08-14.81-9.84,0-33,8.98-36.3-.99-1.97-5.96-2.59-10.56,5.81-16.89Z"/>
    </g>
    <g id="Path_30354" data-name="Path 30354">
      <path class="cls-11" d="m301.21,43.87c0,4.52,1.73,6.43,6.25,6.43s8.18-5.38,8.18-9.89-4.63-7.97-8.18-6.46c-4.16,1.76-6.25,5.41-6.25,9.92Z"/>
    </g>
    <g id="Path_30355" data-name="Path 30355">
      <path class="cls-11" d="m270.57,42.16s-.78,13.25,1.02,17.05c1.52.02,3.04-.25,4.46-.79l-5.49-16.26Z"/>
    </g>
    <g id="Path_30356" data-name="Path 30356">
      <path class="cls-30" d="m277,37.27c0,.86.7,1.56,1.56,1.56.86,0,1.56-.7,1.56-1.56,0-.86-.7-1.56-1.56-1.56-.86,0-1.56.7-1.56,1.56Z"/>
    </g>
    <g id="Group_4086" data-name="Group 4086">
      <g id="Path_30357" data-name="Path 30357">
        <path class="cls-30" d="m275.47,33.27c-.47,0-.86-.38-.86-.85,0-.31.16-.59.43-.75,2.21-1.24,4.86-1.45,7.24-.55.43.2.62.71.43,1.14-.19.41-.67.61-1.09.44-1.88-.69-3.96-.53-5.71.45-.13.08-.28.12-.43.12Z"/>
      </g>
    </g>
    <g id="Path_30358" data-name="Path 30358">
      <path class="cls-7" d="m289.11,55.69c-3.28,3.16-7.27,5.49-11.63,6.81-.1.03,3.05,7.57,7.22,6.63,8.92-1.73,4.79-13.72,4.41-13.45Z"/>
    </g>
  </g>
</svg>