<svg xmlns="http://www.w3.org/2000/svg" xmlns:xlink="http://www.w3.org/1999/xlink" width="337.544" height="343" viewBox="0 0 337.544 343"><defs><style>.a{fill:url(#a);}.b{fill:none;stroke:#fff;stroke-miterlimit:10;stroke-width:1.5px;}.c,.o,.r,.u,.w{mix-blend-mode:multiply;isolation:isolate;}.d,.w{fill:#b5c6c9;}.e{fill:#1a1a1a;}.f{fill:#666;}.g{fill:#333;}.h{fill:#f2b279;}.i{fill:#ffc48f;}.j{fill:#cf171e;}.k{fill:#fff;}.l{fill:#b8151a;}.m{fill:#42210b;}.n{fill:#1c2f37;}.o{fill:#b4bbbf;}.p{fill:#0c1f29;}.q{fill:#e81a22;}.r,.z{fill:#ccc;}.s{fill:#c99987;}.t{fill:#784836;}.u,.v{fill:#e6e6e6;}.x{fill:#9e8567;}.y{fill:#c1272d;}.aa{fill:#f2f2f2;}.ab{fill:#999;}.ac{fill:#b3b3b3;}.ad{fill:url(#b);}.ae{fill:#101d29;}.af{fill:#1e2f3d;}.ag{fill:#24394a;}.ah{fill:#3a5c78;}.ai{fill:#f16529;font-size:23px;}.ai,.aj,.ak,.am,.an,.ap,.aq,.ar{font-family:Roboto-Black, Roboto;font-weight:800;}.ai,.ak{opacity:0.6;}.aj{fill:#f90;}.aj,.ap{font-size:9px;}.aj,.aq{opacity:0.4;}.ak{fill:#1fa8e5;font-size:12px;}.al{fill:url(#c);}.am,.ap{fill:#ea2d2e;}.am{font-size:7px;}.am,.an,.ap{opacity:0.5;}.an,.ar{fill:#67217a;}.an{font-size:14px;}.ao{fill:url(#d);}.aq{fill:#535353;font-size:11px;}.ar{font-size:13px;opacity:0.65;}.as{fill:#ffa88a;}.at{fill:#242424;}</style><linearGradient id="a" x1="0.011" y1="0.288" x2="1" y2="0.5" gradientUnits="objectBoundingBox"><stop offset="0" stop-color="#fff" stop-opacity="0.302"/><stop offset="0.368" stop-color="#fbfbfb" stop-opacity="0.78"/><stop offset="0.812" stop-color="#fff" stop-opacity="0.941"/><stop offset="1" stop-color="#fbfbfb" stop-opacity="0"/></linearGradient><linearGradient id="b" x1="0.086" y1="0.496" x2="1" y2="0.5" gradientUnits="objectBoundingBox"><stop offset="0" stop-color="#fff" stop-opacity="0.302"/><stop offset="0.631" stop-color="#fff" stop-opacity="0.941"/><stop offset="0.891" stop-color="#fbfbfb" stop-opacity="0.78"/><stop offset="1" stop-color="#fbfbfb" stop-opacity="0"/></linearGradient><linearGradient id="c" x1="0.05" y1="0.192" x2="1" y2="0.5" gradientUnits="objectBoundingBox"><stop offset="0" stop-color="#fff" stop-opacity="0.302"/><stop offset="0.631" stop-color="#fff" stop-opacity="0.941"/><stop offset="1" stop-color="#fbfbfb" stop-opacity="0.78"/><stop offset="1" stop-color="#fbfbfb" stop-opacity="0"/></linearGradient><linearGradient id="d" x1="0.015" y1="0.17" x2="1" y2="0.5" gradientUnits="objectBoundingBox"><stop offset="0" stop-color="#fff" stop-opacity="0.302"/><stop offset="0.631" stop-color="#fff" stop-opacity="0.941"/><stop offset="0.644" stop-color="#fbfbfb" stop-opacity="0.78"/><stop offset="1" stop-color="#fbfbfb" stop-opacity="0"/></linearGradient></defs><g transform="translate(0 0)"><path class="a" d="M210.716,166.055l177.96,11.432-9.717-16.958L215.67,158.052Z" transform="translate(-101.708 -78.959)"/><line class="b" y1="17.252" x2="103.239" transform="translate(133.755 56.681)"/><g class="c" transform="translate(4.974 109.115)"><rect class="d" width="45.745" height="8.993" transform="translate(0 35.137)"/><rect class="d" width="45.745" height="8.996" transform="translate(0 25.74)"/><path class="d" d="M144.476,242.522h35.76a4.311,4.311,0,0,0,2.26-.63l.111,0a3.666,3.666,0,0,1-.528-.423h.107c.068,0,.14-.006.207-.007a2.062,2.062,0,0,1-1.177-1.3c-.015-.05-.045-.09-.06-.14a2.925,2.925,0,0,1-.109-.783V237.36a2.925,2.925,0,0,1,.109-.787c.015-.051.047-.1.061-.146A2.916,2.916,0,0,1,181.4,236a3.291,3.291,0,0,1,.989-.869c-.067,0-.139-.007-.207-.007h-.105c.02-.018.044-.034.066-.054a3.7,3.7,0,0,1,.461-.367l-.117,0a4.264,4.264,0,0,0-2.254-.631,4.285,4.285,0,0,0,2.257-.631l.114,0a3.594,3.594,0,0,1-.434-.347c-.029-.028-.063-.05-.093-.077h.107c.068,0,.14,0,.207,0a3.287,3.287,0,0,1-.99-.872,3.04,3.04,0,0,1-.175-.4c-.019-.058-.054-.108-.071-.168a2.931,2.931,0,0,1-.109-.786V228.9a2.922,2.922,0,0,1,.109-.786c.02-.067.058-.128.083-.192a2.755,2.755,0,0,1,.163-.373,3.321,3.321,0,0,1,.99-.876h-.312c.039-.036.085-.07.127-.1a3.382,3.382,0,0,1,.4-.318c-.041,0-.077,0-.114,0a4.284,4.284,0,0,0-2.257-.631h-2.2a2.748,2.748,0,0,0,1.728-.631.841.841,0,0,1,.087,0,3.236,3.236,0,0,1-.309-.322c-.031-.035-.063-.064-.092-.1h.08c.051,0,.1,0,.157-.007a2.867,2.867,0,0,1-.754-.865,3.436,3.436,0,0,1-.137-.408c-.015-.057-.041-.106-.052-.163a3.654,3.654,0,0,1-.085-.786V220.45a3.672,3.672,0,0,1,.085-.789c0-.018.012-.032.016-.051a3.754,3.754,0,0,1,.173-.52,2.907,2.907,0,0,1,.754-.865c-.052,0-.106-.009-.157-.009h-.08c.038-.045.08-.085.12-.128a2.84,2.84,0,0,1,.281-.295c-.031,0-.058,0-.087,0a2.737,2.737,0,0,0-1.728-.631H150.73a3.132,3.132,0,0,0-2.95,3.291v1.878a3.133,3.133,0,0,0,2.95,3.288h-6.254a3.608,3.608,0,0,0-3.862,3.286v1.879a3.607,3.607,0,0,0,3.862,3.288,3.608,3.608,0,0,0-3.862,3.291v1.878A3.605,3.605,0,0,0,144.476,242.522Z" transform="translate(-138.737 -217.159)"/></g><g transform="translate(0 48.683)"><rect width="3.826" height="4.851" transform="translate(282.055 190.798)"/><path d="M305,344.809h4.09V343.04H306.5a1.649,1.649,0,0,1-1.651-1.648V320.846A1.65,1.65,0,0,1,306.5,319.2h2.594v-2.659H306.5a1.647,1.647,0,0,1-1.651-1.646v-5.831a1.648,1.648,0,0,1,1.651-1.648h2.594V305.36h5.939v2.053h2.6a1.647,1.647,0,0,1,1.648,1.648v5.831a1.646,1.646,0,0,1-1.648,1.646h-2.6V319.2h2.6a1.648,1.648,0,0,1,1.648,1.649v20.547a1.648,1.648,0,0,1-1.648,1.648h-2.6v1.769h4.088a2,2,0,0,1,2.092,1.894v23.588a2,2,0,0,1-2.092,1.893H305a2,2,0,0,1-2.091-1.893V346.7A2,2,0,0,1,305,344.809Z" transform="translate(-59.422 -116.326)"/><path d="M374.406,257.323s-6.047,24-2.867,39.6c0,0,6.42,25.316-11.538,35.031,0,0-11.629,4.123-23.623,1.767v-5.888s23.623.591,26.569-10.3c0,0,3.235-5.9,1.175-21.642,0,0-2.944-14.839-.882-20.295l8.3-19.294Z" transform="translate(-44.092 -138.799)"/><rect width="11.234" height="14.722" transform="translate(247.023 255.858)"/><g transform="translate(190.002 262.843)"><path class="e" d="M315.437,355.982l48.638,3.776s6.8,1.442,5.234,6.806h-58.1v-8.9Z" transform="translate(-245.624 -355.982)"/><path class="e" d="M321.794,355.982l-48.636,3.776s-6.806,1.442-5.234,6.806h58.1v-8.9Z" transform="translate(-265.558 -355.982)"/><path d="M345.671,367.865a3.01,3.01,0,0,0,3.008,3.008h6.545a3.01,3.01,0,0,0,3.009-3.008h0a3.009,3.009,0,0,0-3.009-3.009h-6.545a3.009,3.009,0,0,0-3.008,3.009Z" transform="translate(-229.837 -351.917)"/><path class="f" d="M353.862,365.021a3.008,3.008,0,0,1-1.178,5.777h-1.362a6.4,6.4,0,0,1-.1-1.11A4.9,4.9,0,0,1,353.862,365.021Z" transform="translate(-227.297 -351.842)"/><rect class="e" width="4.057" height="2.357" transform="translate(118.842 10.583)"/><path d="M318.677,376.449a3.009,3.009,0,0,0,3.011,3.009h6.544a3.008,3.008,0,0,0,3.009-3.009h0a3.01,3.01,0,0,0-3.009-3.008h-6.544a3.01,3.01,0,0,0-3.011,3.008Z" transform="translate(-242.202 -347.985)"/><path class="f" d="M326.868,373.605a3.009,3.009,0,0,1-1.178,5.778h-1.36a6.277,6.277,0,0,1-.1-1.111A4.908,4.908,0,0,1,326.868,373.605Z" transform="translate(-239.661 -347.91)"/><rect class="e" width="4.057" height="2.358" transform="translate(79.486 23.099)"/><path d="M266.227,367.865a3.009,3.009,0,0,0,3.009,3.008h6.542a3.009,3.009,0,0,0,3.011-3.008h0a3.009,3.009,0,0,0-3.011-3.009h-6.542a3.008,3.008,0,0,0-3.009,3.009Z" transform="translate(-266.227 -351.917)"/><path class="f" d="M274.415,365.021a3.008,3.008,0,0,1-1.177,5.777H271.88a6.13,6.13,0,0,1-.108-1.11A4.905,4.905,0,0,1,274.415,365.021Z" transform="translate(-263.687 -351.842)"/><rect class="e" width="4.057" height="2.357" transform="translate(3.009 10.583)"/><path class="e" d="M315.77,359.611c13.892,11.6,12.5,10.214,13.892,11.6l1.4,1.387s2.442,1.537,1.745,5.39h-6.981l-.7-1.543L306.72,364.9l1.424-5.291Z" transform="translate(-247.679 -354.32)"/></g><path d="M364.758,249.523a8.332,8.332,0,0,1,2.872,6.5c0,4.306-2.862,7.8-6.394,7.8a5.453,5.453,0,0,1-.744-.09Z" transform="translate(-33.046 -141.903)"/><path d="M325.727,312.036a2.138,2.138,0,0,0,2.139,2.139h9.253a2.139,2.139,0,0,0,2.14-2.139h0a2.138,2.138,0,0,0-2.14-2.139h-9.253a2.137,2.137,0,0,0-2.139,2.139Z" transform="translate(-48.971 -114.248)"/><path class="g" d="M273.165,302.339H382.15s2.238-.588,2.238,4.415c0,2.6-25.4,4.712-56.731,4.712s-56.73-2.11-56.73-4.712C270.927,301.751,273.165,302.339,273.165,302.339Z" transform="translate(-74.072 -117.72)"/><path d="M272.462,305.826c-.115-8.241,11.565-11.122,11.565-11.122h85.853s11.682,2.881,11.567,11.122A95.449,95.449,0,0,1,368.67,307.3c-13.2.717-33.162.97-41.716.97-8.156,0-26.354-.417-39.386-1.118C278.691,306.675,272.462,305.826,272.462,305.826Z" transform="translate(-73.37 -121.207)"/><path class="h" d="M279.176,230.461l-19.88.3-9.524,2.2-13.134,7.408s1.7,2.084,5-.073c0,0-.372,4.766,2.735.891l4.879-3.51,11.172-1.091,3.335-.051-4.351,1.907s-7.322,4.886-3.976,5.424c0,0,2.417.16,7.354-2.27l5.735-1.71s6.3.939,9.642,1.476Z" transform="translate(-89.779 -150.634)"/><path class="i" d="M365.532,191.551s-.194,10.989,1.865,12.755-17.664,8.833-27.085,9.422l-1.471-7.36-3.531-7.717-4.152-1.206,15.065-21.1,8.111-.631Z" transform="translate(-46.484 -175.712)"/><path class="j" d="M367.669,201.785s-22.071,22.349-31.841,38.1l-9.464,10.154L265.812,243.6l.494,13.239,54.107,15.076s16.9,6.22,26.516-9.527l24.761-45.713-1.446-14.887Z" transform="translate(-76.415 -163.769)"/><g transform="translate(81.34 245.139)"><path class="f" d="M215.567,353.091l6.3-9.251,16.37,6.19-.758,6.94-1.668,4.173h-10.29Z" transform="translate(-180.77 -343.84)"/><path d="M196.957,365.063s-7.232.84-4.728,6.125c0,0,20.865,6.4,35.049,1.388l7.229-2.792v3.071l16.135-1.391v-6.4s1.945-9.178-2.226-11.678c0,0-8.34,4.727-13.353,2.783l-10.011-7.789s-11.682,13.042-13.071,13.054C211.979,361.434,203.912,364.793,196.957,365.063Z" transform="translate(-191.702 -341.76)"/></g><path class="k" d="M338.407,202.577h-3.09l2.587-2.521Z" transform="translate(-44.578 -164.561)"/><path class="k" d="M270.2,228.835l1.66,19.151-6.211-2.443.074-15.121Z" transform="translate(-76.491 -151.379)"/><path class="l" d="M379.631,195.676s16.4,12.733,13.165,44.822l-11.774,34.738L361.5,318.215l-4.365,9.421-52.513-36.521a216.646,216.646,0,0,0,21.012-42.174c3.505-9.237,8.374-17.545,13.563-25.908,3.553-5.724,7.535-14.522,13.264-18.449Z" transform="translate(-58.636 -166.567)"/><path class="m" d="M358.386,297.205s1.533,7.541-4.763,7.96l-51.745-40.013s.588-5.126,4.007-3.966Z" transform="translate(-59.895 -136.639)"/><path class="n" d="M229.341,387.617s-9.2-.55-16.343-5.519c0,0,15.473-44.115,19.637-83.882,0,0,0-14.347,24.4-15.56l85.557-18.8,20.274,15.678-109.03,32.357Z" transform="translate(-100.607 -135.339)"/><g transform="translate(91.116 258.238)"><path class="f" d="M222.269,362.074l6.307-9.251,16.372,6.19-.76,6.941-1.67,4.171H232.227Z" transform="translate(-187.476 -352.823)"/><path d="M203.661,374.048s-7.232.841-4.727,6.125c0,0,20.86,6.4,35.044,1.387l7.232-2.791v3.068l16.135-1.39v-6.4s1.947-9.18-2.226-11.68c0,0-8.343,4.726-13.353,2.783l-10.012-7.787s-11.679,13.042-13.071,13.054C218.682,370.417,210.617,373.773,203.661,374.048Z" transform="translate(-198.406 -350.744)"/></g><path class="k" d="M363.535,193.928l-26.1,11.457.252,3.533,30.159-9.079Z" transform="translate(-43.608 -167.368)"/><path class="o" d="M222.229,369.521l17.255-67.295L235.168,337.9,225.113,370.04S223.852,369.776,222.229,369.521Z" transform="translate(-96.379 -117.762)"/><path class="p" d="M388.823,298.455s-10.918,13.262-40.748,12.869L277.816,313.9s-18.3,78.306-26.914,83.017l-29.02-4.317s16.873-53.607,18.638-81.279c0,0,2.934-21.934,25.455-23.7l90.22-14.4Z" transform="translate(-96.538 -131.046)"/><path class="q" d="M387.154,205.457s-20.462-3.237-26.569,23.257l-13.469,36.8c-.191.528-15.67-1.537-17.176-1.7a128.388,128.388,0,0,1-18.016-2.99,196.618,196.618,0,0,1-25.157-8.554l-3.238,13.245s20.9,13.838,33.56,17.664l25.5,8.537s9.531,4.711,16.448-3.826l34.935-43.275S408.055,215.761,387.154,205.457Z" transform="translate(-68.3 -162.144)"/><path class="e" d="M372.7,226.417s7.324,2.576.424,21.158l-11.315,37.717s-5.648,8.375-13.3,3.212Z" transform="translate(-38.538 -152.486)"/><g transform="translate(0 92.149)"><rect class="r" width="189.761" height="2.554" transform="translate(8.839 18.288)"/><path class="s" d="M168.141,238.912l144.693.135,32.221,13.713H135.916Z" transform="translate(-135.915 -238.912)"/><path class="t" d="M135.915,252.367c0,.389.448.7.991.7h207.16c.547,0,.987-.315.987-.7v-3.735c0-.389-.44-.706-.987-.706H136.906c-.544,0-.991.316-.991.706Z" transform="translate(-135.915 -234.783)"/><rect class="u" width="5.404" height="36.703" transform="translate(177.146 18.288)"/></g><g transform="translate(136.623 87.871)"><path class="v" d="M230.381,248.3h40.506v-3.473l-40.506-6.575Z" transform="translate(-229.268 -234.937)"/><path class="k" d="M231.428,236.9a.775.775,0,0,0,.618.9l4.921.916a.774.774,0,0,0,.9-.618l.052-.283a.773.773,0,0,0-.615-.9l-4.919-.917a.773.773,0,0,0-.9.62Z" transform="translate(-228.794 -235.978)"/><path class="k" d="M.53,0H1.3a.53.53,0,0,1,.53.53V6.02a.528.528,0,0,1-.528.528H.531A.531.531,0,0,1,0,6.018V.53A.53.53,0,0,1,.53,0Z" transform="translate(11.359 3.326) rotate(-79.442)"/><path class="k" d="M243.588,239.16a.774.774,0,0,0,.617.9l4.919.914a.771.771,0,0,0,.9-.617l.055-.284a.771.771,0,0,0-.621-.9l-4.918-.92a.771.771,0,0,0-.9.621Z" transform="translate(-223.224 -234.941)"/><path class="k" d="M249.668,240.293a.77.77,0,0,0,.617.9l4.915.917a.772.772,0,0,0,.9-.618l.052-.281a.769.769,0,0,0-.618-.9l-4.917-.92a.777.777,0,0,0-.9.62Z" transform="translate(-220.439 -234.422)"/><path class="k" d="M255.745,241.426a.773.773,0,0,0,.621.9l4.918.917a.771.771,0,0,0,.9-.617l.051-.284a.77.77,0,0,0-.617-.9l-4.917-.917a.774.774,0,0,0-.9.617Z" transform="translate(-217.655 -233.903)"/><path class="k" d="M229.63,240.531a.775.775,0,0,0,.621.9l45.65,8.5a.774.774,0,0,0,.9-.621l.544-2.91a.773.773,0,0,0-.615-.9L231.075,237a.771.771,0,0,0-.9.618Z" transform="translate(-229.617 -235.516)"/></g><path class="i" d="M300.678,241.077l-11.721-3.943s-12.95-6.324-15.6-5.443L260.4,233.755l-7.064,7.4s-2.355,6.431,0,6.729l8.831-6.179L271,238.76l-7.655,4.412s-9.422,7.656-6.477,7.949c0,0,2.944-.588,8.831-4.709l9.125-2.944-8.241,4.413s-9.126,5.595-2.944,5.595l7.36-2.942,5.6-2.652s3.527,2.652,11.769,2.358h3.237l6.477,1.766Z" transform="translate(-82.609 -150.109)"/><path class="k" d="M291.54,236.842l-2.4,18.694-5.875-4.457,3.511-13.659Z" transform="translate(-68.423 -147.711)"/></g><path class="w" d="M225.642,276.157H201.336V258.3H203.9a.812.812,0,0,0,.892-.685v-.1c1.579-.9,3.165-1.8,4.7-2.751a11.425,11.425,0,0,0,3.1-2.352,5.147,5.147,0,0,0,.889-1.238,6.627,6.627,0,0,0,.16-2.422V173.291c0-.662-.786-1.538-1.232-2.019a14.714,14.714,0,0,0-3.5-2.311c-1.047-.583-2.075-1.172-3.09-1.791-.341-.207-.688-.4-1.029-.609V166.4a.811.811,0,0,0-.892-.687h-5.609a.806.806,0,0,0-.888.687v25.983a2.384,2.384,0,0,0-2.47-2.286H194.5a2.383,2.383,0,0,0-2.47,2.286v39.434a2.38,2.38,0,0,0,2.47,2.283h.429a2.381,2.381,0,0,0,2.47-2.283v25.143c-3.477,2.1-3.93,8-3.93,8v11.2H177.027a.718.718,0,0,0-.739.688v2.572a.716.716,0,0,0,.739.684h48.614a.714.714,0,0,0,.741-.684v-2.572A.715.715,0,0,0,225.642,276.157Z" transform="translate(-117.422 -131.609)"/><g transform="translate(16.787 100.822)"><g transform="translate(0 28.853)"><g transform="translate(0 10.535)"><rect class="e" width="45.745" height="10.082"/><rect class="k" width="2.803" height="4.666" transform="translate(41.249 2.708)"/><g transform="translate(12.199 1.35)"><path class="k" d="M155.839,239.411h.889v3.111h.023a1.841,1.841,0,0,1,1.694-.9c1.242,0,2.105,1.021,2.105,2.52a2.361,2.361,0,0,1-2.241,2.646,1.81,1.81,0,0,1-1.672-.914h-.022l-.051.808h-.77c.022-.341.044-.847.044-1.283Zm.889,5.28a1.3,1.3,0,0,0,.041.33,1.385,1.385,0,0,0,1.357,1.051c.954,0,1.511-.765,1.511-1.9,0-1-.512-1.84-1.487-1.84a1.454,1.454,0,0,0-1.372,1.1,1.63,1.63,0,0,0-.05.382Z" transform="translate(-155.795 -239.411)"/><path class="k" d="M164.445,243.464a2.426,2.426,0,0,1-2.474,2.627,2.361,2.361,0,0,1-2.384-2.544,2.425,2.425,0,0,1,2.464-2.622A2.347,2.347,0,0,1,164.445,243.464Zm-3.932.048c0,1.088.615,1.907,1.5,1.907.862,0,1.512-.808,1.512-1.923,0-.84-.421-1.893-1.49-1.893S160.513,242.587,160.513,243.513Z" transform="translate(-154.058 -238.717)"/><path class="k" d="M168.317,243.464a2.426,2.426,0,0,1-2.474,2.627,2.362,2.362,0,0,1-2.385-2.544,2.426,2.426,0,0,1,2.466-2.622A2.348,2.348,0,0,1,168.317,243.464Zm-3.934.048c0,1.088.618,1.907,1.5,1.907.863,0,1.509-.808,1.509-1.923,0-.84-.417-1.893-1.487-1.893S164.383,242.587,164.383,243.513Z" transform="translate(-152.285 -238.717)"/><path class="k" d="M168.466,244h.022c.124-.176.287-.389.432-.566l1.47-1.707h1.079l-1.912,2.037,2.189,2.919h-1.11l-1.7-2.38-.465.509v1.871h-.891v-7.268h.891Z" transform="translate(-150.399 -239.411)"/></g><path class="k" d="M151.318,242.391a.786.786,0,1,1,.789-.787A.792.792,0,0,1,151.318,242.391Z" transform="translate(-146.008 -237.417)"/><path class="k" d="M150.654,242.69a.4.4,0,1,1,.4-.4A.4.4,0,0,1,150.654,242.69Z" transform="translate(-146.134 -236.923)"/><path class="k" d="M149.55,243.329a.4.4,0,1,1,0-.793.4.4,0,1,1,0,.793Z" transform="translate(-146.64 -236.63)"/><path class="k" d="M150.012,243.794a.4.4,0,0,1-.4-.4.4.4,0,0,1,.8,0A.4.4,0,0,1,150.012,243.794Z" transform="translate(-146.427 -236.42)"/><path class="k" d="M149.333,244.308a.583.583,0,1,1,.589-.582A.582.582,0,0,1,149.333,244.308Z" transform="translate(-146.824 -236.352)"/><path class="k" d="M150.38,241.343a.4.4,0,1,1,.4-.4A.4.4,0,0,1,150.38,241.343Z" transform="translate(-146.259 -237.542)"/></g><rect class="k" width="45.745" height="10.085"/><rect width="2.803" height="4.666" transform="translate(41.249 2.708)"/><rect width="1.002" height="4.666" transform="translate(3.118 2.708)"/><g transform="translate(12.199 1.356)"><path class="x" d="M155.839,232.19h.889V235.3h.023a1.835,1.835,0,0,1,1.694-.9,2.225,2.225,0,0,1,2.105,2.515,2.36,2.36,0,0,1-2.241,2.646,1.8,1.8,0,0,1-1.672-.917h-.022l-.051.808h-.77c.022-.337.044-.838.044-1.28Zm.889,5.278a1.3,1.3,0,0,0,.041.327,1.394,1.394,0,0,0,1.357,1.054c.954,0,1.511-.771,1.511-1.907,0-.992-.512-1.836-1.487-1.836a1.454,1.454,0,0,0-1.372,1.1,1.581,1.581,0,0,0-.05.378Z" transform="translate(-155.795 -232.19)"/><path class="x" d="M164.445,236.239a2.428,2.428,0,0,1-2.474,2.627,2.363,2.363,0,0,1-2.384-2.546,2.421,2.421,0,0,1,2.464-2.616A2.344,2.344,0,0,1,164.445,236.239Zm-3.932.05c0,1.088.615,1.906,1.5,1.906.862,0,1.512-.811,1.512-1.926,0-.835-.421-1.89-1.49-1.89S160.513,235.363,160.513,236.289Z" transform="translate(-154.058 -231.496)"/><path class="x" d="M168.317,236.239a2.428,2.428,0,0,1-2.474,2.627,2.364,2.364,0,0,1-2.385-2.546,2.422,2.422,0,0,1,2.466-2.616A2.345,2.345,0,0,1,168.317,236.239Zm-3.934.05c0,1.088.618,1.906,1.5,1.906.863,0,1.509-.811,1.509-1.926,0-.835-.417-1.89-1.487-1.89S164.383,235.363,164.383,236.289Z" transform="translate(-152.285 -231.496)"/><path class="x" d="M168.466,236.768h.022c.124-.172.287-.386.432-.558l1.47-1.712h1.079l-1.912,2.034,2.189,2.919h-1.11l-1.7-2.377-.465.515v1.862h-.891V232.19h.891Z" transform="translate(-150.399 -232.19)"/></g></g><g transform="translate(1.878)"><g transform="translate(0 9.48)"><path class="y" d="M189.148,223.763v-2.108a3.638,3.638,0,0,1,1.512-2.936,3.957,3.957,0,0,0-2.321-.745H152.577a3.772,3.772,0,0,0-3.861,3.682v2.108a3.772,3.772,0,0,0,3.861,3.686h35.762a3.967,3.967,0,0,0,2.321-.745A3.646,3.646,0,0,1,189.148,223.763Z" transform="translate(-148.716 -217.973)"/><path class="z" d="M188.47,223.542v-2.108a3.639,3.639,0,0,1,1.562-2.97c-.076-.006-.144-.009-.216-.009H154.057c-2.133,0-3.862,1.4-3.862,3.136v1.795c0,1.732,1.729,3.141,3.862,3.141h35.759c.071,0,.14-.006.216-.009A3.656,3.656,0,0,1,188.47,223.542Z" transform="translate(-148.039 -217.752)"/><path class="aa" d="M188.045,223.263V221.41a3.143,3.143,0,0,1,1.518-2.622l-.207,0H154.513c-2.079,0-3.766,1.238-3.766,2.76v1.583c0,1.525,1.687,2.763,3.766,2.763h34.843c.07,0,.141,0,.207-.007A3.132,3.132,0,0,1,188.045,223.263Z" transform="translate(-147.786 -217.601)"/></g><g transform="translate(7.166)"><path class="y" d="M184.513,217.264v-2.1a4.064,4.064,0,0,1,1.156-2.942,2.6,2.6,0,0,0-1.78-.747H156.579c-1.63,0-2.948,1.65-2.948,3.689v2.1c0,2.034,1.318,3.687,2.948,3.687h27.309a2.6,2.6,0,0,0,1.78-.748A4.06,4.06,0,0,1,184.513,217.264Z" transform="translate(-153.631 -211.471)"/><path class="ab" d="M183.995,217.043v-2.1a4.094,4.094,0,0,1,1.191-2.98c-.054,0-.111-.006-.162-.006H157.71a3.049,3.049,0,0,0-2.948,3.138v1.8a3.05,3.05,0,0,0,2.948,3.139h27.314c.051,0,.108-.009.162-.012A4.062,4.062,0,0,1,183.995,217.043Z" transform="translate(-153.113 -211.25)"/><path class="v" d="M183.667,216.765v-1.85a3.411,3.411,0,0,1,1.165-2.622c-.053,0-.108-.01-.159-.01H158.058a2.826,2.826,0,0,0-2.877,2.767v1.578a2.824,2.824,0,0,0,2.877,2.764h26.615a1.468,1.468,0,0,0,.159-.009A3.4,3.4,0,0,1,183.667,216.765Z" transform="translate(-152.921 -211.099)"/></g><g transform="translate(0 18.956)"><path class="m" d="M189.148,230.265v-2.105a3.634,3.634,0,0,1,1.512-2.941,3.948,3.948,0,0,0-2.321-.747H152.577a3.774,3.774,0,0,0-3.861,3.687v2.105a3.771,3.771,0,0,0,3.861,3.683h35.762a3.977,3.977,0,0,0,2.321-.744A3.646,3.646,0,0,1,189.148,230.265Z" transform="translate(-148.716 -224.472)"/><path class="ac" d="M188.47,230.045V227.94a3.648,3.648,0,0,1,1.562-2.976c-.076-.006-.144-.012-.216-.012H154.057c-2.133,0-3.862,1.409-3.862,3.144v1.792c0,1.735,1.729,3.139,3.862,3.139h35.759c.071,0,.14-.006.216-.012A3.645,3.645,0,0,1,188.47,230.045Z" transform="translate(-148.039 -224.252)"/><path class="aa" d="M188.045,229.763v-1.85a3.121,3.121,0,0,1,1.518-2.619,1.9,1.9,0,0,0-.207-.01H154.513c-2.079,0-3.766,1.238-3.766,2.767v1.575c0,1.528,1.687,2.764,3.766,2.764h34.843c.07,0,.141-.006.207-.009A3.125,3.125,0,0,1,188.045,229.763Z" transform="translate(-147.786 -224.1)"/></g></g></g><path class="ad" d="M0,19.9,171.392,37.994,163.059,0,4.776,11.9Z" transform="matrix(0.985, -0.174, 0.174, 0.985, 99.361, 63.056)"/><g transform="translate(70.679 24.907)"><path class="ae" d="M.508,0h49.08A.508.508,0,0,1,50.1.508V3.751a.509.509,0,0,1-.509.509H.507A.507.507,0,0,1,0,3.753V.508A.508.508,0,0,1,.508,0Z" transform="translate(0 119.324)"/><path class="ae" d="M204.039,228.049v19.894h-7.863V235.661s.453-6.382,3.931-8.643Z" transform="translate(-178.991 -128.435)"/><path class="k" d="M203.939,160.033c.343.222.688.436,1.029.66,1.016.666,2.044,1.3,3.09,1.932a14.726,14.726,0,0,1,3.495,2.5,4.409,4.409,0,0,1,1.233,2.183v81.526a7.717,7.717,0,0,1-.16,2.616,5.689,5.689,0,0,1-.889,1.338,11.646,11.646,0,0,1-3.1,2.54c-1.537,1.028-3.123,2-4.7,2.973Z" transform="translate(-175.435 -159.117)"/><path class="ac" d="M200.906,160.416c1.575,1.14,3.16,2.276,4.715,3.447.834.626,1.675,1.222,2.53,1.812a12.19,12.19,0,0,1,2.859,2.34,4.3,4.3,0,0,1,1.012,2.043v76.358a8.156,8.156,0,0,1-.134,2.451,5.393,5.393,0,0,1-.728,1.255,9.875,9.875,0,0,1-2.531,2.377c-1.805,1.385-3.7,2.642-5.533,3.988-.725.529-1.458,1.048-2.19,1.569Z" transform="translate(-176.824 -158.942)"/><path class="ae" d="M1.692,0H3.675A1.695,1.695,0,0,1,5.369,1.695V45.846a1.7,1.7,0,0,1-1.7,1.7H1.694A1.694,1.694,0,0,1,0,45.847V1.692A1.692,1.692,0,0,1,1.692,0Z" transform="translate(15.747 26.343)"/><path class="af" d="M197.244,225.013h-.213V177.472h.213a2.472,2.472,0,0,1,2.471,2.471v42.6A2.468,2.468,0,0,1,197.244,225.013Z" transform="translate(-178.599 -151.129)"/><path class="f" d="M207.61,165.379a3.62,3.62,0,0,1,.33.363,4.3,4.3,0,0,1,1.012,2.043v76.358a8.155,8.155,0,0,1-.134,2.451,5.392,5.392,0,0,1-.728,1.255,5.529,5.529,0,0,1-.48.615Z" transform="translate(-173.753 -156.669)"/><path class="ag" d="M198.872,258.69a.824.824,0,0,0,.887.741h5.611a.828.828,0,0,0,.891-.741V160.146a.826.826,0,0,0-.891-.741h-5.611a.822.822,0,0,0-.887.741Z" transform="translate(-177.756 -159.405)"/><path class="ah" d="M202.4,159.4h1.357a.826.826,0,0,1,.891.741V258.69a.828.828,0,0,1-.891.741H202.4Z" transform="translate(-176.141 -159.405)"/></g><text class="ai" transform="translate(188.832 72.441) rotate(-8)"><tspan x="0" y="0">IOT</tspan></text><text class="aj" transform="translate(125.977 87.002) rotate(3.118)"><tspan x="0" y="0">AWS</tspan></text><text class="ak" transform="translate(195.651 89.764) rotate(3.118)"><tspan x="0" y="0">CLOUD</tspan></text><path class="al" d="M0,8,177.96,19.435,168.243,2.477,4.954,0Z" transform="matrix(0.914, -0.407, 0.407, 0.914, 102.148, 72.383)"/><text class="am" transform="translate(135.216 64.934) rotate(-22)"><tspan x="0" y="0">golang</tspan></text><text class="an" transform="translate(196.136 43.831) rotate(-21.041)"><tspan x="0" y="0">Java</tspan></text><g transform="matrix(0.891, 0.454, -0.454, 0.891, 137.674, 30.261)"><path class="ao" d="M0,8,177.96,19.435,168.243,2.477,4.954,0Z" transform="matrix(0.914, -0.407, 0.407, 0.914, 0, 72.383)"/><text class="ap" transform="translate(22.324 68.412) rotate(-21)"><tspan x="0" y="0">Blockchain</tspan></text><text class="aq" transform="translate(76.252 50.498) rotate(-21)"><tspan x="0" y="0">K8s</tspan></text><text class="ar" transform="translate(103.3 40.56) rotate(-21.041)"><tspan x="0" y="0">AI/ML</tspan></text></g><line class="b" y1="10.065" x2="103.331" transform="translate(132.664 65.326)"/><g transform="translate(259.22 1.255)"><path class="as" d="M915.379,1347.516c-1.336-13.873,11.3-25.236,25.236-25.236s23.463,11.433,25.177,27.155c8.32,46.2-28.977,46.093-28.977,46.093C926.737,1397.457,917.74,1372.039,915.379,1347.516Z" transform="translate(-906.288 -1318.871)"/><path class="at" d="M890.518,1309.142c13.768-10.372,36.8-1.68,36.8-1.68,22.812-8.692,22.812,23.928,22.812,23.928-.332,12.876-6.722,25.424-6.722,25.424s-4.064-7.747-16.32-14.988c-9.915-5.858-6.08-14.809-6.08-14.809-9.841,0-33,8.979-36.3-.989C882.734,1320.066,882.122,1315.466,890.518,1309.142Z" transform="translate(-883.462 -1304.052)"/><path class="as" d="M938.264,1493.946c0,4.518,1.73,6.432,6.251,6.432s8.176-5.376,8.176-9.892-4.633-7.969-8.176-6.463C940.353,1485.785,938.264,1489.43,938.264,1493.946Z" transform="translate(-896.276 -1450.072)"/><path class="as" d="M1150.059,1529.465s-.779,13.247,1.021,17.047a12.283,12.283,0,0,0,4.465-.788Z" transform="translate(-1138.71 -1487.306)"/><path class="at" d="M1128.145,1496.528a1.563,1.563,0,1,0,1.565-1.562A1.564,1.564,0,0,0,1128.145,1496.528Z" transform="translate(-1110.369 -1459.26)"/><g transform="translate(15.395 30.564)"><path class="at" d="M1114.684,1470.175a.857.857,0,0,1-.43-1.6,8.582,8.582,0,0,1,7.237-.551.858.858,0,0,1-.668,1.58,6.833,6.833,0,0,0-5.706.453A.853.853,0,0,1,1114.684,1470.175Z" transform="translate(-1113.828 -1467.47)"/></g><path class="k" d="M1084.867,1601.785a28.833,28.833,0,0,1-11.633,6.815c-.1.028,3.054,7.573,7.225,6.633C1089.375,1613.5,1085.252,1601.513,1084.867,1601.785Z" transform="translate(-1054.979 -1546.097)"/></g></g></svg>