<svg xmlns="http://www.w3.org/2000/svg" width="52" height="52" viewBox="0 0 52 52">
  <g id="Group_19688" data-name="Group 19688" transform="translate(-35 -24)">
    <circle id="Ellipse_1356" data-name="Ellipse 1356" cx="26" cy="26" r="26" transform="translate(35 24)" fill="#fff"/>
    <g id="Group_19686" data-name="Group 19686" transform="translate(1.552 2.18)">
      <path id="Path_76862" data-name="Path 76862" d="M28.924,20.515l-7.933-12.5A8.691,8.691,0,0,0,5.7,9.177l3.659.382a5.3,5.3,0,0,1,4.287-2.2,5.385,5.385,0,0,1,1.17.13,5.281,5.281,0,0,1,3.326,2.339l7.931,12.5a5.251,5.251,0,0,1-.314,6.109l1.363,3.424a8.671,8.671,0,0,0,1.8-11.342" transform="translate(41.476 28.83)" fill="#343334"/>
      <path id="Path_76863" data-name="Path 76863" d="M24.168,26.449a5.3,5.3,0,0,1-6.724-1.944l-2.52-3.969L20.671,16.8,18.854,14l-5.718,3.714L9.513,12.009a5.254,5.254,0,0,1-.739-3.685L5.4,7.972a8.635,8.635,0,0,0,1.265,5.846l7.933,12.5a8.687,8.687,0,0,0,10.83,3.294Z" transform="translate(41.135 32.341)" fill="#f20085"/>
    </g>
  </g>
</svg>
