<?xml version="1.0" encoding="UTF-8"?>
<svg id="Layer_1" data-name="Layer 1" xmlns="http://www.w3.org/2000/svg" viewBox="0 0 417.24 296.1">
  <defs>
    <style>
      .cls-1 {
        fill: #f5916e;
      }

      .cls-2 {
        fill: #f9b09f;
      }

      .cls-3 {
        fill: #00d1d2;
      }

      .cls-4 {
        fill: #fdc957;
      }

      .cls-5 {
        fill: #e7f0fe;
      }

      .cls-6 {
        fill: #e9b2ab;
      }

      .cls-7 {
        fill: #fff;
      }

      .cls-8 {
        fill: #fffefb;
      }

      .cls-9 {
        fill: #f2beb7;
      }

      .cls-10 {
        fill: #f1f2f2;
      }

      .cls-11 {
        fill: #ffa686;
      }

      .cls-12 {
        fill: #e6d7e2;
      }

      .cls-13 {
        fill: #6b7b9b;
      }

      .cls-14 {
        fill: #c4003b;
      }

      .cls-15 {
        fill: #bfd5f7;
      }

      .cls-16 {
        fill: #b0bbd9;
      }

      .cls-17 {
        fill: #b2b2b2;
      }

      .cls-18 {
        fill: #d53031;
      }

      .cls-19 {
        fill: #dadbdb;
      }

      .cls-20 {
        fill: #c5dcfd;
      }

      .cls-21 {
        fill: #c7d5e4;
      }

      .cls-22 {
        fill: #e0c5da;
      }

      .cls-23 {
        fill: #e30045;
      }

      .cls-24 {
        fill: #212121;
      }

      .cls-25 {
        fill: #090909;
      }

      .cls-26 {
        fill: #151515;
      }

      .cls-27 {
        fill: #0f0f0f;
      }

      .cls-28 {
        fill: #0a0a0a;
      }

      .cls-29 {
        fill: #2b2b2b;
      }

      .cls-30 {
        fill: #4a5874;
      }

      .cls-31 {
        isolation: isolate;
      }
    </style>
  </defs>
  <g id="Group_5619" data-name="Group 5619">
    <g id="Path_31667" data-name="Path 31667">
      <path class="cls-10" d="m375.1,296.1H3.43c-1.85.05-3.39-1.42-3.43-3.27s1.42-3.39,3.27-3.43c.05,0,.11,0,.16,0h371.67c1.85-.05,3.39,1.42,3.43,3.27s-1.42,3.39-3.27,3.43c-.05,0-.11,0-.16,0Z"/>
    </g>
    <g id="Group_5576" data-name="Group 5576">
      <g id="Path_31668" data-name="Path 31668">
        <path class="cls-10" d="m69.65,284.43v-86.92c-.06-6.07,3.6-11.55,9.23-13.81,1.84-.77,3.81-1.17,5.81-1.17,3.94.01,7.72,1.6,10.49,4.41l8.36,8.36-4.39,4.39-8.36-8.36c-1.61-1.65-3.82-2.58-6.12-2.59-1.17,0-2.33.24-3.41.69-3.29,1.32-5.44,4.53-5.4,8.08v86.92h-6.2Z"/>
      </g>
      <g id="Path_31669" data-name="Path 31669">
        <path class="cls-21" d="m54.56,289.39h36.38c0-3.5-2.84-6.34-6.33-6.34h-23.71c-3.5,0-6.34,2.84-6.34,6.34h0Z"/>
      </g>
      <g id="Group_5575-2" data-name="Group 5575-2">
        <g id="Path_31670" data-name="Path 31670">
          <path class="cls-21" d="m102.64,227.76c-5.53-5.53-3.27-16.74,5.04-25.06s19.53-10.57,25.05-5.04l-30.09,30.09Z"/>
        </g>
        <g id="Path_31671" data-name="Path 31671">
          <path class="cls-21" d="m119.21,196.19l-18.83,18.83-6.84-13.46c-2.27-4.47-.49-9.94,3.98-12.21,2.59-1.31,5.65-1.31,8.23,0l13.46,6.84Z"/>
        </g>
        <g id="Path_31672" data-name="Path 31672">
          <path class="cls-10" d="m132.73,197.67c2.76,2.76-1.73,11.74-10.04,20.05s-17.29,12.81-20.05,10.04,1.73-11.74,10.04-20.05,17.28-12.8,20.05-10.04Z"/>
        </g>
        <g id="Path_31673" data-name="Path 31673">
          <path class="cls-7" d="m108.31,214.31c.07.08.14.15.21.22,3.03,3.03,7.95,3.03,10.98,0s3.03-7.95,0-10.98h0c-.07-.07-.15-.14-.22-.21-4.22,3.05-7.92,6.76-10.97,10.97h0Z"/>
        </g>
      </g>
    </g>
    <g id="Group_5596" data-name="Group 5596">
      <g id="Group_5583" data-name="Group 5583">
        <g id="Path_31674" data-name="Path 31674">
          <path class="cls-16" d="m285.23,274.41h54.18v2.05h-2.61v10.87h2.61v2.05h-54.18c-4.14,0-7.49-3.35-7.49-7.49s3.35-7.49,7.49-7.49h0Z"/>
        </g>
        <g id="Path_31675" data-name="Path 31675">
          <path class="cls-10" d="m337.36,287.34v-10.87h-52.12c-3,0-5.43,2.44-5.43,5.44,0,3,2.43,5.43,5.43,5.43h52.12Z"/>
        </g>
        <g id="Group_5582" data-name="Group 5582">
          <g id="Group_5577" data-name="Group 5577">
            <g id="Rectangle_4160" data-name="Rectangle 4160">
              <rect class="cls-19" x="284.51" y="277.9" width="52.85" height=".69"/>
            </g>
          </g>
          <g id="Group_5578" data-name="Group 5578">
            <g id="Rectangle_4161" data-name="Rectangle 4161">
              <rect class="cls-19" x="284.51" y="279.73" width="52.85" height=".69"/>
            </g>
          </g>
          <g id="Group_5579" data-name="Group 5579">
            <g id="Rectangle_4162" data-name="Rectangle 4162">
              <rect class="cls-19" x="284.51" y="281.56" width="52.85" height=".69"/>
            </g>
          </g>
          <g id="Group_5580" data-name="Group 5580">
            <g id="Rectangle_4163" data-name="Rectangle 4163">
              <rect class="cls-19" x="284.51" y="283.39" width="52.85" height=".69"/>
            </g>
          </g>
          <g id="Group_5581" data-name="Group 5581">
            <g id="Rectangle_4164" data-name="Rectangle 4164">
              <rect class="cls-19" x="284.51" y="285.22" width="52.85" height=".69"/>
            </g>
          </g>
        </g>
      </g>
      <g id="Group_5589" data-name="Group 5589">
        <g id="Path_31676" data-name="Path 31676">
          <path class="cls-2" d="m280.23,272.36v-8.09h-3.17v-2.05h49.81c3.37,0,6.1,2.73,6.1,6.1s-2.73,6.1-6.1,6.1h-49.81v-2.05h3.17Z"/>
        </g>
        <g id="Path_31677" data-name="Path 31677">
          <path class="cls-10" d="m326.87,272.36c2.23,0,4.05-1.81,4.05-4.05s-1.81-4.05-4.05-4.05h-47.76v8.09h47.76Z"/>
        </g>
        <g id="Group_5588" data-name="Group 5588">
          <g id="Group_5584" data-name="Group 5584">
            <g id="Rectangle_4165" data-name="Rectangle 4165">
              <rect class="cls-19" x="279.11" y="265.52" width="48.49" height=".69"/>
            </g>
          </g>
          <g id="Group_5585" data-name="Group 5585">
            <g id="Rectangle_4166" data-name="Rectangle 4166">
              <rect class="cls-19" x="279.11" y="267.15" width="48.49" height=".69"/>
            </g>
          </g>
          <g id="Group_5586" data-name="Group 5586">
            <g id="Rectangle_4167" data-name="Rectangle 4167">
              <rect class="cls-19" x="279.11" y="268.78" width="48.49" height=".69"/>
            </g>
          </g>
          <g id="Group_5587" data-name="Group 5587">
            <g id="Rectangle_4168" data-name="Rectangle 4168">
              <rect class="cls-19" x="279.11" y="270.41" width="48.49" height=".69"/>
            </g>
          </g>
        </g>
      </g>
      <g id="Group_5595" data-name="Group 5595">
        <g id="Path_31678" data-name="Path 31678">
          <path class="cls-3" d="m333.53,260.15v-8.09h3.17v-2.06h-42.96c-3.37,0-6.1,2.73-6.1,6.1s2.73,6.1,6.1,6.1h42.96v-2.05h-3.18Z"/>
        </g>
        <g id="Path_31679" data-name="Path 31679">
          <path class="cls-10" d="m293.75,260.15c-2.23,0-4.05-1.81-4.05-4.05s1.81-4.05,4.05-4.05h40.9v8.09h-40.9Z"/>
        </g>
        <g id="Group_5594" data-name="Group 5594">
          <g id="Group_5590" data-name="Group 5590">
            <g id="Rectangle_4169" data-name="Rectangle 4169">
              <rect class="cls-19" x="293.01" y="253.32" width="41.64" height=".69"/>
            </g>
          </g>
          <g id="Group_5591" data-name="Group 5591">
            <g id="Rectangle_4170" data-name="Rectangle 4170">
              <rect class="cls-19" x="293.01" y="254.95" width="41.64" height=".69"/>
            </g>
          </g>
          <g id="Group_5592" data-name="Group 5592">
            <g id="Rectangle_4171" data-name="Rectangle 4171">
              <rect class="cls-19" x="293.01" y="256.58" width="41.64" height=".69"/>
            </g>
          </g>
          <g id="Group_5593" data-name="Group 5593">
            <g id="Rectangle_4172" data-name="Rectangle 4172">
              <rect class="cls-19" x="293.01" y="258.21" width="41.64" height=".69"/>
            </g>
          </g>
        </g>
      </g>
    </g>
    <g id="Group_5598" data-name="Group 5598">
      <g id="Path_31680" data-name="Path 31680">
        <path class="cls-22" d="m111.02,289.4h-11.83l-2.14-18.98h16.11l-2.14,18.98Z"/>
      </g>
      <g id="Group_5597" data-name="Group 5597">
        <g id="Path_31681" data-name="Path 31681">
          <path class="cls-12" d="m115.47,285.74h-5.3v-.99h5.3c2.65,0,4.8-2.15,4.8-4.8s-2.15-4.8-4.8-4.8h-5.3v-.99h5.3c3.2.11,5.71,2.8,5.59,6-.11,3.04-2.55,5.49-5.59,5.59h0Z"/>
        </g>
      </g>
      <g id="Path_31682" data-name="Path 31682">
        <path class="cls-12" d="m105.11,270.41v18.98h5.91l2.14-18.98h-8.06Z"/>
      </g>
    </g>
    <g id="Group_5618" data-name="Group 5618">
      <g id="Group_5616" data-name="Group 5616">
        <g id="Group_5601" data-name="Group 5601">
          <g id="Group_5599" data-name="Group 5599">
            <g id="Path_31683" data-name="Path 31683">
              <path class="cls-6" d="m129.05,274.3c-2.42,5.18-.19,11.35,4.99,13.77,1.42.67,2.98,1,4.55.97h17.7l-5.74-59.84-21.51,45.1Z"/>
            </g>
            <g id="Path_31684" data-name="Path 31684">
              <path class="cls-14" d="m150.42,229.21l-8.68,18.56,10.92,5.21-2.24-23.77Z"/>
            </g>
            <g id="Path_31685" data-name="Path 31685">
              <path class="cls-23" d="m135.38,246.59l-2.39,5.12c-.56,1.2-.06,2.62,1.12,3.21l17.48,8.67-1.18-12.54-11.77-5.62c-1.21-.58-2.67-.06-3.24,1.15,0,0,0,.01,0,.02Z"/>
            </g>
          </g>
          <g id="Group_5600" data-name="Group 5600">
            <g id="Path_31686" data-name="Path 31686">
              <path class="cls-6" d="m229.11,230.21l-5.74,58.84h17.7c7.73,0,12.84-7.75,9.55-14.5l-21.51-44.34Z"/>
            </g>
            <g id="Path_31687" data-name="Path 31687">
              <path class="cls-14" d="m229.18,230.21l8.68,18.56-10.92,5.21,2.24-23.77Z"/>
            </g>
            <g id="Path_31688" data-name="Path 31688">
              <path class="cls-23" d="m243.15,246.26l2.39,5.12c.56,1.2.06,2.62-1.12,3.21l-17.48,8.67,1.18-12.54,11.77-5.62c1.21-.58,2.66-.06,3.24,1.15,0,0,0,.01,0,.02Z"/>
            </g>
          </g>
        </g>
        <g id="Rectangle_4173" data-name="Rectangle 4173">
          <path class="cls-23" d="m164.02,221.4h50.49c9.13,0,16.53,7.4,16.53,16.53v51.31h-83.56v-51.31c0-9.13,7.4-16.53,16.53-16.53h0Z"/>
        </g>
        <g id="Path_31689" data-name="Path 31689">
          <path class="cls-24" d="m156.8,221.59v22.69l-9.31,16.16v28.8h40.18l-20.55-67.84h-8.3c-.68,0-1.35.07-2.02.19Zm64.94,22.69v-22.69c-.67-.12-1.34-.19-2.02-.19h-8.29l-20.56,67.84h40.17v-28.8l-9.3-16.16Z"/>
        </g>
        <g id="Group_5612" data-name="Group 5612">
          <g id="Rectangle_4174" data-name="Rectangle 4174">
            <rect class="cls-6" x="179.72" y="206.75" width="19.08" height="14.66"/>
          </g>
          <g id="Path_31690" data-name="Path 31690">
            <path class="cls-9" d="m201.27,168.67c6.49,2.57,10.1,9.53,8.44,16.31l-4.35,17.82c-1.22,5-5.09,8.93-10.07,10.22l-2.65.68c-2.33.6-4.77.6-7.09-.02l-2.37-.63c-4.95-1.31-8.78-5.23-9.99-10.2l-4.36-17.88c-1.65-6.78,1.95-13.74,8.44-16.31h24Z"/>
          </g>
          <g id="Group_5607" data-name="Group 5607">
            <g id="Group_5604" data-name="Group 5604">
              <g id="Group_5602" data-name="Group 5602">
                <g id="Path_31691" data-name="Path 31691">
                  <path d="m201.54,183.89h-5.05c-.78,0-1.41-.63-1.41-1.41,0-.78.63-1.4,1.41-1.41h5.05c.78,0,1.41.63,1.41,1.41,0,.78-.63,1.4-1.41,1.41h0Z"/>
                </g>
                <g id="Path_32121" data-name="Path 32121">
                  <path class="cls-28" d="m197.21,186.96c1.18,0,2.14.96,2.14,2.14s-.96,2.14-2.14,2.14-2.14-.96-2.14-2.14c0-1.18.96-2.14,2.14-2.14h0Z"/>
                </g>
                <g id="Path_31692" data-name="Path 31692">
                  <path class="cls-8" d="m198.25,189.89c0,.59-.47,1.06-1.06,1.06s-1.06-.47-1.06-1.06.47-1.06,1.06-1.06h0c.59,0,1.06.47,1.06,1.06Z"/>
                </g>
              </g>
              <g id="Group_5603" data-name="Group 5603">
                <g id="Path_31693" data-name="Path 31693">
                  <path class="cls-25" d="m182.04,183.89h-5.05c-.78,0-1.41-.63-1.41-1.41,0-.78.63-1.41,1.41-1.41h5.06c.78,0,1.41.63,1.41,1.41,0,.78-.63,1.41-1.41,1.41h0Z"/>
                </g>
                <g id="Ellipse_1119" data-name="Ellipse 1119">
                  <circle cx="181.33" cy="189.1" r="2.14"/>
                </g>
                <g id="Path_31694" data-name="Path 31694">
                  <path class="cls-8" d="m182.28,189.89c0,.59-.47,1.06-1.06,1.06s-1.06-.47-1.06-1.06.47-1.06,1.06-1.06h0c.58,0,1.06.47,1.06,1.06h0Z"/>
                </g>
              </g>
            </g>
            <g id="Group_5605" data-name="Group 5605">
              <g id="Path_31695" data-name="Path 31695">
                <path class="cls-6" d="m192.24,198.36h-3.75c-.6,0-1.09-.49-1.09-1.09s.49-1.09,1.09-1.09h2.42l-2.18-10.84c-.12-.59.26-1.16.85-1.28s1.16.26,1.28.85h0l2.45,12.14c.12.59-.27,1.16-.86,1.28-.07.01-.14.02-.21.02h0Z"/>
              </g>
            </g>
            <g id="Group_5606" data-name="Group 5606">
              <g id="Path_31696" data-name="Path 31696">
                <path class="cls-18" d="m190.64,206.3h-2.75c-2.33,0-4.22-1.89-4.22-4.22h11.2c0,2.33-1.89,4.22-4.22,4.22h0Z"/>
              </g>
              <g id="Path_31697" data-name="Path 31697">
                <path class="cls-8" d="m193.35,202.08h-9.68c0,.74.2,1.47.57,2.11h8.43l.68-2.11Z"/>
              </g>
            </g>
          </g>
          <g id="Group_5610" data-name="Group 5610">
            <g id="Group_5608" data-name="Group 5608">
              <g id="Path_31698" data-name="Path 31698">
                <path class="cls-6" d="m172.77,196.03h-1.22c-2.25-.04-4.11-1.76-4.32-4l-.11-1.39c-.2-2,1.25-3.78,3.25-3.98.14-.01.28-.02.42-.02.69,0,1.26.53,1.32,1.22l.66,8.17Z"/>
              </g>
              <g id="Path_31699" data-name="Path 31699">
                <path class="cls-6" d="m171.23,194.5h-.54c-.99-.02-1.81-.78-1.9-1.76l-.05-.61c-.09-.88.55-1.66,1.43-1.75.06,0,.13,0,.19,0h.54l.33,4.13Z"/>
              </g>
            </g>
            <g id="Group_5609" data-name="Group 5609">
              <g id="Path_31700" data-name="Path 31700">
                <path class="cls-6" d="m205.76,196.03h1.22c2.25-.04,4.11-1.76,4.32-4l.11-1.39c.2-2-1.25-3.78-3.25-3.98-.14-.01-.28-.02-.42-.02-.69,0-1.26.53-1.32,1.22l-.66,8.17Z"/>
              </g>
              <g id="Path_31701" data-name="Path 31701">
                <path class="cls-6" d="m207.3,194.5h.54c.99-.02,1.81-.78,1.9-1.76l.05-.61c.09-.88-.55-1.66-1.43-1.75-.06,0-.13,0-.19,0h-.54l-.33,4.13Z"/>
              </g>
            </g>
          </g>
          <g id="Group_5611" data-name="Group 5611">
            <g id="Path_31702" data-name="Path 31702">
              <path class="cls-29" d="m198.74,155.14c-6.92,0-9.67,2.77-11.06,5.85-3.22,7.17.48,11.57,3.26,15.92,1.24,1.94,1.06,5.74-1.46,8.12,3.14.27,6.13-1.39,7.57-4.19-.19,1.14-.57,2.24-1.1,3.26,4.47-1.45,5.11-5.4,3.99-9.86h.05c2.12,1.82,3.47,4.36,3.79,7.12.62-.95,1.09-2,1.38-3.09,2.55,4.08,3.28,10.7,1.15,18.11,14.03-17.98,8.78-41.24-7.58-41.24Z"/>
            </g>
            <g id="Path_31703" data-name="Path 31703">
              <path class="cls-29" d="m178.59,174.25c-.88,1.95-1.72,4.55-3.21,7.32,4.25-.99,7.25-2.47,8.74-5.72-.46,2.32-1.74,4.4-3.61,5.85,3.72-.24,6.04-1.87,6.98-4.24.1,2.12.19,3.26.31,5.2,4.55-6.23,6.28-14.49,3.06-21.66-1.39-3.09-4.14-5.85-11.06-5.85-16.36,0-21.6,23.27-7.58,41.24-3.22-11.22.11-20.62,6.37-22.14Z"/>
            </g>
            <g id="Path_31704" data-name="Path 31704">
              <path class="cls-27" d="m186.06,152.67c1.4,1.88,2.59,3.91,3.53,6.06,1.31-4.54-1.3-9.29-5.84-10.6-.88-.26-1.8-.37-2.72-.33,1.86,1.43,3.55,3.06,5.04,4.87Z"/>
            </g>
            <g id="Path_31705" data-name="Path 31705">
              <path class="cls-29" d="m189.04,152.59c.43,2.02.62,4.08.55,6.14,1.11-1.93,1.62-4.14,1.47-6.36-.03-1.88-1.17-3.56-2.89-4.3-.09.96.41,2.38.87,4.52Z"/>
            </g>
          </g>
        </g>
        <g id="Path_31706" data-name="Path 31706">
          <path class="cls-9" d="m168.7,221.4c6.05,11.36,20.17,15.66,31.53,9.61,4.09-2.18,7.43-5.52,9.61-9.61l-21.81-2.74-19.33,2.74Z"/>
        </g>
        <g id="Group_5615" data-name="Group 5615">
          <g id="Group_5613" data-name="Group 5613">
            <g id="Path_31707" data-name="Path 31707">
              <path class="cls-9" d="m218.12,278.99v10.25h26.04c4.68,0,8.47-3.8,8.47-8.47s-3.8-8.47-8.47-8.47c-.74,0-1.48.1-2.2.29l-23.84,6.4Z"/>
            </g>
            <g id="Path_31708" data-name="Path 31708">
              <path class="cls-1" d="m220.99,278.55v7.85h-6.18c-4.33,0-7.85-3.51-7.85-7.85h14.03Z"/>
            </g>
            <g id="Path_31709" data-name="Path 31709">
              <path class="cls-1" d="m215.38,278.55h-5.54c-1.2,0-2.35.48-3.2,1.33l-7.7,7.68c2.24,2.24,5.86,2.24,8.1,0l3.29-3.29h5.06v-5.73Z"/>
            </g>
            <g id="Path_31710" data-name="Path 31710">
              <path class="cls-6" d="m230.05,283.9c0,2.95-2.39,5.35-5.35,5.35h-8.6v-10.69h8.6c2.95,0,5.35,2.39,5.35,5.35h0Z"/>
            </g>
            <g id="Path_31711" data-name="Path 31711">
              <path class="cls-11" d="m208.54,282.92l3.63-3.63c1.1-1.13,1.08-2.95-.05-4.05-1.11-1.08-2.89-1.08-4,0l-3.63,3.63c-1.13,1.1-1.16,2.92-.05,4.05s2.92,1.16,4.05.05c.02-.02.03-.03.05-.05Z"/>
            </g>
            <g id="Path_31712" data-name="Path 31712">
              <path class="cls-11" d="m213.7,288.4l3.63-3.63c1.13-1.1,1.16-2.92.05-4.05s-2.92-1.16-4.05-.05c-.02.02-.03.03-.05.05l-3.63,3.63c-1.1,1.13-1.08,2.95.05,4.05,1.11,1.08,2.89,1.08,4,0Z"/>
            </g>
            <g id="Path_31713" data-name="Path 31713">
              <path class="cls-11" d="m218.17,288.4l3.63-3.63c1.13-1.1,1.16-2.92.05-4.05s-2.92-1.16-4.05-.05c-.02.02-.03.03-.05.05l-3.63,3.63c-1.1,1.13-1.08,2.95.05,4.05,1.11,1.08,2.89,1.08,4,0Z"/>
            </g>
            <g id="Path_31714" data-name="Path 31714">
              <path class="cls-9" d="m222.64,288.4l3.63-3.63c1.13-1.1,1.16-2.92.05-4.05s-2.92-1.16-4.05-.05c-.02.02-.03.03-.05.05l-3.63,3.63c-1.1,1.13-1.08,2.95.05,4.05,1.11,1.08,2.89,1.08,4,0Z"/>
            </g>
          </g>
          <g id="Group_5614" data-name="Group 5614">
            <g id="Path_31715" data-name="Path 31715">
              <path class="cls-9" d="m160.41,278.99v10.25h-26.04c-4.68,0-8.47-3.8-8.47-8.47s3.8-8.47,8.47-8.47c.74,0,1.48.1,2.2.29l23.84,6.4Z"/>
            </g>
            <g id="Path_31716" data-name="Path 31716">
              <path class="cls-1" d="m157.54,278.55v7.85h6.18c4.33,0,7.85-3.51,7.85-7.85h-14.03Z"/>
            </g>
            <g id="Path_31717" data-name="Path 31717">
              <path class="cls-1" d="m163.15,278.55h5.54c1.2,0,2.35.48,3.2,1.33l7.7,7.68c-2.24,2.24-5.86,2.24-8.1,0l-3.29-3.29h-5.06v-5.73Z"/>
            </g>
            <g id="Path_31718" data-name="Path 31718">
              <path class="cls-6" d="m148.49,283.9c0,2.95,2.39,5.35,5.35,5.35h8.6v-10.69h-8.6c-2.95,0-5.35,2.39-5.35,5.35h0Z"/>
            </g>
            <g id="Path_31719" data-name="Path 31719">
              <path class="cls-11" d="m169.99,282.92l-3.63-3.63c-1.1-1.13-1.08-2.95.05-4.05,1.11-1.08,2.89-1.08,4,0l3.63,3.63c1.13,1.1,1.16,2.92.05,4.05s-2.92,1.16-4.05.05c-.02-.02-.03-.03-.05-.05Z"/>
            </g>
            <g id="Path_31720" data-name="Path 31720">
              <path class="cls-11" d="m164.83,288.4l-3.63-3.63c-1.1-1.13-1.08-2.95.05-4.05,1.11-1.08,2.89-1.08,4,0l3.63,3.63c1.13,1.1,1.16,2.92.05,4.05s-2.92,1.16-4.05.05c-.02-.02-.03-.03-.05-.05Z"/>
            </g>
            <g id="Path_31721" data-name="Path 31721">
              <path class="cls-11" d="m160.36,288.4l-3.63-3.63c-1.1-1.13-1.08-2.95.05-4.05,1.11-1.08,2.89-1.08,4,0l3.63,3.63c1.1,1.13,1.08,2.95-.05,4.05-1.11,1.08-2.89,1.08-4,0Z"/>
            </g>
            <g id="Path_31722" data-name="Path 31722">
              <path class="cls-9" d="m155.89,288.4l-3.63-3.63c-1.1-1.13-1.08-2.95.05-4.05,1.11-1.08,2.89-1.08,4,0l3.63,3.63c1.13,1.1,1.16,2.92.05,4.05s-2.92,1.16-4.05.05c-.02-.02-.03-.03-.05-.05Z"/>
            </g>
          </g>
        </g>
      </g>
      <g id="Group_5617" data-name="Group 5617">
        <g id="Path_31723" data-name="Path 31723">
          <path class="cls-20" d="m219.67,289.24h-60.81c-1.63,0-3-1.22-3.19-2.85l-4.42-38.87c-.2-1.76,1.07-3.35,2.83-3.55.12-.01.24-.02.36-.02h69.64c1.77,0,3.21,1.44,3.21,3.21,0,.12,0,.24-.02.36l-4.42,38.87c-.19,1.62-1.56,2.84-3.19,2.84Z"/>
        </g>
        <g id="Ellipse_1120" data-name="Ellipse 1120">
          <ellipse class="cls-7" cx="189.27" cy="266.6" rx="6.78" ry="6.11"/>
        </g>
      </g>
    </g>
  </g>
  <g id="Group_5621" data-name="Group 5621">
    <g id="Rectangle_4175" data-name="Rectangle 4175">
      <rect class="cls-13" x="309.68" y="65.04" width="40.02" height="40.02" rx="9.97" ry="9.97"/>
    </g>
    <g id="IOT" class="cls-31">
      <g class="cls-31">
        <path class="cls-7" d="m320.36,89.72v-9.8h2.3v9.8h-2.3Z"/>
        <path class="cls-7" d="m324.24,84.81c0-.67.12-1.32.35-1.94.23-.62.57-1.17,1.02-1.65.45-.48.99-.86,1.64-1.14s1.37-.42,2.18-.42,1.53.14,2.17.42,1.18.66,1.63,1.14c.45.48.79,1.03,1.02,1.65.23.62.35,1.27.35,1.94s-.12,1.32-.35,1.94c-.23.62-.57,1.17-1.02,1.65-.45.48-.99.86-1.63,1.14-.64.28-1.36.43-2.17.43s-1.54-.14-2.18-.43c-.64-.29-1.19-.67-1.64-1.14-.45-.48-.79-1.02-1.02-1.64s-.35-1.27-.35-1.94Zm2.32,0c0,.4.07.79.2,1.16s.32.71.56,1c.25.29.55.52.9.69s.76.26,1.2.26.85-.09,1.2-.26.66-.4.91-.69c.25-.29.44-.62.57-1s.19-.76.19-1.16-.06-.79-.19-1.16-.32-.71-.57-1c-.25-.29-.55-.52-.9-.69-.35-.17-.76-.26-1.21-.26s-.85.08-1.2.26c-.36.17-.66.4-.9.69-.25.29-.43.62-.56,1s-.2.76-.2,1.16Z"/>
        <path class="cls-7" d="m334.84,81.88v-1.96h6.71v1.96h-2.23v7.84h-2.27v-7.84h-2.21Z"/>
      </g>
    </g>
  </g>
  <g id="Group_5623" data-name="Group 5623">
    <g id="Rectangle_4176" data-name="Rectangle 4176">
      <rect class="cls-23" x="254.82" y="172.27" width="66.21" height="55.03" rx="11" ry="11"/>
    </g>
    <g id="Block_chain" data-name="Block chain" class="cls-31">
      <g class="cls-31">
        <path class="cls-7" d="m269.81,195.75v-9.8h4.06c.67,0,1.21.09,1.63.27.42.18.74.41.97.67.23.27.38.55.46.86.08.31.12.59.12.84,0,.31-.05.58-.15.83s-.24.46-.41.65c-.17.19-.35.34-.55.45-.2.12-.4.2-.59.24.16,0,.34.05.55.15s.4.24.59.43c.19.19.34.42.47.71.13.29.19.61.19.98,0,.25-.04.53-.13.84-.08.31-.24.61-.48.89-.23.28-.56.51-.98.7-.42.19-.97.28-1.64.28h-4.11Zm2.27-5.84h1.35c.28,0,.5-.04.68-.11s.31-.17.42-.28.17-.24.21-.37.05-.26.05-.38c0-.11-.02-.23-.05-.36-.03-.13-.1-.25-.19-.36-.1-.11-.24-.21-.41-.29-.18-.08-.41-.12-.7-.12h-1.35v2.27Zm0,4.14h1.41c.28,0,.5-.04.68-.11.17-.08.31-.17.41-.29s.17-.25.21-.39.05-.28.05-.43c0-.12-.02-.24-.05-.39s-.1-.27-.2-.4-.24-.23-.41-.31c-.18-.09-.4-.13-.67-.13h-1.42v2.45Z"/>
        <path class="cls-7" d="m278.89,195.75v-9.8h2.14v9.8h-2.14Z"/>
        <path class="cls-7" d="m282.59,192.37c0-.48.09-.94.26-1.37s.42-.8.74-1.13c.32-.32.72-.58,1.18-.77.46-.19.98-.29,1.56-.29s1.12.1,1.58.29c.46.19.86.45,1.18.77s.57.7.74,1.13.26.88.26,1.37-.09.94-.26,1.37c-.17.43-.42.81-.74,1.13s-.72.58-1.18.77c-.46.19-.99.29-1.58.29s-1.1-.1-1.56-.29c-.46-.19-.85-.45-1.18-.77-.32-.32-.57-.7-.74-1.13s-.26-.89-.26-1.37Zm2.14,0c0,.24.04.47.11.68s.18.39.32.55c.14.16.31.28.5.37.2.09.42.13.66.13s.46-.04.67-.13c.2-.09.37-.21.51-.37.14-.16.25-.34.33-.55.08-.21.12-.43.12-.68,0-.23-.04-.46-.12-.67-.08-.21-.19-.4-.33-.55-.14-.16-.31-.28-.51-.37-.2-.09-.42-.14-.67-.14s-.46.05-.66.14c-.2.09-.36.22-.5.37-.14.16-.25.34-.32.55-.08.21-.11.43-.11.67Z"/>
        <path class="cls-7" d="m291.18,192.37c0-.47.08-.91.23-1.34.15-.43.38-.81.69-1.14s.69-.59,1.14-.79c.45-.2.97-.29,1.56-.29s1.06.08,1.48.24c.42.16.77.37,1.06.63.29.26.5.56.66.9.15.34.25.69.29,1.06h-2.14c-.05-.3-.17-.54-.37-.73-.2-.19-.52-.28-.96-.28-.25,0-.47.05-.66.14-.19.09-.35.22-.47.38-.12.16-.21.34-.27.55s-.09.43-.09.66.03.45.09.67c.06.21.16.4.28.55.13.16.29.28.49.38.2.09.44.14.72.14.37,0,.65-.08.84-.23.19-.15.33-.38.42-.67h2.14c-.05.38-.17.74-.33,1.07-.17.33-.4.62-.69.86-.29.24-.64.43-1.06.57-.42.14-.89.21-1.42.21-.59,0-1.11-.1-1.56-.29-.45-.2-.83-.46-1.14-.79s-.54-.71-.69-1.13c-.15-.43-.23-.88-.23-1.34Z"/>
        <path class="cls-7" d="m299.87,195.75v-9.8h2.14v5.91l2.09-2.86h2.54l-2.63,3.37,2.62,3.38h-2.54l-2.08-2.83v2.83h-2.14Z"/>
      </g>
      <g class="cls-31">
        <path class="cls-7" d="m269.02,205.37c0-.47.08-.91.23-1.34.15-.43.38-.81.69-1.14s.69-.59,1.14-.79c.45-.2.97-.29,1.56-.29s1.06.08,1.48.24c.42.16.77.37,1.06.63.29.26.5.56.66.9.15.34.25.69.29,1.06h-2.14c-.05-.3-.17-.54-.37-.73-.2-.19-.52-.28-.96-.28-.25,0-.47.05-.66.14-.19.09-.35.22-.47.38-.12.16-.21.34-.27.55s-.09.43-.09.66.03.45.09.67c.06.21.16.4.28.55.13.16.29.28.49.38.2.09.44.14.72.14.37,0,.65-.08.84-.23.19-.15.33-.38.42-.67h2.14c-.05.38-.17.74-.33,1.07-.17.33-.4.62-.69.86-.29.24-.64.43-1.06.57-.42.14-.89.21-1.42.21-.59,0-1.11-.1-1.56-.29-.45-.2-.83-.46-1.14-.79s-.54-.71-.69-1.13c-.15-.43-.23-.88-.23-1.34Z"/>
        <path class="cls-7" d="m277.71,208.75v-9.8h2.07v4.03c.19-.36.47-.64.84-.84.37-.21.82-.31,1.35-.31.44,0,.81.07,1.1.21.3.14.54.33.73.57.21.26.36.56.43.91s.11.76.11,1.24v3.99h-2.07v-3.46c0-.48-.09-.88-.26-1.18-.17-.3-.48-.45-.93-.45s-.76.15-.98.46c-.22.31-.33.72-.33,1.24v3.39h-2.07Z"/>
        <path class="cls-7" d="m285.84,205.37c0-.51.08-.98.24-1.41.16-.43.38-.81.67-1.12.29-.31.64-.56,1.05-.74s.86-.27,1.34-.27c.21,0,.43.03.64.09.21.06.41.14.59.25.18.1.34.22.48.36.14.14.25.28.33.43v-.96h2.14v6.75h-2.14v-.95c-.08.16-.19.31-.33.44-.14.13-.3.25-.48.35-.18.1-.38.18-.59.24-.21.06-.43.09-.64.09-.49,0-.93-.09-1.34-.27-.41-.18-.76-.43-1.05-.75s-.51-.69-.67-1.12c-.16-.43-.24-.9-.24-1.41Zm2.14,0c0,.23.04.46.12.67.08.21.19.39.33.55.14.15.31.28.5.37.2.09.41.14.66.14s.46-.05.66-.14c.2-.09.37-.22.5-.37.14-.15.25-.33.33-.54.08-.21.12-.43.12-.67s-.04-.45-.12-.66c-.08-.21-.19-.39-.33-.55s-.31-.29-.5-.38-.42-.14-.66-.14-.46.05-.66.14-.36.22-.5.38-.25.34-.33.55c-.08.21-.12.42-.12.66Z"/>
        <path class="cls-7" d="m295.03,199.76c0-.38.13-.7.39-.96.26-.26.59-.39.98-.39.2,0,.38.03.55.1.17.07.32.16.44.28.13.12.22.27.29.43.07.17.11.35.11.53s-.04.36-.11.53c-.07.16-.17.31-.29.43-.12.13-.27.22-.44.29-.17.07-.35.11-.55.11s-.38-.04-.54-.11c-.16-.07-.31-.17-.43-.29s-.22-.27-.29-.43c-.07-.16-.11-.34-.11-.53Zm.31,8.99v-6.75h2.14v6.75h-2.14Z"/>
        <path class="cls-7" d="m299.49,208.75v-6.75h2.14v.98c.19-.36.47-.65.85-.85.38-.2.83-.3,1.37-.3.44,0,.82.07,1.13.21.32.14.57.33.76.57.21.26.36.56.42.9s.1.75.1,1.24v4.01h-2.14v-3.46c0-.48-.09-.88-.26-1.18-.17-.3-.48-.45-.93-.45s-.76.15-.98.46c-.22.31-.32.72-.32,1.24v3.39h-2.14Z"/>
      </g>
    </g>
  </g>
  <g id="Group_5625" data-name="Group 5625">
    <g id="Rectangle_4177" data-name="Rectangle 4177">
      <rect class="cls-26" x="239.61" y="24.24" width="30.8" height="30.8" rx="5.68" ry="5.68"/>
    </g>
    <g id="K8s" class="cls-31">
      <g class="cls-31">
        <path class="cls-7" d="m245.95,43.42v-7.7h1.78v3.27l2.49-3.27h2.14l-3.05,3.85,3.05,3.85h-2.14l-2.49-3.25v3.25h-1.78Z"/>
        <path class="cls-7" d="m253.09,41.22c0-.21.03-.41.09-.6.06-.2.15-.38.26-.54.11-.17.24-.31.39-.43.15-.12.32-.2.51-.26-.33-.13-.59-.34-.77-.65-.18-.31-.28-.64-.28-.99,0-.3.06-.58.18-.85.12-.26.3-.5.53-.7.23-.2.51-.36.85-.47.33-.12.72-.17,1.15-.17s.8.06,1.13.17c.33.12.61.27.84.47.23.2.4.43.53.7s.18.55.18.85c0,.35-.09.68-.27.99s-.44.53-.76.65c.19.06.36.15.51.27.15.12.29.27.4.43.11.16.2.34.26.54.06.2.09.4.09.6,0,.31-.06.61-.19.89-.13.28-.32.53-.56.75-.25.22-.55.39-.91.52s-.77.19-1.24.19-.88-.06-1.24-.19-.67-.29-.91-.51-.44-.46-.57-.75c-.13-.29-.2-.59-.2-.92Zm1.74-.03c0,.14.03.27.08.4s.13.24.23.34c.1.09.22.17.37.23.15.06.31.09.49.09s.35-.03.49-.09c.14-.06.26-.14.36-.24.1-.1.18-.21.23-.34s.08-.26.08-.4-.03-.27-.08-.4c-.05-.13-.13-.24-.23-.34-.1-.1-.22-.18-.37-.24-.15-.06-.31-.09-.49-.09-.38,0-.67.11-.87.32-.2.21-.3.46-.3.75Zm.15-3.35c0,.26.09.48.27.67.18.19.43.28.76.28s.56-.1.74-.29c.18-.19.26-.41.26-.66s-.09-.48-.26-.67c-.17-.19-.42-.28-.74-.28-.33,0-.58.09-.76.28-.18.19-.27.41-.27.67Z"/>
        <path class="cls-7" d="m259.9,41.64h1.65c0,.28.08.48.24.6.16.12.36.18.61.18.2,0,.37-.04.5-.12s.2-.2.2-.38c0-.1-.03-.19-.08-.25-.06-.06-.14-.12-.26-.18-.11-.05-.26-.11-.44-.17-.18-.05-.39-.12-.65-.2-.22-.06-.43-.13-.62-.21-.2-.08-.37-.17-.52-.28s-.27-.25-.36-.42c-.09-.17-.13-.38-.13-.64,0-.55.21-.96.63-1.22.42-.26.99-.39,1.71-.39.38,0,.71.05,1.01.14.29.09.53.22.72.38.19.16.33.35.42.57.09.22.14.45.14.7h-1.66c0-.22-.06-.39-.17-.51-.11-.12-.29-.18-.52-.18-.17,0-.32.04-.44.12-.13.08-.19.2-.19.36,0,.1.03.18.09.24.06.06.15.12.26.17.12.05.26.1.42.16.17.05.36.11.58.18.24.06.46.14.66.21s.38.17.54.29c.16.11.28.25.37.42.09.17.14.38.14.64,0,.31-.06.58-.19.8-.13.22-.3.39-.52.53-.22.14-.48.23-.77.29-.29.06-.6.09-.93.09-.76,0-1.35-.17-1.79-.5-.43-.33-.65-.8-.65-1.42Z"/>
      </g>
    </g>
  </g>
  <g id="Group_5627" data-name="Group 5627">
    <g id="Rectangle_4178" data-name="Rectangle 4178">
      <rect class="cls-30" x="152.13" width="59.27" height="59.27" rx="15.77" ry="15.77"/>
    </g>
    <g id="CLOUD" class="cls-31">
      <g class="cls-31">
        <path class="cls-7" d="m160.95,28.32c0-.57.1-1.13.3-1.66s.49-1,.86-1.41c.38-.41.84-.73,1.38-.98.54-.24,1.16-.36,1.85-.36.65,0,1.23.09,1.73.28s.94.43,1.29.74.64.68.85,1.1.34.88.41,1.35h-2.03c-.05-.25-.13-.47-.25-.68s-.27-.39-.45-.54-.39-.28-.64-.36-.51-.13-.81-.13c-.41,0-.77.07-1.09.22s-.58.34-.8.59-.38.53-.49.85-.17.65-.17,1c0,.37.06.71.18,1.04s.29.61.52.85.5.44.83.58.7.21,1.12.21c.24,0,.47-.04.68-.11s.42-.18.59-.31.33-.29.46-.47.22-.37.28-.58h2.06c-.08.45-.23.87-.46,1.26s-.52.73-.88,1.03-.78.52-1.26.69-1.01.25-1.58.25c-.71,0-1.34-.12-1.9-.36-.56-.24-1.03-.56-1.42-.97-.39-.4-.68-.87-.89-1.41s-.3-1.1-.3-1.69Z"/>
        <path class="cls-7" d="m170.99,32.54v-8.4h1.95v6.72h2.39v1.68h-4.34Z"/>
        <path class="cls-7" d="m175.58,28.34c0-.57.1-1.13.3-1.66s.49-1,.88-1.41.85-.73,1.4-.98,1.17-.36,1.87-.36,1.31.12,1.86.36,1.01.57,1.4.98.68.88.87,1.41c.2.53.3,1.09.3,1.66s-.1,1.13-.3,1.66c-.2.53-.49,1-.87,1.41s-.85.73-1.4.98-1.17.37-1.86.37-1.32-.12-1.87-.37-1.02-.57-1.4-.98-.68-.88-.88-1.41-.3-1.09-.3-1.66Zm1.99,0c0,.34.06.68.17,1s.27.6.48.85.47.45.77.59.65.22,1.03.22.73-.07,1.03-.22.56-.35.78-.59.38-.53.49-.85.17-.65.17-1-.06-.68-.17-1-.27-.6-.49-.85-.47-.45-.77-.59-.65-.22-1.03-.22-.73.07-1.03.22-.56.34-.77.59-.37.53-.48.85-.17.65-.17,1Z"/>
        <path class="cls-7" d="m185.69,29.67v-5.54h1.95v5.52c0,.19.03.37.1.55.06.17.16.32.27.45.12.13.26.23.42.3.16.08.34.11.54.11s.38-.04.54-.11c.16-.08.3-.18.42-.3.11-.13.2-.28.27-.45.06-.17.1-.36.1-.55v-5.52h1.95v5.54c0,.43-.08.84-.23,1.21-.15.38-.37.7-.65.98-.28.28-.63.49-1.03.65-.4.16-.86.24-1.36.24s-.96-.08-1.36-.24c-.4-.16-.74-.38-1.03-.65-.28-.28-.5-.6-.65-.98-.15-.38-.23-.78-.23-1.21Z"/>
        <path class="cls-7" d="m193.86,32.54v-8.4h3.08c.69,0,1.31.12,1.85.35s.99.55,1.37.94c.37.39.66.84.85,1.34s.29,1.02.29,1.56-.1,1.05-.29,1.56c-.19.5-.47.95-.85,1.34-.37.39-.83.71-1.37.94s-1.16.35-1.85.35h-3.08Zm1.95-1.68h1.04c.39,0,.74-.07,1.05-.21s.57-.33.78-.56.38-.5.49-.81.17-.62.17-.94-.06-.63-.17-.93-.27-.57-.49-.81-.47-.42-.78-.57-.66-.21-1.05-.21h-1.04v5.04Z"/>
      </g>
    </g>
  </g>
  <g id="Group_5629" data-name="Group 5629">
    <g id="Rectangle_4179" data-name="Rectangle 4179">
      <rect class="cls-26" x="99.89" y="55.26" width="40.02" height="40.02" rx="9.97" ry="9.97"/>
    </g>
    <g id="AWS" class="cls-31">
      <g class="cls-31">
        <path class="cls-7" d="m104.5,80.37l3.5-9.8h2.08l3.54,9.8h-2.46l-.38-1.14h-3.49l-.38,1.14h-2.42Zm3.35-2.97h2.38l-1.18-4.03-1.2,4.03Z"/>
        <path class="cls-7" d="m112.65,70.57h2.39l2,6.43,1.99-6.43h1.74l2,6.43,2-6.43h2.39l-3.46,9.8h-1.85l-1.97-6.23-1.97,6.23h-1.82l-3.46-9.8Z"/>
        <path class="cls-7" d="m127.89,77.13h2.27c0,.53.14.94.43,1.23s.67.44,1.13.44c.36,0,.67-.1.91-.31s.37-.49.37-.83c0-.19-.04-.36-.12-.5-.08-.14-.18-.25-.32-.36-.14-.1-.3-.19-.48-.27-.19-.08-.39-.16-.6-.24-.45-.17-.87-.34-1.28-.5-.41-.17-.76-.37-1.06-.61-.3-.24-.54-.52-.72-.86-.18-.33-.27-.75-.27-1.24,0-.45.1-.84.29-1.19.19-.35.45-.64.76-.87.32-.23.68-.41,1.1-.52.42-.12.85-.17,1.3-.17.58,0,1.09.08,1.53.25.44.17.8.39,1.09.68.29.29.51.62.65.99.15.37.22.77.22,1.19h-2.28c0-.44-.1-.79-.31-1.04-.21-.25-.51-.38-.9-.38-.33,0-.61.08-.84.25-.23.17-.35.42-.35.76s.13.59.38.78c.25.19.59.36,1.01.51.4.14.81.29,1.22.46.41.16.78.36,1.11.6.33.24.6.52.81.87s.32.75.32,1.23c0,.51-.09.96-.27,1.35-.18.39-.44.72-.76.99s-.71.47-1.17.6-.95.21-1.49.21-1.01-.08-1.46-.23-.84-.38-1.17-.68c-.33-.3-.59-.66-.78-1.1-.19-.43-.28-.93-.28-1.49Z"/>
      </g>
    </g>
  </g>
  <g id="Group_5631" data-name="Group 5631">
    <g id="Rectangle_4180" data-name="Rectangle 4180">
      <path class="cls-9" d="m60.95,123.18h29.02c4.12,0,7.47,3.34,7.47,7.47h0v27.02c0,4.12-3.34,7.47-7.47,7.47h-29.02c-4.12,0-7.47-3.34-7.47-7.47h0v-27.02c0-4.12,3.34-7.46,7.46-7.46Z"/>
    </g>
    <g id="AI_ML" data-name="AI ML" class="cls-31">
      <g class="cls-31">
        <path class="cls-7" d="m58.96,148.26l3-8.4h1.79l3.04,8.4h-2.11l-.32-.98h-2.99l-.33.98h-2.07Zm2.87-2.54h2.04l-1.01-3.46-1.03,3.46Z"/>
        <path class="cls-7" d="m67.8,148.26v-8.4h1.97v8.4h-1.97Z"/>
        <path class="cls-7" d="m70.83,148.49l4.21-9.79,1.49.63-4.21,9.79-1.49-.63Z"/>
        <path class="cls-7" d="m77.6,148.26v-8.4h2.24l2.24,5.85,2.22-5.85h2.21v8.4h-1.9v-5.21l-1.81,5.21h-1.44l-1.87-5.21v5.21h-1.9Z"/>
        <path class="cls-7" d="m88.29,148.26v-8.4h1.95v6.72h2.39v1.68h-4.34Z"/>
      </g>
    </g>
  </g>
  <g id="Group_5633" data-name="Group 5633">
    <g id="Rectangle_4181" data-name="Rectangle 4181">
      <rect class="cls-6" x="377.23" y="227.29" width="40.02" height="40.02" rx="9.97" ry="9.97"/>
    </g>
    <g id="Group_5632" data-name="Group 5632">
      <g id="Path_31742" data-name="Path 31742">
        <path class="cls-7" d="m386.6,250.33c.03-.53-.22-1.04-.66-1.34-.58-.35-1.25-.51-1.93-.46v-2.42c.67.04,1.34-.11,1.93-.44.43-.28.68-.76.66-1.27v-3.3c-.09-.85.29-1.68.98-2.18,1.07-.51,2.26-.73,3.45-.63v2.28c-.49-.03-.98.1-1.38.38-.27.28-.41.66-.38,1.04v3.02c-.04,1.27-.83,2.01-2.37,2.24v.12c1.58.24,2.37.95,2.37,2.14v3.11c-.03.38.11.76.37,1.04.4.28.89.42,1.38.38v2.29c-1.18.1-2.37-.12-3.45-.63-.69-.5-1.07-1.34-.98-2.19v-3.18Z"/>
      </g>
      <g id="Path_31743" data-name="Path 31743">
        <path class="cls-7" d="m407.87,253.51c.04.6-.1,1.2-.41,1.71-.35.43-.83.73-1.37.84-.87.2-1.75.29-2.64.27v-2.28c.49.04.97-.09,1.38-.36.27-.28.41-.67.38-1.06v-3.13c-.02-.54.2-1.05.6-1.41.5-.41,1.12-.65,1.76-.71v-.12c-1.53-.23-2.32-.98-2.36-2.24v-3.02c.03-.39-.1-.77-.37-1.05-.41-.28-.89-.41-1.38-.37v-2.27c.89-.03,1.78.06,2.65.27.54.12,1.03.42,1.37.85.3.51.45,1.1.41,1.69v3.32c-.03.5.21.99.62,1.27.6.33,1.28.48,1.97.43v2.42c-.67-.04-1.33.1-1.93.42-.46.31-.71.84-.66,1.39v3.18Z"/>
      </g>
    </g>
  </g>
  <g id="Group_5635" data-name="Group 5635">
    <g id="Rectangle_4182" data-name="Rectangle 4182">
      <rect class="cls-23" x="13.47" y="207.29" width="40.02" height="40.02" rx="9.97" ry="9.97"/>
    </g>
    <g id="Group_5634" data-name="Group 5634">
      <g id="Path_31744" data-name="Path 31744">
        <path class="cls-7" d="m29.46,231.45l-7.82-3.45v-1.13l7.82-3.91v1.89l-5.39,2.5,5.39,2.21v1.88Z"/>
      </g>
      <g id="Path_31745" data-name="Path 31745">
        <path class="cls-7" d="m36.74,221.53l-4.29,11.52h-2.18l4.29-11.52h2.18Z"/>
      </g>
      <g id="Path_31746" data-name="Path 31746">
        <path class="cls-7" d="m37.51,229.57l5.39-2.21-5.39-2.5v-1.89l7.82,3.91v1.13l-7.82,3.45v-1.88Z"/>
      </g>
    </g>
  </g>
  <g id="Group_5637" data-name="Group 5637">
    <g id="Rectangle_4183" data-name="Rectangle 4183">
      <rect class="cls-30" x="349.69" y="166.5" width="27.53" height="27.53" rx="6.86" ry="6.86"/>
    </g>
    <g id="Group_5636" data-name="Group 5636">
      <g id="Path_31747" data-name="Path 31747">
        <path class="cls-7" d="m359.35,180.26c-.02-.25.07-.5.24-.69.2-.17.45-.25.71-.23.26-.02.51.07.7.24.33.39.33.97,0,1.36-.19.17-.44.26-.69.25-.26.02-.51-.07-.71-.24-.18-.18-.27-.43-.26-.68Z"/>
      </g>
      <g id="Path_31748" data-name="Path 31748">
        <path class="cls-7" d="m362.51,180.26c-.02-.25.07-.5.24-.69.2-.17.45-.25.71-.23.26-.02.51.07.7.24.33.39.33.97,0,1.36-.19.17-.44.26-.69.25-.26.02-.51-.07-.7-.24-.18-.18-.27-.43-.26-.68Z"/>
      </g>
      <g id="Path_31749" data-name="Path 31749">
        <path class="cls-7" d="m365.68,180.26c-.02-.25.07-.5.24-.69.2-.17.45-.25.71-.23.26-.02.51.07.7.24.33.39.33.97,0,1.36-.19.17-.44.26-.69.25-.26.02-.51-.07-.7-.24-.18-.18-.27-.43-.26-.68Z"/>
      </g>
    </g>
  </g>
  <g id="Group_5654" data-name="Group 5654">
    <g id="Path_31750" data-name="Path 31750">
      <path class="cls-15" d="m145.65,162.8h-12.1c-.49,0-.89.4-.89.89,0,.02,0,.04,0,.06l.24,6.08c.17,1.09.61,2.12,1.28,3,.33.77.87,1.43,1.56,1.9.37.21.77.37,1.18.5.5,1.48,2.09,2.27,3.57,1.78.84-.28,1.5-.94,1.78-1.78.41-.13.8-.29,1.18-.5.69-.47,1.23-1.13,1.56-1.9.65-.86,1.09-1.86,1.27-2.92.01,0,.25-6.16.25-6.16.03-.49-.34-.91-.83-.95-.02,0-.04,0-.06,0Z"/>
    </g>
    <g id="Path_31751" data-name="Path 31751">
      <path class="cls-4" d="m148.12,156.14c4.98-4.7,5.2-12.55.5-17.53s-12.55-5.2-17.53-.5c-4.98,4.7-5.2,12.55-.5,17.53.31.33.63.64.98.93.98.86,1.8,1.88,2.42,3.02.12.22.28.43.48,3.2h10.26c.18-2.75.33-2.94.44-3.13.82-1.3,1.81-2.49,2.94-3.52Z"/>
    </g>
    <g id="Group_5638" data-name="Group 5638">
      <g id="Path_31752" data-name="Path 31752">
        <path class="cls-15" d="m139.6,129.68c-.38,0-.68-.31-.68-.68v-5.13c0-.38.31-.68.69-.68.38,0,.68.31.68.68v5.13c0,.38-.31.68-.68.68Z"/>
      </g>
    </g>
    <g id="Group_5639" data-name="Group 5639">
      <g id="Path_31753" data-name="Path 31753">
        <path class="cls-15" d="m130.43,132.14c-.25,0-.47-.13-.59-.34l-2.56-4.44c-.19-.33-.08-.75.25-.94s.75-.08.94.25l2.56,4.44c.19.33.08.75-.25.94-.1.06-.22.09-.34.09h0Z"/>
      </g>
    </g>
    <g id="Group_5640" data-name="Group 5640">
      <g id="Path_31754" data-name="Path 31754">
        <path class="cls-15" d="m123.72,138.85c-.12,0-.24-.03-.34-.09l-4.44-2.56c-.33-.19-.44-.61-.25-.94s.61-.44.94-.25l4.44,2.56c.33.19.44.61.25.94-.12.21-.35.34-.6.34Z"/>
      </g>
    </g>
    <g id="Group_5641" data-name="Group 5641">
      <g id="Path_31755" data-name="Path 31755">
        <path class="cls-15" d="m121.26,148.02h-5.12c-.38,0-.68-.31-.68-.69,0-.38.31-.68.68-.68h5.12c.38,0,.68.31.68.69,0,.38-.31.68-.68.68Z"/>
      </g>
    </g>
    <g id="Group_5642" data-name="Group 5642">
      <g id="Path_31756" data-name="Path 31756">
        <path class="cls-15" d="m119.28,159.76c-.38,0-.69-.3-.69-.68,0-.25.13-.47.34-.6l4.44-2.56c.33-.19.75-.08.94.25s.08.75-.25.94l-4.44,2.56c-.1.06-.22.09-.34.09Z"/>
      </g>
    </g>
    <g id="Group_5643" data-name="Group 5643">
      <g id="Path_31757" data-name="Path 31757">
        <path class="cls-15" d="m159.93,159.76c-.12,0-.24-.03-.34-.09l-4.44-2.56c-.33-.19-.44-.61-.25-.94s.61-.44.94-.25h0l4.44,2.56c.33.19.44.61.25.94-.12.21-.35.34-.6.34h0Z"/>
      </g>
    </g>
    <g id="Group_5644" data-name="Group 5644">
      <g id="Path_31758" data-name="Path 31758">
        <path class="cls-15" d="m163.07,148.02h-5.13c-.38,0-.68-.31-.68-.69,0-.38.31-.68.68-.68h5.13c.38,0,.69.3.69.68,0,.38-.3.69-.68.69h0Z"/>
      </g>
    </g>
    <g id="Group_5645" data-name="Group 5645">
      <g id="Path_31759" data-name="Path 31759">
        <path class="cls-15" d="m155.49,138.85c-.38,0-.69-.31-.69-.68,0-.24.13-.47.34-.59l4.44-2.56c.33-.19.75-.08.94.25s.08.75-.25.94l-4.44,2.56c-.1.06-.22.09-.34.09Z"/>
      </g>
    </g>
    <g id="Group_5646" data-name="Group 5646">
      <g id="Path_31760" data-name="Path 31760">
        <path class="cls-15" d="m148.78,132.14c-.38,0-.68-.31-.68-.69,0-.12.03-.23.09-.33l2.56-4.44c.19-.33.61-.44.94-.25s.44.61.25.94h0l-2.56,4.44c-.12.21-.35.34-.6.34Z"/>
      </g>
    </g>
    <g id="Group_5647" data-name="Group 5647">
      <g id="Path_31761" data-name="Path 31761">
        <path class="cls-5" d="m134.7,167.76c-.38,0-.69-.3-.69-.68,0-.32.22-.6.53-.67l9.81-2.36c.37-.09.74.14.83.51.09.37-.14.74-.51.83h0l-9.81,2.36c-.05.01-.11.02-.16.02Z"/>
      </g>
    </g>
    <g id="Group_5648" data-name="Group 5648">
      <g id="Path_31762" data-name="Path 31762">
        <path class="cls-5" d="m134.7,170.12c-.38,0-.69-.3-.69-.68,0-.32.22-.6.53-.67l9.81-2.36c.37-.09.74.14.83.51.09.37-.14.74-.51.83l-9.81,2.36c-.05.01-.1.02-.16.02Z"/>
      </g>
    </g>
    <g id="Group_5649" data-name="Group 5649">
      <g id="Path_31763" data-name="Path 31763">
        <path class="cls-5" d="m134.7,172.48c-.38,0-.68-.31-.68-.69,0-.32.22-.59.52-.67l9.81-2.36c.37-.08.73.16.81.54.07.35-.14.7-.49.8l-9.81,2.36c-.05.01-.11.02-.16.02Z"/>
      </g>
    </g>
    <g id="Group_5653" data-name="Group 5653">
      <g id="Group_5650" data-name="Group 5650">
        <g id="Path_31764" data-name="Path 31764">
          <path class="cls-7" d="m139.09,148.58h-3.04c-1.68,0-3.04-1.36-3.04-3.04,0-1.68,1.36-3.04,3.04-3.04,1.68,0,3.04,1.36,3.04,3.04v3.04Zm-3.04-4.71c-.92,0-1.67.75-1.67,1.67,0,.92.75,1.67,1.67,1.67h1.67v-1.67c0-.92-.75-1.67-1.67-1.67h0Z"/>
        </g>
      </g>
      <g id="Group_5651" data-name="Group 5651">
        <g id="Path_31765" data-name="Path 31765">
          <path class="cls-7" d="m143.15,148.58h-3.04v-3.04c0-1.68,1.36-3.04,3.04-3.04s3.04,1.36,3.04,3.04-1.36,3.04-3.04,3.04h0Zm-1.67-1.37h1.67c.92,0,1.67-.75,1.67-1.67s-.75-1.67-1.67-1.67-1.67.75-1.67,1.67h0v1.67Z"/>
        </g>
      </g>
      <g id="Group_5652" data-name="Group 5652">
        <g id="Path_31766" data-name="Path 31766">
          <path class="cls-7" d="m141.49,162.8h-1.37v-14.21h-1.03v14.21h-1.37v-15.59h3.77v15.58Z"/>
        </g>
      </g>
    </g>
  </g>
  <g id="Path_31767" data-name="Path 31767">
    <path class="cls-17" d="m212.39,75.27h-7.51v1.89h7.51v-1.89Zm20.17,0h-16.4v1.89h16.4v-1.89Zm-12.62,3.83h-15.06v1.89h15.06v-1.89Zm31.5,0h-27.72v1.89h27.73v-1.89Zm-31.5,3.83h-15.06v1.89h15.06v-1.89Zm3.78,1.89h8.84v-1.89h-8.84v1.89Zm31.5-5.72v1.89h8.84v-1.89h-8.84Zm18.88,9.56h14.51v-1.88h-14.51v1.88Zm-5.67,3.83h8.84v-1.89h-8.84v1.89Zm-56.05-5.72h-7.51v1.89h7.51v-1.89Zm3.78,1.89h54.16v-1.89h-54.16v1.89Zm-3.78,1.95h-7.51v1.89h7.51v-1.89Zm3.78,1.89h48.5v-1.89h-48.5v1.89Zm20.17-7.67h48.5v-1.89h-48.5v1.89Zm-16.4,9.61h-15.06v1.89h15.06v-1.89Zm31.5,0h-27.72v1.89h27.73v-1.89Zm-52.54-17.28h1.84v-1.89h-1.84v1.89Zm0,3.83h1.84v-1.89h-1.84v1.89Zm0,3.83h1.84v-1.89h-1.84v1.89Zm0,3.83h1.84v-1.89h-1.84v1.89Zm0,3.83h1.84v-1.89h-1.84v1.89Zm0,3.83h1.84v-1.89h-1.84v1.89Zm17.26,3.54h-7.51v1.89h7.51v-1.89Zm3.78,1.89h16.4v-1.89h-16.4v1.89Zm-3.78,1.95h-7.51v1.89h7.51v-1.89Zm3.78,1.89h35.28v-1.89h-35.28v1.89Zm-3.78,1.95h-7.51v1.89h7.51v-1.89Zm3.78,1.89h54.16v-1.89h-54.16v1.89Zm-3.78,1.95h-7.51v1.89h7.51v-1.89Zm3.78,1.89h35.28v-1.89h-35.28v1.89Zm-11.28,3.83h7.51v-1.89h-7.51v1.89Zm11.28,0h23.95v-1.89h-23.95v1.89Zm-3.78,1.94h-7.51v1.89h7.51v-1.89Zm14.51,0h-10.73v1.89h10.73v-1.89Zm35.28-24.6h-10.72v1.89h10.73v-1.89Zm3.78,1.89h10.73v-1.89h-10.72v1.89Zm7.65,13.1h10.73v-1.89h-10.73v1.89Zm-7.65,3.83v-1.89h-10.73v1.89h10.73Zm-25.84,13.1h10.74v-1.89h-10.73v1.89Zm48.5,5.78h-10.73v1.89h10.73v-1.89Zm-20.17,5.72h10.73v-1.89h-10.73v1.89Zm-9.44,3.83h10.73v-1.89h-10.73v1.89Zm-18.88,3.83h10.73v-1.89h-10.73v1.89Zm14.51,0h10.73v-1.89h-10.73v1.89Zm28.33-9.55v1.89h10.73v-1.89h-10.73Zm-16.99-32.27h-10.73v1.89h10.73v-1.89Zm3.78,1.89h10.73v-1.89h-10.73v1.89Zm-74.61-3.83h1.84v-1.89h-1.84v1.89Zm0,3.83h1.84v-1.89h-1.84v1.89Zm0,3.83h1.84v-1.89h-1.84v1.89Zm0,3.83h1.84v-1.89h-1.84v1.89Zm0,3.83h1.84v-1.89h-1.84v1.89Zm0,3.83h1.84v-1.89h-1.84v1.89Zm13.53,5.43h7.51v-1.89h-7.51v1.89Zm11.28-1.89v1.89h16.4v-1.89h-16.4Zm-11.28,5.72h7.51v-1.89h-7.51v1.89Zm11.28,0h35.28v-1.89h-35.28v1.89Zm-11.28,3.83h7.51v-1.89h-7.51v1.89Zm65.45-1.89h-54.16v1.89h54.16v-1.89Zm-65.45,5.72h7.51v-1.89h-7.51v1.89Zm56.01-1.89h-44.72v1.89h44.72v-1.89Zm12.62-60.7h-44.72v1.89h44.72v-1.89Zm-68.62,66.42h7.51v-1.89h-7.51v1.89Zm11.28,0h35.28v-1.89h-35.28v1.89Zm59.23-26.49h-35.28v1.89h35.28v-1.89Zm-70.51,30.32h7.51v-1.89h-7.51v1.89Zm11.28,0h16.4v-1.89h-16.4v1.89Zm-24.82-19.17h1.84v-1.89h-1.84v1.89Zm0,3.83h1.84v-1.89h-1.84v1.89Zm0,3.83h1.84v-1.89h-1.84v1.89Zm0,3.83h1.84v-1.89h-1.84v1.89Zm0,3.83h1.84v-1.89h-1.84v1.89Zm0,3.83h1.84v-1.89h-1.84v1.89Zm-17.13-65.48h3.83v-3.83h-3.83v3.83Zm6.05-.97h6.55v-1.89h-6.55v1.89Zm-6.05,8.64h3.83v-3.83h-3.83v3.83Zm6.05-.97h6.55v-1.89h-6.55v1.89Zm-6.05,8.64h3.83v-3.83h-3.83v3.83Zm6.05-.97h6.55v-1.89h-6.55v1.89Zm-6.05,8.64h3.83v-3.83h-3.83v3.83Zm6.05-.97h6.55v-1.89h-6.55v1.89Zm-6.05,8.64h3.83v-3.83h-3.83v3.83Zm6.05-.97h6.55v-1.89h-6.55v1.89Z"/>
  </g>
</svg>