<svg xmlns="http://www.w3.org/2000/svg" width="417.162" height="296.094" viewBox="0 0 417.162 296.094"><defs><style>.a{fill:#f1f2f2;}.b{fill:#c7d5e4;}.aa,.ac,.c,.y{fill:#fff;}.d{fill:#b0bbd9;}.e{fill:#dadbdb;}.f{fill:#f9b09f;}.g{fill:#00d1d2;}.h{fill:#e0c5da;}.i{fill:#e6d7e2;}.j{fill:#e9b2ab;}.k{fill:#c4003b;}.l{fill:#e30045;}.m{fill:#212121;}.n{fill:#f2beb7;}.o{fill:#0a0a0a;}.p{fill:#fffefb;}.q{fill:#090909;}.r{fill:#d53031;}.s{fill:#2b2b2b;}.t{fill:#0f0f0f;}.u{fill:#f5916e;}.v{fill:#ffa686;}.w{fill:#c5dcfd;}.x{fill:#6b7b9b;}.y{font-size:14px;}.aa,.ac,.y{font-family:GTWalsheimPro-Bold, GT Walsheim Pro;font-weight:700;letter-spacing:0.014em;}.z{fill:#151515;}.aa{font-size:11px;}.ab{fill:#4a5874;}.ac{font-size:12px;}.ad{fill:#bfd5f7;}.ae{fill:#fdc957;}.af{fill:#e7f0fe;}.ag{fill:#b2b2b2;}</style></defs><g transform="translate(-122.893 -65.469)"><g transform="translate(122.893 213.265)"><path class="a" d="M498.892,507.621H127.225a3.351,3.351,0,1,1,0-6.7H498.892a3.351,3.351,0,1,1,0,6.7Z" transform="translate(-123.874 -359.323)"/><g transform="translate(54.483 34.728)"><path class="a" d="M195.435,446.84V359.923a14.719,14.719,0,0,1,9.229-13.812,15.11,15.11,0,0,1,5.808-1.173,14.769,14.769,0,0,1,10.485,4.414l8.359,8.359-4.387,4.387-8.359-8.358a8.627,8.627,0,0,0-6.12-2.588,8.876,8.876,0,0,0-3.411.692,8.61,8.61,0,0,0-5.4,8.08V446.84Z" transform="translate(-180.348 -344.938)"/><path class="b" d="M173.414,498.007h36.378a6.336,6.336,0,0,0-6.336-6.337H179.751A6.337,6.337,0,0,0,173.414,498.007Z" transform="translate(-173.414 -391.138)"/><g transform="translate(37.989 5.842)"><path class="b" d="M242.185,395.738c-5.528-5.528-3.272-16.745,5.038-25.056s19.528-10.565,25.055-5.038Z" transform="translate(-232.103 -356.346)"/><path class="b" d="M255.519,361.29l-18.832,18.832-6.84-13.457a9.085,9.085,0,0,1,12.215-12.215Z" transform="translate(-228.861 -353.464)"/><path class="a" d="M273.3,366.661c2.764,2.764-1.733,11.741-10.043,20.051s-17.287,12.807-20.051,10.043,1.732-11.741,10.043-20.051S270.532,363.9,273.3,366.661Z" transform="translate(-233.12 -357.363)"/><path class="c" d="M251.861,386.293c.069.075.138.149.211.222a7.767,7.767,0,0,0,10.985-10.984c-.073-.073-.147-.142-.222-.211a49.22,49.22,0,0,0-10.974,10.973Z" transform="translate(-236.103 -360.346)"/></g></g><g transform="translate(276.978 102.208)"><g transform="translate(0.685 24.407)"><path class="d" d="M536.63,479.054h54.182v2.055H588.2v10.87h2.615v2.055H536.63a7.49,7.49,0,0,1,0-14.981Z" transform="translate(-529.14 -479.054)"/><path class="a" d="M589.7,492.924v-10.87H537.575a5.435,5.435,0,0,0,0,10.87Z" transform="translate(-530.085 -479.998)"/><g transform="translate(6.766 3.489)"><rect class="e" width="52.851" height="0.685"/><g transform="translate(0 1.829)"><rect class="e" width="52.851" height="0.685"/></g><g transform="translate(0 3.659)"><rect class="e" width="52.851" height="0.685"/></g><g transform="translate(0 5.488)"><rect class="e" width="52.851" height="0.685"/></g><g transform="translate(0 7.317)"><rect class="e" width="52.851" height="0.685"/></g></g></g><g transform="translate(0 12.204)"><path class="f" d="M531.315,471.39V463.3H528.14v-2.055h49.81a6.1,6.1,0,0,1,0,12.2H528.14V471.39Z" transform="translate(-528.14 -461.242)"/><path class="a" d="M578.895,472.335a4.046,4.046,0,1,0,0-8.093H531.14v8.093Z" transform="translate(-529.085 -462.187)"/><g transform="translate(2.055 3.315)"><rect class="e" width="48.492" height="0.685"/><g transform="translate(0 1.63)"><rect class="e" width="48.492" height="0.685"/></g><g transform="translate(0 3.259)"><rect class="e" width="48.492" height="0.685"/></g><g transform="translate(0 4.889)"><rect class="e" width="48.492" height="0.685"/></g></g></g><g transform="translate(10.585)"><path class="g" d="M589.475,453.578v-8.093h3.174V443.43H549.691a6.1,6.1,0,1,0,0,12.2H592.65v-2.055Z" transform="translate(-543.589 -443.43)"/><path class="a" d="M550.636,454.523a4.046,4.046,0,0,1,0-8.093h40.9v8.093Z" transform="translate(-544.534 -444.375)"/><g transform="translate(5.365 3.315)"><rect class="e" width="41.641" height="0.685"/><g transform="translate(0 1.629)"><rect class="e" width="41.641" height="0.685"/></g><g transform="translate(0 3.259)"><rect class="e" width="41.641" height="0.685"/></g><g transform="translate(0 4.888)"><rect class="e" width="41.641" height="0.685"/></g></g></g></g><g transform="translate(96.972 122.616)"><path class="h" d="M256.027,492.2H244.2l-2.144-18.98h16.114Z" transform="translate(-242.058 -473.216)"/><g transform="translate(13.112 3.731)"><path class="i" d="M266.5,490.254h-5.3v-.993h5.3a4.8,4.8,0,0,0,0-9.606h-5.3v-.993h5.3a5.8,5.8,0,0,1,0,11.593Z" transform="translate(-261.195 -478.661)"/></g><path class="i" d="M253.818,473.216V492.2h5.913l2.144-18.98Z" transform="translate(-245.761 -473.216)"/></g><g transform="translate(125.82)"><g transform="translate(0)"><g transform="translate(0 80.411)"><path class="j" d="M308.531,456.709a10.36,10.36,0,0,0,9.549,14.748h17.7l-5.742-59.843Z" transform="translate(-305.382 -410.615)"/><path class="k" d="M336.4,411.615l-8.68,18.559,10.916,5.209Z" transform="translate(-311.879 -410.615)"/><path class="l" d="M320.141,438.468l-2.393,5.118a2.432,2.432,0,0,0,1.122,3.21l17.477,8.668-1.18-12.543L323.392,437.3A2.434,2.434,0,0,0,320.141,438.468Z" transform="translate(-310.665 -420.087)"/><g transform="translate(98.462)"><path class="j" d="M456.969,411.615l-5.742,58.843h17.7c7.733,0,12.839-7.754,9.55-14.5Z" transform="translate(-452.227 -409.615)"/><path class="k" d="M458.58,411.615l8.68,18.559-10.916,5.209Z" transform="translate(-453.759 -409.615)"/><path class="l" d="M471.206,438.468l2.393,5.118a2.432,2.432,0,0,1-1.122,3.21L455,455.464l1.18-12.543,11.775-5.619A2.433,2.433,0,0,1,471.206,438.468Z" transform="translate(-452.415 -420.421)"/></g></g><path class="l" d="M16.532,0H67.024A16.532,16.532,0,0,1,83.556,16.532V67.838a0,0,0,0,1,0,0H0a0,0,0,0,1,0,0V16.532A16.532,16.532,0,0,1,16.532,0Z" transform="translate(21.586 73.605)"/><path class="m" d="M348.331,401.871v22.686l-9.308,16.16v28.8H379.2l-20.554-67.838H350.35A11.394,11.394,0,0,0,348.331,401.871Zm64.94,22.686V401.871a11.388,11.388,0,0,0-2.019-.19h-8.294L382.4,469.519h40.175v-28.8Z" transform="translate(-317.436 -328.076)"/><g transform="translate(38.21)"><rect class="j" width="19.084" height="14.656" transform="translate(15.612 58.949)"/><path class="n" d="M402.422,324.71a13.975,13.975,0,0,1,8.442,16.31l-4.349,17.823a13.975,13.975,0,0,1-10.074,10.217l-2.647.685a13.975,13.975,0,0,1-7.088-.021l-2.373-.63a13.976,13.976,0,0,1-9.992-10.2l-4.362-17.879a13.975,13.975,0,0,1,8.442-16.31Z" transform="translate(-365.268 -303.841)"/><g transform="translate(11.472 33.28)"><g transform="translate(19.486)"><path d="M414.946,345.643H409.9a1.409,1.409,0,0,1,0-2.818h5.05a1.409,1.409,0,0,1,0,2.818Z" transform="translate(-408.476 -342.825)"/><path class="o" d="M2.137,0A2.137,2.137,0,1,1,0,2.137,2.137,2.137,0,0,1,2.137,0Z" transform="translate(0 5.886)"/><path class="p" d="M412.145,355.2a1.06,1.06,0,1,1-1.06-1.06A1.06,1.06,0,0,1,412.145,355.2Z" transform="translate(-408.96 -346.387)"/></g><path class="q" d="M386.489,345.643h-5.049a1.409,1.409,0,1,1,0-2.818h5.049a1.409,1.409,0,1,1,0,2.818Z" transform="translate(-380.03 -342.825)"/><circle cx="2.137" cy="2.137" r="2.137" transform="translate(3.605 5.886)"/><path class="p" d="M388.83,355.2a1.06,1.06,0,1,1-1.06-1.06A1.059,1.059,0,0,1,388.83,355.2Z" transform="translate(-382.134 -346.387)"/><g transform="translate(11.816 2.956)"><path class="j" d="M402.116,361.462h-3.75a1.089,1.089,0,1,1,0-2.179h2.419l-2.184-10.84a1.089,1.089,0,1,1,2.136-.43l2.447,12.144a1.089,1.089,0,0,1-1.067,1.3Z" transform="translate(-397.276 -347.139)"/></g><g transform="translate(8.084 21.005)"><path class="r" d="M398.8,377.705h-2.751a4.223,4.223,0,0,1-4.223-4.223h11.2A4.223,4.223,0,0,1,398.8,377.705Z" transform="translate(-391.829 -373.483)"/><path class="p" d="M401.514,373.483h-9.685a4.193,4.193,0,0,0,.57,2.111h8.43Z" transform="translate(-391.829 -373.483)"/></g></g><g transform="translate(2.997 38.851)"><path class="j" d="M373.323,360.337H372.1a4.409,4.409,0,0,1-4.317-4l-.111-1.388a3.635,3.635,0,0,1,3.676-4,1.323,1.323,0,0,1,1.319,1.217Z" transform="translate(-367.661 -350.956)"/><path class="j" d="M372.524,360.512h-.538a1.942,1.942,0,0,1-1.9-1.761l-.049-.612a1.6,1.6,0,0,1,1.62-1.761h.538Z" transform="translate(-368.406 -352.663)"/><g transform="translate(38.651)"><path class="j" d="M424.075,360.337H425.3a4.409,4.409,0,0,0,4.317-4l.111-1.388a3.635,3.635,0,0,0-3.676-4,1.323,1.323,0,0,0-1.319,1.217Z" transform="translate(-424.075 -350.956)"/><path class="j" d="M426.33,360.512h.538a1.942,1.942,0,0,0,1.9-1.761l.049-.612a1.6,1.6,0,0,0-1.62-1.761h-.538Z" transform="translate(-424.785 -352.663)"/></g></g><path class="s" d="M408.171,304.973c-6.92,0-9.672,2.768-11.058,5.854-3.219,7.168.479,11.572,3.264,15.921,1.242,1.94,1.056,5.741-1.463,8.122a7.776,7.776,0,0,0,7.569-4.189,11.03,11.03,0,0,1-1.1,3.257c4.472-1.448,5.107-5.4,3.994-9.856l.047.013a10.986,10.986,0,0,1,3.785,7.11,10.827,10.827,0,0,0,1.383-3.093c2.547,4.077,3.281,10.7,1.155,18.105C429.775,328.24,424.527,304.973,408.171,304.973Z" transform="translate(-373.544 -297.627)"/><path class="s" d="M377.76,324.081c-.878,1.951-1.724,4.555-3.211,7.316,4.249-.989,7.249-2.469,8.741-5.72a9.852,9.852,0,0,1-3.612,5.85c3.72-.24,6.043-1.874,6.981-4.237.1,2.116.186,3.255.308,5.2,4.555-6.229,6.278-14.495,3.058-21.663-1.386-3.086-4.138-5.854-11.058-5.854-16.356,0-21.6,23.267-7.578,41.243C368.172,335,371.5,325.594,377.76,324.081Z" transform="translate(-363.286 -297.627)"/><path class="t" d="M393.013,299.124a30.677,30.677,0,0,1,3.526,6.056,8.558,8.558,0,0,0-8.562-10.929A30.612,30.612,0,0,1,393.013,299.124Z" transform="translate(-371.06 -294.251)"/><path class="s" d="M399.264,299.166a25.4,25.4,0,0,1,.552,6.137,11.291,11.291,0,0,0,1.473-6.359,4.769,4.769,0,0,0-2.893-4.3C398.306,295.608,398.807,297.023,399.264,299.166Z" transform="translate(-374.338 -294.374)"/></g><path class="n" d="M369.976,401.681a23.309,23.309,0,0,0,41.141,0l-21.81-2.741Z" transform="translate(-327.182 -328.076)"/><g transform="translate(0 124.495)"><g transform="translate(73.035)"><path class="n" d="M442.118,482.653v10.253h26.036a8.472,8.472,0,1,0-2.2-16.654Z" transform="translate(-422.932 -475.958)"/><path class="u" d="M439.859,485.093v7.848h-6.185a7.848,7.848,0,0,1-7.848-7.848Z" transform="translate(-417.802 -478.834)"/><path class="u" d="M430.562,485.093H425.02a4.534,4.534,0,0,0-3.205,1.327l-7.7,7.685a5.728,5.728,0,0,0,8.1,0l3.285-3.285h5.062Z" transform="translate(-414.115 -478.834)"/><path class="j" d="M453.115,490.438a5.345,5.345,0,0,1-5.345,5.345h-8.6v-10.69h8.6A5.345,5.345,0,0,1,453.115,490.438Z" transform="translate(-422.004 -478.834)"/><path class="v" d="M425.886,487.556l3.63-3.63a2.864,2.864,0,0,0-4.05-4.05l-3.63,3.63a2.864,2.864,0,1,0,4.05,4.05Z" transform="translate(-416.282 -476.928)"/><path class="v" d="M433.413,495.556l3.63-3.63a2.864,2.864,0,0,0-4.05-4.05l-3.63,3.63a2.864,2.864,0,0,0,4.05,4.05Z" transform="translate(-418.652 -479.447)"/><path class="v" d="M439.94,495.556l3.63-3.63a2.864,2.864,0,1,0-4.05-4.05l-3.63,3.63a2.864,2.864,0,0,0,4.05,4.05Z" transform="translate(-420.707 -479.447)"/><path class="n" d="M446.467,495.556l3.63-3.63a2.864,2.864,0,1,0-4.05-4.05l-3.63,3.63a2.864,2.864,0,0,0,4.05,4.05Z" transform="translate(-422.762 -479.447)"/></g><path class="n" d="M342.024,482.653v10.253H315.988a8.472,8.472,0,1,1,2.2-16.654Z" transform="translate(-307.516 -475.958)"/><path class="u" d="M353.692,485.093v7.848h6.185a7.848,7.848,0,0,0,7.848-7.848Z" transform="translate(-322.055 -478.834)"/><path class="u" d="M361.881,485.093h5.541a4.534,4.534,0,0,1,3.205,1.327l7.7,7.685a5.728,5.728,0,0,1-8.1,0l-3.285-3.285h-5.062Z" transform="translate(-324.633 -478.834)"/><path class="j" d="M340.478,490.438a5.345,5.345,0,0,0,5.345,5.345h8.6v-10.69h-8.6A5.345,5.345,0,0,0,340.478,490.438Z" transform="translate(-317.894 -478.834)"/><path class="v" d="M369.813,487.556l-3.63-3.63a2.864,2.864,0,1,1,4.05-4.05l3.63,3.63a2.864,2.864,0,0,1-4.05,4.05Z" transform="translate(-325.724 -476.928)"/><path class="v" d="M362.286,495.556l-3.63-3.63a2.864,2.864,0,1,1,4.05-4.05l3.63,3.63a2.864,2.864,0,0,1-4.05,4.05Z" transform="translate(-323.354 -479.447)"/><path class="v" d="M355.759,495.556l-3.63-3.63a2.864,2.864,0,0,1,4.05-4.05l3.63,3.63a2.864,2.864,0,0,1-4.05,4.05Z" transform="translate(-321.299 -479.447)"/><path class="n" d="M349.232,495.556l-3.63-3.63a2.864,2.864,0,1,1,4.05-4.05l3.63,3.63a2.864,2.864,0,0,1-4.05,4.05Z" transform="translate(-319.244 -479.447)"/></g></g><g transform="translate(25.335 96.156)"><path class="w" d="M412.926,479.883H352.12a3.208,3.208,0,0,1-3.188-2.846l-4.417-38.87A3.208,3.208,0,0,1,347.7,434.6h69.642a3.208,3.208,0,0,1,3.187,3.571l-4.417,38.87A3.208,3.208,0,0,1,412.926,479.883Z" transform="translate(-344.494 -434.596)"/><ellipse class="c" cx="6.781" cy="6.108" rx="6.781" ry="6.108" transform="translate(31.248 16.536)"/></g></g></g><g transform="translate(120.759 37.038)"><g transform="translate(311.73 93.471)"><rect class="x" width="40.016" height="40.016" rx="9.973"/><text class="y" transform="translate(20.91 24.675)"><tspan x="-11.557" y="0">IOT</tspan></text></g><g transform="translate(256.428 200.697)"><rect class="l" width="66.205" height="55.027" rx="11" transform="translate(0.442)"/><text class="y" transform="translate(33.442 23.479)"><tspan x="-18.858" y="0">Block</tspan><tspan x="-19.117" y="13">chain</tspan></text></g><g transform="translate(245.664 56.668)"><rect class="z" width="30.795" height="30.795" rx="5.681" transform="translate(-4 -4)"/><text class="aa" transform="translate(11.565 15.177)"><tspan x="-9.927" y="0">K8s</tspan></text></g><g transform="translate(153.878 28.1)"><rect class="ab" width="59.271" height="59.271" rx="15.774" transform="translate(0.307 0.33)"/><text class="ac" transform="translate(29.307 32.868)"><tspan x="-21.078" y="0">CLOUD</tspan></text></g><g transform="translate(101.946 83.692)"><rect class="z" width="40.016" height="40.016" rx="9.973" transform="translate(0)"/><text class="y" transform="translate(20.242 25.112)"><tspan x="-15.365" y="0">AWS</tspan></text></g><g transform="translate(60.543 156.613)"><path class="n" d="M7.464,0H36.487a7.465,7.465,0,0,1,7.465,7.465V34.487a7.465,7.465,0,0,1-7.465,7.465H7.465A7.465,7.465,0,0,1,0,34.487V7.464A7.464,7.464,0,0,1,7.464,0Z" transform="translate(-5 -5)"/><text class="ac" transform="translate(17.427 20.079)"><tspan x="-17.376" y="0">AI/ML</tspan></text></g><g transform="translate(379.28 255.724)"><rect class="j" width="40.016" height="40.016" rx="9.973"/><g transform="translate(6.787 10.981)"><path class="c" d="M203.451,89.718a1.541,1.541,0,0,0-.663-1.344,3.332,3.332,0,0,0-1.925-.465V85.492a3.457,3.457,0,0,0,1.931-.445,1.447,1.447,0,0,0,.657-1.274v-3.3a2.389,2.389,0,0,1,.98-2.178,6.765,6.765,0,0,1,3.447-.632v2.275a2.138,2.138,0,0,0-1.38.384,1.355,1.355,0,0,0-.38,1.041v3.023q-.061,1.9-2.365,2.244v.121q2.366.354,2.365,2.143v3.113a1.367,1.367,0,0,0,.374,1.041,2.135,2.135,0,0,0,1.385.384v2.285a6.774,6.774,0,0,1-3.447-.632,2.4,2.4,0,0,1-.98-2.189Z" transform="translate(-200.863 -77.668)"/><path class="c" d="M233.646,92.9a2.915,2.915,0,0,1-.415,1.709,2.42,2.42,0,0,1-1.37.844,10.247,10.247,0,0,1-2.643.268V93.437a2.147,2.147,0,0,0,1.38-.364,1.363,1.363,0,0,0,.379-1.061V88.878a1.815,1.815,0,0,1,.6-1.41,3.284,3.284,0,0,1,1.759-.713v-.121q-2.295-.343-2.356-2.244V81.368a1.36,1.36,0,0,0-.374-1.051,2.184,2.184,0,0,0-1.385-.374V77.668a10.316,10.316,0,0,1,2.649.268,2.385,2.385,0,0,1,1.37.85,2.928,2.928,0,0,1,.409,1.693v3.315a1.44,1.44,0,0,0,.622,1.274,3.554,3.554,0,0,0,1.966.425v2.416a3.659,3.659,0,0,0-1.925.415,1.517,1.517,0,0,0-.663,1.395Z" transform="translate(-209.791 -77.668)"/></g></g><g transform="translate(15.527 235.716)"><rect class="l" width="40.016" height="40.016" rx="9.973"/><g transform="translate(8.159 14.248)"><path class="c" d="M140.491,439.238l-7.823-3.45V434.66l7.823-3.907v1.89l-5.389,2.5,5.389,2.214Z" transform="translate(-132.668 -429.318)"/><path class="c" d="M151.736,428.659l-4.294,11.519h-2.182l4.294-11.519Z" transform="translate(-136.632 -428.659)"/><path class="c" d="M155.838,437.355l5.389-2.214-5.389-2.5v-1.89l7.824,3.907v1.127l-7.824,3.45Z" transform="translate(-139.963 -429.318)"/></g></g><g transform="translate(351.746 194.928)"><rect class="ab" width="27.533" height="27.533" rx="6.862"/><g transform="translate(9.652 12.845)"><path class="c" d="M678.611,455.292a.913.913,0,0,1,.244-.689.993.993,0,0,1,.711-.233.962.962,0,0,1,.7.238,1.053,1.053,0,0,1,0,1.359.948.948,0,0,1-.694.246.975.975,0,0,1-.705-.241A.905.905,0,0,1,678.611,455.292Z" transform="translate(-678.611 -454.371)"/><path class="c" d="M683.232,455.292a.913.913,0,0,1,.244-.689.993.993,0,0,1,.71-.233.964.964,0,0,1,.7.238,1.054,1.054,0,0,1,0,1.359.946.946,0,0,1-.693.246.973.973,0,0,1-.7-.241A.9.9,0,0,1,683.232,455.292Z" transform="translate(-680.066 -454.371)"/><path class="c" d="M687.853,455.292a.912.912,0,0,1,.243-.689.993.993,0,0,1,.711-.233.965.965,0,0,1,.7.238,1.055,1.055,0,0,1,0,1.359.948.948,0,0,1-.694.246.972.972,0,0,1-.7-.241A.9.9,0,0,1,687.853,455.292Z" transform="translate(-681.521 -454.371)"/></g></g><g transform="translate(117.504 151.613)"><path class="ad" d="M330.379,316.146h-12.1a.889.889,0,0,0-.887.945l.236,6.077a6.616,6.616,0,0,0,1.283,3,4.461,4.461,0,0,0,1.564,1.9,6.291,6.291,0,0,0,1.177.5,2.821,2.821,0,0,0,5.349,0,6.29,6.29,0,0,0,1.177-.5,4.453,4.453,0,0,0,1.563-1.9,6.808,6.808,0,0,0,1.274-2.917c.01,0,.247-6.157.247-6.157A.888.888,0,0,0,330.379,316.146Z" transform="translate(-300.176 -276.531)"/><path class="ae" d="M330.336,296.592a12.4,12.4,0,1,0-16.552.431,11.05,11.05,0,0,1,2.423,3.023c.121.216.282.426.481,3.2h10.262c.177-2.754.326-2.941.442-3.132A17.1,17.1,0,0,1,330.336,296.592Z" transform="translate(-297.667 -263.634)"/><g transform="translate(23.469)"><path class="ad" d="M327.2,264.822a.685.685,0,0,1-.685-.685v-5.126a.685.685,0,0,1,1.37,0v5.126A.685.685,0,0,1,327.2,264.822Z" transform="translate(-326.518 -258.326)"/></g><g transform="translate(11.734 3.143)"><path class="ad" d="M312.639,268.724a.684.684,0,0,1-.594-.343l-2.563-4.439a.685.685,0,0,1,1.187-.685l2.562,4.439a.685.685,0,0,1-.593,1.028Z" transform="translate(-309.39 -262.914)"/></g><g transform="translate(3.143 11.734)"><path class="ad" d="M301.975,279.386a.686.686,0,0,1-.342-.091l-4.439-2.563a.685.685,0,1,1,.685-1.187l4.439,2.562a.685.685,0,0,1-.343,1.279Z" transform="translate(-296.852 -275.453)"/></g><g transform="translate(0 23.469)"><path class="ad" d="M298.074,293.95h-5.125a.685.685,0,0,1,0-1.37h5.125a.685.685,0,0,1,0,1.37Z" transform="translate(-292.264 -292.58)"/></g><g transform="translate(3.143 32.64)"><path class="ad" d="M297.538,309.9a.685.685,0,0,1-.344-1.279l4.439-2.562a.685.685,0,0,1,.685,1.187l-4.439,2.562A.679.679,0,0,1,297.538,309.9Z" transform="translate(-296.852 -305.966)"/></g><g transform="translate(39.354 32.64)"><path class="ad" d="M354.827,309.9a.68.68,0,0,1-.342-.092l-4.439-2.562a.685.685,0,0,1,.685-1.187l4.439,2.562a.685.685,0,0,1-.343,1.279Z" transform="translate(-349.704 -305.966)"/></g><g transform="translate(41.812 23.469)"><path class="ad" d="M359.1,293.95h-5.126a.685.685,0,0,1,0-1.37H359.1a.685.685,0,1,1,0,1.37Z" transform="translate(-353.291 -292.58)"/></g><g transform="translate(39.354 11.734)"><path class="ad" d="M350.39,279.385a.685.685,0,0,1-.343-1.278l4.439-2.562a.685.685,0,0,1,.685,1.187l-4.439,2.563A.686.686,0,0,1,350.39,279.385Z" transform="translate(-349.704 -275.452)"/></g><g transform="translate(32.64 3.144)"><path class="ad" d="M340.588,268.724A.685.685,0,0,1,340,267.7l2.562-4.439a.685.685,0,0,1,1.187.685l-2.562,4.439A.687.687,0,0,1,340.588,268.724Z" transform="translate(-339.904 -262.915)"/></g><g transform="translate(18.563 40.842)"><path class="af" d="M320.042,321.671a.685.685,0,0,1-.16-1.352l9.811-2.362a.685.685,0,1,1,.321,1.333l-9.811,2.362A.691.691,0,0,1,320.042,321.671Z" transform="translate(-319.358 -317.938)"/></g><g transform="translate(18.563 43.205)"><path class="af" d="M320.042,325.119a.685.685,0,0,1-.16-1.352l9.811-2.362a.685.685,0,1,1,.321,1.333L320.2,325.1A.727.727,0,0,1,320.042,325.119Z" transform="translate(-319.358 -321.386)"/></g><g transform="translate(18.563 45.568)"><path class="af" d="M320.042,328.567a.685.685,0,0,1-.16-1.351l9.811-2.363a.686.686,0,0,1,.321,1.333l-9.811,2.362A.727.727,0,0,1,320.042,328.567Z" transform="translate(-319.358 -324.835)"/></g><g transform="translate(17.564 19.325)"><path class="c" d="M323.976,292.608h-3.039a3.038,3.038,0,1,1,3.039-3.038Zm-3.039-4.706a1.668,1.668,0,0,0,0,3.336h1.668v-1.668A1.67,1.67,0,0,0,320.938,287.9Z" transform="translate(-317.9 -286.532)"/><g transform="translate(7.103)"><path class="c" d="M331.3,292.608h-3.037v-3.038a3.038,3.038,0,1,1,3.037,3.038Zm-1.667-1.37H331.3a1.668,1.668,0,1,0-1.667-1.668Z" transform="translate(-328.267 -286.532)"/></g><g transform="translate(4.706 4.706)"><path class="c" d="M328.536,308.985h-1.37V294.772h-1.026v14.213h-1.37V293.4h3.767Z" transform="translate(-324.769 -293.401)"/></g></g></g><path class="ag" d="M419.676,188.394h-7.506v1.888h7.506Zm20.174,0h-16.4v1.888h16.4Zm-12.62,3.833h-15.06v1.889h15.06Zm31.5,0H431.006v1.889h27.727Zm-31.5,3.834h-15.06v1.888h15.06Zm3.776,1.888h8.844v-1.888h-8.844Zm31.5-5.722v1.889h8.842v-1.889Zm18.884,9.556H495.9V199.9H481.394Zm-5.665,3.834h8.842v-1.888h-8.842ZM419.676,199.9h-7.506v1.888h7.506Zm3.776,1.888h54.164V199.9H423.452Zm-3.776,1.946h-7.506v1.888h7.506Zm3.776,1.888h48.5v-1.888h-48.5Zm20.174-7.668h48.5v-1.888h-48.5Zm-16.4,9.614h-15.06v1.888h15.06Zm31.5,0H431.006v1.888h27.727Zm-52.544-17.281h1.842v-1.888h-1.842Zm0,3.834h1.842v-1.889h-1.842Zm0,3.833h1.842v-1.888h-1.842Zm0,3.834h1.842V199.9h-1.842Zm0,3.834h1.842v-1.888h-1.842Zm0,3.834h1.842v-1.888h-1.842Zm17.263,3.541h-7.506v1.888h7.506Zm3.777,1.888h16.4v-1.888h-16.4Zm-3.777,1.946h-7.506v1.888h7.506Zm3.777,1.888h35.28v-1.888h-35.28Zm-3.777,1.945h-7.506v1.889h7.506Zm3.777,1.889h54.164V220.66H427.229Zm-3.777,1.945h-7.506v1.888h7.506Zm3.777,1.888h35.28v-1.888h-35.28Zm-11.284,3.834h7.506v-1.888h-7.506Zm11.284,0h23.95v-1.888h-23.95Zm-3.777,1.944h-7.506v1.888h7.506Zm14.509,0H427.229v1.888h10.731Zm35.28-24.6H462.51v1.888h10.731Zm3.777,1.888h10.731v-1.888H477.018Zm7.654,13.1H495.4V220.66H484.672Zm-7.654,3.833v-1.888H466.286v1.888Zm-25.838,13.1H461.91v-1.888H451.18Zm48.5,5.78H488.947v1.888h10.731ZM479.5,250.981h10.731v-1.888H479.5Zm-9.442,3.833h10.731v-1.888H470.063Zm-18.883,3.833H461.91v-1.888H451.18Zm14.507,0h10.731v-1.888H465.687Zm28.326-9.554v1.888h10.731v-1.888Zm-16.995-32.266H466.286v1.888h10.731Zm3.776,1.888h10.731v-1.888H480.794Zm-74.605-3.834h1.842v-1.888h-1.842Zm0,3.834h1.842v-1.888h-1.842Zm0,3.834h1.842V220.66h-1.842Zm0,3.833h1.842v-1.888h-1.842Zm0,3.834h1.842v-1.888h-1.842Zm0,3.832h1.842V232.16h-1.842Zm13.534,5.431h7.506v-1.888h-7.506Zm11.283-1.888v1.888h16.4v-1.888Zm-11.283,5.722h7.506v-1.888h-7.506Zm11.283,0h35.281v-1.888H431.006Zm-11.283,3.834h7.506v-1.888h-7.506Zm65.447-1.888H431.006v1.888H485.17Zm-65.447,5.722h7.506v-1.888h-7.506Zm56.005-1.888H431.006v1.888h44.722Zm12.62-60.7H443.626v1.888h44.722Zm-68.625,66.419h7.506v-1.888h-7.506Zm11.283,0h35.281v-1.888H431.006Zm59.23-26.485h-35.28v1.888h35.28Zm-70.513,30.319h7.506v-1.888h-7.506Zm11.283,0h16.4v-1.888h-16.4Zm-24.817-19.167h1.842v-1.888h-1.842Zm0,3.834h1.842v-1.888h-1.842Zm0,3.834h1.842v-1.888h-1.842Zm0,3.833h1.842v-1.888h-1.842Zm0,3.833h1.842v-1.888h-1.842Zm0,3.833h1.842v-1.888h-1.842Zm-17.132-65.475h3.833v-3.834h-3.833Zm6.045-.972h6.549v-1.888H395.1Zm-6.045,8.64h3.833v-3.834h-3.833Zm6.045-.974h6.549v-1.888H395.1Zm-6.045,8.641h3.833v-3.834h-3.833Zm6.045-.973h6.549v-1.889H395.1Zm-6.045,8.64h3.833V212.34h-3.833Zm6.045-.973h6.549v-1.888H395.1Zm-6.045,8.64h3.833v-3.833h-3.833Zm6.045-.972h6.549v-1.888H395.1Z" transform="translate(-205.236 -84.694)"/></g></g></svg>