<svg id="Group_7613" data-name="Group 7613" xmlns="http://www.w3.org/2000/svg" xmlns:xlink="http://www.w3.org/1999/xlink" width="415.209" height="293.453" viewBox="0 0 415.209 293.453">
  <defs>
    <clipPath id="clip-path">
      <rect id="Rectangle_6731" data-name="Rectangle 6731" width="415.209" height="293.453" fill="none"/>
    </clipPath>
  </defs>
  <g id="Group_7612" data-name="Group 7612" clip-path="url(#clip-path)">
    <path id="Path_40607" data-name="Path 40607" d="M64.111,241.558H4.889A4.889,4.889,0,0,1,0,236.669V204.447a4.889,4.889,0,0,1,4.889-4.889H64.111A4.889,4.889,0,0,1,69,204.447v32.222a4.889,4.889,0,0,1-4.889,4.889" fill="#e30045"/>
    <path id="Path_40608" data-name="Path 40608" d="M106.413,163H49.051a10.319,10.319,0,0,1-10.319-10.319V127.319A10.319,10.319,0,0,1,49.051,117h57.362a10.319,10.319,0,0,1,10.319,10.319v25.362A10.319,10.319,0,0,1,106.413,163" fill="#f2beb7"/>
    <path id="Path_40609" data-name="Path 40609" d="M142.256,91H92.31A11.527,11.527,0,0,1,80.783,79.473V56.527A11.527,11.527,0,0,1,92.31,45h49.946a11.527,11.527,0,0,1,11.527,11.527V79.473A11.527,11.527,0,0,1,142.256,91" fill="#151515"/>
    <path id="Path_40610" data-name="Path 40610" d="M400.012,109H350.066a11.527,11.527,0,0,1-11.527-11.527V74.527A11.527,11.527,0,0,1,350.066,63h49.946a11.527,11.527,0,0,1,11.527,11.527V97.473A11.527,11.527,0,0,1,400.012,109" fill="#4a5874"/>
    <path id="Path_40611" data-name="Path 40611" d="M391.066,293.452H19.4a3.351,3.351,0,1,1-.172-6.7H391.066a3.351,3.351,0,1,1,.172,6.7h-.172Z" fill="#c7d5e4"/>
    <path id="Path_40612" data-name="Path 40612" d="M85.618,281.779V194.862a14.719,14.719,0,0,1,9.229-13.81,15.128,15.128,0,0,1,5.808-1.173,14.769,14.769,0,0,1,10.485,4.414l8.359,8.359-4.387,4.387-8.359-8.358a8.627,8.627,0,0,0-6.12-2.588,8.859,8.859,0,0,0-3.411.692,8.611,8.611,0,0,0-5.4,8.08v86.916Z" fill="#afbbc6"/>
    <path id="Path_40613" data-name="Path 40613" d="M70.532,286.746H106.91a6.337,6.337,0,0,0-6.335-6.337H76.867a6.338,6.338,0,0,0-6.338,6.337" fill="#c7d5e4"/>
    <path id="Path_40614" data-name="Path 40614" d="M118.6,225.111c-5.528-5.528-3.273-16.745,5.037-25.056s19.528-10.565,25.055-5.038Z" fill="#c7d5e4"/>
    <path id="Path_40615" data-name="Path 40615" d="M135.178,193.545l-18.832,18.832-6.84-13.457a9.085,9.085,0,0,1,12.215-12.215Z" fill="#c7d5e4"/>
    <path id="Path_40616" data-name="Path 40616" d="M148.7,195.017c2.763,2.764-1.734,11.741-10.044,20.051s-17.29,12.807-20.051,10.043,1.733-11.741,10.043-20.051,17.283-12.8,20.052-10.043" fill="#f1f2f2"/>
    <path id="Path_40617" data-name="Path 40617" d="M124.279,211.666c.068.075.137.149.211.222A7.767,7.767,0,0,0,135.475,200.9c-.074-.073-.148-.142-.222-.211a49.181,49.181,0,0,0-10.974,10.973" fill="#fff"/>
    <path id="Path_40618" data-name="Path 40618" d="M301.2,271.764h54.182v2.055h-2.617v10.87h2.615v2.055H301.2a7.49,7.49,0,0,1,0-14.981Z" fill="#b0bbd9"/>
    <path id="Path_40619" data-name="Path 40619" d="M353.326,284.69V273.82H301.2a5.435,5.435,0,0,0,0,10.87Z" fill="#cecece"/>
    <rect id="Rectangle_6716" data-name="Rectangle 6716" width="52.851" height="0.685" transform="translate(300.477 275.253)" fill="#dadbdb"/>
    <rect id="Rectangle_6717" data-name="Rectangle 6717" width="52.851" height="0.685" transform="translate(300.477 277.082)" fill="#dadbdb"/>
    <rect id="Rectangle_6718" data-name="Rectangle 6718" width="52.851" height="0.685" transform="translate(300.477 278.912)" fill="#dadbdb"/>
    <rect id="Rectangle_6719" data-name="Rectangle 6719" width="52.851" height="0.685" transform="translate(300.477 280.741)" fill="#dadbdb"/>
    <rect id="Rectangle_6720" data-name="Rectangle 6720" width="52.851" height="0.685" transform="translate(300.477 282.57)" fill="#dadbdb"/>
    <path id="Path_40620" data-name="Path 40620" d="M296.2,269.709v-8.09h-3.175v-2.055h49.81a6.1,6.1,0,1,1,0,12.2h-49.81v-2.055Z" fill="#f9b09f"/>
    <path id="Path_40621" data-name="Path 40621" d="M342.836,269.709a4.047,4.047,0,1,0,0-8.093H295.081v8.093Z" fill="#cecece"/>
    <rect id="Rectangle_6721" data-name="Rectangle 6721" width="48.492" height="0.685" transform="translate(295.081 262.876)" fill="#dadbdb"/>
    <rect id="Rectangle_6722" data-name="Rectangle 6722" width="48.492" height="0.685" transform="translate(295.081 264.506)" fill="#dadbdb"/>
    <rect id="Rectangle_6723" data-name="Rectangle 6723" width="48.492" height="0.685" transform="translate(295.081 266.135)" fill="#dadbdb"/>
    <rect id="Rectangle_6724" data-name="Rectangle 6724" width="48.492" height="0.685" transform="translate(295.081 267.765)" fill="#dadbdb"/>
    <path id="Path_40622" data-name="Path 40622" d="M349.5,257.505v-8.093h3.169v-2.055H309.713a6.1,6.1,0,0,0,0,12.2h42.959V257.5Z" fill="#00d1d2"/>
    <path id="Path_40623" data-name="Path 40623" d="M309.714,257.505a4.047,4.047,0,1,1-.128-8.093c.042,0,.085,0,.128,0h40.9v8.093Z" fill="#cecece"/>
    <rect id="Rectangle_6725" data-name="Rectangle 6725" width="41.641" height="0.685" transform="translate(308.976 250.672)" fill="#dadbdb"/>
    <rect id="Rectangle_6726" data-name="Rectangle 6726" width="41.641" height="0.685" transform="translate(308.976 252.301)" fill="#dadbdb"/>
    <rect id="Rectangle_6727" data-name="Rectangle 6727" width="41.641" height="0.685" transform="translate(308.976 253.931)" fill="#dadbdb"/>
    <rect id="Rectangle_6728" data-name="Rectangle 6728" width="41.641" height="0.685" transform="translate(308.976 255.56)" fill="#dadbdb"/>
    <path id="Path_40624" data-name="Path 40624" d="M126.99,286.752H115.166l-2.144-18.98h16.114Z" fill="#e0c5da"/>
    <path id="Path_40625" data-name="Path 40625" d="M131.438,283.089h-5.3V282.1h5.3a4.8,4.8,0,0,0,0-9.606h-5.3V271.5h5.3a5.8,5.8,0,0,1,0,11.593Z" fill="#e6d7e2"/>
    <path id="Path_40626" data-name="Path 40626" d="M121.077,267.765v18.987h5.913l2.144-18.98Z" fill="#e6d7e2"/>
    <path id="Path_40627" data-name="Path 40627" d="M145.018,271.652a10.359,10.359,0,0,0,9.548,14.75h17.7l-5.742-59.843Z" fill="#e9b2ab"/>
    <path id="Path_40628" data-name="Path 40628" d="M166.389,226.56l-8.68,18.559,10.916,5.209Z" fill="#c4003b"/>
    <path id="Path_40629" data-name="Path 40629" d="M151.344,243.941l-2.393,5.118a2.433,2.433,0,0,0,1.122,3.21l17.477,8.668-1.18-12.543L154.6,242.773a2.434,2.434,0,0,0-3.244,1.152l-.007.016" fill="#e30045"/>
    <path id="Path_40630" data-name="Path 40630" d="M245.072,227.56,239.33,286.4h17.7c7.733,0,12.839-7.754,9.55-14.5Z" fill="#e9b2ab"/>
    <path id="Path_40631" data-name="Path 40631" d="M245.152,227.56l8.68,18.559-10.916,5.209Z" fill="#c4003b"/>
    <path id="Path_40632" data-name="Path 40632" d="M259.121,243.607l2.393,5.118a2.433,2.433,0,0,1-1.122,3.21L242.915,260.6l1.18-12.543,11.775-5.619a2.433,2.433,0,0,1,3.243,1.149Z" fill="#e30045"/>
    <path id="Path_40633" data-name="Path 40633" d="M179.986,218.752h50.492a16.532,16.532,0,0,1,16.532,16.532v51.308H163.454V235.286a16.532,16.532,0,0,1,16.53-16.534Z" fill="#e30045"/>
    <path id="Path_40634" data-name="Path 40634" d="M172.766,218.944V241.63l-9.308,16.16v28.8h40.177l-20.557-67.838h-8.3a11.4,11.4,0,0,0-2.019.192M237.7,241.63V218.944a11.4,11.4,0,0,0-2.019-.19h-8.294l-20.554,67.838h40.175v-28.8Z" fill="#212121"/>
    <rect id="Rectangle_6729" data-name="Rectangle 6729" width="19.084" height="14.656" transform="translate(195.69 204.098)" fill="#e9b2ab"/>
    <path id="Path_40635" data-name="Path 40635" d="M217.232,166.018a13.974,13.974,0,0,1,8.442,16.31l-4.349,17.824a13.977,13.977,0,0,1-10.074,10.217l-2.647.685a13.978,13.978,0,0,1-7.088-.021l-2.373-.63a13.976,13.976,0,0,1-9.992-10.2l-4.362-17.879a13.975,13.975,0,0,1,8.442-16.31Z" fill="#f2beb7"/>
    <path id="Path_40636" data-name="Path 40636" d="M217.507,181.252H212.46a1.409,1.409,0,0,1,0-2.818h5.05a1.409,1.409,0,0,1,0,2.818Z"/>
    <path id="Path_40637" data-name="Path 40637" d="M213.173,184.315a2.137,2.137,0,1,1-2.137,2.137,2.137,2.137,0,0,1,2.137-2.137" fill="#0a0a0a"/>
    <path id="Path_40638" data-name="Path 40638" d="M214.221,187.242a1.06,1.06,0,1,1-1.06-1.06,1.061,1.061,0,0,1,1.06,1.06" fill="#fffefb"/>
    <path id="Path_40639" data-name="Path 40639" d="M198.01,181.252h-5.05a1.409,1.409,0,1,1-.009-2.818h5.059a1.409,1.409,0,1,1,.008,2.818h-.008Z" fill="#090909"/>
    <path id="Path_40640" data-name="Path 40640" d="M197.292,184.315a2.137,2.137,0,1,1-2.137,2.137,2.137,2.137,0,0,1,2.137-2.137"/>
    <path id="Path_40641" data-name="Path 40641" d="M198.247,187.242a1.06,1.06,0,1,1-1.061-1.06,1.061,1.061,0,0,1,1.061,1.06" fill="#fffefb"/>
    <path id="Path_40642" data-name="Path 40642" d="M208.206,195.708h-3.75a1.09,1.09,0,0,1-.066-2.179q.033,0,.066,0h2.419l-2.184-10.84a1.089,1.089,0,0,1,2.136-.43l2.447,12.144a1.088,1.088,0,0,1-.856,1.279h0a1.054,1.054,0,0,1-.21.021Z" fill="#e9b2ab"/>
    <path id="Path_40643" data-name="Path 40643" d="M206.6,203.652h-2.751a4.223,4.223,0,0,1-4.223-4.223h11.2a4.223,4.223,0,0,1-4.223,4.223Z" fill="#d53031"/>
    <path id="Path_40644" data-name="Path 40644" d="M209.32,199.434h-9.686a4.2,4.2,0,0,0,.57,2.111h8.43Z" fill="#fffefb"/>
    <path id="Path_40645" data-name="Path 40645" d="M188.738,193.381h-1.224a4.41,4.41,0,0,1-4.317-4l-.11-1.388a3.634,3.634,0,0,1,3.25-3.982,3.774,3.774,0,0,1,.425-.018,1.323,1.323,0,0,1,1.319,1.217Z" fill="#e9b2ab"/>
    <path id="Path_40646" data-name="Path 40646" d="M187.193,191.852h-.538a1.942,1.942,0,0,1-1.9-1.761l-.049-.612a1.6,1.6,0,0,1,1.431-1.753,1.706,1.706,0,0,1,.189-.008h.538Z" fill="#e9b2ab"/>
    <path id="Path_40647" data-name="Path 40647" d="M221.727,193.381h1.224a4.407,4.407,0,0,0,4.317-4l.112-1.388a3.637,3.637,0,0,0-3.252-3.982,3.765,3.765,0,0,0-.425-.018,1.323,1.323,0,0,0-1.319,1.217Z" fill="#e9b2ab"/>
    <path id="Path_40648" data-name="Path 40648" d="M223.266,191.852h.538a1.942,1.942,0,0,0,1.9-1.761l.049-.612a1.6,1.6,0,0,0-1.431-1.753,1.706,1.706,0,0,0-.189-.008H223.6Z" fill="#e9b2ab"/>
    <path id="Path_40649" data-name="Path 40649" d="M214.706,152.495c-6.921,0-9.673,2.768-11.059,5.854-3.219,7.168.479,11.572,3.264,15.921,1.243,1.94,1.056,5.741-1.462,8.122a7.778,7.778,0,0,0,7.569-4.189,11.017,11.017,0,0,1-1.1,3.257c4.472-1.448,5.107-5.4,3.994-9.856l.047.013a10.981,10.981,0,0,1,3.785,7.11,10.819,10.819,0,0,0,1.383-3.093c2.547,4.077,3.282,10.7,1.155,18.1,14.028-17.977,8.78-41.244-7.575-41.244" fill="#2b2b2b"/>
    <path id="Path_40650" data-name="Path 40650" d="M194.553,171.6c-.879,1.951-1.725,4.555-3.212,7.316,4.249-.989,7.249-2.469,8.742-5.72a9.867,9.867,0,0,1-3.612,5.85c3.719-.24,6.043-1.874,6.98-4.237.1,2.116.186,3.255.308,5.2,4.555-6.229,6.278-14.5,3.059-21.663-1.386-3.086-4.138-5.854-11.059-5.854-16.355,0-21.6,23.267-7.577,41.243-3.218-11.216.11-20.622,6.371-22.135" fill="#2b2b2b"/>
    <path id="Path_40651" data-name="Path 40651" d="M202.031,150.022a30.642,30.642,0,0,1,3.526,6.056,8.556,8.556,0,0,0-8.562-10.929,30.6,30.6,0,0,1,5.036,4.873" fill="#0f0f0f"/>
    <path id="Path_40652" data-name="Path 40652" d="M205.005,149.941a25.458,25.458,0,0,1,.551,6.137,11.292,11.292,0,0,0,1.473-6.359,4.769,4.769,0,0,0-2.893-4.3c-.09.964.412,2.379.869,4.522" fill="#2b2b2b"/>
    <path id="Path_40653" data-name="Path 40653" d="M184.667,218.752a23.308,23.308,0,0,0,41.14,0L204,216.011Z" fill="#f2beb7"/>
    <path id="Path_40654" data-name="Path 40654" d="M234.089,276.339v10.253h26.036a8.472,8.472,0,1,0-2.2-16.654Z" fill="#f2beb7"/>
    <path id="Path_40655" data-name="Path 40655" d="M236.96,275.9v7.849h-6.185a7.848,7.848,0,0,1-7.848-7.848Z" fill="#f5916e"/>
    <path id="Path_40656" data-name="Path 40656" d="M231.35,275.9h-5.542a4.532,4.532,0,0,0-3.205,1.327l-7.7,7.685a5.727,5.727,0,0,0,8.1,0h0l3.285-3.285h5.062Z" fill="#f5916e"/>
    <path id="Path_40657" data-name="Path 40657" d="M246.014,281.252a5.345,5.345,0,0,1-5.345,5.345h-8.6v-10.69h8.6a5.345,5.345,0,0,1,5.345,5.345" fill="#e9b2ab"/>
    <path id="Path_40658" data-name="Path 40658" d="M224.508,280.272l3.629-3.63a2.864,2.864,0,0,0-4.05-4.05l-3.629,3.63a2.864,2.864,0,0,0,4,4.1l.05-.051" fill="#ffa686"/>
    <path id="Path_40659" data-name="Path 40659" d="M229.667,285.752l3.629-3.63a2.864,2.864,0,0,0-4-4.1l-.051.051-3.63,3.63a2.864,2.864,0,0,0,4.05,4.05" fill="#ffa686"/>
    <path id="Path_40660" data-name="Path 40660" d="M234.137,285.752l3.629-3.63a2.864,2.864,0,0,0-4-4.1l-.051.051-3.63,3.63a2.864,2.864,0,0,0,4.05,4.05" fill="#ffa686"/>
    <path id="Path_40661" data-name="Path 40661" d="M238.609,285.752l3.629-3.63a2.864,2.864,0,0,0-4-4.1l-.05.051-3.631,3.63a2.864,2.864,0,0,0,4.05,4.05" fill="#f2beb7"/>
    <path id="Path_40662" data-name="Path 40662" d="M176.376,276.339v10.253H150.34a8.472,8.472,0,1,1,2.2-16.654Z" fill="#f2beb7"/>
    <path id="Path_40663" data-name="Path 40663" d="M173.505,275.9v7.849h6.185a7.848,7.848,0,0,0,7.848-7.848Z" fill="#f5916e"/>
    <path id="Path_40664" data-name="Path 40664" d="M179.117,275.9h5.54a4.532,4.532,0,0,1,3.205,1.327l7.7,7.685a5.727,5.727,0,0,1-8.1,0h0l-3.285-3.285h-5.062Z" fill="#f5916e"/>
    <path id="Path_40665" data-name="Path 40665" d="M164.452,281.252A5.345,5.345,0,0,0,169.8,286.6h8.6v-10.69h-8.6a5.345,5.345,0,0,0-5.345,5.345" fill="#e9b2ab"/>
    <path id="Path_40666" data-name="Path 40666" d="M185.958,280.272l-3.631-3.63a2.864,2.864,0,0,1,4.051-4.05l3.629,3.63a2.864,2.864,0,1,1-4,4.1l-.051-.051" fill="#ffa686"/>
    <path id="Path_40667" data-name="Path 40667" d="M180.8,285.752l-3.63-3.63a2.864,2.864,0,0,1,4.05-4.05l3.629,3.63a2.864,2.864,0,0,1-4,4.1l-.051-.051" fill="#ffa686"/>
    <path id="Path_40668" data-name="Path 40668" d="M176.329,285.752l-3.63-3.63a2.864,2.864,0,0,1,4.05-4.05l3.629,3.63a2.864,2.864,0,0,1-4.049,4.05" fill="#ffa686"/>
    <path id="Path_40669" data-name="Path 40669" d="M171.857,285.752l-3.63-3.63a2.864,2.864,0,0,1,4.05-4.05l3.629,3.63a2.864,2.864,0,0,1-4,4.1l-.051-.051" fill="#f2beb7"/>
    <path id="Path_40670" data-name="Path 40670" d="M235.635,286.592H174.829a3.208,3.208,0,0,1-3.188-2.846l-4.417-38.87a3.208,3.208,0,0,1,2.829-3.547,3.258,3.258,0,0,1,.357-.02h69.641a3.208,3.208,0,0,1,3.208,3.208,3.158,3.158,0,0,1-.021.363l-4.417,38.87a3.208,3.208,0,0,1-3.186,2.842" fill="#c5dcfd"/>
    <path id="Path_40671" data-name="Path 40671" d="M205.232,257.841c3.745,0,6.781,2.735,6.781,6.108s-3.036,6.108-6.781,6.108-6.781-2.735-6.781-6.108,3.036-6.108,6.781-6.108" fill="#fff"/>
    <path id="Path_40672" data-name="Path 40672" d="M281.784,173h44.205c6.075,0,11,4.206,11,9.4V210.6c0,5.189-4.925,9.4-11,9.4H281.784c-6.075,0-11-4.206-11-9.4V182.4c0-5.189,4.925-9.4,11-9.4" fill="#e30045"/>
    <path id="Path_40673" data-name="Path 40673" d="M385.167,206.646h20.069a9.974,9.974,0,0,1,9.974,9.973v20.07a9.974,9.974,0,0,1-9.974,9.973H385.167a9.973,9.973,0,0,1-9.974-9.973v-20.07a9.973,9.973,0,0,1,9.974-9.973" fill="#e9b2ab"/>
    <path id="Path_40674" data-name="Path 40674" d="M384.566,229.677a1.538,1.538,0,0,0-.663-1.344,3.326,3.326,0,0,0-1.925-.465v-2.416a3.456,3.456,0,0,0,1.931-.445,1.446,1.446,0,0,0,.657-1.274v-3.3a2.389,2.389,0,0,1,.98-2.178,6.758,6.758,0,0,1,3.447-.632V219.9a2.141,2.141,0,0,0-1.38.384,1.358,1.358,0,0,0-.38,1.041v3.023q-.062,1.9-2.365,2.244v.121q2.365.354,2.365,2.143v3.113a1.365,1.365,0,0,0,.374,1.041,2.135,2.135,0,0,0,1.385.384v2.285a6.781,6.781,0,0,1-3.447-.632,2.4,2.4,0,0,1-.98-2.189Z" fill="#fff"/>
    <path id="Path_40675" data-name="Path 40675" d="M405.836,232.859a2.913,2.913,0,0,1-.415,1.709,2.421,2.421,0,0,1-1.37.844,10.221,10.221,0,0,1-2.643.268V233.4a2.145,2.145,0,0,0,1.38-.364,1.358,1.358,0,0,0,.379-1.061v-3.134a1.815,1.815,0,0,1,.6-1.41,3.276,3.276,0,0,1,1.759-.713v-.121q-2.295-.341-2.36-2.241V221.33a1.362,1.362,0,0,0-.374-1.051,2.182,2.182,0,0,0-1.385-.374V217.63a10.355,10.355,0,0,1,2.649.268,2.383,2.383,0,0,1,1.37.85,2.924,2.924,0,0,1,.409,1.693v3.311a1.443,1.443,0,0,0,.622,1.274,3.551,3.551,0,0,0,1.966.425v2.416a3.657,3.657,0,0,0-1.925.415,1.516,1.516,0,0,0-.663,1.4Z" fill="#fff"/>
    <path id="Path_40676" data-name="Path 40676" d="M362.522,147.852h13.809a6.862,6.862,0,0,1,6.862,6.862v13.809a6.862,6.862,0,0,1-6.862,6.862H362.522a6.862,6.862,0,0,1-6.862-6.862V154.712a6.862,6.862,0,0,1,6.862-6.862" fill="#4a5874"/>
    <path id="Path_40677" data-name="Path 40677" d="M365.313,161.616a.908.908,0,0,1,.243-.689,1,1,0,0,1,.711-.233.963.963,0,0,1,.7.238,1.054,1.054,0,0,1,0,1.359.948.948,0,0,1-.694.246.973.973,0,0,1-.705-.241.9.9,0,0,1-.255-.68" fill="#fff"/>
    <path id="Path_40678" data-name="Path 40678" d="M368.478,161.616a.913.913,0,0,1,.244-.689.992.992,0,0,1,.71-.233.963.963,0,0,1,.7.238,1.054,1.054,0,0,1,0,1.359.945.945,0,0,1-.693.246.976.976,0,0,1-.7-.241.9.9,0,0,1-.261-.68" fill="#fff"/>
    <path id="Path_40679" data-name="Path 40679" d="M371.645,161.616a.912.912,0,0,1,.242-.689,1,1,0,0,1,.711-.233.963.963,0,0,1,.7.238,1.054,1.054,0,0,1,0,1.359.948.948,0,0,1-.694.246.97.97,0,0,1-.7-.241.9.9,0,0,1-.259-.68" fill="#fff"/>
    <path id="Path_40680" data-name="Path 40680" d="M161.622,160.152h-12.1a.89.89,0,0,0-.889.889v.056l.236,6.077a6.607,6.607,0,0,0,1.284,3,4.463,4.463,0,0,0,1.563,1.9,6.269,6.269,0,0,0,1.178.5,2.821,2.821,0,0,0,5.349,0,6.317,6.317,0,0,0,1.177-.5,4.447,4.447,0,0,0,1.562-1.9,6.8,6.8,0,0,0,1.274-2.917c.011,0,.248-6.157.248-6.157a.89.89,0,0,0-.827-.946h-.057" fill="#bfd5f7"/>
    <path id="Path_40681" data-name="Path 40681" d="M164.087,153.493a12.4,12.4,0,1,0-17.529-.5,12.228,12.228,0,0,0,.977.928,11.056,11.056,0,0,1,2.423,3.023c.121.216.282.426.481,3.2H160.7c.177-2.754.326-2.941.442-3.132a17.108,17.108,0,0,1,2.944-3.522" fill="#fdc957"/>
    <path id="Path_40682" data-name="Path 40682" d="M155.566,127.031a.685.685,0,0,1-.685-.685V121.22a.685.685,0,0,1,1.37,0v5.126a.685.685,0,0,1-.685.685" fill="#bfd5f7"/>
    <path id="Path_40683" data-name="Path 40683" d="M146.4,129.488a.685.685,0,0,1-.595-.343l-2.563-4.439a.686.686,0,0,1,1.188-.685l2.561,4.439a.685.685,0,0,1-.593,1.028Z" fill="#bfd5f7"/>
    <path id="Path_40684" data-name="Path 40684" d="M139.684,136.2a.684.684,0,0,1-.342-.091l-4.439-2.563a.685.685,0,1,1,.685-1.187l4.439,2.562a.685.685,0,0,1-.343,1.279" fill="#bfd5f7"/>
    <path id="Path_40685" data-name="Path 40685" d="M137.229,145.374H132.1a.685.685,0,0,1,0-1.37h5.125a.685.685,0,0,1,0,1.37" fill="#bfd5f7"/>
    <path id="Path_40686" data-name="Path 40686" d="M135.247,157.109a.685.685,0,0,1-.344-1.279l4.439-2.562a.685.685,0,1,1,.685,1.187l-4.439,2.562a.681.681,0,0,1-.341.092" fill="#bfd5f7"/>
    <path id="Path_40687" data-name="Path 40687" d="M175.9,157.109a.685.685,0,0,1-.342-.092l-4.439-2.562a.685.685,0,0,1,.685-1.187l4.439,2.562a.685.685,0,0,1-.343,1.279Z" fill="#bfd5f7"/>
    <path id="Path_40688" data-name="Path 40688" d="M179.04,145.374h-5.127a.685.685,0,0,1,0-1.37h5.127a.685.685,0,0,1,0,1.37" fill="#bfd5f7"/>
    <path id="Path_40689" data-name="Path 40689" d="M171.458,136.2a.685.685,0,0,1-.343-1.278l4.439-2.562a.685.685,0,1,1,.685,1.187l-4.439,2.563a.693.693,0,0,1-.342.09" fill="#bfd5f7"/>
    <path id="Path_40690" data-name="Path 40690" d="M164.742,129.488a.685.685,0,0,1-.678-.692.677.677,0,0,1,.09-.332l2.562-4.439a.685.685,0,0,1,1.187.685l-2.562,4.439a.688.688,0,0,1-.6.339" fill="#bfd5f7"/>
    <path id="Path_40691" data-name="Path 40691" d="M150.667,165.11a.685.685,0,0,1-.16-1.352l9.81-2.362a.686.686,0,1,1,.369,1.321.405.405,0,0,1-.047.012l-9.812,2.362a.673.673,0,0,1-.16.019" fill="#e7f0fe"/>
    <path id="Path_40692" data-name="Path 40692" d="M150.667,167.473a.685.685,0,0,1-.16-1.352l9.81-2.362a.686.686,0,0,1,.322,1.333l-9.815,2.362a.765.765,0,0,1-.157.019" fill="#e7f0fe"/>
    <path id="Path_40693" data-name="Path 40693" d="M150.667,169.835a.685.685,0,0,1-.16-1.351l9.81-2.363a.686.686,0,0,1,.322,1.333l-9.812,2.362a.728.728,0,0,1-.16.019" fill="#e7f0fe"/>
    <path id="Path_40694" data-name="Path 40694" d="M155.058,145.936H152.02a3.038,3.038,0,1,1,3.038-3.038Zm-3.038-4.706a1.668,1.668,0,0,0,0,3.336h1.668V142.9a1.671,1.671,0,0,0-1.668-1.67Z" fill="#fff"/>
    <path id="Path_40695" data-name="Path 40695" d="M159.118,145.936h-3.037V142.9a3.038,3.038,0,1,1,3.038,3.038Zm-1.667-1.37h1.667a1.668,1.668,0,1,0-1.667-1.669Z" fill="#fff"/>
    <path id="Path_40696" data-name="Path 40696" d="M157.456,160.152h-1.37V145.937h-1.026v14.215h-1.37V144.565h3.767Z" fill="#fff"/>
    <path id="Path_40697" data-name="Path 40697" d="M228.354,72.622h-7.506V74.51h7.506Zm20.174,0h-16.4V74.51h16.4Zm-12.62,3.83h-15.06v1.889h15.06Zm31.5,0H239.684v1.889h27.727Zm-31.5,3.834h-15.06v1.888h15.06Zm3.776,1.888h8.844V80.289h-8.844Zm31.5-3.833h8.842V76.452h-8.842Zm18.882,7.67h14.51V84.128h-14.5ZM284.4,89.845h8.842V87.957H284.4Zm-56.049-5.717h-7.506v1.888h7.506Zm3.776,1.888h54.164V84.128H232.13Zm-3.776,1.946h-7.506v1.89h7.506Zm3.776,1.888h48.5V87.962h-48.5ZM252.3,82.182h48.5V80.294H252.3ZM235.9,91.8h-15.06v1.888H235.9Zm31.5,0h-27.72v1.888h27.727ZM214.86,74.515H216.7V72.627H214.86Zm0,3.834H216.7V76.46H214.86Zm0,3.833H216.7V80.294H214.86Zm0,3.834H216.7V84.128H214.86Zm0,3.834H216.7V87.962H214.86Zm0,3.834H216.7V91.8H214.86Zm17.263,3.541h-7.506v1.888h7.506Zm3.777,1.888h16.4V97.225H235.9Zm-3.777,1.946h-7.506v1.893h7.506Zm3.777,1.888h35.28v-1.888H235.9Zm-3.777,1.945h-7.506v1.889h7.506Zm3.777,1.889h54.166v-1.893H235.907Zm-3.777,1.945h-7.506v1.888h7.506Zm3.777,1.888h35.28v-1.888H235.9Zm-11.284,3.838h7.506v-1.888h-7.506Zm11.284,0h23.95v-1.888H235.9Zm-3.777,1.944h-7.506v1.888h7.506Zm14.509,0H235.907v1.888h10.731Zm35.28-24.6H271.188v1.888h10.731Zm3.777,1.888H296.42V91.792H285.7Zm7.654,13.1h10.735v-1.892H293.35Zm-7.654,1.945H274.966v1.888h10.725Zm-25.838,14.988h10.738v-1.888H259.858Zm48.5,5.78H297.625v1.888h10.731Zm-20.173,5.716h10.731v-1.888H288.178Zm-9.442,3.833h10.73v-1.894H278.741Zm-18.883,3.833h10.736v-1.888H259.858Zm14.507,0h10.731v-1.888H274.366Zm28.326-7.666h10.731v-1.888H302.686Zm-16.995-34.161H274.966v1.888H285.7Zm3.776,1.888H300.2v-1.888H289.472Zm-74.6-3.831h1.842V97.221h-1.842Zm0,3.834h1.842v-1.891h-1.842Zm0,3.834h1.842v-1.889h-1.842Zm0,3.833h1.842v-1.888h-1.842Zm0,3.834h1.842v-1.892h-1.842Zm0,3.832h1.842v-1.888h-1.842Zm13.534,5.431h7.506v-1.888H228.4Zm11.283,0h16.4v-1.888h-16.4ZM228.4,127.541h7.506v-1.889H228.4Zm11.283,0h35.281v-1.889h-35.28ZM228.4,131.375h7.506v-1.888H228.4Zm65.447-1.888H239.684v1.888h54.164ZM228.4,135.209h7.506v-1.888H228.4Zm56.005-1.888H239.684v1.888h44.722Zm12.62-60.7H252.3v1.888h44.722ZM228.4,139.04H235.9v-1.888H228.4Zm11.283,0H274.96v-1.888H239.684Zm59.23-26.485h-35.28v1.888h35.28ZM228.4,142.874H235.9v-1.888H228.4Zm11.283,0h16.4v-1.888h-16.4Zm-24.813-19.167h1.842v-1.888h-1.842Zm0,3.834h1.842v-1.889h-1.842Zm0,3.834h1.842v-1.888h-1.842Zm0,3.833h1.842V133.32h-1.842Zm0,3.833h1.842v-1.889h-1.842Zm0,3.833h1.842v-1.888h-1.842ZM197.73,77.4h3.836V73.565h-3.833Zm6.045-.972h6.549V74.539h-6.546Zm-6.045,8.64h3.836V81.233h-3.833Zm6.045-.974h6.549V82.205h-6.546Zm-6.045,8.641h3.836V88.9h-3.833Zm6.045-.973h6.549V89.872h-6.546Zm-6.045,8.64h3.836V96.568h-3.833Zm6.045-.973h6.549V97.54h-6.546Zm-6.045,8.64h3.836v-3.833h-3.833Zm6.045-.972h6.549v-1.888h-6.546Z" fill="#b2b2b2"/>
    <path id="Path_40698" data-name="Path 40698" d="M7.452,212.855a4.05,4.05,0,0,1,4.2-4.138,3.692,3.692,0,0,1,3.406,1.955l-1.463.72a2.193,2.193,0,0,0-1.943-1.163,2.633,2.633,0,0,0,0,5.253,2.17,2.17,0,0,0,1.943-1.163l1.463.707a3.712,3.712,0,0,1-3.406,1.967,4.049,4.049,0,0,1-4.2-4.138" fill="#f1f2f2"/>
    <path id="Path_40699" data-name="Path 40699" d="M15.745,213.947a2.933,2.933,0,0,1,3.058-3.034,3.04,3.04,0,1,1,0,6.08,2.936,2.936,0,0,1-3.058-3.046m4.545,0a1.494,1.494,0,1,0-1.487,1.691,1.529,1.529,0,0,0,1.487-1.691" fill="#f1f2f2"/>
    <path id="Path_40700" data-name="Path 40700" d="M30.26,216.849v-3.658c0-.539-.24-.923-.863-.923a1.538,1.538,0,0,0-1.2.671v3.91H26.662v-3.658c0-.539-.24-.923-.863-.923a1.553,1.553,0,0,0-1.2.684v3.9H23.076v-5.793H24.6v.756a2.535,2.535,0,0,1,1.895-.9,1.532,1.532,0,0,1,1.607,1.056,2.459,2.459,0,0,1,1.991-1.056,1.546,1.546,0,0,1,1.7,1.751v4.186Z" fill="#f1f2f2"/>
    <path id="Path_40701" data-name="Path 40701" d="M34.9,219.056H33.371v-8H34.9v.732a2.236,2.236,0,0,1,1.787-.875c1.487,0,2.566,1.1,2.566,3.034s-1.079,3.046-2.566,3.046a2.215,2.215,0,0,1-1.787-.887Zm1.307-6.788a1.7,1.7,0,0,0-1.307.659v2.051a1.743,1.743,0,0,0,1.307.66,1.7,1.7,0,0,0,0-3.37" fill="#f1f2f2"/>
    <path id="Path_40702" data-name="Path 40702" d="M44.374,216.849v-.731a2.718,2.718,0,0,1-2.04.875,1.659,1.659,0,0,1-1.871-1.823v-4.114h1.523v3.515a.932.932,0,0,0,1.069,1.067,1.709,1.709,0,0,0,1.319-.66v-3.922H45.9v5.793Z" fill="#f1f2f2"/>
    <path id="Path_40703" data-name="Path 40703" d="M47.783,215.41v-3.022h-.959v-1.332h.959v-1.583h1.535v1.583h1.176v1.332H49.318V215c0,.359.193.636.528.636a.833.833,0,0,0,.528-.168l.324,1.151a1.886,1.886,0,0,1-1.271.371,1.448,1.448,0,0,1-1.644-1.583" fill="#f1f2f2"/>
    <path id="Path_40704" data-name="Path 40704" d="M54.238,210.913a2.905,2.905,0,0,1,2.9,3.19v.335H52.835a1.561,1.561,0,0,0,1.667,1.344,2.37,2.37,0,0,0,1.547-.576l.672.984a3.576,3.576,0,0,1-2.387.8,3.04,3.04,0,1,1-.1-6.08m-1.427,2.494h2.854a1.341,1.341,0,0,0-1.427-1.283,1.392,1.392,0,0,0-1.427,1.283" fill="#f1f2f2"/>
    <path id="Path_40705" data-name="Path 40705" d="M58.319,216.849v-5.793h1.523v.792a2.479,2.479,0,0,1,1.847-.924v1.488a1.978,1.978,0,0,0-1.847.611v3.826Z" fill="#f1f2f2"/>
    <path id="Path_40706" data-name="Path 40706" d="M20.4,229.849l-3.094-8h1.943L21.465,228l2.207-6.153h1.943l-3.082,8Z" fill="#f1f2f2"/>
    <path id="Path_40707" data-name="Path 40707" d="M26.244,222.293a.912.912,0,1,1,.911.912.919.919,0,0,1-.911-.912m.155,1.763h1.523v5.793H26.4Z" fill="#f1f2f2"/>
    <path id="Path_40708" data-name="Path 40708" d="M29.664,228.026a3.312,3.312,0,0,0,2,.792c.66,0,.971-.229.971-.588,0-.408-.5-.552-1.163-.683-1-.192-2.279-.432-2.279-1.811,0-.972.852-1.823,2.375-1.823a3.641,3.641,0,0,1,2.326.791l-.6,1.044a2.444,2.444,0,0,0-1.715-.672c-.552,0-.912.2-.912.54,0,.359.456.491,1.1.623,1,.192,2.326.456,2.326,1.9,0,1.068-.9,1.859-2.506,1.859a3.894,3.894,0,0,1-2.591-.9Z" fill="#f1f2f2"/>
    <path id="Path_40709" data-name="Path 40709" d="M35.147,222.293a.912.912,0,1,1,.912.912.919.919,0,0,1-.912-.912m.156,1.763h1.523v5.793H35.3Z" fill="#f1f2f2"/>
    <path id="Path_40710" data-name="Path 40710" d="M38.04,226.947a3.064,3.064,0,1,1,3.058,3.046,2.933,2.933,0,0,1-3.058-3.046m4.545,0a1.494,1.494,0,1,0-1.487,1.691,1.529,1.529,0,0,0,1.487-1.691" fill="#f1f2f2"/>
    <path id="Path_40711" data-name="Path 40711" d="M49.281,229.849v-3.5a.939.939,0,0,0-1.067-1.079,1.648,1.648,0,0,0-1.32.684v3.9H45.371v-5.793h1.523v.756a2.652,2.652,0,0,1,2.027-.9,1.685,1.685,0,0,1,1.883,1.847v4.09Z" fill="#f1f2f2"/>
    <path id="Path_40712" data-name="Path 40712" d="M285.755,200.407l-1.571-2.866h-1.247v2.866h-1.7v-8h3.742a2.491,2.491,0,0,1,2.686,2.579,2.3,2.3,0,0,1-1.751,2.375l1.8,3.046Zm-1.031-6.536h-1.787v2.206h1.787a1.107,1.107,0,1,0,0-2.206" fill="#f1f2f2"/>
    <path id="Path_40713" data-name="Path 40713" d="M288.182,197.5a3.064,3.064,0,1,1,3.058,3.046,2.933,2.933,0,0,1-3.058-3.046m4.545,0a1.494,1.494,0,1,0-1.487,1.691,1.529,1.529,0,0,0,1.487-1.691" fill="#f1f2f2"/>
    <path id="Path_40714" data-name="Path 40714" d="M295.441,200.406v-8h1.523v2.952a2.232,2.232,0,0,1,1.787-.888c1.475,0,2.567,1.151,2.567,3.046,0,1.931-1.1,3.034-2.567,3.034a2.274,2.274,0,0,1-1.787-.875v.731Zm1.523-1.859a1.694,1.694,0,0,0,1.307.648,1.7,1.7,0,0,0,0-3.37,1.679,1.679,0,0,0-1.307.671Z" fill="#f1f2f2"/>
    <path id="Path_40715" data-name="Path 40715" d="M302.1,197.5a3.064,3.064,0,1,1,3.058,3.046A2.933,2.933,0,0,1,302.1,197.5m4.545,0a1.494,1.494,0,1,0-1.487,1.691,1.529,1.529,0,0,0,1.487-1.691" fill="#f1f2f2"/>
    <path id="Path_40716" data-name="Path 40716" d="M309.661,198.967v-3.022H308.7v-1.332h.959V193.03H311.2v1.583h1.176v1.332H311.2v2.615c0,.359.193.636.528.636a.833.833,0,0,0,.528-.168l.324,1.151a1.886,1.886,0,0,1-1.271.371,1.448,1.448,0,0,1-1.644-1.583" fill="#f1f2f2"/>
    <path id="Path_40717" data-name="Path 40717" d="M313.261,192.851a.912.912,0,1,1,.912.911.919.919,0,0,1-.912-.911m.156,1.763h1.523v5.793h-1.523Z" fill="#f1f2f2"/>
    <path id="Path_40718" data-name="Path 40718" d="M319.151,194.47a2.671,2.671,0,0,1,2.291,1.056l-1,.923a1.43,1.43,0,0,0-1.223-.624,1.69,1.69,0,0,0,0,3.371,1.462,1.462,0,0,0,1.223-.624l1,.923a2.673,2.673,0,0,1-2.291,1.055,3.04,3.04,0,1,1,0-6.08" fill="#f1f2f2"/>
    <path id="Path_40719" data-name="Path 40719" d="M322.6,198.583a3.312,3.312,0,0,0,2,.792c.66,0,.971-.229.971-.588,0-.408-.5-.552-1.163-.683-1-.192-2.279-.432-2.279-1.811,0-.972.852-1.823,2.375-1.823a3.641,3.641,0,0,1,2.326.791l-.6,1.044a2.444,2.444,0,0,0-1.715-.672c-.552,0-.912.2-.912.54,0,.359.456.491,1.1.623.995.192,2.326.456,2.326,1.895,0,1.068-.9,1.859-2.506,1.859a3.894,3.894,0,0,1-2.591-.9Z" fill="#f1f2f2"/>
    <path id="Path_40720" data-name="Path 40720" d="M65.195,133.407l-3.814-5.373v5.373h-1.7v-8h1.751l3.706,5.182v-5.182h1.7v8Z" fill="#493533"/>
    <path id="Path_40721" data-name="Path 40721" d="M71.46,133.406v-.6a2.4,2.4,0,0,1-1.835.743,1.929,1.929,0,0,1-2.015-1.919,1.834,1.834,0,0,1,2.015-1.847,2.342,2.342,0,0,1,1.835.708v-.8c0-.588-.5-.972-1.271-.972a2.434,2.434,0,0,0-1.691.683l-.576-1.019a3.8,3.8,0,0,1,2.53-.911c1.32,0,2.531.527,2.531,2.194v3.742Zm0-2.111a1.527,1.527,0,0,0-1.224-.5c-.6,0-1.091.323-1.091.875s.492.852,1.091.852a1.524,1.524,0,0,0,1.224-.5Z" fill="#493533"/>
    <path id="Path_40722" data-name="Path 40722" d="M74.389,131.967v-3.022H73.43v-1.332h.959V126.03h1.535v1.583H77.1v1.332H75.924v2.615c0,.359.193.636.528.636a.833.833,0,0,0,.528-.168l.324,1.151a1.886,1.886,0,0,1-1.271.371,1.448,1.448,0,0,1-1.644-1.583" fill="#493533"/>
    <path id="Path_40723" data-name="Path 40723" d="M81.647,133.407v-.731a2.713,2.713,0,0,1-2.039.875,1.659,1.659,0,0,1-1.871-1.823v-4.114H79.26v3.515a.932.932,0,0,0,1.068,1.067,1.706,1.706,0,0,0,1.319-.66v-3.922H83.17v5.793Z" fill="#493533"/>
    <path id="Path_40724" data-name="Path 40724" d="M84.277,133.407v-5.793H85.8v.792a2.479,2.479,0,0,1,1.848-.924v1.488a1.956,1.956,0,0,0-.42-.037,1.935,1.935,0,0,0-1.428.648v3.826Z" fill="#493533"/>
    <path id="Path_40725" data-name="Path 40725" d="M91.668,133.406v-.6a2.4,2.4,0,0,1-1.836.743,1.93,1.93,0,0,1-2.015-1.919,1.835,1.835,0,0,1,2.015-1.847,2.341,2.341,0,0,1,1.836.708v-.8c0-.588-.5-.972-1.272-.972a2.435,2.435,0,0,0-1.691.683l-.575-1.019a3.8,3.8,0,0,1,2.53-.911c1.319,0,2.53.527,2.53,2.194v3.742Zm0-2.111a1.529,1.529,0,0,0-1.225-.5c-.6,0-1.09.323-1.09.875s.491.852,1.09.852a1.526,1.526,0,0,0,1.225-.5Z" fill="#493533"/>
    <rect id="Rectangle_6730" data-name="Rectangle 6730" width="1.523" height="8" transform="translate(94.297 125.407)" fill="#493533"/>
    <path id="Path_40726" data-name="Path 40726" d="M53.054,144.407v-8h1.7v6.5h3.382v1.5Z" fill="#493533"/>
    <path id="Path_40727" data-name="Path 40727" d="M62.28,144.406v-.6a2.4,2.4,0,0,1-1.835.743,1.929,1.929,0,0,1-2.015-1.919,1.834,1.834,0,0,1,2.015-1.847,2.342,2.342,0,0,1,1.835.708v-.8c0-.588-.5-.972-1.271-.972a2.434,2.434,0,0,0-1.691.683l-.576-1.019a3.8,3.8,0,0,1,2.53-.911c1.32,0,2.531.527,2.531,2.194v3.742Zm0-2.111a1.527,1.527,0,0,0-1.224-.5c-.6,0-1.091.323-1.091.875s.492.852,1.091.852a1.524,1.524,0,0,0,1.224-.5Z" fill="#493533"/>
    <path id="Path_40728" data-name="Path 40728" d="M68.82,144.407v-3.5a.939.939,0,0,0-1.067-1.079,1.648,1.648,0,0,0-1.32.684v3.9H64.91v-5.793h1.523v.756a2.652,2.652,0,0,1,2.027-.9,1.685,1.685,0,0,1,1.883,1.847v4.09Z" fill="#493533"/>
    <path id="Path_40729" data-name="Path 40729" d="M72.014,144.791a2.3,2.3,0,0,0,1.811.719,1.416,1.416,0,0,0,1.6-1.462v-.588a2.258,2.258,0,0,1-1.787.911c-1.451,0-2.555-1.02-2.555-2.95,0-1.9,1.092-2.951,2.555-2.951a2.232,2.232,0,0,1,1.787.888v-.744h1.535v5.4c0,2.206-1.7,2.746-3.13,2.746a3.49,3.49,0,0,1-2.495-.863Zm3.406-4.306a1.652,1.652,0,0,0-1.308-.659,1.6,1.6,0,0,0,0,3.189,1.687,1.687,0,0,0,1.308-.659Z" fill="#493533"/>
    <path id="Path_40730" data-name="Path 40730" d="M81.972,144.407v-.731a2.713,2.713,0,0,1-2.039.875,1.659,1.659,0,0,1-1.871-1.823v-4.114h1.523v3.515a.932.932,0,0,0,1.068,1.067,1.706,1.706,0,0,0,1.319-.66v-3.922H83.5v5.793Z" fill="#493533"/>
    <path id="Path_40731" data-name="Path 40731" d="M88.08,144.406v-.6a2.4,2.4,0,0,1-1.835.743,1.929,1.929,0,0,1-2.015-1.919,1.834,1.834,0,0,1,2.015-1.847,2.342,2.342,0,0,1,1.835.708v-.8c0-.588-.5-.972-1.271-.972a2.434,2.434,0,0,0-1.691.683l-.576-1.019a3.8,3.8,0,0,1,2.53-.911c1.32,0,2.531.527,2.531,2.194v3.742Zm0-2.111a1.527,1.527,0,0,0-1.224-.5c-.6,0-1.091.323-1.091.875s.492.852,1.091.852a1.524,1.524,0,0,0,1.224-.5Z" fill="#493533"/>
    <path id="Path_40732" data-name="Path 40732" d="M91.274,144.791a2.3,2.3,0,0,0,1.811.719,1.416,1.416,0,0,0,1.6-1.462v-.588a2.258,2.258,0,0,1-1.787.911c-1.451,0-2.555-1.02-2.555-2.95,0-1.9,1.092-2.951,2.555-2.951a2.232,2.232,0,0,1,1.787.888v-.744h1.535v5.4c0,2.206-1.7,2.746-3.13,2.746a3.49,3.49,0,0,1-2.5-.863Zm3.406-4.306a1.652,1.652,0,0,0-1.308-.659,1.6,1.6,0,0,0,0,3.189,1.687,1.687,0,0,0,1.308-.659Z" fill="#493533"/>
    <path id="Path_40733" data-name="Path 40733" d="M99.948,138.47a2.905,2.905,0,0,1,2.9,3.19v.335H98.545a1.561,1.561,0,0,0,1.667,1.344,2.37,2.37,0,0,0,1.547-.576l.672.984a3.576,3.576,0,0,1-2.387.8,3.04,3.04,0,1,1-.1-6.08m-1.427,2.494h2.854a1.341,1.341,0,0,0-1.427-1.283,1.392,1.392,0,0,0-1.427,1.283" fill="#493533"/>
    <path id="Path_40734" data-name="Path 40734" d="M50.474,155.407v-8h3.742a2.57,2.57,0,1,1,0,5.134H52.177v2.866Zm3.514-6.537H52.177v2.207h1.811a1.106,1.106,0,1,0,0-2.207" fill="#493533"/>
    <path id="Path_40735" data-name="Path 40735" d="M57.518,155.407v-5.793h1.523v.792a2.479,2.479,0,0,1,1.847-.924v1.488a1.978,1.978,0,0,0-1.847.611v3.826Z" fill="#493533"/>
    <path id="Path_40736" data-name="Path 40736" d="M61.058,152.5a3.064,3.064,0,1,1,3.058,3.046,2.933,2.933,0,0,1-3.058-3.046m4.546,0a1.494,1.494,0,1,0-1.488,1.691A1.53,1.53,0,0,0,65.6,152.5" fill="#493533"/>
    <path id="Path_40737" data-name="Path 40737" d="M70.608,149.47a2.671,2.671,0,0,1,2.291,1.056l-1,.923a1.43,1.43,0,0,0-1.223-.624,1.69,1.69,0,0,0,0,3.371,1.462,1.462,0,0,0,1.223-.624l1,.923a2.673,2.673,0,0,1-2.291,1.055,3.04,3.04,0,1,1,0-6.08" fill="#493533"/>
    <path id="Path_40738" data-name="Path 40738" d="M76.116,149.47a2.905,2.905,0,0,1,2.9,3.19v.335H74.713a1.561,1.561,0,0,0,1.667,1.344,2.37,2.37,0,0,0,1.547-.576l.672.984a3.576,3.576,0,0,1-2.387.8,3.04,3.04,0,1,1-.1-6.08m-1.427,2.494h2.854a1.341,1.341,0,0,0-1.427-1.283,1.392,1.392,0,0,0-1.427,1.283" fill="#493533"/>
    <path id="Path_40739" data-name="Path 40739" d="M79.873,153.583a3.312,3.312,0,0,0,2,.792c.66,0,.971-.229.971-.588,0-.408-.5-.552-1.163-.683-1-.192-2.279-.432-2.279-1.811,0-.972.852-1.823,2.375-1.823a3.641,3.641,0,0,1,2.326.791l-.6,1.044a2.444,2.444,0,0,0-1.715-.672c-.552,0-.912.2-.912.54,0,.359.456.491,1.1.623.995.192,2.326.456,2.326,1.895,0,1.068-.9,1.859-2.506,1.859a3.894,3.894,0,0,1-2.591-.9Z" fill="#493533"/>
    <path id="Path_40740" data-name="Path 40740" d="M85.189,153.583a3.312,3.312,0,0,0,2,.792c.66,0,.971-.229.971-.588,0-.408-.5-.552-1.163-.683-1-.192-2.279-.432-2.279-1.811,0-.972.852-1.823,2.375-1.823a3.641,3.641,0,0,1,2.326.791l-.6,1.044a2.444,2.444,0,0,0-1.715-.672c-.552,0-.912.2-.912.54,0,.359.456.491,1.1.623.995.192,2.326.456,2.326,1.895,0,1.068-.9,1.859-2.506,1.859a3.894,3.894,0,0,1-2.591-.9Z" fill="#493533"/>
    <path id="Path_40741" data-name="Path 40741" d="M90.193,147.851a.912.912,0,1,1,.912.911.919.919,0,0,1-.912-.911m.156,1.763h1.523v5.793H90.349Z" fill="#493533"/>
    <path id="Path_40742" data-name="Path 40742" d="M96.887,155.407v-3.5a.939.939,0,0,0-1.067-1.079,1.648,1.648,0,0,0-1.32.684v3.9H92.977v-5.793H94.5v.756a2.652,2.652,0,0,1,2.027-.9,1.685,1.685,0,0,1,1.883,1.847v4.09Z" fill="#493533"/>
    <path id="Path_40743" data-name="Path 40743" d="M100.081,155.791a2.3,2.3,0,0,0,1.811.719,1.416,1.416,0,0,0,1.6-1.462v-.588a2.258,2.258,0,0,1-1.787.911c-1.451,0-2.555-1.02-2.555-2.95,0-1.9,1.092-2.951,2.555-2.951a2.232,2.232,0,0,1,1.787.888v-.744h1.535v5.4c0,2.206-1.7,2.746-3.13,2.746a3.49,3.49,0,0,1-2.495-.863Zm3.406-4.306a1.652,1.652,0,0,0-1.308-.659,1.6,1.6,0,0,0,0,3.189,1.687,1.687,0,0,0,1.308-.659Z" fill="#493533"/>
    <path id="Path_40744" data-name="Path 40744" d="M103.287,64.407V58.65l-2.254,5.757h-.744L98.034,58.65v5.757h-1.7v-8h2.387l1.943,4.989,1.942-4.989H105v8Z" fill="#f1f2f2"/>
    <path id="Path_40745" data-name="Path 40745" d="M109.626,64.406v-.6a2.4,2.4,0,0,1-1.836.743,1.93,1.93,0,0,1-2.015-1.919,1.835,1.835,0,0,1,2.015-1.847,2.343,2.343,0,0,1,1.836.708v-.8c0-.588-.5-.972-1.272-.972a2.435,2.435,0,0,0-1.691.683l-.575-1.019a3.8,3.8,0,0,1,2.53-.911c1.32,0,2.53.527,2.53,2.194v3.742Zm0-2.111a1.529,1.529,0,0,0-1.225-.5c-.6,0-1.09.323-1.09.875s.491.852,1.09.852a1.526,1.526,0,0,0,1.225-.5Z" fill="#f1f2f2"/>
    <path id="Path_40746" data-name="Path 40746" d="M114.954,58.47a2.671,2.671,0,0,1,2.291,1.056l-1,.923a1.43,1.43,0,0,0-1.223-.624,1.69,1.69,0,0,0,0,3.371,1.462,1.462,0,0,0,1.223-.624l1,.923a2.673,2.673,0,0,1-2.291,1.055,3.04,3.04,0,1,1,0-6.08" fill="#f1f2f2"/>
    <path id="Path_40747" data-name="Path 40747" d="M121.757,64.407V60.881c0-.8-.419-1.055-1.079-1.055a1.682,1.682,0,0,0-1.319.684v3.9h-1.524v-8h1.524V59.37a2.678,2.678,0,0,1,2.039-.9,1.668,1.668,0,0,1,1.882,1.824v4.113Z" fill="#f1f2f2"/>
    <path id="Path_40748" data-name="Path 40748" d="M124.231,56.851a.911.911,0,1,1,.912.911.919.919,0,0,1-.912-.911m.156,1.763h1.523v5.793h-1.523Z" fill="#f1f2f2"/>
    <path id="Path_40749" data-name="Path 40749" d="M130.925,64.407V60.9a.939.939,0,0,0-1.067-1.079,1.648,1.648,0,0,0-1.32.684v3.9h-1.523V58.614h1.523v.756a2.652,2.652,0,0,1,2.027-.9,1.685,1.685,0,0,1,1.883,1.847v4.09Z" fill="#f1f2f2"/>
    <path id="Path_40750" data-name="Path 40750" d="M136.181,58.47a2.905,2.905,0,0,1,2.9,3.19v.335h-4.306a1.561,1.561,0,0,0,1.667,1.344,2.37,2.37,0,0,0,1.547-.576l.672.984a3.576,3.576,0,0,1-2.387.8,3.04,3.04,0,1,1-.1-6.08m-1.427,2.494h2.854a1.341,1.341,0,0,0-1.427-1.283,1.392,1.392,0,0,0-1.427,1.283" fill="#f1f2f2"/>
    <path id="Path_40751" data-name="Path 40751" d="M95.923,75.407v-8h1.7v6.5h3.382v1.5Z" fill="#f1f2f2"/>
    <path id="Path_40752" data-name="Path 40752" d="M104.25,69.47a2.905,2.905,0,0,1,2.9,3.19V73h-4.306a1.561,1.561,0,0,0,1.667,1.344,2.37,2.37,0,0,0,1.547-.576l.672.984a3.576,3.576,0,0,1-2.387.8,3.04,3.04,0,1,1-.1-6.08m-1.427,2.494h2.854a1.341,1.341,0,0,0-1.427-1.283,1.392,1.392,0,0,0-1.427,1.283" fill="#f1f2f2"/>
    <path id="Path_40753" data-name="Path 40753" d="M111.329,75.406v-.6a2.4,2.4,0,0,1-1.835.743,1.929,1.929,0,0,1-2.015-1.919,1.834,1.834,0,0,1,2.015-1.847,2.34,2.34,0,0,1,1.835.708v-.8c0-.588-.5-.972-1.271-.972a2.434,2.434,0,0,0-1.691.683l-.576-1.019a3.8,3.8,0,0,1,2.53-.911c1.32,0,2.531.527,2.531,2.194v3.742Zm0-2.111a1.527,1.527,0,0,0-1.224-.5c-.6,0-1.091.323-1.091.875s.492.852,1.091.852a1.524,1.524,0,0,0,1.224-.5Z" fill="#f1f2f2"/>
    <path id="Path_40754" data-name="Path 40754" d="M113.959,75.407V69.614h1.522v.792a2.481,2.481,0,0,1,1.848-.924V70.97a1.98,1.98,0,0,0-1.848.611v3.826Z" fill="#f1f2f2"/>
    <path id="Path_40755" data-name="Path 40755" d="M121.781,75.407V71.9a.939.939,0,0,0-1.067-1.079,1.648,1.648,0,0,0-1.32.684v3.9h-1.523V69.614h1.523v.756a2.653,2.653,0,0,1,2.027-.9,1.685,1.685,0,0,1,1.883,1.847v4.09Z" fill="#f1f2f2"/>
    <path id="Path_40756" data-name="Path 40756" d="M124.255,67.851a.912.912,0,1,1,.912.911.919.919,0,0,1-.912-.911m.156,1.763h1.523v5.793h-1.523Z" fill="#f1f2f2"/>
    <path id="Path_40757" data-name="Path 40757" d="M130.949,75.407V71.9a.939.939,0,0,0-1.067-1.079,1.648,1.648,0,0,0-1.32.684v3.9h-1.523V69.614h1.523v.756a2.653,2.653,0,0,1,2.027-.9,1.685,1.685,0,0,1,1.883,1.847v4.09Z" fill="#f1f2f2"/>
    <path id="Path_40758" data-name="Path 40758" d="M134.142,75.791a2.3,2.3,0,0,0,1.811.719,1.416,1.416,0,0,0,1.6-1.462V74.46a2.258,2.258,0,0,1-1.787.911c-1.451,0-2.555-1.02-2.555-2.95,0-1.895,1.092-2.951,2.555-2.951a2.232,2.232,0,0,1,1.787.888v-.744h1.535v5.4c0,2.206-1.7,2.746-3.13,2.746a3.49,3.49,0,0,1-2.5-.863Zm3.406-4.306a1.652,1.652,0,0,0-1.308-.659,1.6,1.6,0,0,0,0,3.189,1.687,1.687,0,0,0,1.308-.659Z" fill="#f1f2f2"/>
    <path id="Path_40759" data-name="Path 40759" d="M268.012,46H218.066a11.527,11.527,0,0,1-11.527-11.527V11.527A11.527,11.527,0,0,1,218.066,0h49.946a11.527,11.527,0,0,1,11.527,11.527V34.473A11.527,11.527,0,0,1,268.012,46" fill="#56d6d3"/>
    <path id="Path_40760" data-name="Path 40760" d="M223.67,19.407v-8h5.661v1.464h-3.958V14.61h3.874v1.463h-3.874v1.858h3.958v1.476Z" fill="#0f3a39"/>
    <path id="Path_40761" data-name="Path 40761" d="M230.522,17.967V14.945h-.959V13.613h.959V12.03h1.535v1.583h1.176v1.332h-1.176V17.56c0,.359.193.636.528.636a.833.833,0,0,0,.528-.168l.324,1.151a1.886,1.886,0,0,1-1.271.371,1.448,1.448,0,0,1-1.644-1.583" fill="#0f3a39"/>
    <path id="Path_40762" data-name="Path 40762" d="M237.792,19.407V15.881c0-.8-.419-1.055-1.079-1.055a1.682,1.682,0,0,0-1.319.684v3.9H233.87v-8h1.524V14.37a2.677,2.677,0,0,1,2.038-.9,1.668,1.668,0,0,1,1.883,1.824v4.113Z" fill="#0f3a39"/>
    <path id="Path_40763" data-name="Path 40763" d="M240.266,11.851a.911.911,0,1,1,.912.911.919.919,0,0,1-.912-.911m.156,1.763h1.523v5.793h-1.523Z" fill="#0f3a39"/>
    <path id="Path_40764" data-name="Path 40764" d="M245.749,13.47a2.667,2.667,0,0,1,2.29,1.056l-.995.923a1.433,1.433,0,0,0-1.224-.624,1.547,1.547,0,0,0-1.571,1.679A1.558,1.558,0,0,0,245.82,18.2a1.465,1.465,0,0,0,1.224-.624l.995.923a2.669,2.669,0,0,1-2.29,1.055,2.942,2.942,0,0,1-3.071-3.046,2.939,2.939,0,0,1,3.071-3.034" fill="#0f3a39"/>
    <path id="Path_40765" data-name="Path 40765" d="M248.786,17.583a3.312,3.312,0,0,0,2,.792c.66,0,.971-.229.971-.588,0-.408-.5-.552-1.163-.683-1-.192-2.279-.432-2.279-1.811,0-.972.852-1.823,2.375-1.823a3.641,3.641,0,0,1,2.326.791l-.6,1.044a2.444,2.444,0,0,0-1.715-.672c-.552,0-.912.2-.912.54,0,.359.456.491,1.1.623.995.192,2.326.456,2.326,1.9,0,1.068-.9,1.859-2.506,1.859a3.894,3.894,0,0,1-2.591-.9Z" fill="#0f3a39"/>
    <path id="Path_40766" data-name="Path 40766" d="M263.494,19.407h-1.942c-.168-.157-.372-.372-.6-.6a3.489,3.489,0,0,1-2.171.743c-1.475,0-2.65-.767-2.65-2.314a2.572,2.572,0,0,1,1.727-2.315,3.819,3.819,0,0,1-.528-1.715,2.065,2.065,0,0,1,2.279-1.918c1.139,0,2.111.623,2.111,1.69,0,1.224-.984,1.739-1.967,2.2.24.323.479.623.683.864.228.288.456.551.684.815a6.347,6.347,0,0,0,.731-1.547l1.224.564a10.549,10.549,0,0,1-1.116,1.93c.48.516.984,1.044,1.535,1.608m-3.357-1.476c-.36-.4-.7-.768-.888-1.007-.264-.324-.54-.683-.8-1.055a1.465,1.465,0,0,0-.7,1.223,1.209,1.209,0,0,0,1.235,1.259,1.882,1.882,0,0,0,1.152-.42m-.936-3.622c.671-.312,1.187-.659,1.187-1.247a.648.648,0,0,0-.7-.672.823.823,0,0,0-.84.852,2.363,2.363,0,0,0,.348,1.067" fill="#0f3a39"/>
    <path id="Path_40767" data-name="Path 40767" d="M216.907,22.275a3.748,3.748,0,0,1,3.31,1.751l-1.415.768a2.27,2.27,0,0,0-1.9-1.007,2.491,2.491,0,0,0-2.507,2.626,2.492,2.492,0,0,0,2.507,2.627,2.7,2.7,0,0,0,1.727-.612v-.971H216.5V25.993h3.814v3.058a4.44,4.44,0,0,1-3.406,1.512,4.146,4.146,0,1,1,0-8.288" fill="#0f3a39"/>
    <path id="Path_40768" data-name="Path 40768" d="M220.857,27.5a3.064,3.064,0,1,1,3.058,3.046,2.933,2.933,0,0,1-3.058-3.046m4.545,0a1.493,1.493,0,1,0-2.962,0,1.494,1.494,0,1,0,2.962,0" fill="#0f3a39"/>
    <path id="Path_40769" data-name="Path 40769" d="M229.208,30.407l-2.327-5.793h1.631l1.511,4.03,1.512-4.03h1.643l-2.327,5.793Z" fill="#0f3a39"/>
    <path id="Path_40770" data-name="Path 40770" d="M236.083,24.47a2.905,2.905,0,0,1,2.9,3.19V28H234.68a1.561,1.561,0,0,0,1.667,1.344,2.37,2.37,0,0,0,1.547-.576l.672.984a3.576,3.576,0,0,1-2.387.8,3.04,3.04,0,1,1-.1-6.08m-1.427,2.494h2.854a1.341,1.341,0,0,0-1.427-1.283,1.392,1.392,0,0,0-1.427,1.283" fill="#0f3a39"/>
    <path id="Path_40771" data-name="Path 40771" d="M239.684,30.407V24.614h1.523v.792a2.479,2.479,0,0,1,1.847-.924V25.97a1.978,1.978,0,0,0-1.847.611v3.826Z" fill="#0f3a39"/>
    <path id="Path_40772" data-name="Path 40772" d="M247.506,30.407v-3.5a.939.939,0,0,0-1.067-1.079,1.648,1.648,0,0,0-1.32.684v3.9H243.6V24.614h1.523v.756a2.653,2.653,0,0,1,2.027-.9,1.685,1.685,0,0,1,1.883,1.847v4.09Z" fill="#0f3a39"/>
    <path id="Path_40773" data-name="Path 40773" d="M253.614,30.406v-.6a2.4,2.4,0,0,1-1.835.743,1.929,1.929,0,0,1-2.015-1.919,1.834,1.834,0,0,1,2.015-1.847,2.342,2.342,0,0,1,1.835.708v-.8c0-.588-.5-.972-1.271-.972a2.434,2.434,0,0,0-1.691.683l-.576-1.019a3.8,3.8,0,0,1,2.53-.911c1.32,0,2.531.527,2.531,2.194v3.742Zm0-2.111a1.527,1.527,0,0,0-1.224-.5c-.6,0-1.091.323-1.091.875s.492.852,1.091.852a1.524,1.524,0,0,0,1.224-.5Z" fill="#0f3a39"/>
    <path id="Path_40774" data-name="Path 40774" d="M260.154,30.407v-3.5a.939.939,0,0,0-1.067-1.079,1.648,1.648,0,0,0-1.32.684v3.9h-1.523V24.614h1.523v.756a2.652,2.652,0,0,1,2.027-.9,1.685,1.685,0,0,1,1.883,1.847v4.09Z" fill="#0f3a39"/>
    <path id="Path_40775" data-name="Path 40775" d="M265.482,24.47a2.671,2.671,0,0,1,2.291,1.056l-1,.923a1.43,1.43,0,0,0-1.223-.624,1.69,1.69,0,0,0,0,3.371,1.462,1.462,0,0,0,1.223-.624l1,.923a2.673,2.673,0,0,1-2.291,1.055,3.04,3.04,0,1,1,0-6.08" fill="#0f3a39"/>
    <path id="Path_40776" data-name="Path 40776" d="M270.99,24.47a2.905,2.905,0,0,1,2.9,3.19V28h-4.306a1.561,1.561,0,0,0,1.667,1.344,2.368,2.368,0,0,0,1.547-.576l.672.984a3.574,3.574,0,0,1-2.387.8,3.04,3.04,0,1,1-.1-6.08m-1.426,2.494h2.853a1.34,1.34,0,0,0-1.427-1.283,1.39,1.39,0,0,0-1.426,1.283" fill="#0f3a39"/>
    <path id="Path_40777" data-name="Path 40777" d="M359.761,84.407v-8h5.661v1.464h-3.958V79.61h3.874v1.463h-3.874v1.858h3.958v1.476Z" fill="#f1f2f2"/>
    <path id="Path_40778" data-name="Path 40778" d="M369.9,84.407l-1.319-1.955-1.332,1.955h-1.691l2.051-2.975-1.931-2.818h1.7l1.2,1.787,1.187-1.787h1.7l-1.943,2.818,2.075,2.975Z" fill="#f1f2f2"/>
    <path id="Path_40779" data-name="Path 40779" d="M373.477,86.614h-1.524v-8h1.524v.732a2.236,2.236,0,0,1,1.787-.875c1.487,0,2.566,1.1,2.566,3.034s-1.079,3.046-2.566,3.046a2.215,2.215,0,0,1-1.787-.887Zm1.307-6.788a1.7,1.7,0,0,0-1.307.659v2.051a1.743,1.743,0,0,0,1.307.66,1.7,1.7,0,0,0,0-3.37" fill="#f1f2f2"/>
    <path id="Path_40780" data-name="Path 40780" d="M381.192,78.47a2.905,2.905,0,0,1,2.9,3.19V82h-4.306a1.561,1.561,0,0,0,1.667,1.344A2.37,2.37,0,0,0,383,82.763l.672.984a3.576,3.576,0,0,1-2.387.8,3.04,3.04,0,1,1-.1-6.08m-1.427,2.494h2.854a1.341,1.341,0,0,0-1.427-1.283,1.392,1.392,0,0,0-1.427,1.283" fill="#f1f2f2"/>
    <path id="Path_40781" data-name="Path 40781" d="M384.793,84.407V78.614h1.523v.792a2.479,2.479,0,0,1,1.847-.924V79.97a1.978,1.978,0,0,0-1.847.611v3.826Z" fill="#f1f2f2"/>
    <path id="Path_40782" data-name="Path 40782" d="M389.005,82.967V79.945h-.96V78.613h.96V77.03h1.535v1.583h1.175v1.332H390.54V82.56c0,.359.192.636.528.636a.829.829,0,0,0,.527-.168l.324,1.151a1.884,1.884,0,0,1-1.271.371,1.448,1.448,0,0,1-1.643-1.583" fill="#f1f2f2"/>
    <path id="Path_40783" data-name="Path 40783" d="M355.069,92.984a3.506,3.506,0,0,0,2.542,1.079c.936,0,1.392-.443,1.392-.9,0-.6-.7-.8-1.619-1.019-1.308-.3-2.986-.66-2.986-2.447,0-1.331,1.151-2.41,3.034-2.41A4.453,4.453,0,0,1,360.55,88.4L359.6,89.65a3.414,3.414,0,0,0-2.291-.876c-.768,0-1.176.336-1.176.816,0,.54.672.707,1.6.923,1.319.3,3,.7,3,2.471,0,1.464-1.043,2.566-3.2,2.566a4.612,4.612,0,0,1-3.394-1.27Z" fill="#f1f2f2"/>
    <path id="Path_40784" data-name="Path 40784" d="M361.381,96.306a1.312,1.312,0,0,0,.479.1.77.77,0,0,0,.8-.419l.216-.492-2.351-5.877h1.631l1.512,4.03,1.511-4.03h1.643l-2.723,6.74a2.1,2.1,0,0,1-2.2,1.4,4.164,4.164,0,0,1-.755-.084Z" fill="#f1f2f2"/>
    <path id="Path_40785" data-name="Path 40785" d="M367.261,93.583a3.312,3.312,0,0,0,2,.792c.66,0,.971-.229.971-.588,0-.408-.5-.552-1.163-.683-1-.192-2.279-.432-2.279-1.811,0-.972.852-1.823,2.375-1.823a3.641,3.641,0,0,1,2.326.791l-.6,1.044a2.444,2.444,0,0,0-1.715-.672c-.552,0-.912.2-.912.54,0,.359.456.491,1.1.623.995.192,2.326.456,2.326,1.9,0,1.068-.9,1.859-2.506,1.859a3.894,3.894,0,0,1-2.591-.9Z" fill="#f1f2f2"/>
    <path id="Path_40786" data-name="Path 40786" d="M372.721,93.967V90.945h-.96V89.613h.96V88.03h1.535v1.583h1.175v1.332h-1.175V93.56c0,.359.192.636.528.636a.829.829,0,0,0,.527-.168l.324,1.151a1.884,1.884,0,0,1-1.271.371,1.448,1.448,0,0,1-1.643-1.583" fill="#f1f2f2"/>
    <path id="Path_40787" data-name="Path 40787" d="M378.7,89.47a2.905,2.905,0,0,1,2.9,3.19V93h-4.306a1.561,1.561,0,0,0,1.667,1.344,2.37,2.37,0,0,0,1.547-.576l.672.984a3.576,3.576,0,0,1-2.387.8,3.04,3.04,0,1,1-.1-6.08m-1.427,2.494h2.854a1.341,1.341,0,0,0-1.427-1.283,1.392,1.392,0,0,0-1.427,1.283" fill="#f1f2f2"/>
    <path id="Path_40788" data-name="Path 40788" d="M389.48,95.407V91.749c0-.539-.24-.923-.863-.923a1.538,1.538,0,0,0-1.2.671v3.91h-1.535V91.749c0-.539-.24-.923-.863-.923a1.553,1.553,0,0,0-1.2.684v3.9H382.3V89.614h1.523v.756a2.535,2.535,0,0,1,1.895-.9,1.532,1.532,0,0,1,1.607,1.056,2.459,2.459,0,0,1,1.991-1.056,1.546,1.546,0,0,1,1.7,1.751v4.186Z" fill="#f1f2f2"/>
    <path id="Path_40789" data-name="Path 40789" d="M392.269,93.583a3.312,3.312,0,0,0,2,.792c.66,0,.971-.229.971-.588,0-.408-.5-.552-1.163-.683-1-.192-2.279-.432-2.279-1.811,0-.972.852-1.823,2.375-1.823a3.641,3.641,0,0,1,2.326.791l-.6,1.044a2.445,2.445,0,0,0-1.715-.672c-.552,0-.912.2-.912.54,0,.359.456.491,1.1.623.995.192,2.326.456,2.326,1.9,0,1.068-.9,1.859-2.506,1.859a3.894,3.894,0,0,1-2.591-.9Z" fill="#f1f2f2"/>
  </g>
</svg>
