<svg xmlns="http://www.w3.org/2000/svg" width="249.977" height="216.661" viewBox="0 0 249.977 216.661">
  <g id="Group_8051" data-name="Group 8051" transform="translate(0 -0.004)">
    <g id="Group_8052" data-name="Group 8052" transform="translate(0 0.004)">
      <path id="Path_46247" data-name="Path 46247" d="M343.315,329.4l-37.346,12.663a1.162,1.162,0,0,1-1.389-1.665l9.281-16.684a1.162,1.162,0,0,1,1.372-.541l5.782,1.861,3.457-4.994a1.162,1.162,0,0,1,1.418-.4l17.515,7.6a1.162,1.162,0,0,1-.089,2.166m-35.239,9.494,31.64-10.728-13.876-6.02-3.405,4.919a1.162,1.162,0,0,1-1.312.444l-5.695-1.833Z" transform="translate(-253.699 -266.283)" fill="#86b0df"/>
      <path id="Path_46248" data-name="Path 46248" d="M268.525,332.949a1.162,1.162,0,0,1-1.473-.727l-7.488-22.084a1.162,1.162,0,0,1,1.457-1.479l16.768,5.4a1.162,1.162,0,0,1,.659,1.671l-9.281,16.685a1.162,1.162,0,0,1-.643.536m-6.018-21.37,5.9,17.414,7.319-13.157Z" transform="translate(-216.256 -257.175)" fill="#86b0df"/>
      <path id="Path_46249" data-name="Path 46249" d="M442.483,256.967a1.162,1.162,0,0,1-.836-.034l-17.515-7.6a1.162,1.162,0,0,1-.493-1.728l10.027-14.484a1.162,1.162,0,0,1,2.056.289l7.488,22.084a1.162,1.162,0,0,1-.727,1.474m-16.127-9.2,13.811,5.992-5.9-17.414Z" transform="translate(-352.867 -193.855)" fill="#86b0df"/>
      <path id="Path_46250" data-name="Path 46250" d="M284.409,255.071a1.161,1.161,0,0,1-.729.006l-23.371-7.525a1.162,1.162,0,0,1-.017-2.207l37.346-12.663a1.162,1.162,0,0,1,1.329,1.762l-13.975,20.187a1.161,1.161,0,0,1-.582.439m-20.041-8.654,19.2,6.183,11.483-16.587Z" transform="translate(-216.256 -193.855)" fill="#86b0df"/>
      <path id="Path_46251" data-name="Path 46251" d="M311.619,1111.284l-39.443,19.568a1.3,1.3,0,0,1-1.784-1.636l7.788-19.843a1.3,1.3,0,0,1,1.437-.8l6.675,1.2,3.083-6.04a1.3,1.3,0,0,1,1.509-.659l20.512,5.8a1.3,1.3,0,0,1,.223,2.411m-37.583,15.748,33.416-16.578-16.25-4.6-3.036,5.949a1.3,1.3,0,0,1-1.385.687l-6.574-1.182Z" transform="translate(-225.256 -919.201)" fill="#86b0df"/>
      <path id="Path_46252" data-name="Path 46252" d="M214.315,1141.1a1.3,1.3,0,0,1-1.739-.586l-11.571-23.323a1.3,1.3,0,0,1,1.392-1.854l19.359,3.48a1.3,1.3,0,0,1,.978,1.751l-7.788,19.844a1.3,1.3,0,0,1-.631.688m-9.839-22.753,9.124,18.391,6.141-15.647Z" transform="translate(-167.395 -929.445)" fill="#86b0df"/>
      <path id="Path_46253" data-name="Path 46253" d="M406.284,1023.677a1.3,1.3,0,0,1-.93.086l-20.512-5.8a1.3,1.3,0,0,1-.8-1.838L392.98,998.6a1.3,1.3,0,0,1,2.318.013l11.571,23.323a1.3,1.3,0,0,1-.585,1.739m-19.214-7.784,16.175,4.576-9.124-18.392Z" transform="translate(-319.921 -831.594)" fill="#86b0df"/>
      <path id="Path_46254" data-name="Path 46254" d="M229.725,1024.772a1.3,1.3,0,0,1-.806.115l-26.981-4.85a1.3,1.3,0,0,1-.347-2.439l39.443-19.568a1.3,1.3,0,0,1,1.732,1.752L230.3,1024.2a1.294,1.294,0,0,1-.579.572m-23.464-6.594,22.17,3.985,10.239-20.063Z" transform="translate(-167.394 -831.595)" fill="#86b0df"/>
      <path id="Path_46255" data-name="Path 46255" d="M1072.638,846.331,1032.4,828.984a1.291,1.291,0,0,1,.094-2.407l20.074-6.858a1.291,1.291,0,0,1,1.535.574l3.385,5.838,6.569-1.547a1.291,1.291,0,0,1,1.471.722l8.794,19.3a1.291,1.291,0,0,1-1.686,1.721M1036.5,827.938l34.087,14.7-6.967-15.294-6.47,1.524a1.292,1.292,0,0,1-1.413-.609L1052.4,822.5Z" transform="translate(-859.702 -683.054)" fill="#86b0df"/>
      <path id="Path_46256" data-name="Path 46256" d="M1032.4,744.306a1.291,1.291,0,0,1-.674-1.7l10.258-23.792a1.291,1.291,0,0,1,2.3-.136l9.816,16.934a1.291,1.291,0,0,1-.7,1.87l-20.074,6.858a1.291,1.291,0,0,1-.929-.036m10.939-22.11-8.089,18.761,15.829-5.408Z" transform="translate(-859.702 -598.376)" fill="#86b0df"/>
      <path id="Path_46257" data-name="Path 46257" d="M1229.858,848.4a1.291,1.291,0,0,1-.664-.65l-8.794-19.3a1.291,1.291,0,0,1,.879-1.792l19.052-4.487a1.291,1.291,0,0,1,1.481,1.768l-10.258,23.792a1.291,1.291,0,0,1-1.7.675m-6.456-19.594,6.935,15.222,8.089-18.761Z" transform="translate(-1016.922 -685.122)" fill="#86b0df"/>
      <path id="Path_46258" data-name="Path 46258" d="M1107.638,744.116a1.289,1.289,0,0,1-.606-.538l-13.681-23.6a1.291,1.291,0,0,1,1.628-1.833l40.234,17.347a1.291,1.291,0,0,1-.215,2.442l-26.553,6.254a1.29,1.29,0,0,1-.807-.071m-10.094-22.054,11.242,19.392,21.818-5.139Z" transform="translate(-910.997 -598.377)" fill="#86b0df"/>
      <path id="Path_46259" data-name="Path 46259" d="M208.131,683.594h-.052a.41.41,0,0,1,0-.82h.051a27.648,27.648,0,0,0,3.24-.191.41.41,0,1,1,.1.814,28.445,28.445,0,0,1-3.337.2m-4.714-.4a.418.418,0,0,1-.07-.006,28.871,28.871,0,0,1-3.306-.769.41.41,0,0,1,.233-.786,28.054,28.054,0,0,0,3.212.747.41.41,0,0,1-.069.814m12.588-.73a.41.41,0,0,1-.115-.8,27.985,27.985,0,0,0,3.1-1.112.41.41,0,0,1,.322.754,28.755,28.755,0,0,1-3.194,1.145.416.416,0,0,1-.115.017m-20.211-1.72a.406.406,0,0,1-.179-.041,28.494,28.494,0,0,1-2.958-1.663.41.41,0,1,1,.444-.689,27.713,27.713,0,0,0,2.873,1.615.41.41,0,0,1-.179.778m27.5-1.6a.41.41,0,0,1-.221-.755,27.944,27.944,0,0,0,2.668-1.937.41.41,0,1,1,.52.633,28.776,28.776,0,0,1-2.746,1.995.409.409,0,0,1-.22.065m-34.124-2.9a.408.408,0,0,1-.276-.107,28.584,28.584,0,0,1-2.367-2.434.41.41,0,1,1,.621-.535,27.751,27.751,0,0,0,2.3,2.364.41.41,0,0,1-.276.713m40.188-2.329a.41.41,0,0,1-.309-.679,27.621,27.621,0,0,0,2.012-2.613.41.41,0,1,1,.678.46,28.453,28.453,0,0,1-2.072,2.69.409.409,0,0,1-.309.141m-45.273-3.856a.41.41,0,0,1-.351-.2,28.791,28.791,0,0,1-1.586-3,.41.41,0,1,1,.746-.34,27.989,27.989,0,0,0,1.541,2.914.41.41,0,0,1-.35.623m49.61-2.874a.41.41,0,0,1-.372-.58,28.142,28.142,0,0,0,1.192-3.074l.011-.036a.41.41,0,0,1,.781.25l-.012.036a28.953,28.953,0,0,1-1.227,3.165.41.41,0,0,1-.373.24M180.939,662.7a.41.41,0,0,1-.4-.3,28.609,28.609,0,0,1-.68-3.324.41.41,0,0,1,.811-.116,27.785,27.785,0,0,0,.661,3.228.41.41,0,0,1-.4.516m55.033-3.228a.4.4,0,0,1-.059,0,.41.41,0,0,1-.347-.464,27.635,27.635,0,0,0,.279-3.285.41.41,0,1,1,.819.02,28.478,28.478,0,0,1-.287,3.382.41.41,0,0,1-.4.351M180,654.753h-.011a.41.41,0,0,1-.4-.42,28.474,28.474,0,0,1,.289-3.382.41.41,0,1,1,.811.119,27.644,27.644,0,0,0-.281,3.284.41.41,0,0,1-.41.4m55.982-3.285a.41.41,0,0,1-.405-.352,27.765,27.765,0,0,0-.663-3.227.41.41,0,1,1,.792-.212,28.628,28.628,0,0,1,.683,3.323.41.41,0,0,1-.347.464.394.394,0,0,1-.059,0m-54.637-4.608a.41.41,0,0,1-.39-.535l.007-.02a28.96,28.96,0,0,1,1.218-3.144.41.41,0,0,1,.746.341,28.12,28.12,0,0,0-1.184,3.056l-.006.018a.41.41,0,0,1-.39.285m52.382-3.072a.41.41,0,0,1-.373-.24,28.014,28.014,0,0,0-1.543-2.913.41.41,0,1,1,.7-.426,28.841,28.841,0,0,1,1.589,3,.41.41,0,0,1-.373.58m-48.883-4.129a.41.41,0,0,1-.339-.64,28.481,28.481,0,0,1,2.07-2.692.41.41,0,0,1,.619.538,27.591,27.591,0,0,0-2.01,2.614.41.41,0,0,1-.34.18m44.562-2.612a.409.409,0,0,1-.31-.142,27.742,27.742,0,0,0-2.3-2.363.41.41,0,0,1,.552-.606,28.571,28.571,0,0,1,2.368,2.433.41.41,0,0,1-.31.678m-39.166-3.305a.41.41,0,0,1-.26-.726,28.759,28.759,0,0,1,2.745-2,.41.41,0,1,1,.442.69,27.934,27.934,0,0,0-2.666,1.94.407.407,0,0,1-.26.093m33.119-1.945a.408.408,0,0,1-.221-.065,27.634,27.634,0,0,0-2.874-1.613.41.41,0,0,1,.358-.738,28.506,28.506,0,0,1,2.96,1.661.41.41,0,0,1-.222.755m-26.276-2.212a.41.41,0,0,1-.161-.787,28.765,28.765,0,0,1,3.194-1.147.41.41,0,0,1,.231.787,27.932,27.932,0,0,0-3.1,1.114.407.407,0,0,1-.161.033m18.995-1.113a.412.412,0,0,1-.116-.017,28.012,28.012,0,0,0-3.212-.745.41.41,0,1,1,.137-.808,28.852,28.852,0,0,1,3.306.767.41.41,0,0,1-.116.8m-11.263-.957a.41.41,0,0,1-.048-.817,28.387,28.387,0,0,1,3.355-.2h.034a.41.41,0,1,1,0,.82h-.033a27.624,27.624,0,0,0-3.258.194.38.38,0,0,1-.049,0" transform="translate(-149.657 -522.092)" fill="#152b60"/>
      <path id="Path_46260" data-name="Path 46260" d="M804.545,578.03a.546.546,0,0,1-.006-1.093c1.135-.013,2.282-.059,3.409-.135a.546.546,0,1,1,.074,1.09c-1.148.078-2.315.124-3.47.138h-.007m-4.815-.132h-.037c-1.152-.077-2.315-.188-3.457-.33a.546.546,0,1,1,.135-1.085c1.122.139,2.264.248,3.4.324a.546.546,0,0,1-.036,1.092m13.044-.52a.546.546,0,0,1-.079-1.087c1.121-.166,2.251-.367,3.358-.6a.546.546,0,1,1,.222,1.07c-1.128.234-2.278.438-3.419.607a.527.527,0,0,1-.081.006m-21.224-.589a.551.551,0,0,1-.111-.011c-1.129-.233-2.267-.5-3.38-.8a.546.546,0,1,1,.282-1.056c1.094.291,2.21.555,3.319.784a.547.547,0,0,1-.11,1.082m29.288-1.178a.546.546,0,0,1-.153-1.071c1.087-.318,2.178-.672,3.245-1.051a.546.546,0,0,1,.366,1.03c-1.086.386-2.2.746-3.3,1.07a.547.547,0,0,1-.154.022m-37.24-1.04a.542.542,0,0,1-.183-.032c-1.089-.386-2.181-.809-3.245-1.257a.547.547,0,0,1,.424-1.008c1.045.44,2.117.855,3.186,1.234a.547.547,0,0,1-.183,1.062m44.983-1.815a.547.547,0,0,1-.224-1.045c1.031-.463,2.063-.962,3.066-1.483a.546.546,0,1,1,.5.97c-1.022.531-2.072,1.039-3.122,1.51a.545.545,0,0,1-.224.048m-52.564-1.478a.544.544,0,0,1-.251-.061c-1.025-.531-2.047-1.1-3.04-1.688a.546.546,0,1,1,.558-.94c.975.578,1.979,1.136,2.985,1.658a.546.546,0,0,1-.252,1.032m59.841-2.408a.547.547,0,0,1-.29-1.01c.958-.6,1.913-1.234,2.838-1.888a.546.546,0,1,1,.631.892c-.941.666-1.913,1.313-2.889,1.923a.544.544,0,0,1-.289.083m-66.9-1.887a.544.544,0,0,1-.315-.1c-.942-.665-1.877-1.367-2.78-2.085a.546.546,0,0,1,.68-.855c.887.705,1.806,1.394,2.731,2.048a.547.547,0,0,1-.316.993m73.581-2.954a.546.546,0,0,1-.35-.966c.87-.725,1.73-1.485,2.557-2.257a.546.546,0,1,1,.746.8c-.842.786-1.718,1.56-2.6,2.3a.543.543,0,0,1-.35.127m-79.987-2.259a.545.545,0,0,1-.373-.147c-.842-.786-1.674-1.607-2.471-2.441a.546.546,0,1,1,.79-.755c.783.819,1.6,1.625,2.427,2.4a.546.546,0,0,1-.373.946m85.955-3.445a.546.546,0,0,1-.4-.915c.764-.836,1.514-1.705,2.229-2.584a.547.547,0,0,1,.848.69c-.728.894-1.492,1.779-2.27,2.63a.545.545,0,0,1-.4.178m-91.594-2.585a.545.545,0,0,1-.424-.2c-.728-.893-1.44-1.819-2.117-2.752a.546.546,0,0,1,.885-.642c.665.916,1.364,1.826,2.079,2.7a.546.546,0,0,1-.423.892m96.736-3.877a.547.547,0,0,1-.449-.857c.644-.933,1.269-1.9,1.859-2.864a.546.546,0,1,1,.933.569c-.6.985-1.237,1.966-1.893,2.916a.546.546,0,0,1-.45.236M752.146,549a.546.546,0,0,1-.467-.262c-.6-.983-1.18-2-1.722-3.012a.546.546,0,1,1,.964-.515c.533,1,1.1,1.992,1.691,2.958a.547.547,0,0,1-.466.831m105.722-4.244a.547.547,0,0,1-.487-.793c.511-1.013,1-2.053,1.451-3.092a.546.546,0,1,1,1,.436c-.46,1.058-.957,2.117-1.478,3.149a.546.546,0,0,1-.488.3m-109.528-3.075a.547.547,0,0,1-.5-.328c-.46-1.055-.9-2.137-1.294-3.216a.546.546,0,1,1,1.025-.379c.391,1.059.819,2.122,1.27,3.158a.546.546,0,0,1-.5.765m112.737-4.541a.547.547,0,0,1-.517-.724c.367-1.072.707-2.167,1.012-3.257a.546.546,0,0,1,1.053.294c-.31,1.11-.657,2.226-1.03,3.317a.547.547,0,0,1-.517.37m-115.507-3.229a.547.547,0,0,1-.526-.4c-.311-1.11-.594-2.243-.842-3.37a.546.546,0,1,1,1.067-.234c.243,1.106.521,2.219.827,3.309a.546.546,0,0,1-.526.694m117.638-4.747a.548.548,0,0,1-.537-.651c.216-1.11.4-2.242.556-3.365a.546.546,0,0,1,1.083.148c-.156,1.143-.346,2.3-.566,3.426a.547.547,0,0,1-.536.442m-119.317-3.336a.546.546,0,0,1-.541-.472c-.156-1.141-.282-2.3-.374-3.453a.546.546,0,0,1,1.089-.087c.09,1.13.214,2.271.367,3.391a.546.546,0,0,1-.467.616.537.537,0,0,1-.075.005m120.338-4.856H864.2a.546.546,0,0,1-.515-.576c.063-1.128.1-2.275.1-3.409v-.118a.546.546,0,0,1,.545-.547h0a.546.546,0,0,1,.546.545v.12c0,1.154-.033,2.322-.1,3.471a.546.546,0,0,1-.545.516m-120.9-3.38a.546.546,0,0,1-.546-.545v-.061c0-1.135.031-2.282.094-3.411a.546.546,0,0,1,1.091.06c-.061,1.108-.092,2.236-.092,3.35v.059a.547.547,0,0,1-.546.547Zm120.8-4.993a.546.546,0,0,1-.544-.5c-.091-1.13-.216-2.271-.371-3.39a.546.546,0,1,1,1.083-.15c.158,1.14.284,2.3.378,3.452a.547.547,0,0,1-.5.589l-.045,0m-120.25-3.243a.553.553,0,0,1-.074-.005.547.547,0,0,1-.469-.615c.154-1.143.344-2.3.563-3.427a.546.546,0,0,1,1.073.208c-.215,1.111-.4,2.243-.553,3.366a.546.546,0,0,1-.541.473m119.027-4.92a.546.546,0,0,1-.533-.429c-.244-1.106-.523-2.219-.83-3.308a.546.546,0,0,1,1.052-.3c.313,1.109.6,2.243.845,3.369a.547.547,0,0,1-.416.651.555.555,0,0,1-.118.013m-117.364-3.166a.547.547,0,0,1-.527-.693c.309-1.111.655-2.227,1.027-3.318a.546.546,0,1,1,1.034.353c-.366,1.071-.7,2.167-1.009,3.258a.547.547,0,0,1-.526.4m115.036-4.755a.547.547,0,0,1-.513-.357c-.392-1.059-.821-2.121-1.273-3.157a.546.546,0,1,1,1-.438c.461,1.055.9,2.136,1.3,3.215a.547.547,0,0,1-.512.736M748.3,493.487a.546.546,0,0,1-.5-.764c.459-1.059.955-2.119,1.475-3.15a.546.546,0,1,1,.976.492c-.51,1.013-1,2.054-1.448,3.094a.547.547,0,0,1-.5.329M857.187,489a.546.546,0,0,1-.482-.288c-.534-1-1.1-1.991-1.694-2.956a.546.546,0,1,1,.932-.57c.6.983,1.182,2,1.725,3.01a.547.547,0,0,1-.481.8M752.1,486.149a.547.547,0,0,1-.466-.83c.6-.985,1.235-1.967,1.89-2.918a.546.546,0,1,1,.9.62c-.643.933-1.267,1.9-1.856,2.865a.546.546,0,0,1-.467.263M852.8,482.011a.545.545,0,0,1-.442-.225c-.665-.915-1.365-1.824-2.082-2.7a.546.546,0,0,1,.846-.691c.729.893,1.442,1.818,2.119,2.749a.547.547,0,0,1-.442.868M756.858,479.4a.547.547,0,0,1-.424-.891c.727-.894,1.49-1.78,2.267-2.633a.546.546,0,1,1,.808.736c-.763.837-1.512,1.707-2.227,2.586a.546.546,0,0,1-.424.2m90.65-3.722a.545.545,0,0,1-.395-.168c-.784-.818-1.6-1.624-2.429-2.4a.546.546,0,0,1,.745-.8c.843.785,1.675,1.606,2.473,2.438a.546.546,0,0,1-.394.925m-85.018-2.317a.546.546,0,0,1-.374-.945c.841-.788,1.716-1.562,2.6-2.3a.546.546,0,0,1,.7.839c-.869.726-1.728,1.486-2.555,2.26a.546.546,0,0,1-.373.147m78.913-3.243a.545.545,0,0,1-.339-.118c-.888-.7-1.807-1.392-2.732-2.045a.546.546,0,1,1,.63-.893c.943.664,1.879,1.365,2.782,2.082a.546.546,0,0,1-.34.974m-72.517-1.977a.546.546,0,0,1-.317-.992c.94-.666,1.912-1.314,2.887-1.925a.546.546,0,1,1,.58.926c-.958.6-1.912,1.237-2.836,1.891a.544.544,0,0,1-.315.1m65.712-2.705a.544.544,0,0,1-.278-.076c-.976-.578-1.98-1.134-2.987-1.655a.546.546,0,1,1,.5-.971c1.025.53,2.048,1.1,3.042,1.685a.546.546,0,0,1-.279,1.017m-58.671-1.6a.546.546,0,0,1-.253-1.031c1.022-.532,2.072-1.041,3.121-1.513a.546.546,0,0,1,.448,1c-1.03.464-2.061.964-3.065,1.486a.542.542,0,0,1-.252.062m51.289-2.116a.545.545,0,0,1-.211-.043c-1.046-.439-2.118-.853-3.187-1.231a.546.546,0,1,1,.364-1.03c1.089.385,2.181.807,3.246,1.254a.547.547,0,0,1-.212,1.05m-43.731-1.182a.547.547,0,0,1-.184-1.061c1.086-.388,2.2-.749,3.3-1.073a.546.546,0,0,1,.308,1.049c-1.086.319-2.178.673-3.244,1.054a.545.545,0,0,1-.184.032m35.912-1.483a.552.552,0,0,1-.141-.018c-1.094-.29-2.211-.553-3.32-.781a.547.547,0,0,1,.22-1.071c1.129.232,2.267.5,3.381.795a.547.547,0,0,1-.14,1.075m-27.966-.751a.547.547,0,0,1-.111-1.082c1.128-.235,2.278-.44,3.419-.61a.546.546,0,0,1,.161,1.081c-1.12.167-2.25.369-3.357.6a.538.538,0,0,1-.112.012m19.861-.815a.532.532,0,0,1-.067,0c-1.122-.138-2.265-.246-3.4-.32a.546.546,0,1,1,.072-1.09c1.152.076,2.315.186,3.457.326a.546.546,0,0,1-.066,1.089m-11.683-.311a.546.546,0,0,1-.037-1.092c1.148-.079,2.316-.127,3.47-.141a.546.546,0,0,1,.014,1.093c-1.134.014-2.281.061-3.409.138h-.038" transform="translate(-618.996 -379.965)" fill="#152b60"/>
      <path id="Path_46261" data-name="Path 46261" d="M72.878,323.693h2.245a.578.578,0,1,1,0,1.155H72.878a.578.578,0,0,1,0-1.155" transform="translate(-60.251 -269.75)" fill="#152b60"/>
      <path id="Path_46262" data-name="Path 46262" d="M109.066,324.261a.577.577,0,0,1-.577.587h-2.245a.577.577,0,1,1,0-1.155h2.231a.587.587,0,0,1,.591.568" transform="translate(-88.057 -269.75)" fill="#152b60"/>
      <path id="Path_46263" data-name="Path 46263" d="M96.872,300.853V303.1a.578.578,0,1,1-1.155,0v-2.244a.578.578,0,0,1,1.155,0" transform="translate(-79.766 -250.235)" fill="#152b60"/>
      <path id="Path_46264" data-name="Path 46264" d="M96.295,333.642h0a.578.578,0,0,1,.578.578v2.245a.578.578,0,0,1-1.155,0V334.22a.578.578,0,0,1,.578-.578" transform="translate(-79.766 -278.041)" fill="#152b60"/>
      <path id="Path_46265" data-name="Path 46265" d="M215.579,187.547a2.432,2.432,0,1,0,2.431,2.431,2.431,2.431,0,0,0-2.431-2.431m0,3.782a1.351,1.351,0,1,1,1.351-1.351,1.351,1.351,0,0,1-1.351,1.351" transform="translate(-177.627 -156.293)" fill="#152b60"/>
      <path id="Path_46266" data-name="Path 46266" d="M194.208,960.162a2.432,2.432,0,1,0,2.431,2.431,2.432,2.432,0,0,0-2.431-2.431m0,3.782a1.351,1.351,0,1,1,1.351-1.351,1.351,1.351,0,0,1-1.351,1.351" transform="translate(-159.816 -800.15)" fill="#152b60"/>
      <path id="Path_46267" data-name="Path 46267" d="M272.576,830.718h1.368a.352.352,0,1,1,0,.7h-1.368a.352.352,0,0,1,0-.7" transform="translate(-226.858 -692.278)" fill="#152b60"/>
      <path id="Path_46268" data-name="Path 46268" d="M294.63,831.064a.352.352,0,0,1-.352.358H292.91a.352.352,0,1,1,0-.7h1.359a.357.357,0,0,1,.36.346" transform="translate(-243.803 -692.278)" fill="#152b60"/>
      <path id="Path_46269" data-name="Path 46269" d="M287.2,816.8v1.368a.352.352,0,1,1-.7,0V816.8a.352.352,0,0,1,.7,0" transform="translate(-238.751 -680.386)" fill="#152b60"/>
      <path id="Path_46270" data-name="Path 46270" d="M286.848,836.781h0a.352.352,0,0,1,.352.352V838.5a.352.352,0,0,1-.7,0v-1.368a.352.352,0,0,1,.352-.352" transform="translate(-238.751 -697.331)" fill="#152b60"/>
      <path id="Path_46271" data-name="Path 46271" d="M1219.279,578.208a2.432,2.432,0,1,0,2.432,2.432,2.432,2.432,0,0,0-2.432-2.432m0,3.782a1.351,1.351,0,1,1,1.351-1.351,1.351,1.351,0,0,1-1.351,1.351" transform="translate(-1014.058 -481.85)" fill="#152b60"/>
      <path id="Path_46272" data-name="Path 46272" d="M1289.039,692.56h1.688a.434.434,0,0,1,0,.869h-1.688a.434.434,0,0,1,0-.869" transform="translate(-1073.856 -577.145)" fill="#152b60"/>
      <path id="Path_46273" data-name="Path 46273" d="M1316.259,692.987a.434.434,0,0,1-.434.442h-1.689a.434.434,0,0,1,0-.869h1.678a.441.441,0,0,1,.445.427" transform="translate(-1094.772 -577.145)" fill="#152b60"/>
      <path id="Path_46274" data-name="Path 46274" d="M1307.088,675.38v1.688a.434.434,0,1,1-.869,0V675.38a.434.434,0,1,1,.869,0" transform="translate(-1088.536 -562.466)" fill="#152b60"/>
      <path id="Path_46275" data-name="Path 46275" d="M1306.654,700.044h0a.434.434,0,0,1,.434.435v1.688a.434.434,0,0,1-.869,0v-1.688a.434.434,0,0,1,.434-.435" transform="translate(-1088.536 -583.381)" fill="#152b60"/>
      <path id="Path_46276" data-name="Path 46276" d="M1187.2,1277.265h1.688a.434.434,0,1,1,0,.869H1187.2a.434.434,0,0,1,0-.869" transform="translate(-988.986 -1064.408)" fill="#152b60"/>
      <path id="Path_46277" data-name="Path 46277" d="M1214.412,1277.692a.434.434,0,0,1-.434.442h-1.688a.434.434,0,1,1,0-.869h1.678a.441.441,0,0,1,.445.427" transform="translate(-1009.898 -1064.408)" fill="#152b60"/>
      <path id="Path_46278" data-name="Path 46278" d="M1205.242,1260.087v1.688a.434.434,0,1,1-.869,0v-1.688a.434.434,0,1,1,.869,0" transform="translate(-1003.663 -1049.731)" fill="#152b60"/>
      <path id="Path_46279" data-name="Path 46279" d="M1204.806,1284.747h0a.434.434,0,0,1,.435.434v1.688a.434.434,0,0,1-.869,0v-1.688a.434.434,0,0,1,.434-.434" transform="translate(-1003.662 -1070.643)" fill="#152b60"/>
      <path id="Path_46280" data-name="Path 46280" d="M1024.294,0a2.432,2.432,0,1,0,2.432,2.431A2.432,2.432,0,0,0,1024.294,0m0,3.782a1.351,1.351,0,1,1,1.351-1.351,1.351,1.351,0,0,1-1.351,1.351" transform="translate(-851.567 -0.005)" fill="#152b60"/>
      <path id="Path_46281" data-name="Path 46281" d="M1192.013,159.812h1.689a.434.434,0,0,1,0,.869h-1.689a.434.434,0,0,1,0-.869" transform="translate(-993.001 -133.18)" fill="#152b60"/>
      <path id="Path_46282" data-name="Path 46282" d="M1219.234,160.24a.435.435,0,0,1-.435.442h-1.688a.434.434,0,1,1,0-.869h1.678a.441.441,0,0,1,.445.427" transform="translate(-1013.916 -133.181)" fill="#152b60"/>
      <path id="Path_46283" data-name="Path 46283" d="M1210.063,142.631v1.688a.435.435,0,1,1-.869,0v-1.688a.435.435,0,1,1,.869,0" transform="translate(-1007.68 -118.5)" fill="#152b60"/>
      <path id="Path_46284" data-name="Path 46284" d="M1209.628,167.3h0a.434.434,0,0,1,.435.434v1.689a.435.435,0,0,1-.869,0V167.73a.434.434,0,0,1,.434-.434" transform="translate(-1007.68 -139.417)" fill="#152b60"/>
      <path id="Path_46285" data-name="Path 46285" d="M1280.644,426.646a19.92,19.92,0,0,1-3.412-.3.41.41,0,1,1,.141-.807,19.107,19.107,0,0,0,3.27.283h.059a.41.41,0,0,1,0,.82Zm4.789-.6a.41.41,0,0,1-.1-.807,19.291,19.291,0,0,0,3.153-1.1.41.41,0,1,1,.336.748,20.086,20.086,0,0,1-3.288,1.146.408.408,0,0,1-.1.013m-12.7-1.071a.41.41,0,0,1-.165-.035,19.957,19.957,0,0,1-3.054-1.676.41.41,0,1,1,.456-.681,19.153,19.153,0,0,0,2.928,1.607.41.41,0,0,1-.165.785m20-2.52a.41.41,0,0,1-.253-.732,19.2,19.2,0,0,0,2.438-2.283.41.41,0,0,1,.61.547,20.014,20.014,0,0,1-2.542,2.381.409.409,0,0,1-.253.087m-26.6-2.24a.409.409,0,0,1-.3-.135,20.069,20.069,0,0,1-2.1-2.776.41.41,0,1,1,.694-.436,19.288,19.288,0,0,0,2.017,2.662.41.41,0,0,1-.3.685m31.812-4.008a.41.41,0,0,1-.362-.6,19.332,19.332,0,0,0,1.293-3.079l.008-.026a.41.41,0,1,1,.781.249l-.008.026a20.174,20.174,0,0,1-1.348,3.211.409.409,0,0,1-.363.219m-35.9-3.026a.41.41,0,0,1-.389-.282,20.014,20.014,0,0,1-.8-3.389.41.41,0,1,1,.811-.117,19.191,19.191,0,0,0,.765,3.25.41.41,0,0,1-.261.517.4.4,0,0,1-.128.021m38.127-4.83h-.028a.41.41,0,0,1-.382-.436c.028-.417.042-.84.042-1.259a19.091,19.091,0,0,0-.114-2.08.41.41,0,0,1,.815-.09,19.967,19.967,0,0,1,.119,2.169c0,.436-.015.878-.043,1.313a.41.41,0,0,1-.409.383m-39.008-3.258-.042,0a.41.41,0,0,1-.366-.449,20.074,20.074,0,0,1,.656-3.42.41.41,0,1,1,.789.223,19.248,19.248,0,0,0-.629,3.28.41.41,0,0,1-.407.368M1299,400.3a.41.41,0,0,1-.385-.268,19.3,19.3,0,0,0-1.425-3.021.41.41,0,0,1,.708-.412,20.158,20.158,0,0,1,1.485,3.149.41.41,0,0,1-.384.552m-35.352-2.955a.41.41,0,0,1-.355-.613,19.9,19.9,0,0,1,1.986-2.862.41.41,0,1,1,.63.525,19.05,19.05,0,0,0-1.9,2.743.409.409,0,0,1-.356.207m31.013-3.93a.408.408,0,0,1-.294-.124,19.094,19.094,0,0,0-2.529-2.182.41.41,0,0,1,.479-.665,19.916,19.916,0,0,1,2.637,2.276.41.41,0,0,1-.294.7m-25.588-2.136a.41.41,0,0,1-.242-.741,20.123,20.123,0,0,1,2.979-1.8.41.41,0,1,1,.362.735,19.33,19.33,0,0,0-2.857,1.73.408.408,0,0,1-.241.079m18.822-2.384a.411.411,0,0,1-.152-.029c-.405-.161-.822-.311-1.24-.445a19.474,19.474,0,0,0-1.958-.519.41.41,0,1,1,.168-.8,20.306,20.306,0,0,1,2.041.541c.435.14.87.3,1.292.464a.41.41,0,0,1-.152.791m-11.4-.955a.41.41,0,0,1-.087-.81,19.968,19.968,0,0,1,3.454-.44.41.41,0,1,1,.032.819,19.115,19.115,0,0,0-3.312.422.406.406,0,0,1-.088.009" transform="translate(-1050.647 -322.248)" fill="#152b60"/>
      <path id="Path_46286" data-name="Path 46286" d="M27.236,491.654c-.558,0-1.125-.018-1.683-.053a.41.41,0,0,1,.051-.818c.542.034,1.091.051,1.632.051s1.108-.018,1.657-.052a.41.41,0,1,1,.052.818c-.566.036-1.141.054-1.709.054m-6.279-.75a.409.409,0,0,1-.1-.012c-.659-.159-1.321-.345-1.968-.554-.427-.137-.855-.287-1.273-.444a.41.41,0,0,1,.289-.767c.405.153.821.3,1.235.431.628.2,1.27.383,1.909.537a.41.41,0,0,1-.1.808m12.58-.006a.41.41,0,0,1-.1-.808,26.566,26.566,0,0,0,3.141-.974.41.41,0,0,1,.291.766,27.416,27.416,0,0,1-3.239,1,.411.411,0,0,1-.1.012m-19.988-3a.408.408,0,0,1-.208-.057,27.119,27.119,0,0,1-2.806-1.908.41.41,0,0,1,.5-.647,26.3,26.3,0,0,0,2.721,1.85.41.41,0,0,1-.209.763m27.388-.022a.41.41,0,0,1-.21-.762,26.636,26.636,0,0,0,2.719-1.853.41.41,0,0,1,.5.647,27.408,27.408,0,0,1-2.8,1.91.407.407,0,0,1-.209.058M7.359,482.843a.408.408,0,0,1-.3-.135,27.341,27.341,0,0,1-2.115-2.652.41.41,0,1,1,.671-.47,26.56,26.56,0,0,0,2.051,2.572.41.41,0,0,1-.3.685m39.766-.024a.41.41,0,0,1-.3-.685,26.334,26.334,0,0,0,2.051-2.573.41.41,0,1,1,.672.47,27.136,27.136,0,0,1-2.115,2.654.409.409,0,0,1-.3.135M2.937,476.185a.41.41,0,0,1-.371-.236,27.475,27.475,0,0,1-1.243-3.155.41.41,0,1,1,.78-.253,26.646,26.646,0,0,0,1.206,3.06.41.41,0,0,1-.371.584m48.6-.03a.41.41,0,0,1-.371-.582,26.8,26.8,0,0,0,1.2-3.064l.011-.033a.41.41,0,0,1,.781.25l-.011.034a27.63,27.63,0,0,1-1.235,3.158.41.41,0,0,1-.372.237M.664,468.524a.41.41,0,0,1-.405-.353A27.146,27.146,0,0,1,0,464.789a.41.41,0,0,1,.82-.011,26.305,26.305,0,0,0,.25,3.279.41.41,0,0,1-.349.463.426.426,0,0,1-.057,0m53.139-.071a.4.4,0,0,1-.056,0,.41.41,0,0,1-.35-.462,26.335,26.335,0,0,0,.243-3.28.41.41,0,0,1,.41-.405h0a.41.41,0,0,1,.405.414,27.144,27.144,0,0,1-.25,3.383.41.41,0,0,1-.405.354M.759,460.533a.411.411,0,0,1-.4-.476,27.484,27.484,0,0,1,.755-3.306.41.41,0,0,1,.786.231,26.677,26.677,0,0,0-.732,3.207.41.41,0,0,1-.4.344m52.931-.071a.41.41,0,0,1-.4-.343,26.477,26.477,0,0,0-.74-3.2.41.41,0,0,1,.786-.234,27.324,27.324,0,0,1,.763,3.3.411.411,0,0,1-.4.477M3.2,452.923a.41.41,0,0,1-.367-.592,27.172,27.172,0,0,1,1.691-2.943.41.41,0,0,1,.684.452,26.388,26.388,0,0,0-1.64,2.854.41.41,0,0,1-.368.228m48.023-.061a.41.41,0,0,1-.367-.227,26.675,26.675,0,0,0-1.648-2.847.41.41,0,0,1,.683-.454,27.475,27.475,0,0,1,1.7,2.935.41.41,0,0,1-.366.593M7.777,446.367a.41.41,0,0,1-.3-.692,27.267,27.267,0,0,1,2.486-2.308.41.41,0,1,1,.519.634,26.48,26.48,0,0,0-2.411,2.238.408.408,0,0,1-.3.127m38.856-.049a.409.409,0,0,1-.3-.127,26.364,26.364,0,0,0-2.414-2.236.41.41,0,0,1,.518-.635,27.2,27.2,0,0,1,2.489,2.306.41.41,0,0,1-.3.692M14.087,441.46a.41.41,0,0,1-.2-.767,27.436,27.436,0,0,1,3.053-1.475.41.41,0,1,1,.31.759,26.634,26.634,0,0,0-2.962,1.431.407.407,0,0,1-.2.053m26.227-.038a.409.409,0,0,1-.2-.052,26.486,26.486,0,0,0-2.967-1.419.41.41,0,0,1,.307-.76,27.311,27.311,0,0,1,3.059,1.463.41.41,0,0,1-.2.768m-18.758-2.8a.41.41,0,0,1-.087-.81,27.23,27.23,0,0,1,3.351-.512.41.41,0,1,1,.073.816,26.425,26.425,0,0,0-3.25.5.4.4,0,0,1-.087.009m11.278-.012a.416.416,0,0,1-.086-.009,26.419,26.419,0,0,0-3.253-.49.41.41,0,1,1,.071-.817,27.286,27.286,0,0,1,3.354.5.41.41,0,0,1-.086.811" transform="translate(-0.001 -364.417)" fill="#152b60"/>
      <path id="Path_46287" data-name="Path 46287" d="M529.43,306.026,526.452,324.5l-.572,3.545c0,2.745-5.865,38.908-8.9,38.908l-48.036-33.192L415.629,370.75c-3.037,0-6.23-38.915-6.23-41.66l-.212-4.591-.851-18.419,8.571-7.406,48.608-42a5.964,5.964,0,0,1,6.853,0l48.562,42Z" transform="translate(-340.286 -212.993)" fill="#761830"/>
      <path id="Path_46288" data-name="Path 46288" d="M620.307,476v56.5H545.053V459.692h58.778Z" transform="translate(-454.219 -383.085)" fill="#fff"/>
      <path id="Path_46289" data-name="Path 46289" d="M904.7,475.65v1.906H886.318V459.267l1.906.071Z" transform="translate(-738.612 -382.73)" fill="#14356b"/>
      <path id="Path_46290" data-name="Path 46290" d="M914.229,476H897.753V459.692Z" transform="translate(-748.141 -383.085)" fill="#fff"/>
      <path id="Path_46291" data-name="Path 46291" d="M774.14,590.821l27.55-28.1a39.81,39.81,0,0,1,28.4-11.6c2.545,0,4.609,1.677,4.609,3.745V629.98c0,2.068-3.441,5.209-5.987,5.209H813.059l-38.919-39.7a3.277,3.277,0,0,1,0-4.667" transform="translate(-644.315 -459.275)" fill="#9f2040"/>
      <path id="Path_46292" data-name="Path 46292" d="M462.144,590.513l-27.55-28.1a39.81,39.81,0,0,0-28.4-11.6c-2.545,0-4.609,1.677-4.609,3.745v75.566c0,2.068,2.954,4.81,5.5,4.81l16.141-.051,38.919-39.7a3.277,3.277,0,0,0,0-4.667" transform="translate(-334.66 -459.018)" fill="#9f2040"/>
      <path id="Path_46293" data-name="Path 46293" d="M525.044,742.186v16.2c0,2.421-2.463,4.384-5.5,4.384H407.082c-3.037,0-5.5-1.963-5.5-4.384v-16.2l58.3-37.018a6.4,6.4,0,0,1,3.233-.953,6.464,6.464,0,0,1,3.621.953Z" transform="translate(-334.659 -586.855)" fill="#e60041"/>
      <path id="Path_46294" data-name="Path 46294" d="M401.585,756.019l50.738-27.1.992,1.012-51.73,32.844Z" transform="translate(-334.66 -607.444)" fill="#8b0f2e"/>
      <path id="Path_46295" data-name="Path 46295" d="M883.739,756.019,833,728.918l-.992,1.012,51.73,32.844Z" transform="translate(-693.354 -607.444)" fill="#8b0f2e"/>
      <path id="Path_46296" data-name="Path 46296" d="M717.374,603a10.691,10.691,0,0,0-10.691,10.691h21.382A10.691,10.691,0,0,0,717.374,603" transform="translate(-588.913 -502.511)" fill="#b9d6f2"/>
      <path id="Path_46297" data-name="Path 46297" d="M748.705,537.306a5.532,5.532,0,1,1-5.532-5.532,5.532,5.532,0,0,1,5.532,5.532" transform="translate(-614.712 -443.154)" fill="#b9d6f2"/>
    </g>
  </g>
</svg>
