<svg id="Group_8051" data-name="Group 8051" xmlns="http://www.w3.org/2000/svg" width="248.2" height="215.121" viewBox="0 0 248.2 215.121">
  <g id="Group_8052" data-name="Group 8052" transform="translate(0 0)">
    <path id="Path_46247" data-name="Path 46247" d="M343.038,329.325,305.957,341.9a1.154,1.154,0,0,1-1.379-1.654l9.215-16.566a1.153,1.153,0,0,1,1.362-.537l5.741,1.848,3.433-4.958a1.154,1.154,0,0,1,1.408-.4l17.39,7.545a1.154,1.154,0,0,1-.089,2.151m-34.989,9.427L339.464,328.1l-13.777-5.978-3.381,4.884a1.154,1.154,0,0,1-1.3.441l-5.654-1.82Z" transform="translate(-254.06 -266.662)" fill="#fff"/>
    <path id="Path_46248" data-name="Path 46248" d="M268.461,332.776a1.154,1.154,0,0,1-1.463-.722l-7.434-21.926a1.154,1.154,0,0,1,1.446-1.469l16.649,5.361a1.154,1.154,0,0,1,.655,1.659L269.1,332.244a1.153,1.153,0,0,1-.638.532m-5.976-21.218,5.862,17.29,7.267-13.063Z" transform="translate(-216.564 -257.54)" fill="#fff"/>
    <path id="Path_46249" data-name="Path 46249" d="M442.348,256.794a1.154,1.154,0,0,1-.83-.034l-17.39-7.545a1.154,1.154,0,0,1-.49-1.715l9.956-14.381a1.154,1.154,0,0,1,2.041.286l7.434,21.927a1.154,1.154,0,0,1-.722,1.463m-16.012-9.137,13.713,5.95-5.862-17.29Z" transform="translate(-353.369 -194.13)" fill="#fff"/>
    <path id="Path_46250" data-name="Path 46250" d="M284.232,254.911a1.153,1.153,0,0,1-.724.006L260.3,247.445a1.154,1.154,0,0,1-.017-2.191l37.081-12.573a1.154,1.154,0,0,1,1.319,1.749L284.81,254.475a1.152,1.152,0,0,1-.578.436m-19.9-8.592,19.067,6.139,11.4-16.469Z" transform="translate(-216.564 -194.131)" fill="#fff"/>
    <path id="Path_46251" data-name="Path 46251" d="M311.325,1111.225l-39.162,19.429a1.288,1.288,0,0,1-1.772-1.625l7.733-19.7a1.288,1.288,0,0,1,1.427-.8l6.627,1.191,3.061-6a1.288,1.288,0,0,1,1.5-.654l20.366,5.762a1.288,1.288,0,0,1,.222,2.393m-37.315,15.636,33.179-16.46-16.135-4.565-3.015,5.907a1.288,1.288,0,0,1-1.375.682l-6.527-1.173Z" transform="translate(-225.577 -920.508)" fill="#fff"/>
    <path id="Path_46252" data-name="Path 46252" d="M214.22,1140.912a1.288,1.288,0,0,1-1.726-.582L201,1117.173a1.288,1.288,0,0,1,1.382-1.84l19.221,3.455a1.288,1.288,0,0,1,.971,1.739l-7.733,19.7a1.289,1.289,0,0,1-.627.684m-9.769-22.591,9.059,18.261,6.1-15.536Z" transform="translate(-167.633 -930.766)" fill="#fff"/>
    <path id="Path_46253" data-name="Path 46253" d="M406.125,1023.494a1.289,1.289,0,0,1-.923.086l-20.366-5.763a1.288,1.288,0,0,1-.8-1.825l8.877-17.4a1.288,1.288,0,0,1,2.3.013l11.489,23.157a1.289,1.289,0,0,1-.581,1.727m-19.078-7.729,16.059,4.544-9.059-18.261Z" transform="translate(-320.376 -832.777)" fill="#fff"/>
    <path id="Path_46254" data-name="Path 46254" d="M229.52,1024.581a1.285,1.285,0,0,1-.8.114l-26.789-4.815a1.288,1.288,0,0,1-.344-2.422l39.162-19.429a1.288,1.288,0,0,1,1.72,1.74l-12.373,24.244a1.284,1.284,0,0,1-.575.568m-23.3-6.547,22.012,3.956,10.166-19.92Z" transform="translate(-167.632 -832.777)" fill="#fff"/>
    <path id="Path_46255" data-name="Path 46255" d="M1072.346,846.141,1032.4,828.917a1.282,1.282,0,0,1,.093-2.39l19.931-6.809a1.282,1.282,0,0,1,1.524.57l3.361,5.8,6.522-1.536a1.282,1.282,0,0,1,1.46.716l8.732,19.167a1.282,1.282,0,0,1-1.674,1.709m-35.881-18.263,33.845,14.592-6.918-15.185-6.424,1.513a1.283,1.283,0,0,1-1.4-.6l-3.31-5.71Z" transform="translate(-860.924 -684.025)" fill="#fff"/>
    <path id="Path_46256" data-name="Path 46256" d="M1032.4,744.119a1.282,1.282,0,0,1-.67-1.685l10.185-23.622a1.282,1.282,0,0,1,2.286-.135l9.746,16.813a1.282,1.282,0,0,1-.7,1.856l-19.931,6.809a1.281,1.281,0,0,1-.922-.036m10.861-21.953-8.031,18.628,15.717-5.369Z" transform="translate(-860.924 -599.227)" fill="#fff"/>
    <path id="Path_46257" data-name="Path 46257" d="M1229.79,848.213a1.282,1.282,0,0,1-.659-.646L1220.4,828.4a1.282,1.282,0,0,1,.873-1.779l18.917-4.456a1.282,1.282,0,0,1,1.471,1.755l-10.185,23.622a1.282,1.282,0,0,1-1.685.67m-6.41-19.454,6.885,15.114,8.031-18.627Z" transform="translate(-1018.368 -686.097)" fill="#fff"/>
    <path id="Path_46258" data-name="Path 46258" d="M1107.535,743.93a1.281,1.281,0,0,1-.6-.534l-13.584-23.433a1.282,1.282,0,0,1,1.617-1.82l39.948,17.224a1.282,1.282,0,0,1-.213,2.425L1108.336,744a1.281,1.281,0,0,1-.8-.07m-10.022-21.9,11.162,19.254,21.663-5.1Z" transform="translate(-912.293 -599.227)" fill="#fff"/>
    <path id="Path_46259" data-name="Path 46259" d="M207.928,683.188h-.052a.407.407,0,0,1,0-.814h.051a27.48,27.48,0,0,0,3.217-.19.407.407,0,1,1,.1.808,28.2,28.2,0,0,1-3.313.2m-4.681-.4a.418.418,0,0,1-.069-.006,28.687,28.687,0,0,1-3.282-.764.407.407,0,0,1,.231-.78,27.87,27.87,0,0,0,3.189.742.407.407,0,0,1-.068.808m12.5-.725a.407.407,0,0,1-.114-.8,27.8,27.8,0,0,0,3.081-1.1.407.407,0,0,1,.319.748,28.552,28.552,0,0,1-3.172,1.137.413.413,0,0,1-.114.016m-20.068-1.707a.4.4,0,0,1-.178-.041,28.306,28.306,0,0,1-2.937-1.651.407.407,0,1,1,.44-.684,27.576,27.576,0,0,0,2.853,1.6.407.407,0,0,1-.178.773m27.3-1.584a.407.407,0,0,1-.22-.75,27.738,27.738,0,0,0,2.649-1.924.407.407,0,1,1,.516.629,28.59,28.59,0,0,1-2.727,1.981.406.406,0,0,1-.219.064M189.1,675.9a.405.405,0,0,1-.274-.107,28.394,28.394,0,0,1-2.35-2.417.407.407,0,1,1,.616-.532,27.547,27.547,0,0,0,2.282,2.347.407.407,0,0,1-.274.708m39.9-2.313a.407.407,0,0,1-.307-.674,27.442,27.442,0,0,0,2-2.594.407.407,0,1,1,.673.457,28.257,28.257,0,0,1-2.058,2.671.406.406,0,0,1-.307.14m-44.951-3.829a.407.407,0,0,1-.348-.2,28.6,28.6,0,0,1-1.575-2.979.407.407,0,1,1,.741-.337,27.783,27.783,0,0,0,1.53,2.894.407.407,0,0,1-.348.618m49.257-2.854a.407.407,0,0,1-.37-.576,27.95,27.95,0,0,0,1.183-3.052l.011-.036a.407.407,0,0,1,.775.248l-.012.036a28.763,28.763,0,0,1-1.218,3.143.407.407,0,0,1-.37.238m-52.38-4.456a.407.407,0,0,1-.393-.3,28.391,28.391,0,0,1-.675-3.3.407.407,0,0,1,.806-.115,27.6,27.6,0,0,0,.656,3.205.408.408,0,0,1-.393.512m54.642-3.2a.389.389,0,0,1-.059,0,.407.407,0,0,1-.344-.461,27.445,27.445,0,0,0,.277-3.261.407.407,0,1,1,.814.02,28.262,28.262,0,0,1-.285,3.358.407.407,0,0,1-.4.348m-55.578-4.687h-.01a.407.407,0,0,1-.4-.417,28.276,28.276,0,0,1,.287-3.358.407.407,0,0,1,.805.118,27.449,27.449,0,0,0-.279,3.261.407.407,0,0,1-.407.4m55.584-3.262a.407.407,0,0,1-.4-.349,27.558,27.558,0,0,0-.658-3.2.407.407,0,0,1,.786-.211,28.425,28.425,0,0,1,.678,3.3.407.407,0,0,1-.345.461.4.4,0,0,1-.058,0m-54.249-4.575a.408.408,0,0,1-.388-.531l.007-.02a28.761,28.761,0,0,1,1.209-3.122.407.407,0,0,1,.74.338,27.926,27.926,0,0,0-1.175,3.035l-.006.018a.407.407,0,0,1-.387.283m52.009-3.05a.407.407,0,0,1-.37-.238,27.821,27.821,0,0,0-1.532-2.893.407.407,0,0,1,.7-.423,28.619,28.619,0,0,1,1.577,2.978.407.407,0,0,1-.37.576m-48.535-4.1a.407.407,0,0,1-.337-.635,28.263,28.263,0,0,1,2.056-2.673.407.407,0,1,1,.614.534,27.43,27.43,0,0,0-2,2.6.407.407,0,0,1-.337.179m44.245-2.593a.406.406,0,0,1-.308-.141,27.51,27.51,0,0,0-2.284-2.346.407.407,0,0,1,.548-.6,28.374,28.374,0,0,1,2.351,2.416.407.407,0,0,1-.308.673m-38.887-3.282a.407.407,0,0,1-.259-.721,28.549,28.549,0,0,1,2.725-1.982.407.407,0,1,1,.439.685,27.754,27.754,0,0,0-2.647,1.926.4.4,0,0,1-.258.093m32.884-1.931a.405.405,0,0,1-.22-.065,27.432,27.432,0,0,0-2.854-1.6.407.407,0,1,1,.355-.732,28.32,28.32,0,0,1,2.939,1.649.407.407,0,0,1-.22.749m-26.09-2.2a.407.407,0,0,1-.16-.781,28.564,28.564,0,0,1,3.171-1.139.407.407,0,0,1,.229.781,27.776,27.776,0,0,0-3.08,1.106.4.4,0,0,1-.16.033m18.86-1.105a.41.41,0,0,1-.115-.017,27.777,27.777,0,0,0-3.189-.74.407.407,0,1,1,.137-.8,28.642,28.642,0,0,1,3.283.762.407.407,0,0,1-.115.8m-11.183-.95a.407.407,0,0,1-.048-.811,28.192,28.192,0,0,1,3.331-.2h.033a.407.407,0,1,1,0,.814h-.033a27.427,27.427,0,0,0-3.235.192.387.387,0,0,1-.049,0" transform="translate(-149.87 -522.834)" fill="#fff"/>
    <path id="Path_46260" data-name="Path 46260" d="M804.106,577.161a.542.542,0,0,1-.006-1.085c1.127-.013,2.265-.059,3.385-.134a.542.542,0,1,1,.074,1.082c-1.14.078-2.3.123-3.446.137h-.007m-4.781-.131h-.037c-1.143-.076-2.3-.187-3.433-.327a.543.543,0,0,1,.134-1.077c1.114.138,2.248.246,3.371.321a.543.543,0,0,1-.036,1.084m12.951-.517a.543.543,0,0,1-.079-1.079c1.113-.165,2.235-.364,3.334-.592a.542.542,0,1,1,.22,1.062c-1.12.232-2.262.435-3.395.6a.537.537,0,0,1-.08.006m-21.073-.585a.552.552,0,0,1-.11-.011c-1.121-.231-2.251-.5-3.356-.793a.543.543,0,1,1,.28-1.048c1.086.289,2.195.551,3.3.778a.543.543,0,0,1-.109,1.074m29.079-1.169a.543.543,0,0,1-.152-1.063c1.079-.316,2.163-.667,3.222-1.043a.542.542,0,0,1,.364,1.022c-1.078.384-2.182.741-3.281,1.062a.541.541,0,0,1-.153.022m-36.975-1.033a.539.539,0,0,1-.181-.031c-1.081-.383-2.165-.8-3.222-1.248a.543.543,0,0,1,.421-1c1.037.437,2.1.849,3.163,1.226a.543.543,0,0,1-.181,1.054m44.663-1.8a.543.543,0,0,1-.223-1.038c1.024-.46,2.048-.955,3.044-1.472a.542.542,0,1,1,.5.963c-1.014.527-2.058,1.031-3.1,1.5a.541.541,0,0,1-.222.048m-52.191-1.467a.539.539,0,0,1-.249-.061c-1.017-.527-2.033-1.091-3.018-1.676a.542.542,0,1,1,.554-.933c.968.574,1.965,1.128,2.964,1.646a.543.543,0,0,1-.25,1.024m59.416-2.391a.543.543,0,0,1-.288-1c.952-.595,1.9-1.226,2.817-1.875a.543.543,0,1,1,.627.886c-.935.661-1.9,1.3-2.869,1.909a.541.541,0,0,1-.287.083m-66.423-1.874a.541.541,0,0,1-.313-.1c-.935-.661-1.864-1.357-2.76-2.07a.543.543,0,0,1,.675-.849c.881.7,1.793,1.384,2.711,2.033a.543.543,0,0,1-.314.986m73.058-2.933a.543.543,0,0,1-.348-.959c.864-.72,1.718-1.474,2.539-2.241a.542.542,0,1,1,.74.793c-.836.781-1.705,1.549-2.585,2.281a.54.54,0,0,1-.347.126m-79.418-2.243a.542.542,0,0,1-.37-.146c-.836-.781-1.661-1.6-2.453-2.424a.543.543,0,0,1,.784-.75c.778.813,1.588,1.614,2.41,2.38a.543.543,0,0,1-.37.939m85.344-3.421a.542.542,0,0,1-.4-.908c.758-.83,1.5-1.693,2.213-2.565a.543.543,0,1,1,.842.685c-.723.888-1.481,1.767-2.254,2.612a.541.541,0,0,1-.4.177m-90.942-2.567a.541.541,0,0,1-.421-.2c-.723-.887-1.43-1.806-2.1-2.732a.543.543,0,1,1,.878-.637c.66.91,1.354,1.813,2.064,2.683a.542.542,0,0,1-.42.885m96.048-3.849a.543.543,0,0,1-.446-.851c.639-.926,1.26-1.883,1.845-2.843a.543.543,0,1,1,.927.565c-.6.978-1.228,1.952-1.879,2.895a.542.542,0,0,1-.447.234M752.08,548.341a.542.542,0,0,1-.464-.26c-.6-.976-1.171-1.983-1.71-2.991a.542.542,0,1,1,.957-.511c.529.99,1.094,1.978,1.679,2.937a.543.543,0,0,1-.463.825m104.971-4.214a.543.543,0,0,1-.484-.787c.508-1.006.992-2.038,1.441-3.07a.543.543,0,1,1,1,.433c-.457,1.05-.951,2.1-1.468,3.126a.542.542,0,0,1-.485.3M748.3,541.074a.543.543,0,0,1-.5-.326c-.457-1.048-.889-2.122-1.284-3.193a.542.542,0,0,1,1.018-.376c.389,1.052.813,2.107,1.261,3.136a.542.542,0,0,1-.5.759m111.936-4.509a.543.543,0,0,1-.514-.719c.364-1.064.7-2.152,1-3.234a.543.543,0,0,1,1.045.292c-.308,1.1-.652,2.21-1.023,3.293a.543.543,0,0,1-.513.367m-114.685-3.206a.543.543,0,0,1-.522-.4c-.309-1.1-.59-2.227-.836-3.346a.543.543,0,1,1,1.06-.233c.241,1.1.517,2.2.821,3.285a.543.543,0,0,1-.522.689m116.8-4.713a.55.55,0,0,1-.1-.01.542.542,0,0,1-.429-.636c.215-1.1.4-2.227.552-3.341a.543.543,0,0,1,1.075.146c-.155,1.135-.344,2.279-.562,3.4a.543.543,0,0,1-.532.439m-118.469-3.312a.542.542,0,0,1-.537-.469c-.155-1.133-.28-2.286-.371-3.428a.543.543,0,0,1,1.082-.086c.09,1.122.212,2.255.365,3.367a.542.542,0,0,1-.464.611.535.535,0,0,1-.074.005m119.482-4.821h-.031a.542.542,0,0,1-.511-.572c.063-1.12.095-2.259.095-3.385v-.117a.542.542,0,0,1,.542-.543h0a.542.542,0,0,1,.543.542v.119c0,1.146-.033,2.306-.1,3.446a.543.543,0,0,1-.541.512m-120.042-3.356a.542.542,0,0,1-.543-.542v-.06c0-1.127.031-2.266.093-3.386a.543.543,0,0,1,1.084.06c-.061,1.1-.092,2.22-.092,3.327v.058a.543.543,0,0,1-.542.544ZM863.264,512.2a.543.543,0,0,1-.54-.5c-.091-1.122-.214-2.255-.368-3.366a.542.542,0,1,1,1.075-.149c.156,1.132.283,2.285.375,3.428a.543.543,0,0,1-.5.584l-.044,0m-119.395-3.22a.544.544,0,0,1-.539-.615c.153-1.135.341-2.28.559-3.4a.543.543,0,0,1,1.065.206c-.214,1.1-.4,2.227-.549,3.342a.543.543,0,0,1-.537.47m118.18-4.885a.542.542,0,0,1-.529-.426c-.242-1.1-.52-2.2-.824-3.285a.542.542,0,1,1,1.044-.294c.31,1.1.593,2.227.839,3.345a.543.543,0,0,1-.413.647.55.55,0,0,1-.117.013m-116.53-3.143a.543.543,0,0,1-.523-.688c.307-1.1.65-2.211,1.02-3.294a.543.543,0,0,1,1.027.351c-.363,1.064-.7,2.152-1,3.235a.543.543,0,0,1-.522.4m114.218-4.721a.543.543,0,0,1-.509-.354c-.39-1.052-.815-2.106-1.264-3.134a.542.542,0,1,1,.994-.434c.458,1.047.891,2.121,1.288,3.192a.543.543,0,0,1-.509.731m-111.48-3.01a.542.542,0,0,1-.5-.758c.456-1.051.948-2.1,1.464-3.128a.543.543,0,0,1,.969.488c-.506,1.006-.99,2.039-1.438,3.071a.543.543,0,0,1-.5.327m108.117-4.455a.543.543,0,0,1-.479-.286c-.53-.99-1.1-1.977-1.682-2.935a.543.543,0,1,1,.926-.566c.6.976,1.173,1.981,1.713,2.989a.543.543,0,0,1-.478.8m-104.344-2.831a.543.543,0,0,1-.463-.825c.595-.978,1.226-1.953,1.876-2.9a.542.542,0,0,1,.893.616c-.638.927-1.258,1.884-1.842,2.845a.543.543,0,0,1-.464.261m99.991-4.109a.541.541,0,0,1-.439-.224c-.66-.909-1.355-1.811-2.067-2.681a.543.543,0,0,1,.84-.687c.724.886,1.432,1.8,2.1,2.73a.543.543,0,0,1-.439.862m-95.263-2.592a.543.543,0,0,1-.421-.885c.722-.888,1.479-1.768,2.251-2.614a.543.543,0,0,1,.8.731c-.758.831-1.5,1.7-2.211,2.567a.543.543,0,0,1-.422.2m90.006-3.7a.541.541,0,0,1-.392-.167c-.779-.812-1.59-1.612-2.412-2.378a.542.542,0,1,1,.74-.794c.837.78,1.663,1.594,2.456,2.421a.542.542,0,0,1-.392.918m-84.413-2.3a.543.543,0,0,1-.371-.939c.835-.782,1.7-1.55,2.583-2.284a.542.542,0,0,1,.7.833c-.863.721-1.716,1.475-2.536,2.244a.542.542,0,0,1-.371.146m78.351-3.22a.541.541,0,0,1-.337-.117c-.881-.7-1.794-1.382-2.713-2.03a.543.543,0,1,1,.625-.887c.936.66,1.865,1.355,2.763,2.067a.543.543,0,0,1-.338.968m-72-1.963a.543.543,0,0,1-.314-.985c.934-.661,1.9-1.3,2.867-1.912a.543.543,0,1,1,.576.919c-.951.6-1.9,1.228-2.816,1.878a.54.54,0,0,1-.313.1m65.245-2.686a.541.541,0,0,1-.276-.076c-.969-.574-1.967-1.126-2.966-1.643a.543.543,0,1,1,.5-.964c1.018.526,2.034,1.089,3.02,1.673a.543.543,0,0,1-.277,1.009m-58.254-1.585a.543.543,0,0,1-.251-1.024c1.015-.528,2.057-1.034,3.1-1.5a.543.543,0,0,1,.445.989c-1.023.46-2.046.957-3.043,1.475a.536.536,0,0,1-.25.061m50.924-2.1a.541.541,0,0,1-.21-.042c-1.038-.436-2.1-.847-3.164-1.222a.543.543,0,1,1,.361-1.023c1.081.382,2.165.8,3.223,1.245a.543.543,0,0,1-.21,1.043m-43.42-1.174a.543.543,0,0,1-.182-1.054c1.078-.385,2.182-.743,3.28-1.066a.543.543,0,0,1,.306,1.041c-1.079.316-2.162.669-3.221,1.046a.541.541,0,0,1-.182.032m35.657-1.472a.543.543,0,0,1-.139-.018c-1.086-.288-2.2-.549-3.3-.775a.543.543,0,0,1,.218-1.063c1.121.23,2.251.5,3.357.789a.543.543,0,0,1-.139,1.067m-27.767-.746a.543.543,0,0,1-.11-1.074c1.12-.233,2.262-.437,3.395-.606a.543.543,0,0,1,.16,1.073c-1.112.166-2.234.366-3.334.6a.535.535,0,0,1-.111.012m19.72-.809a.528.528,0,0,1-.067,0c-1.114-.137-2.249-.244-3.372-.318a.543.543,0,1,1,.071-1.083c1.143.075,2.3.184,3.433.324a.543.543,0,0,1-.065,1.081m-11.6-.309a.543.543,0,0,1-.037-1.084c1.14-.079,2.3-.126,3.445-.14a.543.543,0,1,1,.014,1.085c-1.126.014-2.265.06-3.385.137h-.038" transform="translate(-619.877 -380.505)" fill="#fff"/>
    <path id="Path_46261" data-name="Path 46261" d="M72.874,323.693H75.1a.573.573,0,1,1,0,1.147H72.874a.573.573,0,0,1,0-1.147" transform="translate(-60.337 -270.133)" fill="#fff"/>
    <path id="Path_46262" data-name="Path 46262" d="M109.042,324.257a.573.573,0,0,1-.573.583H106.24a.573.573,0,1,1,0-1.147h2.215a.582.582,0,0,1,.587.564" transform="translate(-88.182 -270.133)" fill="#fff"/>
    <path id="Path_46263" data-name="Path 46263" d="M96.864,300.849v2.229a.574.574,0,0,1-1.147,0v-2.229a.574.574,0,0,1,1.147,0" transform="translate(-79.879 -250.591)" fill="#fff"/>
    <path id="Path_46264" data-name="Path 46264" d="M96.291,333.642h0a.574.574,0,0,1,.574.574v2.229a.574.574,0,0,1-1.147,0v-2.229a.574.574,0,0,1,.574-.574" transform="translate(-79.879 -278.436)" fill="#fff"/>
    <path id="Path_46265" data-name="Path 46265" d="M215.562,187.547a2.414,2.414,0,1,0,2.414,2.414,2.414,2.414,0,0,0-2.414-2.414m0,3.755a1.341,1.341,0,1,1,1.341-1.341,1.341,1.341,0,0,1-1.341,1.341" transform="translate(-177.879 -156.515)" fill="#fff"/>
    <path id="Path_46266" data-name="Path 46266" d="M194.19,960.162a2.414,2.414,0,1,0,2.414,2.414,2.414,2.414,0,0,0-2.414-2.414m0,3.756a1.341,1.341,0,1,1,1.341-1.341,1.341,1.341,0,0,1-1.341,1.341" transform="translate(-160.044 -801.288)" fill="#fff"/>
    <path id="Path_46267" data-name="Path 46267" d="M272.573,830.718h1.358a.35.35,0,0,1,0,.7h-1.358a.35.35,0,0,1,0-.7" transform="translate(-227.18 -693.263)" fill="#fff"/>
    <path id="Path_46268" data-name="Path 46268" d="M294.615,831.062a.35.35,0,0,1-.349.356h-1.358a.35.35,0,0,1,0-.7h1.35a.355.355,0,0,1,.358.344" transform="translate(-244.15 -693.263)" fill="#fff"/>
    <path id="Path_46269" data-name="Path 46269" d="M287.195,816.8v1.358a.349.349,0,1,1-.7,0V816.8a.349.349,0,0,1,.7,0" transform="translate(-239.091 -681.353)" fill="#fff"/>
    <path id="Path_46270" data-name="Path 46270" d="M286.846,836.781h0a.35.35,0,0,1,.349.35v1.358a.349.349,0,0,1-.7,0v-1.358a.35.35,0,0,1,.349-.35" transform="translate(-239.091 -698.323)" fill="#fff"/>
    <path id="Path_46271" data-name="Path 46271" d="M1219.261,578.208a2.414,2.414,0,1,0,2.414,2.414,2.414,2.414,0,0,0-2.414-2.414m0,3.755a1.341,1.341,0,1,1,1.341-1.341,1.341,1.341,0,0,1-1.341,1.341" transform="translate(-1015.5 -482.535)" fill="#fff"/>
    <path id="Path_46272" data-name="Path 46272" d="M1289.036,692.56h1.676a.431.431,0,0,1,0,.863h-1.676a.431.431,0,0,1,0-.863" transform="translate(-1075.384 -577.965)" fill="#fff"/>
    <path id="Path_46273" data-name="Path 46273" d="M1316.241,692.984a.432.432,0,0,1-.431.439h-1.677a.431.431,0,0,1,0-.863h1.666a.439.439,0,0,1,.442.424" transform="translate(-1096.329 -577.965)" fill="#fff"/>
    <path id="Path_46274" data-name="Path 46274" d="M1307.082,675.377v1.676a.432.432,0,1,1-.863,0v-1.676a.432.432,0,0,1,.863,0" transform="translate(-1090.083 -563.266)" fill="#fff"/>
    <path id="Path_46275" data-name="Path 46275" d="M1306.651,700.044h0a.431.431,0,0,1,.431.432v1.676a.431.431,0,0,1-.863,0v-1.676a.432.432,0,0,1,.432-.432" transform="translate(-1090.083 -584.211)" fill="#fff"/>
    <path id="Path_46276" data-name="Path 46276" d="M1187.193,1277.265h1.676a.431.431,0,1,1,0,.863h-1.676a.431.431,0,0,1,0-.863" transform="translate(-990.392 -1065.921)" fill="#152b60"/>
    <path id="Path_46277" data-name="Path 46277" d="M1214.394,1277.689a.432.432,0,0,1-.431.439h-1.676a.431.431,0,1,1,0-.863h1.666a.438.438,0,0,1,.441.424" transform="translate(-1011.334 -1065.921)" fill="#152b60"/>
    <path id="Path_46278" data-name="Path 46278" d="M1205.235,1260.084v1.676a.431.431,0,1,1-.862,0v-1.676a.431.431,0,1,1,.862,0" transform="translate(-1005.09 -1051.224)" fill="#152b60"/>
    <path id="Path_46279" data-name="Path 46279" d="M1204.8,1284.747h0a.432.432,0,0,1,.432.431v1.676a.431.431,0,0,1-.863,0v-1.676a.431.431,0,0,1,.431-.431" transform="translate(-1005.089 -1072.165)" fill="#152b60"/>
    <path id="Path_46280" data-name="Path 46280" d="M1024.276.005a2.414,2.414,0,1,0,2.414,2.414,2.414,2.414,0,0,0-2.414-2.414m0,3.755a1.341,1.341,0,1,1,1.341-1.341,1.341,1.341,0,0,1-1.341,1.341" transform="translate(-852.778 -0.005)" fill="#fff"/>
    <path id="Path_46281" data-name="Path 46281" d="M1192.01,159.812h1.676a.431.431,0,0,1,0,.863h-1.676a.431.431,0,0,1,0-.863" transform="translate(-994.413 -133.369)" fill="#fff"/>
    <path id="Path_46282" data-name="Path 46282" d="M1219.216,160.237a.431.431,0,0,1-.431.439h-1.676a.431.431,0,1,1,0-.862h1.666a.438.438,0,0,1,.442.424" transform="translate(-1015.358 -133.37)" fill="#fff"/>
    <path id="Path_46283" data-name="Path 46283" d="M1210.057,142.628V144.3a.431.431,0,1,1-.863,0v-1.676a.431.431,0,0,1,.863,0" transform="translate(-1009.113 -118.669)" fill="#fff"/>
    <path id="Path_46284" data-name="Path 46284" d="M1209.625,167.3h0a.432.432,0,0,1,.432.431V169.4a.431.431,0,0,1-.863,0v-1.676a.431.431,0,0,1,.431-.431" transform="translate(-1009.113 -139.615)" fill="#fff"/>
    <path id="Path_46285" data-name="Path 46285" d="M1280.5,426.362a19.78,19.78,0,0,1-3.388-.293.407.407,0,0,1,.14-.8,18.971,18.971,0,0,0,3.247.281h.058a.407.407,0,0,1,0,.814Zm4.755-.595a.407.407,0,0,1-.1-.8,19.155,19.155,0,0,0,3.131-1.092.407.407,0,1,1,.333.742,19.948,19.948,0,0,1-3.264,1.138.4.4,0,0,1-.1.013m-12.606-1.063a.407.407,0,0,1-.164-.035,19.823,19.823,0,0,1-3.032-1.664.407.407,0,0,1,.453-.676,19.018,19.018,0,0,0,2.907,1.6.407.407,0,0,1-.164.78m19.858-2.5a.407.407,0,0,1-.251-.727,19.034,19.034,0,0,0,2.42-2.267.407.407,0,0,1,.606.543,19.867,19.867,0,0,1-2.524,2.364.406.406,0,0,1-.251.087m-26.411-2.224a.405.405,0,0,1-.3-.134,19.935,19.935,0,0,1-2.088-2.756.407.407,0,0,1,.689-.433,19.113,19.113,0,0,0,2,2.644.407.407,0,0,1-.3.68m31.585-3.98a.407.407,0,0,1-.36-.6,19.206,19.206,0,0,0,1.284-3.058l.008-.025a.407.407,0,1,1,.775.248l-.008.026a20.024,20.024,0,0,1-1.339,3.188.407.407,0,0,1-.36.217m-35.648-3a.408.408,0,0,1-.387-.28,19.892,19.892,0,0,1-.792-3.365.407.407,0,0,1,.805-.117,19.043,19.043,0,0,0,.76,3.227.408.408,0,0,1-.386.534m37.856-4.8h-.028a.407.407,0,0,1-.379-.433c.027-.414.041-.834.041-1.25a18.942,18.942,0,0,0-.113-2.065.407.407,0,0,1,.809-.089,19.837,19.837,0,0,1,.118,2.154c0,.433-.014.872-.043,1.3a.407.407,0,0,1-.406.38m-38.731-3.235-.042,0a.407.407,0,0,1-.363-.446,19.937,19.937,0,0,1,.651-3.4.407.407,0,1,1,.783.222,19.1,19.1,0,0,0-.625,3.257.407.407,0,0,1-.4.365m37.569-4.76a.408.408,0,0,1-.382-.266,19.177,19.177,0,0,0-1.414-3,.407.407,0,1,1,.7-.409,20.007,20.007,0,0,1,1.475,3.127.407.407,0,0,1-.382.548m-35.1-2.934a.407.407,0,0,1-.353-.609,19.753,19.753,0,0,1,1.972-2.841.407.407,0,1,1,.625.521,18.905,18.905,0,0,0-1.891,2.724.407.407,0,0,1-.354.205m30.793-3.9a.4.4,0,0,1-.291-.123,18.959,18.959,0,0,0-2.511-2.166.407.407,0,0,1,.476-.661,19.771,19.771,0,0,1,2.619,2.26.407.407,0,0,1-.292.691m-25.406-2.121a.407.407,0,0,1-.241-.735,20,20,0,0,1,2.958-1.791.407.407,0,0,1,.359.73,19.178,19.178,0,0,0-2.837,1.718.405.405,0,0,1-.24.078m18.688-2.368a.409.409,0,0,1-.151-.029c-.4-.16-.816-.309-1.231-.442a19.317,19.317,0,0,0-1.944-.516.407.407,0,1,1,.167-.8,20.169,20.169,0,0,1,2.026.537c.432.139.864.294,1.283.461a.407.407,0,0,1-.15.785m-11.321-.948a.407.407,0,0,1-.086-.8,19.822,19.822,0,0,1,3.43-.437.407.407,0,1,1,.031.813,18.991,18.991,0,0,0-3.288.419.4.4,0,0,1-.087.009" transform="translate(-1052.141 -322.706)" fill="#fff"/>
    <path id="Path_46286" data-name="Path 46286" d="M27.042,491.267c-.554,0-1.117-.018-1.671-.052a.407.407,0,0,1,.051-.812c.538.033,1.083.051,1.621.051s1.1-.018,1.645-.052a.407.407,0,1,1,.051.812c-.562.036-1.133.054-1.7.054m-6.234-.745a.408.408,0,0,1-.1-.012c-.654-.158-1.311-.343-1.954-.55-.424-.136-.849-.285-1.264-.441a.407.407,0,1,1,.287-.762c.4.152.815.3,1.226.428.623.2,1.261.38,1.9.534a.407.407,0,0,1-.1.8m12.491-.006a.407.407,0,0,1-.1-.8,26.376,26.376,0,0,0,3.119-.967.407.407,0,0,1,.289.761,27.2,27.2,0,0,1-3.216,1,.409.409,0,0,1-.1.012m-19.846-2.976a.4.4,0,0,1-.207-.057,26.918,26.918,0,0,1-2.786-1.895.407.407,0,0,1,.5-.643,26.1,26.1,0,0,0,2.7,1.837.407.407,0,0,1-.208.757m27.193-.022a.407.407,0,0,1-.208-.757,26.445,26.445,0,0,0,2.7-1.84.407.407,0,0,1,.5.643,27.213,27.213,0,0,1-2.783,1.9.4.4,0,0,1-.207.057m-33.339-5a.405.405,0,0,1-.3-.134,27.14,27.14,0,0,1-2.1-2.633.407.407,0,1,1,.666-.467,26.369,26.369,0,0,0,2.037,2.554.407.407,0,0,1-.3.68m39.483-.024a.407.407,0,0,1-.3-.68,26.157,26.157,0,0,0,2.036-2.555.407.407,0,1,1,.667.466,26.942,26.942,0,0,1-2.1,2.635.406.406,0,0,1-.3.134M2.916,475.908a.407.407,0,0,1-.369-.235,27.265,27.265,0,0,1-1.234-3.132.407.407,0,1,1,.774-.251,26.465,26.465,0,0,0,1.2,3.038.407.407,0,0,1-.368.579m48.256-.03a.407.407,0,0,1-.369-.578,26.614,26.614,0,0,0,1.189-3.042l.011-.033a.407.407,0,0,1,.775.249l-.011.034a27.43,27.43,0,0,1-1.226,3.135.407.407,0,0,1-.369.236M.659,468.3a.407.407,0,0,1-.4-.351A26.955,26.955,0,0,1,0,464.594a.407.407,0,0,1,.814-.011,26.117,26.117,0,0,0,.248,3.255.407.407,0,0,1-.347.459.426.426,0,0,1-.057,0m52.761-.07a.4.4,0,0,1-.056,0,.407.407,0,0,1-.348-.458,26.15,26.15,0,0,0,.241-3.257.407.407,0,0,1,.407-.4h0a.407.407,0,0,1,.4.412,26.954,26.954,0,0,1-.249,3.359.407.407,0,0,1-.4.352M.754,460.368a.413.413,0,0,1-.066-.005.407.407,0,0,1-.336-.467,27.287,27.287,0,0,1,.749-3.283.407.407,0,0,1,.781.23,26.491,26.491,0,0,0-.727,3.185.407.407,0,0,1-.4.341m52.555-.071a.407.407,0,0,1-.4-.34,26.291,26.291,0,0,0-.735-3.181.407.407,0,0,1,.78-.232,27.131,27.131,0,0,1,.757,3.28.407.407,0,0,1-.335.468.4.4,0,0,1-.067.006M3.178,452.812a.407.407,0,0,1-.365-.587A26.981,26.981,0,0,1,4.493,449.3a.407.407,0,0,1,.679.449,26.194,26.194,0,0,0-1.628,2.834.407.407,0,0,1-.365.227m47.681-.061a.407.407,0,0,1-.364-.225,26.494,26.494,0,0,0-1.637-2.827.407.407,0,1,1,.678-.451,27.29,27.29,0,0,1,1.687,2.914.407.407,0,0,1-.364.589M7.722,446.3a.407.407,0,0,1-.295-.687A27.069,27.069,0,0,1,9.9,443.324a.407.407,0,1,1,.515.63,26.282,26.282,0,0,0-2.394,2.222.405.405,0,0,1-.295.127m38.58-.049a.406.406,0,0,1-.295-.126,26.186,26.186,0,0,0-2.4-2.22.407.407,0,0,1,.515-.631,27.009,27.009,0,0,1,2.471,2.289.407.407,0,0,1-.295.688M13.987,441.43a.407.407,0,0,1-.2-.762,27.239,27.239,0,0,1,3.032-1.465.407.407,0,1,1,.308.753,26.447,26.447,0,0,0-2.941,1.421.4.4,0,0,1-.2.052m26.041-.038a.405.405,0,0,1-.2-.052,26.3,26.3,0,0,0-2.946-1.409.407.407,0,0,1,.3-.755,27.122,27.122,0,0,1,3.037,1.453.407.407,0,0,1-.2.762M21.4,438.611a.407.407,0,0,1-.086-.8,27.039,27.039,0,0,1,3.327-.508.407.407,0,1,1,.072.811,26.223,26.223,0,0,0-3.227.493.4.4,0,0,1-.087.009m11.2-.012a.41.41,0,0,1-.086-.009,26.227,26.227,0,0,0-3.23-.486.407.407,0,1,1,.071-.811,27.1,27.1,0,0,1,3.33.5.407.407,0,0,1-.085.8" transform="translate(-0.001 -364.935)" fill="#fff"/>
    <path id="Path_46287" data-name="Path 46287" d="M528.569,305.667l-2.957,18.342-.568,3.52c0,2.726-5.823,38.632-8.839,38.632L468.51,333.205l-52.933,36.726c-3.015,0-6.186-38.639-6.186-41.364l-.21-4.559-.845-18.288,8.51-7.353,48.262-41.706a5.921,5.921,0,0,1,6.8,0l48.217,41.706Z" transform="translate(-340.77 -213.296)" fill="#f4b631"/>
    <path id="Path_46288" data-name="Path 46288" d="M619.772,475.888v56.094H545.053v-72.29h58.36Z" transform="translate(-454.865 -383.629)" fill="#fff"/>
    <path id="Path_46289" data-name="Path 46289" d="M904.569,475.533v1.892H886.318V459.267l1.892.07Z" transform="translate(-739.662 -383.275)" fill="none"/>
    <path id="Path_46290" data-name="Path 46290" d="M914.112,475.888H897.753v-16.2Z" transform="translate(-749.205 -383.629)" fill="#b8d6f3"/>
    <path id="Path_46291" data-name="Path 46291" d="M774.133,590.539l27.354-27.9a39.527,39.527,0,0,1,28.2-11.515c2.527,0,4.576,1.665,4.576,3.719v74.582c0,2.054-3.417,5.172-5.944,5.172H812.776l-38.643-39.419a3.253,3.253,0,0,1,0-4.633" transform="translate(-645.231 -459.928)" fill="#d99c19"/>
    <path id="Path_46292" data-name="Path 46292" d="M461.714,590.231l-27.354-27.9a39.527,39.527,0,0,0-28.2-11.515c-2.527,0-4.576,1.665-4.576,3.719v75.029c0,2.054,2.933,4.776,5.461,4.776l16.026-.051,38.643-39.419a3.254,3.254,0,0,0,0-4.634" transform="translate(-335.135 -459.671)" fill="#d99c19"/>
    <path id="Path_46293" data-name="Path 46293" d="M524.166,741.916V758c0,2.4-2.445,4.353-5.46,4.353H407.043c-3.015,0-5.46-1.949-5.46-4.353V741.916l57.889-36.754a6.352,6.352,0,0,1,3.21-.946,6.419,6.419,0,0,1,3.595.946Z" transform="translate(-335.135 -587.69)" fill="#f2b541"/>
    <path id="Path_46294" data-name="Path 46294" d="M401.585,755.826l50.377-26.908.985,1-51.362,32.611Z" transform="translate(-335.136 -608.308)" fill="#d6a02b"/>
    <path id="Path_46295" data-name="Path 46295" d="M883.371,755.826l-50.377-26.908-.985,1,51.362,32.611Z" transform="translate(-694.34 -608.308)" fill="#d6a02b"/>
    <path id="Path_46296" data-name="Path 46296" d="M717.3,603a10.615,10.615,0,0,0-10.615,10.615h21.23A10.615,10.615,0,0,0,717.3,603" transform="translate(-589.751 -503.225)" fill="#ea1e5d"/>
    <path id="Path_46297" data-name="Path 46297" d="M748.627,537.267a5.493,5.493,0,1,1-5.493-5.493,5.493,5.493,0,0,1,5.493,5.493" transform="translate(-615.586 -443.784)" fill="#ea1e5d"/>
  </g>
</svg>
