<svg xmlns="http://www.w3.org/2000/svg" xmlns:xlink="http://www.w3.org/1999/xlink" width="96" height="96" viewBox="0 0 96 96">
  <defs>
    <clipPath id="clip-news">
      <rect width="96" height="96"/>
    </clipPath>
  </defs>
  <g id="news" clip-path="url(#clip-news)">
    <g id="article_1_" data-name="article (1)" transform="translate(5.761 8.836)">
      <path id="Path_30948" data-name="Path 30948" d="M61,315.916v40.469a7.833,7.833,0,1,0,15.665,0V312H64.916A3.916,3.916,0,0,0,61,315.916Z" transform="translate(-61 -285.891)" fill="#e8c8c8"/>
      <path id="Path_30949" data-name="Path 30949" d="M236,287h28.617v7.833H236Z" transform="translate(-196.66 -267.418)" fill="#e8c8c8"/>
      <path id="Path_30950" data-name="Path 30950" d="M202.943,212H147.653c-1.7,0-3.072,1.754-3.072,3.917v66.578a18.948,18.948,0,0,1-1.653,7.833h56.944c3.393,0,6.143-3.507,6.143-7.833V215.916C206.015,213.754,204.64,212,202.943,212Zm-11.263,66.578H158.916c-1.7,0-3.072-1.754-3.072-3.916s1.376-3.916,3.072-3.916h32.765c1.7,0,3.072,1.753,3.072,3.916S193.377,278.578,191.681,278.578Zm0-15.666H158.916c-1.7,0-3.072-1.753-3.072-3.916s1.376-3.916,3.072-3.916h32.765c1.7,0,3.072,1.753,3.072,3.916S193.377,262.913,191.681,262.913Zm3.072-19.582c0,2.163-1.375,3.916-3.072,3.916H158.916c-1.7,0-3.072-1.754-3.072-3.916V227.666c0-2.163,1.376-3.916,3.072-3.916h32.765c1.7,0,3.072,1.754,3.072,3.916Z" transform="translate(-121.537 -212)" fill="#e8c8c8"/>
    </g>
  </g>
</svg>
