<svg xmlns="http://www.w3.org/2000/svg" width="16.59" height="22.086" viewBox="0 0 16.59 22.086">
  <path id="Path_30241" data-name="Path 30241" d="M364.876,136.411a7.673,7.673,0,0,0-1.857-1.681,16.79,16.79,0,0,0-1.707-.943c-.921-.445-1.266-1.261-.8-1.994a1.885,1.885,0,0,1,2.385-.546,12.924,12.924,0,0,1,4.415,3.106.585.585,0,0,0,.248.175c-.038-.1-.071-.209-.114-.311a8.41,8.41,0,0,0-2.729-3.453,1.276,1.276,0,0,1-.32-1.9,1.913,1.913,0,0,1,2.616-.222,11.612,11.612,0,0,1,2.994,3.32c.035.059.077.114.154.228a2.566,2.566,0,0,0,.032-.256c0-.527-.011-1.054,0-1.58a1.553,1.553,0,0,1,3.066.036q0,5.862-.007,11.724a7.526,7.526,0,0,1-.482,2.859,6.27,6.27,0,0,1-4.121,3.37,8.435,8.435,0,0,1-9.584-2.747,5.122,5.122,0,0,1-1.177-2.419,1.917,1.917,0,0,1,.059-.819,1.42,1.42,0,0,1,1.353-.814,1.463,1.463,0,0,1,1.4.85,2.609,2.609,0,0,0,2,1.653,2.768,2.768,0,0,0,3.273-1.765,2.213,2.213,0,0,0-1.324-2.527,3.453,3.453,0,0,0-3.463.31c-.186.14-.347.3-.523.453a1.649,1.649,0,0,1-1.868.176,1.114,1.114,0,0,1-.486-1.529,5.98,5.98,0,0,1,5.74-2.825C364.31,136.367,364.565,136.386,364.876,136.411Z" transform="translate(-357.28 -127.487)" fill="none" stroke="#fff" stroke-width="1.2"/>
</svg>
