<svg xmlns="http://www.w3.org/2000/svg" width="14.203" height="18.853" viewBox="0 0 14.203 18.853"><defs><style>.a{fill:#e7245f;stroke:#e7245f;stroke-width:1.2px;}</style></defs><path class="a" d="M363.791,135.143a6.482,6.482,0,0,0-1.569-1.42,14.185,14.185,0,0,0-1.442-.8c-.778-.376-1.069-1.065-.674-1.684a1.593,1.593,0,0,1,2.015-.462,10.92,10.92,0,0,1,3.73,2.624.494.494,0,0,0,.21.148c-.032-.088-.06-.176-.1-.263a7.106,7.106,0,0,0-2.306-2.918,1.078,1.078,0,0,1-.271-1.6,1.616,1.616,0,0,1,2.21-.187,9.81,9.81,0,0,1,2.53,2.805c.029.049.065.1.131.193a2.167,2.167,0,0,0,.027-.217c0-.445-.009-.89,0-1.335a1.312,1.312,0,0,1,2.59.03q0,4.953-.006,9.905a6.36,6.36,0,0,1-.407,2.415,5.3,5.3,0,0,1-3.482,2.848,7.126,7.126,0,0,1-8.1-2.321,4.327,4.327,0,0,1-.994-2.044,1.62,1.62,0,0,1,.05-.692,1.2,1.2,0,0,1,1.143-.687,1.236,1.236,0,0,1,1.179.719,2.2,2.2,0,0,0,1.69,1.4,2.339,2.339,0,0,0,2.765-1.491,1.87,1.87,0,0,0-1.119-2.135,2.918,2.918,0,0,0-2.926.262c-.157.118-.293.256-.442.383a1.393,1.393,0,0,1-1.578.149.941.941,0,0,1-.411-1.292,5.053,5.053,0,0,1,4.85-2.386C363.313,135.106,363.529,135.122,363.791,135.143Z" transform="translate(-357.28 -127.505)"/></svg>