<?xml version="1.0" encoding="utf-8"?>
<!-- Generator: Adobe Illustrator 27.4.1, SVG Export Plug-In . SVG Version: 6.00 Build 0)  -->
<svg version="1.1" id="Layer_1" xmlns="http://www.w3.org/2000/svg" xmlns:xlink="http://www.w3.org/1999/xlink" x="0px" y="0px"
	 viewBox="0 0 14.2 18.9" style="enable-background:new 0 0 14.2 18.9;" xml:space="preserve" width="16" height="21">
<style type="text/css">
	.st0{fill:#FFFFFF;}
</style>
<path id="Path_30241" class="st0" d="M6.5,7.6c-0.4-0.6-1-1-1.6-1.4C4.5,5.9,4,5.7,3.5,5.4C2.7,5,2.4,4.4,2.8,3.7
	c0.5-0.6,1.3-0.8,2-0.5c1.4,0.6,2.7,1.5,3.7,2.6C8.6,6,8.7,6,8.8,6c0-0.1-0.1-0.2-0.1-0.3C8.2,4.6,7.4,3.6,6.4,2.9
	C5.9,2.6,5.7,1.9,6,1.4c0,0,0.1-0.1,0.1-0.1c0.6-0.6,1.5-0.7,2.2-0.2c1,0.8,1.9,1.7,2.5,2.8c0,0,0.1,0.1,0.1,0.2c0-0.1,0-0.1,0-0.2
	c0-0.4,0-0.9,0-1.3c0.1-0.7,0.8-1.2,1.5-1.1c0.6,0.1,1,0.5,1.1,1.1c0,3.3,0,6.6,0,9.9c0,0.8-0.1,1.6-0.4,2.4c-0.7,1.4-2,2.5-3.5,2.8
	c-2.9,1.1-6.2,0.1-8.1-2.3c-0.5-0.6-0.9-1.3-1-2c0-0.2,0-0.5,0-0.7C0.9,12.2,1.3,12,1.8,12c0.5,0,1,0.3,1.2,0.7
	c0.3,0.7,0.9,1.3,1.7,1.4c1.2,0.3,2.4-0.4,2.8-1.5c0.2-0.9-0.3-1.8-1.1-2.1c-1-0.4-2.1-0.3-2.9,0.3c-0.2,0.1-0.3,0.3-0.4,0.4
	c-0.4,0.4-1.1,0.4-1.6,0.1C0.9,11,0.7,10.5,0.9,10c0,0,0,0,0,0c1-1.7,2.9-2.6,4.9-2.4C6,7.6,6.2,7.6,6.5,7.6z"/>
</svg>
