<svg xmlns="http://www.w3.org/2000/svg" width="477.619" height="354.354" viewBox="0 0 477.619 354.354"><defs><style>.a{fill:#f2f2f2;}.b{fill:#ebebeb;}.c,.e{fill:#fff;}.c{stroke:rgba(146,146,146,0.24);stroke-width:2px;}.d{fill:#e30045;}.f{fill:#4a190c;}.g{fill:#f2beb7;}.h{fill:#30545d;}.i{fill:#95bec9;}.j{fill:#23393d;}.k{fill:#ee816f;}.l{fill:#eb594c;}.m{fill:#eda8a2;}.n{fill:#4a5874;}.o{fill:#272727;}.p{fill:#151515;}.q{fill:#191919;}.r{fill:#232323;}.s{fill:#a50837;}.t{fill:#ebf1fe;}.u{fill:#e8e8e8;}.v{fill:#344058;}.w{fill:#333;}.x{fill:#5d5d5d;}.y{fill:#424b5d;}.z{fill:#393939;}</style></defs><g transform="translate(-1551.913 -591.084)"><path class="a" d="M2197.441,755.059l8.29-.934a1.849,1.849,0,0,1,1.74.833q.72,1.117,1.542,2.19a31.032,31.032,0,0,0,3.283,3.665,1.824,1.824,0,0,1,.45,2.007l-3.179,8.119a1.791,1.791,0,0,0,.883,2.271l7.143,3.538a1.771,1.771,0,0,0,2.271-.63l4.319-6.767a1.778,1.778,0,0,1,1.991-.77,32.22,32.22,0,0,0,10.112,1.007,1.836,1.836,0,0,1,1.838,1.274l1.464,4.66a1.855,1.855,0,0,0,2.107,1.251l7.757-1.569a1.622,1.622,0,0,0,.448-.149,1.78,1.78,0,0,0,.992-1.817l-.69-6.193-.171-1.509a31.959,31.959,0,0,0,3.761-2.485,32.384,32.384,0,0,0,4.414-4.087,1.778,1.778,0,0,1,1.985-.479l6.537,2.568a1.842,1.842,0,0,0,2.326-.9l2.706-5.461.771-1.567a1.867,1.867,0,0,0-.664-2.4l-5.653-3.614a1.776,1.776,0,0,1-.8-1.936,32.008,32.008,0,0,0,.861-6.788,5.555,5.555,0,0,0,.017-.575.981.981,0,0,1,.013-.193,1.82,1.82,0,0,1,1.283-1.558l7.561-2.393a1.334,1.334,0,0,0,.246-.1,1.85,1.85,0,0,0,1-2l-1.552-7.735a1.841,1.841,0,0,0-2.008-1.465l-8.646.978a1.779,1.779,0,0,1-1.785-.936,32.508,32.508,0,0,0-2.707-4.141q-.815-1.062-1.7-2.035a1.876,1.876,0,0,1-.354-1.942l3.053-7.8a1.789,1.789,0,0,0-.872-2.257l-7.071-3.489a1.871,1.871,0,0,0-2.413.669l-3.418,5.354a1.837,1.837,0,0,1-2.138.757,32.144,32.144,0,0,0-9.754-1.752,1.826,1.826,0,0,1-1.72-1.285l-2.154-6.815a1.889,1.889,0,0,0-2.162-1.278l-7.708,1.543a1.805,1.805,0,0,0-1.442,1.978l.037.362.805,7.2a1.846,1.846,0,0,1-1,1.855l-.007.006a31.949,31.949,0,0,0-4.782,3.038c-.816.626-1.584,1.284-2.331,1.972a1.811,1.811,0,0,1-1.906.372l-6.635-2.607a1.873,1.873,0,0,0-2.366.909l-3.479,7.04a2.024,2.024,0,0,0-.179.619,1.865,1.865,0,0,0,.835,1.746l4.523,2.875a1.862,1.862,0,0,1,.844,1.624,1.985,1.985,0,0,1-.093.507,32.028,32.028,0,0,0-1.628,12.562,1.793,1.793,0,0,1-1.256,1.847l-6.123,1.933a1.834,1.834,0,0,0-1.244,2.1l.035.18,1.506,7.541A1.867,1.867,0,0,0,2197.441,755.059Zm53.037-23.541a21.448,21.448,0,0,1,1.125,3.829,16.845,16.845,0,0,1-1.2,9.1c-.125.256-.255.505-.385.754-8.112,15.058-29.375,12.063-32.876-4.927a17.463,17.463,0,0,1,.623-7.936,11.3,11.3,0,0,1,.635-1.565,19.8,19.8,0,0,1,3.957-5.446A17.28,17.28,0,0,1,2250.479,731.517Z" transform="translate(-453.859 -74.426)"/><path class="a" d="M2846.145,776.574c-7.959-16.04-35.514-5.06-35.514-5.06s-13.531,33.526-19.042,35.355,5.972-30.923,5.972-30.923c-11.159,1.115-36.394,20.079-36.394,20.079s8.641,34.26,2.85,34.677-6.1-30.726-6.1-30.726c-9.964,5.284-17.4,19.609-17.4,19.609-8.362,22.587,21.073,32.158,21.073,32.158s2.739,11.938-1.942,27.185h0a41.644,41.644,0,0,0-2.011,7.536l2.888-.574q.123-1.232.338-2.4a.017.017,0,0,1,0-.014c0-.011,0-.022.006-.034.109-.485.268-1.177.468-2.021v0s0,0,0,0c.539-1.9.882-3.3,1.076-4.294a.063.063,0,0,0,0-.009c1.567-5.948,3.972-13.771,6.219-15.758a5.7,5.7,0,0,1-.881-1.2l.881,1.2c7.05,9.613,32.123,6.468,45.335.906s6.437-8.254-2.232-13.086-23.879-.083-28.962-1.643,1.137-5.366,10.46-6.483,15.738,7.153,30.853,5.618,20.873-31.68,20.873-31.68c-9.611,5.213-29.1,3.211-30.506-.18s25.857-8.441,29.885-10.342S2854.1,792.614,2846.145,776.574Z" transform="translate(-839.333 -124.978)"/><path class="a" d="M1552.168,1133.164c-3.24-17.611,25.4-25.331,25.4-25.331s30.922,18.732,36.429,16.9-23.31-21.178-23.31-21.178c9.6-5.794,41.168-5.732,41.168-5.732s13.611,32.607,18.5,29.47-13.524-28.257-13.524-28.257c11.143-1.74,25.678,5.275,25.678,5.275,20.228,13.072,2.4,38.373,2.4,38.373s4.961,11.2,17.844,20.6h0a41.648,41.648,0,0,1,6.126,4.828l-2.656,1.271q-.837-.913-1.708-1.717a.018.018,0,0,0-.011-.009l-.025-.023c-.379-.323-.92-.782-1.586-1.338l0,0s0,0,0,0c-1.572-1.2-2.682-2.112-3.434-2.793l-.007-.006c-4.819-3.823-11.432-8.644-14.421-8.889a5.7,5.7,0,0,0-.015-1.491c0,.476.01.971.015,1.491.116,11.92-21.842,24.426-35.752,27.89s-10.1-2.751-6.054-11.814,19.068-14.375,22.2-18.669-4.125-3.614-12.259,1.077-8.314,15.157-21.334,22.985-35.694-12.856-35.694-12.856c10.818-1.585,25.22-14.865,24.315-18.424s-25.759,8.736-30.122,9.627S1555.408,1150.775,1552.168,1133.164Z" transform="translate(0 -358.281)"/><path class="a" d="M2859.652,1375.018c14.093-11.047-2.248-35.8-2.248-35.8s-35.573-6.451-38.481-11.476,31.491-.424,31.491-.424c-3.355-10.7-27.042-31.565-27.042-31.565s-31.8,15.41-33.378,9.824,28.85-12.208,28.85-12.208c-7.194-8.685-22.73-13.059-22.73-13.059-23.813-3.607-27.216,27.157-27.216,27.157s-11.134,5.1-27.014,3.612h0a41.637,41.637,0,0,0-7.787-.441l1.148,2.712c.821-.086,1.627-.14,2.417-.155a.017.017,0,0,1,.014,0h.034c.5.008,1.207.023,2.074.049h.007c1.973.142,3.408.2,4.423.183h.01c6.142.328,14.29,1.1,16.691,2.894a5.708,5.708,0,0,1,1-1.107l-1,1.107c-7.983,8.852.181,32.766,8.307,44.577s9.388,4.629,12.361-4.84-4.762-23.4-4.265-28.693,5.485.025,8.47,8.927-3.812,16.862.755,31.351,35.255,14.014,35.255,14.014c-7.054-8.354-9.045-27.842-6.01-29.909s13.509,23.608,16.188,27.166S2845.559,1386.064,2859.652,1375.018Z" transform="translate(-835.85 -487.1)"/><g transform="translate(1894.466 625.452)"><path class="a" d="M2725.948,763.545s1.653-33,17.076-53.68a3.668,3.668,0,0,1,6.593,2.035c0,.057,0,.115.007.173C2749.809,717.925,2732.73,743.844,2725.948,763.545Z" transform="translate(-2724.556 -708.397)"/><path class="a" d="M2721.2,777.328s13.892-42.055,41.188-62.112a3.892,3.892,0,0,1,5.333.632c.836,1.054,1.3,2.758.629,5.515C2766.567,728.715,2736.4,755.125,2721.2,777.328Z" transform="translate(-2721.195 -712.671)"/></g><g transform="translate(1604.361 700.073)"><path class="b" d="M1823.424,997.233s-13.845-24.149-33.33-33.793a3.091,3.091,0,0,0-4.174,4.046l.061.133C1788.078,972.086,1810.805,985.027,1823.424,997.233Z" transform="translate(-1769.613 -963.111)"/><path class="b" d="M1789.428,1027.427s-26.5-26.279-54.659-30.915a3.279,3.279,0,0,0-3.764,2.512c-.226,1.111.08,2.567,1.634,4.382C1736.783,1008.248,1769.525,1016.561,1789.428,1027.427Z" transform="translate(-1730.939 -986.695)"/></g><path class="c" d="M2200.209,885.371v209.485c0,3.665-2.646,6.638-5.908,6.638H1892.061c-3.262,0-5.908-2.973-5.908-6.638V885.371c0-3.668,2.646-6.638,5.908-6.638H2194.3C2197.563,878.733,2200.209,881.7,2200.209,885.371Z" transform="translate(-236.321 -203.379)"/><g transform="translate(1611.648 663.687)"><path class="d" d="M2093.113,845.255v16.988h-337.3V845.255a6.344,6.344,0,0,1,6.345-6.345h324.611A6.344,6.344,0,0,1,2093.113,845.255Z" transform="translate(-1755.813 -838.91)"/><g transform="translate(10.318 8.713)"><path class="e" d="M1791.033,871.6a2.954,2.954,0,1,1,2.954,2.954A2.954,2.954,0,0,1,1791.033,871.6Z" transform="translate(-1791.033 -868.65)"/><path class="e" d="M1830.764,871.6a2.954,2.954,0,1,1,2.954,2.954A2.954,2.954,0,0,1,1830.764,871.6Z" transform="translate(-1819.124 -868.65)"/><path class="e" d="M1871.5,871.6a2.954,2.954,0,1,1,2.954,2.954A2.954,2.954,0,0,1,1871.5,871.6Z" transform="translate(-1847.924 -868.65)"/></g></g><path class="a" d="M2497.463,707.443l4.037-.455a.9.9,0,0,1,.847.406q.351.544.751,1.066a15.114,15.114,0,0,0,1.6,1.785.888.888,0,0,1,.219.977l-1.549,3.954a.873.873,0,0,0,.43,1.106l3.479,1.723a.862.862,0,0,0,1.106-.306l2.1-3.3a.866.866,0,0,1,.969-.375,15.711,15.711,0,0,0,4.925.49.894.894,0,0,1,.9.62l.713,2.269a.9.9,0,0,0,1.027.609l3.777-.764a.791.791,0,0,0,.218-.072.867.867,0,0,0,.483-.885l-.336-3.016-.083-.735a15.5,15.5,0,0,0,1.832-1.21,15.761,15.761,0,0,0,2.15-1.99.866.866,0,0,1,.967-.233l3.184,1.251a.9.9,0,0,0,1.133-.439l1.317-2.659.375-.763a.909.909,0,0,0-.323-1.171l-2.752-1.76a.864.864,0,0,1-.388-.943,15.6,15.6,0,0,0,.42-3.305,2.7,2.7,0,0,0,.008-.28.466.466,0,0,1,.006-.094.886.886,0,0,1,.625-.759l3.682-1.165a.649.649,0,0,0,.12-.047.9.9,0,0,0,.486-.976l-.756-3.767a.9.9,0,0,0-.978-.714l-4.211.476a.866.866,0,0,1-.869-.456,15.818,15.818,0,0,0-1.319-2.017q-.4-.517-.827-.991a.913.913,0,0,1-.173-.946l1.487-3.8a.871.871,0,0,0-.424-1.1l-3.444-1.7a.911.911,0,0,0-1.175.326l-1.665,2.607a.9.9,0,0,1-1.041.369,15.655,15.655,0,0,0-4.75-.853.889.889,0,0,1-.837-.626l-1.049-3.319a.92.92,0,0,0-1.053-.622l-3.754.751a.88.88,0,0,0-.7.964l.018.176.392,3.5a.9.9,0,0,1-.486.9l0,0a15.61,15.61,0,0,0-2.33,1.48c-.4.3-.771.626-1.135.96a.882.882,0,0,1-.928.181l-3.231-1.27a.913.913,0,0,0-1.152.443l-1.694,3.429a.978.978,0,0,0-.087.3.908.908,0,0,0,.407.85l2.2,1.4a.907.907,0,0,1,.411.791.98.98,0,0,1-.045.247,15.6,15.6,0,0,0-.793,6.118.878.878,0,0,1-.471.842.891.891,0,0,1-.14.057l-2.982.942a.893.893,0,0,0-.606,1.024l.017.088.733,3.672A.91.91,0,0,0,2497.463,707.443Zm25.83-11.465a10.455,10.455,0,0,1,.548,1.865,8.2,8.2,0,0,1-.584,4.432c-.061.125-.124.246-.187.367a8.476,8.476,0,0,1-15.708-6.264,5.552,5.552,0,0,1,.309-.762,9.638,9.638,0,0,1,1.927-2.652A8.416,8.416,0,0,1,2523.293,695.978Z" transform="translate(-667.297 -62.055)"/><g transform="translate(1578.144 830.023)"><path class="f" d="M1821.022,1411.587s.45-4.9-5.028-4.9a6.431,6.431,0,0,1,2.518,1.351,6.477,6.477,0,0,0-7.3,1.1c-3.8,3.151-1.44,11.055-2.6,12.556s-5.658,1.8-5.108,6.653,14.289,10.93,13.407,14.944c0,0,5.384-7.914,1.534-11.526a7.134,7.134,0,0,1,2.068,3.869s.509-4.1-2.1-5.414c-2.31-1.161-4.2-5.407-4-6.167S1821.022,1411.587,1821.022,1411.587Z" transform="translate(-1756.003 -1406.685)"/><path class="g" d="M1830.977,1503.763s4.092,16.93,8.109,20.314c2.415,2.034,9.594,6.7,9.594,6.7l-2.986,1.084s-9.958-3.363-12.187-5.984-8.333-15.755-8.333-15.755Z" transform="translate(-1771.35 -1475.323)"/><path class="h" d="M1707.547,1566.663c.036.065.074.132.112.2.9,1.556,2.95,5.37,5.212,9.543,1.07,1.98,2.191,4.041,3.254,5.981,1.832,3.347,3.5,6.328,4.47,7.9.989,1.6,1.717,2.727,2.011,3.177l0,0a.746.746,0,0,1,.1.464,24.273,24.273,0,0,0,.064,4.2,32.2,32.2,0,0,0,10.521,20.854l2.722.4s-3.852-14.272-4.987-22.341a15.492,15.492,0,0,1-.208-3.2,33.416,33.416,0,0,0-.879-8.732,195.532,195.532,0,0,0-5.567-20.213c-.127-.395-3.956-14.243-3.956-14.243-3.213,2.809-14.933,3.967-14.933,3.967S1703.5,1559.459,1707.547,1566.663Z" transform="translate(-1686.379 -1508.481)"/><path class="i" d="M1802.8,1781.756h-11.362a6.238,6.238,0,0,1,.321-3.045c.569-1.26,1.379-1.3.1-3.277.722.744,3.043,1.051,4.685.83a13.9,13.9,0,0,0,1.97,3C1799.26,1779.8,1802.572,1779.606,1802.8,1781.756Z" transform="translate(-1747.454 -1667.405)"/><path class="j" d="M1713.7,1589.117c.036.065.074.132.112.2.9,1.556,5.739,10.5,8,14.674a60.509,60.509,0,0,1-.8-21.573Z" transform="translate(-1692.536 -1530.935)"/><path class="f" d="M1836.718,1420.874c.074-.3-6.489,2.967-6.822,3.335-3.078,3.415-2.2,7.87-.439,7.913,1.13.028.911,1.905.911,1.905l12.584-5.323S1841.436,1419.868,1836.718,1420.874Z" transform="translate(-1773.248 -1416.661)"/><path class="k" d="M1827.683,1495.086s1.915,3.826,1.676,6.93c0,0-2.309,3.645-8.3,4.568C1821.061,1506.584,1826.21,1495.083,1827.683,1495.086Z" transform="translate(-1768.442 -1469.188)"/><path class="h" d="M1675.11,1549.751l.039-2.125c-4.234.534-14.6-5.059-14.6-5.059s-4.429,2.946-5.036,11.359c-.3,4.106-2.168,21.473-2.375,26.658-.076,1.88-.1,3.221-.109,3.757a.008.008,0,0,1,0,.005.736.736,0,0,1-.18.437,24.285,24.285,0,0,0-2.294,3.516c-6.46,12.02-3.082,28.353-3.082,28.353l1.5-.381s5.463-16.932,9.033-24.255a15.313,15.313,0,0,1,1.617-2.768,33.417,33.417,0,0,0,4.153-7.731C1666.416,1575.218,1675.11,1549.751,1675.11,1549.751Z" transform="translate(-1645.086 -1502.759)"/><path class="i" d="M1652.875,1781.558h-11.362a6.236,6.236,0,0,1,.321-3.045c.569-1.261,1.459-1.833,1.246-3.359a4.092,4.092,0,0,0,3.541,1.355,12.47,12.47,0,0,0,1.971,2.555C1649.336,1779.6,1652.646,1779.408,1652.875,1781.558Z" transform="translate(-1641.451 -1667.207)"/><path class="d" d="M1729.536,1493.483c-1.526.26.249,1.474-1.85,1.7-2.988.326-6.072.549-7.688,1.194a1.735,1.735,0,0,0-1.107.9c-.7,2.106-5.136,5.725-5.136,5.725-19.784-.9-21.058-9.718-21.058-9.718,12.84-12.47,23.764-19.268,32.792-20.109a16.056,16.056,0,0,1,6.548.689c3.157,1.406,4.888,5.683,4.888,5.683S1735.334,1492.494,1729.536,1493.483Z" transform="translate(-1677.684 -1453.647)"/><path class="l" d="M1793.42,1509.626c-2.988.326-6.072.549-7.688,1.194a31.506,31.506,0,0,1,4-17.289S1792.766,1505.892,1793.42,1509.626Z" transform="translate(-1743.418 -1468.089)"/><path class="g" d="M1826.308,1467.53c.565,1.769,2.448,6.81,5.057,4.87a6.437,6.437,0,0,1,1.106-2.581c.826-1.42,1.81-2.871,1.81-2.871l-4.252-3.726-.254-.223a10.835,10.835,0,0,1-3.163,3.591A.85.85,0,0,0,1826.308,1467.53Z" transform="translate(-1772.124 -1446.502)"/><path class="m" d="M1843.168,1467.487s-.983,1.448-1.809,2.87c-2.643-1.63-2.646-4.9-2.442-6.6Z" transform="translate(-1781.011 -1447.039)"/><path class="g" d="M1842.861,1451.015s-6.418-3.571-4.132-7.533,3-7.091,7.19-4.979,4.111,4.079,3.67,5.588S1844.589,1451.842,1842.861,1451.015Z" transform="translate(-1780.586 -1428.701)"/><path class="f" d="M1849.044,1440.484c-.294-1.759-1.188-1.927-1.811-1.81a5.132,5.132,0,0,0-6.242-2.39,8.737,8.737,0,0,1-5.058,3.038s.745,1.386,3.813,2.244a5.247,5.247,0,0,0,3.027-.242,17.131,17.131,0,0,1-4.355,1.641c4.043.37,7.891-3.327,8.29-3.722a5.756,5.756,0,0,1,.318,2.649c-.266,1.191-1.324,3.35-.678,3.629C1846.348,1445.521,1849.485,1443.122,1849.044,1440.484Z" transform="translate(-1778.958 -1427.405)"/><g transform="translate(56.388 48.924)"><rect class="n" width="53.271" height="13.971" transform="matrix(0.899, 0.438, -0.438, 0.899, 29.753, 15.028)"/><path class="n" d="M1842.582,1603.9a15.831,15.831,0,0,1-8.569-10.894,3.6,3.6,0,1,1,7.028-1.544,8.714,8.714,0,1,0,6.048-10.22,3.6,3.6,0,1,1-2.038-6.9,15.909,15.909,0,1,1-2.468,29.559Z" transform="translate(-1833.928 -1573.683)"/><g transform="translate(67.457 33.028)"><path class="n" d="M2073.123,1716.632a15.909,15.909,0,1,1,21.766-20.151,3.6,3.6,0,0,1-6.692,2.645,8.713,8.713,0,1,0-4.326,11.06,3.6,3.6,0,0,1,3.112,6.488A15.831,15.831,0,0,1,2073.123,1716.632Z" transform="translate(-2064.186 -1686.423)"/></g><path class="e" d="M1977.246,1669.979l-25.225-12.3a1.468,1.468,0,0,1-.674-1.957l.641-1.315a1.468,1.468,0,0,1,1.957-.674l25.225,12.3a1.468,1.468,0,0,1,.674,1.957l-.641,1.315A1.468,1.468,0,0,1,1977.246,1669.979Z" transform="translate(-1916.844 -1630.179)"/></g><path class="g" d="M1834.45,1632.475a4.247,4.247,0,0,0,.644,1.813c.505.617,1.976,2.112,2,2.986,0,0-.074.389-.39.318s-1.41-1.155-1.972-1.078a10.9,10.9,0,0,0,.6,2.247,6.164,6.164,0,0,1,.666,2.78c-.178.426-3.154-2.054-4.055-3.265s-.014-6.129-.014-6.129Z" transform="translate(-1775.85 -1566.096)"/><path class="g" d="M1798.9,1487.808s-7.513-.41-8.848,4.307,2.5,23.544,3.332,25.488c1.506,3.538,8.84,13.635,8.84,13.635l2.7-.821s-4.89-15.425-5.982-16.952C1797.224,1511.068,1801.148,1489.86,1798.9,1487.808Z" transform="translate(-1746.32 -1464.036)"/><path class="k" d="M1785.668,1495.06c.02.11,7.11,1.3,11.544-.947,0,0,3.7-11.606-1.59-11.05s-8.429,2.223-8.562,4.757A48.807,48.807,0,0,1,1785.668,1495.06Z" transform="translate(-1743.418 -1460.674)"/><path class="g" d="M1888.637,1570.188a2.939,2.939,0,0,0-1.245.314c-.409.316-.87.865.048,1.323,1.377.686,4.13.381,4.023-.032C1891.124,1570.492,1890.626,1570.1,1888.637,1570.188Z" transform="translate(-1814.998 -1522.279)"/></g><g transform="translate(1660.3 591.084)"><path class="g" d="M2027.134,911.744a1.285,1.285,0,0,0-.229,1.375.012.012,0,0,0,0,.007,8.544,8.544,0,0,0,2.7,2.961c.163.131.307.251.433.361.033.029.066.058.1.087l.075.067c1.187,1.094.74,1.344,2.872,3.564,2.43,2.529,4.1,2.575,4.58,2.344.4-.2-.415-1.538-1.322-3.045-.044-.072-.087-.146-.132-.22-.121-.2-.241-.4-.361-.605-1.063-1.814-.79-2.666-.538-5.366.2-2.194,3.414-12.258,3.414-12.258l-4.658-.8s-1.4,8.014-2.948,9.248c-.826.658-1.752.666-2.546,1.154q-.084.051-.165.1A6.116,6.116,0,0,0,2027.134,911.744Z" transform="translate(-1996.066 -809.651)"/><path class="j" d="M2027.134,936.848a1.285,1.285,0,0,0-.229,1.375.011.011,0,0,0,0,.007,9.9,9.9,0,0,0,2.7,2.952c.161.134.3.256.429.371.033.029.066.058.1.087l.075.067c1.187,1.094.74,1.344,2.872,3.564,2.43,2.529,4.1,2.575,4.58,2.344.4-.2-.415-1.538-1.322-3.045a10.354,10.354,0,0,1-4.333-3.192c-1.463-1.868-2.44-4.267-3.436-5.657q-.084.051-.165.1A6.114,6.114,0,0,0,2027.134,936.848Z" transform="translate(-1996.066 -834.755)"/><path class="g" d="M2147.142,905.414c.288,1.438,2.337,1.2,4.627.638s1.745.105,5-.255,4.246-1.576,4.346-2.06c.089-.43-1.521-.582-3.249-.78-.217-.024-.436-.051-.654-.078-1.95-.245-3.378-1.5-5.149-2.536-1.678-.979-4.181-4.967-4.181-4.967l-4.469.354s2.345,3.562,3.252,5.111a5.4,5.4,0,0,1,.438,3.046A5.729,5.729,0,0,0,2147.142,905.414Z" transform="translate(-2078.517 -806.23)"/><path class="j" d="M2160.595,924.349c2.29-.56,1.746.105,5-.255s4.246-1.576,4.345-2.06c.089-.43-1.521-.582-3.249-.78l-.016.033a9.188,9.188,0,0,1-4.667,1.45c-2.211.054-4.552-.579-6.079-.555a5.739,5.739,0,0,0,.034,1.529C2156.256,925.148,2158.3,924.909,2160.595,924.349Z" transform="translate(-2087.342 -824.527)"/><path class="o" d="M2060.672,814.812l-4.178,11.241-5.454,14.678a8.838,8.838,0,0,1-2.9-.265,12.572,12.572,0,0,1-2.8-1.364s1.515-15.76,4.34-24.808a16.106,16.106,0,0,1,2.431-5.258C2056.49,803.861,2060.672,814.812,2060.672,814.812Z" transform="translate(-2009.172 -744.203)"/><path class="p" d="M1985.651,765.741c-2.737-.883-10.543.251-18.385,1.786l-1.642-2.708-16.937-1.323s-5.589,12.395-2.529,20.292a2.863,2.863,0,0,0,2.867,1.929h.247s10.081-.006,13.354-.006c8.423,0,17.826-5.79,19.043-6.033,1.991-.4,2.787,3.584,4.779,7.765s18.716,18.516,18.716,18.516a14.709,14.709,0,0,0,3.632-.373,3.577,3.577,0,0,0,1.559-.984S1991.823,767.732,1985.651,765.741Z" transform="translate(-1938.399 -712.986)"/><path class="q" d="M1943.5,591.354a17.857,17.857,0,0,0-6.161.051c-6.445.635-8.61,7.824-7.635,13.4.9,5.148-1.711,6.572-4.736,10.637-6.067,8.152-2.1,15.026,2.686,16.8,2.873,1.063,6.86-1.619,6.86-1.619.072.028,12.531-8.162,17.638-12.78C1960.654,614.515,1949.545,592.911,1943.5,591.354Z" transform="translate(-1921.884 -591.084)"/><path class="g" d="M1977.938,653.389c.169.6-2.649,1.693-4.8,1.29-2.024-.378-4.294-2.748-3.826-2.971.775-.368,1.3-1.283.872-6.234l.385.044,6.477.739s.02,2.018.17,3.908A12.794,12.794,0,0,0,1977.938,653.389Z" transform="translate(-1955.373 -629.541)"/><path class="m" d="M1980.23,646.363s.02,2.018.17,3.908c-3.575.192-5.727-2.907-6.647-4.647Z" transform="translate(-1958.557 -629.646)"/><path class="g" d="M1977.863,620.051s-8.427.831-8.864-4.425-1.819-8.688,3.543-9.441,6.575,1.166,7.148,2.885S1980.043,619.7,1977.863,620.051Z" transform="translate(-1954.852 -601.642)"/><path class="q" d="M1970.925,601.75s-1.061,6.421-5.861,7.945c-3.5,1.112-5.087.379-5.087.379a14.268,14.268,0,0,0,2.285-5.342,2.569,2.569,0,0,1,1.714-1.961C1966.464,601.952,1969.478,599.714,1970.925,601.75Z" transform="translate(-1948.817 -598.037)"/><path class="r" d="M1991.926,604.882a5.576,5.576,0,0,1,3,2.4,10.755,10.755,0,0,1,1.508,5.193s1.475-5.943-.676-8.153C1993.473,601.98,1991.926,604.882,1991.926,604.882Z" transform="translate(-1971.406 -599.799)"/><path class="d" d="M1945.243,684.574c.15.638.279,1.225.384,1.767.172.874.29,1.628.373,2.293.257,2.073.18,3.3.354,4.645a11.576,11.576,0,0,0,.63,2.529c.349.963,9.506,1.821,14.717,1.475a7.144,7.144,0,0,0,3.363-.727c1.858-1.614,1.673,1.936,1.928-15.052.123-8.286-7.031-15.666-7.031-15.666s-.571,3.54-7.667-.673c-.252-.147-3.046,3.99-5.736,9.085C1943.594,679.879,1944.406,681.069,1945.243,684.574Z" transform="translate(-1937.852 -643.459)"/><path class="o" d="M2056.494,842.1l-5.454,14.678a8.838,8.838,0,0,1-2.9-.265,12.572,12.572,0,0,1-2.8-1.364s1.515-15.76,4.34-24.808Z" transform="translate(-2009.172 -760.246)"/><path class="d" d="M1997.347,667.467s7.3,1.238,8.158,4.381,6.78,20.723,6.78,20.723-4.589,1.566-6.3-.148-5.966-15.907-5.966-15.907Z" transform="translate(-1975.239 -645.09)"/><path class="e" d="M1993.79,642.926a1.449,1.449,0,0,0,1.286.864c.933,0,1.185-.139,1.362-.337a2.923,2.923,0,0,0,.352-.578A7.925,7.925,0,0,0,1993.79,642.926Z" transform="translate(-1972.724 -627.616)"/><path class="s" d="M1949.693,744.139c.257,2.073.179,3.3.354,4.645,6.629.021,15.491-5.119,15.491-5.119Z" transform="translate(-1941.546 -698.964)"/><path class="s" d="M1964.872,708.341s-10.327-.308-12.068-6.177c-1.912-6.448-4.054,2.652-4.054,2.652l1.14,5.808h11.33Z" transform="translate(-1940.879 -667.989)"/><g transform="translate(27.508 20.591)"><path class="n" d="M2030.267,665.2l-.558-1.382a3.92,3.92,0,0,0-3.635-2.452H2015.78v34.42h42.585V667.9h-24.1A4.314,4.314,0,0,1,2030.267,665.2Z" transform="translate(-2015.78 -661.371)"/><g transform="translate(6.423 11.671)"><path class="e" d="M2037.706,717.63v-2.481l8.7-3.812v2.535l-6.077,2.5,6.077,2.5v2.571Z" transform="translate(-2037.706 -708.37)"/><path class="e" d="M2079.057,701.21h2.319l-7.965,16.65h-2.319Z" transform="translate(-2061.311 -701.21)"/><path class="e" d="M2118.213,715.149v2.481l-8.7,3.812v-2.535l6.077-2.5-6.077-2.5v-2.571Z" transform="translate(-2088.475 -708.37)"/></g></g><path class="g" d="M2003.775,724.839l.747-1.173a6.01,6.01,0,0,0,1.421-.775c.986-.693.856-1.73,1.349-1.62l.006,2.28-.053.008c2.116.565,4.591-.049,4.641.478.136,1.45-.985,2.1-1.924,2.556a3.406,3.406,0,0,1-2.835.465c-.949-.3-2.443-.6-2.443-.6Z" transform="translate(-1979.784 -683.125)"/><path class="d" d="M1943.5,665.178s-6.7.439-8.379,3.053-3.754,15.888-2.883,20.447,22.338-.872,22.338-.872l-.685-3.956s-12.389.072-13.1-1.542C1939.856,680.164,1943.5,665.178,1943.5,665.178Z" transform="translate(-1929.058 -643.471)"/><path class="g" d="M2081.623,680.521a2.5,2.5,0,0,0,2.53,1.625c.949-.19,2.183-2.234,1.1-2.684A3.083,3.083,0,0,0,2081.623,680.521Z" transform="translate(-2034.824 -653.413)"/></g><g transform="translate(1758.391 663.601)"><g transform="translate(0 29.475)"><path class="e" d="M2404.289,948.846a11.2,11.2,0,0,1-2.088,8.2,10.678,10.678,0,0,1-7.141,4.272l-125.126,17.193c-6.386.877-12.291-3.354-13.123-9.4a10.774,10.774,0,0,1,2.344-8.234,12.013,12.013,0,0,1,7.757-4.357l125.126-17.193A11,11,0,0,1,2404.289,948.846Z" transform="translate(-2256.713 -939.227)"/><path class="n" d="M2676.239,948.846a11.2,11.2,0,0,1-2.088,8.2,10.678,10.678,0,0,1-7.141,4.272l-22.642,3.111-3.022-21.992,22.643-3.111A11,11,0,0,1,2676.239,948.846Z" transform="translate(-2528.664 -939.227)"/><g transform="translate(121.621 4.327)"><g transform="translate(5.736)"><path class="e" d="M2697.876,965.255a5.684,5.684,0,0,1-.847.053,5.657,5.657,0,0,1-3.888-9.7h0a5.657,5.657,0,1,1,4.735,9.65Zm-4.084-8.984a4.725,4.725,0,1,0,6.682.078,4.73,4.73,0,0,0-6.682-.078Z" transform="translate(-2691.44 -953.997)"/></g><rect class="e" width="0.932" height="7.72" transform="matrix(0.699, 0.715, -0.715, 0.699, 7.352, 8.949)"/><path class="e" d="M2672.1,999.419h0a.832.832,0,0,1,.013-1.176l3.252-3.177a.832.832,0,0,1,1.176.013h0a.832.832,0,0,1-.014,1.177l-3.252,3.177A.832.832,0,0,1,2672.1,999.419Z" transform="translate(-2671.859 -982.867)"/></g></g></g><g transform="translate(1668.717 819.81)"><rect class="d" width="28.112" height="2.385" rx="1.193"/><g transform="translate(0 5.545)"><path class="h" d="M1964.329,1404.033h-12.9a.814.814,0,0,1-.814-.814h0a.814.814,0,0,1,.814-.814h12.9a.814.814,0,0,1,.814.814h0A.814.814,0,0,1,1964.329,1404.033Z" transform="translate(-1950.617 -1398.992)"/><path class="h" d="M.814,0H23.533a.814.814,0,0,1,.814.814v0a.814.814,0,0,1-.814.814H.814A.814.814,0,0,1,0,.814v0A.814.814,0,0,1,.814,0Z"/><rect class="h" width="22.735" height="1.628" rx="0.814" transform="translate(26.566)"/><path class="h" d="M2019.245,1404.033h-12.9a.814.814,0,0,1-.814-.814h0a.814.814,0,0,1,.814-.814h12.9a.814.814,0,0,1,.814.814h0A.814.814,0,0,1,2019.245,1404.033Z" transform="translate(-1989.445 -1398.992)"/></g><path class="d" d="M1.193,0H26.92a1.192,1.192,0,0,1,1.192,1.192v0a1.193,1.193,0,0,1-1.193,1.193H1.193A1.193,1.193,0,0,1,0,1.193v0A1.193,1.193,0,0,1,1.193,0Z" transform="translate(31.833)"/></g><g transform="translate(1668.717 837.768)"><path class="d" d="M1.192,0H26.92a1.193,1.193,0,0,1,1.193,1.193v0A1.193,1.193,0,0,1,26.92,2.385H1.192A1.192,1.192,0,0,1,0,1.193v0A1.192,1.192,0,0,1,1.192,0Z"/><g transform="translate(0 5.545)"><path class="h" d="M1964.329,1465.331h-12.9a.814.814,0,0,1-.814-.814h0a.814.814,0,0,1,.814-.814h12.9a.814.814,0,0,1,.814.814h0A.814.814,0,0,1,1964.329,1465.331Z" transform="translate(-1950.617 -1460.29)"/><path class="h" d="M.814,0H23.533a.814.814,0,0,1,.814.814v0a.814.814,0,0,1-.814.814H.814A.814.814,0,0,1,0,.814v0A.814.814,0,0,1,.814,0Z"/><path class="h" d="M.814,0H21.921a.814.814,0,0,1,.814.814v0a.814.814,0,0,1-.814.814H.814A.814.814,0,0,1,0,.814v0A.814.814,0,0,1,.814,0Z" transform="translate(26.566)"/><path class="h" d="M2019.245,1465.331h-12.9a.814.814,0,0,1-.814-.814h0a.814.814,0,0,1,.814-.814h12.9a.814.814,0,0,1,.814.814h0A.814.814,0,0,1,2019.245,1465.331Z" transform="translate(-1989.445 -1460.29)"/></g><path class="d" d="M1.192,0H26.92a1.192,1.192,0,0,1,1.192,1.192v0A1.193,1.193,0,0,1,26.92,2.385H1.193A1.193,1.193,0,0,1,0,1.193v0A1.192,1.192,0,0,1,1.192,0Z" transform="translate(31.833)"/></g><g transform="translate(1810.264 724.408)"><path class="j" d="M2426.593,1029.251l-8,1.861-3.954,7.195-3.019-16.4Z" transform="translate(-2411.624 -1021.909)"/><rect class="j" width="1.462" height="8.457" transform="translate(5.372 8.505) rotate(-37.154)"/></g><g transform="translate(1782.547 752.197)"><path class="t" d="M9.183,0H32.909a9.184,9.184,0,0,1,9.184,9.184V32.91a9.183,9.183,0,0,1-9.183,9.183H9.183A9.183,9.183,0,0,1,0,32.91V9.183A9.183,9.183,0,0,1,9.183,0Z" transform="translate(0 0)"/><g transform="translate(5.036 8.433)"><path class="n" d="M2356.7,1215.729l8.179-14.746a2.69,2.69,0,0,1,4.522-.286l4.718,6.435a2.69,2.69,0,0,0,4.154.225h0a2.691,2.691,0,0,1,4.243.353l5.091,7.861a2.69,2.69,0,0,1-2.258,4.153h-26.3A2.691,2.691,0,0,1,2356.7,1215.729Z" transform="translate(-2356.358 -1190.873)"/><path class="n" d="M2412.623,1173.037a3.217,3.217,0,1,1,3.217,3.217A3.217,3.217,0,0,1,2412.623,1173.037Z" transform="translate(-2396.14 -1169.819)"/></g></g><g transform="translate(1831.408 753.692)"><path class="t" d="M2550.342,1187.867l-36.375,4.962a2.69,2.69,0,0,1-3.029-2.3l-4.962-36.375a2.69,2.69,0,0,1,2.3-3.03l36.376-4.962a2.69,2.69,0,0,1,3.029,2.3l4.962,36.375A2.691,2.691,0,0,1,2550.342,1187.867Z" transform="translate(-2505.95 -1146.135)"/><g transform="translate(9.302 10.334)"><path class="n" d="M2537.89,1232.432l6.111-15.716a2.69,2.69,0,0,1,4.442-.894l5.544,5.738a2.691,2.691,0,0,0,4.147-.338h0a2.691,2.691,0,0,1,4.252-.223l6.106,7.1a2.691,2.691,0,0,1-1.676,4.42l-26.056,3.554A2.69,2.69,0,0,1,2537.89,1232.432Z" transform="translate(-2537.703 -1205.159)"/><path class="n" d="M2582.879,1185.061a3.218,3.218,0,1,1,3.623,2.753A3.218,3.218,0,0,1,2582.879,1185.061Z" transform="translate(-2569.623 -1181.408)"/></g></g><g transform="translate(1746.774 924.683)"><rect class="n" width="21.213" height="18.189" transform="translate(0.856 0.778)"/><rect class="i" width="22.788" height="1.405" transform="translate(0 0)"/><rect class="u" width="21.213" height="5.777" transform="translate(0.856 5.699)"/></g><path class="n" d="M2328.942,1782.817h-20.03a1.328,1.328,0,0,1-1.328-1.328v-2.222a1.328,1.328,0,0,1,1.474-1.32l20.031,2.222a1.328,1.328,0,0,1,1.181,1.32h0A1.328,1.328,0,0,1,2328.942,1782.817Z" transform="translate(-534.289 -839.154)"/><path class="j" d="M2030.181,1796.155,1582.1,1796a.626.626,0,0,1-.546-.68v-.348a.626.626,0,0,1,.546-.679l448.077.154a.626.626,0,0,1,.546.68v.348A.626.626,0,0,1,2030.181,1796.155Z" transform="translate(-20.96 -850.716)"/><g transform="translate(1675.4 744.328)"><path class="h" d="M2057.69,1165.788h-2.308a.38.38,0,0,1,0-.759h2.292a.386.386,0,0,1,.388.379A.373.373,0,0,1,2057.69,1165.788Zm-4.6,0H2050.8a.38.38,0,1,1,0-.759h2.292a.38.38,0,1,1,0,.759Zm-4.585,0h-2.293a.38.38,0,0,1,0-.759h2.293a.38.38,0,0,1,0,.759Zm-4.586,0h-2.293a.38.38,0,0,1,0-.759h2.293a.38.38,0,1,1,0,.759Zm-4.585,0h-2.292a.38.38,0,1,1,0-.759h2.292a.38.38,0,1,1,0,.759Zm-4.585,0h-2.293a.38.38,0,0,1,0-.759h2.293a.38.38,0,0,1,0,.759Zm-4.585,0h-2.293a.38.38,0,0,1,0-.759h2.293a.38.38,0,0,1,0,.759Zm-4.586,0h-2.292a.38.38,0,1,1,0-.759h2.292a.38.38,0,1,1,0,.759Zm-4.585,0H2018.7a.38.38,0,1,1,0-.759h2.293a.38.38,0,0,1,0,.759Zm-4.585,0h-2.293a.38.38,0,1,1,0-.759h2.293a.38.38,0,0,1,0,.759Zm-4.585,0h-2.293a.38.38,0,1,1,0-.759h2.293a.38.38,0,0,1,0,.759Zm-4.585,0h-2.293a.38.38,0,1,1,0-.759h2.293a.38.38,0,0,1,0,.759Zm-4.585,0h-2.293a.38.38,0,1,1,0-.759h2.293a.38.38,0,0,1,0,.759Zm-4.585,0h-2.293a.38.38,0,1,1,0-.759h2.293a.38.38,0,0,1,0,.759Zm-4.585,0h-2.293a.38.38,0,0,1,0-.759h2.293a.38.38,0,1,1,0,.759Zm-4.585,0H1986.6a.38.38,0,0,1,0-.759h2.293a.38.38,0,1,1,0,.759Zm-4.585,0h-2.293a.38.38,0,0,1,0-.759h2.293a.38.38,0,0,1,0,.759Zm-4.585,0h-2.044q-.138,0-.273-.009a.379.379,0,1,1,.048-.757c.074,0,.149.007.225.007h2.044a.38.38,0,0,1,0,.759Zm80.125-.667a.38.38,0,0,1-.213-.694,3.489,3.489,0,0,0,1.28-1.586.379.379,0,0,1,.7.284,4.247,4.247,0,0,1-1.558,1.93A.38.38,0,0,1,2059.848,1165.121Zm-84.532-.137a.378.378,0,0,1-.231-.079,4.238,4.238,0,0,1-1.439-2.02.38.38,0,1,1,.72-.24,3.482,3.482,0,0,0,1.183,1.66.379.379,0,0,1-.232.68Zm86.23-3.877a.38.38,0,0,1-.38-.38v-2.293a.38.38,0,1,1,.76,0v2.293A.38.38,0,0,1,2061.546,1161.107Zm-87.74-.233a.38.38,0,0,1-.379-.38V1158.2a.38.38,0,1,1,.759,0v2.293A.38.38,0,0,1,1973.806,1160.873Zm87.74-4.352a.38.38,0,0,1-.38-.38v-2.292a.38.38,0,0,1,.76,0v2.292A.38.38,0,0,1,2061.546,1156.521Zm-87.74-.233a.38.38,0,0,1-.379-.38v-2.292a.38.38,0,1,1,.759,0v2.292A.38.38,0,0,1,1973.806,1156.288Zm87.74-4.352a.38.38,0,0,1-.38-.379v-2.293a.38.38,0,0,1,.76,0v2.293A.38.38,0,0,1,2061.546,1151.936Zm-87.74-.233a.38.38,0,0,1-.379-.379v-2.293a.38.38,0,1,1,.759,0v2.293A.38.38,0,0,1,1973.806,1151.7Zm87.74-4.352a.38.38,0,0,1-.38-.379v-2.293a.38.38,0,0,1,.76,0v2.293A.38.38,0,0,1,2061.546,1147.35Zm-87.74-.233a.379.379,0,0,1-.379-.379v-2.293a.38.38,0,1,1,.759,0v2.293A.38.38,0,0,1,1973.806,1147.117Zm87.74-4.352a.38.38,0,0,1-.38-.379v-2.293a.38.38,0,0,1,.76,0v2.293A.38.38,0,0,1,2061.546,1142.765Zm-87.74-.233a.379.379,0,0,1-.379-.379v-2.293a.38.38,0,0,1,.759,0v2.293A.38.38,0,0,1,1973.806,1142.531Zm87.74-4.352a.38.38,0,0,1-.38-.38v-2.293a.38.38,0,1,1,.76,0v2.293A.38.38,0,0,1,2061.546,1138.18Zm-87.74-.233a.38.38,0,0,1-.379-.38v-2.293a.38.38,0,1,1,.759,0v2.293A.38.38,0,0,1,1973.806,1137.946Zm87.74-4.352a.38.38,0,0,1-.38-.38v-2.293a.38.38,0,0,1,.76,0v2.293A.38.38,0,0,1,2061.546,1133.594Zm-87.74-.233a.38.38,0,0,1-.379-.38v-2.293a.38.38,0,1,1,.759,0v2.293A.38.38,0,0,1,1973.806,1133.361Zm87.74-4.352a.38.38,0,0,1-.38-.38v-2.293a.38.38,0,0,1,.76,0v2.293A.38.38,0,0,1,2061.546,1129.009Zm-87.74-.234a.379.379,0,0,1-.379-.379V1126.1a.38.38,0,1,1,.759,0v2.293A.38.38,0,0,1,1973.806,1128.775Zm87.74-4.352a.38.38,0,0,1-.38-.38v-2.293a.38.38,0,0,1,.76,0v2.293A.38.38,0,0,1,2061.546,1124.423Zm-87.74-.233a.38.38,0,0,1-.379-.38v-2.293a.38.38,0,0,1,.759,0v2.293A.38.38,0,0,1,1973.806,1124.19Zm87.74-4.352a.38.38,0,0,1-.38-.38v-1.035a3.485,3.485,0,0,0-.181-1.115.379.379,0,1,1,.719-.242,4.24,4.24,0,0,1,.222,1.357v1.035A.38.38,0,0,1,2061.546,1119.838Zm-87.74-.233a.38.38,0,0,1-.379-.38v-.8a4.226,4.226,0,0,1,.31-1.6.379.379,0,0,1,.7.285,3.476,3.476,0,0,0-.255,1.312v.8A.38.38,0,0,1,1973.806,1119.6Zm86.224-3.875a.379.379,0,0,1-.231-.078,3.466,3.466,0,0,0-1.907-.714.379.379,0,1,1,.046-.758,4.223,4.223,0,0,1,2.323.87.38.38,0,0,1-.231.681Zm-84.518-.136a.38.38,0,0,1-.213-.694,4.229,4.229,0,0,1,2.371-.728h0a.38.38,0,0,1,0,.759,3.478,3.478,0,0,0-1.947.6A.378.378,0,0,1,1975.512,1115.594Zm80.111-.663h-2.293a.38.38,0,1,1,0-.759h2.293a.38.38,0,0,1,0,.759Zm-4.585,0h-2.293a.38.38,0,0,1,0-.759h2.293a.38.38,0,0,1,0,.759Zm-4.586,0h-2.293a.38.38,0,0,1,0-.759h2.293a.38.38,0,1,1,0,.759Zm-4.585,0h-2.293a.38.38,0,1,1,0-.759h2.293a.38.38,0,0,1,0,.759Zm-4.585,0h-2.293a.38.38,0,1,1,0-.759h2.293a.38.38,0,0,1,0,.759Zm-4.585,0H2030.4a.38.38,0,1,1,0-.759h2.293a.38.38,0,0,1,0,.759Zm-4.585,0h-2.293a.38.38,0,1,1,0-.759h2.293a.38.38,0,0,1,0,.759Zm-4.585,0h-2.293a.38.38,0,1,1,0-.759h2.293a.38.38,0,0,1,0,.759Zm-4.585,0h-2.293a.38.38,0,1,1,0-.759h2.293a.38.38,0,0,1,0,.759Zm-4.585,0h-2.293a.38.38,0,1,1,0-.759h2.293a.38.38,0,1,1,0,.759Zm-4.585,0h-2.293a.38.38,0,1,1,0-.759h2.293a.38.38,0,1,1,0,.759Zm-4.585,0h-2.293a.38.38,0,1,1,0-.759h2.293a.38.38,0,0,1,0,.759Zm-4.585,0H1998.3a.38.38,0,0,1,0-.759h2.293a.38.38,0,1,1,0,.759Zm-4.585,0h-2.293a.38.38,0,0,1,0-.759h2.293a.38.38,0,1,1,0,.759Zm-4.585,0h-2.293a.38.38,0,1,1,0-.759h2.293a.38.38,0,1,1,0,.759Zm-4.585,0h-2.293a.38.38,0,1,1,0-.759h2.293a.38.38,0,0,1,0,.759Zm-4.585,0h-2.293a.38.38,0,0,1,0-.759h2.293a.38.38,0,0,1,0,.759Z" transform="translate(-1973.427 -1114.172)"/></g><g transform="translate(1849.792 846.125)"><path class="h" d="M2608.9,1475.1h-2.046a.336.336,0,0,1,0-.672h2.031a.343.343,0,0,1,.344.336A.33.33,0,0,1,2608.9,1475.1Zm-4.077,0h-2.031a.336.336,0,0,1,0-.672h2.031a.336.336,0,0,1,0,.672Zm-4.062,0h-2.031a.336.336,0,1,1,0-.672h2.031a.336.336,0,1,1,0,.672Zm-4.062,0h-2.031a.336.336,0,0,1,0-.672h2.031a.336.336,0,1,1,0,.672Zm-4.062,0h-2.031a.336.336,0,1,1,0-.672h2.031a.336.336,0,0,1,0,.672Zm-4.062,0h-2.031a.336.336,0,1,1,0-.672h2.031a.336.336,0,1,1,0,.672Zm-4.062,0h-2.031a.336.336,0,1,1,0-.672h2.031a.336.336,0,1,1,0,.672Zm-4.062,0h-2.031a.336.336,0,1,1,0-.672h2.031a.336.336,0,1,1,0,.672Zm-4.062,0h-2.031a.336.336,0,1,1,0-.672h2.031a.336.336,0,0,1,0,.672Zm-4.062,0h-1.961l-.086,0a.336.336,0,0,1,.033-.672l.053,0h1.961a.336.336,0,0,1,0,.672Zm37.887-1.287h-.011a.336.336,0,0,1-.325-.347v-2.02a.336.336,0,0,1,.672,0v2.042A.336.336,0,0,1,2610.216,1473.811Zm-41.178-.054a.336.336,0,0,1-.336-.336v-2.031a.336.336,0,0,1,.672,0v2.031A.336.336,0,0,1,2569.038,1473.756Zm41.178-4.007a.336.336,0,0,1-.336-.336v-2.031a.336.336,0,1,1,.672,0v2.031A.336.336,0,0,1,2610.216,1469.749Zm-41.178-.054a.336.336,0,0,1-.336-.336v-2.031a.336.336,0,1,1,.672,0v2.031A.336.336,0,0,1,2569.038,1469.694Zm41.178-4.008a.336.336,0,0,1-.336-.336v-2.031a.336.336,0,1,1,.672,0v2.031A.336.336,0,0,1,2610.216,1465.687Zm-41.178-.055a.336.336,0,0,1-.336-.336v-1.981c0-.021,0-.042,0-.064a.33.33,0,0,1,.35-.322.336.336,0,0,1,.322.349v2.017A.336.336,0,0,1,2569.038,1465.632Zm39.911-3.309h-2.031a.336.336,0,0,1,0-.672h2.046a.336.336,0,0,1-.014.672Zm-4.062,0h-2.031a.336.336,0,1,1,0-.672h2.031a.336.336,0,0,1,0,.672Zm-4.062,0h-2.031a.336.336,0,0,1,0-.672h2.031a.336.336,0,0,1,0,.672Zm-4.062,0h-2.031a.336.336,0,1,1,0-.672h2.031a.336.336,0,1,1,0,.672Zm-4.062,0h-2.031a.336.336,0,1,1,0-.672h2.031a.336.336,0,1,1,0,.672Zm-4.062,0h-2.031a.336.336,0,1,1,0-.672h2.031a.336.336,0,1,1,0,.672Zm-4.062,0h-2.031a.336.336,0,1,1,0-.672h2.031a.336.336,0,1,1,0,.672Zm-4.062,0h-2.031a.336.336,0,1,1,0-.672h2.031a.336.336,0,1,1,0,.672Zm-4.062,0h-2.031a.336.336,0,1,1,0-.672h2.031a.336.336,0,1,1,0,.672Zm-4.062,0h-2.023a.339.339,0,0,1-.34-.336.333.333,0,0,1,.332-.336h2.031a.336.336,0,0,1,0,.672Z" transform="translate(-2568.702 -1461.65)"/></g><g transform="translate(1712.158 707.307)"><path class="h" d="M2131.66,1018.861H2129.4a.38.38,0,0,1,0-.759h2.248a.386.386,0,0,1,.386.38A.374.374,0,0,1,2131.66,1018.861Zm-4.509,0H2124.9a.38.38,0,0,1,0-.759h2.248a.38.38,0,0,1,0,.759Zm-4.5,0h-2.247a.38.38,0,0,1,0-.759h2.247a.38.38,0,1,1,0,.759Zm-4.495,0h-2.248a.38.38,0,0,1,0-.759h2.248a.38.38,0,0,1,0,.759Zm-4.495,0h-2.248a.38.38,0,0,1,0-.759h2.248a.38.38,0,0,1,0,.759Zm-4.495,0h-2.248a.38.38,0,0,1,0-.759h2.248a.38.38,0,0,1,0,.759Zm-4.5,0h-2.247a.38.38,0,0,1,0-.759h2.247a.38.38,0,0,1,0,.759Zm-4.453-.242a.376.376,0,0,1-.187-.049,2.252,2.252,0,0,1-1.14-1.955v-.275a.38.38,0,1,1,.759,0v.275a1.492,1.492,0,0,0,.755,1.3.379.379,0,0,1-.187.71Zm33.17-.967a.38.38,0,0,1-.355-.513,1.48,1.48,0,0,0,.095-.524v-1.575a.38.38,0,1,1,.759,0v1.575a2.241,2.241,0,0,1-.144.792A.38.38,0,0,1,2133.394,1017.652Zm-34.117-3.181a.38.38,0,0,1-.38-.38v-2.247a.38.38,0,1,1,.759,0v2.247A.38.38,0,0,1,2099.277,1014.471Zm34.237-1.3a.38.38,0,0,1-.379-.38v-2.247a.38.38,0,1,1,.759,0v2.247A.38.38,0,0,1,2133.513,1013.172Zm-34.237-3.2a.38.38,0,0,1-.38-.38v-2.248a.38.38,0,1,1,.759,0v2.248A.38.38,0,0,1,2099.277,1009.976Zm34.237-1.3a.38.38,0,0,1-.379-.38v-2.247a.38.38,0,1,1,.759,0v2.247A.38.38,0,0,1,2133.513,1008.677Zm-34.237-3.2a.38.38,0,0,1-.38-.38v-2.247a.38.38,0,1,1,.759,0v2.247A.38.38,0,0,1,2099.277,1005.481Zm34.237-1.3a.379.379,0,0,1-.379-.379v-2.248a.38.38,0,1,1,.759,0v2.248A.38.38,0,0,1,2133.513,1004.181Zm-34.237-3.2a.38.38,0,0,1-.38-.38v-2.247a.38.38,0,1,1,.759,0v2.247A.38.38,0,0,1,2099.277,1000.986Zm34.237-1.3a.379.379,0,0,1-.379-.379V997.06a.38.38,0,1,1,.759,0v2.248A.38.38,0,0,1,2133.513,999.687Zm-34.237-3.2a.38.38,0,0,1-.38-.38v-2.247a.38.38,0,1,1,.759,0v2.247A.38.38,0,0,1,2099.277,996.492Zm34.237-1.3a.38.38,0,0,1-.379-.38v-2.247a.38.38,0,1,1,.759,0v2.247A.38.38,0,0,1,2133.513,995.192Zm-34.237-3.2a.38.38,0,0,1-.38-.379v-1.568a2.24,2.24,0,0,1,.146-.8.379.379,0,1,1,.709.27,1.483,1.483,0,0,0-.1.529v1.568A.379.379,0,0,1,2099.277,992Zm34.237-1.3a.38.38,0,0,1-.379-.38v-.269a1.491,1.491,0,0,0-.76-1.3.379.379,0,1,1,.372-.661,2.252,2.252,0,0,1,1.147,1.959v.269A.38.38,0,0,1,2133.513,990.7Zm-3.16-2.136h-2.247a.38.38,0,1,1,0-.759h2.247a.38.38,0,1,1,0,.759Zm-4.495,0h-2.248a.38.38,0,0,1,0-.759h2.248a.38.38,0,0,1,0,.759Zm-4.495,0h-2.248a.38.38,0,0,1,0-.759h2.248a.38.38,0,0,1,0,.759Zm-4.495,0h-2.248a.38.38,0,1,1,0-.759h2.248a.38.38,0,0,1,0,.759Zm-4.5,0h-2.247a.38.38,0,1,1,0-.759h2.247a.38.38,0,1,1,0,.759Zm-4.495,0h-2.248a.38.38,0,0,1,0-.759h2.248a.38.38,0,1,1,0,.759Zm-4.5,0h-2.24a.382.382,0,0,1-.383-.38.376.376,0,0,1,.376-.379h2.248a.38.38,0,1,1,0,.759Z" transform="translate(-2098.897 -987.802)"/></g><g transform="translate(1849.792 864.87)"><path class="h" d="M2608.9,1539.081h-2.046a.336.336,0,0,1,0-.672h2.031a.343.343,0,0,1,.344.336A.33.33,0,0,1,2608.9,1539.081Zm-4.077,0h-2.031a.336.336,0,0,1,0-.672h2.031a.336.336,0,0,1,0,.672Zm-4.062,0h-2.031a.336.336,0,1,1,0-.672h2.031a.336.336,0,1,1,0,.672Zm-4.062,0h-2.031a.336.336,0,0,1,0-.672h2.031a.336.336,0,1,1,0,.672Zm-4.062,0h-2.031a.336.336,0,1,1,0-.672h2.031a.336.336,0,0,1,0,.672Zm-4.062,0h-2.031a.336.336,0,1,1,0-.672h2.031a.336.336,0,1,1,0,.672Zm-4.062,0h-2.031a.336.336,0,1,1,0-.672h2.031a.336.336,0,1,1,0,.672Zm-4.062,0h-2.031a.336.336,0,1,1,0-.672h2.031a.336.336,0,1,1,0,.672Zm-4.062,0h-2.031a.336.336,0,1,1,0-.672h2.031a.336.336,0,0,1,0,.672Zm-4.062,0h-1.961l-.086,0a.337.337,0,0,1-.319-.352.331.331,0,0,1,.353-.319h2.014a.336.336,0,0,1,0,.672Zm37.887-1.287h-.011a.337.337,0,0,1-.325-.347v-2.02a.336.336,0,1,1,.672,0v2.042A.336.336,0,0,1,2610.216,1537.794Zm-41.178-.055a.336.336,0,0,1-.336-.336v-2.031a.336.336,0,1,1,.672,0v2.031A.336.336,0,0,1,2569.038,1537.74Zm41.178-4.008a.336.336,0,0,1-.336-.336v-2.031a.336.336,0,0,1,.672,0v2.031A.336.336,0,0,1,2610.216,1533.732Zm-41.178-.054a.336.336,0,0,1-.336-.336v-2.031a.336.336,0,1,1,.672,0v2.031A.336.336,0,0,1,2569.038,1533.678Zm41.178-4.008a.336.336,0,0,1-.336-.336V1527.3a.336.336,0,0,1,.672,0v2.031A.336.336,0,0,1,2610.216,1529.67Zm-41.178-.054a.336.336,0,0,1-.336-.336V1527.3c0-.021,0-.043,0-.064a.331.331,0,0,1,.35-.323.337.337,0,0,1,.322.35v2.017A.336.336,0,0,1,2569.038,1529.615Zm39.911-3.309h-2.031a.336.336,0,0,1,0-.672h1.969l.077,0a.336.336,0,0,1-.014.672Zm-4.062,0h-2.031a.336.336,0,1,1,0-.672h2.031a.336.336,0,0,1,0,.672Zm-4.062,0h-2.031a.336.336,0,0,1,0-.672h2.031a.336.336,0,0,1,0,.672Zm-4.062,0h-2.031a.336.336,0,1,1,0-.672h2.031a.336.336,0,1,1,0,.672Zm-4.062,0h-2.031a.336.336,0,1,1,0-.672h2.031a.336.336,0,1,1,0,.672Zm-4.062,0h-2.031a.336.336,0,1,1,0-.672h2.031a.336.336,0,1,1,0,.672Zm-4.062,0h-2.031a.336.336,0,1,1,0-.672h2.031a.336.336,0,1,1,0,.672Zm-4.062,0h-2.031a.336.336,0,1,1,0-.672h2.031a.336.336,0,1,1,0,.672Zm-4.062,0h-2.031a.336.336,0,1,1,0-.672h2.031a.336.336,0,1,1,0,.672Zm-4.062,0h-2.023a.339.339,0,0,1-.34-.336.333.333,0,0,1,.332-.336h2.031a.336.336,0,0,1,0,.672Z" transform="translate(-2568.702 -1525.633)"/></g><g transform="translate(1663.917 812.667)"><path class="h" d="M2000.025,1398.971H1998a.336.336,0,1,1,0-.672h2.014a.342.342,0,0,1,.343.336A.33.33,0,0,1,2000.025,1398.971Zm-4.041,0h-2.014a.336.336,0,1,1,0-.672h2.014a.336.336,0,1,1,0,.672Zm-4.027,0h-2.014a.336.336,0,0,1,0-.672h2.014a.336.336,0,1,1,0,.672Zm-4.027,0h-2.014a.336.336,0,1,1,0-.672h2.014a.336.336,0,1,1,0,.672Zm-4.027,0h-2.013a.336.336,0,1,1,0-.672h2.013a.336.336,0,1,1,0,.672Zm-4.027,0h-2.014a.336.336,0,1,1,0-.672h2.014a.336.336,0,1,1,0,.672Zm-4.027,0h-2.014a.336.336,0,1,1,0-.672h2.014a.336.336,0,1,1,0,.672Zm-4.027,0h-2.013a.336.336,0,1,1,0-.672h2.013a.336.336,0,1,1,0,.672Zm-4.027,0h-2.014a.336.336,0,0,1,0-.672h2.014a.336.336,0,0,1,0,.672Zm-4.027,0h-2.013a.336.336,0,1,1,0-.672h2.013a.336.336,0,1,1,0,.672Zm-4.027,0h-2.013a.336.336,0,1,1,0-.672h2.013a.336.336,0,1,1,0,.672Zm-4.027,0H1953.7a.336.336,0,0,1,0-.672h2.014a.336.336,0,1,1,0,.672Zm-4.027,0h-2.013a.336.336,0,1,1,0-.672h2.013a.336.336,0,1,1,0,.672Zm-4.027,0h-2.013a.336.336,0,1,1,0-.672h2.013a.336.336,0,1,1,0,.672Zm-4.027,0h-2.014a.336.336,0,1,1,0-.672h2.014a.336.336,0,1,1,0,.672Zm-4.027,0H1938a3.786,3.786,0,0,1-.444-.026.336.336,0,1,1,.079-.668,3.122,3.122,0,0,0,.365.021h1.608a.336.336,0,1,1,0,.672Zm62.315-.581a.336.336,0,0,1-.188-.615,3.094,3.094,0,0,0,1.136-1.384.336.336,0,1,1,.621.258,3.763,3.763,0,0,1-1.382,1.684A.334.334,0,0,1,2001.922,1398.39Zm-66.146-.237a.335.335,0,0,1-.218-.08,3.757,3.757,0,0,1-1.181-1.831.336.336,0,0,1,.647-.185,3.084,3.084,0,0,0,.97,1.5.336.336,0,0,1-.218.592Zm67.666-3.276a.336.336,0,0,1-.336-.336v-2.013a.336.336,0,0,1,.673,0v2.013A.336.336,0,0,1,2003.441,1394.877Zm-68.873-.393a.336.336,0,0,1-.336-.336v-2.014a.336.336,0,1,1,.673,0v2.014A.336.336,0,0,1,1934.568,1394.484Zm68.873-3.634a.336.336,0,0,1-.336-.336V1388.5a.336.336,0,1,1,.673,0v2.013A.336.336,0,0,1,2003.441,1390.85Zm-68.873-.393a.336.336,0,0,1-.336-.336v-2.013a.336.336,0,0,1,.673,0v2.013A.336.336,0,0,1,1934.568,1390.457Zm68.873-3.634a.336.336,0,0,1-.336-.336v-2.014a.336.336,0,0,1,.673,0v2.014A.336.336,0,0,1,2003.441,1386.823Zm-68.873-.392a.336.336,0,0,1-.336-.336v-2.014a.336.336,0,0,1,.673,0v2.014A.336.336,0,0,1,1934.568,1386.431Zm68.873-3.635a.336.336,0,0,1-.336-.336v-2.014a.336.336,0,0,1,.673,0v2.014A.336.336,0,0,1,2003.441,1382.8Zm-68.873-.393a.336.336,0,0,1-.336-.336v-2.013a.336.336,0,1,1,.673,0v2.013A.336.336,0,0,1,1934.568,1382.4Zm68.873-3.635a.336.336,0,0,1-.336-.336v-2.014a.336.336,0,0,1,.673,0v2.014A.336.336,0,0,1,2003.441,1378.769Zm-68.873-.392a.336.336,0,0,1-.336-.336v-2.013a.336.336,0,1,1,.673,0v2.013A.336.336,0,0,1,1934.568,1378.377Zm68.873-3.635a.336.336,0,0,1-.336-.336v-2.013a.336.336,0,0,1,.673,0v2.013A.336.336,0,0,1,2003.441,1374.742Zm-68.873-.392a.336.336,0,0,1-.336-.336V1372a.336.336,0,0,1,.673,0v2.014A.336.336,0,0,1,1934.568,1374.35Zm68.873-3.635a.336.336,0,0,1-.336-.336v-2.014a.336.336,0,0,1,.673,0v2.014A.336.336,0,0,1,2003.441,1370.715Zm-68.873-.392a.336.336,0,0,1-.336-.336v-2.014a.336.336,0,0,1,.673,0v2.014A.336.336,0,0,1,1934.568,1370.323Zm68.873-3.635a.336.336,0,0,1-.336-.336v-2.014a.336.336,0,0,1,.673,0v2.014A.336.336,0,0,1,2003.441,1366.688Zm-68.873-.392a.336.336,0,0,1-.336-.336v-2.013a.336.336,0,1,1,.673,0v2.013A.336.336,0,0,1,1934.568,1366.3Zm68.873-3.635a.336.336,0,0,1-.336-.336v-2.013a.336.336,0,0,1,.673,0v2.013A.336.336,0,0,1,2003.441,1362.661Zm-68.873-.392a.336.336,0,0,1-.336-.336v-2.014a.336.336,0,0,1,.673,0v2.014A.336.336,0,0,1,1934.568,1362.269Zm68.873-3.635a.336.336,0,0,1-.336-.336v-2.014a.336.336,0,0,1,.673,0v2.014A.336.336,0,0,1,2003.441,1358.634Zm-68.873-.393a.336.336,0,0,1-.336-.336v-2.013a.336.336,0,1,1,.673,0v2.013A.336.336,0,0,1,1934.568,1358.242Zm68.873-3.634a.336.336,0,0,1-.336-.336v-2.013a.336.336,0,0,1,.673,0v2.013A.336.336,0,0,1,2003.441,1354.607Zm-68.873-.393a.336.336,0,0,1-.336-.336v-2.013a.336.336,0,1,1,.673,0v2.013A.336.336,0,0,1,1934.568,1354.215Zm68.739-3.622a.337.337,0,0,1-.323-.243,3.086,3.086,0,0,0-.973-1.5.336.336,0,1,1,.435-.513,3.756,3.756,0,0,1,1.184,1.828.336.336,0,0,1-.23.416A.329.329,0,0,1,2003.307,1350.593Zm-68.475-.37a.333.333,0,0,1-.129-.026.336.336,0,0,1-.181-.44,3.762,3.762,0,0,1,1.385-1.682.336.336,0,1,1,.374.559,3.092,3.092,0,0,0-1.138,1.382A.336.336,0,0,1,1934.832,1350.223Zm65.577-2.086-.039,0a3.182,3.182,0,0,0-.36-.021H1998.4a.336.336,0,1,1,0-.672h1.614a3.857,3.857,0,0,1,.437.025.336.336,0,0,1-.038.671Zm-4.026-.023h-2.014a.336.336,0,1,1,0-.672h2.014a.336.336,0,1,1,0,.672Zm-4.027,0h-2.013a.336.336,0,1,1,0-.672h2.013a.336.336,0,1,1,0,.672Zm-4.027,0h-2.013a.336.336,0,0,1,0-.672h2.013a.336.336,0,1,1,0,.672Zm-4.027,0h-2.014a.336.336,0,1,1,0-.672h2.014a.336.336,0,0,1,0,.672Zm-4.027,0h-2.013a.336.336,0,1,1,0-.672h2.013a.336.336,0,1,1,0,.672Zm-4.027,0h-2.013a.336.336,0,1,1,0-.672h2.013a.336.336,0,1,1,0,.672Zm-4.027,0h-2.014a.336.336,0,1,1,0-.672h2.014a.336.336,0,1,1,0,.672Zm-4.027,0h-2.013a.336.336,0,1,1,0-.672h2.013a.336.336,0,1,1,0,.672Zm-4.027,0h-2.014a.336.336,0,1,1,0-.672h2.014a.336.336,0,0,1,0,.672Zm-4.027,0h-2.014a.336.336,0,1,1,0-.672h2.014a.336.336,0,1,1,0,.672Zm-4.027,0H1954.1a.336.336,0,1,1,0-.672h2.014a.336.336,0,1,1,0,.672Zm-4.027,0h-2.013a.336.336,0,0,1,0-.672h2.013a.336.336,0,1,1,0,.672Zm-4.027,0h-2.013a.336.336,0,1,1,0-.672h2.013a.336.336,0,1,1,0,.672Zm-4.027,0h-2.013a.336.336,0,1,1,0-.672h2.013a.336.336,0,0,1,0,.672Zm-4.027,0H1938a.339.339,0,0,1-.339-.336.333.333,0,0,1,.333-.336h2.013a.336.336,0,1,1,0,.672Z" transform="translate(-1934.232 -1347.442)"/></g><g transform="translate(1664.721 751.623)"><path class="t" d="M10.855,0h66.03A10.855,10.855,0,0,1,87.74,10.855V40A10.855,10.855,0,0,1,76.885,50.857H10.854A10.854,10.854,0,0,1,0,40V10.855A10.855,10.855,0,0,1,10.855,0Z" transform="translate(0 0)"/><path class="n" d="M2052.926,1187.6v20.175a1.585,1.585,0,0,0,2.457,1.324l15.333-10.088a1.585,1.585,0,0,0,0-2.649l-15.333-10.088A1.585,1.585,0,0,0,2052.926,1187.6Z" transform="translate(-2018.957 -1172.264)"/><g transform="translate(4.561 44.695)"><path class="h" d="M1952.544,1293.209a1.575,1.575,0,1,1,1.575,1.575A1.575,1.575,0,0,1,1952.544,1293.209Z" transform="translate(-1952.544 -1291.634)"/><path class="h" d="M2029.565,1296.409h-71.221a.424.424,0,0,1-.424-.424h0a.424.424,0,0,1,.424-.424h71.221a.424.424,0,0,1,.424.424h0A.424.424,0,0,1,2029.565,1296.409Z" transform="translate(-1956.345 -1294.411)"/></g></g><rect class="t" width="45.392" height="67.76" transform="translate(1746.774 813.003)"/><g transform="translate(1765.833 814.618)"><g transform="translate(0 5.608)"><g transform="translate(7.373 2.309)"><path class="h" d="M2307.9,1393.366h-.621v-2.792a1.818,1.818,0,0,1,1.816-1.816h7.68a1.2,1.2,0,0,0,1.156-.891l1.215-4.617a1.2,1.2,0,0,0-1.156-1.5h-10.021v-.621h10.021a1.816,1.816,0,0,1,1.757,2.279l-1.215,4.617a1.817,1.817,0,0,1-1.756,1.354h-7.68a1.2,1.2,0,0,0-1.2,1.2Z" transform="translate(-2307.283 -1381.128)"/></g><path class="n" d="M2.62,0H14.611a2.62,2.62,0,0,1,2.62,2.62v0a2.62,2.62,0,0,1-2.62,2.62H2.62A2.62,2.62,0,0,1,0,2.62v0A2.62,2.62,0,0,1,2.62,0Z"/><path class="h" d="M2304.222,1429.245h0a1.708,1.708,0,0,1-1.708-1.707v-10.349a1.708,1.708,0,0,1,1.708-1.708h0a1.708,1.708,0,0,1,1.708,1.708v10.349A1.708,1.708,0,0,1,2304.222,1429.245Z" transform="translate(-2296.538 -1403.108)"/></g><g transform="translate(45.384 19.87)"><path class="g" d="M2523.931,1538.7a23.5,23.5,0,0,1,1.074,4.445,16.1,16.1,0,0,1-1.365,4.378c-.527.724-.787-2.947-1.2-3.5s-.086,1.382-.379,1.561-.907-1.423-1.17-1.988.644-2.65.646-4.1S2523.931,1538.7,2523.931,1538.7Z" transform="translate(-2496.285 -1504.389)"/><path class="v" d="M2437.046,1427.5a5.137,5.137,0,0,1,7.74-4.835c.073.044.145.089.217.135,5.327,3.429,16.823,19.43,17.613,21.033s3.126,14.355,3.126,14.355-2.885,1.056-4.234-.04c0,0-4.68-12.094-5.372-12.7s-18.719-10.719-18.872-14.511C2437.223,1429.941,2437.143,1428.735,2437.046,1427.5Z" transform="translate(-2437.029 -1421.929)"/></g><g transform="translate(38.59 56.976)"><path class="h" d="M2528.109,1758.409s2.147,1.96,1.729,3.353-2.358,2.321-2.619,4.024-1.31,2.631-2.253,2.631h-4.5s-.695-1.2.982-1.559,2.308-2.362,2.2-4.219a32.69,32.69,0,0,1,.157-4.333l3.563-.825Z" transform="translate(-2489.131 -1696.282)"/><path class="h" d="M2426.465,1773.789s.385,4.461-.558,4.925l-12.069-.025s0-1.393,1.938-1.7,5.344-1.445,5.92-3.972S2426.465,1773.789,2426.465,1773.789Z" transform="translate(-2413.839 -1706.592)"/><path class="w" d="M2422.158,1560.233s.636,7.82,1.385,17.22c1.017,12.769,2.24,28.454,2.361,31.425.209,5.16,1.048,13.413,1.048,13.413s1.99,1.961,5.972,1.134a133.163,133.163,0,0,0,4.563-24.247c.016-.2.032-.411.047-.616.943-12.69,2.409-39.412,2.409-39.412Z" transform="translate(-2419.721 -1556.055)"/><path class="x" d="M2422.158,1560.233s.636,7.82,1.385,17.22l13.944,21.725c.016-.2.032-.411.047-.616.943-12.69,2.409-39.412,2.409-39.412Z" transform="translate(-2419.721 -1556.055)"/><path class="w" d="M2432.08,1553.692s11.473,28.321,19.018,41.63,9.9,17.023,9.9,17.023,4.323-1.7,4.715-2.863c0,0-2.885-25.694-7.937-31.958-2.854-3.539-6.208-14.16-6.365-17.874s-1.022-11.065-1.022-11.065Z" transform="translate(-2426.736 -1548.585)"/></g><path class="g" d="M2436.432,1398.494s-7.687,3.9-12.19,2.6a10.566,10.566,0,0,1,2.981-2.483c-.173-.9-.309-1.672-.391-2.332a21.6,21.6,0,0,1-.237-2.386l2.948-2.415,2.795-2.31A11.445,11.445,0,0,0,2436.432,1398.494Z" transform="translate(-2382.604 -1378.894)"/><path class="n" d="M2434.71,1454.812a31.663,31.663,0,0,1-9.481,4.084c-4.056.962-9.041.678-10.709.932a.691.691,0,0,1-.486-.123c-.131-.067-.867-5.015-1.6-11.259-.033-.251-.067-.505-.081-.759l-.011-.084c-.287-2.441-.538-5.006-.756-7.576-.177-2-.324-3.978-.426-5.836-.128-2.324-.181-4.46-.128-6.217.023-.8.07-1.524.142-2.151a15.306,15.306,0,0,1,3.818-8.195l1.359-1.546a7.453,7.453,0,0,0,4.7-1.2c1.66-1.093,3.451-2.268,3.79-2.072,2.544,1.392,4.616,5,6.1,9.763a54.373,54.373,0,0,1,1.916,9.149c.134,1.023.248,2.072.335,3.116.017.193.031.386.047.577.2,2.856.526,5.532.887,7.922.486,3.224,1.04,5.923,1.431,7.825.2.968.346,1.716.435,2.252C2436.064,1453.882,2435.128,1454.552,2434.71,1454.812Z" transform="translate(-2373.247 -1395.596)"/><path class="m" d="M2438.118,1397.164a10.289,10.289,0,0,1-5.605,4.688,21.653,21.653,0,0,1-.237-2.386l2.948-2.415Z" transform="translate(-2388.285 -1384.47)"/><path class="g" d="M2423.854,1375.778s7.428,1.065,8.033-3.5,1.971-7.5-2.746-8.376-5.871.752-6.449,2.227S2421.937,1375.384,2423.854,1375.778Z" transform="translate(-2381.23 -1360.857)"/><path class="f" d="M2428.349,1356.5c.066-.078.22-.144.564-.169a1.4,1.4,0,0,0-.648-.169,1.736,1.736,0,0,0-1.184-1.512,1.036,1.036,0,0,1,.516.737c-.976-.963-3.039-1.637-8.7-1.077-7.467.739-4.907,5.478-3.927,6.029s3.385-1.062,5.192-.954,2.2,2.707,2.82,3.053.366-.282,1.187-.673.927.98.705,1.876.939,2.051.939,2.051l1.125-1.261c1.125-1.261,2.1-6.527,1.56-7.634C2428.446,1356.7,2428.4,1356.6,2428.349,1356.5Z" transform="translate(-2375.179 -1354.103)"/><path class="j" d="M2424.059,1465.031s-6.263,4.765-12.9,5.81c-.128-2.324-.181-4.46-.128-6.217Z" transform="translate(-2373.247 -1432.246)"/><g transform="translate(5.49 21.45)"><path class="g" d="M2307.711,1435.175c-.1-.106-1.376-4.375-3.584-4.064-1.441.2-3.8,1.037-3.171,2.936.246.746,4.636,3.318,4.636,3.318Z" transform="translate(-2300.853 -1429.99)"/><path class="v" d="M2357.715,1429.449a5.137,5.137,0,0,1-.538,9.11q-.118.051-.236.1c-5.88,2.359-25.582,2.469-27.347,2.185s-13.515-5.761-13.515-5.761.81-2.964,2.484-3.43c0,0,12.571,3.185,13.464,2.971s19.577-9.057,22.758-6.987C2355.626,1428.183,2356.656,1428.815,2357.715,1429.449Z" transform="translate(-2311.619 -1427.322)"/></g></g><g transform="translate(1933.075 695.632)"><path class="e" d="M2869.865,950.347h-15.683a1.2,1.2,0,0,1-1.2-1.2h0a1.2,1.2,0,0,1,1.2-1.2h15.683a1.2,1.2,0,0,1,1.2,1.2h0A1.2,1.2,0,0,1,2869.865,950.347Z" transform="translate(-2852.983 -947.95)"/><path class="e" d="M2869.865,966.331h-15.683a1.2,1.2,0,0,1-1.2-1.2h0a1.2,1.2,0,0,1,1.2-1.2h15.683a1.2,1.2,0,0,1,1.2,1.2h0A1.2,1.2,0,0,1,2869.865,966.331Z" transform="translate(-2852.983 -959.251)"/><path class="e" d="M2869.865,982.728h-15.683a1.2,1.2,0,0,1-1.2-1.2h0a1.2,1.2,0,0,1,1.2-1.2h15.683a1.2,1.2,0,0,1,1.2,1.2h0A1.2,1.2,0,0,1,2869.865,982.728Z" transform="translate(-2852.983 -970.845)"/></g><path class="e" d="M2607.028,1366.835h-37.336a1.594,1.594,0,0,1-1.589-1.589h0a1.594,1.594,0,0,1,1.589-1.589h37.336a1.594,1.594,0,0,1,1.589,1.589h0A1.594,1.594,0,0,1,2607.028,1366.835Z" transform="translate(-718.486 -546.239)"/><path class="e" d="M1984.049,994.482h-37.336a1.594,1.594,0,0,1-1.589-1.589h0a1.594,1.594,0,0,1,1.589-1.589h37.336a1.594,1.594,0,0,1,1.589,1.589h0A1.594,1.594,0,0,1,1984.049,994.482Z" transform="translate(-278.015 -282.97)"/><path class="e" d="M2607.028,1420.653h-37.336a1.594,1.594,0,0,1-1.589-1.589h0a1.594,1.594,0,0,1,1.589-1.589h37.336a1.594,1.594,0,0,1,1.589,1.589h0A1.594,1.594,0,0,1,2607.028,1420.653Z" transform="translate(-718.486 -584.291)"/><path class="e" d="M2589.365,1393.744H2544.71a1.594,1.594,0,0,1-1.59-1.589h0a1.594,1.594,0,0,1,1.59-1.589h44.655a1.594,1.594,0,0,1,1.589,1.589h0A1.594,1.594,0,0,1,2589.365,1393.744Z" transform="translate(-700.823 -565.265)"/><g transform="translate(1665.697 718.326)"><path class="e" d="M1.589,0H21.9a1.589,1.589,0,0,1,1.589,1.589v0A1.589,1.589,0,0,1,21.9,3.179H1.589A1.589,1.589,0,0,1,0,1.589v0A1.589,1.589,0,0,1,1.589,0Z" transform="translate(6.977 0)"/><path class="e" d="M1940.308,1027a1.589,1.589,0,1,1,1.589,1.589A1.589,1.589,0,0,1,1940.308,1027Z" transform="translate(-1940.308 -1025.415)"/></g><g transform="translate(1665.697 724.651)"><path class="e" d="M1.589,0H26a1.589,1.589,0,0,1,1.589,1.589v0A1.589,1.589,0,0,1,26,3.179H1.589A1.589,1.589,0,0,1,0,1.589v0A1.589,1.589,0,0,1,1.589,0Z" transform="translate(6.977 0)"/><path class="e" d="M1940.308,1048.594a1.589,1.589,0,1,1,1.589,1.589A1.589,1.589,0,0,1,1940.308,1048.594Z" transform="translate(-1940.308 -1047.005)"/></g><g transform="translate(1665.697 731.517)"><path class="e" d="M1.589,0H21.9a1.589,1.589,0,0,1,1.589,1.589v0A1.589,1.589,0,0,1,21.9,3.179H1.589A1.589,1.589,0,0,1,0,1.589v0A1.589,1.589,0,0,1,1.589,0Z" transform="translate(6.977)"/><path class="e" d="M1940.308,1072.03a1.589,1.589,0,1,1,1.589,1.589A1.589,1.589,0,0,1,1940.308,1072.03Z" transform="translate(-1940.308 -1070.441)"/></g><g transform="translate(1721.208 713.905)"><g transform="translate(5.686)"><path class="h" d="M2155.578,1021.484a5.67,5.67,0,0,1-.84.052,5.607,5.607,0,0,1-3.854-9.617h0a5.607,5.607,0,1,1,4.694,9.565Zm-4.048-8.9a4.684,4.684,0,1,0,6.623.076,4.689,4.689,0,0,0-6.623-.076Z" transform="translate(-2149.199 -1010.325)"/></g><rect class="h" width="0.924" height="7.652" transform="translate(7.288 8.87) rotate(45.664)"/><path class="h" d="M2130.025,1055.346h0a.824.824,0,0,1,.014-1.166l3.223-3.15a.825.825,0,0,1,1.166.014h0a.825.825,0,0,1-.014,1.166l-3.223,3.149A.825.825,0,0,1,2130.025,1055.346Z" transform="translate(-2129.79 -1038.94)"/></g><g transform="translate(1892.561 810.136)"><path class="h" d="M2759.506,1472.985h0a1.841,1.841,0,0,1-1.677-1.155l-43.081-131.172a.864.864,0,0,1,.913-1.169h0a1.841,1.841,0,0,1,1.676,1.155l43.081,131.171A.864.864,0,0,1,2759.506,1472.985Z" transform="translate(-2714.693 -1339.289)"/><path class="h" d="M2878.022,1472.3h0a1.841,1.841,0,0,1-1.677-1.155l-43.081-131.172a.864.864,0,0,1,.913-1.169h0a1.841,1.841,0,0,1,1.676,1.155l43.081,131.172A.864.864,0,0,1,2878.022,1472.3Z" transform="translate(-2798.489 -1338.804)"/><path class="h" d="M2770.475,1399.889l-34.866.2a1.745,1.745,0,0,1-1.583-1.09h0a.817.817,0,0,1,.862-1.1l34.866-.2a1.744,1.744,0,0,1,1.583,1.09h0A.817.817,0,0,1,2770.475,1399.889Z" transform="translate(-2728.326 -1380.442)"/><path class="h" d="M2796.15,1478.064l-34.865.2a1.744,1.744,0,0,1-1.583-1.09h0a.818.818,0,0,1,.862-1.1l34.865-.2a1.745,1.745,0,0,1,1.583,1.09h0A.818.818,0,0,1,2796.15,1478.064Z" transform="translate(-2746.479 -1435.715)"/><path class="h" d="M2820.878,1553.356l-34.865.2a1.744,1.744,0,0,1-1.583-1.09h0a.817.817,0,0,1,.862-1.1l34.865-.2a1.744,1.744,0,0,1,1.583,1.09h0A.817.817,0,0,1,2820.878,1553.356Z" transform="translate(-2763.963 -1488.949)"/><path class="h" d="M2848.716,1638.118l-34.865.2a1.744,1.744,0,0,1-1.583-1.09h0a.817.817,0,0,1,.862-1.1l34.865-.2a1.744,1.744,0,0,1,1.583,1.09h0A.817.817,0,0,1,2848.716,1638.118Z" transform="translate(-2783.646 -1548.88)"/><path class="h" d="M2877.854,1726.835l-34.866.2a1.744,1.744,0,0,1-1.583-1.09h0a.817.817,0,0,1,.862-1.1l34.865-.2a1.744,1.744,0,0,1,1.583,1.09h0A.817.817,0,0,1,2877.854,1726.835Z" transform="translate(-2804.248 -1611.606)"/></g><g transform="translate(1884.996 709.922)"><path class="h" d="M2706.948,1129.036h0a.508.508,0,0,1-.593-.4l-.558-2.882a.508.508,0,0,1,.4-.593h0a.507.507,0,0,1,.593.4l.558,2.882A.507.507,0,0,1,2706.948,1129.036Z" transform="translate(-2700.831 -1087.528)"/><rect class="h" width="0.348" height="4.243" transform="matrix(0.982, -0.19, 0.19, 0.982, 4.255, 32.804)"/><path class="g" d="M2693.466,1014.857a13.393,13.393,0,0,0-1.025-3.966,5.4,5.4,0,0,0-3.49-1.64c-.515.5,1.52,2.261,1.6,2.91s-1.033.2-.5,1.467a9.887,9.887,0,0,0,1.938,2.456Z" transform="translate(-2688.868 -1005.566)"/><path class="d" d="M2697.747,1025.57c.959-.752,1.162-.738,1.162-.738s8.866,7.68,9.729,8.364,14.179,4.545,14.179,4.545l2.116,10.824s-18.017-8.7-20.17-10.478c-3.558-2.935-8.047-11.148-8.047-11.148A3.4,3.4,0,0,1,2697.747,1025.57Z" transform="translate(-2694.416 -1016.599)"/><path d="M2760.852,1378.686s-.152,3.7-.863,4.6l-9.882.057a1.546,1.546,0,0,1,1.477-1.5,6.629,6.629,0,0,0,4.8-3.787C2757.484,1375.651,2760.852,1378.686,2760.852,1378.686Z" transform="translate(-2732.166 -1265.686)"/><path d="M2824.916,1377s.689,4.915-.247,5c-.124.011-3.982.074-5.653.1-1.965.033-5.193-.036-5.193-.036a.514.514,0,0,1-.465-.773,2.07,2.07,0,0,1,1.485-.952c1.721-.331,4.589-1.6,5.594-3.9C2821.5,1374.024,2824.916,1377,2824.916,1377Z" transform="translate(-2776.837 -1264.531)"/><path class="y" d="M2769.245,1185.975s2.748,9.615,10.623,26.313,8.216,24.745,8.216,24.745a6.917,6.917,0,0,0,2.774.253,7.458,7.458,0,0,0,2.919-.946s-.51-19.874-4.23-28.3-4.478-31.484-4.478-31.484Z" transform="translate(-2745.698 -1123.872)"/><path class="n" d="M2754.176,1180.471a239.788,239.788,0,0,0,2.357,33.17c2.576,18.281,1.372,26.783,1.372,26.783a5.139,5.139,0,0,0,2.783.489,6.242,6.242,0,0,0,3.718-1.026s3.687-18.287,2.63-27.437,5.049-31.4,5.049-31.4Z" transform="translate(-2735.04 -1126.641)"/><path class="g" d="M2778.57,1043.776l-2.91,2.155-4.206-.885c.058-.383.336-1.973.588-3.413.015-.085.031-.17.045-.253.217-1.225.4-2.277.4-2.277l3.928-1.958,1.464-.73c0,.026-.113,1.36-.128,1.554A12.575,12.575,0,0,0,2778.57,1043.776Z" transform="translate(-2747.26 -1024.788)"/><path class="p" d="M2773.385,1095.206c-.951,4.352-21.316,2.441-21.05-.215.01-.089.063-1.318.136-2.975.155-3.585.39-9.187.42-9.624,0-.008,0-.015,0-.023.367-3.7.719-7.317.741-9.68a33.584,33.584,0,0,1,.678-6.047c.347-1.756.772-3.35,1.141-4.592a5.078,5.078,0,0,1,2.975-3.261,4.409,4.409,0,0,1,.493-.172c2.4-.7,5.713-1.556,6.611-1.293,2.434.716,4.243,5,5.523,10.464C2773.453,1078.012,2774.007,1092.37,2773.385,1095.206Z" transform="translate(-2733.74 -1039.537)"/><path class="m" d="M2778.879,1039.791c-.863,1.651-4.077,3.078-5.417,3.6.016-.085.031-.17.045-.253.217-1.225.4-2.277.4-2.277l3.928-1.958C2778.707,1038.892,2779.235,1039.112,2778.879,1039.791Z" transform="translate(-2748.679 -1026.549)"/><path class="g" d="M2766.34,1016.656s7.086,2.21,8.4-2.224,3.1-7.135-1.364-8.734-5.852-.168-6.649,1.206S2764.531,1015.966,2766.34,1016.656Z" transform="translate(-2743.018 -1002.571)"/><path class="f" d="M2769.125,1000.634s.452,5.16,1.519,4.936,2.035-.39,1.879,1.165-1.636,3.351,1.653,3.627,8.016-8.206,7.113-9.812C2778.682,995.916,2765.357,994.981,2769.125,1000.634Z" transform="translate(-2745.142 -996.728)"/><path class="z" d="M2752.807,1135.217c.155-3.585.39-9.187.42-9.624,0-.008,0-.015,0-.022l12.03-7.193S2765.725,1135.169,2752.807,1135.217Z" transform="translate(-2734.075 -1082.739)"/><path class="g" d="M2705.719,1119.6a31.758,31.758,0,0,0-2.909-1.8,6.115,6.115,0,0,0-2.054-.181c-.071.12-.279.487-.013.611s.6.081.5.167-1.1-.389-1.329.121-.434,2.256.739,2.785,4.068.051,4.276.112C2706.7,1121.934,2705.719,1119.6,2705.719,1119.6Z" transform="translate(-2696.55 -1082.176)"/><path class="d" d="M2718.23,1086.988s11.933,2.029,12.99,1.514c1.688-.822-.655-12.929-.655-12.929a3.482,3.482,0,0,1,3.1-3.391c2.785-.562,5.472,1.524,5.472,1.524s2.444,2.187,2.132,4.612c-.692,5.376-1.769,16.312-5.365,17.988-4.638,2.162-18.059-6-18.059-6a2.347,2.347,0,0,1-.383-1.563A3.646,3.646,0,0,1,2718.23,1086.988Z" transform="translate(-2709.084 -1050.009)"/><path class="g" d="M2690.513,1018.921s-.764-1.518-.886-1.8.176-.224.469-.064.694,1.04,1.148.934C2691.6,1017.9,2690.513,1018.921,2690.513,1018.921Z" transform="translate(-2689.385 -1011.004)"/></g></g></svg>