<svg xmlns="http://www.w3.org/2000/svg" xmlns:xlink="http://www.w3.org/1999/xlink" width="16.975" height="12.853" viewBox="0 0 16.975 12.853">
  <defs>
    <clipPath id="clip-path">
      <rect id="Rectangle_9636" data-name="Rectangle 9636" width="16.975" height="12.853" fill="#de4d02"/>
    </clipPath>
  </defs>
  <g id="Group_15235" data-name="Group 15235" clip-path="url(#clip-path)">
    <path id="Path_51752" data-name="Path 51752" d="M1.074,4.35A.845.845,0,0,1,.066,3.879a.82.82,0,0,1,1.266-.962A.859.859,0,0,1,1.5,4.046L4.927,5.817,8.3,1.631a.8.8,0,0,1-.565-.495A1.138,1.138,0,0,1,7.7.6.789.789,0,0,1,8.529,0,.828.828,0,0,1,9.3.686a.858.858,0,0,1-.618.945c.042.055.08.108.121.159q1.573,1.928,3.146,3.856c.057.069.1.125.206.069q1.638-.831,3.281-1.651a.254.254,0,0,0,.037-.033.788.788,0,0,1-.088-.741,1.122,1.122,0,0,1,.318-.409.785.785,0,0,1,.981.052.816.816,0,0,1,.22.962.851.851,0,0,1-1,.456c-.1.248-.2.5-.3.753q-1.061,2.7-2.118,5.405a.231.231,0,0,1-.261.171q-4.748-.006-9.5,0a.219.219,0,0,1-.241-.173Q2.327,7.524,1.155,4.545C1.13,4.482,1.1,4.42,1.074,4.35" transform="translate(0 0)" fill="#de4d02"/>
    <rect id="Rectangle_9635" data-name="Rectangle 9635" width="9.836" height="1.622" transform="translate(3.571 11.23)" fill="#de4d02"/>
  </g>
</svg>
