<svg xmlns="http://www.w3.org/2000/svg" width="1848.628" height="714.707" viewBox="0 0 1848.628 714.707"><defs><style>.a{opacity:0.4;}.b{fill:#61caff;}.c{opacity:0.24;}.d{fill:#212121;}.e{opacity:0.3;}.f,.j{fill:#e30045;}.g{fill:#444;}.h{opacity:0.5;}.i{fill:#ff61d6;}.j{opacity:0.2;}.k{fill:none;stroke:#444;stroke-miterlimit:10;stroke-width:0.21px;}</style></defs><g transform="translate(139.354 -140.796)"><g class="a" transform="translate(107.983 577.019)"><g transform="translate(0 0)"><path class="b" d="M199.034,426.986a2.764,2.764,0,1,1-2.764-2.764A2.764,2.764,0,0,1,199.034,426.986Z" transform="translate(-193.506 -424.222)"/><path class="b" d="M207.159,426.986a2.764,2.764,0,1,1-2.764-2.764A2.764,2.764,0,0,1,207.159,426.986Z" transform="translate(-184.785 -424.222)"/><path class="b" d="M215.284,426.986a2.764,2.764,0,1,1-2.764-2.764A2.764,2.764,0,0,1,215.284,426.986Z" transform="translate(-176.063 -424.222)"/><path class="b" d="M223.409,426.986a2.764,2.764,0,1,1-2.764-2.764A2.764,2.764,0,0,1,223.409,426.986Z" transform="translate(-167.342 -424.222)"/><path class="b" d="M231.534,426.986a2.764,2.764,0,1,1-2.764-2.764A2.764,2.764,0,0,1,231.534,426.986Z" transform="translate(-158.62 -424.222)"/><path class="b" d="M239.659,426.986a2.764,2.764,0,1,1-2.764-2.764A2.764,2.764,0,0,1,239.659,426.986Z" transform="translate(-149.899 -424.222)"/></g><g transform="translate(0 15.982)"><path class="b" d="M199.034,434.694a2.764,2.764,0,1,1-2.764-2.764A2.765,2.765,0,0,1,199.034,434.694Z" transform="translate(-193.506 -431.93)"/><path class="b" d="M207.159,434.694a2.764,2.764,0,1,1-2.764-2.764A2.765,2.765,0,0,1,207.159,434.694Z" transform="translate(-184.785 -431.93)"/><path class="b" d="M215.284,434.694a2.764,2.764,0,1,1-2.764-2.764A2.765,2.765,0,0,1,215.284,434.694Z" transform="translate(-176.063 -431.93)"/><path class="b" d="M223.409,434.694a2.764,2.764,0,1,1-2.764-2.764A2.765,2.765,0,0,1,223.409,434.694Z" transform="translate(-167.342 -431.93)"/><path class="b" d="M231.534,434.694a2.764,2.764,0,1,1-2.764-2.764A2.765,2.765,0,0,1,231.534,434.694Z" transform="translate(-158.62 -431.93)"/><path class="b" d="M239.659,434.694a2.764,2.764,0,1,1-2.764-2.764A2.765,2.765,0,0,1,239.659,434.694Z" transform="translate(-149.899 -431.93)"/></g><g transform="translate(0 31.964)"><path class="b" d="M199.034,442.4a2.764,2.764,0,1,1-2.764-2.766A2.764,2.764,0,0,1,199.034,442.4Z" transform="translate(-193.506 -439.638)"/><path class="b" d="M207.159,442.4a2.764,2.764,0,1,1-2.764-2.766A2.764,2.764,0,0,1,207.159,442.4Z" transform="translate(-184.785 -439.638)"/><path class="b" d="M215.284,442.4a2.764,2.764,0,1,1-2.764-2.766A2.764,2.764,0,0,1,215.284,442.4Z" transform="translate(-176.063 -439.638)"/><path class="b" d="M223.409,442.4a2.764,2.764,0,1,1-2.764-2.766A2.764,2.764,0,0,1,223.409,442.4Z" transform="translate(-167.342 -439.638)"/><path class="b" d="M231.534,442.4a2.764,2.764,0,1,1-2.764-2.766A2.764,2.764,0,0,1,231.534,442.4Z" transform="translate(-158.62 -439.638)"/><path class="b" d="M239.659,442.4a2.764,2.764,0,1,1-2.764-2.766A2.764,2.764,0,0,1,239.659,442.4Z" transform="translate(-149.899 -439.638)"/></g></g><g class="c"><g transform="translate(-139.354 727.865)"><g transform="translate(0 0)"><path class="d" d="M24.41,479.284a2.765,2.765,0,1,1-2.764,2.766A2.767,2.767,0,0,1,24.41,479.284Z" transform="translate(-21.646 -395.052)"/><path class="d" d="M24.41,471.159a2.765,2.765,0,1,1-2.764,2.766A2.767,2.767,0,0,1,24.41,471.159Z" transform="translate(-21.646 -403.773)"/><path class="d" d="M24.41,463.034a2.765,2.765,0,1,1-2.764,2.766A2.767,2.767,0,0,1,24.41,463.034Z" transform="translate(-21.646 -412.495)"/><path class="d" d="M24.41,454.909a2.765,2.765,0,1,1-2.764,2.766A2.767,2.767,0,0,1,24.41,454.909Z" transform="translate(-21.646 -421.216)"/><path class="d" d="M24.41,446.784a2.765,2.765,0,1,1-2.764,2.766A2.767,2.767,0,0,1,24.41,446.784Z" transform="translate(-21.646 -429.938)"/><path class="d" d="M24.41,438.659a2.765,2.765,0,1,1-2.764,2.766A2.767,2.767,0,0,1,24.41,438.659Z" transform="translate(-21.646 -438.659)"/></g><g transform="translate(15.982 0)"><circle class="d" cx="2.764" cy="2.764" r="2.764" transform="translate(0 84.232)"/><circle class="d" cx="2.764" cy="2.764" r="2.764" transform="translate(0 67.386)"/><circle class="d" cx="2.764" cy="2.764" r="2.764" transform="translate(0 50.539)"/><circle class="d" cx="2.764" cy="2.764" r="2.764" transform="translate(0 33.693)"/><circle class="d" cx="2.764" cy="2.764" r="2.764" transform="translate(0 16.846)"/><circle class="d" cx="2.764" cy="2.764" r="2.764"/></g><g transform="translate(31.966 0)"><path class="d" d="M39.827,479.284a2.765,2.765,0,1,1-2.764,2.766A2.765,2.765,0,0,1,39.827,479.284Z" transform="translate(-37.063 -395.052)"/><path class="d" d="M39.827,471.159a2.765,2.765,0,1,1-2.764,2.766A2.765,2.765,0,0,1,39.827,471.159Z" transform="translate(-37.063 -403.773)"/><path class="d" d="M39.827,463.034a2.765,2.765,0,1,1-2.764,2.766A2.765,2.765,0,0,1,39.827,463.034Z" transform="translate(-37.063 -412.495)"/><path class="d" d="M39.827,454.909a2.765,2.765,0,1,1-2.764,2.766A2.765,2.765,0,0,1,39.827,454.909Z" transform="translate(-37.063 -421.216)"/><path class="d" d="M39.827,446.784a2.765,2.765,0,1,1-2.764,2.766A2.765,2.765,0,0,1,39.827,446.784Z" transform="translate(-37.063 -429.938)"/><path class="d" d="M39.827,438.659a2.765,2.765,0,1,1-2.764,2.766A2.765,2.765,0,0,1,39.827,438.659Z" transform="translate(-37.063 -438.659)"/></g></g><g transform="translate(-91.354 727.865)"><g transform="translate(0 0)"><path class="d" d="M24.41,479.284a2.765,2.765,0,1,1-2.764,2.766A2.767,2.767,0,0,1,24.41,479.284Z" transform="translate(-21.646 -395.052)"/><path class="d" d="M24.41,471.159a2.765,2.765,0,1,1-2.764,2.766A2.767,2.767,0,0,1,24.41,471.159Z" transform="translate(-21.646 -403.773)"/><path class="d" d="M24.41,463.034a2.765,2.765,0,1,1-2.764,2.766A2.767,2.767,0,0,1,24.41,463.034Z" transform="translate(-21.646 -412.495)"/><path class="d" d="M24.41,454.909a2.765,2.765,0,1,1-2.764,2.766A2.767,2.767,0,0,1,24.41,454.909Z" transform="translate(-21.646 -421.216)"/><path class="d" d="M24.41,446.784a2.765,2.765,0,1,1-2.764,2.766A2.767,2.767,0,0,1,24.41,446.784Z" transform="translate(-21.646 -429.938)"/><path class="d" d="M24.41,438.659a2.765,2.765,0,1,1-2.764,2.766A2.767,2.767,0,0,1,24.41,438.659Z" transform="translate(-21.646 -438.659)"/></g><g transform="translate(15.982 0)"><circle class="d" cx="2.764" cy="2.764" r="2.764" transform="translate(0 84.232)"/><circle class="d" cx="2.764" cy="2.764" r="2.764" transform="translate(0 67.386)"/><circle class="d" cx="2.764" cy="2.764" r="2.764" transform="translate(0 50.539)"/><circle class="d" cx="2.764" cy="2.764" r="2.764" transform="translate(0 33.693)"/><circle class="d" cx="2.764" cy="2.764" r="2.764" transform="translate(0 16.846)"/><circle class="d" cx="2.764" cy="2.764" r="2.764"/></g><g transform="translate(31.966 0)"><path class="d" d="M39.827,479.284a2.765,2.765,0,1,1-2.764,2.766A2.765,2.765,0,0,1,39.827,479.284Z" transform="translate(-37.063 -395.052)"/><path class="d" d="M39.827,471.159a2.765,2.765,0,1,1-2.764,2.766A2.765,2.765,0,0,1,39.827,471.159Z" transform="translate(-37.063 -403.773)"/><path class="d" d="M39.827,463.034a2.765,2.765,0,1,1-2.764,2.766A2.765,2.765,0,0,1,39.827,463.034Z" transform="translate(-37.063 -412.495)"/><path class="d" d="M39.827,454.909a2.765,2.765,0,1,1-2.764,2.766A2.765,2.765,0,0,1,39.827,454.909Z" transform="translate(-37.063 -421.216)"/><path class="d" d="M39.827,446.784a2.765,2.765,0,1,1-2.764,2.766A2.765,2.765,0,0,1,39.827,446.784Z" transform="translate(-37.063 -429.938)"/><path class="d" d="M39.827,438.659a2.765,2.765,0,1,1-2.764,2.766A2.765,2.765,0,0,1,39.827,438.659Z" transform="translate(-37.063 -438.659)"/></g></g></g><g class="e" transform="translate(0 -142.464)"><g transform="translate(1619.514 283.26)"><g transform="translate(0 31.966)"><path class="f" d="M775.042,180.632a2.764,2.764,0,1,1,2.764,2.764A2.764,2.764,0,0,1,775.042,180.632Z" transform="translate(-690.81 -177.868)"/><path class="f" d="M766.917,180.632a2.764,2.764,0,1,1,2.764,2.764A2.764,2.764,0,0,1,766.917,180.632Z" transform="translate(-699.531 -177.868)"/><path class="f" d="M758.792,180.632a2.764,2.764,0,1,1,2.764,2.764A2.764,2.764,0,0,1,758.792,180.632Z" transform="translate(-708.253 -177.868)"/><path class="f" d="M750.667,180.632a2.764,2.764,0,1,1,2.764,2.764A2.764,2.764,0,0,1,750.667,180.632Z" transform="translate(-716.974 -177.868)"/><path class="f" d="M742.542,180.632a2.764,2.764,0,1,1,2.764,2.764A2.764,2.764,0,0,1,742.542,180.632Z" transform="translate(-725.696 -177.868)"/><path class="f" d="M734.417,180.632a2.764,2.764,0,1,1,2.764,2.764A2.764,2.764,0,0,1,734.417,180.632Z" transform="translate(-734.417 -177.868)"/></g><g transform="translate(0 15.982)"><path class="f" d="M775.042,172.925a2.764,2.764,0,1,1,2.764,2.764A2.765,2.765,0,0,1,775.042,172.925Z" transform="translate(-690.81 -170.159)"/><path class="f" d="M766.917,172.925a2.764,2.764,0,1,1,2.764,2.764A2.765,2.765,0,0,1,766.917,172.925Z" transform="translate(-699.531 -170.159)"/><path class="f" d="M758.792,172.925a2.764,2.764,0,1,1,2.764,2.764A2.765,2.765,0,0,1,758.792,172.925Z" transform="translate(-708.253 -170.159)"/><path class="f" d="M750.667,172.925a2.764,2.764,0,1,1,2.764,2.764A2.765,2.765,0,0,1,750.667,172.925Z" transform="translate(-716.974 -170.159)"/><path class="f" d="M742.542,172.925a2.764,2.764,0,1,1,2.764,2.764A2.765,2.765,0,0,1,742.542,172.925Z" transform="translate(-725.696 -170.159)"/><path class="f" d="M734.417,172.925a2.764,2.764,0,1,1,2.764,2.764A2.765,2.765,0,0,1,734.417,172.925Z" transform="translate(-734.417 -170.159)"/></g><path class="f" d="M775.042,165.215a2.764,2.764,0,1,1,2.764,2.766A2.764,2.764,0,0,1,775.042,165.215Z" transform="translate(-690.81 -162.451)"/><path class="f" d="M766.917,165.215a2.764,2.764,0,1,1,2.764,2.766A2.764,2.764,0,0,1,766.917,165.215Z" transform="translate(-699.531 -162.451)"/><path class="f" d="M758.792,165.215a2.764,2.764,0,1,1,2.764,2.766A2.764,2.764,0,0,1,758.792,165.215Z" transform="translate(-708.253 -162.451)"/><path class="f" d="M750.667,165.215a2.764,2.764,0,1,1,2.764,2.766A2.764,2.764,0,0,1,750.667,165.215Z" transform="translate(-716.974 -162.451)"/><path class="f" d="M742.542,165.215a2.764,2.764,0,1,1,2.764,2.766A2.764,2.764,0,0,1,742.542,165.215Z" transform="translate(-725.696 -162.451)"/><path class="f" d="M734.417,165.215a2.764,2.764,0,1,1,2.764,2.766A2.764,2.764,0,0,1,734.417,165.215Z" transform="translate(-734.417 -162.451)"/></g><g transform="translate(1619.514 328.26)"><g transform="translate(0 31.966)"><path class="f" d="M775.042,180.632a2.764,2.764,0,1,1,2.764,2.764A2.764,2.764,0,0,1,775.042,180.632Z" transform="translate(-690.81 -177.868)"/><path class="f" d="M766.917,180.632a2.764,2.764,0,1,1,2.764,2.764A2.764,2.764,0,0,1,766.917,180.632Z" transform="translate(-699.531 -177.868)"/><path class="f" d="M758.792,180.632a2.764,2.764,0,1,1,2.764,2.764A2.764,2.764,0,0,1,758.792,180.632Z" transform="translate(-708.253 -177.868)"/><path class="f" d="M750.667,180.632a2.764,2.764,0,1,1,2.764,2.764A2.764,2.764,0,0,1,750.667,180.632Z" transform="translate(-716.974 -177.868)"/><path class="f" d="M742.542,180.632a2.764,2.764,0,1,1,2.764,2.764A2.764,2.764,0,0,1,742.542,180.632Z" transform="translate(-725.696 -177.868)"/><path class="f" d="M734.417,180.632a2.764,2.764,0,1,1,2.764,2.764A2.764,2.764,0,0,1,734.417,180.632Z" transform="translate(-734.417 -177.868)"/></g><g transform="translate(0 15.982)"><path class="f" d="M775.042,172.925a2.764,2.764,0,1,1,2.764,2.764A2.765,2.765,0,0,1,775.042,172.925Z" transform="translate(-690.81 -170.159)"/><path class="f" d="M766.917,172.925a2.764,2.764,0,1,1,2.764,2.764A2.765,2.765,0,0,1,766.917,172.925Z" transform="translate(-699.531 -170.159)"/><path class="f" d="M758.792,172.925a2.764,2.764,0,1,1,2.764,2.764A2.765,2.765,0,0,1,758.792,172.925Z" transform="translate(-708.253 -170.159)"/><path class="f" d="M750.667,172.925a2.764,2.764,0,1,1,2.764,2.764A2.765,2.765,0,0,1,750.667,172.925Z" transform="translate(-716.974 -170.159)"/><path class="f" d="M742.542,172.925a2.764,2.764,0,1,1,2.764,2.764A2.765,2.765,0,0,1,742.542,172.925Z" transform="translate(-725.696 -170.159)"/><path class="f" d="M734.417,172.925a2.764,2.764,0,1,1,2.764,2.764A2.765,2.765,0,0,1,734.417,172.925Z" transform="translate(-734.417 -170.159)"/></g><path class="f" d="M775.042,165.215a2.764,2.764,0,1,1,2.764,2.766A2.764,2.764,0,0,1,775.042,165.215Z" transform="translate(-690.81 -162.451)"/><path class="f" d="M766.917,165.215a2.764,2.764,0,1,1,2.764,2.766A2.764,2.764,0,0,1,766.917,165.215Z" transform="translate(-699.531 -162.451)"/><path class="f" d="M758.792,165.215a2.764,2.764,0,1,1,2.764,2.766A2.764,2.764,0,0,1,758.792,165.215Z" transform="translate(-708.253 -162.451)"/><path class="f" d="M750.667,165.215a2.764,2.764,0,1,1,2.764,2.766A2.764,2.764,0,0,1,750.667,165.215Z" transform="translate(-716.974 -162.451)"/><path class="f" d="M742.542,165.215a2.764,2.764,0,1,1,2.764,2.766A2.764,2.764,0,0,1,742.542,165.215Z" transform="translate(-725.696 -162.451)"/><path class="f" d="M734.417,165.215a2.764,2.764,0,1,1,2.764,2.766A2.764,2.764,0,0,1,734.417,165.215Z" transform="translate(-734.417 -162.451)"/></g></g><g class="e" transform="translate(1578.034 148.767)"><rect class="g" width="4.535" height="4.535"/><rect class="g" width="4.535" height="4.535" transform="translate(0 32.005)"/><rect class="g" width="4.535" height="4.535" transform="translate(0 64.009)"/><rect class="g" width="4.535" height="4.535" transform="translate(0 96.014)"/><rect class="g" width="4.535" height="4.535" transform="translate(0 128.018)"/></g><g class="h" transform="translate(-0.168 659.095)"><rect class="f" width="4.535" height="4.535"/><rect class="f" width="4.535" height="4.535" transform="translate(0 32.005)"/><rect class="f" width="4.535" height="4.535" transform="translate(0 64.009)"/><rect class="f" width="4.535" height="4.535" transform="translate(0 96.014)"/><rect class="f" width="4.535" height="4.535" transform="translate(0 128.018)"/></g><g class="a" transform="translate(1499.673 749.955)"><rect class="i" width="22.791" height="7.795" transform="translate(0 7.498)"/><rect class="i" width="22.792" height="7.795" transform="translate(7.498 22.792) rotate(-90)"/></g><g class="a" transform="translate(92.997 324.56) rotate(45)"><rect class="b" width="10.733" height="3.671" transform="translate(0 3.531)"/><rect class="b" width="10.733" height="3.671" transform="translate(3.531 10.733) rotate(-90)"/></g><path class="j" d="M135.692,352.86h-4.729v-4.729h-4.916v4.729h-4.729v4.916h4.729V362.5h4.916v-4.729h4.729Z" transform="translate(-83.802 257.954)"/><g transform="translate(-7.759 727.865)"><line class="k" y1="117.053" x2="111.62" transform="translate(0 10.512)"/><line class="k" y1="117.052" x2="111.62" transform="translate(33.55 5.256)"/><line class="k" y1="117.053" x2="111.62" transform="translate(67.099)"/></g></g></svg>