<svg xmlns="http://www.w3.org/2000/svg" width="1743.335" height="347.599" viewBox="0 0 1743.335 347.599">
  <g id="Group_3924" data-name="Group 3924" transform="translate(144 20)">
    <g id="Group_3909" data-name="Group 3909" transform="translate(564.761 266.457)" opacity="0.4">
      <g id="Group_3906" data-name="Group 3906" transform="translate(0 0)">
        <path id="Path_28593" data-name="Path 28593" d="M200.419,427.679a3.457,3.457,0,1,1-3.457-3.457A3.457,3.457,0,0,1,200.419,427.679Z" transform="translate(-193.506 -424.222)" fill="#61caff"/>
        <path id="Path_28594" data-name="Path 28594" d="M208.544,427.679a3.457,3.457,0,1,1-3.456-3.457A3.457,3.457,0,0,1,208.544,427.679Z" transform="translate(-180.563 -424.222)" fill="#61caff"/>
        <path id="Path_28595" data-name="Path 28595" d="M216.669,427.679a3.457,3.457,0,1,1-3.457-3.457A3.457,3.457,0,0,1,216.669,427.679Z" transform="translate(-167.619 -424.222)" fill="#61caff"/>
        <path id="Path_28596" data-name="Path 28596" d="M224.794,427.679a3.457,3.457,0,1,1-3.457-3.457A3.457,3.457,0,0,1,224.794,427.679Z" transform="translate(-154.676 -424.222)" fill="#61caff"/>
        <path id="Path_28597" data-name="Path 28597" d="M232.919,427.679a3.457,3.457,0,1,1-3.456-3.457A3.457,3.457,0,0,1,232.919,427.679Z" transform="translate(-141.732 -424.222)" fill="#61caff"/>
        <path id="Path_28598" data-name="Path 28598" d="M241.044,427.679a3.457,3.457,0,1,1-3.457-3.457A3.457,3.457,0,0,1,241.044,427.679Z" transform="translate(-128.789 -424.222)" fill="#61caff"/>
      </g>
      <g id="Group_3907" data-name="Group 3907" transform="translate(0 19.987)">
        <path id="Path_28599" data-name="Path 28599" d="M200.419,435.387a3.457,3.457,0,1,1-3.457-3.457A3.458,3.458,0,0,1,200.419,435.387Z" transform="translate(-193.506 -431.93)" fill="#61caff"/>
        <path id="Path_28600" data-name="Path 28600" d="M208.544,435.387a3.457,3.457,0,1,1-3.456-3.457A3.458,3.458,0,0,1,208.544,435.387Z" transform="translate(-180.563 -431.93)" fill="#61caff"/>
        <path id="Path_28601" data-name="Path 28601" d="M216.669,435.387a3.457,3.457,0,1,1-3.457-3.457A3.458,3.458,0,0,1,216.669,435.387Z" transform="translate(-167.619 -431.93)" fill="#61caff"/>
        <path id="Path_28602" data-name="Path 28602" d="M224.794,435.387a3.457,3.457,0,1,1-3.457-3.457A3.458,3.458,0,0,1,224.794,435.387Z" transform="translate(-154.676 -431.93)" fill="#61caff"/>
        <path id="Path_28603" data-name="Path 28603" d="M232.919,435.387a3.457,3.457,0,1,1-3.456-3.457A3.458,3.458,0,0,1,232.919,435.387Z" transform="translate(-141.732 -431.93)" fill="#61caff"/>
        <path id="Path_28604" data-name="Path 28604" d="M241.044,435.387a3.457,3.457,0,1,1-3.457-3.457A3.458,3.458,0,0,1,241.044,435.387Z" transform="translate(-128.789 -431.93)" fill="#61caff"/>
      </g>
      <g id="Group_3908" data-name="Group 3908" transform="translate(0 39.974)">
        <path id="Path_28605" data-name="Path 28605" d="M200.419,443.1a3.457,3.457,0,1,1-3.457-3.459A3.457,3.457,0,0,1,200.419,443.1Z" transform="translate(-193.506 -439.638)" fill="#61caff"/>
        <path id="Path_28606" data-name="Path 28606" d="M208.544,443.1a3.457,3.457,0,1,1-3.456-3.459A3.457,3.457,0,0,1,208.544,443.1Z" transform="translate(-180.563 -439.638)" fill="#61caff"/>
        <path id="Path_28607" data-name="Path 28607" d="M216.669,443.1a3.457,3.457,0,1,1-3.457-3.459A3.457,3.457,0,0,1,216.669,443.1Z" transform="translate(-167.619 -439.638)" fill="#61caff"/>
        <path id="Path_28608" data-name="Path 28608" d="M224.794,443.1a3.457,3.457,0,1,1-3.457-3.459A3.457,3.457,0,0,1,224.794,443.1Z" transform="translate(-154.676 -439.638)" fill="#61caff"/>
        <path id="Path_28609" data-name="Path 28609" d="M232.919,443.1a3.457,3.457,0,1,1-3.456-3.459A3.457,3.457,0,0,1,232.919,443.1Z" transform="translate(-141.732 -439.638)" fill="#61caff"/>
        <path id="Path_28610" data-name="Path 28610" d="M241.044,443.1a3.457,3.457,0,1,1-3.457-3.459A3.457,3.457,0,0,1,241.044,443.1Z" transform="translate(-128.789 -439.638)" fill="#61caff"/>
      </g>
    </g>
    <g id="Group_3960" data-name="Group 3960" transform="translate(-144 186.838)" opacity="0.24">
      <g id="Group_3913" data-name="Group 3913" transform="translate(0 0)">
        <g id="Group_3910" data-name="Group 3910" transform="translate(0 0)">
          <path id="Path_28611" data-name="Path 28611" d="M25.1,479.284a3.458,3.458,0,1,1-3.457,3.459A3.46,3.46,0,0,1,25.1,479.284Z" transform="translate(-21.646 -373.942)" fill="#212121"/>
          <path id="Path_28612" data-name="Path 28612" d="M25.1,471.159a3.458,3.458,0,1,1-3.457,3.459A3.46,3.46,0,0,1,25.1,471.159Z" transform="translate(-21.646 -386.885)" fill="#212121"/>
          <path id="Path_28613" data-name="Path 28613" d="M25.1,463.034a3.458,3.458,0,1,1-3.457,3.459A3.46,3.46,0,0,1,25.1,463.034Z" transform="translate(-21.646 -399.829)" fill="#212121"/>
          <path id="Path_28614" data-name="Path 28614" d="M25.1,454.909a3.458,3.458,0,1,1-3.457,3.459A3.46,3.46,0,0,1,25.1,454.909Z" transform="translate(-21.646 -412.772)" fill="#212121"/>
          <path id="Path_28615" data-name="Path 28615" d="M25.1,446.784a3.458,3.458,0,1,1-3.457,3.459A3.46,3.46,0,0,1,25.1,446.784Z" transform="translate(-21.646 -425.716)" fill="#212121"/>
          <path id="Path_28616" data-name="Path 28616" d="M25.1,438.659a3.458,3.458,0,1,1-3.457,3.459A3.46,3.46,0,0,1,25.1,438.659Z" transform="translate(-21.646 -438.659)" fill="#212121"/>
        </g>
        <g id="Group_3911" data-name="Group 3911" transform="translate(19.988 0.001)">
          <ellipse id="Ellipse_683" data-name="Ellipse 683" cx="3.457" cy="3.457" rx="3.457" ry="3.457" transform="translate(0 105.342)" fill="#212121"/>
          <ellipse id="Ellipse_684" data-name="Ellipse 684" cx="3.457" cy="3.457" rx="3.457" ry="3.457" transform="translate(0 84.274)" fill="#212121"/>
          <ellipse id="Ellipse_685" data-name="Ellipse 685" cx="3.457" cy="3.457" rx="3.457" ry="3.457" transform="translate(0 63.205)" fill="#212121"/>
          <ellipse id="Ellipse_686" data-name="Ellipse 686" cx="3.457" cy="3.457" rx="3.457" ry="3.457" transform="translate(0 42.137)" fill="#212121"/>
          <ellipse id="Ellipse_687" data-name="Ellipse 687" cx="3.457" cy="3.457" rx="3.457" ry="3.457" transform="translate(0 21.068)" fill="#212121"/>
          <ellipse id="Ellipse_688" data-name="Ellipse 688" cx="3.457" cy="3.457" rx="3.457" ry="3.457" fill="#212121"/>
        </g>
        <g id="Group_3912" data-name="Group 3912" transform="translate(39.977 0)">
          <path id="Path_28617" data-name="Path 28617" d="M40.52,479.284a3.458,3.458,0,1,1-3.457,3.459A3.458,3.458,0,0,1,40.52,479.284Z" transform="translate(-37.063 -373.942)" fill="#212121"/>
          <path id="Path_28618" data-name="Path 28618" d="M40.52,471.159a3.458,3.458,0,1,1-3.457,3.459A3.458,3.458,0,0,1,40.52,471.159Z" transform="translate(-37.063 -386.885)" fill="#212121"/>
          <path id="Path_28619" data-name="Path 28619" d="M40.52,463.034a3.458,3.458,0,1,1-3.457,3.459A3.458,3.458,0,0,1,40.52,463.034Z" transform="translate(-37.063 -399.829)" fill="#212121"/>
          <path id="Path_28620" data-name="Path 28620" d="M40.52,454.909a3.458,3.458,0,1,1-3.457,3.459A3.458,3.458,0,0,1,40.52,454.909Z" transform="translate(-37.063 -412.772)" fill="#212121"/>
          <path id="Path_28621" data-name="Path 28621" d="M40.52,446.784a3.458,3.458,0,1,1-3.457,3.459A3.458,3.458,0,0,1,40.52,446.784Z" transform="translate(-37.063 -425.716)" fill="#212121"/>
          <path id="Path_28622" data-name="Path 28622" d="M40.52,438.659a3.458,3.458,0,1,1-3.457,3.459A3.458,3.458,0,0,1,40.52,438.659Z" transform="translate(-37.063 -438.659)" fill="#212121"/>
        </g>
      </g>
      <g id="Group_3959" data-name="Group 3959" transform="translate(60.03 0)">
        <g id="Group_3910-2" data-name="Group 3910" transform="translate(0 0)">
          <path id="Path_28611-2" data-name="Path 28611" d="M25.1,479.284a3.458,3.458,0,1,1-3.457,3.459A3.46,3.46,0,0,1,25.1,479.284Z" transform="translate(-21.646 -373.942)" fill="#212121"/>
          <path id="Path_28612-2" data-name="Path 28612" d="M25.1,471.159a3.458,3.458,0,1,1-3.457,3.459A3.46,3.46,0,0,1,25.1,471.159Z" transform="translate(-21.646 -386.885)" fill="#212121"/>
          <path id="Path_28613-2" data-name="Path 28613" d="M25.1,463.034a3.458,3.458,0,1,1-3.457,3.459A3.46,3.46,0,0,1,25.1,463.034Z" transform="translate(-21.646 -399.829)" fill="#212121"/>
          <path id="Path_28614-2" data-name="Path 28614" d="M25.1,454.909a3.458,3.458,0,1,1-3.457,3.459A3.46,3.46,0,0,1,25.1,454.909Z" transform="translate(-21.646 -412.772)" fill="#212121"/>
          <path id="Path_28615-2" data-name="Path 28615" d="M25.1,446.784a3.458,3.458,0,1,1-3.457,3.459A3.46,3.46,0,0,1,25.1,446.784Z" transform="translate(-21.646 -425.716)" fill="#212121"/>
          <path id="Path_28616-2" data-name="Path 28616" d="M25.1,438.659a3.458,3.458,0,1,1-3.457,3.459A3.46,3.46,0,0,1,25.1,438.659Z" transform="translate(-21.646 -438.659)" fill="#212121"/>
        </g>
        <g id="Group_3911-2" data-name="Group 3911" transform="translate(19.988 0.001)">
          <ellipse id="Ellipse_683-2" data-name="Ellipse 683" cx="3.457" cy="3.457" rx="3.457" ry="3.457" transform="translate(0 105.342)" fill="#212121"/>
          <ellipse id="Ellipse_684-2" data-name="Ellipse 684" cx="3.457" cy="3.457" rx="3.457" ry="3.457" transform="translate(0 84.274)" fill="#212121"/>
          <ellipse id="Ellipse_685-2" data-name="Ellipse 685" cx="3.457" cy="3.457" rx="3.457" ry="3.457" transform="translate(0 63.205)" fill="#212121"/>
          <ellipse id="Ellipse_686-2" data-name="Ellipse 686" cx="3.457" cy="3.457" rx="3.457" ry="3.457" transform="translate(0 42.137)" fill="#212121"/>
          <ellipse id="Ellipse_687-2" data-name="Ellipse 687" cx="3.457" cy="3.457" rx="3.457" ry="3.457" transform="translate(0 21.068)" fill="#212121"/>
          <ellipse id="Ellipse_688-2" data-name="Ellipse 688" cx="3.457" cy="3.457" rx="3.457" ry="3.457" fill="#212121"/>
        </g>
        <g id="Group_3912-2" data-name="Group 3912" transform="translate(39.977 0)">
          <path id="Path_28617-2" data-name="Path 28617" d="M40.52,479.284a3.458,3.458,0,1,1-3.457,3.459A3.458,3.458,0,0,1,40.52,479.284Z" transform="translate(-37.063 -373.942)" fill="#212121"/>
          <path id="Path_28618-2" data-name="Path 28618" d="M40.52,471.159a3.458,3.458,0,1,1-3.457,3.459A3.458,3.458,0,0,1,40.52,471.159Z" transform="translate(-37.063 -386.885)" fill="#212121"/>
          <path id="Path_28619-2" data-name="Path 28619" d="M40.52,463.034a3.458,3.458,0,1,1-3.457,3.459A3.458,3.458,0,0,1,40.52,463.034Z" transform="translate(-37.063 -399.829)" fill="#212121"/>
          <path id="Path_28620-2" data-name="Path 28620" d="M40.52,454.909a3.458,3.458,0,1,1-3.457,3.459A3.458,3.458,0,0,1,40.52,454.909Z" transform="translate(-37.063 -412.772)" fill="#212121"/>
          <path id="Path_28621-2" data-name="Path 28621" d="M40.52,446.784a3.458,3.458,0,1,1-3.457,3.459A3.458,3.458,0,0,1,40.52,446.784Z" transform="translate(-37.063 -425.716)" fill="#212121"/>
          <path id="Path_28622-2" data-name="Path 28622" d="M40.52,438.659a3.458,3.458,0,1,1-3.457,3.459A3.458,3.458,0,0,1,40.52,438.659Z" transform="translate(-37.063 -438.659)" fill="#212121"/>
        </g>
      </g>
    </g>
    <g id="Group_3958" data-name="Group 3958" transform="translate(1487.08 -20)" opacity="0.3">
      <g id="Group_3917" data-name="Group 3917">
        <g id="Group_3914" data-name="Group 3914" transform="translate(0 39.977)">
          <path id="Path_28623" data-name="Path 28623" d="M775.042,181.325a3.457,3.457,0,1,1,3.457,3.457A3.457,3.457,0,0,1,775.042,181.325Z" transform="translate(-669.7 -177.868)" fill="#EC0085"/>
          <path id="Path_28624" data-name="Path 28624" d="M766.917,181.325a3.457,3.457,0,1,1,3.456,3.457A3.457,3.457,0,0,1,766.917,181.325Z" transform="translate(-682.643 -177.868)" fill="#EC0085"/>
          <path id="Path_28625" data-name="Path 28625" d="M758.792,181.325a3.457,3.457,0,1,1,3.457,3.457A3.457,3.457,0,0,1,758.792,181.325Z" transform="translate(-695.587 -177.868)" fill="#EC0085"/>
          <path id="Path_28626" data-name="Path 28626" d="M750.667,181.325a3.457,3.457,0,1,1,3.457,3.457A3.457,3.457,0,0,1,750.667,181.325Z" transform="translate(-708.53 -177.868)" fill="#EC0085"/>
          <path id="Path_28627" data-name="Path 28627" d="M742.542,181.325A3.457,3.457,0,1,1,746,184.781,3.457,3.457,0,0,1,742.542,181.325Z" transform="translate(-721.474 -177.868)" fill="#EC0085"/>
          <path id="Path_28628" data-name="Path 28628" d="M734.417,181.325a3.457,3.457,0,1,1,3.457,3.457A3.457,3.457,0,0,1,734.417,181.325Z" transform="translate(-734.417 -177.868)" fill="#EC0085"/>
        </g>
        <g id="Group_3915" data-name="Group 3915" transform="translate(0 19.987)">
          <path id="Path_28629" data-name="Path 28629" d="M775.042,173.618a3.457,3.457,0,1,1,3.457,3.457A3.458,3.458,0,0,1,775.042,173.618Z" transform="translate(-669.7 -170.159)" fill="#EC0085"/>
          <path id="Path_28630" data-name="Path 28630" d="M766.917,173.618a3.457,3.457,0,1,1,3.456,3.457A3.458,3.458,0,0,1,766.917,173.618Z" transform="translate(-682.643 -170.159)" fill="#EC0085"/>
          <path id="Path_28631" data-name="Path 28631" d="M758.792,173.618a3.457,3.457,0,1,1,3.457,3.457A3.458,3.458,0,0,1,758.792,173.618Z" transform="translate(-695.587 -170.159)" fill="#EC0085"/>
          <path id="Path_28632" data-name="Path 28632" d="M750.667,173.618a3.457,3.457,0,1,1,3.457,3.457A3.458,3.458,0,0,1,750.667,173.618Z" transform="translate(-708.53 -170.159)" fill="#EC0085"/>
          <path id="Path_28633" data-name="Path 28633" d="M742.542,173.618A3.457,3.457,0,1,1,746,177.075,3.458,3.458,0,0,1,742.542,173.618Z" transform="translate(-721.474 -170.159)" fill="#EC0085"/>
          <path id="Path_28634" data-name="Path 28634" d="M734.417,173.618a3.457,3.457,0,1,1,3.457,3.457A3.458,3.458,0,0,1,734.417,173.618Z" transform="translate(-734.417 -170.159)" fill="#EC0085"/>
        </g>
        <g id="Group_3916" data-name="Group 3916">
          <path id="Path_28635" data-name="Path 28635" d="M775.042,165.908a3.457,3.457,0,1,1,3.457,3.459A3.457,3.457,0,0,1,775.042,165.908Z" transform="translate(-669.7 -162.451)" fill="#EC0085"/>
          <path id="Path_28636" data-name="Path 28636" d="M766.917,165.908a3.457,3.457,0,1,1,3.456,3.459A3.457,3.457,0,0,1,766.917,165.908Z" transform="translate(-682.643 -162.451)" fill="#EC0085"/>
          <path id="Path_28637" data-name="Path 28637" d="M758.792,165.908a3.457,3.457,0,1,1,3.457,3.459A3.457,3.457,0,0,1,758.792,165.908Z" transform="translate(-695.587 -162.451)" fill="#EC0085"/>
          <path id="Path_28638" data-name="Path 28638" d="M750.667,165.908a3.457,3.457,0,1,1,3.457,3.459A3.457,3.457,0,0,1,750.667,165.908Z" transform="translate(-708.53 -162.451)" fill="#EC0085"/>
          <path id="Path_28639" data-name="Path 28639" d="M742.542,165.908A3.457,3.457,0,1,1,746,169.367,3.457,3.457,0,0,1,742.542,165.908Z" transform="translate(-721.474 -162.451)" fill="#EC0085"/>
          <path id="Path_28640" data-name="Path 28640" d="M734.417,165.908a3.457,3.457,0,1,1,3.457,3.459A3.457,3.457,0,0,1,734.417,165.908Z" transform="translate(-734.417 -162.451)" fill="#EC0085"/>
        </g>
      </g>
      <g id="Group_3957" data-name="Group 3957" transform="translate(0 56.278)">
        <g id="Group_3914-2" data-name="Group 3914" transform="translate(0 39.977)">
          <path id="Path_28623-2" data-name="Path 28623" d="M775.042,181.325a3.457,3.457,0,1,1,3.457,3.457A3.457,3.457,0,0,1,775.042,181.325Z" transform="translate(-669.7 -177.868)" fill="#EC0085"/>
          <path id="Path_28624-2" data-name="Path 28624" d="M766.917,181.325a3.457,3.457,0,1,1,3.456,3.457A3.457,3.457,0,0,1,766.917,181.325Z" transform="translate(-682.643 -177.868)" fill="#EC0085"/>
          <path id="Path_28625-2" data-name="Path 28625" d="M758.792,181.325a3.457,3.457,0,1,1,3.457,3.457A3.457,3.457,0,0,1,758.792,181.325Z" transform="translate(-695.587 -177.868)" fill="#EC0085"/>
          <path id="Path_28626-2" data-name="Path 28626" d="M750.667,181.325a3.457,3.457,0,1,1,3.457,3.457A3.457,3.457,0,0,1,750.667,181.325Z" transform="translate(-708.53 -177.868)" fill="#EC0085"/>
          <path id="Path_28627-2" data-name="Path 28627" d="M742.542,181.325A3.457,3.457,0,1,1,746,184.781,3.457,3.457,0,0,1,742.542,181.325Z" transform="translate(-721.474 -177.868)" fill="#EC0085"/>
          <path id="Path_28628-2" data-name="Path 28628" d="M734.417,181.325a3.457,3.457,0,1,1,3.457,3.457A3.457,3.457,0,0,1,734.417,181.325Z" transform="translate(-734.417 -177.868)" fill="#EC0085"/>
        </g>
        <g id="Group_3915-2" data-name="Group 3915" transform="translate(0 19.987)">
          <path id="Path_28629-2" data-name="Path 28629" d="M775.042,173.618a3.457,3.457,0,1,1,3.457,3.457A3.458,3.458,0,0,1,775.042,173.618Z" transform="translate(-669.7 -170.159)" fill="#EC0085"/>
          <path id="Path_28630-2" data-name="Path 28630" d="M766.917,173.618a3.457,3.457,0,1,1,3.456,3.457A3.458,3.458,0,0,1,766.917,173.618Z" transform="translate(-682.643 -170.159)" fill="#EC0085"/>
          <path id="Path_28631-2" data-name="Path 28631" d="M758.792,173.618a3.457,3.457,0,1,1,3.457,3.457A3.458,3.458,0,0,1,758.792,173.618Z" transform="translate(-695.587 -170.159)" fill="#EC0085"/>
          <path id="Path_28632-2" data-name="Path 28632" d="M750.667,173.618a3.457,3.457,0,1,1,3.457,3.457A3.458,3.458,0,0,1,750.667,173.618Z" transform="translate(-708.53 -170.159)" fill="#EC0085"/>
          <path id="Path_28633-2" data-name="Path 28633" d="M742.542,173.618A3.457,3.457,0,1,1,746,177.075,3.458,3.458,0,0,1,742.542,173.618Z" transform="translate(-721.474 -170.159)" fill="#EC0085"/>
          <path id="Path_28634-2" data-name="Path 28634" d="M734.417,173.618a3.457,3.457,0,1,1,3.457,3.457A3.458,3.458,0,0,1,734.417,173.618Z" transform="translate(-734.417 -170.159)" fill="#EC0085"/>
        </g>
        <g id="Group_3916-2" data-name="Group 3916">
          <path id="Path_28635-2" data-name="Path 28635" d="M775.042,165.908a3.457,3.457,0,1,1,3.457,3.459A3.457,3.457,0,0,1,775.042,165.908Z" transform="translate(-669.7 -162.451)" fill="#EC0085"/>
          <path id="Path_28636-2" data-name="Path 28636" d="M766.917,165.908a3.457,3.457,0,1,1,3.456,3.459A3.457,3.457,0,0,1,766.917,165.908Z" transform="translate(-682.643 -162.451)" fill="#EC0085"/>
          <path id="Path_28637-2" data-name="Path 28637" d="M758.792,165.908a3.457,3.457,0,1,1,3.457,3.459A3.457,3.457,0,0,1,758.792,165.908Z" transform="translate(-695.587 -162.451)" fill="#EC0085"/>
          <path id="Path_28638-2" data-name="Path 28638" d="M750.667,165.908a3.457,3.457,0,1,1,3.457,3.459A3.457,3.457,0,0,1,750.667,165.908Z" transform="translate(-708.53 -162.451)" fill="#EC0085"/>
          <path id="Path_28639-2" data-name="Path 28639" d="M742.542,165.908A3.457,3.457,0,1,1,746,169.367,3.457,3.457,0,0,1,742.542,165.908Z" transform="translate(-721.474 -162.451)" fill="#EC0085"/>
          <path id="Path_28640-2" data-name="Path 28640" d="M734.417,165.908a3.457,3.457,0,1,1,3.457,3.459A3.457,3.457,0,0,1,734.417,165.908Z" transform="translate(-734.417 -162.451)" fill="#EC0085"/>
        </g>
      </g>
    </g>
    <g id="Group_3918" data-name="Group 3918" transform="translate(1283.929 133.323)" opacity="0.3">
      <rect id="Rectangle_2783" data-name="Rectangle 2783" width="5.671" height="5.671" fill="#444"/>
      <rect id="Rectangle_2784" data-name="Rectangle 2784" width="5.671" height="5.671" transform="translate(0 40.025)" fill="#444"/>
      <rect id="Rectangle_2785" data-name="Rectangle 2785" width="5.671" height="5.671" transform="translate(0 80.051)" fill="#444"/>
      <rect id="Rectangle_2786" data-name="Rectangle 2786" width="5.671" height="5.671" transform="translate(0 120.076)" fill="#444"/>
      <rect id="Rectangle_2787" data-name="Rectangle 2787" width="5.671" height="5.671" transform="translate(0 160.102)" fill="#444"/>
    </g>
    <g id="Group_3920" data-name="Group 3920" transform="translate(1338.505 299.096)" opacity="0.4">
      <rect id="Rectangle_2793" data-name="Rectangle 2793" width="28.503" height="9.749" transform="translate(0 9.377)" fill="#ff61d6"/>
      <rect id="Rectangle_2794" data-name="Rectangle 2794" width="28.504" height="9.749" transform="translate(9.377 28.504) rotate(-90)" fill="#ff61d6"/>
    </g>
    <g id="Group_3921" data-name="Group 3921" transform="translate(170.835 199.803) rotate(45)" opacity="0.4">
      <rect id="Rectangle_2795" data-name="Rectangle 2795" width="13.423" height="4.591" transform="translate(0 4.416)" fill="#61caff"/>
      <rect id="Rectangle_2796" data-name="Rectangle 2796" width="13.423" height="4.591" transform="translate(4.416 13.423) rotate(-90)" fill="#61caff"/>
    </g>
    <path id="Path_28641" data-name="Path 28641" d="M139.294,354.045H133.38v-5.914h-6.148v5.914h-5.914v6.148h5.914v5.914h6.148v-5.914h5.914Z" transform="translate(631.702 -283.395)" fill="#EC0085" opacity="0.2"/>
    <g id="Group_3923" data-name="Group 3923" transform="translate(411.258 160.165)">
      <line id="Line_4" data-name="Line 4" y1="146.388" x2="139.594" transform="translate(0 13.147)" fill="none" stroke="#444" stroke-width="0.21"/>
      <line id="Line_5" data-name="Line 5" y1="146.388" x2="139.594" transform="translate(41.958 6.574)" fill="none" stroke="#444" stroke-width="0.21"/>
      <line id="Line_6" data-name="Line 6" y1="146.388" x2="139.594" transform="translate(83.915)" fill="none" stroke="#444" stroke-width="0.21"/>
    </g>
  </g>
</svg>
