<svg xmlns="http://www.w3.org/2000/svg" xmlns:xlink="http://www.w3.org/1999/xlink" width="1619.836" height="641.819" viewBox="0 0 1619.836 641.819"><defs><style>.a{opacity:0.43;}.b,.c,.d,.e,.f,.g,.h{fill:none;}.b,.c,.e,.f,.g,.h{stroke:#e30045;}.b{stroke-linecap:round;stroke-linejoin:round;stroke-dasharray:5 7;}.b,.e{stroke-width:2px;}.c,.d,.e,.f,.g,.h{stroke-miterlimit:10;}.c{stroke-width:3px;}.d{stroke:#fca2bd;stroke-width:5px;}.g{stroke-width:2.056px;opacity:0.4;}.h{stroke-width:1.028px;}.i{filter:url(#o);}.j{filter:url(#m);}.k{filter:url(#k);}.l{filter:url(#i);}.m{filter:url(#g);}.n{filter:url(#e);}.o{filter:url(#c);}.p{filter:url(#a);}</style><filter id="a" x="1238.331" y="153.435" width="46.497" height="49.668" filterUnits="userSpaceOnUse"><feOffset dx="7" dy="7" input="SourceAlpha"/><feGaussianBlur stdDeviation="4" result="b"/><feFlood flood-color="#7c7900" flood-opacity="0.2"/><feComposite operator="in" in2="b"/><feComposite in="SourceGraphic"/></filter><filter id="c" x="1071.991" y="548.686" width="43.695" height="46.742" filterUnits="userSpaceOnUse"><feOffset dx="7" dy="7" input="SourceAlpha"/><feGaussianBlur stdDeviation="4" result="d"/><feFlood flood-color="#7c7900" flood-opacity="0.2"/><feComposite operator="in" in2="d"/><feComposite in="SourceGraphic"/></filter><filter id="e" x="0" y="0" width="55.76" height="60.848" filterUnits="userSpaceOnUse"><feOffset dx="6.67" dy="6.67" input="SourceAlpha"/><feGaussianBlur stdDeviation="3.811" result="f"/><feFlood flood-color="#7c7900" flood-opacity="0.2"/><feComposite operator="in" in2="f"/><feComposite in="SourceGraphic"/></filter><filter id="g" x="1355.526" y="595.077" width="43.695" height="46.742" filterUnits="userSpaceOnUse"><feOffset dx="7" dy="7" input="SourceAlpha"/><feGaussianBlur stdDeviation="4" result="h"/><feFlood flood-color="#7c7900" flood-opacity="0.2"/><feComposite operator="in" in2="h"/><feComposite in="SourceGraphic"/></filter><filter id="i" x="1316.912" y="158.426" width="35.858" height="37.693" filterUnits="userSpaceOnUse"><feOffset dx="7" dy="7" input="SourceAlpha"/><feGaussianBlur stdDeviation="4" result="j"/><feFlood flood-color="#7c7900" flood-opacity="0.2"/><feComposite operator="in" in2="j"/><feComposite in="SourceGraphic"/></filter><filter id="k" x="1584.978" y="285.357" width="34.858" height="36.538" filterUnits="userSpaceOnUse"><feOffset dx="7" dy="7" input="SourceAlpha"/><feGaussianBlur stdDeviation="4" result="l"/><feFlood flood-color="#7c7900" flood-opacity="0.2"/><feComposite operator="in" in2="l"/><feComposite in="SourceGraphic"/></filter><filter id="m" x="1515.876" y="150.018" width="71.678" height="75.132" filterUnits="userSpaceOnUse"><feOffset dx="14.394" dy="14.394" input="SourceAlpha"/><feGaussianBlur stdDeviation="8.225" result="n"/><feFlood flood-color="#7c7900" flood-opacity="0.2"/><feComposite operator="in" in2="n"/><feComposite in="SourceGraphic"/></filter><filter id="o" x="895.996" y="351.646" width="35.839" height="37.566" filterUnits="userSpaceOnUse"><feOffset dx="7.197" dy="7.197" input="SourceAlpha"/><feGaussianBlur stdDeviation="4.113" result="p"/><feFlood flood-color="#7c7900" flood-opacity="0.2"/><feComposite operator="in" in2="p"/><feComposite in="SourceGraphic"/></filter></defs><g class="a" transform="translate(870.556 141.023)"><g class="p" transform="matrix(1, 0, 0, 1, -870.56, -141.02)"><path class="b" d="M373.776,24.329V36.163l10.248,5.917,10.248-5.917V24.329l-10.248-5.917Z" transform="translate(870.56 141.02)"/></g><g class="o" transform="matrix(1, 0, 0, 1, -870.56, -141.02)"><path class="c" d="M207.935,419.215v9.639l8.348,4.819,8.348-4.819v-9.639l-8.348-4.819Z" transform="translate(870.56 141.02)"/></g><g class="n" transform="matrix(1, 0, 0, 1, -870.56, -141.02)"><path class="d" d="M41.231,135.035v16.1l13.946,8.052,13.946-8.052v-16.1l-13.946-8.052Z" transform="translate(-33.97 -119.33)"/></g><g class="m" transform="matrix(1, 0, 0, 1, -870.56, -141.02)"><path class="c" d="M491.47,465.606v9.639l8.348,4.82,8.348-4.82v-9.639l-8.348-4.819Z" transform="translate(870.56 141.02)"/></g><g class="l" transform="matrix(1, 0, 0, 1, -870.56, -141.02)"><path class="e" d="M452.356,26.4V32.1l4.929,2.846,4.929-2.846V26.4l-4.929-2.846Z" transform="translate(870.56 141.02)"/></g><g class="k" transform="matrix(1, 0, 0, 1, -870.56, -141.02)"><path class="f" d="M719.922,152.758v5.692l4.929,2.846,4.929-2.846v-5.692l-4.929-2.846Z" transform="translate(870.56 141.02)"/></g><g class="j" transform="matrix(1, 0, 0, 1, -870.56, -141.02)"><path class="g" d="M656.63,26.316v11.7l10.136,5.852L676.9,38.02v-11.7l-10.136-5.852Z" transform="translate(870.56 141.02)"/></g><g class="i" transform="matrix(1, 0, 0, 1, -870.56, -141.02)"><path class="h" d="M31.1,219.284v5.852l5.068,2.926,5.068-2.926v-5.852l-5.068-2.926Z" transform="translate(870.56 141.02)"/></g></g></svg>