<svg xmlns="http://www.w3.org/2000/svg" width="452.39" height="403.88" viewBox="0 0 452.39 403.88"><defs><style>.a{opacity:0.08;}.b{fill:#ffb507;}.c{fill:#75af5d;}.d{fill:#93d17c;}.e{fill:#23cba1;}.f{fill:#f56b35;}</style></defs><g transform="translate(-1122.266 -1173.795)"><g class="a" transform="translate(-83.603 9)"><path d="M465.928,366.088a1.09,1.09,0,0,1-1.086-1.08L464.513,317c-.341-4.046-2.579-6.289-6.15-6.289a14.576,14.576,0,0,0-5.509,1.313v-.117l-2.415,1.242a14.407,14.407,0,0,1-6.588,1.642,14.537,14.537,0,0,1-.2-29.073h0a14.457,14.457,0,0,1,6.607,1.551l2.766,1.39-.025-.2a14,14,0,0,0,4.79,1c3.684,0,6.168-2.378,6.486-6.2l-.322-48.035a1.084,1.084,0,0,1,1.078-1.091l48.007-.329c3.381-.283,4.874-1.812,5.553-3.045,1.152-2.085.964-4.919-.577-8.615h.121l-1.245-2.417A14.526,14.526,0,0,1,529.686,198.5a14.6,14.6,0,0,1,14.637,14.437,14.347,14.347,0,0,1-1.551,6.608l-1.2,2.4h.144c-1.386,3.558-1.493,6.411-.317,8.5a6.5,6.5,0,0,0,5.393,3.116l48.035-.321a1.077,1.077,0,0,1,1.05.837c-.007.071-.011.149-.011.228l.327,47.74a2.882,2.882,0,0,1-.407,1.286c-.116.167-.357.509-1.379.516a12.822,12.822,0,0,1-5.463-1.7l-4.421-2.215.007.643a18.965,18.965,0,0,0-4.186-.465,19.213,19.213,0,1,0-.008,38.426,19.658,19.658,0,0,0,4.444-.522v.478l2.407-1.091,1.984-1.017c3.055-1.581,4.814-1.919,5.753-1.926h.03c.694,0,1.314.023,1.476,1.825l.324,47.942.015.121a1.076,1.076,0,0,1-1.04.856l-47.628.326a2.882,2.882,0,0,1-1.29-.408c-.15-.1-.506-.354-.514-1.377a12.737,12.737,0,0,1,1.7-5.461l2.2-4.393h-.635a19.213,19.213,0,1,0-37.432.251l-.463.007,1.071,2.377,1.017,1.984c1.584,3.054,1.923,4.813,1.929,5.754,0,.717.007,1.341-1.827,1.506l-47.828.322Z" transform="translate(1006.147 1183.047)"/><g transform="translate(1231.807 1397.655)"><path d="M397.371,219.74a16.1,16.1,0,0,0,1.845,7.334H399.2c4.551,8.733.909,11.333-2.477,11.667l-47.886.44a2.736,2.736,0,0,0-2.713,2.763l.44,48.007c-.269,3.875-2.806,6.96-11.621,2.569v.013a16.19,16.19,0,1,0,.264,28.823v.013c8.733-4.552,11.332-.909,11.667,2.477l.438,47.886a2.73,2.73,0,0,0,2.5,2.69c.089-.007.174-.028.263-.03l47.727-.438a4.536,4.536,0,0,0,2.24-.744,3.094,3.094,0,0,0,1.172-2.736,14.593,14.593,0,0,0-1.977-6.185l-1.033-1.982.157,0a17.281,17.281,0,0,1-1.111-5.97,17.56,17.56,0,0,1,35.118-.322,17.305,17.305,0,0,1-1,5.99h.145l-.985,2a15.608,15.608,0,0,0-2.005,6.529c.008.81.031,2.862,3.381,3.111l47.964-.44c.091,0,.175.02.265.025a2.728,2.728,0,0,0,2.449-2.735l-.436-47.626a4.547,4.547,0,0,0-.744-2.24,3.1,3.1,0,0,0-2.738-1.172,14.616,14.616,0,0,0-6.183,1.977l-1.982,1.033,0-.155a17.323,17.323,0,0,1-5.97,1.111A17.56,17.56,0,0,1,464.2,288.3a17.274,17.274,0,0,1,5.99,1l0-.144,2,.985a15.593,15.593,0,0,0,6.529,2c.808-.007,2.862-.03,3.111-3.379l-.44-47.964v-.1a2.74,2.74,0,0,0-2.764-2.713l-48.007.44c-3.875-.268-6.96-2.806-2.569-11.621h-.013a16.185,16.185,0,1,0-30.669-7.069Z" transform="translate(-311.538 -203.404)"/><path d="M349.173,372.1a1.076,1.076,0,0,1-.858-1.04l-.438-47.884c-.38-3.912-2.85-6.248-6.45-6.248a14.157,14.157,0,0,0-5.219,1.2v-.141l-2.419,1.253a14.329,14.329,0,0,1-6.582,1.657,14.607,14.607,0,0,1-14.67-14.4,14.536,14.536,0,0,1,14.4-14.67h0a14.5,14.5,0,0,1,6.608,1.536l2.761,1.38-.023-.175a14.417,14.417,0,0,0,5.086,1.1c3.655,0,5.911-2.28,6.187-6.258l-.436-48.136a1.081,1.081,0,0,1,1.073-1.094l47.886-.44a6.584,6.584,0,0,0,5.492-3.212c1.136-2.1.987-4.938-.437-8.455h.137l-1.252-2.419a14.381,14.381,0,0,1-1.657-6.583,14.536,14.536,0,1,1,29.071-.268,14.383,14.383,0,0,1-1.536,6.615l-1.194,2.391h.127c-1.5,3.741-1.645,6.592-.46,8.665.7,1.222,2.217,2.726,5.474,2.953l48.136-.436a1.088,1.088,0,0,1,1.094,1.075l.441,48.064c-.132,1.7-.752,1.7-1.471,1.711-.977,0-2.736-.317-5.78-1.832l-4.421-2.172.008.612a19.088,19.088,0,0,0-4.145-.453h-.184a19.212,19.212,0,0,0,.175,38.422h.177a19.131,19.131,0,0,0,4.327-.532l.005.481,2.391-1.089,1.982-1.032a12.717,12.717,0,0,1,5.434-1.79h0c1.027,0,1.268.332,1.387.494a3.045,3.045,0,0,1,.433,1.418l.428,47.486a1.071,1.071,0,0,1-.835,1.053,1.836,1.836,0,0,0-.217-.012l-47.987.44c-1.7-.132-1.706-.754-1.713-1.475-.008-.937.3-2.7,1.832-5.777l2.163-4.388h-.605a19.048,19.048,0,0,0,.458-4.353,19.274,19.274,0,0,0-19.213-19.036h-.175a19.214,19.214,0,0,0-18.5,23.715l-.483,0,1.09,2.392,1.033,1.982a12.736,12.736,0,0,1,1.791,5.434c.01,1.02-.342,1.276-.493,1.387a3.057,3.057,0,0,1-1.422.431l-47.7.433Z" transform="translate(-310.884 -202.751)"/></g><path d="M451.825,254.445l-47.8-3.951c-1.681-.288-1.63-.906-1.571-1.622.078-.939.549-2.667,2.353-5.588l2.576-4.208-.615-.048a19.223,19.223,0,0,0-16.718-24.994c-.536-.045-1.066-.066-1.6-.066A19.317,19.317,0,0,0,369.315,231.6a19.053,19.053,0,0,0,.136,4.353l-.481-.041.868,2.485.846,2.068a12.743,12.743,0,0,1,1.286,5.577c-.084,1.018-.446,1.232-.618,1.336a3.006,3.006,0,0,1-1.453.3l-47.5-3.933-.172,0a1.07,1.07,0,0,1-.756-1.109l3.948-47.726c-.017-3.388-1.8-6.851-6.724-6.851a15.79,15.79,0,0,0-4.662.822v-.109l-2.282.926a14.431,14.431,0,0,1-5.514,1.1q-.59,0-1.194-.05a14.536,14.536,0,0,1-13.289-15.685,14.61,14.61,0,0,1,14.47-13.339q.6,0,1.217.05a14.39,14.39,0,0,1,6.444,2.134l2.523,1.564v-.159a13.289,13.289,0,0,0,5.8,1.647c3.217,0,5.4-2.078,5.988-5.7l3.975-47.972a1.087,1.087,0,0,1,1.078-1l47.818,3.95a6.582,6.582,0,0,0,5.76-2.695c1.334-2,1.437-4.869.316-8.538l.127.008-.992-2.444a14.354,14.354,0,0,1-1.047-6.706A14.609,14.609,0,0,1,399.7,82.521c.4,0,.81.017,1.219.05a14.554,14.554,0,0,1,13.287,15.685,14.388,14.388,0,0,1-2.133,6.445l-1.443,2.326.134.01c-1.812,3.564-2.21,6.372-1.225,8.534.587,1.281,1.959,2.918,5.181,3.441l47.974,3.973a1.085,1.085,0,0,1,.99,1.172l-3.96,47.9c-.271,1.589-.893,1.589-1.266,1.589h0c-.137,0-.26-.012-.357-.018-.936-.078-2.665-.549-5.585-2.353L448.31,168.7l-.05.617a19.015,19.015,0,0,0-4.264-.846q-.8-.067-1.6-.066a19.317,19.317,0,0,0-19.135,17.629,19.232,19.232,0,0,0,17.565,20.731c.534.045,1.068.066,1.6.066a18.958,18.958,0,0,0,2.754-.2l-.04.481,2.485-.868,2.068-.846a14.493,14.493,0,0,1,5.162-1.3c.142,0,.281,0,.413.017,1.018.083,1.242.456,1.336.615a3.045,3.045,0,0,1,.3,1.455l-3.92,47.327a1.072,1.072,0,0,1-.941.974Z" transform="translate(939.162 1115.28)"/><path d="M38.8,169.725a1.067,1.067,0,0,1-.891-1.008l-2.027-47.845c-.5-3.834-2.875-6.036-6.368-6.036a13.65,13.65,0,0,0-5.373,1.334v-.152L21.675,117.4a14.35,14.35,0,0,1-6.524,1.875c-.21.01-.418.013-.627.013a14.536,14.536,0,0,1-.6-29.06c.207-.01.412-.013.615-.013a14.384,14.384,0,0,1,6.044,1.329l2.343,1.073V92.5a15.5,15.5,0,0,0,5.257,1.1c3.779,0,6.125-2.417,6.271-6.466L32.42,39.039a1.091,1.091,0,0,1,1.04-1.131L81.3,35.885a6.582,6.582,0,0,0,5.382-3.393c1.075-2.154.822-5.011-.752-8.513l.129-.008-1.288-2.3A14.367,14.367,0,0,1,82.9,15.152,14.554,14.554,0,0,1,96.81.013C97.02,0,97.229,0,97.437,0a14.515,14.515,0,0,1,13.2,20.58l-1.075,2.343h.119c-1.4,3.832-1.466,6.711-.2,8.759.739,1.2,2.306,2.652,5.568,2.769l48.1-2.03a1.091,1.091,0,0,1,1.128,1.038L166.3,81.482c-.076,1.7-.7,1.729-1.418,1.761l-.184,0A14.467,14.467,0,0,1,159.05,81.6l-4.49-2.029.028.617a18.936,18.936,0,0,0-3.517-.329c-.273,0-.549.007-.823.018a19.212,19.212,0,0,0,.8,38.408c.271,0,.546,0,.82-.017a19.151,19.151,0,0,0,4.3-.676l.018.483,2.359-1.171,1.948-1.1c2.759-1.556,4.444-1.931,5.373-1.969l.172,0c.772,0,1.055.227,1.23.45a3.06,3.06,0,0,1,.481,1.407l2,47.445a1.073,1.073,0,0,1-.8,1.08c-.048,0-.094,0-.144,0l-48.021,2.03c-1.7-.076-1.729-.7-1.759-1.415-.04-.939.213-2.715,1.638-5.834l2.025-4.475-.61.023a19.216,19.216,0,0,0-18.876-22.753c-.271,0-.546.007-.82.018a19.206,19.206,0,0,0-17.708,24.31l-.484.02,1.172,2.358,1.1,1.948c1.557,2.761,1.931,4.446,1.969,5.373.043,1.018-.3,1.285-.445,1.4a3.026,3.026,0,0,1-1.407.483l-47.661,2.012Z" transform="translate(1493.544 1183.795) rotate(14)"/></g><g transform="translate(-108.603 -10)"><path class="b" d="M465.928,366.088a1.09,1.09,0,0,1-1.086-1.08L464.513,317c-.341-4.046-2.579-6.289-6.15-6.289a14.576,14.576,0,0,0-5.509,1.313v-.117l-2.415,1.242a14.407,14.407,0,0,1-6.588,1.642,14.537,14.537,0,0,1-.2-29.073h0a14.457,14.457,0,0,1,6.607,1.551l2.766,1.39-.025-.2a14,14,0,0,0,4.79,1c3.684,0,6.168-2.378,6.486-6.2l-.322-48.035a1.084,1.084,0,0,1,1.078-1.091l48.007-.329c3.381-.283,4.874-1.812,5.553-3.045,1.152-2.085.964-4.919-.577-8.615h.121l-1.245-2.417A14.526,14.526,0,0,1,529.686,198.5a14.6,14.6,0,0,1,14.637,14.437,14.347,14.347,0,0,1-1.551,6.608l-1.2,2.4h.144c-1.386,3.558-1.493,6.411-.317,8.5a6.5,6.5,0,0,0,5.393,3.116l48.035-.321a1.077,1.077,0,0,1,1.05.837c-.007.071-.011.149-.011.228l.327,47.74a2.882,2.882,0,0,1-.407,1.286c-.116.167-.357.509-1.379.516a12.822,12.822,0,0,1-5.463-1.7l-4.421-2.215.007.643a18.965,18.965,0,0,0-4.186-.465,19.213,19.213,0,1,0-.008,38.426,19.658,19.658,0,0,0,4.444-.522v.478l2.407-1.091,1.984-1.017c3.055-1.581,4.814-1.919,5.753-1.926h.03c.694,0,1.314.023,1.476,1.825l.324,47.942.015.121a1.076,1.076,0,0,1-1.04.856l-47.628.326a2.882,2.882,0,0,1-1.29-.408c-.15-.1-.506-.354-.514-1.377a12.737,12.737,0,0,1,1.7-5.461l2.2-4.393h-.635a19.213,19.213,0,1,0-37.432.251l-.463.007,1.071,2.377,1.017,1.984c1.584,3.054,1.923,4.813,1.929,5.754,0,.717.007,1.341-1.827,1.506l-47.828.322Z" transform="translate(997.147 1191.047)"/><g transform="translate(1231.807 1397.655)"><path class="c" d="M397.371,219.74a16.1,16.1,0,0,0,1.845,7.334H399.2c4.551,8.733.909,11.333-2.477,11.667l-47.886.44a2.736,2.736,0,0,0-2.713,2.763l.44,48.007c-.269,3.875-2.806,6.96-11.621,2.569v.013a16.19,16.19,0,1,0,.264,28.823v.013c8.733-4.552,11.332-.909,11.667,2.477l.438,47.886a2.73,2.73,0,0,0,2.5,2.69c.089-.007.174-.028.263-.03l47.727-.438a4.536,4.536,0,0,0,2.24-.744,3.094,3.094,0,0,0,1.172-2.736,14.593,14.593,0,0,0-1.977-6.185l-1.033-1.982.157,0a17.281,17.281,0,0,1-1.111-5.97,17.56,17.56,0,0,1,35.118-.322,17.305,17.305,0,0,1-1,5.99h.145l-.985,2a15.608,15.608,0,0,0-2.005,6.529c.008.81.031,2.862,3.381,3.111l47.964-.44c.091,0,.175.02.265.025a2.728,2.728,0,0,0,2.449-2.735l-.436-47.626a4.547,4.547,0,0,0-.744-2.24,3.1,3.1,0,0,0-2.738-1.172,14.616,14.616,0,0,0-6.183,1.977l-1.982,1.033,0-.155a17.323,17.323,0,0,1-5.97,1.111A17.56,17.56,0,0,1,464.2,288.3a17.274,17.274,0,0,1,5.99,1l0-.144,2,.985a15.593,15.593,0,0,0,6.529,2c.808-.007,2.862-.03,3.111-3.379l-.44-47.964v-.1a2.74,2.74,0,0,0-2.764-2.713l-48.007.44c-3.875-.268-6.96-2.806-2.569-11.621h-.013a16.185,16.185,0,1,0-30.669-7.069Z" transform="translate(-311.538 -203.404)"/><path class="d" d="M349.173,372.1a1.076,1.076,0,0,1-.858-1.04l-.438-47.884c-.38-3.912-2.85-6.248-6.45-6.248a14.157,14.157,0,0,0-5.219,1.2v-.141l-2.419,1.253a14.329,14.329,0,0,1-6.582,1.657,14.607,14.607,0,0,1-14.67-14.4,14.536,14.536,0,0,1,14.4-14.67h0a14.5,14.5,0,0,1,6.608,1.536l2.761,1.38-.023-.175a14.417,14.417,0,0,0,5.086,1.1c3.655,0,5.911-2.28,6.187-6.258l-.436-48.136a1.081,1.081,0,0,1,1.073-1.094l47.886-.44a6.584,6.584,0,0,0,5.492-3.212c1.136-2.1.987-4.938-.437-8.455h.137l-1.252-2.419a14.381,14.381,0,0,1-1.657-6.583,14.536,14.536,0,1,1,29.071-.268,14.383,14.383,0,0,1-1.536,6.615l-1.194,2.391h.127c-1.5,3.741-1.645,6.592-.46,8.665.7,1.222,2.217,2.726,5.474,2.953l48.136-.436a1.088,1.088,0,0,1,1.094,1.075l.441,48.064c-.132,1.7-.752,1.7-1.471,1.711-.977,0-2.736-.317-5.78-1.832l-4.421-2.172.008.612a19.088,19.088,0,0,0-4.145-.453h-.184a19.212,19.212,0,0,0,.175,38.422h.177a19.131,19.131,0,0,0,4.327-.532l.005.481,2.391-1.089,1.982-1.032a12.717,12.717,0,0,1,5.434-1.79h0c1.027,0,1.268.332,1.387.494a3.045,3.045,0,0,1,.433,1.418l.428,47.486a1.071,1.071,0,0,1-.835,1.053,1.836,1.836,0,0,0-.217-.012l-47.987.44c-1.7-.132-1.706-.754-1.713-1.475-.008-.937.3-2.7,1.832-5.777l2.163-4.388h-.605a19.048,19.048,0,0,0,.458-4.353,19.274,19.274,0,0,0-19.213-19.036h-.175a19.214,19.214,0,0,0-18.5,23.715l-.483,0,1.09,2.392,1.033,1.982a12.736,12.736,0,0,1,1.791,5.434c.01,1.02-.342,1.276-.493,1.387a3.057,3.057,0,0,1-1.422.431l-47.7.433Z" transform="translate(-310.884 -202.751)"/></g><path class="e" d="M451.825,254.445l-47.8-3.951c-1.681-.288-1.63-.906-1.571-1.622.078-.939.549-2.667,2.353-5.588l2.576-4.208-.615-.048a19.223,19.223,0,0,0-16.718-24.994c-.536-.045-1.066-.066-1.6-.066A19.317,19.317,0,0,0,369.315,231.6a19.053,19.053,0,0,0,.136,4.353l-.481-.041.868,2.485.846,2.068a12.743,12.743,0,0,1,1.286,5.577c-.084,1.018-.446,1.232-.618,1.336a3.006,3.006,0,0,1-1.453.3l-47.5-3.933-.172,0a1.07,1.07,0,0,1-.756-1.109l3.948-47.726c-.017-3.388-1.8-6.851-6.724-6.851a15.79,15.79,0,0,0-4.662.822v-.109l-2.282.926a14.431,14.431,0,0,1-5.514,1.1q-.59,0-1.194-.05a14.536,14.536,0,0,1-13.289-15.685,14.61,14.61,0,0,1,14.47-13.339q.6,0,1.217.05a14.39,14.39,0,0,1,6.444,2.134l2.523,1.564v-.159a13.289,13.289,0,0,0,5.8,1.647c3.217,0,5.4-2.078,5.988-5.7l3.975-47.972a1.087,1.087,0,0,1,1.078-1l47.818,3.95a6.582,6.582,0,0,0,5.76-2.695c1.334-2,1.437-4.869.316-8.538l.127.008-.992-2.444a14.354,14.354,0,0,1-1.047-6.706A14.609,14.609,0,0,1,399.7,82.521c.4,0,.81.017,1.219.05a14.554,14.554,0,0,1,13.287,15.685,14.388,14.388,0,0,1-2.133,6.445l-1.443,2.326.134.01c-1.812,3.564-2.21,6.372-1.225,8.534.587,1.281,1.959,2.918,5.181,3.441l47.974,3.973a1.085,1.085,0,0,1,.99,1.172l-3.96,47.9c-.271,1.589-.893,1.589-1.266,1.589h0c-.137,0-.26-.012-.357-.018-.936-.078-2.665-.549-5.585-2.353L448.31,168.7l-.05.617a19.015,19.015,0,0,0-4.264-.846q-.8-.067-1.6-.066a19.317,19.317,0,0,0-19.135,17.629,19.232,19.232,0,0,0,17.565,20.731c.534.045,1.068.066,1.6.066a18.958,18.958,0,0,0,2.754-.2l-.04.481,2.485-.868,2.068-.846a14.493,14.493,0,0,1,5.162-1.3c.142,0,.281,0,.413.017,1.018.083,1.242.456,1.336.615a3.045,3.045,0,0,1,.3,1.455l-3.92,47.327a1.072,1.072,0,0,1-.941.974Z" transform="translate(939.162 1115.28)"/><path class="f" d="M38.8,169.725a1.067,1.067,0,0,1-.891-1.008l-2.027-47.845c-.5-3.834-2.875-6.036-6.368-6.036a13.65,13.65,0,0,0-5.373,1.334v-.152L21.675,117.4a14.35,14.35,0,0,1-6.524,1.875c-.21.01-.418.013-.627.013a14.536,14.536,0,0,1-.6-29.06c.207-.01.412-.013.615-.013a14.384,14.384,0,0,1,6.044,1.329l2.343,1.073V92.5a15.5,15.5,0,0,0,5.257,1.1c3.779,0,6.125-2.417,6.271-6.466L32.42,39.039a1.091,1.091,0,0,1,1.04-1.131L81.3,35.885a6.582,6.582,0,0,0,5.382-3.393c1.075-2.154.822-5.011-.752-8.513l.129-.008-1.288-2.3A14.367,14.367,0,0,1,82.9,15.152,14.554,14.554,0,0,1,96.81.013C97.02,0,97.229,0,97.437,0a14.515,14.515,0,0,1,13.2,20.58l-1.075,2.343h.119c-1.4,3.832-1.466,6.711-.2,8.759.739,1.2,2.306,2.652,5.568,2.769l48.1-2.03a1.091,1.091,0,0,1,1.128,1.038L166.3,81.482c-.076,1.7-.7,1.729-1.418,1.761l-.184,0A14.467,14.467,0,0,1,159.05,81.6l-4.49-2.029.028.617a18.936,18.936,0,0,0-3.517-.329c-.273,0-.549.007-.823.018a19.212,19.212,0,0,0,.8,38.408c.271,0,.546,0,.82-.017a19.151,19.151,0,0,0,4.3-.676l.018.483,2.359-1.171,1.948-1.1c2.759-1.556,4.444-1.931,5.373-1.969l.172,0c.772,0,1.055.227,1.23.45a3.06,3.06,0,0,1,.481,1.407l2,47.445a1.073,1.073,0,0,1-.8,1.08c-.048,0-.094,0-.144,0l-48.021,2.03c-1.7-.076-1.729-.7-1.759-1.415-.04-.939.213-2.715,1.638-5.834l2.025-4.475-.61.023a19.216,19.216,0,0,0-18.876-22.753c-.271,0-.546.007-.82.018a19.206,19.206,0,0,0-17.708,24.31l-.484.02,1.172,2.358,1.1,1.948c1.557,2.761,1.931,4.446,1.969,5.373.043,1.018-.3,1.285-.445,1.4a3.026,3.026,0,0,1-1.407.483l-47.661,2.012Z" transform="translate(1486.544 1183.795) rotate(14)"/></g></g></svg>