<svg xmlns="http://www.w3.org/2000/svg" xmlns:xlink="http://www.w3.org/1999/xlink" width="23.265" height="17.615" viewBox="0 0 23.265 17.615">
  <defs>
    <clipPath id="clip-path">
      <rect id="Rectangle_9636" data-name="Rectangle 9636" width="23.265" height="17.615" fill="#555453"/>
    </clipPath>
  </defs>
  <g id="Group_15236" data-name="Group 15236" transform="translate(0 0)">
    <g id="Group_15235" data-name="Group 15235" transform="translate(0 0)" clip-path="url(#clip-path)">
      <path id="Path_51752" data-name="Path 51752" d="M1.472,5.962A1.158,1.158,0,0,1,.09,5.316,1.124,1.124,0,0,1,1.825,4a1.178,1.178,0,0,1,.231,1.547l4.7,2.428L11.38,2.235a1.094,1.094,0,0,1-.775-.678,1.56,1.56,0,0,1-.046-.728A1.081,1.081,0,0,1,11.69,0,1.135,1.135,0,0,1,12.743.94a1.175,1.175,0,0,1-.847,1.3c.058.076.11.148.167.218Q14.218,5.1,16.374,7.738c.078.094.131.171.282.094q2.245-1.139,4.5-2.263a.347.347,0,0,0,.051-.045,1.08,1.08,0,0,1-.12-1.015,1.538,1.538,0,0,1,.436-.56,1.076,1.076,0,0,1,1.344.071,1.118,1.118,0,0,1,.3,1.319,1.166,1.166,0,0,1-1.372.625c-.134.34-.271.685-.407,1.031q-1.454,3.7-2.9,7.408a.317.317,0,0,1-.357.234q-6.507-.008-13.014,0a.3.3,0,0,1-.33-.237q-1.593-4.088-3.2-8.172c-.034-.086-.071-.171-.111-.266" transform="translate(0 0)" fill="#555453"/>
      <rect id="Rectangle_9635" data-name="Rectangle 9635" width="13.48" height="2.223" transform="translate(4.894 15.392)" fill="#555453"/>
    </g>
  </g>
</svg>
