<svg xmlns="http://www.w3.org/2000/svg" width="55.004" height="59.989" viewBox="0 0 55.004 59.989">
  <g id="Group_6896" data-name="Group 6896" transform="translate(0 0)">
    <g id="Group_6897" data-name="Group 6897" transform="translate(0 0)">
      <path id="Path_30980" data-name="Path 30980" d="M54.474,10.329a2.854,2.854,0,0,0-1.839-1.223,5.726,5.726,0,0,0-1.114-.068q-18.8,0-37.6,0Q13.163,7.268,12.406,5.5,11.37,3.079,10.34.658a1,1,0,0,0-1-.658h0Q6.073.009,2.809.005H0V1.231c0,.5,0,.984,0,1.468a.812.812,0,0,0,.229.6A.873.873,0,0,0,.9,3.526H7.493l.166,0c.018.046.038.1.062.153L19.342,31.65c-.249,0-.494,0-.741.009a5.107,5.107,0,0,0-3.384,1.394A5.054,5.054,0,0,0,13.9,38.509a5.124,5.124,0,0,0,4.538,3.363c.536.022,1.073.018,1.609.015l.593,0,7.354,0q11.031.008,22.062.019h0A.83.83,0,0,0,50.955,41c-.007-.315,0-.63,0-.946l0-.3A1.082,1.082,0,0,0,49.624,38.4l-30.278,0c-.309,0-.619,0-.927-.023A1.439,1.439,0,0,1,17.1,37.141a1.655,1.655,0,0,1,.773-1.808,2.648,2.648,0,0,1,1.2-.184l28.648,0c.123,0,.242,0,.362,0a2.836,2.836,0,0,0,2.823-2.3c.1-.405.175-.813.255-1.222l2.675-13.379q.565-2.813,1.118-5.628a3.06,3.06,0,0,0-.477-2.287m-3.093,2.217q-.058.308-.119.611l-.622,3.055q-.513,2.511-1.021,5.023-.653,3.238-1.3,6.476l-.55,2.758c-.078.385-.156.772-.227,1.16q-11.693-.008-23.384,0-.5,0-1.007.016-3.249-7.751-6.514-15.5-.563-1.336-1.138-2.666l-.4-.934ZM.9,2.894Z" transform="translate(0 0)" fill="#ec0036"/>
      <path id="Path_30981" data-name="Path 30981" d="M24.249,54.227a7.4,7.4,0,0,0-.18,14.793h.017a7.276,7.276,0,0,0,7.538-7.367v0a7.355,7.355,0,0,0-7.375-7.421m3.843,7.467A3.806,3.806,0,0,1,26.948,64.4,3.89,3.89,0,0,1,24.2,65.52h-.04a3.9,3.9,0,1,1,.113-7.79,3.791,3.791,0,0,1,2.693,1.128,3.962,3.962,0,0,1,1.129,2.837" transform="translate(-2.802 -9.037)" fill="#544a7e"/>
      <path id="Path_30982" data-name="Path 30982" d="M51.255,54.23h-.1a7.212,7.212,0,0,0-5.316,2.351,7.56,7.56,0,0,0-1.919,5.136,7.391,7.391,0,0,0,2.264,5.3,7.3,7.3,0,0,0,5.084,2.01c.086,0,.172,0,.258,0a7.252,7.252,0,0,0,7.187-7.452v-.02a7.366,7.366,0,0,0-7.455-7.321m-2.69,10.153A3.964,3.964,0,0,1,47.41,61.6,3.772,3.772,0,0,1,48.521,58.9a3.937,3.937,0,0,1,2.8-1.173h.013a3.894,3.894,0,0,1-.036,7.788,3.749,3.749,0,0,1-2.734-1.135" transform="translate(-7.319 -9.038)" fill="#544a7e"/>
    </g>
  </g>
</svg>
