<svg xmlns="http://www.w3.org/2000/svg" width="79.858" height="63.074" viewBox="0 0 79.858 63.074">
  <g id="Group_8070" data-name="Group 8070" transform="translate(56.7 0.699)">
    <g id="Group_8071" data-name="Group 8071" transform="translate(-56)">
      <path id="Path_46341" data-name="Path 46341" d="M71.759,55.636c.042-.061.074-.162.129-.178a.662.662,0,0,0,.44-.426c.083-.188.237-.345.336-.527a.741.741,0,0,0,.087-.338q.011-3.842.012-7.684,0-19.182,0-38.365c0-.167.006-.336-.008-.5-.022-.26.017-.55-.283-.7a.038.038,0,0,1-.017-.022c-.13-.461-.516-.683-.878-.918A.957.957,0,0,0,71.1,5.8c-1.584-.013-3.168-.005-4.752-.006q-7.632-.005-15.265-.012-6.976,0-13.952.008-7.157,0-14.315-.008-4.627,0-9.254,0c-2.079,0-4.156-.009-6.235-.005a.952.952,0,0,0-.733.319,11.554,11.554,0,0,0-.716.962,1.142,1.142,0,0,0-.224.842q0,8.788,0,17.576a2.194,2.194,0,0,1-.331,1.01,2.574,2.574,0,0,1-.806.975,2.482,2.482,0,0,1-2.584.411,3.106,3.106,0,0,1-1.027-.624,3.055,3.055,0,0,1-.647-.98,8.621,8.621,0,0,1-.248-2.817C.012,20.717,0,17.987,0,15.259q0-2.682.011-5.365c0-.817.006-1.636.06-2.451a7.393,7.393,0,0,1,.263-1.6,9.407,9.407,0,0,1,.646-1.5A4.6,4.6,0,0,1,1.6,3.366c.48-.551.992-1.078,1.525-1.579a5.981,5.981,0,0,1,1.047-.762A4.246,4.246,0,0,1,4.906.788C4.992.757,5.183.827,5.14.6A.753.753,0,0,1,5.406.5C5.827.428,6.25.362,6.7.287L6.58.1c.411-.028.8-.075,1.182-.077q4.6-.015,9.2-.016t9.2,0H63.948C65.989,0,68.029,0,70.07,0c.41,0,.821.013,1.228.054a4.687,4.687,0,0,1,.6.181c.279.068.569.1.842.18a7.544,7.544,0,0,1,.747.325c.1.044.21.075.309.124.2.1.387.205.581.307.081.042.17.07.248.119a3.209,3.209,0,0,1,.353.247,8.406,8.406,0,0,1,.709.612c.393.4.786.813,1.137,1.253.3.371.536.788.8,1.188A1.512,1.512,0,0,1,77.7,4.8c.1.225.21.444.3.672a2.014,2.014,0,0,1,.107.4c.077.439.151.877.215,1.318a6.207,6.207,0,0,1,.078.777c.026,1.387.059,2.774.057,4.161,0,2.178-.036,4.357-.043,6.535,0,.977.046,1.955.043,2.932-.006,2.159-.038,4.319-.044,6.479,0,.958.047,1.917.043,2.876-.006,2.169-.037,4.338-.043,6.507,0,.959.046,1.917.043,2.876-.006,2.188-.038,4.375-.044,6.563,0,.949.048,1.9.044,2.848,0,1.415,0,2.831-.071,4.243a9.227,9.227,0,0,1-.373,2.081,12.366,12.366,0,0,1-.682,1.407,5.809,5.809,0,0,1-1.346,1.785,4.878,4.878,0,0,1-1.6,1.183c-.307.119-.609.252-.907.4-.084.04-.138.139-.213.2a.345.345,0,0,1-.152.083c-.256.044-.518.064-.772.121-.532.12-1.06.261-1.591.387a1.688,1.688,0,0,1-.385.047q-4.949,0-9.9-.01-4.711,0-9.422,0H22.9q-4.711,0-9.422,0c-1.426,0-2.852.017-4.278.01a15.488,15.488,0,0,1-3.071-.354,9.016,9.016,0,0,1-1.727-.6,4.886,4.886,0,0,1-1.032-.684,9.923,9.923,0,0,1-1.135-.981,5.736,5.736,0,0,1-1.16-1.582C.87,57.022.61,56.6.411,56.141a2.732,2.732,0,0,1-.125-.654c-.059-.357-.12-.713-.17-1.072a6.856,6.856,0,0,1-.1-.914c-.007-1.955,0-3.91,0-5.864,0-1.555-.018-3.111,0-4.666,0-.5.091-1,.145-1.5a2.566,2.566,0,0,1,.686-1.406.653.653,0,0,1,.114-.121,2.184,2.184,0,0,1,1.27-.594,9.173,9.173,0,0,1,1.554.049,2.1,2.1,0,0,1,.94.548,3.441,3.441,0,0,1,.73.965,2.257,2.257,0,0,1,.2.969c.013,3.334.008,6.669.009,10,0,.791,0,1.583.011,2.375,0,.147-.013.3.191.352.054.014.087.131.118.205a.967.967,0,0,0,.536.609c.074.027.113.143.141.252a3.947,3.947,0,0,0,1.614.24c1.789.005,3.578-.015,5.366-.017q6.245,0,12.49,0H54.318q4.694,0,9.388,0c2.217,0,4.435.023,6.652.014a13.644,13.644,0,0,0,1.434-.152l-.033-.132" transform="translate(0 0)" fill="#fff" stroke="#740087" stroke-width="1.4"/>
      <path id="Path_46342" data-name="Path 46342" d="M31.523,61.807a1.916,1.916,0,0,1,.779-1.752c.947-.956,1.887-1.919,2.835-2.875q1.344-1.355,2.7-2.7c.818-.81,1.651-1.6,2.467-2.416.672-.669,1.325-1.356,1.994-2.029q.775-.779,1.568-1.539a.572.572,0,0,0-.017-.791c-.408-.387-.8-.793-1.195-1.191q-.51-.51-1.02-1.021c-.538-.536-1.075-1.073-1.616-1.606s-1.1-1.069-1.648-1.613c-.516-.518-1.015-1.052-1.529-1.573-.358-.363-.727-.714-1.091-1.071S35,38.888,34.62,38.517s-.74-.728-1.1-1.1a10.1,10.1,0,0,1-1.826-2.04,2.5,2.5,0,0,1-.165-1,5.517,5.517,0,0,1,.02-1,2.355,2.355,0,0,1,.753-1.3,2.666,2.666,0,0,1,1.847-.746,2.194,2.194,0,0,1,1.68.523c1.292,1.227,2.578,2.459,3.848,3.71,1.3,1.284,2.582,2.594,3.878,3.888,1.255,1.254,2.52,2.5,3.778,3.75.935.93,1.885,1.848,2.79,2.807a2.07,2.07,0,0,1,.69,1.21c.028.3.243.589.224.873a2.8,2.8,0,0,1-.539,1.607A36.253,36.253,0,0,1,47.81,52.49q-1.946,1.983-3.919,3.94c-1.227,1.223-2.468,2.431-3.693,3.654-1.159,1.158-2.3,2.336-3.462,3.487a5.119,5.119,0,0,1-1.185.958,2.763,2.763,0,0,1-2.1.249,2.858,2.858,0,0,1-1.773-1.495,2.97,2.97,0,0,1-.151-1.058,4.066,4.066,0,0,1,0-.418" transform="translate(-17.373 -17.279)" fill="#fff" stroke="#740087" stroke-width="1.4"/>
      <path id="Path_46343" data-name="Path 46343" d="M99.9,99.315c-1.723,0-3.446.006-5.169,0-2.133-.009-4.266-.035-6.4-.04-.959,0-1.918.041-2.876.039-2.4-.007-4.807-.043-7.211-.032A4.275,4.275,0,0,1,76.581,99a3.432,3.432,0,0,1-.849-.608,3.019,3.019,0,0,1-.723-1.707,2.033,2.033,0,0,1,.079-.793,2.809,2.809,0,0,1,3.049-2.2q10.971-.022,21.943-.008c1.08,0,2.161.009,3.24.053a3.164,3.164,0,0,1,.822.264,1.909,1.909,0,0,1,.771.52A2.056,2.056,0,0,1,105.632,96c-.009.419,0,.838-.012,1.256a.631.631,0,0,1-.074.321,3.518,3.518,0,0,1-1.208,1.322,3.655,3.655,0,0,1-1.392.358c-1.013.052-2.03.016-3.045.016v.036" transform="translate(-41.364 -51.676)" fill="#fff" stroke="#740087" stroke-width="1.4"/>
    </g>
  </g>
</svg>
