<svg xmlns="http://www.w3.org/2000/svg" width="76.61" height="73.959" viewBox="0 0 76.61 73.959">
  <g id="Group_15195" data-name="Group 15195" transform="translate(6 0.997)">
    <g id="Group_15196" data-name="Group 15196" transform="translate(0 0.003)">
      <path id="Path_51742" data-name="Path 51742" d="M250.278,68.2a.761.761,0,0,0-.761.761V70.44h-53.4V1.525h53.4V45a.761.761,0,0,0,1.522,0V.764A.761.761,0,0,0,250.278,0H195.354a.761.761,0,0,0-.761.761V71.2a.761.761,0,0,0,.761.761h54.924a.761.761,0,0,0,.761-.761V68.965a.761.761,0,0,0-.761-.761" transform="translate(-181.752 -0.003)" fill="#fff" stroke="#fff" stroke-width="2"/>
      <path id="Path_51743" data-name="Path 51743" d="M98.656,60.091a.761.761,0,0,0,0-1.522H94.929a.761.761,0,0,0-.761.761v62.708a.761.761,0,0,0,.761.761h3.727a.761.761,0,1,0,0-1.522H95.69V60.091Z" transform="translate(-89.954 -54.704)" fill="#fff" stroke="#fff" stroke-width="2"/>
      <path id="Path_51744" data-name="Path 51744" d="M4.075,112.715a.761.761,0,1,0,0-1.522H.761a.761.761,0,0,0-.761.761v55.763a.761.761,0,0,0,.761.761H4.075a.761.761,0,1,0,0-1.522H1.522V112.715Z" transform="translate(-5 -103.856)" fill="#fff" stroke="#fff" stroke-width="2"/>
      <rect id="Rectangle_9591" data-name="Rectangle 9591" width="1.522" height="6.475" transform="translate(20.038 57.828)" fill="#fff" stroke="#fff" stroke-width="1"/>
      <rect id="Rectangle_9592" data-name="Rectangle 9592" width="1.522" height="9.108" transform="translate(24.045 55.196)" fill="#fff" stroke="#fff" stroke-width="1"/>
      <rect id="Rectangle_9593" data-name="Rectangle 9593" width="1.522" height="7.326" transform="translate(28.051 56.978)" fill="#fff" stroke="#fff" stroke-width="1"/>
      <rect id="Rectangle_9594" data-name="Rectangle 9594" width="1.522" height="11.553" transform="translate(32.057 52.75)" fill="#fff" stroke="#fff" stroke-width="1"/>
      <rect id="Rectangle_9595" data-name="Rectangle 9595" width="1.522" height="8.024" transform="translate(36.064 56.279)" fill="#fff" stroke="#fff" stroke-width="1"/>
      <rect id="Rectangle_9596" data-name="Rectangle 9596" width="1.522" height="9.736" transform="translate(40.07 54.567)" fill="#fff" stroke="#fff" stroke-width="1"/>
      <rect id="Rectangle_9597" data-name="Rectangle 9597" width="1.522" height="6.475" transform="translate(44.076 57.828)" fill="#fff" stroke="#fff" stroke-width="1"/>
      <rect id="Rectangle_9598" data-name="Rectangle 9598" width="1.522" height="7.5" transform="translate(48.083 56.803)" fill="#fff" stroke="#fff" stroke-width="1"/>
      <path id="Path_51745" data-name="Path 51745" d="M31.376,26.515l5.067,5.164,9.4-9.028" transform="translate(2.984 2.154)" fill="none" stroke="#fff" stroke-width="3"/>
      <g id="Ellipse_1309" data-name="Ellipse 1309" transform="translate(23.198 11.736)" fill="none" stroke="#fff" stroke-width="2.7">
        <circle cx="17.5" cy="17.5" r="17.5" stroke="none"/>
        <circle cx="17.5" cy="17.5" r="16.15" fill="none"/>
      </g>
      <line id="Line_419" data-name="Line 419" x2="16.426" y2="16.426" transform="translate(53.299 40.641)" fill="none" stroke="#fff" stroke-width="2.5"/>
    </g>
  </g>
</svg>
