<svg xmlns="http://www.w3.org/2000/svg" width="17.077" height="17.085" viewBox="0 0 17.077 17.085">
  <g id="Group_6294" data-name="Group 6294" transform="translate(0.704 0.711)">
    <g id="Group_6251" data-name="Group 6251" transform="translate(0 0)">
      <g id="Group_17291" data-name="Group 17291">
        <path id="Path_36038" data-name="Path 36038" d="M2.3,3.8.941,2.574l.053-.139,4.461-.5c-.168,1.52-.33,2.98-.491,4.44l-.118.052-.765-.966a5.286,5.286,0,0,0-1.533,5.65A5.488,5.488,0,0,0,5.255,14.33a5.581,5.581,0,0,0,4.208.408c-.085.775-.144,1.487-.261,2.19-.019.114-.287.25-.45.266a7.635,7.635,0,0,1-5.722-1.6A7.832,7.832,0,0,1,2.062,4.109c.071-.079.132-.167.243-.309" transform="translate(0 -1.567)" fill="#fff" stroke="#27326c" stroke-width="1.4"/>
        <path id="Path_36039" data-name="Path 36039" d="M40.09,13.492,41.446,14.7l-.038.132-4.424.493.5-4.526.987.94a5.339,5.339,0,0,0,1.31-5.906c-1.051-2.664-3.377-3.823-6.8-3.357.079-.739.146-1.466.251-2.189.013-.088.221-.194.349-.212a7.825,7.825,0,0,1,8.835,8.184,7.688,7.688,0,0,1-2.1,4.95c-.052.055-.095.118-.226.284" transform="translate(-26.756 0)" fill="#fff" stroke="#27326c" stroke-width="1.4"/>
      </g>
    </g>
  </g>
</svg>
