<svg xmlns="http://www.w3.org/2000/svg" width="23.156" height="20.069" viewBox="0 0 23.156 20.069"><defs><style>.a{fill:#ff7863;}</style></defs><path class="a" d="M4.772,32.069a.792.792,0,0,1-.177-.02A.773.773,0,0,1,4,31.3c0-7.014.887-12.847,11.578-13.112V12.772a.772.772,0,0,1,1.3-.567l10.034,9.262a.772.772,0,0,1,0,1.134L16.874,31.864a.772.772,0,0,1-1.3-.567V25.9c-7.333.176-8.686,2.881-10.115,5.739a.771.771,0,0,1-.69.427ZM16.35,24.35a.771.771,0,0,1,.772.772v4.412l8.124-7.5-8.124-7.5v4.412a.771.771,0,0,1-.772.772c-8.527,0-10.363,3.3-10.724,8.565C7.225,26.136,9.949,24.35,16.35,24.35Z" transform="translate(-4 -12)"/></svg>