<svg id="Group_6872" data-name="Group 6872" xmlns="http://www.w3.org/2000/svg" xmlns:xlink="http://www.w3.org/1999/xlink" width="15" height="14" viewBox="0 0 12.046 11.239">
  <defs>
    <clipPath id="clip-path">
      <rect id="Rectangle_5535" data-name="Rectangle 5535" width="15" height="14" fill="#e60041"/>
    </clipPath>
  </defs>
  <g id="Group_6312" data-name="Group 6312" clip-path="url(#clip-path)">
    <path id="Path_36041" data-name="Path 36041" d="M12.046,4.188c-.365.395-.726.794-1.1,1.184-.792.837-1.59,1.669-2.382,2.506-.154.162-.316.286-.543.193s-.278-.307-.274-.551c.009-.543,0-1.086,0-1.645a1.028,1.028,0,0,0-.186-.035A18.045,18.045,0,0,0,4,6.046,2.967,2.967,0,0,0,1.511,8.834c-.067.666-.021,1.344-.021,2.017,0,.158.053.367-.145.388-.1.011-.268-.135-.32-.251a10.863,10.863,0,0,1-.99-3.127A.241.241,0,0,0,0,7.789V6.833c.017-.11.039-.219.05-.33A4.559,4.559,0,0,1,.784,4.278,4.62,4.62,0,0,1,3.692,2.5a15.527,15.527,0,0,1,3.67-.261h.391c0-.616,0-1.195,0-1.773,0-.253.11-.441.336-.461A.619.619,0,0,1,8.53.181c1.119,1.156,2.225,2.325,3.333,3.492.068.071.123.156.184.234Z" transform="translate(0 0)" fill="#e60041"/>
  </g>
</svg>
