<svg xmlns="http://www.w3.org/2000/svg" width="87.114" height="68.059" viewBox="0 0 87.114 68.059">
  <g id="Group_7377" data-name="Group 7377" transform="translate(0 0)">
    <g id="Group_7378" data-name="Group 7378" transform="translate(0 0)">
      <path id="Path_41200" data-name="Path 41200" d="M41.542,58.775c-.107-1.253-.2-2.465-.322-3.674-.041-.392.087-.514.462-.5.608.019,1.217.009,1.826.009q16.234,0,32.466.011a6.958,6.958,0,0,0,4.543-1.247,5.892,5.892,0,0,0,2.422-4.843c0-12.739-.034-25.478.007-38.218a6.155,6.155,0,0,0-5.72-6.149c-2.127-.093-4.259-.076-6.389-.077q-29.7-.011-59.4-.007a7.549,7.549,0,0,0-4.295.938,5.969,5.969,0,0,0-2.954,5.268C4.2,22.94,4.247,35.6,4.151,48.25a6.316,6.316,0,0,0,6.359,6.377c2.891-.027,5.783,0,8.674-.015.449,0,.589.107.542.569-.105,1.041-.161,2.087-.224,3.132-.02.322-.114.48-.484.477-2.705-.02-5.411-.046-8.115-.02a10.455,10.455,0,0,1-8.157-3.521,9.781,9.781,0,0,1-2.713-6.7C.01,41.52.017,34.492.015,27.463c0-5.457.026-10.915-.015-16.371a10.672,10.672,0,0,1,2.931-7.8A10.218,10.218,0,0,1,9.867.034C10.255.01,10.644,0,11.033,0L76.32,0a10.382,10.382,0,0,1,8.732,4.325A9.375,9.375,0,0,1,87.072,10q.023,7.958.033,15.915.01,10.848.009,21.694a10.853,10.853,0,0,1-1.438,5.871,10.52,10.52,0,0,1-9.49,5.289q-16.309.02-32.618.006H41.542" transform="translate(0 0)" fill="#fff"/>
      <path id="Path_41201" data-name="Path 41201" d="M37.366,35.638v.453c0,4.7-.021,9.4.013,14.1.009,1.3.173,2.594.275,3.891q.284,3.609.58,7.217c.162,1.988.331,3.975.489,5.963.1,1.3.229,2.592.284,3.891a2.45,2.45,0,0,1-1.933,2.543,2.635,2.635,0,0,1-3.086-2.155c-.157-1.319-.245-2.647-.353-3.971q-.338-4.1-.663-8.21c-.167-2.161-.315-4.323-.472-6.485-.006-.1-.019-.2-.026-.271H30.362c-.007.047-.031.167-.041.289q-.478,6.029-.953,12.059c-.164,2.06-.345,4.118-.513,6.178a2.731,2.731,0,0,1-2.165,2.6,2.445,2.445,0,0,1-2.855-2.161c-.008-1.254.106-2.51.2-3.762.206-2.709.43-5.416.654-8.124.244-2.952.505-5.9.739-8.856.07-.893.1-1.79.1-2.686.008-3.9,0-7.808,0-11.711v-.757c-.728.02-.808.07-.934.635q-1.477,6.612-2.947,13.227a2.2,2.2,0,0,1-1.865,1.96,2.1,2.1,0,0,1-2.254-2.6q.793-3.771,1.633-7.532c.529-2.38,1.1-4.753,1.615-7.136a2.659,2.659,0,0,1,1.992-2.163,42.456,42.456,0,0,1,6.486-1.525c.2-.026.4-.031.606-.038.845-.03,1.266.385,1.178,1.254-.164,1.623-.361,3.243-.567,4.862-.235,1.847-.5,3.692-.742,5.539a.92.92,0,0,0,.033.509c.517.949,1.057,1.885,1.646,2.923.584-1.04,1.122-1.986,1.642-2.941a.737.737,0,0,0,.043-.421c-.32-2.507-.649-5.013-.973-7.521-.125-.974-.286-1.947-.334-2.925a2.564,2.564,0,0,1,.374-1.158c.055-.111.353-.145.537-.14a16.976,16.976,0,0,1,4.385.771c2.753.82,5.486,1.7,8.223,2.579,1.54.492,3.07,1.016,4.6,1.532a8.035,8.035,0,0,1,.928.361,2.043,2.043,0,0,1-1.438,3.823c-1.686-.507-3.358-1.061-5.032-1.61-2.208-.723-4.413-1.459-6.62-2.188-.107-.036-.218-.059-.376-.1" transform="translate(-0.327 -5.71)" fill="#fff"/>
      <path id="Path_41202" data-name="Path 41202" d="M40.491,18.212a7.065,7.065,0,0,1-3.072,5.646,3.737,3.737,0,0,1-4.508.006,6.525,6.525,0,0,1-2.992-6.321,5.275,5.275,0,0,1,10.33-.7,13.687,13.687,0,0,1,.243,1.369" transform="translate(-4.086 -0.395)" fill="#fff"/>
      <path id="Path_41203" data-name="Path 41203" d="M78.589,54.4V52.94q0-10.463-.011-20.926c0-.34.086-.5.451-.49,1.065.016,2.13.021,3.2,0,.373-.006.458.161.454.489-.015.946-.014,1.892-.013,2.838q0,9.3,0,18.6c0,.954-.011.954-.95.954H78.589" transform="translate(-14.593 -5.854)" fill="#fff"/>
      <path id="Path_41204" data-name="Path 41204" d="M71.1,39.351h4.014a3.585,3.585,0,0,1,.046.4q0,7.7,0,15.408c0,.7-.008.7-.687.7-.98,0-1.962-.008-2.942.011-.327.007-.441-.087-.441-.428q.015-7.578.007-15.155v-.935" transform="translate(-13.203 -7.308)" fill="#fff"/>
      <path id="Path_41205" data-name="Path 41205" d="M63.6,51.269c0-1.723.008-3.446-.007-5.169,0-.361.09-.528.48-.52q1.546.027,3.093.007c.365,0,.5.116.5.5q-.013,5.169.011,10.338c0,.441-.1.626-.594.6-1-.044-1.995-.026-2.992,0-.375.009-.5-.1-.491-.484.019-1.756.008-3.513.008-5.27Z" transform="translate(-11.809 -8.465)" fill="#fff"/>
    </g>
  </g>
</svg>
