<svg xmlns="http://www.w3.org/2000/svg" width="58.754" height="49.008" viewBox="0 0 58.754 49.008">
  <g id="Group_16359" data-name="Group 16359" transform="translate(0 2.941)">
    <g id="Group_16360" data-name="Group 16360" transform="translate(0 -2.941)">
      <path id="Path_64176" data-name="Path 64176" d="M28.018,39.635c-.072-.847-.132-1.662-.212-2.478-.028-.265.058-.346.311-.339.41.013.821.006,1.231.006q10.946,0,21.893.007a4.691,4.691,0,0,0,3.063-.841,3.973,3.973,0,0,0,1.627-3.271c0-8.589-.023-17.18,0-25.77A4.149,4.149,0,0,0,52.08,2.81c-1.434-.062-2.872-.051-4.308-.052l-40.055,0a5.088,5.088,0,0,0-2.9.635A4.023,4.023,0,0,0,2.829,6.939c.005,8.533.04,17.066-.024,25.6a4.259,4.259,0,0,0,4.217,4.3h.07c1.949-.018,3.9,0,5.849-.011.3,0,.4.072.365.383-.071.7-.106,1.407-.151,2.111-.013.217-.077.323-.326.318-1.824-.014-3.649-.031-5.472-.014a7.05,7.05,0,0,1-5.5-2.374A6.6,6.6,0,0,1,.029,32.739C.013,28,.018,23.261.016,18.521c0-3.679.018-7.36-.01-11.039A7.2,7.2,0,0,1,1.982,2.227,6.888,6.888,0,0,1,6.66.026C6.922.01,7.183,0,7.446,0h44.02A7,7,0,0,1,57.354,2.92a6.322,6.322,0,0,1,1.365,3.826q.016,5.367.022,10.731.006,7.314.006,14.629a7.319,7.319,0,0,1-.97,3.959,7.094,7.094,0,0,1-6.4,3.566q-11,.013-21.994,0H28.019" transform="translate(0 0)" fill="#333"/>
      <path id="Path_64177" data-name="Path 64177" d="M24.339,19.256v.3c0,3.168-.014,6.337.008,9.506.006.875.116,1.749.185,2.624q.192,2.435.391,4.871c.106,1.34.223,2.68.33,4.024.07.874.155,1.748.192,2.624a1.651,1.651,0,0,1-1.3,1.711A1.776,1.776,0,0,1,22.066,43.5l-.006-.036c-.106-.889-.165-1.784-.238-2.678q-.227-2.768-.447-5.536c-.113-1.457-.212-2.915-.318-4.373,0-.067-.013-.133-.017-.183H19.616c0,.032-.021.113-.028.195q-.318,4.066-.643,8.132c-.106,1.389-.233,2.777-.346,4.165a1.842,1.842,0,0,1-1.46,1.75A1.649,1.649,0,0,1,15.231,43.6q-.01-.059-.016-.118c-.005-.847.071-1.694.136-2.541.139-1.826.29-3.652.44-5.478.164-1.991.341-3.98.5-5.972.048-.6.067-1.207.067-1.811.005-2.632,0-5.265,0-7.9v-.51c-.49.014-.544.048-.63.424q-1,4.458-1.987,8.919a1.483,1.483,0,0,1-1.258,1.321,1.42,1.42,0,0,1-1.519-1.747q.535-2.541,1.1-5.082c.357-1.605.741-3.205,1.09-4.811a1.8,1.8,0,0,1,1.343-1.458,28.669,28.669,0,0,1,4.373-1.028c.134-.017.272-.021.409-.025.57-.02.853.259.794.847-.106,1.095-.244,2.187-.382,3.282-.159,1.245-.337,2.489-.5,3.735a.621.621,0,0,0,.022.343c.348.635.713,1.271,1.11,1.972.394-.7.756-1.339,1.108-1.983a.5.5,0,0,0,.029-.284c-.212-1.694-.438-3.381-.656-5.071-.085-.656-.193-1.313-.226-1.973a1.732,1.732,0,0,1,.252-.781c.037-.075.238-.1.362-.094a11.408,11.408,0,0,1,2.957.52c1.856.553,3.7,1.149,5.545,1.739,1.039.331,2.07.685,3.1,1.033a5.277,5.277,0,0,1,.626.244,1.377,1.377,0,1,1-.97,2.578c-1.137-.342-2.265-.716-3.388-1.085-1.489-.487-2.975-.984-4.464-1.475-.072-.024-.147-.04-.253-.069" transform="translate(0.642 4.042)" fill="#e60041"/>
      <path id="Path_64178" data-name="Path 64178" d="M23.588,11.55a4.761,4.761,0,0,1-2.072,3.812,2.521,2.521,0,0,1-3.04,0,4.4,4.4,0,0,1-2.02-4.266,3.558,3.558,0,0,1,6.966-.472q.1.457.163.923" transform="translate(0.966 3.584)" fill="#e60041"/>
      <path id="Path_64179" data-name="Path 64179" d="M40.761,31.778v-.987q0-7.055-.007-14.11c0-.229.058-.335.3-.33.718.011,1.437.014,2.155,0,.252,0,.309.106.306.329-.01.635-.01,1.271-.008,1.913V31.132c0,.643-.007.643-.641.643H40.761" transform="translate(6.633 0.899)" fill="#333"/>
      <path id="Path_64180" data-name="Path 64180" d="M36.879,20.409h2.706a2.569,2.569,0,0,1,.031.27V31.069c0,.471-.005.47-.464.471-.661,0-1.322-.005-1.984.007-.22,0-.3-.058-.3-.289q.01-5.109,0-10.219V20.4" transform="translate(6.404 1.138)" fill="#333"/>
      <path id="Path_64181" data-name="Path 64181" d="M32.985,27.472c0-1.165.005-2.324,0-3.486,0-.244.061-.356.323-.35q1.043.017,2.086,0c.246,0,.337.078.336.336q-.01,3.486.007,6.971c0,.3-.066.424-.4.408-.671-.03-1.345-.018-2.017,0-.253.006-.335-.067-.331-.327.013-1.185.005-2.369.005-3.553Z" transform="translate(6.176 1.328)" fill="#333"/>
    </g>
  </g>
</svg>
