<svg xmlns="http://www.w3.org/2000/svg" width="45.061" height="67.18" viewBox="0 0 45.061 67.18">
  <g id="Group_16379" data-name="Group 16379" transform="translate(0)">
    <g id="Group_16380" data-name="Group 16380" transform="translate(0 0)">
      <path id="Path_64218" data-name="Path 64218" d="M18.153,36.752a3.284,3.284,0,1,0-3.344-3.284,3.318,3.318,0,0,0,3.344,3.284" transform="translate(4.127 8.413)" fill="#ec0036"/>
      <path id="Path_64219" data-name="Path 64219" d="M18.989,41.425a7.12,7.12,0,1,1,7.18-7.121,7.158,7.158,0,0,1-7.18,7.121m0-11.682A4.563,4.563,0,1,0,23.612,34.3a4.6,4.6,0,0,0-4.623-4.561" transform="translate(3.291 7.577)" fill="#333"/>
      <path id="Path_64220" data-name="Path 64220" d="M10.806,45.415l0,6.525H27.726V45.506a4.475,4.475,0,0,0-1.348-3.227A4.647,4.647,0,0,0,23.4,40.913c-.137.109-.354.3-.7.623a5.09,5.09,0,0,1-6.833.026c-.366-.336-.595-.533-.737-.648a4.651,4.651,0,0,0-4.327,4.5" transform="translate(3.012 11.403)" fill="#ec0036"/>
      <path id="Path_64221" data-name="Path 64221" d="M29.964,56.616H10.24A2.438,2.438,0,0,1,7.8,54.181V46.344A8.5,8.5,0,0,1,16.334,37.9c1.037,0,1.733.536,2.967,1.673a1.233,1.233,0,0,0,1.628-.009c1.063-1,1.852-1.664,2.954-1.664a8.459,8.459,0,0,1,6.023,2.482,8.264,8.264,0,0,1,2.493,5.96v7.837a2.437,2.437,0,0,1-2.435,2.435m-19.6-2.557H29.841V46.345A5.74,5.74,0,0,0,28.108,42.2a5.928,5.928,0,0,0-4.226-1.744,4.719,4.719,0,0,0-1.219.983,3.8,3.8,0,0,1-5.093.015,5.721,5.721,0,0,0-1.238-1,5.937,5.937,0,0,0-5.97,5.886Z" transform="translate(2.175 10.564)" fill="#333"/>
      <path id="Path_64222" data-name="Path 64222" d="M40.8,29.321a1.273,1.273,0,0,0-1.251-1.081H35.567v-6.16a8.535,8.535,0,0,0-8.525-8.524H24.751a6.963,6.963,0,1,0-4.44,0H18.02A8.533,8.533,0,0,0,9.5,22.081v6.16H5.512a1.273,1.273,0,0,0-1.252,1.081L.013,58.22a1.267,1.267,0,0,0,1.251,1.448h6.42V57.14H2.727L6.6,30.769H38.459L42.334,57.14H36.877v2.528H43.8a1.269,1.269,0,0,0,1.252-1.449ZM19.013,27.175l.349,1.065h-3.1V23.369a1.265,1.265,0,0,0-2.529,0V28.24H12.024v-6.16a6,6,0,0,1,6-6H19.44l.432,2.061-.916,8.5a1.292,1.292,0,0,0,.056.526M18.1,6.961A4.435,4.435,0,1,1,22.531,11.4,4.439,4.439,0,0,1,18.1,6.961m4.942,9.124-.153.733h-.708l-.153-.733Zm0,12.155H22.022l-.52-1.593.786-7.3h.488l.784,7.3Zm10,0H31.33V23.369a1.264,1.264,0,0,0-2.528,0V28.24H25.7l.347-1.065a1.257,1.257,0,0,0,.058-.528l-.914-8.5.432-2.06h1.421a6,6,0,0,1,6,6Z" transform="translate(0)" fill="#333"/>
    </g>
  </g>
</svg>
