<svg id="Group_7375" data-name="Group 7375" xmlns="http://www.w3.org/2000/svg" xmlns:xlink="http://www.w3.org/1999/xlink" width="61.159" height="61.223" viewBox="0 0 61.159 61.223">
  <defs>
    <clipPath id="clip-path">
      <rect id="Rectangle_6276" data-name="Rectangle 6276" width="61.159" height="61.223" fill="#fff"/>
    </clipPath>
  </defs>
  <g id="Group_7374" data-name="Group 7374" clip-path="url(#clip-path)">
    <path id="Path_41196" data-name="Path 41196" d="M58.449,23.969a9.486,9.486,0,0,0-6.781-2.831c-6.244-.028-12.594-.022-18.735-.017q-3.908,0-7.817,0h-1.2V19H58.314c.093,0,.187.007.282.014a1.882,1.882,0,0,0,.735-.043c.095-.031.2-.061.3-.093.566-.167,1.15-.34,1.305-.753a2.505,2.505,0,0,0-.388-1.879,5.426,5.426,0,0,0-.716-.993,7.4,7.4,0,0,1-.5-.638c-1.765-2.636-2.2-5.017-1.326-7.28a16.747,16.747,0,0,1,1.483-2.745c.35-.562.712-1.143,1.025-1.738.153-.29.627-1.285.336-1.9C60.6.409,59.662.14,59.149.067a10.848,10.848,0,0,0-1.866-.05c-.258.008-.515.016-.771.016H43.36q-16.715,0-33.429,0C4.287.038.018,4.1,0,9.479s4.214,9.484,9.845,9.526c.287,0,.574,0,.853,0h.133v2.119H9.837q-1.011,0-2.022,0c-1.9-.006-3.87-.013-5.805.035-.512.013-1.511.3-1.68.816A3.044,3.044,0,0,0,.6,23.794l.049.141a2.106,2.106,0,0,0,.483.7,3.634,3.634,0,0,1,.258.3c2.942,4.026,2.88,7.725-.2,11.64-.091.116-.187.23-.283.344a6.233,6.233,0,0,0-.6.8,1.6,1.6,0,0,0-.175,1.525,1.59,1.59,0,0,0,1.286.824,5.576,5.576,0,0,0,.91.031c.1,0,.205,0,.307,0q18.432,0,36.862,0c1.225,0,2.431,0,3.647.008,1.177,0,2.37.007,3.57.007,1.74,0,3.5-.008,5.232-.036a9.476,9.476,0,0,0,6.506-16.107m-53.742.316H10.9c0,.4,0,.807-.008,1.212-.011,1.219-.022,2.478.038,3.719a3.914,3.914,0,0,0,.392,1.323c.078.182.157.365.221.548l.079.227.226-.082c.181-.066.37-.12.558-.174a4.155,4.155,0,0,0,1.262-.52c.921-.647,1.792-1.341,2.714-2.076.324-.259.653-.521.99-.785.317.248.631.5.943.747.889.708,1.808,1.44,2.752,2.1.483.338,1.444.838,1.979.569.559-.281.758-1.333.787-1.911.061-1.214.05-2.454.038-3.652,0-.421-.008-.844-.009-1.268l.047-.012a1.115,1.115,0,0,1,.253-.049q3.8,0,7.606-.01c6.6-.011,13.414-.024,20.12.03a6.184,6.184,0,0,1,5.368,3.187,6.343,6.343,0,0,1-.029,6.4,6.094,6.094,0,0,1-5.56,3.211q-18.918.016-37.837.008H5.1c-.13,0-.259-.01-.414-.022,2.237-3.987,2.919-7.43.02-12.723M10.9,14.225v1.646A6.6,6.6,0,0,1,4.66,13.736a6.037,6.037,0,0,1-1.113-6.61,6.193,6.193,0,0,1,5.4-4A4.4,4.4,0,0,1,9.46,3.1H56.51c-2.641,5.582-2.641,6.383-.1,12.776H23.865V14.314c0-1.358,0-2.7,0-4.033-.009-1.817-.449-2.262-2.241-2.267-2.536-.008-5.549-.013-8.651,0-1.575.009-2.057.491-2.066,2.067-.007,1.372-.006,2.743,0,4.142m3.172-3.1h6.655v15.27l-.4-.3c-.549-.411-1.069-.8-1.551-1.222a2.122,2.122,0,0,0-1.393-.615,2.192,2.192,0,0,0-1.434.639c-.456.4-.95.776-1.472,1.175l-.4.306Z" transform="translate(0 0)" fill="#fff"/>
    <path id="Path_41197" data-name="Path 41197" d="M60.024,104.4c-3.133-4.027-3.193-7.791-.191-11.845a3.449,3.449,0,0,1,.227-.264,1.861,1.861,0,0,0,.445-.647l.078-.226a2.947,2.947,0,0,0,.251-1.732c-.155-.5-1.112-.826-1.677-.827-14.856-.029-32.4-.052-49.9-.008a9.469,9.469,0,0,0,.187,18.937c5.766.031,11.629.024,17.3.018q3.677-.005,7.354-.006h2.761q10.767,0,21.536-.006a4.336,4.336,0,0,1,.484.02c.167.01.346.021.528.021.668,0,1.367-.146,1.565-1.009.193-.841-.6-1.977-.95-2.426m-3.519.283a3.1,3.1,0,0,1-.453.048H48.679q-19.539.006-39.078-.006a6.417,6.417,0,0,1-1.447-12.7,7.544,7.544,0,0,1,1.6-.13q13.862-.006,27.723-.005H55.963c.17,0,.339.01.562.023h.03c-2.66,4.35-2.677,8.531-.051,12.762" transform="translate(0 -46.61)" fill="#fff"/>
    <path id="Path_41198" data-name="Path 41198" d="M29.111,22.9h7.13V38.886c-.85-.655-1.636-1.2-2.35-1.826a1.672,1.672,0,0,0-2.514.024c-.679.6-1.419,1.124-2.266,1.787Z" transform="translate(-15.276 -12.016)" fill="#fff"/>
    <path id="Path_41199" data-name="Path 41199" d="M36.216,39.107l-.383-.295c-.267-.206-.527-.4-.781-.59-.557-.417-1.085-.811-1.58-1.246a1.445,1.445,0,0,0-2.2.024c-.468.411-.969.792-1.5,1.2-.25.19-.509.388-.779.6l-.384.3V22.4h7.605ZM32.393,36a2.122,2.122,0,0,1,1.393.615c.482.423,1,.811,1.551,1.222l.4.3V22.873H29.086v15.25l.4-.306c.523-.4,1.017-.775,1.472-1.175A2.192,2.192,0,0,1,32.393,36" transform="translate(-15.013 -11.753)" fill="#fff"/>
  </g>
</svg>
