<svg xmlns="http://www.w3.org/2000/svg" width="97.257" height="71.352" viewBox="0 0 97.257 71.352">
  <g id="Group_7384" data-name="Group 7384" transform="translate(0 0)">
    <g id="Group_7385" data-name="Group 7385" transform="translate(0 0)">
      <path id="Path_41222" data-name="Path 41222" d="M3.047,56.106c-.627,0-1.213.048-1.788-.01A1.342,1.342,0,0,1,.229,54.017a2.046,2.046,0,0,1,.928-.654,2.722,2.722,0,0,1,.985-.088q4.915-.007,9.83,0h.987c-.222-.675-.463-1.289-.619-1.926a6.189,6.189,0,0,1-.167-1.454c-.013-4.195-.008-8.389-.008-12.584a6.223,6.223,0,0,1,4.663-6.273c1.513-.449,3.035-.873,4.552-1.311a.671.671,0,0,0,.346-.222c-.636-.157-1.276-.3-1.907-.473-1.215-.343-2.439-.666-3.633-1.071a2.775,2.775,0,0,1-1.861-3.544c.4-1.51.947-2.99,1.23-4.521.5-2.7.895-5.425,1.249-8.151a13.1,13.1,0,0,1,5.849-9.859A11.4,11.4,0,0,1,38.464,5.179a14.609,14.609,0,0,1,2.487,7.165,52.612,52.612,0,0,0,2.262,11.7A3.318,3.318,0,0,1,43.381,26,2.676,2.676,0,0,1,41.5,27.975c-1.726.508-3.467.965-5.2,1.442a.984.984,0,0,0-.414.188c1.058.31,2.115.622,3.174.929.606.176,1.219.333,1.823.518a6.006,6.006,0,0,1,4.577,5.979c.06,4.431.025,8.863.013,13.3a5.47,5.47,0,0,1-.693,2.634c-.043.078-.074.163-.134.3H51.8c0-.7,0-1.377,0-2.053q0-4.772,0-9.544a6.564,6.564,0,0,1,.1-1.228,2.944,2.944,0,0,1,2.332-2.285c.2-.037.4-.068.6-.1a20.014,20.014,0,0,1,.122-2.052,5.809,5.809,0,0,1,4.49-4.96c1.441-.416,2.882-.833,4.328-1.23,1.342-.368,1.643-.773,1.741-2.153a1.528,1.528,0,0,0-.612-1.45,10.964,10.964,0,0,1-3.962-8.59,8.917,8.917,0,0,0-.851-3.9c-1.407-2.913-.518-6.892,1.912-9.377a9.463,9.463,0,0,1,6.974-2.828c4.29-.036,8.579-.017,12.868-.008a1.569,1.569,0,0,1,1.745,1.778c.006,2.279,0,4.559,0,6.838a11.057,11.057,0,0,1-1.319,4.948,2.139,2.139,0,0,0-.193.808c-.09,1.45-.03,2.923-.261,4.349a9.925,9.925,0,0,1-4,6.347.682.682,0,0,0-.323.675c0,.015,0,.031,0,.047-.005,1.811.239,2.124,1.992,2.62,1.5.426,3.023.813,4.5,1.318a6.081,6.081,0,0,1,4.157,5.91c0,3.942-.015,7.882.008,11.824a7.081,7.081,0,0,1-.989,4.3c.293.021.5.05.715.049,2.516-.006,5.033-.021,7.55-.022a3.066,3.066,0,0,1,.888.119,1.387,1.387,0,0,1-.285,2.693c-.3.036-.6.044-.9.053-.281.008-.563,0-.908,0v.587q0,6.387,0,12.773a3.106,3.106,0,0,1-.091.8,1.394,1.394,0,0,1-1.368,1.039A1.321,1.321,0,0,1,91.443,70.2a6.383,6.383,0,0,1-.062-1.086q0-3.039,0-6.078c0-.236,0-.471,0-.744H39.433c-.012.128-.035.263-.035.4q0,3.395.007,6.79a4.155,4.155,0,0,1-.032.615A1.388,1.388,0,0,1,37.9,71.35,1.351,1.351,0,0,1,36.575,70c-.038-1.106-.023-2.215-.028-3.322,0-.438,0-.878,0-1.335H21.117c0,.2,0,.365,0,.535-.005,1.393.015,2.786-.027,4.177a1.289,1.289,0,0,1-1.322,1.287,1.348,1.348,0,0,1-1.438-1.113,3.8,3.8,0,0,1-.083-.8q-.009-3.3,0-6.6v-.535H5.926c-.011.145-.03.281-.03.417q0,3.372,0,6.744a5.681,5.681,0,0,1-.011.569,1.387,1.387,0,0,1-1.412,1.324A1.422,1.422,0,0,1,3.056,70.02a4.7,4.7,0,0,1-.008-.475V56.106ZM29.57,27.416c.863-.084,2.39-.216,3.914-.381a31.657,31.657,0,0,0,6.866-1.587c.286-.1.352-.22.263-.479-.041-.119-.071-.243-.108-.363a58.662,58.662,0,0,1-2.339-11.836,12.945,12.945,0,0,0-1.311-4.914A8.831,8.831,0,0,0,25.728,3.416c-3.265,1.21-5.074,3.779-5.846,7.076-.311,1.33-.311,2.73-.522,4.087A63.3,63.3,0,0,1,17.1,24.842c-.129.388-.014.532.342.651A39.041,39.041,0,0,0,29.57,27.416M21.109,52.331H21.1c0,3.227,0,6.454-.006,9.681,0,.318.068.445.417.444q7.283-.027,14.568-.021c.392,0,.472-.118.47-.484q-.024-4.839-.014-9.678c0-3.084.011-6.167.013-9.251a1.8,1.8,0,0,0-.822-1.8,3.2,3.2,0,0,0-1.4-.316c-3.638-.025-7.277-.018-10.915-.011-1.811,0-2.3.506-2.3,2.324q0,4.555,0,9.111M73.931,4.367V4.4c-1.946,0-3.892.017-5.839,0a6.1,6.1,0,0,0-5.869,6.323,5.925,5.925,0,0,0,.9,2.861,4.934,4.934,0,0,1,.634,2.678,16.552,16.552,0,0,0,.106,2.887,7.817,7.817,0,0,0,8.673,6.685,7.692,7.692,0,0,0,6.468-6.08,26.031,26.031,0,0,0,.168-3.736,4.351,4.351,0,0,1,.546-2.222,7.389,7.389,0,0,0,1.005-3.758c-.007-1.709-.031-3.418-.011-5.127.005-.451-.141-.558-.565-.554-2.073.018-4.147.008-6.219.008m-55.689,48.9v-.513c0-3.292-.008-6.585,0-9.877a4.617,4.617,0,0,1,4.5-4.793c4.067-.048,8.135-.038,12.2,0a4.371,4.371,0,0,1,4.307,3.639,9.825,9.825,0,0,1,.142,1.794c.014,2.864.006,5.729,0,8.594,0,.3-.009.6-.019.9-.01.28.141.39.386.308a7.615,7.615,0,0,0,1.535-.581,3.058,3.058,0,0,0,1.343-2.867c.016-4.242.03-8.483.02-12.725a3.218,3.218,0,0,0-2.633-3.461c-1.438-.427-2.886-.822-4.327-1.238a4.078,4.078,0,0,1-2.454-1.427,2.058,2.058,0,0,0-2.167-.885c-1.842.09-3.7-.03-5.544-.046a.665.665,0,0,0-.505.2,4.7,4.7,0,0,1-2.949,2.152c-.82.234-1.645.451-2.465.683-.729.206-1.466.393-2.181.641a3.185,3.185,0,0,0-2.429,3.373c-.008,4.194.005,8.388.014,12.582a5.854,5.854,0,0,0,.054.757,3.105,3.105,0,0,0,3.164,2.794m57.764-.03a.816.816,0,0,0,.169.046c1.946,0,3.893.015,5.839-.017a3.088,3.088,0,0,0,3.266-3.287c.016-.839,0-1.678,0-2.516,0-3.5.017-7,.006-10.492a3.108,3.108,0,0,0-2.168-3.125c-.323-.126-.658-.22-.989-.324-1.791-.564-3.58-1.129-5.375-1.678a.494.494,0,0,0-.384.122c-.367.324-.69.7-1.071,1.007a5.624,5.624,0,0,1-6.38.8,16.023,16.023,0,0,1-2.331-1.758.649.649,0,0,0-.47-.153c-.885.279-1.753.614-2.637.893-1.294.41-2.614.741-3.891,1.2a2.78,2.78,0,0,0-1.852,2.282c-.077.449-.056.913-.1,1.368-.041.391.134.478.493.473,1.425-.017,2.849-.008,4.273-.009q5.175,0,10.35-.011A2.884,2.884,0,0,1,75.7,39.94a4.56,4.56,0,0,1,.267,1.573c.033,1.725.012,3.45.012,5.175v.461h3.21v-.645c0-2.279-.011-4.558.006-6.837a1.422,1.422,0,0,1,1.4-1.588,1.5,1.5,0,0,1,1.465,1.6c0,.111,0,.222,0,.333v4.747c0,1.2.01,2.406,0,3.609a1.472,1.472,0,0,1-1.583,1.662c-.679.022-1.36.008-2.041.008H76.006ZM63.863,40.9v-.006c-2.927,0-5.855.005-8.782-.007-.346,0-.477.091-.476.451q.017,5.745.006,11.488c0,.353.115.466.464.466q8.687-.014,17.375-.009c.656,0,.652-.008.651-.659,0-3.7-.015-7.405,0-11.108,0-.473-.109-.629-.6-.626-2.879.021-5.76.011-8.64.011m27.5,15.258h-.984q-12.2,0-24.4,0-13.032,0-26.063-.013c-.435,0-.537.131-.521.541.03.758.027,1.52-.008,2.278-.017.385.141.456.472.441.568-.025,1.139-.027,1.708-.027l48.948,0h.851ZM18.223,56.15c-4.034,0-8.016,0-12,0-.285,0-.337.138-.334.383.007.838.01,1.676-.01,2.513-.007.305.115.369.392.368q5.359-.026,10.716-.035h1.234Zm50.1-27.982c-.088.429-.176.781-.225,1.139a.505.505,0,0,0,.1.387,10.876,10.876,0,0,0,1.741,1.517A2.968,2.968,0,0,0,73.371,31a8.7,8.7,0,0,0,.979-.895,1.333,1.333,0,0,0,.208-1.878,10.274,10.274,0,0,1-6.23-.055" transform="translate(0 0.001)" fill="#fff"/>
      <path id="Path_41223" data-name="Path 41223" d="M88.592,12.076a27.811,27.811,0,0,1,7.531,1.149,6.7,6.7,0,0,1,1.27.507,1.385,1.385,0,0,1,.652,1.821,1.274,1.274,0,0,1-1.686.716,22.881,22.881,0,0,0-2.766-.785c-1.808-.264-3.637-.389-5.457-.572a8,8,0,0,1-.8-.087,1.383,1.383,0,0,1-1.111-1.444,1.3,1.3,0,0,1,1.2-1.3,10.023,10.023,0,0,1,1.162-.008" transform="translate(-20.714 -2.897)" fill="#fff"/>
      <path id="Path_41224" data-name="Path 41224" d="M83.574,62.926a1.406,1.406,0,1,1,1.4-1.419,1.389,1.389,0,0,1-1.4,1.419" transform="translate(-19.737 -14.441)" fill="#fff"/>
    </g>
  </g>
</svg>
