<svg id="Group_16365" data-name="Group 16365" xmlns="http://www.w3.org/2000/svg" width="66.977" height="38.977" viewBox="0 0 66.977 38.977">
  <path id="Path_64191" data-name="Path 64191" d="M58.345,5.007,49.554,12.49v9.017l8.791,7.483Z" transform="translate(3.755 0.42)" fill="#ec0036"/>
  <g id="Group_16366" data-name="Group 16366">
    <g id="Group_16367" data-name="Group 16367">
      <path id="Path_64192" data-name="Path 64192" d="M59.166,34.226a4.6,4.6,0,0,1-2.871-.99l-9.681-7.662a4,4,0,0,1-1.56-3.139V11.811a4,4,0,0,1,1.56-3.138L56.3,1.009A4.625,4.625,0,0,1,59.172.023h.014a4.564,4.564,0,0,1,3.126,1.213A3.944,3.944,0,0,1,63.6,4.15V30.1a3.946,3.946,0,0,1-1.062,2.683,4.52,4.52,0,0,1-3.021,1.428c-.117.009-.234.013-.351.013m.008-31.18a1.227,1.227,0,0,0-.764.262l-9.69,7.668a1.063,1.063,0,0,0-.414.834V22.437a1.065,1.065,0,0,0,.414.835l9.686,7.666a1.25,1.25,0,0,0,.858.261,1.2,1.2,0,0,0,.8-.379,1.046,1.046,0,0,0,.282-.713V4.146a1.051,1.051,0,0,0-.341-.778,1.214,1.214,0,0,0-.83-.321Z" transform="translate(3.378 0.002)" fill="#333"/>
      <path id="Rectangle_12538" data-name="Rectangle 12538" d="M3.035,0H26.229a3.035,3.035,0,0,1,3.035,3.035V19.727a3.034,3.034,0,0,1-3.034,3.034H3.035A3.035,3.035,0,0,1,0,19.726V3.035A3.035,3.035,0,0,1,3.035,0Z" transform="translate(10.306 5.148)" fill="#fff"/>
      <path id="Path_64193" data-name="Path 64193" d="M37.124,33.058H14.438A8.448,8.448,0,0,1,6,24.62V8.438A8.448,8.448,0,0,1,14.438,0H37.124a8.447,8.447,0,0,1,8.437,8.438V24.62a8.447,8.447,0,0,1-8.437,8.438M14.438,2.71A5.735,5.735,0,0,0,8.71,8.438V24.62a5.735,5.735,0,0,0,5.728,5.728H37.124a5.734,5.734,0,0,0,5.727-5.728V8.438A5.734,5.734,0,0,0,37.124,2.71Z" transform="translate(0.503)" fill="#333"/>
      <path id="Path_64194" data-name="Path 64194" d="M31.161,34.82a8.113,8.113,0,0,1-2.441.375H10.841A8.14,8.14,0,0,1,2.71,27.064V19.75H0v7.314A10.852,10.852,0,0,0,10.841,37.9H28.72a10.791,10.791,0,0,0,2.441-.287Z" transform="translate(0 1.072)" fill="#ef002f"/>
    </g>
  </g>
</svg>
