<svg id="Group_18423" data-name="Group 18423" xmlns="http://www.w3.org/2000/svg" width="47.58" height="70.935" viewBox="0 0 47.58 70.935">
  <g id="Group_17347" data-name="Group 17347" transform="translate(0 0)">
    <g id="Group_16380" data-name="Group 16380" transform="translate(0)">
      <path id="Path_64218" data-name="Path 64218" d="M18.34,37.12a3.468,3.468,0,1,0-3.531-3.467A3.5,3.5,0,0,0,18.34,37.12" transform="translate(5.186 10.571)" fill="#ff0089"/>
      <path id="Path_64219" data-name="Path 64219" d="M19.39,42.221A7.518,7.518,0,1,1,26.972,34.7a7.558,7.558,0,0,1-7.581,7.519m0-12.335A4.818,4.818,0,1,0,24.271,34.7a4.855,4.855,0,0,0-4.881-4.816" transform="translate(4.135 9.52)" fill="#1e2663"/>
      <path id="Path_64220" data-name="Path 64220" d="M10.806,45.667l0,6.89H28.672V45.763a4.725,4.725,0,0,0-1.423-3.408,4.907,4.907,0,0,0-3.142-1.442c-.144.115-.374.315-.739.658a5.375,5.375,0,0,1-7.215.027c-.386-.355-.628-.563-.778-.685a4.911,4.911,0,0,0-4.569,4.754" transform="translate(3.784 14.328)" fill="#ff0089"/>
      <path id="Path_64221" data-name="Path 64221" d="M31.2,57.662H10.376A2.574,2.574,0,0,1,7.8,55.091V46.816A8.971,8.971,0,0,1,16.811,37.9c1.1,0,1.83.566,3.132,1.766a1.3,1.3,0,0,0,1.719-.009C22.784,38.6,23.617,37.9,24.781,37.9a8.932,8.932,0,0,1,6.359,2.621,8.726,8.726,0,0,1,2.633,6.293v8.275A2.573,2.573,0,0,1,31.2,57.662m-20.692-2.7H31.073V46.817a6.061,6.061,0,0,0-1.83-4.373A6.26,6.26,0,0,0,24.781,40.6a4.982,4.982,0,0,0-1.287,1.038,4.008,4.008,0,0,1-5.378.016A6.041,6.041,0,0,0,16.809,40.6a6.269,6.269,0,0,0-6.3,6.215Z" transform="translate(2.733 13.273)" fill="#1e2663"/>
      <path id="Path_64222" data-name="Path 64222" d="M43.082,30.96a1.344,1.344,0,0,0-1.32-1.141H37.556v-6.5a9.012,9.012,0,0,0-9-9h-2.42a7.352,7.352,0,1,0-4.688,0h-2.42a9.01,9.01,0,0,0-9,9v6.5H5.821A1.344,1.344,0,0,0,4.5,30.96L.013,61.474A1.338,1.338,0,0,0,1.334,63H8.113V60.334H2.88L6.972,32.488H40.609L44.7,60.334H38.938V63h7.307a1.34,1.34,0,0,0,1.322-1.53ZM20.076,28.694l.369,1.125H17.169V24.675a1.335,1.335,0,0,0-2.671,0v5.144H12.7v-6.5a6.338,6.338,0,0,1,6.331-6.331h1.5l.456,2.177-.967,8.979a1.364,1.364,0,0,0,.059.555M19.108,7.35a4.682,4.682,0,1,1,4.682,4.684A4.687,4.687,0,0,1,19.108,7.35m5.219,9.634-.162.774h-.748l-.162-.774Zm0,12.835H23.253l-.55-1.682.83-7.71h.516l.828,7.71Zm10.557,0h-1.8V24.675a1.335,1.335,0,0,0-2.669,0v5.144H27.136l.366-1.125a1.327,1.327,0,0,0,.061-.558L26.6,19.159l.456-2.175h1.5a6.338,6.338,0,0,1,6.331,6.331Z" transform="translate(0)" fill="#1e2663"/>
    </g>
  </g>
</svg>
