<svg xmlns="http://www.w3.org/2000/svg" width="45.309" height="45.289" viewBox="0 0 45.309 45.289">
  <g id="Group_16361" data-name="Group 16361" transform="translate(0 -0.001)">
    <g id="Group_16362" data-name="Group 16362">
      <path id="Path_64183" data-name="Path 64183" d="M7.716,33.259A4.167,4.167,0,0,0,3.651,37.5,4.19,4.19,0,0,0,7.82,41.6c4.043.021,8.122.017,12.066.012H40.41a8.147,8.147,0,0,1,.024-8.353c-9.121-.017-20.9-.03-32.718,0" fill="#e9003c"/>
      <path id="Path_64184" data-name="Path 64184" d="M43.037,45.29c-.143,0-.284-.007-.417-.015s-.2-.013-.281-.014H19.89c-3.953,0-8.038.009-12.058-.013H7.81A7.85,7.85,0,0,1,0,37.562a7.82,7.82,0,0,1,7.685-7.954c12.266-.031,24.663-.016,35.175.005A2.418,2.418,0,0,1,45.14,31l.037.16A3.214,3.214,0,0,1,44.933,33l-.036.1a2.508,2.508,0,0,1-.616.922l.006-.005a.547.547,0,0,1-.049.063c-1.787,2.415-1.752,4.5.14,6.927l-1.815,1.412c-2.538-3.261-2.588-6.446-.152-9.735.092-.118.166-.2.244-.287l.172-.326a1.1,1.1,0,0,0,.058-.154l-.031,0c-10.507-.019-22.9-.035-35.145,0A5.52,5.52,0,0,0,2.3,37.522a5.544,5.544,0,0,0,5.52,5.427h.016c4.021.023,8.1.017,12.052.012H42.324a3.58,3.58,0,0,1,.454.02l.147.007a3.678,3.678,0,0,0-.364-.561l1.815-1.413a3.412,3.412,0,0,1,.883,2.672,2.053,2.053,0,0,1-2.222,1.6" fill="#333"/>
      <path id="Path_64185" data-name="Path 64185" d="M42.361,16.891v0a6.684,6.684,0,0,0-4.777-1.994c-4.4-.019-8.872-.015-13.2-.012H18.036V13.39H42.267c.065,0,.132.005.2.01a1.33,1.33,0,0,0,.518-.03c.067-.022.139-.043.214-.065.4-.118.81-.239.919-.53a1.768,1.768,0,0,0-.274-1.324,3.877,3.877,0,0,0-.5-.7,5.1,5.1,0,0,1-.353-.45c-1.243-1.857-1.549-3.534-.934-5.129A11.753,11.753,0,0,1,43.1,3.238c.247-.4.5-.8.722-1.224.107-.2.442-.9.237-1.342C43.876.29,43.216.1,42.855.049A7.691,7.691,0,0,0,41.541.014c-.181,0-.363.011-.543.011H31.732q-11.776,0-23.547,0a6.688,6.688,0,1,0-.624,13.361c.187.009.375.01.563,0h.691v1.493H6.69c-1.34,0-2.726-.009-4.09.025-.361.009-1.064.209-1.183.575a2.146,2.146,0,0,0,.188,1.284l.035.1a1.479,1.479,0,0,0,.341.493,2.611,2.611,0,0,1,.181.213c2.073,2.828,2.03,5.438-.137,8.2-.064.082-.132.162-.2.242a4.412,4.412,0,0,0-.426.564,1.126,1.126,0,0,0-.124,1.074,1.12,1.12,0,0,0,.906.58,3.923,3.923,0,0,0,.641.022H29.008c.863,0,1.713,0,2.569.006.829,0,1.67.005,2.515.005,1.226,0,2.462-.005,3.686-.025a6.676,6.676,0,0,0,4.583-11.347M4.463,9.685a4.253,4.253,0,0,1-.778-4.663,4.363,4.363,0,0,1,3.8-2.82,3.157,3.157,0,0,1,.364-.017H41c-1.86,3.933-1.86,4.5-.074,9H18V7.243c-.006-1.28-.316-1.593-1.579-1.6-1.787-.005-3.909-.009-6.094,0-1.11.006-1.449.346-1.456,1.456-.005.966,0,1.932,0,2.918l-.006.008v1.16a4.649,4.649,0,0,1-4.4-1.5M15.955,7.671V18.932c-.6-.461-1.153-.845-1.655-1.287a1.178,1.178,0,0,0-1.663-.093,1.019,1.019,0,0,0-.108.11c-.478.42-1,.791-1.6,1.259l0-11.25ZM41.5,23.818a4.294,4.294,0,0,1-3.918,2.266q-13.327.012-26.656.006H4.778c-.091,0-.182-.007-.292-.015,1.576-2.809,2.056-5.234.015-8.962H8.865c0,.284,0,.569-.006.854-.008.858-.015,1.746.026,2.62a2.764,2.764,0,0,0,.276.932c.055.129.11.257.155.386l.056.16L9.532,22c.128-.046.26-.084.393-.123a2.931,2.931,0,0,0,.889-.366c.649-.456,1.262-.945,1.912-1.462.228-.182.46-.367.7-.553.223.175.444.351.665.526.626.5,1.274,1.014,1.939,1.479.341.238,1.017.59,1.394.4.394-.2.534-.939.554-1.346.043-.855.035-1.729.027-2.573,0-.3,0-.594-.006-.893l.033-.009a.825.825,0,0,1,.178-.035q2.679,0,5.358-.007c4.647-.008,9.45-.017,14.174.021a4.357,4.357,0,0,1,3.782,2.245,4.467,4.467,0,0,1-.021,4.512" fill="#333"/>
      <path id="Path_64186" data-name="Path 64186" d="M16.122,19.272l-.27-.208c-.188-.145-.371-.282-.55-.416-.393-.294-.764-.571-1.113-.878a1.018,1.018,0,0,0-1.436-.1.962.962,0,0,0-.114.116c-.33.29-.682.558-1.055.843-.176.134-.359.273-.549.422l-.271.212V7.5h5.358Zm-2.694-2.186a1.5,1.5,0,0,1,.982.433c.339.3.7.572,1.092.861l.285.213V7.836H11.1V18.58l.282-.215c.368-.281.716-.546,1.037-.828a1.541,1.541,0,0,1,1.01-.45" fill="#333"/>
    </g>
  </g>
</svg>
