<svg id="Group_7387" data-name="Group 7387" xmlns="http://www.w3.org/2000/svg" xmlns:xlink="http://www.w3.org/1999/xlink" width="60.111" height="67.44" viewBox="0 0 60.111 67.44">
  <defs>
    <clipPath id="clip-path">
      <rect id="Rectangle_6279" data-name="Rectangle 6279" width="60.111" height="67.44" fill="#e4e4e4" stroke="#30266e" stroke-width="1"/>
    </clipPath>
  </defs>
  <g id="Group_7386" data-name="Group 7386" clip-path="url(#clip-path)">
    <path id="Path_41225" data-name="Path 41225" d="M25.3,7.2C25.637,2.2,27.08.1,30.162.012a4.278,4.278,0,0,1,4.256,2.351,26.187,26.187,0,0,1,1.233,4.875h4.69c0-.667-.017-1.346,0-2.024A5.068,5.068,0,0,1,45.2,0c2.666-.048,4.744,1.974,5,4.91.063.735.009,1.479.009,2.428.922,0,1.7-.028,2.468,0a7.679,7.679,0,0,1,7.4,7.478q.076,22.522,0,45.045a7.728,7.728,0,0,1-8.011,7.562c-9.438.022-18.875.007-28.313.007-5.136,0-10.272.008-15.408,0C3.311,67.424.011,64.14.008,59.109q-.016-21.667,0-43.333c0-5.232,3.214-8.435,8.449-8.459.6,0,1.21,0,1.924,0,.049-.981.064-1.847.141-2.709A4.94,4.94,0,0,1,15.385,0,5.008,5.008,0,0,1,20.29,4.731c.052.785.008,1.576.008,2.474ZM4.6,18.962v1.5q0,19.031,0,38.062c0,3.207,1.065,4.279,4.254,4.28q21.2,0,42.4,0c3.19,0,4.252-1.07,4.254-4.278q0-19.031,0-38.062v-1.5ZM17.549,9.518h0c0-1.4.034-2.805-.009-4.207C17.5,3.758,16.669,2.82,15.422,2.8c-1.3-.021-2.192.969-2.206,2.561q-.038,4.271,0,8.544a2.235,2.235,0,0,0,2.122,2.509c1.26.026,2.143-.9,2.2-2.427.053-1.488.011-2.979.011-4.469m14.925.088c0-1.489.032-2.979-.009-4.468a2.141,2.141,0,1,0-4.264,0q-.048,4.467,0,8.936a2.141,2.141,0,1,0,4.264,0c.04-1.489.009-2.979.009-4.468M47.446,9.6c0-1.4.014-2.8,0-4.206-.021-1.61-.854-2.591-2.162-2.59-1.263,0-2.111.935-2.128,2.477q-.048,4.336,0,8.673c.017,1.53.887,2.469,2.147,2.46s2.113-.968,2.14-2.479c.026-1.445.006-2.891.006-4.337" transform="translate(0 0)" fill="#e4e4e4" stroke="#30266e" stroke-width="1"/>
    <path id="Path_41226" data-name="Path 41226" d="M54.215,79.3c-2.387-1.251-4.583-2.375-6.75-3.555a1.487,1.487,0,0,0-1.619-.012c-2.167,1.184-4.365,2.309-6.75,3.56.26-1.594.488-3.008.723-4.419a30.443,30.443,0,0,1,.54-3.014,1.631,1.631,0,0,0-.6-1.758c-1.678-1.736-3.29-3.537-4.88-5.26.951-.147,2.207-.347,3.464-.535,1.286-.193,2.581-.338,3.855-.587a1.51,1.51,0,0,0,.937-.678c1.042-2,2.019-4.041,3.021-6.066.132-.268.287-.525.514-.937.595,1.2,1.125,2.264,1.653,3.332a24.156,24.156,0,0,1,1.373,2.838,2.473,2.473,0,0,0,2.478,1.727c2.178.227,4.339.611,6.668.953-.285.31-.473.534-.68.737-1.617,1.581-3.231,3.167-4.865,4.731a1.166,1.166,0,0,0-.409,1.206c.466,2.49.864,4.993,1.329,7.737" transform="translate(-16.505 -26.519)" fill="#e4e4e4" stroke="#30266e" stroke-width="1"/>
  </g>
</svg>
