<svg xmlns="http://www.w3.org/2000/svg" width="68.562" height="40.698" viewBox="0 0 68.562 40.698">
  <g id="Group_18430" data-name="Group 18430" transform="translate(782.342 -7906.342)">
    <g id="Group_18426" data-name="Group 18426" transform="translate(-782.342 7906.342)">
      <g id="Group_17388" data-name="Group 17388" transform="translate(0 0)">
        <path id="Path_64191" data-name="Path 64191" d="M59.405,5.007l-9.851,8.385V23.5l9.851,8.385Z" transform="translate(3.691 1.046)" fill="#ff0089"/>
        <g id="Group_16366" data-name="Group 16366" transform="translate(0 0)">
          <g id="Group_16367" data-name="Group 16367">
            <path id="Path_64192" data-name="Path 64192" d="M60.868,38.351a5.15,5.15,0,0,1-3.217-1.109L46.8,28.656a4.48,4.48,0,0,1-1.748-3.518V13.233A4.478,4.478,0,0,1,46.8,9.717L57.655,1.127a5.183,5.183,0,0,1,3.22-1.1h.016a5.115,5.115,0,0,1,3.5,1.36,4.42,4.42,0,0,1,1.443,3.265V33.73a4.422,4.422,0,0,1-1.19,3.006,5.065,5.065,0,0,1-3.385,1.6c-.131.01-.262.015-.394.015m.009-34.94a1.375,1.375,0,0,0-.856.294L49.162,12.3a1.191,1.191,0,0,0-.464.935V25.14a1.193,1.193,0,0,0,.464.936l10.855,8.59a1.4,1.4,0,0,0,.962.292,1.341,1.341,0,0,0,.9-.425,1.172,1.172,0,0,0,.316-.8V4.643a1.178,1.178,0,0,0-.383-.872,1.36,1.36,0,0,0-.93-.36Z" transform="translate(2.726 -0.023)" fill="#1e2663"/>
            <path id="Path_64193" data-name="Path 64193" d="M37.089,33.02H14.428A8.438,8.438,0,0,1,6,24.592V8.428A8.438,8.438,0,0,1,14.428,0h22.66a8.437,8.437,0,0,1,8.427,8.428V24.592a8.437,8.437,0,0,1-8.427,8.428M14.428,2.707A5.728,5.728,0,0,0,8.707,8.428V24.592a5.728,5.728,0,0,0,5.722,5.722h22.66a5.727,5.727,0,0,0,5.721-5.722V8.428a5.727,5.727,0,0,0-5.721-5.722Z" transform="translate(-0.436 1.984)" fill="#1e2663"/>
            <path id="Path_64194" data-name="Path 64194" d="M34.919,36.637a9.092,9.092,0,0,1-2.735.42H12.148a9.121,9.121,0,0,1-9.112-9.112v-8.2H0v8.2A12.161,12.161,0,0,0,12.148,40.094H32.183a12.092,12.092,0,0,0,2.735-.322Z" transform="translate(0 0.604)" fill="#ff0089"/>
          </g>
        </g>
      </g>
    </g>
  </g>
</svg>
