<svg xmlns="http://www.w3.org/2000/svg" width="80.555" height="63.239" viewBox="0 0 80.555 63.239">
  <path id="Subtraction_1" data-name="Subtraction 1" d="M7574.052,9520a18.094,18.094,0,0,1-9.324-2.591l-35.489-21.323a11.5,11.5,0,0,0-16.095-16.431,18.148,18.148,0,0,1,8.963-19.618,18.318,18.318,0,0,1,8.833-2.276,18.1,18.1,0,0,1,9.321,2.589l43.167,25.937a18.149,18.149,0,0,1-.544,31.437A18.323,18.323,0,0,1,7574.052,9520Zm-13.4-42.73a101.527,101.527,0,0,0-14.5,24.316l20.632,12.394a14.106,14.106,0,0,0,7.268,2.021,14.286,14.286,0,0,0,6.887-1.775,14.153,14.153,0,0,0,.425-24.509l-20.715-12.446Z" transform="translate(-7512.222 -9457.262)" fill="#fff" stroke="rgba(0,0,0,0)" stroke-width="1"/>
</svg>
