<svg xmlns="http://www.w3.org/2000/svg" width="48.302" height="43.562" viewBox="0 0 48.302 43.562">
  <g id="Group_18413" data-name="Group 18413" transform="translate(0 -0.731)">
    <g id="Group_17332" data-name="Group 17332" transform="translate(0 0.731)">
      <g id="Group_17333" data-name="Group 17333" transform="translate(0 0)">
        <path id="Subtraction_48" data-name="Subtraction 48" d="M12.741,18.242A1.024,1.024,0,0,1,12,17.9c-.149-.158-.305-.329-.479-.523l-.039-.044c-.195-.215-.394-.435-.6-.642a.537.537,0,0,0-.33-.113c-.344-.008-.69-.012-1.056-.012-.337,0-.68,0-1.047.011a.489.489,0,0,0-.3.1c-.227.225-.446.465-.658.7l-.015.017,0,.005c-.118.129-.252.276-.383.416a1.119,1.119,0,0,1-.81.419,1.22,1.22,0,0,1-.715-.275l-2.97-2.162a1.072,1.072,0,0,1-.356-1.64l1.15-2.015L2.751,11.6l0,0-.295-.323.21-.113-.224.05c-.045-.2-.1-.445-.172-.682a.474.474,0,0,0-.191-.25c-.311-.16-.643-.31-.937-.441L.672,9.622a1.015,1.015,0,0,1-.6-1.339C.509,6.921.9,5.737,1.289,4.557a.97.97,0,0,1,.962-.728,1.453,1.453,0,0,1,.27.027c.147.028.3.059.442.089h.006l.044.009.128.026c.335.071.636.134.933.186H4.1a.443.443,0,0,0,.226-.079c.684-.483,1.255-.9,1.8-1.312a.549.549,0,0,0,.2-.292c.067-.39.11-.807.143-1.142l.021-.206A1.081,1.081,0,0,1,7.722,0C8.787.009,9.832.012,10.81.014l.583,0A1.02,1.02,0,0,1,12.56,1.045c.077.619.122,1.042.157,1.459.01.124.053.188.193.285.653.452,1.228.872,1.758,1.285a.409.409,0,0,0,.259.112.435.435,0,0,0,.1-.013c.564-.129,1.126-.233,1.5-.3a1.572,1.572,0,0,1,.278-.026.98.98,0,0,1,.975.779c.364,1.12.755,2.325,1.147,3.556a1.054,1.054,0,0,1-.67,1.511l-.393.179,0,0c-.288.131-.586.267-.883.393a.36.36,0,0,0-.23.288c-.178.617-.4,1.275-.667,2.01a.367.367,0,0,0,.013.37c.264.447.512.9.753,1.341a1.016,1.016,0,0,1-.3,1.449c-1.013.738-2.083,1.512-3.179,2.3A1.059,1.059,0,0,1,12.741,18.242ZM9.517,6.114a3.178,3.178,0,0,0,0,6.355h.014a3.16,3.16,0,0,0,2.25-.949,3.116,3.116,0,0,0,.91-2.23,3.207,3.207,0,0,0-.936-2.248,3.121,3.121,0,0,0-2.226-.928Z" transform="translate(28.782 22.006)" fill="#ff0089" stroke="rgba(0,0,0,0)" stroke-width="1"/>
        <path id="Path_65231" data-name="Path 65231" d="M3.5,2.035c-4.371,3.519-4.687,10.4-.706,15.35l8.375,10.4L27.018,15.026l-8.375-10.4C14.662-.323,7.867-1.484,3.5,2.035M11.336,24.1,4.693,15.853C1.667,12.095,1.909,6.861,5.23,4.187S13.715,2.4,16.741,6.154L23.384,14.4Z" transform="translate(0 0)" fill="#1e2663"/>
        <path id="Path_65233" data-name="Path 65233" d="M32.431,41.975a8.507,8.507,0,0,1-9.189-2.983l-6.476-8.043,12.048-9.7,2.874,3.57L33.6,23.3l-4.57-5.677L13.175,30.382,21.34,40.524c3.276,4.069,8.566,5.446,12.765,3.664Z" transform="translate(-1.04 -1.39)" fill="#1e2663"/>
      </g>
    </g>
  </g>
</svg>
