<svg xmlns="http://www.w3.org/2000/svg" width="46.624" height="45.552" viewBox="0 0 46.624 45.552">
  <g id="Group_16346" data-name="Group 16346" transform="translate(46.013 91.006)">
    <g id="Group_16371" data-name="Group 16371" transform="translate(-46.014 -91.007)">
      <g id="Group_16372" data-name="Group 16372">
        <path id="Path_64204" data-name="Path 64204" d="M9.073,30.059l15.349,0V24.637q.007-4.4,0-8.8l-15.351,0q-.007,7.115,0,14.223" transform="translate(-2.822 -2.614)" fill="#ef002f"/>
        <path id="Path_64206" data-name="Path 64206" d="M45.362,3.727a1.372,1.372,0,0,0-1.485,1.258c-.028.409-.026.822-.024,1.221v27c0,.349,0,.7,0,1.046.005,1,.009,2.038-.031,3.053a5.342,5.342,0,0,1-1.4,3.394,5.942,5.942,0,0,1-4.709,2.086q-14.373-.006-28.759,0a6.02,6.02,0,0,1-2.967-.662,5.873,5.873,0,0,1-2.973-3.578,9.216,9.216,0,0,1-.246-2.616V3.141c0-.159,0-.323,0-.345a1.6,1.6,0,0,1,.348-.018h33.92c.054,0,.114,0,.174-.008a2.39,2.39,0,0,1,.257-.009.925.925,0,0,1,.006.274c0,.061-.008.121-.008.175V33.063a3.307,3.307,0,0,0,.046.651,1.342,1.342,0,0,0,.19.467,1.359,1.359,0,0,0,1.883.4,1.584,1.584,0,0,0,.664-1.479V13.027q0-5.67.009-11.323a1.43,1.43,0,0,0,0-.236A1.574,1.574,0,0,0,38.593,0Q31.579.026,24.564.017l-4.454,0L1.522.017a1.8,1.8,0,0,0-.388.024A1.441,1.441,0,0,0,0,1.546v35.1A9.309,9.309,0,0,0,.65,40.089a8.719,8.719,0,0,0,8,5.462H38.226a2.986,2.986,0,0,0,.3-.012,8.66,8.66,0,0,0,6.525-3.75,8.9,8.9,0,0,0,1.567-5.323V5.148a1.374,1.374,0,0,0-1.259-1.421" fill="#333"/>
        <path id="Path_64207" data-name="Path 64207" d="M6.855,34.092a5.4,5.4,0,0,0,.58.032H32.58a5.62,5.62,0,0,0,.6-.034,1.377,1.377,0,0,0,.011-2.745,5.094,5.094,0,0,0-.584-.026H7.332a3.705,3.705,0,0,0-.476.026,1.445,1.445,0,0,0-1.265,1.369,1.416,1.416,0,0,0,1.264,1.377" fill="#333"/>
        <path id="Path_64208" data-name="Path 64208" d="M32.812,6.91l-25,0h-.2c-.232,0-.464,0-.7.012A1.465,1.465,0,0,0,5.635,7.971a1.374,1.374,0,0,0,.547,1.45,1.819,1.819,0,0,0,.988.3c.051,0,.1,0,.151-.007H32.66a4.259,4.259,0,0,0,.616-.041A1.365,1.365,0,0,0,34.2,7.559a1.539,1.539,0,0,0-1.392-.649" fill="#333"/>
        <path id="Path_64209" data-name="Path 64209" d="M11.021,40.231a6.04,6.04,0,0,0,.605.028H32.57c.2,0,.4-.011.606-.031a1.427,1.427,0,0,0,1.266-1.251,1.4,1.4,0,0,0-1.089-1.456,3.52,3.52,0,0,0-.753-.063l-21.07,0a3.843,3.843,0,0,0-.525.025,1.45,1.45,0,0,0-1.276,1.4,1.43,1.43,0,0,0,1.292,1.355" fill="#333"/>
        <path id="Path_64210" data-name="Path 64210" d="M35.081,14.719a1.408,1.408,0,0,0-1.525-1.237h-3.9v0H26.471c-.474,0-.963,0-1.449.03a1.408,1.408,0,0,0-1.3,1.364,1.439,1.439,0,0,0,1.3,1.385c.208.02.42.032.625.032h7.809a3.119,3.119,0,0,0,.506-.042,1.424,1.424,0,0,0,1.119-1.471Z" fill="#333"/>
        <path id="Path_64211" data-name="Path 64211" d="M33.6,18.9h-8.1a4.856,4.856,0,0,0-.6.037,1.444,1.444,0,0,0-1.163,1.142,1.424,1.424,0,0,0-.014.171A1.393,1.393,0,0,0,25.1,21.672c1,.015,2.009.012,3.014.008l3.856.016h.439c.468,0,.944,0,1.423-.024a1.409,1.409,0,0,0,1.253-1.544A1.381,1.381,0,0,0,33.6,18.9m-4.212,2.58h0v0Z" fill="#333"/>
        <path id="Path_64212" data-name="Path 64212" d="M35.089,26.057a1.385,1.385,0,0,0-1.365-1.4c-.953,0-1.906,0-2.859,0l-1.313,0,0-.007H25.864c-.266,0-.532,0-.8.014a1.465,1.465,0,0,0-1.3,1.05,1.323,1.323,0,0,0,.709,1.52,2.207,2.207,0,0,0,.93.2h.018q1.971.01,3.94.009h4.071a3.028,3.028,0,0,0,.5-.042,1.383,1.383,0,0,0,1.158-1.344" fill="#333"/>
      </g>
    </g>
  </g>
</svg>
