<svg id="Group_18283" data-name="Group 18283" xmlns="http://www.w3.org/2000/svg" width="49.272" height="49.251" viewBox="0 0 49.272 49.251">
  <g id="Group_17348" data-name="Group 17348" transform="translate(0 0)">
    <g id="Group_17344" data-name="Group 17344" transform="translate(0 0)">
      <g id="Group_16362" data-name="Group 16362">
        <path id="Path_64183" data-name="Path 64183" d="M8.072,33.261a4.532,4.532,0,0,0-4.421,4.612,4.557,4.557,0,0,0,4.534,4.459c4.4.023,8.832.018,13.121.013H43.626a8.86,8.86,0,0,1,.026-9.084c-9.919-.018-22.729-.033-35.58,0" transform="translate(0.32 2.907)" fill="#ff0089"/>
        <path id="Path_64184" data-name="Path 64184" d="M46.8,46.663c-.155,0-.309-.008-.453-.016s-.221-.014-.306-.015H21.63c-4.3.005-8.741.01-13.113-.014H8.493A8.536,8.536,0,0,1,0,38.259a8.5,8.5,0,0,1,8.357-8.65c13.339-.034,26.82-.017,38.252.005a2.63,2.63,0,0,1,2.478,1.514l.04.174a3.5,3.5,0,0,1-.265,1.991l-.039.112a2.727,2.727,0,0,1-.67,1l.007-.005a.594.594,0,0,1-.053.069C46.164,37.1,46.2,39.36,48.26,42L46.286,43.54c-2.76-3.546-2.814-7.01-.165-10.587.1-.128.181-.222.265-.312l.187-.355a1.2,1.2,0,0,0,.063-.167l-.034,0C35.177,32.1,21.7,32.078,8.383,32.111A6,6,0,0,0,2.5,38.216a6.029,6.029,0,0,0,6,5.9h.017c4.373.025,8.809.018,13.106.013h24.4a3.893,3.893,0,0,1,.494.022l.16.008a4,4,0,0,0-.4-.61l1.974-1.537a3.711,3.711,0,0,1,.96,2.906A2.232,2.232,0,0,1,46.8,46.663" transform="translate(0 2.588)" fill="#1e2663"/>
        <path id="Path_64185" data-name="Path 64185" d="M45.963,18.368v0A7.269,7.269,0,0,0,40.769,16.2c-4.785-.021-9.648-.016-14.355-.013h-6.9V14.561H45.861c.071,0,.144.005.217.011a1.447,1.447,0,0,0,.563-.033c.073-.024.151-.047.233-.071.435-.128.881-.26,1-.576a1.922,1.922,0,0,0-.3-1.44,4.217,4.217,0,0,0-.544-.761,5.545,5.545,0,0,1-.384-.489C45.3,9.183,44.963,7.359,45.632,5.624a12.781,12.781,0,0,1,1.136-2.1c.269-.435.544-.875.785-1.331.116-.217.481-.979.258-1.459-.2-.415-.919-.62-1.311-.677A8.363,8.363,0,0,0,45.071.015c-.2.005-.395.012-.591.012H34.4Q21.6.026,8.8.029a7.273,7.273,0,1,0-.679,14.53c.2.01.408.011.612,0h.751v1.624H7.172c-1.457,0-2.964-.01-4.448.027-.393.01-1.157.227-1.286.625a2.334,2.334,0,0,0,.2,1.4l.038.109a1.608,1.608,0,0,0,.371.536,2.84,2.84,0,0,1,.2.232C4.5,22.187,4.455,25.025,2.1,28.024c-.07.089-.144.176-.217.263a4.8,4.8,0,0,0-.463.613,1.225,1.225,0,0,0-.135,1.168,1.218,1.218,0,0,0,.985.631,4.266,4.266,0,0,0,.7.024H31.442c.938,0,1.863,0,2.794.007.9,0,1.816.005,2.735.005,1.333,0,2.677-.005,4.008-.027a7.26,7.26,0,0,0,4.984-12.34M4.75,10.532A4.625,4.625,0,0,1,3.9,5.461,4.745,4.745,0,0,1,8.036,2.395a3.433,3.433,0,0,1,.4-.018H44.478c-2.023,4.277-2.023,4.894-.08,9.787H19.469V7.876c-.007-1.392-.344-1.732-1.717-1.74-1.943-.005-4.251-.01-6.627,0-1.207.007-1.576.376-1.583,1.583-.005,1.05,0,2.1,0,3.173l-.007.009v1.261A5.056,5.056,0,0,1,4.75,10.532m12.5-2.19V20.588c-.652-.5-1.254-.919-1.8-1.4a1.281,1.281,0,0,0-1.808-.1,1.108,1.108,0,0,0-.117.12c-.52.457-1.087.86-1.74,1.369l0-12.234ZM45.03,25.9a4.67,4.67,0,0,1-4.261,2.464q-14.493.013-28.988.007H5.092c-.1,0-.2-.008-.318-.016,1.714-3.055,2.236-5.692.016-9.746H9.537c0,.309,0,.619-.007.929-.009.933-.016,1.9.028,2.849a3.006,3.006,0,0,0,.3,1.014c.06.14.12.279.169.42l.061.174.174-.069c.139-.05.283-.091.427-.134a3.187,3.187,0,0,0,.967-.4c.706-.5,1.372-1.028,2.079-1.59.248-.2.5-.4.761-.6.243.19.483.382.723.572.681.544,1.385,1.1,2.109,1.608.371.259,1.106.642,1.516.435.428-.217.581-1.021.6-1.464.047-.93.038-1.88.029-2.8,0-.326-.005-.646-.007-.971l.036-.01a.9.9,0,0,1,.194-.038q2.913,0,5.827-.008c5.053-.009,10.277-.018,15.414.023a4.738,4.738,0,0,1,4.113,2.441A4.857,4.857,0,0,1,45.03,25.9" transform="translate(0.104 -0.001)" fill="#1e2663"/>
        <path id="Path_64186" data-name="Path 64186" d="M16.591,20.3l-.294-.226c-.2-.158-.4-.307-.6-.452-.427-.32-.831-.621-1.21-.955a1.107,1.107,0,0,0-1.562-.108,1.046,1.046,0,0,0-.124.126c-.359.315-.742.607-1.147.917-.191.146-.39.3-.6.459l-.295.231V7.5h5.827Zm-2.93-2.377a1.627,1.627,0,0,1,1.068.471c.369.326.767.622,1.188.936l.31.232V7.865h-5.1V19.549l.307-.234c.4-.306.779-.594,1.128-.9a1.676,1.676,0,0,1,1.1-.489" transform="translate(0.942 0.656)" fill="#1e2663"/>
      </g>
    </g>
  </g>
</svg>
