<svg id="Group_7382" data-name="Group 7382" xmlns="http://www.w3.org/2000/svg" xmlns:xlink="http://www.w3.org/1999/xlink" width="65.557" height="64.031" viewBox="0 0 65.557 64.031">
  <defs>
    <clipPath id="clip-path">
      <rect id="Rectangle_6278" data-name="Rectangle 6278" width="65.557" height="64.031" transform="translate(0 0)" fill="#fff"/>
    </clipPath>
  </defs>
  <g id="Group_7381" data-name="Group 7381" clip-path="url(#clip-path)">
    <path id="Path_41214" data-name="Path 41214" d="M28.23.016C36.968.016,45.705.03,54.443,0A1.955,1.955,0,0,1,56.53,2.1c-.024,6.924-.014,13.848-.014,20.772q0,11.891.007,23.78a1.992,1.992,0,0,1-.821,1.866,1.641,1.641,0,0,1-2.5-1.054,4.4,4.4,0,0,1-.059-.859q0-21.173,0-42.344c0-.285.079-.675-.071-.825s-.539-.071-.823-.071q-24.052-.006-48.1-.007c-.778,0-.779,0-.779.8q0,23.251,0,46.5a13.414,13.414,0,0,0,.357,3.776A8.594,8.594,0,0,0,8.09,59.705a8.783,8.783,0,0,0,4.347.969q20.388-.009,40.774.005A8.731,8.731,0,0,0,60.1,57.622a7.847,7.847,0,0,0,2.048-4.987c.075-1.939.038-3.882.039-5.823q0-18.915,0-37.831c0-.725-.018-1.452.03-2.175a1.666,1.666,0,0,1,3.325.2c.007.106,0,.213,0,.32q0,22.052,0,44.1a12.411,12.411,0,0,1-2.171,7.388,12.058,12.058,0,0,1-9.04,5.194c-.211.021-.426.015-.639.015H11.971A12.112,12.112,0,0,1,.895,56.456,13,13,0,0,1,0,51.68Q.006,26.794,0,1.906A1.762,1.762,0,0,1,1.38.046,2.367,2.367,0,0,1,1.857.017H28.23" fill="#fff"/>
    <path id="Path_41215" data-name="Path 41215" d="M18.252,39.193H9.293A1.815,1.815,0,0,1,7.455,38.02a3.076,3.076,0,0,1-.137-1.005q-.01-8.544,0-17.087c0-.266.012-.534.033-.8a1.789,1.789,0,0,1,1.784-1.7c.021,0,.043,0,.064,0q9.055,0,18.111,0a1.793,1.793,0,0,1,1.786,1.325,4.369,4.369,0,0,1,.093.983q.009,5.184,0,10.367,0,3.216,0,6.432c0,.245,0,.491-.008.736a1.85,1.85,0,0,1-1.971,1.92q-4.48,0-8.96,0m7.487-3.385V20.825c-.071-.008-.112-.016-.153-.016q-7.12-.01-14.24-.017c-.615,0-.612.01-.612.611q0,6.977,0,13.953c0,.44,0,.443.433.444l13.665.008h.909" fill="#fff"/>
    <path id="Path_41216" data-name="Path 41216" d="M28.124,44.41H45.95a7.082,7.082,0,0,1,.8.036,1.67,1.67,0,0,1-.009,3.327,7.663,7.663,0,0,1-.829.047q-17.81,0-35.62,0a7.431,7.431,0,0,1-.83-.043A1.722,1.722,0,0,1,7.923,46.1a1.763,1.763,0,0,1,1.545-1.653,5.656,5.656,0,0,1,.638-.034H28.124Z" fill="#fff"/>
    <path id="Path_41217" data-name="Path 41217" d="M28.162,9.793q9.04,0,18.08-.007a1.9,1.9,0,0,1,1.741.8,1.649,1.649,0,0,1-1.126,2.551,5.464,5.464,0,0,1-.829.055q-17.969,0-35.936,0a2.285,2.285,0,0,1-1.459-.368,1.651,1.651,0,0,1-.657-1.745,1.778,1.778,0,0,1,1.562-1.27c.415-.025.832-.016,1.248-.016q8.688,0,17.376,0Z" fill="#fff"/>
    <path id="Path_41218" data-name="Path 41218" d="M31.06,53.116q7.442,0,14.883,0a4.847,4.847,0,0,1,1.016.083,1.7,1.7,0,0,1,1.313,1.768,1.74,1.74,0,0,1-1.542,1.511c-.275.027-.553.043-.83.043q-14.85,0-29.7,0c-.277,0-.555-.012-.831-.038a1.752,1.752,0,0,1-1.575-1.653,1.773,1.773,0,0,1,1.554-1.682,6.591,6.591,0,0,1,.7-.034q7.5,0,15.011,0Z" fill="#fff"/>
    <path id="Path_41219" data-name="Path 41219" d="M41.483,19.114c1.94,0,3.88,0,5.82,0a1.705,1.705,0,0,1,1.875,1.571,1.742,1.742,0,0,1-1.367,1.793,4.149,4.149,0,0,1-.668.052q-5.534,0-11.066,0c-.287,0-.575-.017-.861-.044A1.755,1.755,0,0,1,33.639,20.8a1.711,1.711,0,0,1,1.578-1.644c.871-.05,1.747-.037,2.62-.042,1.215,0,2.431,0,3.646,0Z" fill="#fff"/>
    <path id="Path_41220" data-name="Path 41220" d="M41.387,30.17c-2.025,0-4.05.022-6.074-.009a1.693,1.693,0,0,1-1.646-1.94,1.766,1.766,0,0,1,1.422-1.38,6.552,6.552,0,0,1,.829-.048q5.724-.006,11.449,0a1.692,1.692,0,0,1,1.81,1.5,1.711,1.711,0,0,1-1.524,1.875c-1.192.05-2.387.027-3.58.031-.9,0-1.791,0-2.686,0V30.17" fill="#fff"/>
    <path id="Path_41221" data-name="Path 41221" d="M41.455,34.957c2.026,0,4.053-.01,6.079.005a1.678,1.678,0,0,1,.25,3.332,4.27,4.27,0,0,1-.668.055c-3.786,0-7.572.01-11.358-.01a2.868,2.868,0,0,1-1.226-.265,1.586,1.586,0,0,1-.845-1.827,1.785,1.785,0,0,1,1.594-1.275c.457-.024.916-.019,1.375-.02q2.4,0,4.8,0Z" fill="#fff"/>
  </g>
</svg>
