<svg xmlns="http://www.w3.org/2000/svg" width="52.468" height="45.754" viewBox="0 0 52.468 45.754">
  <g id="Group_16373" data-name="Group 16373" transform="translate(0 0)">
    <g id="Group_16374" data-name="Group 16374" transform="translate(0 0)">
      <path id="Path_64213" data-name="Path 64213" d="M41.819,41.859c1.479.8,3.036,1.609,4.666,2.458l.512.267-.052-.316c-.33-1.985-.643-3.863-.993-5.734a2.066,2.066,0,0,1,.737-2.083c1.4-1.346,2.854-2.766,4.3-4.183l.035-.034-.39-.061c-1.591-.248-3.095-.483-4.624-.641a3.314,3.314,0,0,1-3.266-2.365,23.584,23.584,0,0,0-1.316-2.7c-.313-.64-.614-1.242-.922-1.862l-.464.945c-.757,1.543-1.513,3.081-2.3,4.6a2.421,2.421,0,0,1-1.531,1.141c-.944.184-1.864.311-2.753.435l-.115.016c-.37.051-.74.1-1.109.158-.634.1-1.265.193-1.859.286l.268.292c1.162,1.269,2.336,2.553,3.533,3.792A2.469,2.469,0,0,1,35,38.91c-.213.92-.39,1.91-.521,2.924-.153.92-.3,1.813-.449,2.749l.313-.164c1.7-.886,3.323-1.731,4.929-2.608a2.3,2.3,0,0,1,1.228-.345,2.4,2.4,0,0,1,1.322.394" transform="translate(1.444 1.171)" fill="#f20026"/>
      <path id="Path_64214" data-name="Path 64214" d="M32.477,42.76q-12.143,0-24.287,0A31.011,31.011,0,0,1,4.9,42.632a2.475,2.475,0,0,1-2.209-2.2,5.162,5.162,0,0,1-.069-.842q-.006-12.917,0-25.833v-.433H3.651q18.683,0,37.366,0c.461,0,.461,0,.461.462q0,3.774,0,7.548l2.593,2.12q-.016-5.53-.031-11.06a20.361,20.361,0,0,0-.07-2.414,5.3,5.3,0,0,0-4.575-4.439c-.79-.072-1.589-.05-2.385-.054-.247,0-.327-.087-.323-.331q.014-.9-.01-1.791A3.478,3.478,0,0,0,33.984.078a3.284,3.284,0,0,0-3.743,2.659,16.448,16.448,0,0,0-.125,2.377c-.006.243-.069.326-.32.324-1.236-.009-2.472-.005-3.708,0-.207,0-.249-.089-.29-.272q-.358-1.6-.751-3.2A2.478,2.478,0,0,0,24.222.7a2.993,2.993,0,0,0-4.27.435,4.327,4.327,0,0,0-.644,1.416c-.192.8-.277,1.625-.389,2.443-.034.256-.091.382-.394.378-1.32-.018-2.64-.013-3.959,0-.226,0-.287-.068-.281-.287.019-.638.047-1.278.019-1.915a3.366,3.366,0,0,0-3-3.132A3.256,3.256,0,0,0,7.918,2.8C7.8,3.6,7.8,4.426,7.751,5.24c-.009.162-.016.28-.237.271C6.907,5.487,6.3,5.5,5.692,5.469A5.52,5.52,0,0,0,.176,9.5,9.708,9.708,0,0,0,.005,12.03Q.005,26,.015,39.966A5.229,5.229,0,0,0,.22,41.387a5.431,5.431,0,0,0,4.81,3.945c.739.062,1.485.052,2.228.053q7.337.006,14.675,0l9.955,0ZM31.531,2.688A1.688,1.688,0,0,1,33.339,1.32a1.827,1.827,0,0,1,1.847,1.043,2.684,2.684,0,0,1,.247,1.057c.03,1.13.012,2.262.012,3.392h0c0,1.142.02,2.284-.006,3.425a2,2,0,0,1-1.9,2.063,2.067,2.067,0,0,1-2.12-2.151C31.4,9.574,31.406,9,31.405,8.421c0-1.55-.016-3.1-.005-4.65a4.374,4.374,0,0,1,.131-1.083m-11.306.745A2,2,0,0,1,23.13,1.459a1.983,1.983,0,0,1,1.111,1.872q.057,3.471,0,6.943a2.021,2.021,0,0,1-3.367,1.517,1.991,1.991,0,0,1-.655-1.572c-.012-1.131,0-2.263,0-3.393s-.016-2.263.006-3.393m-11.206.24A2.407,2.407,0,0,1,9.672,1.8a1.971,1.971,0,0,1,2.185-.4,1.938,1.938,0,0,1,1.213,1.726,25.333,25.333,0,0,1,.016,3.917c-.019,1.077.007,2.155-.019,3.231a1.949,1.949,0,0,1-1.975,2.007,2.112,2.112,0,0,1-2.057-2.046c-.021-1.151,0-2.3,0-3.455H9.019c0-1.036,0-2.073,0-3.109" transform="translate(0 0)"/>
    </g>
  </g>
</svg>
