<svg xmlns="http://www.w3.org/2000/svg" width="47.382" height="48.866" viewBox="0 0 47.382 48.866">
  <g id="Group_18429" data-name="Group 18429" transform="translate(1088.587 -7903.725)">
    <g id="Group_18425" data-name="Group 18425" transform="translate(-1088.587 7903.725)">
      <g id="Group_17386" data-name="Group 17386" transform="translate(0 0)">
        <g id="Group_17385" data-name="Group 17385" transform="translate(0 0)">
          <g id="Group_17387" data-name="Group 17387">
            <path id="Path_65804" data-name="Path 65804" d="M35.825,25.953a10.12,10.12,0,0,0,2.217-6.284c0-5.757-4.908-10.435-11.041-10.634-.135,0-.267-.02-.4-.02-.113,0-.223.013-.335.016C20.1,9.2,15.159,13.891,15.159,19.669c0,5.663,4.75,10.281,10.74,10.621.233.013.465.033.7.033.259,0,.515-.02.769-.036a11.863,11.863,0,0,0,6.524-2.409L44.079,38.062l1.927-1.927ZM25.552,24.479l-4.388-4.471L23.5,17.715l2.119,2.161L30.487,15.2l2.268,2.359Z" transform="translate(1.376 0.818)" fill="#ff0089"/>
            <path id="Path_65805" data-name="Path 65805" d="M5.345,41.676H3.054V6.554H5.345V3.5H2.621A2.624,2.624,0,0,0,0,6.12V42.109A2.624,2.624,0,0,0,2.621,44.73H5.345Z" transform="translate(0 0.318)" fill="#1d2465"/>
            <path id="Path_65806" data-name="Path 65806" d="M41.4,40.877v4.935H9.555V3.054H41.4V26.165l3.055,3.423V2.62A2.624,2.624,0,0,0,41.837,0H9.121A2.624,2.624,0,0,0,6.5,2.62V46.245a2.624,2.624,0,0,0,2.621,2.621H41.837a2.624,2.624,0,0,0,2.622-2.621V41.838Z" transform="translate(0.59)" fill="#1d2465"/>
          </g>
        </g>
      </g>
    </g>
  </g>
</svg>
