<svg xmlns="http://www.w3.org/2000/svg" width="50.38" height="41.464" viewBox="0 0 50.38 41.464">
  <g id="Group_16381" data-name="Group 16381" transform="translate(0 0)">
    <g id="Group_16382" data-name="Group 16382">
      <path id="Path_64226" data-name="Path 64226" d="M49.687,30.937c.676-.3.82-.627.592-1.337q-.615-1.931-1.244-3.858a.844.844,0,0,0-1.079-.649c-.447.081-1.035.191-1.619.325a.65.65,0,0,1-.594-.156c-.568-.443-1.189-.9-1.9-1.387a.609.609,0,0,1-.315-.494c-.042-.5-.1-.99-.17-1.574-.08-.653-.357-.895-1.02-.9l-.633,0c-1.107,0-2.214-.006-3.322-.016h-.029c-.742,0-1.021.258-1.1,1.01l-.023.223c-.042.414-.086.842-.158,1.259a.842.842,0,0,1-.309.472c-.575.439-1.2.894-1.959,1.432a.675.675,0,0,1-.455.124c-.329-.057-.661-.126-.982-.194-.236-.05-.472-.1-.708-.144a.833.833,0,0,0-1.053.594c-.486,1.464-.919,2.787-1.324,4.044a.856.856,0,0,0,.521,1.15c.162.076.326.15.489.223.345.156.7.317,1.045.493a.76.76,0,0,1,.331.421c.079.254.136.51.2.781.017.079.035.159.053.24l1.6-.526c-.012-.05-.025-.1-.036-.147-.042-.168-.082-.326-.112-.485-.044-.252-.078-.5-.1-.746a.86.86,0,0,0-.527-.761l-.444-.206q-.283-.13-.567-.264c-.6-.281-.621-.335-.415-.971.155-.484.315-.968.477-1.459l.195-.59.595.124c.38.08.747.156,1.115.235a.9.9,0,0,0,.949-.34,5.847,5.847,0,0,1,2.386-1.747.915.915,0,0,0,.632-.825c.022-.225.051-.45.08-.675s.057-.444.078-.667c.026-.265.144-.379.4-.379h.016c.7.013,1.427.016,2.16.007h.007c.3,0,.361.185.377.367.026.32.063.638.1.956l.048.418a.853.853,0,0,0,.558.771,6.015,6.015,0,0,1,2.474,1.8.881.881,0,0,0,.927.321c.2-.042.4-.081.594-.121.265-.051.531-.1.794-.163a.337.337,0,0,1,.457.273c.2.663.423,1.355.659,2.056a.336.336,0,0,1-.215.485c-.258.109-.514.225-.769.342-.174.079-.348.159-.524.236a.885.885,0,0,0-.57.8,6.167,6.167,0,0,1-.931,2.843.886.886,0,0,0-.017.981q.131.231.259.462c.15.269.3.537.455.8a.338.338,0,0,1-.113.521c-.234.159-.463.327-.692.495l-.32.233-.747.535-.283.2-.444-.487c-.26-.285-.51-.558-.758-.834a.917.917,0,0,0-1-.3,5.339,5.339,0,0,1-2.725.024,1.12,1.12,0,0,0-1.272.413c-.223.265-.456.513-.7.775l-.318.339-.06.066-2.311-1.7L35.21,35l-1.464-.833c-.387.678-.756,1.325-1.126,1.971a.92.92,0,0,0,.318,1.453l3.223,2.347a.866.866,0,0,0,1.328-.126q.207-.222.411-.447c.24-.262.488-.534.745-.79a.784.784,0,0,1,.5-.186c.39-.007.765-.011,1.131-.011.4,0,.782,0,1.163.013a.828.828,0,0,1,.53.2c.242.244.476.5.7.753.17.189.341.378.516.562a.814.814,0,0,0,1.149.107q1.729-1.24,3.45-2.494a.848.848,0,0,0,.265-1.23c-.265-.485-.54-.986-.825-1.47a.644.644,0,0,1-.033-.616c.28-.762.516-1.47.718-2.165a.635.635,0,0,1,.392-.474c.322-.136.639-.28.956-.425.143-.065.285-.131.429-.195" fill="#ec0036"/>
      <path id="Path_64227" data-name="Path 64227" d="M36.86,30.755a3.444,3.444,0,1,1,3.457,3.425,3.451,3.451,0,0,1-3.457-3.425" fill="#ec0036"/>
      <path id="Path_64228" data-name="Path 64228" d="M30.83,39.038c-.2-.032-.409-.055-.611-.1A8.4,8.4,0,0,1,26.31,36.83L16.085,27.087a56.557,56.557,0,0,1,5.462-6.457,57.279,57.279,0,0,1,6.033-5.374l5.874,5.6,2.124-1.206L18.086,2.976a10.779,10.779,0,0,0-5.013-2.7A10.91,10.91,0,0,0,7.706.4,10.613,10.613,0,0,0,2.977,3.19,10.369,10.369,0,0,0,0,10.3a6.793,6.793,0,0,1,5.041-.786A6.784,6.784,0,0,1,9.269,12.5c.036.057.071.113.1.171a6.605,6.605,0,0,1-2.282,9.06L24.679,38.5a10.765,10.765,0,0,0,5.014,2.7,10.918,10.918,0,0,0,2.531.27Z" fill="#333"/>
    </g>
  </g>
</svg>
