<svg xmlns="http://www.w3.org/2000/svg" width="47.786" height="46.687" viewBox="0 0 47.786 46.687">
  <g id="Group_18431" data-name="Group 18431" transform="translate(480.714 -7906.037)">
    <g id="Group_18427" data-name="Group 18427" transform="translate(-480.714 7906.037)">
      <g id="Group_17341" data-name="Group 17341" transform="translate(0 0)">
        <g id="Group_16371" data-name="Group 16371" transform="translate(0 0)">
          <g id="Group_16372" data-name="Group 16372" transform="translate(0 0)">
            <path id="Path_64204" data-name="Path 64204" d="M9.073,30.413l15.732,0V24.857q.007-4.514,0-9.023l-15.733,0q-.007,7.292,0,14.578" transform="translate(-2.667 -2.285)" fill="#ff0089"/>
            <path id="Path_64206" data-name="Path 64206" d="M46.493,3.82a1.406,1.406,0,0,0-1.522,1.289c-.029.419-.027.842-.025,1.251V34.036c0,.358,0,.715,0,1.072.005,1.027.009,2.089-.032,3.129a5.475,5.475,0,0,1-1.431,3.479,6.09,6.09,0,0,1-4.826,2.138q-14.731-.006-29.476,0a6.17,6.17,0,0,1-3.041-.678A6.02,6.02,0,0,1,3.1,39.509a9.445,9.445,0,0,1-.252-2.681V3.219c0-.163,0-.331,0-.354A1.636,1.636,0,0,1,3.2,2.847H37.968c.055,0,.117,0,.178-.008a2.449,2.449,0,0,1,.263-.009.948.948,0,0,1,.006.281c0,.063-.008.124-.008.179v30.6a3.39,3.39,0,0,0,.047.667,1.376,1.376,0,0,0,.195.479,1.393,1.393,0,0,0,1.93.41,1.623,1.623,0,0,0,.681-1.516V13.352q0-5.811.009-11.605a1.465,1.465,0,0,0,0-.242A1.614,1.614,0,0,0,39.555,0Q32.366.027,25.176.017l-4.565,0L1.56.017a1.846,1.846,0,0,0-.4.025A1.477,1.477,0,0,0,.005,1.585V37.559a9.541,9.541,0,0,0,.661,3.529,8.936,8.936,0,0,0,8.194,5.6H39.179a3.062,3.062,0,0,0,.311-.012,8.876,8.876,0,0,0,6.688-3.843,9.12,9.12,0,0,0,1.606-5.456V5.276a1.408,1.408,0,0,0-1.29-1.456" transform="translate(-0.001 0)" fill="#1e2663"/>
            <path id="Path_64207" data-name="Path 64207" d="M6.887,34.161a5.531,5.531,0,0,0,.594.033H33.253a5.759,5.759,0,0,0,.614-.035,1.412,1.412,0,0,0,.011-2.813,5.221,5.221,0,0,0-.6-.027H7.375a3.8,3.8,0,0,0-.488.027,1.481,1.481,0,0,0-1.3,1.4,1.451,1.451,0,0,0,1.3,1.411" transform="translate(0.139 0.78)" fill="#1e2663"/>
            <path id="Path_64208" data-name="Path 64208" d="M33.49,6.91l-25.626,0h-.2c-.238,0-.476,0-.718.012A1.5,1.5,0,0,0,5.636,8,1.408,1.408,0,0,0,6.2,9.484a1.864,1.864,0,0,0,1.013.306c.052,0,.1,0,.155-.007H33.335a4.365,4.365,0,0,0,.631-.042,1.4,1.4,0,0,0,.951-2.166A1.578,1.578,0,0,0,33.49,6.91" transform="translate(0.139 0.172)" fill="#1e2663"/>
            <path id="Path_64209" data-name="Path 64209" d="M11.053,40.3a6.19,6.19,0,0,0,.62.029H33.139c.207,0,.414-.011.621-.032a1.462,1.462,0,0,0,1.3-1.282,1.431,1.431,0,0,0-1.116-1.492,3.607,3.607,0,0,0-.772-.065l-21.6,0a3.939,3.939,0,0,0-.538.026,1.486,1.486,0,0,0-1.308,1.43A1.465,1.465,0,0,0,11.053,40.3" transform="translate(0.242 0.933)" fill="#1e2663"/>
            <path id="Path_64210" data-name="Path 64210" d="M35.364,14.75A1.443,1.443,0,0,0,33.8,13.482h-4v0H26.539c-.486,0-.987,0-1.485.031a1.443,1.443,0,0,0-1.329,1.4,1.475,1.475,0,0,0,1.332,1.42c.213.02.43.033.641.033h8a3.2,3.2,0,0,0,.519-.043,1.459,1.459,0,0,0,1.147-1.508Z" transform="translate(0.591 0.336)" fill="#1e2663"/>
            <path id="Path_64211" data-name="Path 64211" d="M33.848,18.9h-8.3a4.977,4.977,0,0,0-.612.038,1.48,1.48,0,0,0-1.192,1.17,1.459,1.459,0,0,0-.014.175,1.428,1.428,0,0,0,1.4,1.459c1.028.015,2.059.012,3.089.008l3.952.016h.45c.48,0,.968,0,1.458-.025a1.444,1.444,0,0,0,1.284-1.582A1.416,1.416,0,0,0,33.848,18.9m-4.317,2.644h0v0Z" transform="translate(0.591 0.471)" fill="#1e2663"/>
            <path id="Path_64212" data-name="Path 64212" d="M35.372,26.092a1.419,1.419,0,0,0-1.4-1.438c-.977-.005-1.954,0-2.93,0l-1.346,0,0-.007H25.917c-.273,0-.545,0-.819.014a1.5,1.5,0,0,0-1.337,1.076,1.356,1.356,0,0,0,.727,1.558,2.262,2.262,0,0,0,.953.21h.018q2.02.011,4.038.009h4.172a3.1,3.1,0,0,0,.515-.043,1.417,1.417,0,0,0,1.187-1.377" transform="translate(0.591 0.614)" fill="#1e2663"/>
          </g>
        </g>
      </g>
    </g>
  </g>
</svg>
