<svg id="Group_6882" data-name="Group 6882" xmlns="http://www.w3.org/2000/svg" width="62.931" height="58.823" viewBox="0 0 62.931 58.823">
  <g id="Group_6883" data-name="Group 6883">
    <path id="Path_30966" data-name="Path 30966" d="M119.576,72.146l-.012-1.466a1.715,1.715,0,0,0-1.494-1.716,4.638,4.638,0,0,0-.612-.036H117.4a20.321,20.321,0,0,1-4.09-.443,14.633,14.633,0,0,1-6.065-2.889c-.261-.208-.507-.434-.767-.673-.176-.162-.353-.324-.534-.48a1.719,1.719,0,0,0-2.327.012c-.148.129-.292.263-.434.4l-.045.042a14.459,14.459,0,0,1-4.822,2.981,16.718,16.718,0,0,1-4.6.977c-.413.033-.841.048-1.255.064-.274.01-.548.02-.821.035a1.745,1.745,0,0,0-1.629,1.691l-.06,4.767v.381a46.255,46.255,0,0,0,.221,5.363,30.687,30.687,0,0,0,.656,3.912A19.581,19.581,0,0,0,93.052,90.6a18.264,18.264,0,0,0,4.683,5.1,21.455,21.455,0,0,0,4.18,2.411c.514.228,1.04.435,1.549.636q.31.122.62.246a1.892,1.892,0,0,0,.706.145,1.594,1.594,0,0,0,.6-.115c.26-.1.521-.206.783-.307.578-.225,1.175-.457,1.757-.713a19.4,19.4,0,0,0,2.985-1.652,18.369,18.369,0,0,0,4.768-4.474,17.386,17.386,0,0,0,1.991-3.489,24.087,24.087,0,0,0,1.655-6.457,31.4,31.4,0,0,0,.264-3.485c.024-2.1.006-4.238-.013-6.3m-3.449,5.691a33.271,33.271,0,0,1-.374,4.636,18.269,18.269,0,0,1-1.333,4.743,13.852,13.852,0,0,1-4.664,5.728,21.291,21.291,0,0,1-4.731,2.511.584.584,0,0,1-.5-.007,21.2,21.2,0,0,1-5.1-2.8,14.58,14.58,0,0,1-2.17-2.1A14.247,14.247,0,0,1,94.139,84.1c-.2-.905-.358-1.884-.481-2.91a35.841,35.841,0,0,1-.229-4.621q.009-1.16.026-2.321.012-.94.022-1.881c.509-.045,1.033-.092,1.55-.154a18.876,18.876,0,0,0,6.293-1.857,18.45,18.45,0,0,0,3.469-2.291A18.725,18.725,0,0,0,116.1,72.371q.006.758.013,1.517c.012,1.295.025,2.634.016,3.948" transform="translate(-56.669 -40.317)" fill="#544b7d"/>
    <path id="Path_30967" data-name="Path 30967" d="M123.305,97.906a2.027,2.027,0,0,0-1.079.646l-5.195,5.194-.057-.057-.653-.656q-.677-.681-1.356-1.357a1.723,1.723,0,0,0-2.86.7,1.7,1.7,0,0,0,.45,1.8q1.6,1.62,3.218,3.228a1.953,1.953,0,0,0,.7.45,1.731,1.731,0,0,0,.584.1,1.874,1.874,0,0,0,1.345-.627l6.107-6.112a5.8,5.8,0,0,0,.529-.581,1.744,1.744,0,0,0-1.73-2.727" transform="translate(-70.568 -61.662)" fill="#544a7e"/>
    <path id="Path_30968" data-name="Path 30968" d="M33.762,26.394a20.951,20.951,0,0,0-4.375-2.588,13.382,13.382,0,1,0-16.754,0A21.1,21.1,0,0,0,0,43.047v.669H4.727v-.669A16.27,16.27,0,0,1,30.98,30.187a24.311,24.311,0,0,1,2.782-3.792M21.01,22.037a8.655,8.655,0,1,1,8.655-8.655,8.665,8.665,0,0,1-8.655,8.655" transform="translate(0)" fill="#e9003c"/>
  </g>
</svg>
