<svg xmlns="http://www.w3.org/2000/svg" width="32.881" height="32.274" viewBox="0 0 32.881 32.274">
  <g id="Group_6324" data-name="Group 6324" transform="translate(0 0)">
    <g id="Group_6325" data-name="Group 6325" transform="translate(0 0)">
      <path id="Path_36045" data-name="Path 36045" d="M18.358,33.019h-.607a15.268,15.268,0,0,1,0-30.536h.607a15.268,15.268,0,1,1,0,30.536" transform="translate(-1.614 -1.614)" fill="#fff"/>
      <path id="Path_36046" data-name="Path 36046" d="M16.744,32.274h-.607A16.137,16.137,0,0,1,16.137,0h.607a16.137,16.137,0,1,1,0,32.274" transform="translate(0 0)" fill="#00c72e"/>
      <path id="Path_36047" data-name="Path 36047" d="M39.489,28.235,31,36.719,27.647,33.36l-2.333,2.333L31,41.385,41.821,30.569Z" transform="translate(-16.457 -18.357)" fill="#fff"/>
    </g>
  </g>
</svg>
