<svg xmlns="http://www.w3.org/2000/svg" width="34.49" height="36.529" viewBox="0 0 34.49 36.529"><defs><style>.a{fill:#2a2a2a;}.b{fill:#fff;}.c{fill:#e30045;stroke:#fff;}</style></defs><g transform="translate(-553.988 -674.739)"><path class="a" d="M85.764,642.41l-4.04-2.23,4.844-8.531a8.442,8.442,0,0,1,4.669-4.1,7.244,7.244,0,0,1,5.852.789,7.87,7.87,0,0,1,3.016,2.76,6.241,6.241,0,0,1,.888,3.677,9.627,9.627,0,0,1-1.353,4.209l-4.789,8.437-4.016-2.214" transform="translate(664.279 49.269) rotate(16)"/><path class="b" d="M82.346,640.629s.658-.574,2.191,1.358c0,0,4.285-7.6,5.256-9.006a18.947,18.947,0,0,1,1.851-2.488c1-1.042,2.107-1.844,2.974-1.582,0,0-2.75-1.562-4.353-.452a5.977,5.977,0,0,0-1.454,1.3,27.357,27.357,0,0,0-2.575,4.06C84.529,636.767,82.346,640.629,82.346,640.629Z" transform="translate(664.879 50.811) rotate(16)"/><path class="c" d="M99.214,639.388l-5.029,8.988a10.592,10.592,0,0,1-3.058,3.567,6.677,6.677,0,0,1-3.771,1.285,7.981,7.981,0,0,1-4.079-1.115,7.246,7.246,0,0,1-3.812-4.731,9.048,9.048,0,0,1,1.2-6.439l5.084-9.087,4.144,2.319-5.141,9.189q-1.845,3.463.689,4.88a2.624,2.624,0,0,0,2.418.225,5.327,5.327,0,0,0,2.222-2.426l5.011-8.959Z" transform="translate(658.45 55.329) rotate(16)"/><rect class="b" width="3" height="16" transform="translate(565.257 687.744) rotate(-45)"/></g></svg>