<svg xmlns="http://www.w3.org/2000/svg" width="12.655" height="12.655" viewBox="0 0 12.655 12.655"><defs><style>.a{fill:#fff;}</style></defs><g transform="translate(6.324 1.607)"><path class="a" d="M828.349,149.257A4.74,4.74,0,0,1,833.1,154h-4.75Z" transform="translate(-828.349 -149.256)"/></g><g transform="translate(3.583 9.6)"><path class="a" d="M717.884,472.071l.4-.695.693.4-.4.695Z" transform="translate(-717.884 -471.376)"/></g><g transform="translate(3.584 2.035)"><path class="a" d="M718.32,167.607l-.4-.694.693-.4.4.694Z" transform="translate(-717.919 -166.512)"/></g><g transform="translate(1.986 3.634)"><path class="a" d="M654.217,232.031l-.694-.4.4-.693.695.4Z" transform="translate(-653.523 -230.935)"/></g><g transform="translate(1.984 8.001)"><path class="a" d="M653.461,407.349l.695-.4.4.692-.693.4Z" transform="translate(-653.461 -406.947)"/></g><g transform="translate(9.549 8.001)"><path class="a" d="M958.343,407.641l.4-.694.694.4-.4.694Z" transform="translate(-958.343 -406.947)"/></g><g transform="translate(7.95 9.599)"><path class="a" d="M895,472.045l-.693.4-.4-.694.694-.4Z" transform="translate(-893.9 -471.351)"/></g><g transform="translate(1.552 5.975)"><path class="a" d="M636.055,326.068v-.784h.786v.784Z" transform="translate(-636.055 -325.284)"/></g><g transform="translate(5.927 10.344)"><path class="a" d="M813.122,502.153h-.777v-.784h.777Z" transform="translate(-812.345 -501.369)"/></g><path class="a" d="M579.827,97.155A6.327,6.327,0,1,1,584.3,95.3,6.286,6.286,0,0,1,579.827,97.155Zm0-11.861a5.533,5.533,0,1,0,5.533,5.533A5.54,5.54,0,0,0,579.827,85.294Z" transform="translate(-573.5 -84.5)"/></svg>