<svg xmlns="http://www.w3.org/2000/svg" width="27.754" height="27.754" viewBox="0 0 27.754 27.754"><defs><style>.a{fill:#ff492c;}</style></defs><g transform="translate(-573.5 -84.5)"><g transform="translate(587.369 88.024)"><path class="a" d="M828.349,149.258a10.4,10.4,0,0,1,10.418,10.412H828.349Z" transform="translate(-828.349 -149.256)"/></g><g transform="translate(581.357 105.553)"><path class="a" d="M717.884,472.9l.883-1.524,1.521.877-.879,1.523Z" transform="translate(-717.884 -471.376)"/></g><g transform="translate(581.359 88.963)"><path class="a" d="M718.8,168.914l-.88-1.522,1.52-.88.883,1.521Z" transform="translate(-717.919 -166.512)"/></g><g transform="translate(577.855 92.469)"><path class="a" d="M655.046,233.338l-1.523-.882.877-1.521,1.524.876Z" transform="translate(-653.523 -230.935)"/></g><g transform="translate(577.851 102.047)"><path class="a" d="M653.461,407.828l1.524-.881.88,1.518-1.52.885Z" transform="translate(-653.461 -406.947)"/></g><g transform="translate(594.443 102.047)"><path class="a" d="M958.343,408.468l.88-1.521,1.522.879-.878,1.521Z" transform="translate(-958.343 -406.947)"/></g><g transform="translate(590.936 105.552)"><path class="a" d="M896.3,472.874l-1.52.879-.883-1.523,1.523-.879Z" transform="translate(-893.9 -471.351)"/></g><g transform="translate(576.904 97.603)"><path class="a" d="M636.055,327v-1.719h1.723V327Z" transform="translate(-636.055 -325.284)"/></g><g transform="translate(586.498 107.186)"><path class="a" d="M814.049,503.088h-1.7v-1.719h1.7Z" transform="translate(-812.345 -501.369)"/></g><g transform="translate(573.5 84.5)"><path class="a" d="M587.377,112.254a13.877,13.877,0,1,1,9.813-4.064A13.786,13.786,0,0,1,587.377,112.254Zm0-26.012a12.135,12.135,0,1,0,12.135,12.135A12.149,12.149,0,0,0,587.377,86.241Z" transform="translate(-573.5 -84.5)"/></g></g></svg>