<svg xmlns="http://www.w3.org/2000/svg" width="16.201" height="19.673" viewBox="0 0 16.201 19.673"><defs><style>.a{fill:#b3c5e9;}</style></defs><path class="a" d="M1248.248,582.181a2,2,0,0,0,2.023,1.492h7.659a2,2,0,0,0,2.023-1.492l1.512-12.317h-14.728Zm8.8-10.118a.737.737,0,0,1,1.473,0l-.737,8.679a.736.736,0,0,1-1.473,0Zm-3.682,0a.736.736,0,0,1,1.473,0v8.679a.736.736,0,0,1-1.473,0v-8.679Zm-2.946-.733a.735.735,0,0,1,.736.733l.737,8.679a.736.736,0,0,1-1.473,0l-.737-8.679A.735.735,0,0,1,1250.418,571.329Zm10.6-4.4h-3.24v-1.467c0-1.112-.361-1.466-1.473-1.466h-4.418a1.285,1.285,0,0,0-1.473,1.466v1.467h-3.24a1.1,1.1,0,1,0,0,2.2h13.845a1.1,1.1,0,1,0,0-2.2Zm-4.713,0h-4.418v-1.467h4.418v1.467Z" transform="translate(-1246 -564)"/></svg>