<svg xmlns="http://www.w3.org/2000/svg" width="15.933" height="12.943" viewBox="0 0 15.933 12.943">
  <path id="Path_28532" data-name="Path 28532" d="M-539.481,316.756a9.283,9.283,0,0,0,4.988,1.444,9.33,9.33,0,0,0,9.33-9.33c0-.129,0-.256-.008-.384a7.339,7.339,0,0,0,1.622-1.664,7.574,7.574,0,0,1-1.852.481h-.006l0,0a3.468,3.468,0,0,0,1.424-1.817,11.393,11.393,0,0,1-1.589.662c-.154.051-.315.1-.48.148a3.263,3.263,0,0,0-2.389-1.036,3.273,3.273,0,0,0-3.274,3.272,3.271,3.271,0,0,0,.084.741,9.857,9.857,0,0,1-6.719-3.4s-1.565,2.136.933,4.332a3.363,3.363,0,0,1-1.414-.421,3.111,3.111,0,0,0,2.587,3.249,3,3,0,0,1-1.444.061,3.227,3.227,0,0,0,3.009,2.286,6.289,6.289,0,0,1-4.807,1.374Zm0,0" transform="translate(539.482 -305.257)" fill="#fff"/>
</svg>
