<svg xmlns="http://www.w3.org/2000/svg" width="21.096" height="17.137" viewBox="0 0 21.096 17.137"><defs><style>.a{fill:#00acf3;}</style></defs><path class="a" d="M-539.481,320.482a12.291,12.291,0,0,0,6.6,1.912,12.354,12.354,0,0,0,12.353-12.353c0-.171,0-.34-.01-.508a9.721,9.721,0,0,0,2.148-2.2,10.028,10.028,0,0,1-2.453.636h-.008l.006,0a4.592,4.592,0,0,0,1.886-2.406,15.086,15.086,0,0,1-2.1.877c-.2.068-.416.134-.636.2a4.321,4.321,0,0,0-3.164-1.372,4.334,4.334,0,0,0-4.335,4.333,4.332,4.332,0,0,0,.112.982,13.052,13.052,0,0,1-8.9-4.5s-2.072,2.829,1.235,5.736a4.452,4.452,0,0,1-1.872-.558,4.119,4.119,0,0,0,3.425,4.3,3.968,3.968,0,0,1-1.912.08,4.273,4.273,0,0,0,3.984,3.027,8.327,8.327,0,0,1-6.365,1.819Zm0,0" transform="translate(539.482 -305.257)"/></svg>