<svg xmlns="http://www.w3.org/2000/svg" xmlns:xlink="http://www.w3.org/1999/xlink" width="30.275" height="29.775" viewBox="0 0 30.275 29.775">
  <defs>
    <clipPath id="clip-path">
      <rect id="Rectangle_5171" data-name="Rectangle 5171" width="30.275" height="29.775" fill="#e7245f"/>
    </clipPath>
  </defs>
  <g id="Group_6298" data-name="Group 6298" transform="translate(0 0)">
    <g id="Group_6194" data-name="Group 6194" transform="translate(0 0.001)" clip-path="url(#clip-path)">
      <path id="Path_36020" data-name="Path 36020" d="M15.08,22.6q-6.346,0-12.692,0A2.1,2.1,0,0,1,0,20.205Q0,11.3,0,2.392A2.091,2.091,0,0,1,2.389,0q12.75,0,25.5,0a2.09,2.09,0,0,1,2.385,2.393q0,8.907,0,17.813A2.1,2.1,0,0,1,27.888,22.6q-6.4,0-12.808,0m13-20.424H2.2V17.756H28.081ZM17,20.146a1.723,1.723,0,0,0-1.7-1.756,1.73,1.73,0,1,0-.057,3.459A1.721,1.721,0,0,0,17,20.146" transform="translate(0 0)" fill="#e7245f"/>
      <path id="Path_36021" data-name="Path 36021" d="M36.853,70.834H24.676A3.538,3.538,0,0,1,25.4,67.79c.756-.8,1.331-1.763,2.025-2.623a1.051,1.051,0,0,1,.708-.353q2.618-.044,5.238,0a1.046,1.046,0,0,1,.7.363c.8,1,1.535,2.049,2.331,3.051a1.842,1.842,0,0,1,.454,1.382c-.034.384-.007.773-.007,1.222" transform="translate(-15.608 -41.059)" fill="#e7245f"/>
      <path id="Path_36022" data-name="Path 36022" d="M40.4,51.961a1.72,1.72,0,0,1-1.759,1.7A1.729,1.729,0,1,1,38.7,50.2a1.722,1.722,0,0,1,1.7,1.756m-2.792-.053a1.079,1.079,0,0,0,1.062,1.087,1.048,1.048,0,0,0,1.089-1.048,1.08,1.08,0,0,0-1.051-1.1,1.1,1.1,0,0,0-1.1,1.057" transform="translate(-23.401 -31.815)" fill="#e7245f"/>
      <path id="Path_36023" data-name="Path 36023" d="M38.791,53.026a1.1,1.1,0,0,1,1.1-1.057,1.08,1.08,0,0,1,1.051,1.1,1.048,1.048,0,0,1-1.089,1.048,1.079,1.079,0,0,1-1.062-1.087" transform="translate(-24.581 -32.933)" fill="#e7245f"/>
    </g>
  </g>
</svg>
