<svg xmlns="http://www.w3.org/2000/svg" width="71.909" height="49.056" viewBox="0 0 71.909 49.056">
  <g id="Group_6873" data-name="Group 6873" transform="translate(-393.835 -277)">
    <g id="Group_6868" data-name="Group 6868" transform="translate(394.835 278)">
      <g id="Group_6872" data-name="Group 6872" transform="translate(0 0)">
        <path id="Path_30963" data-name="Path 30963" d="M52.418,34.6a12.322,12.322,0,1,0-15.426,0A19.427,19.427,0,0,0,25.359,52.316v.616h4.353v-.616a14.993,14.993,0,0,1,29.986,0v.616H64.05v-.616A19.426,19.426,0,0,0,52.418,34.6m.256-9.6a7.969,7.969,0,1,1-7.969-7.969A7.978,7.978,0,0,1,52.674,25" transform="translate(-9.75 -4.875)" fill="#544c7c"/>
        <path id="Path_30964" data-name="Path 30964" d="M83.013,21.92A12.31,12.31,0,1,0,64.7,6.068l-.365.616L65,6.953a14.262,14.262,0,0,1,2.645,1.4l.532.361.337-.548a7.979,7.979,0,0,1,1.946-2.16A7.884,7.884,0,0,1,75.3,4.352a7.968,7.968,0,1,1-.76,15.9l-.641-.061-.031.643a14.173,14.173,0,0,1-.5,3.123l-.24.856,1.221-.108a12.012,12.012,0,0,1,2.752.057,14.992,14.992,0,0,1,13.2,14.874v.616h4.353v-.616A19.426,19.426,0,0,0,83.013,21.92" transform="translate(-23.736 -1)" fill="#e60041"/>
        <path id="Path_30965" data-name="Path 30965" d="M20.3,24.706l1.221.108-.24-.856a14.185,14.185,0,0,1-.5-3.123l-.032-.643-.641.061a7.968,7.968,0,1,1-.76-15.9,7.882,7.882,0,0,1,4.84,1.654,7.991,7.991,0,0,1,1.946,2.16l.337.548L27,8.354a14.185,14.185,0,0,1,2.645-1.4l.664-.268-.365-.616A12.312,12.312,0,1,0,11.632,21.92,19.428,19.428,0,0,0,0,39.637v.616H4.353v-.616a14.992,14.992,0,0,1,13.2-14.874,12.07,12.07,0,0,1,2.751-.057" transform="translate(-1 -1)" fill="#e60041"/>
      </g>
    </g>
  </g>
</svg>
