<svg xmlns="http://www.w3.org/2000/svg" width="30" height="30" viewBox="0 0 30 30"><defs><style>.a{fill:#EC0085;}</style></defs><g transform="translate(0)"><path class="a" d="M133.941,335.266a7.606,7.606,0,0,0-7.6,7.6c0,.242.012.482.034.718a15.038,15.038,0,0,0,15.125,0c.022-.237.034-.476.034-.718a7.606,7.606,0,0,0-7.6-7.6Zm0,0" transform="translate(-118.942 -315.622)"/><path class="a" d="M25.606,4.393A15,15,0,0,0,4.393,25.606a15.2,15.2,0,0,0,1.265,1.131,9.373,9.373,0,0,1,5.786-8.148,6.527,6.527,0,1,1,7.109,0,9.373,9.373,0,0,1,5.786,8.148,15.246,15.246,0,0,0,1.265-1.131,15,15,0,0,0,0-21.213Zm0,0" transform="translate(0 0)"/><path class="a" d="M184.14,147.238a4.769,4.769,0,1,0-4.769,4.769A4.775,4.775,0,0,0,184.14,147.238Zm0,0" transform="translate(-164.371 -134.121)"/></g></svg>