<svg xmlns="http://www.w3.org/2000/svg" width="101.942" height="55.747" viewBox="0 0 101.942 55.747">
  <g id="Group_15192" data-name="Group 15192" transform="translate(0.634 0.634)">
    <g id="Group_15193" data-name="Group 15193" transform="translate(0 0)">
      <path id="Path_51737" data-name="Path 51737" d="M6.249,2H53.78A14.445,14.445,0,0,1,68.225,16.445V49.5a4.248,4.248,0,0,1-4.248,4.248H16.446A14.445,14.445,0,0,1,2,39.3V6.249A4.249,4.249,0,0,1,6.249,2Z" transform="translate(-0.634 -0.635)" fill="none" stroke="#fff" stroke-width="4"/>
      <path id="Path_51738" data-name="Path 51738" d="M110.082,39.985l14.672,12.488a4.249,4.249,0,0,0,7-3.236V6.949a4.249,4.249,0,0,0-7-3.236L110.082,16.2a4.25,4.25,0,0,0-1.495,3.236V36.749A4.249,4.249,0,0,0,110.082,39.985Z" transform="translate(-32.448 -0.854)" fill="none" stroke="#fff" stroke-width="4"/>
    </g>
  </g>
</svg>
