<svg xmlns="http://www.w3.org/2000/svg" width="28.09" height="16.503" viewBox="0 0 28.09 16.503"><defs><style>.a{fill:#e8c8c8;}</style></defs><g transform="translate(0 0)"><g transform="translate(0 0)"><path class="a" d="M15.889,96.512H3.073A3.082,3.082,0,0,0,0,99.585v10.357a3.082,3.082,0,0,0,3.073,3.073H15.889a3.082,3.082,0,0,0,3.073-3.073V99.585A3.063,3.063,0,0,0,15.889,96.512Z" transform="translate(0 -96.512)"/></g></g><g transform="translate(20.499 1.641)"><g transform="translate(0 0)"><path class="a" d="M346.821,123.9a1.564,1.564,0,0,0-.522.215l-4.794,2.766v7.13l4.825,2.766a1.827,1.827,0,0,0,2.52-.676,1.877,1.877,0,0,0,.246-.922v-9.5A1.85,1.85,0,0,0,346.821,123.9Z" transform="translate(-341.504 -123.847)"/></g></g></svg>