<svg xmlns="http://www.w3.org/2000/svg" xmlns:xlink="http://www.w3.org/1999/xlink" width="96" height="96" viewBox="0 0 96 96">
  <defs>
    <clipPath id="clip-video">
      <rect width="96" height="96"/>
    </clipPath>
  </defs>
  <g id="video" clip-path="url(#clip-video)">
    <g id="video-camera_1_" data-name="video-camera (1)" transform="translate(1.422 25.21)">
      <g id="Group_5157" data-name="Group 5157" transform="translate(0 0)">
        <g id="Group_5156" data-name="Group 5156" transform="translate(0 0)">
          <path id="Path_30939" data-name="Path 30939" d="M52.376,96.512H10.131A10.161,10.161,0,0,0,0,106.643v34.141a10.161,10.161,0,0,0,10.131,10.131H52.376a10.161,10.161,0,0,0,10.131-10.131V106.643A10.1,10.1,0,0,0,52.376,96.512Z" transform="translate(0 -96.512)" fill="#e8c8c8"/>
        </g>
      </g>
      <g id="Group_5159" data-name="Group 5159" transform="translate(67.572 5.409)">
        <g id="Group_5158" data-name="Group 5158" transform="translate(0 0)">
          <path id="Path_30940" data-name="Path 30940" d="M359.03,124.01a5.153,5.153,0,0,0-1.722.709l-15.8,9.118v23.5l15.905,9.118a6.023,6.023,0,0,0,8.307-2.229,6.187,6.187,0,0,0,.811-3.039v-31.3A6.1,6.1,0,0,0,359.03,124.01Z" transform="translate(-341.504 -123.847)" fill="#e8c8c8"/>
        </g>
      </g>
    </g>
  </g>
</svg>
