<svg id="Group_3924" data-name="Group 3924" xmlns="http://www.w3.org/2000/svg" width="1271.182" height="253.458" viewBox="0 0 1271.182 253.458">
  <g id="Group_3960" data-name="Group 3960" transform="translate(0 150.819)" opacity="0.24">
    <g id="Group_3913" data-name="Group 3913" transform="translate(0 0)">
      <g id="Group_3910" data-name="Group 3910" transform="translate(0 0)">
        <path id="Path_28611" data-name="Path 28611" d="M24.166,479.284a2.521,2.521,0,1,1-2.52,2.522A2.523,2.523,0,0,1,24.166,479.284Z" transform="translate(-21.646 -402.472)" fill="#212121"/>
        <path id="Path_28612" data-name="Path 28612" d="M24.166,471.159a2.521,2.521,0,1,1-2.52,2.522A2.523,2.523,0,0,1,24.166,471.159Z" transform="translate(-21.646 -409.709)" fill="#212121"/>
        <path id="Path_28613" data-name="Path 28613" d="M24.166,463.034a2.521,2.521,0,1,1-2.52,2.522A2.523,2.523,0,0,1,24.166,463.034Z" transform="translate(-21.646 -416.947)" fill="#212121"/>
        <path id="Path_28614" data-name="Path 28614" d="M24.166,454.909a2.521,2.521,0,1,1-2.52,2.522A2.523,2.523,0,0,1,24.166,454.909Z" transform="translate(-21.646 -424.184)" fill="#212121"/>
        <path id="Path_28615" data-name="Path 28615" d="M24.166,446.784a2.521,2.521,0,1,1-2.52,2.522A2.523,2.523,0,0,1,24.166,446.784Z" transform="translate(-21.646 -431.422)" fill="#212121"/>
        <path id="Path_28616" data-name="Path 28616" d="M24.166,438.659a2.521,2.521,0,1,1-2.52,2.522A2.523,2.523,0,0,1,24.166,438.659Z" transform="translate(-21.646 -438.659)" fill="#212121"/>
      </g>
      <g id="Group_3911" data-name="Group 3911" transform="translate(14.574 0)">
        <ellipse id="Ellipse_683" data-name="Ellipse 683" cx="2.521" cy="2.521" rx="2.521" ry="2.521" transform="translate(0 76.812)" fill="#212121"/>
        <ellipse id="Ellipse_684" data-name="Ellipse 684" cx="2.521" cy="2.521" rx="2.521" ry="2.521" transform="translate(0 61.45)" fill="#212121"/>
        <ellipse id="Ellipse_685" data-name="Ellipse 685" cx="2.521" cy="2.521" rx="2.521" ry="2.521" transform="translate(0 46.087)" fill="#212121"/>
        <ellipse id="Ellipse_686" data-name="Ellipse 686" cx="2.521" cy="2.521" rx="2.521" ry="2.521" transform="translate(0 30.725)" fill="#212121"/>
        <ellipse id="Ellipse_687" data-name="Ellipse 687" cx="2.521" cy="2.521" rx="2.521" ry="2.521" transform="translate(0 15.362)" fill="#212121"/>
        <ellipse id="Ellipse_688" data-name="Ellipse 688" cx="2.521" cy="2.521" rx="2.521" ry="2.521" fill="#212121"/>
      </g>
      <g id="Group_3912" data-name="Group 3912" transform="translate(29.15 0)">
        <path id="Path_28617" data-name="Path 28617" d="M39.583,479.284a2.521,2.521,0,1,1-2.52,2.522A2.521,2.521,0,0,1,39.583,479.284Z" transform="translate(-37.063 -402.472)" fill="#212121"/>
        <path id="Path_28618" data-name="Path 28618" d="M39.583,471.159a2.521,2.521,0,1,1-2.52,2.522A2.521,2.521,0,0,1,39.583,471.159Z" transform="translate(-37.063 -409.709)" fill="#212121"/>
        <path id="Path_28619" data-name="Path 28619" d="M39.583,463.034a2.521,2.521,0,1,1-2.52,2.522A2.521,2.521,0,0,1,39.583,463.034Z" transform="translate(-37.063 -416.947)" fill="#212121"/>
        <path id="Path_28620" data-name="Path 28620" d="M39.583,454.909a2.521,2.521,0,1,1-2.52,2.522A2.521,2.521,0,0,1,39.583,454.909Z" transform="translate(-37.063 -424.184)" fill="#212121"/>
        <path id="Path_28621" data-name="Path 28621" d="M39.583,446.784a2.521,2.521,0,1,1-2.52,2.522A2.521,2.521,0,0,1,39.583,446.784Z" transform="translate(-37.063 -431.422)" fill="#212121"/>
        <path id="Path_28622" data-name="Path 28622" d="M39.583,438.659a2.521,2.521,0,1,1-2.52,2.522A2.521,2.521,0,0,1,39.583,438.659Z" transform="translate(-37.063 -438.659)" fill="#212121"/>
      </g>
    </g>
    <g id="Group_3959" data-name="Group 3959" transform="translate(43.772 0)">
      <g id="Group_3910-2" data-name="Group 3910" transform="translate(0 0)">
        <path id="Path_28611-2" data-name="Path 28611" d="M24.166,479.284a2.521,2.521,0,1,1-2.52,2.522A2.523,2.523,0,0,1,24.166,479.284Z" transform="translate(-21.646 -402.472)" fill="#212121"/>
        <path id="Path_28612-2" data-name="Path 28612" d="M24.166,471.159a2.521,2.521,0,1,1-2.52,2.522A2.523,2.523,0,0,1,24.166,471.159Z" transform="translate(-21.646 -409.709)" fill="#212121"/>
        <path id="Path_28613-2" data-name="Path 28613" d="M24.166,463.034a2.521,2.521,0,1,1-2.52,2.522A2.523,2.523,0,0,1,24.166,463.034Z" transform="translate(-21.646 -416.947)" fill="#212121"/>
        <path id="Path_28614-2" data-name="Path 28614" d="M24.166,454.909a2.521,2.521,0,1,1-2.52,2.522A2.523,2.523,0,0,1,24.166,454.909Z" transform="translate(-21.646 -424.184)" fill="#212121"/>
        <path id="Path_28615-2" data-name="Path 28615" d="M24.166,446.784a2.521,2.521,0,1,1-2.52,2.522A2.523,2.523,0,0,1,24.166,446.784Z" transform="translate(-21.646 -431.422)" fill="#212121"/>
        <path id="Path_28616-2" data-name="Path 28616" d="M24.166,438.659a2.521,2.521,0,1,1-2.52,2.522A2.523,2.523,0,0,1,24.166,438.659Z" transform="translate(-21.646 -438.659)" fill="#212121"/>
      </g>
      <g id="Group_3911-2" data-name="Group 3911" transform="translate(14.574 0)">
        <ellipse id="Ellipse_683-2" data-name="Ellipse 683" cx="2.521" cy="2.521" rx="2.521" ry="2.521" transform="translate(0 76.812)" fill="#212121"/>
        <ellipse id="Ellipse_684-2" data-name="Ellipse 684" cx="2.521" cy="2.521" rx="2.521" ry="2.521" transform="translate(0 61.45)" fill="#212121"/>
        <ellipse id="Ellipse_685-2" data-name="Ellipse 685" cx="2.521" cy="2.521" rx="2.521" ry="2.521" transform="translate(0 46.087)" fill="#212121"/>
        <ellipse id="Ellipse_686-2" data-name="Ellipse 686" cx="2.521" cy="2.521" rx="2.521" ry="2.521" transform="translate(0 30.725)" fill="#212121"/>
        <ellipse id="Ellipse_687-2" data-name="Ellipse 687" cx="2.521" cy="2.521" rx="2.521" ry="2.521" transform="translate(0 15.362)" fill="#212121"/>
        <ellipse id="Ellipse_688-2" data-name="Ellipse 688" cx="2.521" cy="2.521" rx="2.521" ry="2.521" fill="#212121"/>
      </g>
      <g id="Group_3912-2" data-name="Group 3912" transform="translate(29.15 0)">
        <path id="Path_28617-2" data-name="Path 28617" d="M39.583,479.284a2.521,2.521,0,1,1-2.52,2.522A2.521,2.521,0,0,1,39.583,479.284Z" transform="translate(-37.063 -402.472)" fill="#212121"/>
        <path id="Path_28618-2" data-name="Path 28618" d="M39.583,471.159a2.521,2.521,0,1,1-2.52,2.522A2.521,2.521,0,0,1,39.583,471.159Z" transform="translate(-37.063 -409.709)" fill="#212121"/>
        <path id="Path_28619-2" data-name="Path 28619" d="M39.583,463.034a2.521,2.521,0,1,1-2.52,2.522A2.521,2.521,0,0,1,39.583,463.034Z" transform="translate(-37.063 -416.947)" fill="#212121"/>
        <path id="Path_28620-2" data-name="Path 28620" d="M39.583,454.909a2.521,2.521,0,1,1-2.52,2.522A2.521,2.521,0,0,1,39.583,454.909Z" transform="translate(-37.063 -424.184)" fill="#212121"/>
        <path id="Path_28621-2" data-name="Path 28621" d="M39.583,446.784a2.521,2.521,0,1,1-2.52,2.522A2.521,2.521,0,0,1,39.583,446.784Z" transform="translate(-37.063 -431.422)" fill="#212121"/>
        <path id="Path_28622-2" data-name="Path 28622" d="M39.583,438.659a2.521,2.521,0,1,1-2.52,2.522A2.521,2.521,0,0,1,39.583,438.659Z" transform="translate(-37.063 -438.659)" fill="#212121"/>
      </g>
    </g>
  </g>
  <g id="Group_3958" data-name="Group 3958" transform="translate(1189.329 0)" opacity="0.3">
    <g id="Group_3917" data-name="Group 3917">
      <g id="Group_3914" data-name="Group 3914" transform="translate(0 29.15)">
        <path id="Path_28623" data-name="Path 28623" d="M775.042,180.388a2.52,2.52,0,1,1,2.52,2.52A2.521,2.521,0,0,1,775.042,180.388Z" transform="translate(-698.23 -177.868)" fill="#e30045"/>
        <path id="Path_28624" data-name="Path 28624" d="M766.917,180.388a2.52,2.52,0,1,1,2.52,2.52A2.521,2.521,0,0,1,766.917,180.388Z" transform="translate(-705.467 -177.868)" fill="#e30045"/>
        <path id="Path_28625" data-name="Path 28625" d="M758.792,180.388a2.52,2.52,0,1,1,2.52,2.52A2.521,2.521,0,0,1,758.792,180.388Z" transform="translate(-712.705 -177.868)" fill="#e30045"/>
        <path id="Path_28626" data-name="Path 28626" d="M750.667,180.388a2.52,2.52,0,1,1,2.52,2.52A2.521,2.521,0,0,1,750.667,180.388Z" transform="translate(-719.942 -177.868)" fill="#e30045"/>
        <path id="Path_28627" data-name="Path 28627" d="M742.542,180.388a2.52,2.52,0,1,1,2.52,2.52A2.521,2.521,0,0,1,742.542,180.388Z" transform="translate(-727.18 -177.868)" fill="#e30045"/>
        <path id="Path_28628" data-name="Path 28628" d="M734.417,180.388a2.52,2.52,0,1,1,2.52,2.52A2.521,2.521,0,0,1,734.417,180.388Z" transform="translate(-734.417 -177.868)" fill="#e30045"/>
      </g>
      <g id="Group_3915" data-name="Group 3915" transform="translate(0 14.574)">
        <path id="Path_28629" data-name="Path 28629" d="M775.042,172.681a2.52,2.52,0,1,1,2.52,2.52A2.521,2.521,0,0,1,775.042,172.681Z" transform="translate(-698.23 -170.159)" fill="#e30045"/>
        <path id="Path_28630" data-name="Path 28630" d="M766.917,172.681a2.52,2.52,0,1,1,2.52,2.52A2.521,2.521,0,0,1,766.917,172.681Z" transform="translate(-705.467 -170.159)" fill="#e30045"/>
        <path id="Path_28631" data-name="Path 28631" d="M758.792,172.681a2.52,2.52,0,1,1,2.52,2.52A2.521,2.521,0,0,1,758.792,172.681Z" transform="translate(-712.705 -170.159)" fill="#e30045"/>
        <path id="Path_28632" data-name="Path 28632" d="M750.667,172.681a2.52,2.52,0,1,1,2.52,2.52A2.521,2.521,0,0,1,750.667,172.681Z" transform="translate(-719.942 -170.159)" fill="#e30045"/>
        <path id="Path_28633" data-name="Path 28633" d="M742.542,172.681a2.52,2.52,0,1,1,2.52,2.52A2.521,2.521,0,0,1,742.542,172.681Z" transform="translate(-727.18 -170.159)" fill="#e30045"/>
        <path id="Path_28634" data-name="Path 28634" d="M734.417,172.681a2.52,2.52,0,1,1,2.52,2.52A2.521,2.521,0,0,1,734.417,172.681Z" transform="translate(-734.417 -170.159)" fill="#e30045"/>
      </g>
      <g id="Group_3916" data-name="Group 3916">
        <path id="Path_28635" data-name="Path 28635" d="M775.042,164.971a2.52,2.52,0,1,1,2.52,2.522A2.521,2.521,0,0,1,775.042,164.971Z" transform="translate(-698.23 -162.451)" fill="#e30045"/>
        <path id="Path_28636" data-name="Path 28636" d="M766.917,164.971a2.52,2.52,0,1,1,2.52,2.522A2.521,2.521,0,0,1,766.917,164.971Z" transform="translate(-705.467 -162.451)" fill="#e30045"/>
        <path id="Path_28637" data-name="Path 28637" d="M758.792,164.971a2.52,2.52,0,1,1,2.52,2.522A2.521,2.521,0,0,1,758.792,164.971Z" transform="translate(-712.705 -162.451)" fill="#e30045"/>
        <path id="Path_28638" data-name="Path 28638" d="M750.667,164.971a2.52,2.52,0,1,1,2.52,2.522A2.521,2.521,0,0,1,750.667,164.971Z" transform="translate(-719.942 -162.451)" fill="#e30045"/>
        <path id="Path_28639" data-name="Path 28639" d="M742.542,164.971a2.52,2.52,0,1,1,2.52,2.522A2.521,2.521,0,0,1,742.542,164.971Z" transform="translate(-727.18 -162.451)" fill="#e30045"/>
        <path id="Path_28640" data-name="Path 28640" d="M734.417,164.971a2.52,2.52,0,1,1,2.52,2.522A2.521,2.521,0,0,1,734.417,164.971Z" transform="translate(-734.417 -162.451)" fill="#e30045"/>
      </g>
    </g>
    <g id="Group_3957" data-name="Group 3957" transform="translate(0 41.036)">
      <g id="Group_3914-2" data-name="Group 3914" transform="translate(0 29.15)">
        <path id="Path_28623-2" data-name="Path 28623" d="M775.042,180.388a2.52,2.52,0,1,1,2.52,2.52A2.521,2.521,0,0,1,775.042,180.388Z" transform="translate(-698.23 -177.868)" fill="#e30045"/>
        <path id="Path_28624-2" data-name="Path 28624" d="M766.917,180.388a2.52,2.52,0,1,1,2.52,2.52A2.521,2.521,0,0,1,766.917,180.388Z" transform="translate(-705.467 -177.868)" fill="#e30045"/>
        <path id="Path_28625-2" data-name="Path 28625" d="M758.792,180.388a2.52,2.52,0,1,1,2.52,2.52A2.521,2.521,0,0,1,758.792,180.388Z" transform="translate(-712.705 -177.868)" fill="#e30045"/>
        <path id="Path_28626-2" data-name="Path 28626" d="M750.667,180.388a2.52,2.52,0,1,1,2.52,2.52A2.521,2.521,0,0,1,750.667,180.388Z" transform="translate(-719.942 -177.868)" fill="#e30045"/>
        <path id="Path_28627-2" data-name="Path 28627" d="M742.542,180.388a2.52,2.52,0,1,1,2.52,2.52A2.521,2.521,0,0,1,742.542,180.388Z" transform="translate(-727.18 -177.868)" fill="#e30045"/>
        <path id="Path_28628-2" data-name="Path 28628" d="M734.417,180.388a2.52,2.52,0,1,1,2.52,2.52A2.521,2.521,0,0,1,734.417,180.388Z" transform="translate(-734.417 -177.868)" fill="#e30045"/>
      </g>
      <g id="Group_3915-2" data-name="Group 3915" transform="translate(0 14.574)">
        <path id="Path_28629-2" data-name="Path 28629" d="M775.042,172.681a2.52,2.52,0,1,1,2.52,2.52A2.521,2.521,0,0,1,775.042,172.681Z" transform="translate(-698.23 -170.159)" fill="#e30045"/>
        <path id="Path_28630-2" data-name="Path 28630" d="M766.917,172.681a2.52,2.52,0,1,1,2.52,2.52A2.521,2.521,0,0,1,766.917,172.681Z" transform="translate(-705.467 -170.159)" fill="#e30045"/>
        <path id="Path_28631-2" data-name="Path 28631" d="M758.792,172.681a2.52,2.52,0,1,1,2.52,2.52A2.521,2.521,0,0,1,758.792,172.681Z" transform="translate(-712.705 -170.159)" fill="#e30045"/>
        <path id="Path_28632-2" data-name="Path 28632" d="M750.667,172.681a2.52,2.52,0,1,1,2.52,2.52A2.521,2.521,0,0,1,750.667,172.681Z" transform="translate(-719.942 -170.159)" fill="#e30045"/>
        <path id="Path_28633-2" data-name="Path 28633" d="M742.542,172.681a2.52,2.52,0,1,1,2.52,2.52A2.521,2.521,0,0,1,742.542,172.681Z" transform="translate(-727.18 -170.159)" fill="#e30045"/>
        <path id="Path_28634-2" data-name="Path 28634" d="M734.417,172.681a2.52,2.52,0,1,1,2.52,2.52A2.521,2.521,0,0,1,734.417,172.681Z" transform="translate(-734.417 -170.159)" fill="#e30045"/>
      </g>
      <g id="Group_3916-2" data-name="Group 3916">
        <path id="Path_28635-2" data-name="Path 28635" d="M775.042,164.971a2.52,2.52,0,1,1,2.52,2.522A2.521,2.521,0,0,1,775.042,164.971Z" transform="translate(-698.23 -162.451)" fill="#e30045"/>
        <path id="Path_28636-2" data-name="Path 28636" d="M766.917,164.971a2.52,2.52,0,1,1,2.52,2.522A2.521,2.521,0,0,1,766.917,164.971Z" transform="translate(-705.467 -162.451)" fill="#e30045"/>
        <path id="Path_28637-2" data-name="Path 28637" d="M758.792,164.971a2.52,2.52,0,1,1,2.52,2.522A2.521,2.521,0,0,1,758.792,164.971Z" transform="translate(-712.705 -162.451)" fill="#e30045"/>
        <path id="Path_28638-2" data-name="Path 28638" d="M750.667,164.971a2.52,2.52,0,1,1,2.52,2.522A2.521,2.521,0,0,1,750.667,164.971Z" transform="translate(-719.942 -162.451)" fill="#e30045"/>
        <path id="Path_28639-2" data-name="Path 28639" d="M742.542,164.971a2.52,2.52,0,1,1,2.52,2.522A2.521,2.521,0,0,1,742.542,164.971Z" transform="translate(-727.18 -162.451)" fill="#e30045"/>
        <path id="Path_28640-2" data-name="Path 28640" d="M734.417,164.971a2.52,2.52,0,1,1,2.52,2.522A2.521,2.521,0,0,1,734.417,164.971Z" transform="translate(-734.417 -162.451)" fill="#e30045"/>
      </g>
    </g>
  </g>
  <g id="Group_3918" data-name="Group 3918" transform="translate(1041.198 111.798)" opacity="0.3">
    <rect id="Rectangle_2783" data-name="Rectangle 2783" width="4.135" height="4.135" fill="#444"/>
    <rect id="Rectangle_2784" data-name="Rectangle 2784" width="4.135" height="4.135" transform="translate(0 29.185)" fill="#444"/>
    <rect id="Rectangle_2785" data-name="Rectangle 2785" width="4.135" height="4.135" transform="translate(0 58.37)" fill="#444"/>
    <rect id="Rectangle_2786" data-name="Rectangle 2786" width="4.135" height="4.135" transform="translate(0 87.556)" fill="#444"/>
    <rect id="Rectangle_2787" data-name="Rectangle 2787" width="4.135" height="4.135" transform="translate(0 116.741)" fill="#444"/>
  </g>
  <g id="Group_3920" data-name="Group 3920" transform="translate(1080.993 232.674)" opacity="0.4">
    <rect id="Rectangle_2793" data-name="Rectangle 2793" width="20.784" height="7.109" transform="translate(0 6.838)" fill="#ff61d6"/>
    <rect id="Rectangle_2794" data-name="Rectangle 2794" width="20.784" height="7.108" transform="translate(6.838 20.784) rotate(-90)" fill="#ff61d6"/>
  </g>
  <g id="Group_3921" data-name="Group 3921" transform="translate(229.567 160.273) rotate(45)" opacity="0.4">
    <rect id="Rectangle_2795" data-name="Rectangle 2795" width="9.788" height="3.348" transform="translate(0 3.22)" fill="#61caff"/>
    <rect id="Rectangle_2796" data-name="Rectangle 2796" width="9.788" height="3.348" transform="translate(3.22 9.788) rotate(-90)" fill="#61caff"/>
  </g>
</svg>
