<svg id="Group_35389" data-name="Group 35389" xmlns="http://www.w3.org/2000/svg" width="43.295" height="47.563" viewBox="0 0 43.295 47.563">
  <g id="Group_35390" data-name="Group 35390" transform="translate(0 0)">
    <path id="Path_96517" data-name="Path 96517" d="M21.077,44.462H3.216a.539.539,0,0,1-.142,0V36.4q0-13.819-.01-27.638A.908.908,0,0,1,3.38,8.01q1.039-1.02,2.063-2.053c.882-.883,1.764-1.767,2.66-2.634a.834.834,0,0,1,.469-.2Q16.383,3.1,24.191,3.1h7.238V20.363a15.892,15.892,0,0,1,3.021-.3l.039,0V19.4q0-8.882.011-17.763A1.65,1.65,0,0,0,34.1.4,1.629,1.629,0,0,0,32.922,0Q20.457.032,7.99.006h0a2.254,2.254,0,0,0-1.705.72Q5.167,1.858,4.042,2.981C2.93,4.094,1.816,5.208.721,6.34A2.607,2.607,0,0,0,.032,8.024Q.013,18.406.012,28.788.009,37.38,0,45.97a1.631,1.631,0,0,0,.4,1.192,1.636,1.636,0,0,0,1.207.4h.007q11.028-.019,22.055,0a15.893,15.893,0,0,1-2.593-3.1" transform="translate(0 0)" fill="#1a73e9"/>
    <path id="Path_96518" data-name="Path 96518" d="M29.266,43.254A11.677,11.677,0,1,1,40.943,31.577,11.69,11.69,0,0,1,29.266,43.254m0-20.407A8.73,8.73,0,1,0,38,31.577a8.74,8.74,0,0,0-8.73-8.73" transform="translate(2.352 2.661)"/>
    <path id="Path_96519" data-name="Path 96519" d="M27.413,36.076,22.97,31.633l2.084-2.085,2.359,2.359,4.627-4.627,2.084,2.085Z" transform="translate(3.071 3.648)"/>
    <rect id="Rectangle_3" data-name="Rectangle 3" width="13.605" height="2.948" transform="translate(10.644 12.924)" fill="#1a73e9"/>
    <rect id="Rectangle_4" data-name="Rectangle 4" width="9.07" height="2.948" transform="translate(10.644 21.427)" fill="#1a73e9"/>
  </g>
</svg>
