<svg xmlns="http://www.w3.org/2000/svg" width="61.432" height="52.811" viewBox="0 0 61.432 52.811">
  <g id="Group_35396" data-name="Group 35396" transform="translate(0 0)">
    <g id="Group_35397" data-name="Group 35397" transform="translate(0 0)">
      <path id="Path_96522" data-name="Path 96522" d="M3.97,16.342c.643.3,1.29.592,1.944.864L8.9,18.451c4.3,1.789,8.6,3.579,12.915,5.337.19.077.376.159.563.24a6.967,6.967,0,0,0,2.837.763h.044c4.227-.043,8.526-.034,12.686-.028l4.207.005c.24,0,.48.005.721.01.4.01.8.018,1.2,0l.119,0a3.737,3.737,0,0,0,1.277-.192c2.5-1,4.985-2.045,7.47-3.085l.392-.164c1.359-.569,2.767-1.158,4.131-1.782a3.762,3.762,0,0,0,2.03-4.8,4.52,4.52,0,0,0-2.768-2.495Q49.185,9.138,41.65,6.007,35.459,3.438,29.267.872c-.553-.228-1.119-.419-1.658-.6-.238-.079-.469-.156-.691-.235L26.812,0,26.7.027c-.2.05-.4.09-.575.129A6,6,0,0,0,25.082.44c-1.841.748-3.675,1.511-5.51,2.275L4.116,9.123a3.836,3.836,0,0,0-.146,7.219m29.638,1.821a3.322,3.322,0,0,1,.449-.392,2.618,2.618,0,0,1,.5.4,27.112,27.112,0,0,0,5.284,3.849H29.014a33.847,33.847,0,0,0,4.594-3.857m23.415-2.052c.043.476-.147.745-.674.964q-2.739,1.136-5.473,2.279l-3.983,1.661c-.586.246-1.191.5-1.8.707a1.215,1.215,0,0,1-.681.027,21.975,21.975,0,0,1-8.572-5.163,2.423,2.423,0,0,0-3.609.041,24.535,24.535,0,0,1-5.452,4.326,13.285,13.285,0,0,1-2.044.826.984.984,0,0,1-.6-.059q-5.943-2.434-11.878-4.893L8.19,15.144c-1.044-.435-2.089-.869-3.138-1.289-.632-.255-.877-.574-.873-1.138.005-.515.237-.784.916-1.067l14.244-5.9q3.361-1.388,6.717-2.79a1.465,1.465,0,0,1,.581-.13,1.528,1.528,0,0,1,.6.133Q41.063,8.719,54.9,14.447l1.105.458c.77.319,1.081.547,1.016,1.13l0,.037Z" transform="translate(0.107 0)" fill="#1a73e9"/>
      <path id="Path_96523" data-name="Path 96523" d="M2.039,22.121q2.992,1.263,5.994,2.5,2.2.911,4.395,1.826,5.244,2.195,10.484,4.4,5.064,2.122,10.127,4.244c.315.133.642.237.976.342.151.048.305.1.46.149l.111.037.112-.032c.134-.039.267-.073.4-.106a6.29,6.29,0,0,0,.87-.268Q42.34,32.572,48.7,29.914q5.44-2.269,10.878-4.548a2.84,2.84,0,0,0,1.747-3.4A3.384,3.384,0,0,0,58.7,19.689a1.313,1.313,0,0,0-1.728.77,1.346,1.346,0,0,0,.8,1.757c.114.05.228.1.344.14a3.136,3.136,0,0,1,.494.22c.052.031.109.11.125.084a.559.559,0,0,1-.149.178.983.983,0,0,1-.268.122L55.73,24.012q-2.41.985-4.818,1.977l-5.461,2.264q-5.249,2.18-10.5,4.349a.8.8,0,0,1-.506-.01c-1.5-.607-2.989-1.227-4.482-1.849L6.682,21.115c-1.256-.519-2.514-1.04-3.76-1.583-.065-.029-.167-.149-.192-.106a.811.811,0,0,1,.259-.228,2.292,2.292,0,0,1,.42-.182c.125-.045.251-.091.371-.147A1.339,1.339,0,0,0,4.5,17.163a1.322,1.322,0,0,0-1.623-.823,6.5,6.5,0,0,0-1.494.627A2.837,2.837,0,0,0,.028,18.96,2.77,2.77,0,0,0,.75,21.228a3.664,3.664,0,0,0,1.29.892" transform="translate(0 1.158)"/>
      <path id="Path_96524" data-name="Path 96524" d="M58.594,27.081a1.309,1.309,0,0,0-1.607.7,1.364,1.364,0,0,0,.572,1.761,2.49,2.49,0,0,0,.33.151,1.277,1.277,0,0,1,.287.142c.273.216.357.314.364.287a.694.694,0,0,1-.308.288c-.853.361-1.714.7-2.576,1.044q-.844.333-1.681.672-1.843.75-3.678,1.515l-5.609,2.311q-4.764,1.959-9.522,3.927a1.206,1.206,0,0,1-1.065,0c-.4-.192-.819-.361-1.234-.53l-5.991-2.481Q17.311,32.9,7.745,28.941c-.7-.291-1.413-.572-2.121-.853-.831-.33-1.662-.659-2.485-1a1.159,1.159,0,0,1-.251-.209,1.027,1.027,0,0,1,.307-.319,1.434,1.434,0,0,1,.322-.16,2.919,2.919,0,0,0,.343-.156,1.385,1.385,0,0,0,.583-1.768,1.346,1.346,0,0,0-1.611-.7A5.783,5.783,0,0,0,2,24.113,2.944,2.944,0,0,0,.16,26.856,2.9,2.9,0,0,0,2.093,29.6q2.51,1.049,5.028,2.08,1.735.715,3.471,1.432l7.937,3.294q6.957,2.886,13.915,5.769c.449.186.912.342,1.362.493.2.067.4.135.6.2l.109.039.112-.031c.175-.046.342-.087.5-.126a8.664,8.664,0,0,0,1.033-.3c.562-.212,1.116-.448,1.67-.683.292-.123.584-.247.877-.368l6.4-2.631q7.142-2.935,14.28-5.875a3.023,3.023,0,0,0,1.749-3.583,3.522,3.522,0,0,0-2.543-2.236" transform="translate(0.011 1.687)"/>
      <path id="Path_96525" data-name="Path 96525" d="M58.915,34.825a1.487,1.487,0,0,0-1.165-.149,1.284,1.284,0,0,0-.775.65,1.365,1.365,0,0,0,.669,1.87.547.547,0,0,1,.368.573c-.01.209-.084.344-.465.5-.9.365-1.8.74-2.7,1.114l-3.807,1.582q-7.984,3.316-15.966,6.643a1.012,1.012,0,0,1-.874,0Q27.021,44.61,19.834,41.64q-7.993-3.31-15.986-6.611c-.377-.155-.491-.263-.509-.486-.02-.261.077-.408.418-.628a1.809,1.809,0,0,0,.706-.9,1.208,1.208,0,0,0-.559-1.43,1.369,1.369,0,0,0-1.6.067A3.183,3.183,0,0,0,.658,34.633a3.244,3.244,0,0,0,2.089,2.881q2.259.945,4.524,1.871l10.1,4.183q7.249,3,14.5,6.007c.568.235,1.146.443,1.739.658l.955.349.129-.044c.242-.084.484-.162.723-.24.516-.168,1.021-.333,1.511-.536q5.586-2.309,11.164-4.635l5.921-2.458c1.555-.642,3.111-1.283,4.655-1.951a3.235,3.235,0,0,0,.238-5.893" transform="translate(0.046 2.23)"/>
    </g>
  </g>
</svg>
