<svg xmlns="http://www.w3.org/2000/svg" width="53.511" height="53.55" viewBox="0 0 53.511 53.55">
  <g id="Group_35402" data-name="Group 35402" transform="translate(-0.004 -0.005)">
    <g id="Group_35403" data-name="Group 35403" transform="translate(0 0)">
      <path id="Path_96531" data-name="Path 96531" d="M.1,25.9Q.1,15.26.1,4.618A4.1,4.1,0,0,1,2.51.552,5.08,5.08,0,0,1,4.556.119Q23.052.081,41.548.1a4.235,4.235,0,0,1,4.36,4.344c-.047,7.591-.006,15.184-.028,22.775a1.57,1.57,0,0,0,.877,1.56A12.888,12.888,0,0,1,53.4,39.924,13.2,13.2,0,0,1,27.623,44.2,13.261,13.261,0,0,1,36.307,27.6a13.919,13.919,0,0,1,5.983-.405c.722.1.984-.1.982-.855-.021-7.226-.009-14.451-.015-21.677,0-1.29-.56-1.842-1.877-1.842q-18.416,0-36.834,0c-1.251,0-1.724.53-1.724,1.883q0,17.239,0,34.478,0,3.848,0,7.7c0,1.505.469,1.976,1.962,1.976,7.173,0,14.346-.007,21.519.021a2.22,2.22,0,0,1,1.411.46,1.254,1.254,0,0,1-.728,2.148,4.484,4.484,0,0,1-.86.046q-10.72.006-21.44.006A4.219,4.219,0,0,1,.1,46.949V25.9M40.168,50.737a10.521,10.521,0,1,0-10.476-10.52,10.517,10.517,0,0,0,10.476,10.52" transform="translate(0.004 0.003)"/>
      <path id="Path_96532" data-name="Path 96532" d="M.1,25.9Q.1,15.26.1,4.618A4.1,4.1,0,0,1,2.51.552,5.08,5.08,0,0,1,4.556.119Q23.052.081,41.548.1a4.235,4.235,0,0,1,4.36,4.344c-.047,7.591-.006,15.184-.028,22.775a1.57,1.57,0,0,0,.877,1.56A12.888,12.888,0,0,1,53.4,39.924,13.2,13.2,0,0,1,27.623,44.2,13.261,13.261,0,0,1,36.307,27.6a13.919,13.919,0,0,1,5.983-.405c.722.1.984-.1.982-.855-.021-7.226-.009-14.451-.015-21.677,0-1.29-.56-1.842-1.877-1.842q-18.416,0-36.834,0c-1.251,0-1.724.53-1.724,1.883q0,17.239,0,34.478,0,3.848,0,7.7c0,1.505.469,1.976,1.962,1.976,7.173,0,14.346-.007,21.519.021a2.22,2.22,0,0,1,1.411.46,1.254,1.254,0,0,1-.728,2.148,4.484,4.484,0,0,1-.86.046q-10.72.006-21.44.006A4.219,4.219,0,0,1,.1,46.949ZM40.168,50.737a10.521,10.521,0,1,0-10.476-10.52A10.517,10.517,0,0,0,40.168,50.737Z" transform="translate(0.004 0.003)" fill="none" stroke="#000" stroke-width="0.2"/>
      <path id="Path_96533" data-name="Path 96533" d="M9.482,18.8l3.045-3.461c.19-.217.371-.441.566-.652a1.465,1.465,0,0,1,2.471-.083c1.488,1.471,2.951,2.969,4.436,4.444.8.789.81.782,1.539-.108Q24.8,14.972,28.051,11a1.478,1.478,0,0,1,2.515-.144c.95.937,1.9,1.875,2.822,2.839.393.409.673.388,1.011-.051q1.051-1.368,2.146-2.7a1.4,1.4,0,0,1,2.046-.442,1.462,1.462,0,0,1,.025,2.157q-1.608,2.029-3.234,4.043c-.906,1.12-1.629,1.148-2.665.118-.834-.831-1.662-1.67-2.5-2.5-.767-.761-.772-.758-1.477.1Q25.56,18.3,22.38,22.184c-1.112,1.354-1.664,1.37-2.922.113-1.5-1.5-3.011-2.986-4.49-4.5-.423-.434-.684-.4-1.067.045-1.379,1.608-2.816,3.164-4.17,4.792a2.827,2.827,0,0,0-.57,1.47c-.089.96,0,1.935-.034,2.9-.028.758.224,1.054,1.034,1.049,4.659-.033,9.318-.017,13.978-.015,1.2,0,1.88.478,1.877,1.3,0,.859-.644,1.318-1.858,1.318q-7.892,0-15.783,0c-1.565,0-1.941-.379-1.942-1.953,0-6.806-.008-13.612.02-20.417A2.181,2.181,0,0,1,6.92,6.868a1.64,1.64,0,0,1,1.328-.281c.658.145.891.75.891,1.407,0,1.78-.006,3.559-.007,5.34,0,1.517-.005,3.036.006,4.554a7.372,7.372,0,0,0,.112.872l.232.042" transform="translate(0.235 0.239)" fill="#1a73e9"/>
      <path id="Path_96534" data-name="Path 96534" d="M15.282,36.226c-2.485,0-4.969.011-7.453-.006a1.314,1.314,0,0,1-1.382-1.3,1.368,1.368,0,0,1,1.313-1.3c.26-.022.522-.013.784-.015H20.862c.575,0,1.152-.012,1.726.008.958.034,1.545.552,1.527,1.321-.019.813-.568,1.294-1.536,1.3-2.432.01-4.864,0-7.3,0Z" transform="translate(0.235 1.226)" fill="#1a73e9"/>
      <path id="Path_96535" data-name="Path 96535" d="M12.036,39.011c1.331,0,2.663-.008,3.994,0a1.387,1.387,0,0,1,1.536,1.323,1.369,1.369,0,0,1-1.515,1.351q-4.033.033-8.066,0A1.388,1.388,0,0,1,6.442,40.36c-.007-.783.642-1.34,1.6-1.346,1.331-.01,2.663,0,3.994,0" transform="translate(0.235 1.424)" fill="#1a73e9"/>
      <path id="Path_96536" data-name="Path 96536" d="M37.531,35.615c0-1.1-.012-2.2,0-3.3a1.357,1.357,0,0,1,1.3-1.474,1.314,1.314,0,0,1,1.318,1.438c.022,1.806-.029,3.612.034,5.416a2.066,2.066,0,0,0,.562,1.277c1.283,1.267,2.641,2.457,3.959,3.687.768.717.882,1.543.326,2.131a1.469,1.469,0,0,1-2.161-.149c-1.6-1.459-3.216-2.914-4.771-4.427a2.173,2.173,0,0,1-.55-1.306c-.078-1.094-.025-2.2-.025-3.3Z" transform="translate(1.37 1.126)"/>
    </g>
  </g>
</svg>
