<svg xmlns="http://www.w3.org/2000/svg" width="50.814" height="50.718" viewBox="0 0 50.814 50.718">
  <g id="Group_35373" data-name="Group 35373" transform="translate(0 0)">
    <g id="Group_35375" data-name="Group 35375" transform="translate(0 0)">
      <path id="Path_96507" data-name="Path 96507" d="M34.455,41.657c.533.582,1.075,1.159,1.6,1.752.255.288.618.582.675.917a2.076,2.076,0,0,1-.18,1.453,1.685,1.685,0,0,1-1.316.4,2.17,2.17,0,0,1-1.127-.648q-2.183-2.048-4.309-4.157c-1.042-1.026-1.043-1.814-.01-2.829,1.337-1.317,2.659-2.655,4.068-3.893a2.251,2.251,0,0,1,1.646-.561c1.134.227,1.365,1.458.532,2.392-.5.565-1.061,1.085-1.65,1.681.234.133.331.235.428.235,1.757.014,3.515.033,5.271.006a1.067,1.067,0,0,0,1.12-1.224c0-4.384.012-8.769-.012-13.153,0-1.112-.533-1.545-1.734-1.548-2.621-.007-5.244,0-7.866,0-.328,0-.656.011-.983-.01a1.478,1.478,0,0,1-1.538-1.41,1.444,1.444,0,0,1,1.578-1.454c2.533-.02,5.066-.039,7.6,0a8.574,8.574,0,0,1,2.884.323,4.386,4.386,0,0,1,2.962,4.356c.023,4.176.012,8.351.007,12.528a4.382,4.382,0,0,1-4.546,4.568c-1.37.018-2.741,0-4.112,0-.289,0-.58.026-.87.039-.038.078-.078.154-.116.23" transform="translate(6.708 4.529)" fill="#1a73e9"/>
      <path id="Path_96508" data-name="Path 96508" d="M9.761,22.733c-.593-.624-1.077-1.127-1.553-1.636-.8-.854-.88-1.545-.278-2.193a1.581,1.581,0,0,1,2.31.161q2.14,2.03,4.226,4.117a1.56,1.56,0,0,1,.053,2.444c-1.585,1.576-3.2,3.127-4.846,4.636a1.4,1.4,0,0,1-2.344-.289c-.4-.778.015-1.381.508-1.927.609-.676,1.251-1.324,2.08-2.193-.618-.048-.948-.094-1.278-.1-1.491-.011-2.982.026-4.471-.022a4.142,4.142,0,0,1-4.15-4.255Q-.02,15.126.015,8.77a4.653,4.653,0,0,1,4.661-4.76c2.86-.042,5.723,0,8.584.022,1.151.011,1.771.552,1.771,1.45,0,.813-.632,1.407-1.729,1.433-2.205.049-4.41.02-6.617.026-.685,0-1.373-.016-2.055.027-1.421.089-1.714.4-1.721,1.816q-.02,4.924-.016,9.846c0,.984.007,1.969.017,2.952.007.824.368,1.276,1.25,1.264,1.639-.018,3.279,0,4.918-.006a5.518,5.518,0,0,0,.683-.11" transform="translate(0 0.923)" fill="#1a73e9"/>
      <path id="Path_96509" data-name="Path 96509" d="M21.95,11.237c-1.372,0-2.743.017-4.115,0-1.969-.031-3.109-1.024-3.206-2.971A52.07,52.07,0,0,1,14.646,2.8a2.587,2.587,0,0,1,2.8-2.743q4.468-.12,8.94,0c1.846.052,2.771,1.154,2.787,3.024.015,1.671.028,3.343.006,5.014a2.882,2.882,0,0,1-3.113,3.138c-.686.015-1.372.006-2.057.007s-1.372,0-2.057,0v-.006m0-2.909c1.133,0,2.265-.025,3.4.009.709.022.952-.282.932-.962Q26.226,5.587,26.26,3.8c.012-.616-.233-.854-.842-.851q-3.487.024-6.974,0c-.6,0-.88.2-.872.825.016,1.223,0,2.446-.017,3.669-.012.641.246.915.906.9,1.161-.033,2.325-.01,3.487-.007" transform="translate(3.368 0)"/>
      <path id="Path_96510" data-name="Path 96510" d="M21.928,16.078c1.429,0,2.861-.025,4.291.006a2.8,2.8,0,0,1,2.932,2.93q.059,2.683-.014,5.369a2.671,2.671,0,0,1-2.872,2.858q-4.381.059-8.761,0c-1.638-.021-2.643-.726-2.758-2.329a42.306,42.306,0,0,1,.082-6.761A2.348,2.348,0,0,1,17.369,16.1c1.518-.041,3.039-.01,4.559-.01v-.009m-.071,8.268c1.192,0,2.384-.014,3.575.006.555.009.819-.179.809-.774q-.033-1.878.016-3.758c.017-.614-.212-.85-.831-.845q-3.529.03-7.061,0c-.638-.006-.84.262-.829.854.023,1.223.041,2.446.012,3.668-.015.676.272.883.911.864,1.131-.034,2.264-.01,3.4-.012" transform="translate(3.387 3.716)"/>
    </g>
  </g>
</svg>
