<svg xmlns="http://www.w3.org/2000/svg" width="49.134" height="50.718" viewBox="0 0 49.134 50.718">
  <g id="Group_35392" data-name="Group 35392" transform="translate(0.001 0)">
    <g id="Group_35393" data-name="Group 35393" transform="translate(0 0)">
      <path id="Path_96520" data-name="Path 96520" d="M49.126,2.84A2.527,2.527,0,0,0,46.332,0Q24.589-.006,2.84,0C.969.006.015.983,0,2.91Q-.006,5.194,0,7.48v1.4c0,2.019.522,2.791,2.35,3.265V45.616c0,2.026.865,2.9,2.885,2.913q1.331.009,2.657,0H9.623a1.761,1.761,0,0,0,1.414-.507,1.179,1.179,0,0,0,.242-1,2,2,0,0,0-1.6-1.322,26.546,26.546,0,0,0-3.918-.086c-.4.015-.481-.049-.481-.05s-.08-.082-.079-.58q.035-11.952.022-23.905v-8.4c0-.17.009-.342.023-.525H7.784c1.8,0,2.515-.315,3.19-2.139.19-.515.333-.62.925-.625,8.632.032,17.135.031,25.269,0h.02c.618,0,.795.119.986.653.642,1.786,1.372,2.1,3.109,2.11H43.9L43.877,21.4q-.037,11.809-.049,23.619c0,.517-.086.612-.1.621s-.089.081-.518.048c-.866-.067-1.74-.047-2.584-.029l-.667.013h-.248c-.546-.009-1.844-.034-1.891,1.389a1.385,1.385,0,0,0,.36,1.061,1.923,1.923,0,0,0,1.492.405h.23q.842.011,1.684.009l1.089,0h.858c2.456,0,3.244-.781,3.244-3.2V12.153c1.875-.5,2.35-1.233,2.35-3.341V6.895c0-1.352,0-2.7-.006-4.055M2.854,3.331a.969.969,0,0,1,.038-.411,1.31,1.31,0,0,1,.471-.058q8.153.032,16.3.018H45.434a3.269,3.269,0,0,0,.787-.039,4.588,4.588,0,0,1,.045.916l0,1.536c-.006,1.2-.013,2.394.018,3.59a1.14,1.14,0,0,1-.028.355.826.826,0,0,1-.337.036c-1.525-.042-3.04-.041-4.506,0-.373.023-.5-.05-.677-.5l-.23-.591C39.9,6.6,39.65,6.5,37.852,6.516l-7.09,0c-6.533,0-13.068.007-19.6-.026A2.27,2.27,0,0,0,8.577,8.355c-.146.681-.4,1.018-1.442.929-.578-.047-1.158-.063-1.746-.063-.7,0-1.419.023-2.153.049h-.08a1.02,1.02,0,0,1-.263-.023A.814.814,0,0,1,2.858,8.9c.052-2.147.05-3.918,0-5.572" transform="translate(0 0)"/>
      <path id="Path_96521" data-name="Path 96521" d="M37.579,33.211c0-.62.011-1.239,0-1.857a2.471,2.471,0,0,0-2.758-2.715l-.4-.009a14.7,14.7,0,0,0-1.572.02c-.054,0-.1.006-.135.006-.1,0-.135-.012-.143-.006a.985.985,0,0,1-.035-.387c.036-1.287.027-2.575.016-3.862l0-.74A4.446,4.446,0,0,0,29.127,19l-1.166-.377c.776-3.4.171-5.5-1.978-6.969a5.241,5.241,0,0,0-5.973.122c-2.031,1.5-2.61,3.681-1.8,6.844l-.068.021c-.444.141-.866.274-1.287.417a4.419,4.419,0,0,0-3.236,4.459c-.009.689-.007,1.378,0,2.066v.821a5.068,5.068,0,0,1-.177,2.028,5.025,5.025,0,0,1-2.036.2h-.157a2.447,2.447,0,0,0-2.659,2.7c-.008.539,0,1.079.009,1.619.015.9.031,1.821-.039,2.711a2.958,2.958,0,0,0,1.83,3.319c.4.168.572.376.554,1.16-.025,1.187-.02,2.375-.016,3.562,0,1.052.007,2.1-.009,3.155a1.97,1.97,0,0,0,.475,1.485,2.033,2.033,0,0,0,1.491.5H12.9q6.373-.021,12.745-.013h7.605c1.523,0,1.989-.479,1.993-2.043l.013-1.587c.015-1.547.032-3.149-.036-4.727-.041-.952.2-1.4.913-1.721a2.44,2.44,0,0,0,1.479-2.623c-.047-.965-.038-1.957-.029-2.916m-2.87,2.3c.048.689-.2.937-.606,1.114a2.969,2.969,0,0,0-1.787,3.205c.07,1.523.056,3.024.04,4.615q-.007.7-.011,1.418H13.824V42.11c0-.2-.007-.392-.013-.589a7.039,7.039,0,0,1,.021-1.142c.262-1.971-.413-3.268-2.06-3.969a.768.768,0,0,1-.238-.255c-.04-1.266-.035-2.532-.031-3.837l0-.768c.264-.015.493-.029.721-.029h6.021c5.271,0,10.539,0,15.81-.026.465-.02.588.085.6.094s.083.094.052.541a25.156,25.156,0,0,0,0,3.379M23.034,19.157a2.241,2.241,0,0,1-1.574-.747,3.035,3.035,0,0,1-.785-2.2,2.467,2.467,0,0,1,2.5-2.53,2.285,2.285,0,0,1,1.622.748A2.79,2.79,0,0,1,25.49,16.5a2.612,2.612,0,0,1-2.456,2.659m-2.646,2.13a5.028,5.028,0,0,0,5.436-.048,2.391,2.391,0,0,0,.214-.15,2.991,2.991,0,0,1,2.321.735,2.939,2.939,0,0,1,1.31,2c0,1.193,0,2.384,0,3.621v1.133H16.563q0-.569-.011-1.136c-.015-1.506-.032-3.062.07-4.569a2.117,2.117,0,0,1,.967-.947,8.637,8.637,0,0,1,2.118-.718l.149-.036a.883.883,0,0,1,.531.114" transform="translate(1.485 1.877)" fill="#1a73e9"/>
    </g>
  </g>
</svg>
