<svg xmlns="http://www.w3.org/2000/svg" width="66.117" height="51.818" viewBox="0 0 66.117 51.818">
  <g id="Group_35417" data-name="Group 35417" transform="translate(-0.001)">
    <g id="Group_35418" data-name="Group 35418">
      <path id="Path_96538" data-name="Path 96538" d="M65.414,18.985l-.3-.328c-1.914-2.1-3.893-4.27-5.866-6.381a2.643,2.643,0,0,0-1.178-.675c-1.011-.294-2.047-.563-3.049-.825-.489-.127-.98-.255-1.468-.386L47.986,8.9Q41.443,7.149,34.9,5.406l-.147-.039a6.605,6.605,0,0,0-1.889-.316,6.386,6.386,0,0,0-1.588.324c-.163.048-.326.095-.486.138Q19.346,8.558,7.912,11.621a2.131,2.131,0,0,0-.972.576C4.669,14.644,2.587,16.915.575,19.14a1.879,1.879,0,0,0-.508,1.8A1.933,1.933,0,0,0,1.531,22.19l1.269.326c1.166.3,2.372.612,3.565.89.35.081.425.178.423.546-.013,2.45-.012,4.9-.011,7.352l0,11.608c0,1.508.4,2.029,1.84,2.426l2.915.8c6.643,1.829,13.512,3.721,20.282,5.537a4.435,4.435,0,0,0,1.149.14,6.844,6.844,0,0,0,1.347-.143c1.01-.2,2.016-.5,2.989-.779.413-.12.825-.239,1.24-.353l5.475-1.5q6.78-1.862,13.56-3.729c1.369-.378,1.766-.906,1.766-2.353V39.165q0-7.584-.009-15.168c0-.408.077-.514.439-.6.958-.22,1.925-.47,2.86-.712.6-.155,1.195-.309,1.794-.457a2.072,2.072,0,0,0,1.629-1.282,2.065,2.065,0,0,0-.641-1.964m-30.99,3.876,3.05,3.76q.081.1.165.192a2.574,2.574,0,0,1,.282.359A2.42,2.42,0,0,0,41,28.2c3.788-1,7.652-1.975,11.387-2.919q1.992-.5,3.982-1.007c.08-.02.16-.033.263-.05v4.208q0,6.925.014,13.851c0,.4-.088.515-.5.628q-8.212,2.242-16.421,4.512l-4.865,1.34c-.138.038-.28.07-.433.1h0Zm5.325,2.307c-.832-1.064-1.7-2.129-2.537-3.158q-.51-.627-1.018-1.254l-.413-.516-.078-.1,1.606-.426c1.492-.4,2.942-.781,4.393-1.164L45.691,17.5Q51.4,16,57.1,14.486a.612.612,0,0,1,.744.22c1.064,1.184,2.14,2.357,3.216,3.529l1.309,1.427c.066.073.13.149.2.239l-.34.094c-.445.123-.868.24-1.292.348l-5.437,1.378q-7.416,1.88-14.832,3.772a.737.737,0,0,1-.926-.325m-9.481-4.841-1.247,1.542c-.927,1.145-1.854,2.29-2.768,3.446a.546.546,0,0,1-.691.2Q19.578,23.988,13.6,22.473L9.528,21.441q-2.086-.531-4.173-1.066L3.527,19.9,5.9,17.315c.82-.9,1.641-1.8,2.476-2.687a.606.606,0,0,1,.4-.171q10.257,2.676,20.5,5.39l1.116.294a1.693,1.693,0,0,1-.128.186M9.491,28.772V24.494c0-.081.006-.163.012-.256a1.919,1.919,0,0,1,.25.04l3.832.969c3.785.956,7.7,1.943,11.537,2.957A2.519,2.519,0,0,0,28.206,27.2c.741-1.021,1.565-2.011,2.363-2.969.344-.412.687-.825,1.025-1.24.025-.032.052-.064.08-.1V48.864l-.695-.186c-.645-.171-1.28-.341-1.913-.515L23.645,46.67Q16.78,44.78,9.915,42.9c-.35-.1-.438-.164-.437-.488q.021-6.818.013-13.635m24.9-20.72,18.165,4.863c-.043.015-.09.028-.134.04l-1.917.506Q42.1,15.678,33.685,17.878a2.329,2.329,0,0,1-1.109.028q-8.173-2.129-16.34-4.292l-2.654-.7,18.13-4.866c.007.146.015.283.015.419m.008-1.089a1.316,1.316,0,0,0,1.9,1.239A1.305,1.305,0,0,0,34.4,7.281" fill="#1a73e9"/>
      <path id="Path_96539" data-name="Path 96539" d="M30.207,15.355a.875.875,0,0,1-.384-.089l-8.2-3.98a.884.884,0,0,1-.409-1.179l3.62-7.46a.882.882,0,0,1,1.18-.408l8.2,3.98A.883.883,0,0,1,34.623,7.4L31,14.858a.876.876,0,0,1-.8.5" fill="#fff"/>
      <path id="Path_96540" data-name="Path 96540" d="M25.752,3.391l7.719,3.745-3.386,6.979-7.72-3.746ZM25.629,1A2.033,2.033,0,0,0,23.8,2.145l-3.62,7.461a2.032,2.032,0,0,0,.941,2.715l8.2,3.98a2.031,2.031,0,0,0,2.715-.941l3.62-7.46a2.032,2.032,0,0,0-.941-2.716l-8.2-3.98a2.034,2.034,0,0,0-.886-.2"/>
      <path id="Path_96541" data-name="Path 96541" d="M33.918,14.253l-6-3,5-9L38.64,6.43Z" fill="#fff"/>
      <path id="Path_96542" data-name="Path 96542" d="M41.207,14.355a.875.875,0,0,1-.384-.089l-8.2-3.98a.884.884,0,0,1-.409-1.179l3.62-7.46a.882.882,0,0,1,1.18-.408l8.2,3.98A.883.883,0,0,1,45.623,6.4L42,13.858a.876.876,0,0,1-.795.5" fill="#fff"/>
      <path id="Path_96543" data-name="Path 96543" d="M36.752,2.391l7.719,3.745-3.386,6.979-7.72-3.746ZM36.629,0A2.033,2.033,0,0,0,34.8,1.145l-3.62,7.461a2.032,2.032,0,0,0,.941,2.715l8.2,3.98a2.031,2.031,0,0,0,2.715-.941l3.62-7.46a2.032,2.032,0,0,0-.941-2.716L37.515.2a2.034,2.034,0,0,0-.886-.2"/>
    </g>
  </g>
</svg>
