<svg xmlns="http://www.w3.org/2000/svg" width="49.536" height="49.536" viewBox="0 0 49.536 49.536">
  <g id="Group_35423" data-name="Group 35423" transform="translate(0 0)">
    <g id="Group_35424" data-name="Group 35424" transform="translate(0 0)">
      <path id="Path_96551" data-name="Path 96551" d="M49.53,31.9l0-24.4a7.163,7.163,0,0,0-1.134-4A7.27,7.27,0,0,0,42.034.009C39.446,0,36.861,0,34.273,0l-3.3,0H7.576A7.348,7.348,0,0,0,1.838,2.557,7.4,7.4,0,0,0,0,7.621q.01,6.124,0,12.248V41.88a7.761,7.761,0,0,0,.473,2.837,7.409,7.409,0,0,0,6.988,4.812q1.493.01,2.989.008h2.187l9.929,0q9.676,0,19.351,0h.01a7.462,7.462,0,0,0,7.608-7.581q-.01-5.027-.005-10.055m-2.78-2.282q0,6.215,0,12.431a4.585,4.585,0,0,1-2.988,4.36,4.942,4.942,0,0,1-1.685.326q-17.3.033-34.607.012a4.639,4.639,0,0,1-4.678-4.69q-.01-8.935-.005-17.868v-9.32q0-3.67,0-7.34A4.644,4.644,0,0,1,6.149,3,4.815,4.815,0,0,1,7.5,2.8q10.716-.01,21.434-.01l13.1,0a4.681,4.681,0,0,1,4.717,4.73q.007,6.094,0,12.187v9.911Z" transform="translate(0 0)" fill="#1a73e9"/>
      <path id="Path_96552" data-name="Path 96552" d="M18.047,24.1H12.191a4.285,4.285,0,0,0-4.38,4.37q-.008,2.949,0,5.9a4.265,4.265,0,0,0,4.393,4.4h5.858a4.276,4.276,0,0,0,4.416-4.414V28.537a4.241,4.241,0,0,0-4.43-4.436m1.63,8.34c0,.668,0,1.335,0,2a1.459,1.459,0,0,1-1.5,1.523q-3.022.015-6.045,0a1.462,1.462,0,0,1-1.513-1.52q-.016-3.024,0-6.045a1.456,1.456,0,0,1,1.529-1.5q1.5,0,3.006,0t3,0a1.456,1.456,0,0,1,1.527,1.533q0,1.044,0,2.088v1.917Z" transform="translate(0.724 2.235)"/>
      <path id="Path_96553" data-name="Path 96553" d="M18.1,7.811H12.164A4.278,4.278,0,0,0,7.81,12.174q0,2.947,0,5.9a4.273,4.273,0,0,0,4.422,4.407h5.816a4.241,4.241,0,0,0,4.429-4.439V12.184A4.287,4.287,0,0,0,18.1,7.811m1.58,8.223c0,.7,0,1.4,0,2.1a1.458,1.458,0,0,1-1.523,1.541q-3,.007-6.008,0a1.474,1.474,0,0,1-1.534-1.532q-.011-2.985,0-5.968A1.481,1.481,0,0,1,12.2,10.611q1.431,0,2.861,0,1.515,0,3.032,0A1.479,1.479,0,0,1,19.676,12.2v3.829Z" transform="translate(0.724 0.724)"/>
      <path id="Path_96554" data-name="Path 96554" d="M38.767,12.166a4.279,4.279,0,0,0-4.361-4.355q-2.949-.007-5.894,0a4.274,4.274,0,0,0-4.41,4.419v5.816a4.243,4.243,0,0,0,4.435,4.432h5.855A4.288,4.288,0,0,0,38.767,18.1V12.166Zm-2.8,6.006a1.46,1.46,0,0,1-1.525,1.5c-.7,0-1.4,0-2.1,0H30.522q-1.042,0-2.088,0A1.455,1.455,0,0,1,26.9,18.147q-.007-3,0-6.009a1.456,1.456,0,0,1,1.5-1.527q3.021-.016,6.044,0a1.459,1.459,0,0,1,1.519,1.515q.015,3.022,0,6.045" transform="translate(2.235 0.724)"/>
      <path id="Path_96555" data-name="Path 96555" d="M38.768,28.524A4.248,4.248,0,0,0,34.323,24.1H28.508A4.27,4.27,0,0,0,24.1,28.523v5.892a4.252,4.252,0,0,0,4.325,4.351q1.41,0,2.821,0,1.574,0,3.15,0a4.3,4.3,0,0,0,4.37-4.385V28.524ZM26.9,30.6c0-.721,0-1.44,0-2.161a1.458,1.458,0,0,1,1.53-1.533q1.5,0,3,0t3,0a1.457,1.457,0,0,1,1.527,1.5q.016,3.022,0,6.044a1.461,1.461,0,0,1-1.515,1.519q-3.022.018-6.045,0a1.46,1.46,0,0,1-1.5-1.523c0-.691,0-1.38,0-2.07V30.6Z" transform="translate(2.235 2.235)"/>
    </g>
  </g>
</svg>
