<svg xmlns="http://www.w3.org/2000/svg" width="46.548" height="46.511" viewBox="0 0 46.548 46.511">
  <g id="Group_35420" data-name="Group 35420" transform="translate(0)">
    <g id="Group_35421" data-name="Group 35421" transform="translate(0 0)">
      <path id="Path_96544" data-name="Path 96544" d="M46.542,18.712q0-6.477.006-12.956a5.663,5.663,0,0,0-1.13-3.507,5.333,5.333,0,0,0-2.9-2A7.168,7.168,0,0,0,40.586.009q-17.053-.019-34.1,0C6.016.007,5.549.053,5.1.1c-.2.02-.4.04-.6.056a4.088,4.088,0,0,0-2,.778A5.469,5.469,0,0,0,.008,5.61Q-.012,23.3.01,40.984a5.949,5.949,0,0,0,.245,1.644,5.192,5.192,0,0,0,1.089,1.959,5.406,5.406,0,0,0,2.584,1.677,6.711,6.711,0,0,0,1.847.232q14.606.016,29.209.009h5.842l.164,0c.059,0,.12,0,.18,0a2.167,2.167,0,0,0,.315-.021l.258-.036a4.3,4.3,0,0,0,1.037-.228,8.155,8.155,0,0,0,1.575-.84,5.257,5.257,0,0,0,1.922-2.631,5.691,5.691,0,0,0,.267-1.98q0-6.706,0-13.412ZM3.332,14.833H37.811a1.58,1.58,0,0,0,1.131-.3,1.427,1.427,0,0,0,.566-1.383,1.374,1.374,0,0,0-1.143-1.223,4.706,4.706,0,0,0-.775-.061l-34.078,0c-.214,0-.435,0-.468-.008a2.144,2.144,0,0,1-.025-.491q0-.857,0-1.716c0-1.422-.005-2.893.03-4.336a2.322,2.322,0,0,1,1.7-2.123,4.533,4.533,0,0,1,1.122-.153q17.441-.013,34.875-.013h.005a2.629,2.629,0,0,1,2.022.765,2.387,2.387,0,0,1,.7,1.514c.013.164.011.328.011.512v7.75q0,13.562.005,27.124a2.752,2.752,0,0,1-.539,1.823,2.386,2.386,0,0,1-1.957.97q-1.621,0-3.245,0H18.243q-6.313,0-12.626,0h0a2.459,2.459,0,0,1-2.128-1.076,2.4,2.4,0,0,1-.453-1.26c-.014-.211-.014-.422-.014-.633V15.131A1.479,1.479,0,0,0,3,14.853a1.589,1.589,0,0,1,.328-.02" transform="translate(0 0)" fill="#1a73e9"/>
      <path id="Path_96545" data-name="Path 96545" d="M7.568,24.482q.13.428.258.858c.151.5.3,1.006.46,1.507s.316.984.476,1.476c.17.523.341,1.048.506,1.573a.507.507,0,0,0,.5.392c.355.013.716.013,1.07,0a.564.564,0,0,0,.563-.493c.052-.229.114-.454.176-.681.028-.1.057-.207.084-.311l.166-.624c.13-.494.261-.986.4-1.478.045-.161.1-.321.169-.491.008-.022.016-.045.025-.067L12.7,27.17q.18.677.363,1.353.075.275.155.548c.077.269.154.539.221.811a.528.528,0,0,0,.581.416h.141c.2,0,.407,0,.61,0,.068,0,.142.006.2,0a.576.576,0,0,0,.6-.484c.008-.031.016-.063.023-.1a1.323,1.323,0,0,1,.04-.153c.1-.293.2-.587.3-.879q.23-.674.454-1.351c.275-.827.543-1.657.81-2.486l.068-.206a6.606,6.606,0,0,0,.215-.734.537.537,0,0,0-.052-.439.542.542,0,0,0-.41-.19,5.687,5.687,0,0,0-.636-.022h-.145a.585.585,0,0,0-.578.438c-.157.488-.312,1-.471,1.55-.083.294-.164.589-.244.884s-.164.6-.25.9c-.039.134-.093.271-.15.415l-.018.042q-.306-1.1-.608-2.2c-.046-.165-.09-.329-.133-.5-.1-.389-.208-.79-.333-1.18a.544.544,0,0,0-.414-.321,6.665,6.665,0,0,0-1.194.007.615.615,0,0,0-.439.37c-.129.409-.235.83-.337,1.236l-.106.42-.149.576c-.105.415-.212.831-.324,1.245a2.332,2.332,0,0,1-.128.327l-.011.026-.1-.321c-.106-.334-.214-.667-.311-1-.119-.411-.232-.821-.346-1.233s-.222-.8-.338-1.2a.575.575,0,0,0-.544-.464,5.461,5.461,0,0,0-.762-.005.6.6,0,0,0-.43.215.607.607,0,0,0-.105.479,1.654,1.654,0,0,0,.1.339c.023.058.045.118.064.178" transform="translate(0.313 0.984)"/>
      <path id="Path_96546" data-name="Path 96546" d="M27.743,24.872q.311.974.618,1.949.41,1.316.809,2.638l.1.315a.607.607,0,0,0,.691.523c.212,0,.424,0,.636,0l.253,0a.524.524,0,0,0,.56-.367c.072-.23.134-.464.2-.7l.026-.1c.087-.326.173-.655.26-.983.1-.372.2-.746.295-1.118.06-.228.125-.455.19-.683l.055-.2v0a1.225,1.225,0,0,1,.129.251c.068.206.122.424.174.635l.328,1.3q.2.768.391,1.534a.528.528,0,0,0,.527.418l.162,0c.141,0,.284.007.427.007.163,0,.325,0,.487-.02a.614.614,0,0,0,.468-.309c.2-.512.373-1.042.541-1.555l.093-.282q.18-.544.355-1.09c.124-.381.247-.764.373-1.144.059-.18.125-.359.19-.537.118-.325.241-.661.327-1,.126-.5.125-.753,0-.914-.146-.187-.426-.192-.858-.2-.654,0-.768.095-.951.748l-.186.662c-.244.873-.488,1.747-.74,2.618a.637.637,0,0,1-.124.2l-.014.017c-.016-.054-.031-.108-.045-.164l-.1-.419c-.057-.241-.115-.483-.175-.723q-.1-.389-.2-.777c-.124-.473-.252-.961-.364-1.445-.095-.415-.256-.678-.774-.7a7.451,7.451,0,0,0-.779,0,.7.7,0,0,0-.746.667c-.068.333-.152.694-.265,1.138q-.294,1.154-.6,2.3a.277.277,0,0,1-.052.084.316.316,0,0,1-.1-.09,1.523,1.523,0,0,1-.074-.281c-.015-.075-.029-.15-.051-.223-.085-.295-.175-.588-.264-.882-.174-.568-.352-1.156-.5-1.739-.232-.908-.43-1.057-1.343-.981l-.027,0a1.043,1.043,0,0,0-.129.016.59.59,0,0,0-.418.265.6.6,0,0,0-.036.5Z" transform="translate(1.161 0.983)"/>
      <path id="Path_96547" data-name="Path 96547" d="M17.955,25.369l.15.493.178.582c.1.331.2.663.306.992.088.278.177.556.267.832.164.507.334,1.03.488,1.548a.565.565,0,0,0,.535.473c.321.011.661.011,1.07,0a.518.518,0,0,0,.53-.409c.045-.178.094-.355.143-.532.031-.116.064-.231.095-.349l.193-.728c.134-.506.268-1.012.408-1.516.048-.175.112-.352.173-.522L22.5,26.2a1.83,1.83,0,0,1,.18.434c.336,1.235.609,2.264.86,3.24a.5.5,0,0,0,.51.425c.147,0,.3,0,.447,0,.215,0,.433,0,.65-.009a.526.526,0,0,0,.525-.448c.054-.217.127-.435.2-.645.04-.119.079-.238.117-.358.073-.233.145-.466.216-.7.1-.319.195-.638.3-.956.09-.282.182-.565.275-.847.088-.267.176-.535.27-.828.155-.488.316-.993.455-1.5a.622.622,0,0,0-.047-.451.775.775,0,0,0-.832-.311c-.064,0-.127.008-.19.008-.022,0-.045,0-.067,0a.621.621,0,0,0-.675.436c-.144.477-.284.958-.419,1.438-.074.262-.147.525-.22.788-.095.342-.19.684-.288,1.025-.044.15-.1.3-.157.473l-.025.068a1.373,1.373,0,0,1-.116-.269c-.106-.4-.2-.809-.3-1.215q-.084-.349-.17-.7l-.077-.313c-.108-.443-.221-.9-.356-1.345a.564.564,0,0,0-.409-.35,8.529,8.529,0,0,0-1.162-.014.551.551,0,0,0-.521.468l-.713,2.806c-.057.229-.117.465-.189.692a1.122,1.122,0,0,1-.12.232l-.009.016c-.015-.048-.03-.095-.043-.144-.03-.112-.059-.224-.09-.335-.055-.212-.11-.422-.173-.63-.1-.345-.206-.688-.312-1.032-.154-.509-.31-1.017-.457-1.528-.113-.39-.228-.534-.651-.565a3.624,3.624,0,0,0-.545-.008.7.7,0,0,0-.572.269.736.736,0,0,0-.019.66c.136.391.257.8.375,1.186" transform="translate(0.741 0.983)"/>
      <path id="Path_96548" data-name="Path 96548" d="M8.544,5.973a2.44,2.44,0,0,0-1.972-.022,1.517,1.517,0,0,0-.557,1.962,1.461,1.461,0,0,0,1.324.8c.047,0,.094,0,.142-.006h.243A1.431,1.431,0,0,0,9.191,7.592a1.529,1.529,0,0,0-.646-1.619" transform="translate(0.248 0.243)"/>
      <path id="Path_96549" data-name="Path 96549" d="M13.373,5.778a3.985,3.985,0,0,0-1,.051,1.286,1.286,0,0,0-.865.674,1.388,1.388,0,0,0-.126,1.163A1.436,1.436,0,0,0,12.988,8.7h.194c.038,0,.074,0,.11,0a1.486,1.486,0,0,0,1.415-1.386,1.466,1.466,0,0,0-1.335-1.533" transform="translate(0.478 0.244)"/>
      <path id="Path_96550" data-name="Path 96550" d="M19.435,5.965a2.123,2.123,0,0,0-1.561-.153,1.378,1.378,0,0,0-1.015.9A1.5,1.5,0,0,0,17.1,8.176a1.4,1.4,0,0,0,1.152.533c.053,0,.107,0,.163-.007h.251A1.418,1.418,0,0,0,20.1,7.62a1.455,1.455,0,0,0-.665-1.654" transform="translate(0.71 0.242)"/>
    </g>
  </g>
</svg>
