<svg xmlns="http://www.w3.org/2000/svg" width="48.387" height="49.394" viewBox="0 0 48.387 49.394">
  <g id="Group_35636" data-name="Group 35636" transform="translate(0.499 0.5)">
    <g id="Group_35637" data-name="Group 35637" transform="translate(0 0)">
      <path id="Path_96777" data-name="Path 96777" d="M46.709,19.762a2.795,2.795,0,0,0-1.322-4.477,10.973,10.973,0,0,0-1.707-.313c-.2-.026-.4-.052-.594-.081q-5.295-.775-10.592-1.538a.885.885,0,0,1-.717-.525L26.306,1.719A2.779,2.779,0,0,0,23.681,0a2.743,2.743,0,0,0-2.627,1.709l-1.9,3.846q-1.7,3.448-3.395,6.9a1.316,1.316,0,0,1-1.344.95H14.4a1.476,1.476,0,0,0-.265.041c-.074.016-.148.032-.221.042l-3.188.461q-4.043.584-8.085,1.167A2.99,2.99,0,0,0,.8,15.981,2.842,2.842,0,0,0,0,18.009,2.967,2.967,0,0,0,.937,20.1q2.6,2.5,5.183,5.032,1.793,1.749,3.589,3.491a1.176,1.176,0,0,1,.383,1.142c-.245,1.363-.477,2.729-.709,4.1L8.8,37.3c-.274,1.587-.549,3.175-.8,4.765a2.616,2.616,0,0,0,1.183,2.719,2.7,2.7,0,0,0,2.927.2c.351-.174.7-.356,1.043-.542l1.81-.953q3.218-1.689,6.437-3.377c-.132-.794-.249-1.56-.366-2.325l-.094-.607-10.086,5.3.064-.821a1.563,1.563,0,0,1,.017-.172l1.027-6q.487-2.83.978-5.655a2.986,2.986,0,0,0-.962-2.907c-.252-.231-.5-.472-.738-.713l-.342-.337L2.83,18l.852-.179c.086-.019.147-.03.209-.04l11.757-1.717a2.812,2.812,0,0,0,2.259-1.635L22.67,4.777c.147-.3.3-.594.454-.9l.51-1.012.372.609c.09.143.117.185.139.231l3.032,6.14c.774,1.571,1.548,3.143,2.333,4.708a2.62,2.62,0,0,0,2.054,1.493c2.614.392,5.231.768,7.845,1.147l5.088.753-2.706,2.814,2.858,1.166c.158-.163.322-.327.488-.494.526-.533,1.071-1.081,1.57-1.666" transform="translate(0 -0.001)" fill="#1a73e9" stroke="#1a73e9" stroke-width="1"/>
      <path id="Path_96778" data-name="Path 96778" d="M40.075,36.354a9.767,9.767,0,0,0-6.01-9.058,11.462,11.462,0,0,0-11.709.747,10.013,10.013,0,0,0-4.717,9.2,3.127,3.127,0,0,0,.992,2.364,3.535,3.535,0,0,0,2.4.822h.1c1.721-.036,3.475-.028,5.177-.021l2.6.008.117,0,2.28,0c1.831,0,3.723.007,5.584-.007a2.889,2.889,0,0,0,3.193-2.944v-.126c.005-.323.009-.657,0-.987m-2.727.588V37.2c0,.64,0,.64-.69.641l-15.542,0c-.684,0-.684,0-.714-.643a7.509,7.509,0,0,1,3.9-7.3,8.878,8.878,0,0,1,4.531-1.291,9.137,9.137,0,0,1,4.015.973,7.414,7.414,0,0,1,4.482,6.483c.02.289.017.584.015.872" transform="translate(5.732 8.461)"/>
      <path id="Path_96779" data-name="Path 96779" d="M27.822,28.29h.032A6.8,6.8,0,0,0,32.666,16.7a6.715,6.715,0,0,0-4.786-2h-.024a6.8,6.8,0,0,0-.034,13.59M23.8,21.4a3.987,3.987,0,0,1,4.064-3.947h.019a3.987,3.987,0,0,1,2.847,1.208,4.02,4.02,0,0,1-2.866,6.857h-.045A4.03,4.03,0,0,1,23.8,21.4" transform="translate(6.845 4.777)"/>
    </g>
  </g>
</svg>
