<svg xmlns="http://www.w3.org/2000/svg" width="71.991" height="58.114" viewBox="0 0 71.991 58.114">
  <g id="Group_35632" data-name="Group 35632" transform="translate(0 -0.001)">
    <g id="Group_35633" data-name="Group 35633" transform="translate(0 0)">
      <path id="Path_96771" data-name="Path 96771" d="M55.046,24.759a11.645,11.645,0,0,0-12.724.881c-3.509,2.478-5.18,6.009-5.113,10.79a3.954,3.954,0,0,0,1.12,2.87,3.828,3.828,0,0,0,2.727,1.015h.108c1.809-.037,3.652-.032,5.436-.024h.361c.81,0,1.623.008,2.462.008h.013l.122,0,2.6,0c1.9,0,3.852.005,5.777-.008a3.4,3.4,0,0,0,3.632-3.6l0-.148c.005-.375.01-.763,0-1.146a11.532,11.532,0,0,0-6.518-10.632M58.19,36.077v.3a1.714,1.714,0,0,1-.035.5,1.6,1.6,0,0,1-.466.032l-8.728.005H41.144c-.5,0-.5,0-.525-.538a8.976,8.976,0,0,1,8.744-9.694,8.831,8.831,0,0,1,4.156,1.092,8.365,8.365,0,0,1,4.653,7.309c.022.328.019.667.017,1" transform="translate(10.421 6.52)"/>
      <path id="Path_96772" data-name="Path 96772" d="M48.091,25.72h.028a6.34,6.34,0,1,0-4.462-1.871,6.238,6.238,0,0,0,4.434,1.871m-2.906-6.384A2.93,2.93,0,0,1,50.2,17.361a2.923,2.923,0,1,1-5.018,1.975" transform="translate(11.711 3.671)"/>
      <path id="Path_96773" data-name="Path 96773" d="M63.8,53.887a11.691,11.691,0,0,0-1.991-.087c-.828-.012-1.655,0-2.523,0-.009-.183-.019-.291-.019-.4q0-2,0-4a11.191,11.191,0,0,1-4.092-1.534v5.394c0,.536,0,.538-.527.538q-8.7,0-17.4.008c-.355,0-.461-.084-.461-.452q.015-16.624.01-33.25c0-.118.015-.236.027-.4.864.223,1.691.434,2.515.649q3.61.945,7.218,1.893c1,.264,2.01.531,3.015.795A17.039,17.039,0,0,1,51.88,19.5q-3-.772-6-1.546-4.3-1.112-8.611-2.215c-.353-.09-.5-.22-.5-.623.02-3.473.027-6.944,0-10.417a4.673,4.673,0,0,0-.332-1.664C35.65,1.061,34,.3,32.024.041a9.432,9.432,0,0,0-3.573.494c-3.308.84-6.622,1.654-9.933,2.48C16.011,3.639,13.512,4.3,11,4.882a5.971,5.971,0,0,0-4.854,5.853q-.017,8.946,0,17.892,0,12.481.012,24.959c0,.379-.129.451-.471.445-1.239-.018-2.478,0-3.717-.006A1.989,1.989,0,0,0,.1,56.719a1.926,1.926,0,0,0,2.1,1.394q8.5,0,17,0,7.723,0,15.443-.005,7.64,0,15.28.005,6.7,0,13.4-.008a1.963,1.963,0,0,0,2.052-1.674,2.148,2.148,0,0,0-1.58-2.545M32.7,32.234V53.395c0,.119-.017.237-.027.378H10.229V49.429q0-11.192,0-22.386c0-5.284.022-10.567-.01-15.85A2.242,2.242,0,0,1,12.18,8.721c3.388-.854,6.765-1.758,10.147-2.634,2.776-.718,5.552-1.444,8.338-2.125a3.5,3.5,0,0,1,1.366.044c.534.091.666.3.667.858,0,1.662,0,3.323,0,4.985V32.234" transform="translate(0 0)" fill="#1a73e9"/>
      <path id="Path_96774" data-name="Path 96774" d="M25.366,18.542H12.79a2.8,2.8,0,0,1-2.8-2.8V13.406a2.8,2.8,0,0,1,2.8-2.8H25.366a2.8,2.8,0,0,1,2.8,2.8v2.337a2.8,2.8,0,0,1-2.8,2.8m0-2.816v0Zm-.015-2.321-12.561.017.015,2.321,12.546-.017Z" transform="translate(2.798 2.971)"/>
      <path id="Path_96775" data-name="Path 96775" d="M25.366,27.542H12.79a2.8,2.8,0,0,1-2.8-2.8V22.406a2.8,2.8,0,0,1,2.8-2.8H25.366a2.8,2.8,0,0,1,2.8,2.8v2.337a2.8,2.8,0,0,1-2.8,2.8m0-2.816v0Zm-.015-2.321-12.561.017.015,2.321,12.546-.017Z" transform="translate(2.798 5.491)"/>
      <path id="Path_96776" data-name="Path 96776" d="M25.366,36.542H12.79a2.8,2.8,0,0,1-2.8-2.8V31.406a2.8,2.8,0,0,1,2.8-2.8H25.366a2.8,2.8,0,0,1,2.8,2.8v2.337a2.8,2.8,0,0,1-2.8,2.8m0-2.816v0Zm-.015-2.321-12.561.017.015,2.321,12.546-.017Z" transform="translate(2.798 8.012)"/>
    </g>
  </g>
</svg>
