<svg xmlns="http://www.w3.org/2000/svg" width="53.248" height="46.663" viewBox="0 0 53.248 46.663">
  <g id="Group_35639" data-name="Group 35639" transform="translate(-0.001)">
    <g id="Group_35640" data-name="Group 35640" transform="translate(0 0)">
      <path id="Path_96780" data-name="Path 96780" d="M30.94,22.095c0-1.422-.474-1.9-1.876-1.9q-4.41,0-8.817,0c-1.219,0-1.74.526-1.743,1.756q0,3.88,0,7.757v2.838h2.989V23.168h6.492v9.377h2.958V30.282q0-4.093,0-8.187" transform="translate(8.845 9.652)"/>
      <path id="Path_96781" data-name="Path 96781" d="M52.951,16.4Q50.394,11.916,47.8,7.445q-1.838-3.188-3.671-6.379A1.882,1.882,0,0,0,42.3,0h-.006C31.8.019,21.275.019,11.019,0h-.006A1.936,1.936,0,0,0,9.136,1.114C6.284,6.1,3.334,11.218.366,16.322a2.409,2.409,0,0,0-.324,1.72A7.652,7.652,0,0,0,5.4,24.324a1.1,1.1,0,0,1,.891,1.216Q6.268,33.5,6.28,41.45v3.33c0,1.441.439,1.88,1.877,1.88q18.473,0,36.939,0c1.463,0,1.91-.451,1.91-1.929V24.651l.331-.127c.118-.047.223-.087.33-.121a7.616,7.616,0,0,0,5.56-6.555,2.429,2.429,0,0,0-.278-1.444M44.045,43.678H36.828v.007H30.337v-.007H27.348V43.7H9.263V24.581l.168-.041a8.054,8.054,0,0,0,4.391-2.768l.168-.207.171.2a8.142,8.142,0,0,0,6.174,2.947h.013a7.968,7.968,0,0,0,6.124-2.9l.166-.2.17.194a8.059,8.059,0,0,0,6.082,2.9h.118a8.019,8.019,0,0,0,6.06-2.959l.17-.2.171.2a8.192,8.192,0,0,0,4.465,2.791l.17.038Zm6.112-25.36a4.783,4.783,0,0,1-4.623,3.466c-.059,0-.12,0-.18,0a4.832,4.832,0,0,1-4.53-3.816c-.033-.164-.061-.33-.083-.5-.133-.977-.686-1.537-1.519-1.537h-.006c-.817,0-1.341.535-1.474,1.5a4.827,4.827,0,0,1-9.607,0,1.484,1.484,0,0,0-1.252-1.466,1.412,1.412,0,0,0-1.116.229,1.614,1.614,0,0,0-.606,1.138A4.782,4.782,0,0,1,22.609,21.2a4.857,4.857,0,0,1-2.309.6,4.685,4.685,0,0,1-2.149-.526,4.9,4.9,0,0,1-2.618-3.8c-.129-1-.7-1.562-1.587-1.53a1.454,1.454,0,0,0-1.4,1.431,4.848,4.848,0,0,1-6.792,4,4.719,4.719,0,0,1-2.607-2.941A1.71,1.71,0,0,1,3.263,17.2q1.825-3.193,3.666-6.376Q8.955,7.319,10.965,3.8a1.539,1.539,0,0,1,1.543-.875h.025c3.595.024,7.189.021,10.785.018H29.77c3.722,0,7.448,0,11.17-.013h.016a1.293,1.293,0,0,1,1.281.723q1.938,3.381,3.893,6.756t3.895,6.761a1.647,1.647,0,0,1,.132,1.147" transform="translate(0 0)" fill="#1a73e9"/>
    </g>
  </g>
</svg>
