<svg id="Group_34464" data-name="Group 34464" xmlns="http://www.w3.org/2000/svg" width="23.814" height="23.804" viewBox="0 0 23.814 23.804">
  <g id="Group_17348" data-name="Group 17348" transform="translate(0 0)">
    <g id="Group_17344" data-name="Group 17344" transform="translate(0 0)">
      <g id="Group_16362" data-name="Group 16362">
        <path id="Path_64183" data-name="Path 64183" d="M5.787,33.25A2.19,2.19,0,0,0,3.651,35.48a2.2,2.2,0,0,0,2.191,2.155c2.125.011,4.269.009,6.342.006H22.971a4.282,4.282,0,0,1,.013-4.39c-4.794-.009-10.986-.016-17.2,0" transform="translate(-1.732 -15.77)" fill="#ff0089"/>
        <path id="Path_64184" data-name="Path 64184" d="M22.62,37.842c-.075,0-.149,0-.219-.008s-.107-.007-.148-.007h-11.8c-2.078,0-4.225,0-6.338-.007H4.1A4.126,4.126,0,0,1,0,33.78,4.11,4.11,0,0,1,4.04,29.6c6.447-.016,12.963-.008,18.488,0a1.271,1.271,0,0,1,1.2.732l.019.084a1.689,1.689,0,0,1-.128.962l-.019.054a1.318,1.318,0,0,1-.324.485l0,0a.287.287,0,0,1-.026.033,2.649,2.649,0,0,0,.074,3.641l-.954.742a3.829,3.829,0,0,1-.08-5.117c.048-.062.087-.107.128-.151l.09-.171a.579.579,0,0,0,.03-.081l-.016,0c-5.523-.01-12.038-.018-18.472,0a2.9,2.9,0,0,0-2.843,2.951,2.914,2.914,0,0,0,2.9,2.852h.008c2.113.012,4.257.009,6.335.006H22.246a1.881,1.881,0,0,1,.239.011l.077,0a1.933,1.933,0,0,0-.191-.295l.954-.743a1.794,1.794,0,0,1,.464,1.4,1.079,1.079,0,0,1-1.168.843" transform="translate(0 -14.038)" fill="#1e2663"/>
        <path id="Path_64185" data-name="Path 64185" d="M22.827,8.878v0a3.513,3.513,0,0,0-2.511-1.048c-2.313-.01-4.663-.008-6.938-.006H10.042V7.038H22.778c.034,0,.069,0,.105.005a.7.7,0,0,0,.272-.016l.112-.034c.21-.062.426-.126.483-.279a.929.929,0,0,0-.144-.7,2.038,2.038,0,0,0-.263-.368,2.681,2.681,0,0,1-.186-.237,2.832,2.832,0,0,1-.491-2.7A6.178,6.178,0,0,1,23.217,1.7c.13-.21.263-.423.379-.643.056-.105.232-.473.125-.705-.1-.2-.444-.3-.634-.327A4.042,4.042,0,0,0,22.4.008c-.1,0-.191.006-.285.006H4.864a3.515,3.515,0,1,0-.328,7.023c.1,0,.2.005.3,0H5.2v.785H4.078c-.7,0-1.433,0-2.15.013-.19,0-.559.11-.622.3a1.128,1.128,0,0,0,.1.675l.018.053a.777.777,0,0,0,.179.259,1.372,1.372,0,0,1,.1.112,3.194,3.194,0,0,1-.072,4.308c-.034.043-.069.085-.105.127a2.319,2.319,0,0,0-.224.3.592.592,0,0,0-.065.564.589.589,0,0,0,.476.3,2.062,2.062,0,0,0,.337.012H15.809c.454,0,.9,0,1.35,0l1.322,0c.644,0,1.294,0,1.937-.013a3.509,3.509,0,0,0,2.409-5.964M2.908,5.091A2.235,2.235,0,0,1,2.5,2.64a2.293,2.293,0,0,1,2-1.482,1.659,1.659,0,0,1,.191-.009H22.11c-.978,2.067-.978,2.365-.039,4.73H10.022V3.807c0-.673-.166-.837-.83-.841-.939,0-2.055,0-3.2,0-.583,0-.762.182-.765.765,0,.508,0,1.015,0,1.534l0,0v.61a2.444,2.444,0,0,1-2.313-.788m6.04-1.059V9.951c-.315-.242-.606-.444-.87-.676A.619.619,0,0,0,7.2,9.226a.536.536,0,0,0-.057.058c-.251.221-.526.416-.841.662l0-5.913Zm13.428,8.487a2.257,2.257,0,0,1-2.059,1.191q-7.005.006-14.011,0H3.073c-.048,0-.1,0-.153-.008a4.227,4.227,0,0,0,.008-4.71H5.221c0,.149,0,.3,0,.449,0,.451-.008.918.014,1.377a1.453,1.453,0,0,0,.145.49c.029.068.058.135.081.2l.029.084.084-.033c.067-.024.137-.044.207-.065a1.54,1.54,0,0,0,.467-.192c.341-.24.663-.5,1-.768.12-.1.242-.193.368-.291l.35.276c.329.263.67.533,1.019.777.179.125.535.31.733.21s.281-.494.291-.707c.023-.449.018-.909.014-1.352,0-.158,0-.312,0-.469l.017,0a.434.434,0,0,1,.094-.018q1.408,0,2.816,0c2.442,0,4.967-.009,7.45.011a2.29,2.29,0,0,1,1.988,1.18,2.348,2.348,0,0,1-.011,2.372" transform="translate(-0.562 -0.001)" fill="#1e2663"/>
        <path id="Path_64186" data-name="Path 64186" d="M13.58,13.689l-.142-.109c-.1-.076-.195-.148-.289-.219-.207-.155-.4-.3-.585-.461a.535.535,0,0,0-.755-.052.506.506,0,0,0-.06.061c-.173.152-.358.293-.555.443-.093.07-.189.143-.289.222l-.142.111V7.5H13.58ZM12.164,12.54a.786.786,0,0,1,.516.228c.178.158.371.3.574.453l.15.112V7.678H10.94v5.647l.148-.113c.193-.148.376-.287.545-.435a.81.81,0,0,1,.531-.237" transform="translate(-5.106 -3.56)" fill="#1e2663"/>
      </g>
    </g>
  </g>
</svg>
