<svg id="Group_34512" data-name="Group 34512" xmlns="http://www.w3.org/2000/svg" width="26.158" height="22.81" viewBox="0 0 26.158 22.81">
  <g id="Group_16374" data-name="Group 16374" transform="translate(0 0)">
    <path id="Path_64213" data-name="Path 64213" d="M36.078,33.205c.737.4,1.514.8,2.326,1.225l.255.133-.026-.158c-.165-.99-.321-1.926-.5-2.859a1.03,1.03,0,0,1,.368-1.038c.7-.671,1.423-1.379,2.144-2.085l.017-.017-.194-.03c-.793-.124-1.543-.241-2.305-.32a1.652,1.652,0,0,1-1.628-1.179,11.758,11.758,0,0,0-.656-1.347c-.156-.319-.306-.619-.46-.928l-.231.471c-.378.769-.754,1.536-1.149,2.3a1.207,1.207,0,0,1-.763.569c-.471.092-.929.155-1.372.217l-.057.008c-.184.026-.369.051-.553.079-.316.048-.631.1-.927.143l.134.146c.579.632,1.165,1.273,1.762,1.891a1.231,1.231,0,0,1,.412,1.316c-.106.459-.194.952-.26,1.458-.076.459-.149.9-.224,1.37l.156-.082c.849-.442,1.657-.863,2.457-1.3a1.144,1.144,0,0,1,.612-.172,1.2,1.2,0,0,1,.659.2" transform="translate(-14.509 -11.753)" fill="#ff0089"/>
    <path id="Path_64214" data-name="Path 64214" d="M16.191,21.317q-6.054,0-12.108,0a15.461,15.461,0,0,1-1.64-.063,1.234,1.234,0,0,1-1.1-1.095,2.573,2.573,0,0,1-.034-.42q0-6.439,0-12.879V6.645H20.449c.23,0,.23,0,.23.23q0,1.882,0,3.763l1.293,1.057q-.008-2.757-.016-5.514a10.15,10.15,0,0,0-.035-1.2,2.645,2.645,0,0,0-2.281-2.213c-.394-.036-.792-.025-1.189-.027-.123,0-.163-.043-.161-.165q.007-.447-.005-.893A1.734,1.734,0,0,0,16.943.039a1.637,1.637,0,0,0-1.866,1.325,8.2,8.2,0,0,0-.062,1.185c0,.121-.034.162-.159.161-.616,0-1.233,0-1.849,0-.1,0-.124-.044-.145-.136q-.179-.8-.374-1.6a1.235,1.235,0,0,0-.412-.632A1.492,1.492,0,0,0,9.947.564a2.157,2.157,0,0,0-.321.706c-.1.4-.138.81-.194,1.218-.017.127-.045.191-.2.189-.658-.009-1.316-.006-1.974,0-.113,0-.143-.034-.14-.143.009-.318.024-.637.009-.955A1.678,1.678,0,0,0,5.638.016,1.623,1.623,0,0,0,3.947,1.395c-.058.4-.059.812-.083,1.217,0,.081-.008.139-.118.135-.3-.012-.606,0-.908-.021A2.752,2.752,0,0,0,.088,4.738,4.84,4.84,0,0,0,0,6q0,6.964,0,13.927a2.607,2.607,0,0,0,.1.709,2.707,2.707,0,0,0,2.4,1.967c.368.031.741.026,1.111.027q3.658,0,7.316,0H15.9ZM15.72,1.34a.842.842,0,0,1,.9-.682.911.911,0,0,1,.921.52,1.338,1.338,0,0,1,.123.527c.015.564.006,1.128.006,1.691h0c0,.569.01,1.139,0,1.707a1,1,0,0,1-.949,1.028A1.03,1.03,0,0,1,15.661,5.06c0-.287,0-.574,0-.861,0-.773-.008-1.546,0-2.318a2.181,2.181,0,0,1,.065-.54m-5.637.371A1,1,0,0,1,11.532.727a.988.988,0,0,1,.554.933q.028,1.731,0,3.462a1.008,1.008,0,0,1-1.679.756.993.993,0,0,1-.326-.784c-.006-.564,0-1.128,0-1.692s-.008-1.128,0-1.692M4.5,1.831A1.2,1.2,0,0,1,4.822.9.982.982,0,0,1,5.912.7a.966.966,0,0,1,.6.861,12.629,12.629,0,0,1,.008,1.953c-.009.537,0,1.074-.009,1.611a.972.972,0,0,1-.984,1A1.053,1.053,0,0,1,4.5,5.1c-.01-.574,0-1.148,0-1.722H4.5c0-.517,0-1.034,0-1.55" transform="translate(0 0)" fill="#1d2465"/>
  </g>
</svg>
