<svg id="Group_34519" data-name="Group 34519" xmlns="http://www.w3.org/2000/svg" width="20.108" height="29.978" viewBox="0 0 20.108 29.978">
  <g id="Group_17347" data-name="Group 17347" transform="translate(0 0)">
    <g id="Group_16380" data-name="Group 16380" transform="translate(0)">
      <path id="Path_64218" data-name="Path 64218" d="M16.3,33.116a1.466,1.466,0,1,0-1.492-1.465A1.481,1.481,0,0,0,16.3,33.116" transform="translate(-6.359 -12.961)" fill="#ff0089"/>
      <path id="Path_64219" data-name="Path 64219" d="M15.013,33.539a3.177,3.177,0,1,1,3.2-3.178,3.194,3.194,0,0,1-3.2,3.178m0-5.213a2.036,2.036,0,1,0,2.063,2.035,2.052,2.052,0,0,0-2.063-2.035" transform="translate(-5.071 -11.673)" fill="#1e2663"/>
      <path id="Path_64220" data-name="Path 64220" d="M10.806,42.922l0,2.912h7.549V42.963a2,2,0,0,0-.6-1.44,2.074,2.074,0,0,0-1.328-.609c-.061.049-.158.133-.312.278a2.271,2.271,0,0,1-3.049.011c-.163-.15-.265-.238-.329-.289a2.075,2.075,0,0,0-1.931,2.009" transform="translate(-4.64 -17.568)" fill="#ff0089"/>
      <path id="Path_64221" data-name="Path 64221" d="M17.693,46.253h-8.8A1.088,1.088,0,0,1,7.8,45.166v-3.5A3.791,3.791,0,0,1,11.611,37.9c.463,0,.773.239,1.324.746a.55.55,0,0,0,.726,0c.474-.446.826-.742,1.318-.742a3.775,3.775,0,0,1,2.688,1.108,3.688,3.688,0,0,1,1.113,2.66v3.5a1.088,1.088,0,0,1-1.086,1.086M8.948,45.112h8.69V41.67a2.561,2.561,0,0,0-.773-1.848,2.645,2.645,0,0,0-1.886-.778,2.106,2.106,0,0,0-.544.439,1.694,1.694,0,0,1-2.273.007,2.553,2.553,0,0,0-.552-.446,2.649,2.649,0,0,0-2.664,2.626Z" transform="translate(-3.352 -16.275)" fill="#1e2663"/>
      <path id="Path_64222" data-name="Path 64222" d="M18.207,13.084a.568.568,0,0,0-.558-.482H15.871V9.853a3.809,3.809,0,0,0-3.8-3.8H11.045a3.107,3.107,0,1,0-1.981,0H8.041a3.808,3.808,0,0,0-3.8,3.8V12.6H2.46a.568.568,0,0,0-.559.482l-1.9,12.9a.565.565,0,0,0,.558.646H3.429V25.5H1.217L2.947,13.73H17.162L18.891,25.5H16.456v1.128h3.088a.566.566,0,0,0,.559-.646Zm-9.723-.957.156.475H7.256V10.428a.564.564,0,0,0-1.129,0V12.6H5.365V9.853A2.679,2.679,0,0,1,8.041,7.178h.634l.193.92-.409,3.795a.577.577,0,0,0,.025.235m-.409-9.02a1.979,1.979,0,1,1,1.979,1.979A1.981,1.981,0,0,1,8.075,3.106m2.205,4.071-.068.327H9.9l-.068-.327Zm0,5.424H9.827l-.232-.711.351-3.258h.218l.35,3.258Zm4.462,0H13.98V10.428a.564.564,0,0,0-1.128,0V12.6H11.468l.155-.475a.561.561,0,0,0,.026-.236L11.24,8.1l.193-.919h.634a2.679,2.679,0,0,1,2.676,2.676Z" transform="translate(0)" fill="#1e2663"/>
    </g>
  </g>
</svg>
