<svg xmlns="http://www.w3.org/2000/svg" width="22.316" height="21.803" viewBox="0 0 22.316 21.803">
  <g id="Group_34495" data-name="Group 34495" transform="translate(480.714 -7906.037)">
    <g id="Group_18427" data-name="Group 18427" transform="translate(-480.714 7906.037)">
      <g id="Group_17341" data-name="Group 17341" transform="translate(0 0)">
        <g id="Group_16371" data-name="Group 16371" transform="translate(0 0)">
          <g id="Group_16372" data-name="Group 16372">
            <path id="Path_64204" data-name="Path 64204" d="M9.071,22.643l7.347,0V20.048q0-2.108,0-4.214H9.071q0,3.405,0,6.808" transform="translate(-6.08 -9.506)" fill="#ff0089"/>
            <path id="Path_64206" data-name="Path 64206" d="M21.712,1.784a.657.657,0,0,0-.711.6c-.013.2-.012.393-.011.584V15.895c0,.167,0,.334,0,.5,0,.48,0,.975-.015,1.461a2.557,2.557,0,0,1-.668,1.625,2.844,2.844,0,0,1-2.254,1q-6.88,0-13.765,0a2.882,2.882,0,0,1-1.42-.317,2.811,2.811,0,0,1-1.423-1.713A4.411,4.411,0,0,1,1.329,17.2V1.5c0-.076,0-.155,0-.165A.764.764,0,0,1,1.5,1.33H17.732c.026,0,.055,0,.083,0a1.144,1.144,0,0,1,.123,0,.443.443,0,0,1,0,.131c0,.029,0,.058,0,.084V15.825a1.583,1.583,0,0,0,.022.312.642.642,0,0,0,.091.224.65.65,0,0,0,.9.191.758.758,0,0,0,.318-.708V6.235q0-2.714,0-5.42a.684.684,0,0,0,0-.113.754.754,0,0,0-.8-.7q-3.357.011-6.715.006H.729A.862.862,0,0,0,.543.02.69.69,0,0,0,0,.74v16.8a4.456,4.456,0,0,0,.309,1.648A4.173,4.173,0,0,0,4.138,21.8H18.3a1.431,1.431,0,0,0,.145-.006A4.145,4.145,0,0,0,21.565,20a4.259,4.259,0,0,0,.75-2.548V2.464a.658.658,0,0,0-.6-.68" transform="translate(-0.001 0)" fill="#1e2663"/>
            <path id="Path_64207" data-name="Path 64207" d="M6.2,32.646a2.585,2.585,0,0,0,.278.015H18.509a2.684,2.684,0,0,0,.287-.016.659.659,0,0,0,.005-1.314,2.437,2.437,0,0,0-.28-.012H6.424a1.775,1.775,0,0,0-.228.012.692.692,0,0,0-.605.655.678.678,0,0,0,.605.659" transform="translate(-2.915 -16.328)" fill="#1e2663"/>
            <path id="Path_64208" data-name="Path 64208" d="M18.622,6.906H6.562c-.111,0-.222,0-.336.006a.7.7,0,0,0-.612.5.658.658,0,0,0,.262.694.87.87,0,0,0,.473.143.723.723,0,0,0,.072,0H18.55a2.038,2.038,0,0,0,.295-.02.653.653,0,0,0,.444-1.011.737.737,0,0,0-.666-.311" transform="translate(-2.918 -3.599)" fill="#1e2663"/>
            <path id="Path_64209" data-name="Path 64209" d="M10.347,38.784a2.893,2.893,0,0,0,.29.013H20.662c.1,0,.193-.005.29-.015a.683.683,0,0,0,.606-.6.668.668,0,0,0-.521-.7,1.685,1.685,0,0,0-.36-.03H10.591a1.838,1.838,0,0,0-.251.012.694.694,0,0,0-.611.668.684.684,0,0,0,.618.649" transform="translate(-5.073 -19.528)" fill="#1e2663"/>
            <path id="Path_64210" data-name="Path 64210" d="M29.16,14.07a.674.674,0,0,0-.73-.592H25.039c-.227,0-.461,0-.694.014a.674.674,0,0,0-.621.653.689.689,0,0,0,.622.663c.1.01.2.015.3.015h3.738a1.493,1.493,0,0,0,.242-.02.681.681,0,0,0,.536-.7Z" transform="translate(-12.37 -7.025)" fill="#1e2663"/>
            <path id="Path_64211" data-name="Path 64211" d="M28.456,18.9H24.581a2.325,2.325,0,0,0-.286.018.691.691,0,0,0-.557.547.68.68,0,0,0-.007.082.667.667,0,0,0,.653.682c.48.007.962.006,1.443,0l1.846.008h.21c.224,0,.452,0,.681-.011a.674.674,0,0,0,.6-.739.661.661,0,0,0-.708-.589M26.44,20.131h0v0Z" transform="translate(-12.373 -9.851)" fill="#1e2663"/>
            <path id="Path_64212" data-name="Path 64212" d="M29.161,25.322a.663.663,0,0,0-.653-.672c-.456,0-.912,0-1.368,0h-.628l0,0H24.746c-.127,0-.255,0-.382.007a.7.7,0,0,0-.624.5.633.633,0,0,0,.339.728,1.056,1.056,0,0,0,.445.1h.009q.943.005,1.886,0h1.949a1.449,1.449,0,0,0,.24-.02.662.662,0,0,0,.554-.643" transform="translate(-12.367 -12.85)" fill="#1e2663"/>
          </g>
        </g>
      </g>
    </g>
  </g>
</svg>
