<svg xmlns="http://www.w3.org/2000/svg" width="15.37" height="28.779" viewBox="0 0 15.37 28.779">
  <g id="Group_34464" data-name="Group 34464" transform="translate(-5.719 3.356)">
    <g id="Group_34514" data-name="Group 34514" transform="translate(5.719 -3.356)">
      <g id="Group_34515" data-name="Group 34515" transform="translate(0 0)">
        <path id="Path_79669" data-name="Path 79669" d="M4.891,19.145v1.488a4.6,4.6,0,1,0,9.2,0V19.145Z" transform="translate(-1.806 -7.07)" fill="#ff0089"/>
        <path id="Path_79670" data-name="Path 79670" d="M7.685,27.709A7.685,7.685,0,0,1,0,20.024V17.8H1.589v2.229a6.1,6.1,0,1,0,12.191,0V17.8H15.37v2.229a7.685,7.685,0,0,1-7.685,7.685" transform="translate(0 -6.572)" fill="#1e2663"/>
        <rect id="Rectangle_19323" data-name="Rectangle 19323" width="2.306" height="8.436" transform="translate(6.531 20.342)" fill="#1e2663"/>
        <path id="Path_79671" data-name="Path 79671" d="M12.734,4.858h1.357V4.6a4.6,4.6,0,0,0-9.2,0v.258H6.249a.426.426,0,0,1,0,.851H4.891v.962H6.249a.426.426,0,0,1,0,.851H4.891v.962H6.249a.425.425,0,0,1,0,.851H4.891v1.888h9.2V9.336H12.734a.425.425,0,1,1,0-.851h1.357V7.522H12.734a.426.426,0,1,1,0-.851h1.357V5.709H12.734a.426.426,0,1,1,0-.851M7.574,9.442a.5.5,0,1,1,.5-.5.5.5,0,0,1-.5.5m0-1.827a.5.5,0,1,1,.5-.5.5.5,0,0,1-.5.5m0-1.827a.5.5,0,1,1,.5-.5.5.5,0,0,1-.5.5M11.3,9.442a.5.5,0,1,1,.5-.5.5.5,0,0,1-.5.5m0-1.827a.5.5,0,1,1,.5-.5.5.5,0,0,1-.5.5m0-1.827a.5.5,0,1,1,.5-.5.5.5,0,0,1-.5.5" transform="translate(-1.806 0)" fill="#1e2663"/>
      </g>
    </g>
  </g>
</svg>
