<svg xmlns="http://www.w3.org/2000/svg" width="22.198" height="22.893" viewBox="0 0 22.198 22.893">
  <g id="Group_34512" data-name="Group 34512" transform="translate(-0.906 1.041)">
    <g id="Group_34520" data-name="Group 34520" transform="translate(1089.493 -7904.766)">
      <g id="Group_18425" data-name="Group 18425" transform="translate(-1088.587 7903.725)">
        <g id="Group_17386" data-name="Group 17386" transform="translate(0 0)">
          <g id="Group_17385" data-name="Group 17385" transform="translate(0 0)">
            <g id="Group_17387" data-name="Group 17387">
              <path id="Path_65804" data-name="Path 65804" d="M24.841,16.951a4.741,4.741,0,0,0,1.039-2.944,5.167,5.167,0,0,0-5.172-4.982c-.063,0-.125-.009-.188-.009s-.1.006-.157.008a5.169,5.169,0,0,0-5.2,4.983,5.155,5.155,0,0,0,5.031,4.976c.109.006.218.015.329.015s.241-.009.36-.017a5.558,5.558,0,0,0,3.056-1.129l4.772,4.771.9-.9Zm-4.813-.691-2.056-2.095,1.094-1.074.993,1.012,2.281-2.19L23.4,13.019Z" transform="translate(-7.413 -4.409)" fill="#ff0089"/>
              <path id="Path_65805" data-name="Path 65805" d="M2.5,21.385H1.431V4.931H2.5V3.5H1.228A1.229,1.229,0,0,0,0,4.727V21.588a1.229,1.229,0,0,0,1.228,1.228H2.5Z" transform="translate(0 -1.711)" fill="#1d2465"/>
              <path id="Path_65806" data-name="Path 65806" d="M22.852,19.151v2.312H7.931V1.431H22.852V12.258l1.431,1.6V1.227A1.229,1.229,0,0,0,23.055,0H7.728A1.229,1.229,0,0,0,6.5,1.227V21.665a1.229,1.229,0,0,0,1.228,1.228H23.055a1.229,1.229,0,0,0,1.228-1.228V19.6Z" transform="translate(-3.178)" fill="#1d2465"/>
            </g>
          </g>
        </g>
      </g>
    </g>
  </g>
</svg>
