<svg xmlns="http://www.w3.org/2000/svg" xmlns:xlink="http://www.w3.org/1999/xlink" width="1400" height="255" viewBox="0 0 1400 255">
  <defs>
    <linearGradient id="linear-gradient" x1="1.203" y1="-0.202" x2="-0.255" y2="1.429" gradientUnits="objectBoundingBox">
      <stop offset="0" stop-color="#4c1e6e"/>
      <stop offset="1" stop-color="#464c6e"/>
    </linearGradient>
    <clipPath id="clip-path">
      <rect id="Rectangle_2756" data-name="Rectangle 2756" width="1400" height="255" transform="translate(0 171)" fill="url(#linear-gradient)"/>
    </clipPath>
    <clipPath id="clip-path-2">
      <rect id="Rectangle_13539" data-name="Rectangle 13539" width="997" height="693.809" transform="translate(-0.235 -0.25)"/>
    </clipPath>
    <clipPath id="clip-path-3">
      <rect id="Rectangle_13538" data-name="Rectangle 13538" width="1466" height="1221.739" transform="translate(0 0)"/>
    </clipPath>
    <clipPath id="clip-path-4">
      <path id="Path_69733" data-name="Path 69733" d="M122.248,627.09l2028.71-858.154L1835.824,1605.581l-2028.71,858.154Z" transform="translate(0 0)"/>
    </clipPath>
    <clipPath id="clip-path-5">
      <path id="Path_69732" data-name="Path 69732" d="M241.27,637.564,2343.687-251.768,1808.139,2869.479-294.278,3758.812Z"/>
    </clipPath>
    <clipPath id="clip-path-6">
      <rect id="Rectangle_13540" data-name="Rectangle 13540" width="393.324" height="398.69" fill="#202a5f"/>
    </clipPath>
  </defs>
  <g id="Mask_Group_7423" data-name="Mask Group 7423" transform="translate(0 -171)" clip-path="url(#clip-path)">
    <g id="Group_19040" data-name="Group 19040">
      <g id="Mask_Group_7422" data-name="Mask Group 7422" transform="translate(406.216 -143.678)" opacity="0.37" clip-path="url(#clip-path-2)">
        <g id="Mask_Group_7421" data-name="Mask Group 7421" transform="translate(-31.235 -495.004)" opacity="0.189" clip-path="url(#clip-path-3)">
          <g id="Mask_Group_7420" data-name="Mask Group 7420" transform="matrix(0.966, -0.259, 0.259, 0.966, -956.119, 265.624)" opacity="0.674" clip-path="url(#clip-path-4)">
            <g id="Group_19037" data-name="Group 19037" transform="translate(45.079 722.51)">
              <g id="Group_19036" data-name="Group 19036" transform="translate(0 0)" clip-path="url(#clip-path-5)">
                <path id="Path_69686" data-name="Path 69686" d="M285.461,15.648c-42.193-27.3-86.492-30.506-135.423-9.807S48.693,70.659-10.211,140.719l.178-12.572C49.678,57.111,102.85,12.374,152.522-8.637S247.138-26.416,289.911,1.27Z" transform="translate(1218.57 2982.471)"/>
                <path id="Path_69687" data-name="Path 69687" d="M285.465,15.648c-42.2-27.294-86.492-30.506-135.423-9.807S48.693,70.661-10.207,140.718l.174-12.57C49.678,57.112,102.854,12.374,152.526-8.638s94.617-17.778,137.389,9.907Z" transform="translate(19.005 3489.891)"/>
                <path id="Path_69688" data-name="Path 69688" d="M441.466,67.8C393.81,10.427,332.639-42.963,240.233-3.875S57.327,152.761-19.017,262.585l-.639-11.51C57.488,140.1,148.989,21.294,242.717-18.353S398.309-4.071,446.465,53.9Z" transform="translate(1145.036 2895.076)"/>
                <path id="Path_69689" data-name="Path 69689" d="M441.462,67.8C393.81,10.426,332.631-42.962,240.229-3.875S57.319,152.763-19.021,262.585l-.635-11.512C57.48,140.1,148.981,21.3,242.714-18.353S398.3-4.069,446.457,53.9Z" transform="translate(-54.517 3402.495)"/>
                <path id="Path_69690" data-name="Path 69690" d="M568.745,127.809C501.669,34.87,432.311-61.229,316-12.03S83.923,211.579-28.04,380.252l-.853-11.2C83.916,199.112,200.571,23.371,318.488-26.508s187.8,46.955,255.391,140.589Z" transform="translate(1085.93 2806.112)"/>
                <path id="Path_69691" data-name="Path 69691" d="M568.737,127.81C501.648,34.859,432.294-61.225,315.995-12.03S83.92,211.569-28.038,380.23l-.855-11.186C83.913,199.1,200.567,23.37,318.479-26.508s187.79,46.942,255.372,140.571Z" transform="translate(-113.623 3313.531)"/>
                <path id="Path_69692" data-name="Path 69692" d="M695.965,188.042c-17.72-21.329-34.959-45.224-51.633-68.329C577.254,26.767,507.895-69.35,391.58-20.149S159.5,203.471,47.533,372.153C19.7,414.086-9.088,457.449-37.474,498.29l-.635-11.512c28.271-40.675,57-83.96,84.789-125.821C159.493,190.994,276.148,15.252,394.064-34.627s187.812,46.96,255.394,140.616c16.645,23.063,33.859,46.915,51.5,68.16Z" transform="translate(1027.019 2717.101)"/>
                <path id="Path_69693" data-name="Path 69693" d="M695.973,188.041C678.255,166.7,661,142.813,644.327,119.7,577.251,26.762,507.9-69.349,391.591-20.15S159.505,203.471,47.546,372.142C19.7,414.086-9.084,457.451-37.471,498.292l-.639-11.51C-9.831,446.1,18.9,402.816,46.687,360.958,159.5,190.992,276.159,15.251,394.075-34.629s187.8,46.957,255.385,140.6c16.643,23.073,33.861,46.924,51.511,68.174Z" transform="translate(-172.553 3224.523)"/>
                <path id="Path_69694" data-name="Path 69694" d="M851.785,240.773c-44.4-28.735-81.807-80.557-117.982-130.691C666.724,17.136,597.362-78.962,481.043-29.758S248.964,193.842,137,362.515C76.607,453.506,14.157,547.58-47.833,621.316l.174-12.57C13.812,535.623,76,441.929,136.142,351.33,248.958,181.375,365.611,5.643,483.527-44.236s187.818,46.948,255.4,140.6c36.027,49.919,73.278,101.531,117.3,130.029Z" transform="translate(954.216 2629.61)"/>
                <path id="Path_69695" data-name="Path 69695" d="M850.682,240.891c-44.4-28.732-81.817-80.562-118-130.692C665.606,17.26,596.247-78.839,479.94-29.641S247.865,193.957,135.9,362.63C75.9,453.017,13.86,546.487-47.717,619.978l.163-12.565c61.066-72.881,122.848-165.954,182.6-255.976C247.854,181.492,364.508,5.76,482.424-44.119s187.8,46.955,255.39,140.59c36.031,49.917,73.286,101.546,117.317,130.041Z" transform="translate(-244.238 3136.912)"/>
                <path id="Path_69696" data-name="Path 69696" d="M958.787,624.8c-117.92,49.881-187.8-46.955-255.39-140.59-67.072-92.94-136.429-189.049-252.74-139.849s-232.08,223.61-344.04,392.281C46.618,827.024-15.425,920.5-77,993.994l.164-12.575C-15.774,908.54,46.008,815.466,105.758,725.454,218.569,555.5,335.224,379.758,453.141,329.879s187.807,46.953,255.389,140.6c67.074,92.93,136.43,189.039,252.741,139.839S1193.357,386.7,1305.315,218.035c112.811-169.954,229.466-345.7,347.383-395.575l-2.484,14.478c-116.307,49.2-232.082,223.619-344.045,392.292C1193.359,399.175,1076.708,574.915,958.787,624.8" transform="translate(-198.293 2665.786)"/>
                <path id="Path_69697" data-name="Path 69697" d="M958.786,624.805c-117.92,49.881-187.8-46.955-255.389-140.6-67.072-92.94-136.429-189.049-252.74-139.849S218.58,567.975,106.616,736.648C46.617,827.034-15.425,920.5-77,994l.164-12.575c61.062-72.879,122.845-165.962,182.593-255.965C218.57,555.5,335.225,379.758,453.142,329.879s187.806,46.953,255.387,140.609C775.6,563.418,844.96,659.527,961.271,610.327s232.086-223.621,344.044-392.282C1418.128,48.082,1534.783-127.66,1652.7-177.54l-2.484,14.478c-116.308,49.2-232.082,223.619-344.046,392.292-112.811,169.953-229.462,345.694-347.383,395.574" transform="translate(-181.63 2568.666)"/>
                <path id="Path_69698" data-name="Path 69698" d="M958.786,624.8c-117.92,49.881-187.8-46.955-255.389-140.6-67.074-92.93-136.431-189.039-252.742-139.839S218.579,567.965,106.62,736.636C46.618,827.015-15.424,920.485-77,993.984l.164-12.575c61.06-72.869,122.844-165.953,182.6-255.967C218.574,555.489,335.227,379.757,453.14,329.879s187.806,46.953,255.391,140.59c67.072,92.94,136.429,189.049,252.74,139.849S1193.356,386.7,1305.316,218.026C1418.126,48.082,1534.781-127.66,1652.7-177.539l-2.484,14.478c-116.307,49.2-232.082,223.619-344.043,392.282C1193.358,399.175,1076.707,574.915,958.786,624.8" transform="translate(-164.966 2471.556)"/>
                <path id="Path_69699" data-name="Path 69699" d="M958.787,624.8c-117.92,49.881-187.8-46.955-255.389-140.6-67.074-92.93-136.431-189.04-252.742-139.839s-232.08,223.61-344.04,392.281C46.618,827.024-15.425,920.495-77,993.994l.164-12.575c61.062-72.879,122.844-165.953,182.6-255.975C218.57,555.5,335.225,379.758,453.141,329.879s187.806,46.953,255.391,140.59c67.072,92.94,136.429,189.049,252.74,139.849S1193.357,386.7,1305.317,218.026C1418.127,48.082,1534.782-127.66,1652.7-177.539l-2.484,14.478c-116.307,49.2-232.082,223.619-344.044,392.283C1193.359,399.175,1076.707,574.915,958.787,624.8" transform="translate(-148.303 2374.436)"/>
                <path id="Path_69700" data-name="Path 69700" d="M958.788,624.786C840.868,674.667,770.986,577.831,703.4,484.2c-67.072-92.94-136.431-189.039-252.742-139.839S218.579,567.965,106.621,736.627C46.622,827.013-15.424,920.485-77,993.984l.164-12.575c61.062-72.879,122.848-165.955,182.6-255.967C218.574,555.489,335.227,379.757,453.14,329.879s187.808,46.944,255.389,140.6c67.074,92.93,136.432,189.029,252.743,139.829S1193.356,386.7,1305.314,218.035c112.813-169.963,229.466-345.7,347.383-395.575l-2.484,14.478c-116.307,49.2-232.08,223.61-344.044,392.282-112.81,169.944-229.461,345.684-347.381,395.565" transform="translate(-131.639 2277.326)"/>
                <path id="Path_69701" data-name="Path 69701" d="M958.787,624.8c-117.92,49.881-187.8-46.955-255.39-140.59-67.072-92.94-136.429-189.049-252.74-139.849s-232.08,223.61-344.04,392.281C46.618,827.024-15.425,920.495-77,993.994l.164-12.574C-15.774,908.54,46.008,815.466,105.758,725.454,218.57,555.5,335.225,379.758,453.141,329.879s187.806,46.953,255.389,140.6c67.074,92.93,136.43,189.04,252.741,139.839S1193.357,386.7,1305.315,218.035c112.811-169.954,229.466-345.7,347.383-395.575l-2.484,14.478c-116.307,49.2-232.082,223.619-344.046,392.292C1193.359,399.175,1076.707,574.916,958.787,624.8" transform="translate(-114.975 2180.196)"/>
                <path id="Path_69702" data-name="Path 69702" d="M958.788,624.786C840.868,674.667,770.986,577.831,703.4,484.2c-67.072-92.94-136.43-189.039-252.741-139.839s-232.075,223.6-344.034,392.269C46.622,827.013-15.424,920.485-77,993.984l.164-12.575c61.06-72.869,122.848-165.955,182.6-255.967C218.574,555.489,335.228,379.757,453.14,329.879s187.808,46.944,255.389,140.6c67.074,92.93,136.432,189.03,252.743,139.83S1193.356,386.7,1305.314,218.035c112.813-169.963,229.466-345.7,347.383-395.575l-2.484,14.478c-116.307,49.2-232.08,223.61-344.044,392.282-112.81,169.944-229.461,345.684-347.381,395.565" transform="translate(-98.311 2083.086)"/>
                <path id="Path_69703" data-name="Path 69703" d="M958.789,624.777c-117.92,49.881-187.8-46.955-255.391-140.59-67.072-92.94-136.432-189.03-252.743-139.83S218.582,567.946,106.618,736.619C46.619,827.005-15.423,920.476-77,993.975l.164-12.575C-15.772,908.521,46.01,815.447,105.759,725.435,218.571,555.481,335.223,379.758,453.139,329.879s187.81,46.934,255.392,140.58C775.6,563.409,844.962,659.5,961.273,610.3s232.082-223.6,344.044-392.283C1418.128,48.063,1534.78-127.66,1652.7-177.539l-2.484,14.478c-116.307,49.2-232.079,223.6-344.042,392.273C1193.36,399.156,1076.709,574.9,958.789,624.777" transform="translate(-81.648 1985.976)"/>
                <path id="Path_69704" data-name="Path 69704" d="M958.788,624.787c-117.92,49.881-187.8-46.955-255.391-140.59-67.072-92.94-136.431-189.039-252.742-139.839s-232.075,223.6-344.038,392.271C46.618,827.015-15.424,920.486-77,993.984l.164-12.575C-15.773,908.53,46.009,815.457,105.759,725.444,218.57,555.491,335.224,379.758,453.14,329.879s187.808,46.944,255.391,140.59c67.072,92.94,136.43,189.039,252.742,139.84S1193.357,386.7,1305.316,218.026C1418.127,48.072,1534.781-127.66,1652.7-177.539l-2.484,14.478c-116.307,49.2-232.08,223.61-344.044,392.282-112.81,169.944-229.461,345.685-347.381,395.565" transform="translate(-64.985 1888.856)"/>
                <path id="Path_69705" data-name="Path 69705" d="M958.787,624.8c-117.92,49.881-187.8-46.955-255.389-140.6-67.072-92.94-136.43-189.039-252.742-139.839S218.58,567.965,106.617,736.638C46.618,827.024-15.425,920.495-77,993.984l.162-12.565C-15.774,908.54,46.01,815.456,105.76,725.444,218.569,555.5,335.224,379.758,453.141,329.879s187.806,46.953,255.389,140.6c67.072,92.94,136.431,189.04,252.742,139.839s232.084-223.611,344.044-392.283c112.812-169.953,229.466-345.7,347.383-395.575l-2.484,14.478c-116.307,49.2-232.08,223.61-344.043,392.282C1193.359,399.175,1076.707,574.915,958.787,624.8" transform="translate(-48.321 1791.727)"/>
                <path id="Path_69706" data-name="Path 69706" d="M958.787,624.8c-117.92,49.881-187.8-46.955-255.389-140.6-67.072-92.94-136.431-189.039-252.742-139.839S218.58,567.965,106.618,736.628C46.618,827.024-15.425,920.495-77,993.984l.163-12.565c61.062-72.879,122.845-165.963,182.6-255.977C218.575,555.489,335.224,379.758,453.141,329.879s187.806,46.953,255.389,140.6c67.072,92.94,136.431,189.04,252.742,139.839s232.084-223.611,344.044-392.283c112.812-169.954,229.466-345.7,347.383-395.575l-2.484,14.478c-116.307,49.2-232.08,223.61-344.044,392.283C1193.359,399.175,1076.708,574.915,958.787,624.8" transform="translate(-31.658 1694.617)"/>
                <path id="Path_69707" data-name="Path 69707" d="M958.788,624.786c-117.92,49.881-187.8-46.955-255.39-140.59-67.072-92.94-136.431-189.039-252.742-139.839s-232.075,223.6-344.038,392.271C46.618,827.015-15.424,920.485-77,993.974l.163-12.565C-15.773,908.53,46.009,815.456,105.759,725.444,218.57,555.49,335.224,379.758,453.14,329.879s187.808,46.944,255.391,140.59c67.072,92.94,136.43,189.039,252.742,139.839S1193.356,386.7,1305.316,218.026C1418.128,48.072,1534.781-127.66,1652.7-177.539l-2.484,14.478c-116.307,49.2-232.08,223.61-344.043,392.282-112.81,169.944-229.461,345.684-347.382,395.565" transform="translate(-14.993 1597.497)"/>
                <path id="Path_69708" data-name="Path 69708" d="M958.787,624.8c-117.92,49.881-187.8-46.955-255.389-140.6-67.072-92.94-136.43-189.04-252.742-139.839S218.58,567.965,106.617,736.638C46.618,827.025-15.425,920.5-77,993.984l.163-12.565C-15.774,908.54,46.01,815.456,105.76,725.444,218.569,555.5,335.224,379.758,453.141,329.879s187.806,46.953,255.389,140.6C775.6,563.419,844.96,659.518,961.271,610.318s232.084-223.611,344.044-392.283c112.811-169.954,229.466-345.7,347.383-395.575l-2.484,14.478c-116.307,49.2-232.08,223.61-344.044,392.283C1193.359,399.175,1076.707,574.915,958.787,624.8" transform="translate(1.67 1500.378)"/>
                <path id="Path_69709" data-name="Path 69709" d="M958.787,624.8c-117.92,49.881-187.8-46.955-255.389-140.6-67.072-92.94-136.431-189.04-252.742-139.839s-232.08,223.609-344.04,392.281C46.618,827.024-15.425,920.5-77,993.984l.163-12.565c61.062-72.879,122.844-165.953,182.6-255.975C218.569,555.5,335.224,379.758,453.141,329.879s187.806,46.953,255.389,140.6C775.6,563.418,844.96,659.518,961.271,610.318s232.084-223.611,344.044-392.282c112.811-169.954,229.466-345.7,347.383-395.575l-2.485,14.478c-116.307,49.2-232.08,223.61-344.044,392.283C1193.358,399.175,1076.708,574.915,958.787,624.8" transform="translate(18.334 1403.258)"/>
                <path id="Path_69710" data-name="Path 69710" d="M958.788,624.8c-117.92,49.881-187.8-46.955-255.389-140.6-67.072-92.94-136.43-189.04-252.742-139.839s-232.08,223.61-344.04,392.281C46.617,827.034-15.424,920.495-77,993.994l.163-12.565c61.063-72.889,122.845-165.962,182.6-255.975C218.57,555.5,335.225,379.758,453.142,329.879s187.806,46.953,255.389,140.6c67.072,92.94,136.43,189.04,252.742,139.84s232.084-223.611,344.044-392.283C1418.128,48.082,1534.783-127.66,1652.7-177.54l-2.484,14.478c-116.307,49.2-232.08,223.61-344.044,392.283C1193.359,399.175,1076.708,574.915,958.788,624.8" transform="translate(34.996 1306.139)"/>
                <path id="Path_69711" data-name="Path 69711" d="M958.788,624.786c-117.92,49.881-187.8-46.955-255.391-140.59-67.072-92.94-136.431-189.04-252.742-139.839s-232.078,223.6-344.038,392.271C46.618,827.015-15.424,920.486-77,993.975l.163-12.565c61.062-72.879,122.844-165.953,182.593-255.965C218.57,555.491,335.224,379.758,453.14,329.879s187.808,46.944,255.391,140.59c67.072,92.94,136.431,189.04,252.742,139.839S1193.356,386.7,1305.316,218.026C1418.127,48.072,1534.781-127.66,1652.7-177.539l-2.484,14.478c-116.307,49.2-232.08,223.61-344.044,392.283-112.81,169.944-229.461,345.684-347.381,395.565" transform="translate(51.659 1209.038)"/>
                <path id="Path_69712" data-name="Path 69712" d="M958.787,624.8c-117.92,49.881-187.8-46.955-255.389-140.6-67.072-92.94-136.43-189.04-252.742-139.839S218.58,567.965,106.617,736.638C46.618,827.025-15.425,920.5-77,993.984l.163-12.565C-15.774,908.54,46.01,815.456,105.76,725.444,218.569,555.5,335.224,379.758,453.141,329.879s187.806,46.953,255.389,140.6C775.6,563.419,844.96,659.518,961.271,610.318s232.084-223.611,344.044-392.282c112.811-169.954,229.466-345.7,347.383-395.575l-2.484,14.478c-116.307,49.2-232.08,223.61-344.044,392.283C1193.358,399.175,1076.707,574.915,958.787,624.8" transform="translate(68.324 1111.908)"/>
                <path id="Path_69713" data-name="Path 69713" d="M958.787,624.8c-117.92,49.881-187.8-46.955-255.389-140.6-67.072-92.94-136.43-189.04-252.742-139.839s-232.08,223.61-344.04,392.281C46.618,827.025-15.425,920.495-77,993.984l.163-12.565C-15.774,908.54,46.008,815.466,105.758,725.454,218.569,555.5,335.224,379.758,453.141,329.879s187.806,46.953,255.389,140.6C775.6,563.419,844.96,659.518,961.271,610.318s232.084-223.611,344.044-392.282c112.811-169.954,229.466-345.7,347.383-395.575l-2.484,14.478c-116.307,49.2-232.08,223.61-344.044,392.283C1193.358,399.175,1076.707,574.915,958.787,624.8" transform="translate(84.988 1014.789)"/>
                <path id="Path_69714" data-name="Path 69714" d="M958.786,624.8c-117.92,49.881-187.8-46.955-255.389-140.6-67.072-92.94-136.43-189.04-252.742-139.839S218.583,567.964,106.621,736.627C46.622,827.013-15.424,920.485-77,993.984l.164-12.575c61.062-72.879,122.849-165.964,182.6-255.969C218.574,555.489,335.227,379.757,453.14,329.879s187.806,46.953,255.389,140.6c67.072,92.94,136.431,189.04,252.742,139.839s232.084-223.611,344.044-392.283c112.812-169.953,229.466-345.7,347.383-395.575l-2.484,14.478c-116.307,49.2-232.08,223.61-344.044,392.283C1193.358,399.175,1076.707,574.915,958.786,624.8" transform="translate(101.651 917.678)"/>
                <path id="Path_69715" data-name="Path 69715" d="M958.789,624.786c-117.92,49.881-187.8-46.955-255.391-140.59-67.072-92.94-136.431-189.039-252.742-139.839S218.576,567.967,106.613,736.64C46.615,827.016-15.423,920.485-77,993.984l.163-12.565C-15.772,908.53,46.01,815.456,105.76,725.444,218.571,555.491,335.221,379.76,453.141,329.879s187.808,46.944,255.391,140.59c67.072,92.94,136.43,189.039,252.742,139.839S1193.357,386.7,1305.317,218.026C1418.128,48.072,1534.781-127.66,1652.7-177.539l-2.484,14.478c-116.307,49.2-232.08,223.61-344.044,392.283-112.81,169.944-229.461,345.684-347.381,395.565" transform="translate(118.312 820.568)"/>
                <path id="Path_69716" data-name="Path 69716" d="M958.788,624.786c-117.92,49.881-187.8-46.955-255.391-140.59-67.072-92.94-136.431-189.04-252.742-139.839s-232.075,223.6-344.038,392.271C46.618,827.015-15.424,920.486-77,993.975l.163-12.565C-15.773,908.53,46.009,815.457,105.759,725.444,218.57,555.491,335.224,379.759,453.14,329.879s187.808,46.944,255.391,140.59c67.072,92.94,136.43,189.039,252.742,139.839S1193.356,386.7,1305.316,218.026C1418.127,48.072,1534.781-127.66,1652.7-177.539l-2.484,14.478c-116.307,49.2-232.08,223.61-344.044,392.283-112.81,169.944-229.461,345.684-347.381,395.565" transform="translate(134.977 723.449)"/>
                <path id="Path_69717" data-name="Path 69717" d="M958.787,624.8c-117.92,49.881-187.8-46.955-255.389-140.6-67.072-92.94-136.43-189.04-252.742-139.839S218.58,567.965,106.617,736.638C46.618,827.025-15.425,920.5-77,993.984l.163-12.565c61.062-72.879,122.844-165.953,182.6-255.967C218.573,555.5,335.224,379.758,453.141,329.879s187.806,46.953,255.389,140.6c67.072,92.94,136.431,189.04,252.742,139.839s232.084-223.611,344.044-392.283c112.811-169.954,229.466-345.7,347.383-395.575l-2.484,14.478c-116.307,49.2-232.08,223.61-344.044,392.283C1193.358,399.175,1076.708,574.915,958.787,624.8" transform="translate(151.642 626.319)"/>
                <path id="Path_69718" data-name="Path 69718" d="M958.789,624.786c-117.92,49.881-187.8-46.955-255.391-140.59-67.072-92.94-136.431-189.039-252.742-139.839s-232.075,223.6-344.038,392.271C46.619,827.015-15.423,920.485-77,993.984l.163-12.565C-15.772,908.53,46.01,815.456,105.76,725.444,218.571,555.491,335.224,379.758,453.141,329.879s187.808,46.944,255.391,140.59c67.072,92.94,136.43,189.039,252.742,139.839S1193.357,386.7,1305.317,218.026C1418.128,48.072,1534.781-127.66,1652.7-177.539l-2.484,14.478c-116.307,49.2-232.08,223.61-344.044,392.282-112.81,169.944-229.461,345.684-347.381,395.565" transform="translate(168.304 529.209)"/>
                <path id="Path_69719" data-name="Path 69719" d="M958.787,624.8c-117.92,49.88-187.8-46.955-255.389-140.6-67.072-92.94-136.431-189.039-252.742-139.839s-232.08,223.61-344.04,392.281C46.618,827.025-15.425,920.495-77,993.984l.163-12.565C-15.774,908.54,46.01,815.456,105.758,725.454,218.569,555.5,335.224,379.758,453.141,329.879s187.806,46.953,255.389,140.6C775.6,563.418,844.96,659.518,961.271,610.318s232.084-223.611,344.044-392.283c112.812-169.954,229.466-345.7,347.383-395.575l-2.484,14.478c-116.307,49.2-232.08,223.61-344.044,392.282C1193.358,399.175,1076.707,574.915,958.787,624.8" transform="translate(184.968 432.09)"/>
                <path id="Path_69720" data-name="Path 69720" d="M958.788,624.786c-117.92,49.881-187.8-46.955-255.39-140.589-67.072-92.94-136.431-189.04-252.742-139.84s-232.075,223.6-344.038,392.271C46.618,827.015-15.424,920.486-77,993.975l.163-12.565C-15.773,908.53,46.009,815.457,105.759,725.444,218.57,555.491,335.224,379.758,453.14,329.879s187.808,46.944,255.391,140.59c67.072,92.94,136.43,189.039,252.742,139.839S1193.356,386.7,1305.316,218.026C1418.128,48.072,1534.781-127.66,1652.7-177.539l-2.484,14.478c-116.307,49.2-232.08,223.61-344.044,392.283-112.81,169.944-229.461,345.684-347.381,395.565" transform="translate(201.631 334.98)"/>
                <path id="Path_69721" data-name="Path 69721" d="M958.787,624.8c-117.92,49.88-187.8-46.955-255.389-140.6-67.072-92.94-136.431-189.039-252.742-139.839S218.58,567.965,106.618,736.629C46.618,827.025-15.423,920.485-77,993.984l.163-12.565c61.062-72.879,122.845-165.963,182.6-255.976C218.575,555.489,335.224,379.758,453.141,329.879s187.806,46.953,255.389,140.6C775.6,563.418,844.96,659.518,961.271,610.318s232.084-223.611,344.044-392.282c112.811-169.954,229.466-345.7,347.383-395.575l-2.484,14.478c-116.307,49.2-232.08,223.61-344.044,392.282C1193.359,399.175,1076.708,574.915,958.787,624.8" transform="translate(218.294 237.86)"/>
                <path id="Path_69722" data-name="Path 69722" d="M958.787,624.8c-117.92,49.881-187.8-46.955-255.389-140.6-67.072-92.94-136.431-189.04-252.742-139.839S218.58,567.965,106.617,736.638C46.618,827.025-15.425,920.5-77,993.984l.163-12.565C-15.774,908.54,46.01,815.457,105.76,725.444,218.569,555.5,335.224,379.758,453.141,329.879s187.806,46.953,255.389,140.6c67.072,92.94,136.43,189.04,252.742,139.839s232.084-223.611,344.044-392.283c112.811-169.954,229.466-345.7,347.383-395.575l-2.485,14.478c-116.307,49.2-232.08,223.61-344.044,392.282C1193.358,399.175,1076.708,574.915,958.787,624.8" transform="translate(234.958 140.74)"/>
                <path id="Path_69723" data-name="Path 69723" d="M349.194,570.968c-117.924,49.883-187.812-46.96-255.4-140.6C57.768,380.445,20.514,328.835-23.513,300.337l4.451-14.388c44.4,28.733,81.809,80.565,117.989,130.7C166,509.584,235.363,605.692,351.678,556.49s232.08-223.61,344.044-392.283c60.392-90.982,122.844-185.065,184.83-258.8l-.176,12.58C818.905-8.889,756.717,84.8,696.577,175.394,583.765,345.347,467.114,521.087,349.194,570.968" transform="translate(861.215 97.448)"/>
                <path id="Path_69724" data-name="Path 69724" d="M-37.689,491.89l.163-12.565c61.062-72.879,122.844-165.953,182.6-255.976C205.463,132.376,267.911,38.3,329.893-35.438l-.176,12.58c-61.461,73.11-123.649,166.795-183.786,257.391-60,90.4-122.047,183.868-183.62,257.357" transform="translate(212.313 545.714)"/>
                <path id="Path_69725" data-name="Path 69725" d="M287.568,455.659c-117.92,49.881-187.806-46.953-255.393-140.6-16.643-23.073-33.855-46.917-51.5-68.168l5-13.895c17.716,21.33,34.961,45.232,51.639,68.334,67.072,92.94,136.433,189.048,252.744,139.848S522.138,217.56,634.1,48.9C661.939,6.954,690.722-36.409,719.109-77.25l.64,11.51c-28.275,40.677-57.005,83.964-84.794,125.822C522.14,230.038,405.488,405.778,287.568,455.659" transform="translate(939.505 115.638)"/>
                <path id="Path_69726" data-name="Path 69726" d="M-28.061,368.918l.163-12.565C33.159,283.476,94.935,190.413,154.681,100.4c27.844-41.954,56.634-85.31,85.024-126.153l.639,11.51C212.067,26.429,183.329,69.719,155.538,111.6,95.546,201.962,33.509,295.421-28.061,368.918" transform="translate(219.349 571.566)"/>
                <path id="Path_69727" data-name="Path 69727" d="M239.481,343.785c-117.916,49.879-187.8-46.955-255.389-140.6l5.131-13.718C56.3,282.4,125.658,378.506,241.966,329.307s232.071-223.6,344.025-392.257l.878,11.158c-112.829,169.97-229.474,345.7-347.387,395.576" transform="translate(1004.254 130.401)"/>
                <path id="Path_69728" data-name="Path 69728" d="M-18.814,250.8l.163-12.565C42.38,165.388,104.131,72.362,163.851-17.6L164.8-6.553C104.739,83.93,42.728,177.343-18.814,250.8" transform="translate(226.764 592.574)"/>
                <path id="Path_69729" data-name="Path 69729" d="M191.219,232.281c-93.732,39.649-155.6-14.271-203.747-72.257l5-13.895C40.121,203.512,101.294,256.893,193.7,217.8S376.616,61.173,452.958-48.659l.639,11.51C376.451,73.838,284.951,192.632,191.219,232.281" transform="translate(1069.182 144.776)"/>
                <path id="Path_69730" data-name="Path 69730" d="M-9.608,133.215l.163-12.565C19.941,85.581,51.016,44.22,88.35-9.491l.641,11.5C51.38,56.134,20.049,97.817-9.608,133.215" transform="translate(234.222 613.04)"/>
                <path id="Path_69731" data-name="Path 69731" d="M128.925,118.024c-49.675,21.013-94.617,17.779-137.39-9.9l4.451-14.388c42.2,27.293,86.492,30.506,135.423,9.807S232.758,38.726,291.654-31.331l-.176,12.58C231.769,52.276,178.6,97.011,128.925,118.024" transform="translate(1148.138 161.923)"/>
              </g>
            </g>
          </g>
        </g>
      </g>
      <g id="Group_19038" data-name="Group 19038" transform="translate(300.439 622.765) rotate(-149)" opacity="0.085" clip-path="url(#clip-path-6)">
        <path id="Path_69734" data-name="Path 69734" d="M81.6,19.087a19.214,19.214,0,0,0-10.684-5.7c-5.207-.8-10.439.362-15.661-.019a18.282,18.282,0,0,1-6.811-1.79,33.744,33.744,0,0,1-5.521-3.637C39.239,5.107,35.505,2.115,30.985.734c-4.306-1.316-8.878-.691-13.132.524a44.307,44.307,0,0,0-6.385,2.38A27.282,27.282,0,0,0,6.139,6.72,15.859,15.859,0,0,0,.356,15.77c-2.1,9.545,5.529,17.474,12.107,23.2a13.4,13.4,0,0,0,5.914,2.792,40.29,40.29,0,0,1,6.279,1.582,10.486,10.486,0,0,1,4.6,3.688,17.822,17.822,0,0,1,2.283,5.05c1.1,3.6,1.75,7.408,3.908,10.576A13.651,13.651,0,0,0,43.2,68.2a21.914,21.914,0,0,0,9.855.062,44.5,44.5,0,0,0,9.976-3.332,59.418,59.418,0,0,0,8.483-4.758,54.86,54.86,0,0,0,9.76-8.189,29.049,29.049,0,0,0,6.61-10.8,19.56,19.56,0,0,0-.055-11.763A25.724,25.724,0,0,0,81.6,19.087" transform="translate(83.217 151.765)" fill="#202a5f"/>
        <path id="Path_69735" data-name="Path 69735" d="M28.223,66.4a17.339,17.339,0,0,0,9.171-5.942c2.912-3.759,4.281-8.4,6.866-12.355a16.492,16.492,0,0,1,4.392-4.593,30.425,30.425,0,0,1,5.287-2.768c3.852-1.67,7.847-3.309,10.914-6.273,2.922-2.823,4.429-6.706,5.33-10.6a40.005,40.005,0,0,0,.914-6.081,24.626,24.626,0,0,0-.1-5.555,14.312,14.312,0,0,0-4.616-8.525c-7.185-6.339-22.2-4-28.4,2.858a36.373,36.373,0,0,1-4,4.265,9.464,9.464,0,0,1-4.925,2.021,16.087,16.087,0,0,1-4.986-.407c-3.321-.706-6.614-1.859-10.058-1.541a12.319,12.319,0,0,0-7.765,3.689,19.775,19.775,0,0,0-4.36,7.752A40.132,40.132,0,0,0,.158,31.678,53.709,53.709,0,0,0,.2,40.456,49.5,49.5,0,0,0,2.4,51.743a26.216,26.216,0,0,0,5.635,9.943,17.66,17.66,0,0,0,9.31,5.1A23.223,23.223,0,0,0,28.223,66.4" transform="translate(9.136 26.645)" fill="#202a5f"/>
        <path id="Path_69736" data-name="Path 69736" d="M72.374,63.746a18.655,18.655,0,0,0,8.392-11.153,26.151,26.151,0,0,0-.7-13.77,52.062,52.062,0,0,0-6.207-13.23,48.16,48.16,0,0,0-9.009-10.836A62.765,62.765,0,0,0,35.9,1.257C26.39-.541,13.054-1.25,4.932,5.04,1.176,7.948-1.147,13.168.582,17.593c.952,2.437,2.784,4.376,3.56,6.9a15.323,15.323,0,0,1,.18,7.083c-.712,4.295-2.392,8.35-3.268,12.612a39.259,39.259,0,0,0-.88,10.835,17.294,17.294,0,0,0,3.254,9.454,14,14,0,0,0,9.5,4.913c5.82.745,11.34-1.5,16.8-3.157a32.65,32.65,0,0,1,8.3-1.6,46.721,46.721,0,0,1,6.836.348c4.749.533,9.463,1.447,14.248,1.62,4.578.165,9.278-.443,13.26-2.856" transform="translate(141.52 77.326)" fill="#202a5f"/>
        <path id="Path_69737" data-name="Path 69737" d="M88.888,42.274c-1.661-4.287-5.132-7.61-8.78-10.263a47.877,47.877,0,0,0-5.564-3.486c-1.859-.995-3.85-1.725-5.685-2.769a9.459,9.459,0,0,1-4.238-4.474,36.194,36.194,0,0,1-1.735-6.726,14.779,14.779,0,0,0-2.83-6.309,22.749,22.749,0,0,0-5.8-4.855A21.842,21.842,0,0,0,39.972.174c-4.909.644-9.422,2.732-14.037,4.4A37.975,37.975,0,0,1,18.851,6.5c-6.784,1.042-14.712,2-18.01,9.09A8.81,8.81,0,0,0,.3,21.613a10.408,10.408,0,0,0,3,4.753c2.813,2.681,6.478,4.249,9.306,6.9a16.938,16.938,0,0,1,3.948,5.124,8.875,8.875,0,0,1,.663,4.839,27.11,27.11,0,0,1-1.636,5.8,29.673,29.673,0,0,0-1.713,6.519,21.442,21.442,0,0,0,2.119,12.437,21.881,21.881,0,0,0,9.375,9.169,36.61,36.61,0,0,0,13.684,3.9A52.771,52.771,0,0,0,53.38,80.4a48.452,48.452,0,0,0,13.854-4.619,49.01,49.01,0,0,0,12.13-8.921,41.767,41.767,0,0,0,8.211-11.275c1.969-4.132,3.02-8.9,1.313-13.309" transform="translate(196.209 148.013)" fill="#202a5f"/>
        <path id="Path_69738" data-name="Path 69738" d="M0,59.474a32.97,32.97,0,0,0,.416,5.46c.694,4.291,2.576,10.235,6.3,12.941,4.476,3.25,7.071-1.56,9.826-4.371a16.236,16.236,0,0,1,12.7-5.142c5.267.362,9.938,3.314,14.584,5.822,8.334,4.5,19.386,6.854,27.733,1.219,4.1-2.77,7.207-6.656,10.591-10.209A37.96,37.96,0,0,1,87.631,60.3c5.6-3.965,12.265-8.368,12.045-16.183a8.807,8.807,0,0,0-2.206-5.629,10.4,10.4,0,0,0-4.811-2.909c-3.715-1.14-7.695-.9-11.41-2.011a16.951,16.951,0,0,1-5.822-2.818,8.878,8.878,0,0,1-2.756-4.032,27.086,27.086,0,0,1-1.131-5.923,29.691,29.691,0,0,0-1.383-6.6A21.446,21.446,0,0,0,62.7,4.019,21.885,21.885,0,0,0,50.214.01,36.618,36.618,0,0,0,36.229,2.637a52.776,52.776,0,0,0-12.524,7c-6.346,4.725-9.928,11.26-13.36,18.2C5.484,37.657.064,48.317,0,59.474" transform="translate(0 300.27)" fill="#202a5f"/>
        <path id="Path_69739" data-name="Path 69739" d="M2.782,68.872A10.36,10.36,0,0,0,7.2,71.639a15.478,15.478,0,0,0,5.5.819,22.613,22.613,0,0,0,12.95-5.232,71.59,71.59,0,0,0,5.227-4.9,28.52,28.52,0,0,1,5.27-4.083,33.578,33.578,0,0,1,11.8-4c2.246-.375,4.511-.624,6.777-.849a23.816,23.816,0,0,0,5.226-1.012,19.22,19.22,0,0,0,7.9-5.041,23.227,23.227,0,0,0,4.834-8.021,29.421,29.421,0,0,0,1.71-9.481,30.955,30.955,0,0,0-1.356-9.716,26.332,26.332,0,0,0-4.45-8.565,29.235,29.235,0,0,0-9.832-7.8A35.845,35.845,0,0,0,46.014.155,34.3,34.3,0,0,0,32.955,1.41c-3.462,1.048-6.665,3.007-8.246,6.382-1.4,2.982-1.477,6.377-1.27,9.606.22,3.442.8,6.855.934,10.3.165,4.119-.344,8.551-2.746,12.021a12.086,12.086,0,0,1-5.55,4.4c-2.3.889-4.771,1.233-7.089,2.076a12.969,12.969,0,0,0-4.975,3.118,12.5,12.5,0,0,0-2.732,4.514c-1.862,5.237-1.96,11.3,1.5,15.045" transform="translate(241.596 55.767)" fill="#202a5f"/>
        <path id="Path_69740" data-name="Path 69740" d="M28.484.1a44.592,44.592,0,0,0-14.83,3.263C3.581,7.638-3.208,18.447,1.554,29.406a14.511,14.511,0,0,0,4.58,5.962,9.484,9.484,0,0,0,7.5,1.686c2.572-.542,4.776-2.129,6.9-3.594,2.206-1.521,4.467-3.034,7.153-3.511a20.045,20.045,0,0,1,10.576,1.333c1.7.64,3.356,1.4,5.009,2.159a24.236,24.236,0,0,0,4.658,1.806,6.479,6.479,0,0,0,3.484-.055,7.838,7.838,0,0,0,2.925-1.933,31.142,31.142,0,0,0,2.9-3.386c3.144-4.109,5.456-9.783,3.631-15.017s-7.1-8.531-11.758-11a29.392,29.392,0,0,0-6.285-2.5A45.977,45.977,0,0,0,28.484.1" transform="translate(280.764 125.822)" fill="#202a5f"/>
        <path id="Path_69741" data-name="Path 69741" d="M67.741,45.454a14.425,14.425,0,0,0,1.16-6.27c-.207-4.238-3.381-8.311-7.18-10.034-2.614-1.186-5.495-1.8-7.934-3.312s-4.42-4.359-3.694-7.136c.691-2.646,3.341-4.147,4.357-6.647,1.268-3.121,1.062-8.895-1.887-11.13-2.226-1.688-5.486-.831-7.819.706C39.481,5.1,36.479,11.391,30.98,14.467c-6.092,3.408-14.025,2.171-19.992,5.793a19.445,19.445,0,0,0-5.115,4.776A26.744,26.744,0,0,0,.027,39.9a20.944,20.944,0,0,0,3.4,12.515c2.348,3.63,4.681,4.887,8.925,5.982,3.316.856,6.845,1.416,9.927,2.974a10.2,10.2,0,0,1,3.49,2.759,11.075,11.075,0,0,1,2.008,4.717c.408,2.065.484,4.177,1.01,6.224a11.958,11.958,0,0,0,2.771,5.248c3.07,3.288,7.737,4.876,12.138,5.112a27.074,27.074,0,0,0,13.012-2.764c3.563-1.7,7.118-4.018,9.439-7.277a9.97,9.97,0,0,0,1.938-5.268,12.081,12.081,0,0,0-1.749-6.057,24.326,24.326,0,0,1-2.7-6.448,10.151,10.151,0,0,1,1.032-6.354c.964-1.97,2.221-3.778,3.076-5.8" transform="translate(138.977 210.332)" fill="#202a5f"/>
        <path id="Path_69742" data-name="Path 69742" d="M68.107,24.3a40.031,40.031,0,0,0-10.7-6.479,45.158,45.158,0,0,0-5.541-1.962,44.515,44.515,0,0,0-5.407-1.008c-3.729-.545-7.792-.977-11.068-3a9.2,9.2,0,0,1-2.016-1.663A12.5,12.5,0,0,1,31.8,7.861a31.264,31.264,0,0,0-2.791-4.783A8.553,8.553,0,0,0,24.138.2,12.306,12.306,0,0,0,20.053.139a28.175,28.175,0,0,0-9.872,3.345c-3.028,1.668-5.91,4.057-7.22,7.431-1.669,4.3-.041,8.612-.628,13.007-.12.9-.342,1.784-.546,2.67-.344,1.487-.668,2.98-.942,4.482A40.445,40.445,0,0,0,.065,41.079a15.4,15.4,0,0,0,3.109,8.872,12.927,12.927,0,0,0,9.591,4.306c3.611.145,7.952-.828,10.87,1.9a12.688,12.688,0,0,1,1.928,2.55c.531.832,1.06,1.665,1.613,2.483a20.973,20.973,0,0,0,3.4,4.081,12.069,12.069,0,0,0,4.739,2.572,21.632,21.632,0,0,0,6.416.6,43.768,43.768,0,0,0,13.631-2.557,28.382,28.382,0,0,0,5.964-2.9,35.513,35.513,0,0,0,5.145-4.157,33.891,33.891,0,0,0,8.009-11.579A20.924,20.924,0,0,0,76,40.618a17.088,17.088,0,0,0-.9-6.367A23.223,23.223,0,0,0,68.107,24.3" transform="translate(231.118 250.59)" fill="#202a5f"/>
        <path id="Path_69743" data-name="Path 69743" d="M42.3,8.828C40.164,8.073,38,7.4,35.887,6.59a31.921,31.921,0,0,1-3-1.316c-.965-.49-1.881-1.064-2.8-1.63A30.789,30.789,0,0,0,23.676.372c-4-1.308-7.589,1.062-10.551,3.514-1.612,1.335-3.115,2.8-4.774,4.08C6.732,9.215,4.782,10,3.24,11.326a10.195,10.195,0,0,0,.253,15.142,13.942,13.942,0,0,0,8.581,3.195c3.136.195,6.274-.193,9.411-.065a15.283,15.283,0,0,1,4.308.688,12.606,12.606,0,0,1,3.466,1.9c2.118,1.586,3.865,3.608,5.93,5.259A14.432,14.432,0,0,0,42.08,40.7a8.891,8.891,0,0,0,5.882-1.19c3.663-2.234,5.651-6.6,6.529-10.646.932-4.293.951-9.331-1.54-13.127-2.423-3.694-6.643-5.491-10.654-6.91" transform="translate(280.011 215.854)" fill="#202a5f"/>
        <path id="Path_69744" data-name="Path 69744" d="M15.154,6.675c-1.367,1.518-2.674,3.09-4.082,4.571a28.767,28.767,0,0,1-2.135,2.048c-.742.635-1.537,1.2-2.327,1.773a27.778,27.778,0,0,0-4.941,4.211C-.8,22.159-.069,25.972.952,29.288c.555,1.805,1.259,3.566,1.752,5.39.481,1.78.458,3.676,1.034,5.422a9.2,9.2,0,0,0,12.711,5.022,12.581,12.581,0,0,0,5.63-6.05c1.246-2.548,2.008-5.3,3.2-7.869a13.783,13.783,0,0,1,2.063-3.354,11.372,11.372,0,0,1,2.786-2.231c2.054-1.217,4.344-1.975,6.434-3.126a13.032,13.032,0,0,0,5.093-4.621,8.026,8.026,0,0,0,1.04-5.315c-.6-3.826-3.55-6.993-6.619-9.123C32.816,1.174,28.623-.583,24.6.181c-3.917.744-6.874,3.641-9.443,6.494" transform="translate(26.183 158.81)" fill="#202a5f"/>
        <path id="Path_69745" data-name="Path 69745" d="M74.4,3.507a34.768,34.768,0,0,0-11.944.157c-4.286.679-8.5,1.849-12.832,2.223a27.661,27.661,0,0,1-6.554-.156,25.816,25.816,0,0,1-6.134-1.8C24.061-1.49,19-1.674,7.389,5.705,3.084,8.441.268,12.233.018,17.542A17.121,17.121,0,0,0,1.9,26.126a16.72,16.72,0,0,0,5.854,6.438,16.1,16.1,0,0,0,4.1,1.856,19.309,19.309,0,0,0,4.994.681,62.3,62.3,0,0,1,12.658,1.514,50.524,50.524,0,0,1,6.053,1.834c2.04.76,3.977,1.72,5.962,2.6,6.651,2.963,14.055,4.649,21.344,3.677A29,29,0,0,0,81.44,34.3a30.6,30.6,0,0,0,2.03-2.808V7.633A21.438,21.438,0,0,0,74.4,3.507" transform="translate(309.855 172.852)" fill="#202a5f"/>
        <path id="Path_69746" data-name="Path 69746" d="M67.93,3.656C64.3,1.377,59.754,1.79,55.7,2.277A55.026,55.026,0,0,1,42.812,2.7a21.107,21.107,0,0,1-3.041-.573,20.651,20.651,0,0,1-2.778-1.082,11.248,11.248,0,0,0-2.96-.854A19.144,19.144,0,0,0,31.287,0a20.356,20.356,0,0,0-10.076,2.86A25.616,25.616,0,0,0,13.4,10.077a26.174,26.174,0,0,0-2.619,4.546A21.611,21.611,0,0,0,9.306,18.9c-.438,2.054-.572,4.174-.836,6.255-.455,3.594-1.172,6.843-3.536,9.679C2.838,37.345-1.418,40.2.472,43.882c2.466,4.8,9.8,3.131,13.6,1.617a41.943,41.943,0,0,1,5.8-2.064,30.718,30.718,0,0,1,6.231-.779,25.093,25.093,0,0,1,6.044.434,42.71,42.71,0,0,1,6.007,1.971,31.308,31.308,0,0,0,5.972,1.8,16.459,16.459,0,0,0,4.607.109,23.363,23.363,0,0,0,8.849-3.076,34.891,34.891,0,0,0,7.893-6.3,38.058,38.058,0,0,0,4.108-5.171V4.949A10.369,10.369,0,0,0,67.93,3.656" transform="translate(323.747 71.143)" fill="#202a5f"/>
        <path id="Path_69747" data-name="Path 69747" d="M24.019,34.971a19.366,19.366,0,0,1,6.739,7.686c3.959,8.221,11.435,17.284,21.806,12.869a11.164,11.164,0,0,0,6.053-6.352,7.181,7.181,0,0,0,.289-3.824A11.382,11.382,0,0,0,57.6,42.038c-1.1-1.992-2.638-3.871-3.125-6.09a5.222,5.222,0,0,1,.3-3.181,8.333,8.333,0,0,1,1.11-1.821c.614-.791,1.227-1.582,1.818-2.391a22.376,22.376,0,0,0,4.4-9.615,18.093,18.093,0,0,0,.095-5.576,14.9,14.9,0,0,0-1.582-4.693,16.661,16.661,0,0,0-6.966-6.887A15.252,15.252,0,0,0,43.77.256a12.357,12.357,0,0,0-4.784,1.973A27.267,27.267,0,0,0,35.06,5.759a45.138,45.138,0,0,1-3.815,3.71,16.127,16.127,0,0,1-5.183,2.745,22.141,22.141,0,0,1-6.378,1.075,40.971,40.971,0,0,1-5.949-.391c-2.951-.351-6.144-.6-9.018.33a6.762,6.762,0,0,0-3.536,2.439,6.318,6.318,0,0,0-1.119,4.52c.448,3.048,3.208,5.3,5.7,6.767,2.8,1.651,6,2.54,9.035,3.653a42.772,42.772,0,0,1,9.22,4.364" transform="translate(185.052 26.694)" fill="#202a5f"/>
        <path id="Path_69748" data-name="Path 69748" d="M11.308,68.142a13.691,13.691,0,0,0,10.149,1.551c7.363-1.774,13.374-6.267,21.032-7.209,7.8-.96,16.154-.531,21.869-6.946C71.479,47.545,59.734,42.57,58.4,35.3c-.891-4.873,5.03-7.367,7.317-10.9a12.783,12.783,0,0,0,1.973-4.631,11.72,11.72,0,0,0-.241-4.973C65.324,6.567,57.257-1.967,47.894.4c-3.6.91-6.634,3.323-9.083,6.03a72.525,72.525,0,0,0-6.291,8.662,38.193,38.193,0,0,1-6.623,8.05c-2.612,2.243-5.81,3.479-8.88,4.947A56.145,56.145,0,0,0,8.4,32.953a21.243,21.243,0,0,0-6.44,6.888A17.123,17.123,0,0,0,.1,49.806,25.693,25.693,0,0,0,3.628,60.2a22,22,0,0,0,7.68,7.945" transform="translate(49.09 70.676)" fill="#202a5f"/>
        <path id="Path_69749" data-name="Path 69749" d="M64.5,84.414a26.5,26.5,0,0,0,8.813-6.941,9.912,9.912,0,0,0,1.749-9.268,8.348,8.348,0,0,0-4.017-4.551,52.655,52.655,0,0,0-5.754-2.369,10.027,10.027,0,0,1-4.775-3.46,11.619,11.619,0,0,1-1.87-6.8c.074-4.884,2.026-9.592,1.677-14.5a12.752,12.752,0,0,0-2.637-6.995,19.489,19.489,0,0,0-4.25-4.013A37.174,37.174,0,0,0,43.075,20.9a72.185,72.185,0,0,1-10.407-3.66,15.538,15.538,0,0,1-7.438-7.57c-1.424-3.058-1.2-8.627-5.314-9.435C6.147-2.463,2.418,18.607,4.8,27.916,6.217,33.438,9.44,38.894,8.341,44.769,7.3,50.319,3.147,54.535,1.11,59.677a15.9,15.9,0,0,0-.951,8.109,29.639,29.639,0,0,0,2.8,8.98,29.886,29.886,0,0,0,5.162,7.5,23.284,23.284,0,0,0,6.052,4.489,36.551,36.551,0,0,0,14.9,3.686A64.945,64.945,0,0,0,43.713,91.5a71.047,71.047,0,0,0,9.417-2.39,67.338,67.338,0,0,0,11.371-4.7" transform="translate(47.576 201.915)" fill="#202a5f"/>
        <path id="Path_69750" data-name="Path 69750" d="M66.593,16.906a12.64,12.64,0,0,0-3.682-2.953,26.275,26.275,0,0,0-4.54-1.9,30.892,30.892,0,0,0-4.87-1.24c-3.611-.564-7.346-.539-10.874-1.569a10.081,10.081,0,0,1-4.3-2.393c-1.246-1.21-2.235-2.654-3.468-3.876A9.5,9.5,0,0,0,30.373.434a17.938,17.938,0,0,0-5.51-.376A30.819,30.819,0,0,0,15.39,2.482a36.868,36.868,0,0,0-8.5,4.713C-.211,12.618-1.071,19.933.95,28.3c.629,2.607,1.973,4.971,2.6,7.583a40.7,40.7,0,0,1,.646,4.9c.185,1.586.418,3.168.748,4.731a25.078,25.078,0,0,0,3.27,8.508A15.943,15.943,0,0,0,15.193,60a22.908,22.908,0,0,0,10.625,1.612A51.679,51.679,0,0,0,37.38,59.4a90.359,90.359,0,0,0,10.371-3.822,39.02,39.02,0,0,0,8.76-5.065,27.881,27.881,0,0,0,6.537-7.581,48.734,48.734,0,0,0,4.59-10.238C68.771,29.1,69.5,25.164,68.732,21.42a10.354,10.354,0,0,0-2.139-4.514" transform="translate(108.391 300.221)" fill="#202a5f"/>
        <path id="Path_69751" data-name="Path 69751" d="M.768,10.408c.509,2.112,1.6,4.026,2.109,6.143A32.867,32.867,0,0,1,3.4,20.516c.15,1.285.339,2.566.606,3.832A20.318,20.318,0,0,0,6.656,31.24a12.913,12.913,0,0,0,5.649,4.838,18.555,18.555,0,0,0,8.606,1.306A41.833,41.833,0,0,0,30.277,35.6a73.221,73.221,0,0,0,8.4-3.1,31.626,31.626,0,0,0,7.1-4.1,22.589,22.589,0,0,0,5.3-6.14,39.458,39.458,0,0,0,3.717-8.293,18.431,18.431,0,0,0,.887-9.132,8.385,8.385,0,0,0-1.733-3.657A8.717,8.717,0,0,0,52.746,0H.675c-1,3.127-.817,6.635.093,10.408" transform="translate(265.31 0)" fill="#202a5f"/>
        <path id="Path_69752" data-name="Path 69752" d="M.178,7.2C.956,11.728,3.7,15.672,6.75,19a47.887,47.887,0,0,0,4.763,4.52c1.625,1.344,3.432,2.454,5.023,3.841A9.458,9.458,0,0,1,19.8,32.582a36.17,36.17,0,0,1,.367,6.937,14.778,14.778,0,0,0,1.524,6.745,22.752,22.752,0,0,0,4.725,5.908,21.841,21.841,0,0,0,13.359,5.986c4.939.342,9.777-.81,14.631-1.526a37.946,37.946,0,0,1,7.326-.489c6.856.323,14.817.955,19.454-5.34a8.806,8.806,0,0,0,1.727-5.794,10.405,10.405,0,0,0-2-5.254c-2.226-3.185-5.507-5.449-7.754-8.608a16.945,16.945,0,0,1-2.854-5.805,8.873,8.873,0,0,1,.31-4.874A27.079,27.079,0,0,1,73.37,15.1a29.666,29.666,0,0,0,2.971-6.05A21.83,21.83,0,0,0,77.393,0H.969A13.78,13.78,0,0,0,.178,7.2" transform="translate(84.6 0)" fill="#202a5f"/>
        <path id="Path_69753" data-name="Path 69753" d="M55.656,19.12a18.59,18.59,0,0,0-6.511-4.184,27.478,27.478,0,0,0-8.279-1.868c-2.981-.216-6,.192-8.959-.325a10.067,10.067,0,0,1-3.981-1.516,9.823,9.823,0,0,1-2.861-3.3C23.653,5.5,22.587,2.792,20.006,1.353A9.841,9.841,0,0,0,12.352.406c-4.676,1.611-6.8,6.92-8.2,11.225A92.68,92.68,0,0,0,.245,26.2c-.993,6.751.992,14.53,6.61,18.8,4.843,3.685,11.2,4.1,17.051,3.8a53.9,53.9,0,0,0,18.339-4.02c5.73-2.442,11.2-6.318,14.459-11.736a12.464,12.464,0,0,0,2-7.757,10.772,10.772,0,0,0-3.047-6.174" transform="translate(196.199 312.484)" fill="#202a5f"/>
        <path id="Path_69754" data-name="Path 69754" d="M48.084,14.936A27.474,27.474,0,0,0,39.8,13.069c-2.981-.216-6,.191-8.959-.326a10.059,10.059,0,0,1-3.98-1.516A9.818,9.818,0,0,1,24,7.929C22.592,5.5,21.526,2.792,18.945,1.353A9.843,9.843,0,0,0,11.29.406c-4.674,1.61-6.8,6.916-8.2,11.221-6,18.37-5.135,38.465,19.757,37.181a53.882,53.882,0,0,0,18.339-4.021c5.73-2.442,11.2-6.318,14.458-11.736.1-.165.2-.332.289-.5V20.789A12.144,12.144,0,0,0,54.6,19.12a18.594,18.594,0,0,0-6.511-4.184" transform="translate(337.392 5.673)" fill="#202a5f"/>
        <path id="Path_69755" data-name="Path 69755" d="M53.751,12.357c-.522-.359-1.062-.758-1.612-1.215C46.626,6.564,48.924-.454,39.655.023c-13.738.709-24.812,6-30.165,18.254C7.216,23.479.342,27.094.014,33.06c-.4,7.316,7.784,7,8.94,12.706.51,2.519-3.228,3.719-1.382,6.6,1.612,2.514,7.444,2.173,9.942,2.044,8.427-.434,9.063-3.316,13.476-9.095,4.3-5.635,9.632-4.265,15.668-7.183A25.246,25.246,0,0,0,58.978,23.556c2.463-8-.749-8.122-5.227-11.2" transform="translate(273.986 323.398)" fill="#202a5f"/>
        <path id="Path_69756" data-name="Path 69756" d="M42.333,22.03a13.253,13.253,0,0,0-.68-3.877c-.979-2.642-3.017-4.654-4.374-7.083a10.7,10.7,0,0,1-1.245-3.893,9.825,9.825,0,0,0-.992-3.862A6.483,6.483,0,0,0,31.624.578c-6.074-2.126-13.6,2.08-18.769,5A9.435,9.435,0,0,0,8.907,9.454a9.52,9.52,0,0,0-.48,6.4c.6,2.6,1.827,5.067,2.156,7.73a6.757,6.757,0,0,1-.423,3.573,8.309,8.309,0,0,1-2.718,3.2C5.6,31.721,3.333,32.579,1.767,34.3A7.29,7.29,0,0,0,.573,41.927c2.945,7.146,11.878,14.646,20,13.538a12.6,12.6,0,0,0,7.262-3.355c3.363-3.348,4.292-8.351,7.611-11.735.419-.428.872-.82,1.278-1.262a16.911,16.911,0,0,0,1.257-1.553,20.2,20.2,0,0,0,1.945-3.377,27.146,27.146,0,0,0,2.267-8.156,23.314,23.314,0,0,0,.14-4" transform="translate(327.8 262.011)" fill="#202a5f"/>
        <path id="Path_69757" data-name="Path 69757" d="M68.9,7.639a21.692,21.692,0,0,0-6.845-6.2A10.7,10.7,0,0,0,53.7.455a20.449,20.449,0,0,0-9.132,5.983,33.028,33.028,0,0,0-5.589,9.877c-1.494,3.842-2.551,7.86-4.318,11.595-2.9,6.13-7.906,13.771-15.051,15-3.315.571-6.833-.033-9.994,1.118a17.66,17.66,0,0,0-6.206,4.561C1.36,50.663-.774,53.5.277,56.225,1,58.105,2.983,59.112,4.66,60.231s3.33,2.945,2.831,4.9c-.392,1.534-1.964,2.456-2.712,3.851-1.111,2.071-.106,4.77,1.675,6.3s4.142,2.173,6.423,2.739c5.85,1.452,12.156,2.687,17.778.515,8.29-3.2,13.684-13.188,19.6-19.416a47.943,47.943,0,0,1,4.4-4.089c1.6-1.31,3.315-2.441,4.99-3.646a39.093,39.093,0,0,0,12.43-14.011V12.788A32.2,32.2,0,0,0,68.9,7.639" transform="translate(321.25 318.976)" fill="#202a5f"/>
      </g>
    </g>
  </g>
</svg>
