<svg xmlns="http://www.w3.org/2000/svg" width="25.125" height="22.436" viewBox="0 0 25.125 22.436">
  <g id="Group_34493" data-name="Group 34493" transform="translate(0 -0.731)">
    <g id="Group_17332" data-name="Group 17332" transform="translate(0 0.731)">
      <g id="Group_17333" data-name="Group 17333" transform="translate(0 0)">
        <path id="Subtraction_48" data-name="Subtraction 48" d="M6.562,9.4a.527.527,0,0,1-.38-.178c-.077-.081-.157-.17-.246-.269l-.02-.022c-.1-.111-.2-.224-.309-.331a.277.277,0,0,0-.17-.058c-.177,0-.355-.006-.544-.006-.174,0-.35,0-.539.005A.252.252,0,0,0,4.2,8.59c-.117.116-.23.239-.339.359l-.008.009,0,0c-.061.067-.13.142-.2.214a.576.576,0,0,1-.417.216.628.628,0,0,1-.368-.142L1.336,8.135a.552.552,0,0,1-.183-.844l.592-1.038-.329-.278,0,0-.152-.166.108-.058-.115.026c-.023-.1-.051-.229-.088-.351a.244.244,0,0,0-.1-.129c-.16-.082-.331-.159-.482-.227L.346,4.956a.523.523,0,0,1-.311-.689c.227-.7.427-1.312.629-1.919a.5.5,0,0,1,.5-.375.748.748,0,0,1,.139.014l.228.046h0l.023,0,.066.014c.172.037.327.069.481.1H2.11a.228.228,0,0,0,.117-.041c.352-.249.646-.464.925-.676a.283.283,0,0,0,.1-.15c.035-.2.056-.416.074-.588L3.337.586A.557.557,0,0,1,3.977,0c.548,0,1.086.006,1.59.007h.3a.526.526,0,0,1,.6.53c.04.319.063.537.081.752,0,.064.027.1.1.147.336.233.633.449.905.662a.211.211,0,0,0,.133.058.224.224,0,0,0,.05-.006c.29-.066.58-.12.772-.154a.81.81,0,0,1,.143-.014.5.5,0,0,1,.5.4c.187.577.389,1.2.591,1.831a.543.543,0,0,1-.345.778l-.2.092h0c-.148.068-.3.137-.455.2a.185.185,0,0,0-.118.148c-.092.318-.2.656-.343,1.035a.189.189,0,0,0,.007.191c.136.23.264.464.388.691A.523.523,0,0,1,8.52,8.1c-.522.38-1.073.779-1.637,1.184A.546.546,0,0,1,6.562,9.4ZM4.9,3.149a1.637,1.637,0,0,0,0,3.273h.007a1.628,1.628,0,0,0,1.159-.489,1.605,1.605,0,0,0,.469-1.148,1.652,1.652,0,0,0-.482-1.158,1.608,1.608,0,0,0-1.147-.478Z" transform="translate(14.824 11.334)" fill="#ff0089" stroke="rgba(0,0,0,0)" stroke-width="1"/>
        <path id="Path_65231" data-name="Path 65231" d="M1.8,1.048C-.45,2.86-.613,6.407,1.437,8.954l4.314,5.358,8.164-6.573L9.6,2.38C7.551-.167,4.052-.764,1.8,1.048M5.838,12.414,2.417,8.165a4.274,4.274,0,0,1,.277-6.008A4.274,4.274,0,0,1,8.622,3.169l3.421,4.25Z" transform="translate(0 0)" fill="#1e2663"/>
        <path id="Path_65233" data-name="Path 65233" d="M23.093,30.164a4.382,4.382,0,0,1-4.733-1.537l-3.335-4.142,6.205-5,1.48,1.839.983-.784L21.339,17.62l-8.164,6.573,4.205,5.224A5.711,5.711,0,0,0,23.955,31.3Z" transform="translate(-6.925 -9.261)" fill="#1e2663"/>
      </g>
    </g>
  </g>
</svg>
