<svg xmlns="http://www.w3.org/2000/svg" width="27.727" height="16.459" viewBox="0 0 27.727 16.459">
  <g id="Group_34513" data-name="Group 34513" transform="translate(2.838 -3.75)">
    <g id="Group_34521" data-name="Group 34521" transform="translate(779.504 -7902.591)">
      <g id="Group_18426" data-name="Group 18426" transform="translate(-782.342 7906.342)">
        <g id="Group_17388" data-name="Group 17388" transform="translate(0 0)">
          <path id="Path_64191" data-name="Path 64191" d="M53.538,5.007,49.554,8.4v4.086l3.984,3.391Z" transform="translate(-28.021 -2.559)" fill="#ff0089"/>
          <g id="Group_16366" data-name="Group 16366" transform="translate(0 0)">
            <g id="Group_16367" data-name="Group 16367">
              <path id="Path_64192" data-name="Path 64192" d="M51.449,15.523a2.083,2.083,0,0,1-1.3-.448L45.761,11.6a1.812,1.812,0,0,1-.707-1.423V5.365a1.811,1.811,0,0,1,.707-1.422L50.15.47a2.1,2.1,0,0,1,1.3-.447h.006a2.068,2.068,0,0,1,1.417.55,1.787,1.787,0,0,1,.584,1.32V13.654a1.788,1.788,0,0,1-.481,1.216,2.048,2.048,0,0,1-1.369.647c-.053,0-.106.006-.159.006m0-14.13a.556.556,0,0,0-.346.119L46.715,4.987a.482.482,0,0,0-.188.378V10.18a.483.483,0,0,0,.188.379l4.39,3.474a.567.567,0,0,0,.389.118.542.542,0,0,0,.363-.172.474.474,0,0,0,.128-.323V1.891a.476.476,0,0,0-.155-.353.55.55,0,0,0-.376-.146Z" transform="translate(-25.732 -0.023)" fill="#1e2663"/>
              <path id="Path_64193" data-name="Path 64193" d="M18.573,13.354H9.408A3.412,3.412,0,0,1,6,9.945V3.408A3.412,3.412,0,0,1,9.408,0h9.164a3.412,3.412,0,0,1,3.408,3.408V9.945a3.412,3.412,0,0,1-3.408,3.408M9.408,1.095A2.317,2.317,0,0,0,7.095,3.408V9.945a2.317,2.317,0,0,0,2.314,2.314h9.164a2.316,2.316,0,0,0,2.313-2.314V3.408a2.316,2.316,0,0,0-2.313-2.314Z" transform="translate(-3.75 0.802)" fill="#1e2663"/>
              <path id="Path_64194" data-name="Path 64194" d="M14.121,26.579a3.677,3.677,0,0,1-1.106.17h-8.1a3.689,3.689,0,0,1-3.685-3.685V19.75H0v3.314a4.918,4.918,0,0,0,4.913,4.913h8.1a4.89,4.89,0,0,0,1.106-.13Z" transform="translate(0 -11.519)" fill="#ff0089"/>
            </g>
          </g>
        </g>
      </g>
    </g>
  </g>
</svg>
