<svg id="article_1_" data-name="article (1)" xmlns="http://www.w3.org/2000/svg" width="14.804" height="11.388" viewBox="0 0 14.804 11.388">
  <path id="Path_30948" data-name="Path 30948" d="M61,312.569v5.884a1.139,1.139,0,0,0,2.278,0V312H61.569A.569.569,0,0,0,61,312.569Z" transform="translate(-61 -308.204)" fill="#757ec4"/>
  <path id="Path_30949" data-name="Path 30949" d="M236,287h4.935v1.139H236Z" transform="translate(-229.357 -284.153)" fill="#757ec4"/>
  <path id="Path_30950" data-name="Path 30950" d="M154.053,212H143.8a.569.569,0,0,0-.569.569v9.679a2.263,2.263,0,0,1-.306,1.139h10.555a1.139,1.139,0,0,0,1.139-1.139v-9.679A.569.569,0,0,0,154.053,212Zm-2.088,9.679h-6.073a.569.569,0,1,1,0-1.139h6.073a.569.569,0,0,1,0,1.139Zm0-2.277h-6.073a.569.569,0,1,1,0-1.139h6.073a.569.569,0,0,1,0,1.139Zm.569-2.847a.569.569,0,0,1-.569.569h-6.073a.569.569,0,0,1-.569-.569v-2.277a.569.569,0,0,1,.569-.569h6.073a.569.569,0,0,1,.569.569Z" transform="translate(-139.818 -212)" fill="#757ec4"/>
</svg>
