<svg id="book_3_" data-name="book (3)" xmlns="http://www.w3.org/2000/svg" width="17.414" height="12.994" viewBox="0 0 17.414 12.994">
  <path id="Path_30942" data-name="Path 30942" d="M1.436,7.6V.037C1.062.023.7.011.352,0A.341.341,0,0,0,0,.341V9.15a.341.341,0,0,0,.323.341,35.484,35.484,0,0,1,6.423.744A11.5,11.5,0,0,0,1.854,8.1a.512.512,0,0,1-.418-.5Z" transform="translate(0 2.758)" fill="#6795ea"/>
  <path id="Path_30943" data-name="Path 30943" d="M5.311.013V7.637a.512.512,0,0,1-.418.5A11.5,11.5,0,0,0,0,10.272a35.469,35.469,0,0,1,6.423-.744.341.341,0,0,0,.323-.341V.341A.341.341,0,0,0,6.406,0C6.1,0,5.73,0,5.311.013Z" transform="translate(10.668 2.721)" fill="#6795ea"/>
  <path id="Path_30944" data-name="Path 30944" d="M0,.341v9.6a12.144,12.144,0,0,1,5.735,2.942V2.809A9.17,9.17,0,0,0,.4.006.342.342,0,0,0,0,.341ZM4.256,8.162a.512.512,0,0,1-.7.17,5.213,5.213,0,0,0-1.593-.676.512.512,0,0,1,.171-1.01,6.077,6.077,0,0,1,1.956.812A.513.513,0,0,1,4.256,8.162Zm.012-3.238a.512.512,0,0,1-.713.127,4.275,4.275,0,0,0-1.6-.651.512.512,0,1,1,.171-1.01,5.3,5.3,0,0,1,2.011.821A.512.512,0,0,1,4.267,4.924Z" transform="translate(2.46 0)" fill="#6795ea"/>
  <path id="Path_30945" data-name="Path 30945" d="M5.33.006A9.17,9.17,0,0,0,0,2.809V12.882A12.144,12.144,0,0,1,5.735,9.94V.341a.342.342,0,0,0-.4-.336ZM3.776,7.656a5.214,5.214,0,0,0-1.593.676.512.512,0,1,1-.534-.874,6.078,6.078,0,0,1,1.956-.812.512.512,0,1,1,.171,1.01Zm0-3.256a4.275,4.275,0,0,0-1.6.651.512.512,0,1,1-.586-.84A5.3,5.3,0,0,1,3.605,3.39.512.512,0,1,1,3.776,4.4Z" transform="translate(9.219 0)" fill="#6795ea"/>
</svg>
