<svg xmlns="http://www.w3.org/2000/svg" width="15.331" height="12.676" viewBox="0 0 15.331 12.676">
  <g id="Group_18316" data-name="Group 18316" transform="translate(0 0)">
    <g id="Group_18317" data-name="Group 18317" transform="translate(0 0)">
      <path id="Path_64674" data-name="Path 64674" d="M13.658,10.785c.049.253.1.492.139.733a2.4,2.4,0,0,1,.047.6.625.625,0,0,1-.869.506c-.389-.168-.766-.365-1.143-.557q-1.191-.606-2.378-1.221a.79.79,0,0,0-.366-.088q-2.422-.024-4.844-.054l-1.627-.022A2.7,2.7,0,0,1,.207,9.035,2.772,2.772,0,0,1,0,7.956C.009,6.8.028,5.642.042,4.485.049,3.89.054,3.3.062,2.7a2.68,2.68,0,0,1,2-2.614A3.1,3.1,0,0,1,2.852,0C5.412.024,7.971.058,10.53.089l2.147.024a2.673,2.673,0,0,1,2.617,2.239,2.72,2.72,0,0,1,.037.458q-.013,2.074-.034,4.148c-.008.739-.024,1.477-.036,2.216a1.574,1.574,0,0,1-1.314,1.577c-.089.018-.18.021-.291.034M7.649,4.657H11.3c.091,0,.183,0,.274-.013a.736.736,0,0,0,.669-.721.75.75,0,0,0-.775-.772H4.032c-.078,0-.157,0-.235,0a.76.76,0,0,0-.712.609.746.746,0,0,0,.392.8,1.149,1.149,0,0,0,.554.094H7.649m.032,1.506v0H4.024a2.375,2.375,0,0,0-.255.006.727.727,0,0,0-.635.468.706.706,0,0,0,.14.783.826.826,0,0,0,.663.255q3.7,0,7.4,0a2.212,2.212,0,0,0,.235-.009.746.746,0,0,0,.593-1.06.764.764,0,0,0-.77-.446c-1.239.005-2.477,0-3.716,0" transform="translate(0 0)" fill="#606060"/>
    </g>
  </g>
</svg>
