<svg id="Group_7218" data-name="Group 7218" xmlns="http://www.w3.org/2000/svg" width="13.168" height="13.04" viewBox="0 0 13.168 13.04">
  <g id="Group_7219" data-name="Group 7219" transform="translate(0 0)">
    <path id="Path_39217" data-name="Path 39217" d="M8.156,11.365v1.169h-6.8A1.188,1.188,0,0,1,0,11.177c0-4.17,0-5.644,0-9.813C0,.432.428,0,1.35,0H9.712a1.191,1.191,0,0,1,1.351,1.339c0,1.833,0,.022,0,1.855,0,.094-.008.189-.012.269-.242.082-.461.164-.685.23a.371.371,0,0,1-.46-.4c0-1.79,0,.063,0-1.727V1.175H1.18v10.19Z" transform="translate(0 0)" fill="#cc3bd8"/>
    <path id="Path_39218" data-name="Path 39218" d="M5.055,1.388a1.375,1.375,0,0,1-.042.24.443.443,0,0,0,.165.507c.461.43.462.586,0,1.013a.5.5,0,0,0-.162.538c.125.548,0,.726-.57.781a.52.52,0,0,0-.476.35c-.232.512-.416.576-.892.3a.552.552,0,0,0-.623-.007c-.487.282-.673.221-.9-.281a.541.541,0,0,0-.5-.366C.514,4.414.382,4.228.5,3.7a.517.517,0,0,0-.171-.565c-.444-.406-.443-.579,0-.989A.518.518,0,0,0,.5,1.579c-.12-.527.019-.71.562-.757A.523.523,0,0,0,1.547.477c.244-.538.408-.594.912-.3A.552.552,0,0,0,3.08.167c.478-.273.661-.22.875.269A.575.575,0,0,0,4.51.827c.413.024.556.18.545.561M3.761,2.651a1,1,0,0,0-2-.017,1,1,0,1,0,2,.017" transform="translate(7.645 4.51)" fill="#cc3bd8"/>
    <path id="Path_39219" data-name="Path 39219" d="M1.346,2.235c-.358.328-.684.637-1.021.934-.18.158-.316.115-.318-.108C0,2.069,0,1.076,0,0A.874.874,0,0,0,1.208.105a.379.379,0,0,1,.316.02A.827.827,0,0,0,2.662.016c.014.136.028.216.028.295,0,.878,0,1.755,0,2.633a1.077,1.077,0,0,1-.1.313,1.209,1.209,0,0,1-.27-.139c-.321-.283-.632-.576-.966-.883" transform="translate(9.061 9.776)" fill="#cc3bd8"/>
    <path id="Path_39220" data-name="Path 39220" d="M3.214.772Q1.88.772.546.772C.179.771-.006.637,0,.381S.184,0,.529,0C2.307,0,2.664,0,4.442,0c.344,0,.514.137.509.395s-.167.375-.524.376c-.878,0-.335,0-1.214,0" transform="translate(2.337 4.124)" fill="#cc3bd8"/>
    <path id="Path_39221" data-name="Path 39221" d="M2.472.77c-.653,0-1.306,0-1.959,0C.175.767-.02.619,0,.375.028.074.239,0,.5,0H4.388c.263,0,.474.076.493.381.015.247-.172.386-.515.388-.632,0-1.263,0-1.895,0" transform="translate(2.337 2.222)" fill="#cc3bd8"/>
  </g>
</svg>
