<svg id="election-event-on-a-calendar-with-star-symbol" xmlns="http://www.w3.org/2000/svg" width="14.875" height="15.111" viewBox="0 0 14.875 15.111">
  <g id="Group_5165" data-name="Group 5165" transform="translate(0 0)">
    <path id="Path_30951" data-name="Path 30951" d="M1.148,3.568.916,4.945a.5.5,0,0,0,.728.529l1.238-.646,1.238.646a.5.5,0,0,0,.728-.529L4.617,3.568l1-.978a.5.5,0,0,0-.278-.856l-1.381-.2L3.332.279a.5.5,0,0,0-.9,0L1.81,1.529l-1.381.2a.5.5,0,0,0-.278.856Z" transform="translate(4.555 6.161)" fill="#28b423"/>
    <path id="Path_30952" data-name="Path 30952" d="M13.374,1.606H11.792V.729A.729.729,0,0,0,11.063,0h-.116a.729.729,0,0,0-.729.729v.877H4.638V.729A.729.729,0,0,0,3.909,0H3.793a.729.729,0,0,0-.729.729v.877H1.5A1.5,1.5,0,0,0,0,3.107v10.5a1.5,1.5,0,0,0,1.5,1.5H13.374a1.5,1.5,0,0,0,1.5-1.5V3.107A1.5,1.5,0,0,0,13.374,1.606Zm-.2,11.808H1.7V5.238H13.178Z" transform="translate(0 0)" fill="#28b423"/>
  </g>
</svg>
