<svg id="portfolio_2_" data-name="portfolio (2)" xmlns="http://www.w3.org/2000/svg" width="15.076" height="13.25" viewBox="0 0 15.076 13.25">
  <path id="Path_30955" data-name="Path 30955" d="M0,0H2.65V.883H0ZM0,0" transform="translate(6.213 7.067)" fill="#dd7f11"/>
  <path id="Path_30956" data-name="Path 30956" d="M12.231,5.671H9.746v.442a.441.441,0,0,1-.442.442H5.771a.441.441,0,0,1-.442-.442V5.671H2.845a1.324,1.324,0,0,1-1.257-.906L0,0V9.646a1.327,1.327,0,0,0,1.325,1.325H13.751a1.327,1.327,0,0,0,1.325-1.325V0L13.488,4.765A1.323,1.323,0,0,1,12.231,5.671Zm0,0" transform="translate(0 2.279)" fill="#dd7f11"/>
  <path id="Path_30957" data-name="Path 30957" d="M8.545,0H5.011A1.327,1.327,0,0,0,3.686,1.325v.442H0l1.666,5a.442.442,0,0,0,.419.3H4.57V6.625a.441.441,0,0,1,.442-.442H8.545a.441.441,0,0,1,.442.442v.442h2.485a.442.442,0,0,0,.419-.3l1.666-5H9.87V1.325A1.327,1.327,0,0,0,8.545,0ZM4.57,1.767V1.325A.442.442,0,0,1,5.011.883H8.545a.442.442,0,0,1,.442.442v.442Zm0,0" transform="translate(0.76 0)" fill="#dd7f11"/>
</svg>
