<svg id="Group_18313" data-name="Group 18313" xmlns="http://www.w3.org/2000/svg" width="14.875" height="14.875" viewBox="0 0 14.875 14.875">
  <g id="Group_18314" data-name="Group 18314">
    <path id="Path_64673" data-name="Path 64673" d="M14.461,9.885a7.439,7.439,0,0,0,0-4.894.5.5,0,0,0-.024-.067,7.438,7.438,0,0,0-14,0,.487.487,0,0,0-.024.067,7.439,7.439,0,0,0,0,4.894.522.522,0,0,0,.024.067,7.437,7.437,0,0,0,14,0,.491.491,0,0,0,.024-.067M7.438,13.809c-.283,0-.74-.513-1.122-1.658a11.68,11.68,0,0,1-.439-1.879H9a11.665,11.665,0,0,1-.439,1.879c-.382,1.145-.839,1.658-1.122,1.658m-1.69-4.6c-.051-.568-.078-1.162-.078-1.769s.027-1.2.078-1.768h3.38c.051.568.078,1.161.078,1.768s-.027,1.2-.078,1.769ZM1.066,7.438a6.341,6.341,0,0,1,.25-1.768H4.678c-.05.58-.075,1.175-.075,1.768s.025,1.188.075,1.769H1.316a6.343,6.343,0,0,1-.25-1.769M7.438,1.066c.283,0,.74.513,1.122,1.658A11.651,11.651,0,0,1,9,4.6H5.877a11.643,11.643,0,0,1,.439-1.879c.382-1.145.838-1.658,1.122-1.658m2.759,4.6h3.362a6.38,6.38,0,0,1,0,3.537H10.2c.05-.58.075-1.175.075-1.769S10.247,6.25,10.2,5.669M13.142,4.6H10.075A10.239,10.239,0,0,0,9.1,1.288,6.4,6.4,0,0,1,13.142,4.6M5.772,1.288A10.237,10.237,0,0,0,4.8,4.6H1.732A6.4,6.4,0,0,1,5.772,1.288M1.732,10.272H4.8a10.237,10.237,0,0,0,.971,3.315,6.4,6.4,0,0,1-4.039-3.315M9.1,13.588a10.239,10.239,0,0,0,.971-3.315h3.068A6.4,6.4,0,0,1,9.1,13.588" transform="translate(0)" fill="#de43a3"/>
  </g>
</svg>
