<svg xmlns="http://www.w3.org/2000/svg" width="22.63" height="22.64" viewBox="0 0 22.63 22.64">
  <g id="Group_6294" data-name="Group 6294" transform="translate(0.705 0.714)">
    <g id="Group_6251" data-name="Group 6251" transform="translate(0 0)">
      <g id="Group_17291" data-name="Group 17291">
        <path id="Path_36038" data-name="Path 36038" d="M3.121,4.462,1.275,2.8l.072-.189,6.041-.681C7.16,3.99,6.941,5.967,6.722,7.944l-.16.07L5.526,6.707a7.159,7.159,0,0,0-2.075,7.651,7.432,7.432,0,0,0,3.666,4.363,7.558,7.558,0,0,0,5.7.552c-.116,1.049-.2,2.014-.353,2.966-.026.154-.388.338-.61.36A10.339,10.339,0,0,1,4.1,20.434,10.606,10.606,0,0,1,2.793,4.88c.1-.108.179-.227.329-.419" transform="translate(0 -1.438)" fill="#fff" stroke="#27326c" stroke-width="1.4"/>
        <path id="Path_36039" data-name="Path 36039" d="M42.609,18.271,44.445,19.9l-.052.179-5.991.668.68-6.13,1.337,1.273a7.23,7.23,0,0,0,1.774-8c-1.423-3.608-4.573-5.178-9.214-4.546.108-1,.2-1.986.339-2.964.017-.119.3-.263.473-.287A10.6,10.6,0,0,1,45.756,11.183a10.411,10.411,0,0,1-2.84,6.7c-.07.075-.129.16-.307.385" transform="translate(-24.552 0)" fill="#fff" stroke="#27326c" stroke-width="1.4"/>
      </g>
    </g>
  </g>
</svg>
