<svg id="Group_18298" data-name="Group 18298" xmlns="http://www.w3.org/2000/svg" xmlns:xlink="http://www.w3.org/1999/xlink" width="14.34" height="12.737" viewBox="0 0 14.34 12.737">
  <defs>
    <clipPath id="clip-path">
      <rect id="Rectangle_5535" data-name="Rectangle 5535" width="14.34" height="12.737" fill="#606060"/>
    </clipPath>
  </defs>
  <g id="Group_6312" data-name="Group 6312" clip-path="url(#clip-path)">
    <path id="Path_36041" data-name="Path 36041" d="M14.34,4.747c-.434.448-.864.9-1.3,1.342-.943.949-1.892,1.892-2.836,2.84-.183.184-.377.324-.646.218s-.331-.348-.327-.624c.01-.615,0-1.231,0-1.864a1.279,1.279,0,0,0-.221-.039,22.549,22.549,0,0,0-4.251.232A3.427,3.427,0,0,0,1.8,10.011,21.857,21.857,0,0,0,1.774,12.3c0,.179.063.416-.172.44-.119.012-.319-.153-.38-.285A11.891,11.891,0,0,1,.043,8.909.268.268,0,0,0,0,8.827V7.743c.02-.125.047-.248.06-.374A5,5,0,0,1,.933,4.848,5.549,5.549,0,0,1,4.4,2.83a19.4,19.4,0,0,1,4.369-.3h.466c0-.7,0-1.354,0-2.009,0-.287.131-.5.4-.522a.757.757,0,0,1,.525.2c1.332,1.31,2.648,2.635,3.967,3.957.081.081.146.177.219.265Z" transform="translate(0 0)" fill="#606060"/>
  </g>
</svg>
