<svg id="video-camera_1_" data-name="video-camera (1)" xmlns="http://www.w3.org/2000/svg" width="18.648" height="10.956" viewBox="0 0 18.648 10.956">
  <g id="Group_5157" data-name="Group 5157" transform="translate(0 0)">
    <g id="Group_5156" data-name="Group 5156" transform="translate(0)">
      <path id="Path_30939" data-name="Path 30939" d="M10.548,0H2.04A2.046,2.046,0,0,0,0,2.04V8.916a2.046,2.046,0,0,0,2.04,2.04h8.508a2.046,2.046,0,0,0,2.04-2.04V2.04A2.033,2.033,0,0,0,10.548,0Z" transform="translate(0 0)" fill="#e64040"/>
    </g>
  </g>
  <g id="Group_5159" data-name="Group 5159" transform="translate(13.608 1.089)">
    <g id="Group_5158" data-name="Group 5158" transform="translate(0 0)">
      <path id="Path_30940" data-name="Path 30940" d="M3.53.033a1.038,1.038,0,0,0-.347.143L0,2.012V6.745L3.2,8.581a1.213,1.213,0,0,0,1.673-.449,1.246,1.246,0,0,0,.163-.612v-6.3A1.228,1.228,0,0,0,3.53.033Z" transform="translate(0 0)" fill="#e64040"/>
    </g>
  </g>
</svg>
