<svg xmlns="http://www.w3.org/2000/svg" width="27.389" height="27.376" viewBox="0 0 27.389 27.376">
  <g id="Group_19680" data-name="Group 19680" transform="translate(0.1 0.1)">
    <g id="Group_17348" data-name="Group 17348" transform="translate(0 0)">
      <g id="Group_17344" data-name="Group 17344" transform="translate(0 0)">
        <g id="Group_16362" data-name="Group 16362">
          <path id="Path_64183" data-name="Path 64183" d="M6.09,33.252A2.5,2.5,0,0,0,3.651,35.8a2.514,2.514,0,0,0,2.5,2.46c2.426.013,4.874.01,7.24.007H25.708a4.889,4.889,0,0,1,.014-5.012c-5.473-.01-12.542-.018-19.633,0" transform="translate(-1.46 -13.295)" fill="#ff0089"/>
          <path id="Path_64184" data-name="Path 64184" d="M25.824,39.011c-.086,0-.17,0-.25-.009s-.122-.008-.169-.008H11.935C9.563,39,7.112,39,4.7,38.986H4.686A4.71,4.71,0,0,1,0,34.374,4.692,4.692,0,0,1,4.612,29.6c7.36-.019,14.8-.01,21.107,0a1.451,1.451,0,0,1,1.368.835l.022.1a1.929,1.929,0,0,1-.146,1.1l-.022.062a1.5,1.5,0,0,1-.37.553l0,0a.328.328,0,0,1-.029.038,3.024,3.024,0,0,0,.084,4.157l-1.089.847a4.372,4.372,0,0,1-.091-5.841c.055-.071.1-.122.146-.172l.1-.2a.661.661,0,0,0,.035-.092l-.019,0c-6.3-.011-13.744-.021-21.089,0A3.312,3.312,0,0,0,1.38,34.35a3.326,3.326,0,0,0,3.312,3.256H4.7c2.413.014,4.86.01,7.232.007H25.4a2.147,2.147,0,0,1,.272.012l.088,0a2.207,2.207,0,0,0-.218-.337l1.089-.848a2.048,2.048,0,0,1,.53,1.6,1.232,1.232,0,0,1-1.333.962" transform="translate(0 -11.835)" fill="#fff" stroke="#1a2256" stroke-width="0.2"/>
          <path id="Path_64185" data-name="Path 64185" d="M25.893,10.136v0a4.011,4.011,0,0,0-2.866-1.2c-2.64-.011-5.324-.009-7.921-.007H11.3v-.9h14.54c.039,0,.079,0,.12.006a.8.8,0,0,0,.311-.018l.128-.039c.24-.071.486-.143.551-.318a1.061,1.061,0,0,0-.164-.794,2.327,2.327,0,0,0-.3-.42,3.06,3.06,0,0,1-.212-.27A3.233,3.233,0,0,1,25.71,3.1a7.052,7.052,0,0,1,.627-1.16c.148-.24.3-.483.433-.734.064-.12.265-.54.142-.805C26.8.174,26.406.061,26.189.03A4.615,4.615,0,0,0,25.4.009c-.109,0-.218.007-.326.007h-5.56q-7.067,0-14.129,0a4.013,4.013,0,1,0-.374,8.017c.112.005.225.006.338,0h.415v.9H4.488c-.8,0-1.636-.005-2.454.015-.217.005-.638.125-.71.345a1.288,1.288,0,0,0,.113.77l.021.06a.887.887,0,0,0,.2.3,1.567,1.567,0,0,1,.109.128,3.646,3.646,0,0,1-.082,4.918c-.038.049-.079.1-.12.145a2.648,2.648,0,0,0-.256.338.676.676,0,0,0-.074.644.672.672,0,0,0,.544.348,2.354,2.354,0,0,0,.385.013H17.88c.518,0,1.028,0,1.542,0,.5,0,1,0,1.509,0,.736,0,1.477,0,2.212-.015a4.006,4.006,0,0,0,2.75-6.809M3.152,5.812a2.552,2.552,0,0,1-.467-2.8,2.618,2.618,0,0,1,2.28-1.692,1.894,1.894,0,0,1,.218-.01h19.89c-1.116,2.36-1.116,2.7-.044,5.4H11.274V4.346c0-.768-.19-.956-.947-.96-1.072,0-2.346-.005-3.657,0C6,3.39,5.8,3.594,5.8,4.26c0,.58,0,1.159,0,1.751l0,0v.7a2.79,2.79,0,0,1-2.64-.9m6.9-1.209V11.36c-.36-.277-.692-.507-.993-.772a.707.707,0,0,0-1-.056.611.611,0,0,0-.065.066c-.287.252-.6.475-.96.755l0-6.751Zm15.33,9.689a2.577,2.577,0,0,1-2.351,1.36q-8,.007-15.995,0H3.341c-.055,0-.109,0-.175-.009a4.825,4.825,0,0,0,.009-5.378H5.793c0,.17,0,.341,0,.512,0,.515-.009,1.048.016,1.572a1.658,1.658,0,0,0,.166.559c.033.077.066.154.093.232l.034.1.1-.038c.077-.028.156-.05.236-.074a1.758,1.758,0,0,0,.533-.22c.389-.274.757-.567,1.147-.877.137-.109.276-.22.42-.332l.4.316c.376.3.764.608,1.164.887.2.143.61.354.836.24s.32-.563.332-.808c.026-.513.021-1.037.016-1.544,0-.18,0-.356,0-.536l.02-.005a.5.5,0,0,1,.107-.021q1.608,0,3.215,0c2.788,0,5.67-.01,8.505.013a2.614,2.614,0,0,1,2.269,1.347,2.68,2.68,0,0,1-.013,2.707" transform="translate(-0.474 -0.001)" fill="#fff" stroke="#1a2256" stroke-width="0.2"/>
          <path id="Path_64186" data-name="Path 64186" d="M13.979,14.565l-.162-.125c-.113-.087-.223-.169-.33-.25-.236-.176-.458-.343-.668-.527a.611.611,0,0,0-.862-.059.577.577,0,0,0-.068.07c-.2.174-.409.335-.633.506-.106.08-.215.164-.329.253l-.163.127V7.5h3.215Zm-1.617-1.312a.9.9,0,0,1,.589.26c.2.18.423.343.655.517l.171.128V7.7H10.965V14.15l.169-.129c.221-.169.43-.328.622-.5a.925.925,0,0,1,.606-.27" transform="translate(-4.305 -3.001)" fill="#1e2663"/>
        </g>
      </g>
    </g>
  </g>
</svg>
