<svg xmlns="http://www.w3.org/2000/svg" width="33.302" height="26.25" viewBox="0 0 33.302 26.25">
  <g id="Group_19685" data-name="Group 19685" transform="translate(-58.301 -248.906)">
    <path id="Path_76760" data-name="Path 76760" d="M33,10.011V6.848a.552.552,0,0,0-.008-.072.465.465,0,0,0-.021-.091.547.547,0,0,0-.045-.108c-.016-.029-.031-.051-.041-.066L28.979.365A1.075,1.075,0,0,0,28.143,0H4.858A1.064,1.064,0,0,0,4,.4L.133,6.484c-.027.04-.042.061-.051.077a.66.66,0,0,0-.048.106.679.679,0,0,0-.022.087A.432.432,0,0,0,0,6.846l0,3.164c0,1.8,1.518,3.357,3.692,3.791l.19.038V25.191a.889.889,0,0,0,.976.76H28.143a.891.891,0,0,0,.977-.76V13.839l.188-.038C31.483,13.369,33,11.811,33,10.011M5.423,1.52H27.578l2.761,4.585H2.659ZM23.284,7.626v2.385a2.685,2.685,0,0,1-2.9,2.385,2.684,2.684,0,0,1-2.9-2.385V7.626Zm-7.763,0v2.385a2.684,2.684,0,0,1-2.9,2.385,2.686,2.686,0,0,1-2.9-2.385V7.626ZM1.954,10.011V7.626H7.763v2.385A2.687,2.687,0,0,1,4.858,12.4a2.686,2.686,0,0,1-2.9-2.385M27.164,24.43h-5.65v-.021H10.091l-.1.019-4.16,0V13.839l.19-.038A5.186,5.186,0,0,0,8.575,12.52l.164-.155.163.155a5.4,5.4,0,0,0,3.719,1.4,5.4,5.4,0,0,0,3.718-1.4l.163-.155.164.155a5.65,5.65,0,0,0,7.435,0l.163-.155.164.155A5.176,5.176,0,0,0,26.976,13.8l.188.038Zm3.881-14.419a2.684,2.684,0,0,1-2.9,2.385,2.685,2.685,0,0,1-2.9-2.385V7.626h5.805Z" transform="translate(58.451 249.056)" fill="#fff" stroke="#212a66" stroke-width="0.3"/>
    <path id="Subtraction_85" data-name="Subtraction 85" d="M28.025,25.714H4.741c-.473,0-.859-.288-.859-.643V13.623L3.6,13.567C1.479,13.148,0,11.636,0,9.892L0,6.729A.271.271,0,0,1,.01,6.657l0-.009a.451.451,0,0,1,.016-.06.431.431,0,0,1,.04-.09c.007-.012.013-.023.026-.043L3.977.349A.941.941,0,0,1,4.741,0H28.025a.956.956,0,0,1,.736.31L32.669,6.46a.106.106,0,0,1,.014.023l0,0A.063.063,0,0,1,32.7,6.5l.011.016,0,.008,0,.008,0,.006c.007.016.013.034.025.067a.6.6,0,0,1,.02.079.166.166,0,0,1,0,.046V9.892c0,1.744-1.48,3.255-3.6,3.675l-.285.056V25.071C28.884,25.426,28.5,25.714,28.025,25.714ZM9.973,24.407H21.279v.023h5.885V13.625l-.282-.057a5.033,5.033,0,0,1-2.493-1.251l-.244-.231-.246.231a5.526,5.526,0,0,1-7.271,0l-.246-.231-.244.231A5.273,5.273,0,0,1,12.5,13.68a5.262,5.262,0,0,1-3.635-1.364l-.246-.231-.244.231a5.071,5.071,0,0,1-2.493,1.251l-.283.057V24.431l4.3-.005.072-.018ZM5.238,1.285,2.332,6.106h28.1l-2.9-4.821Z" transform="translate(58.57 249.174)" fill="#fff"/>
    <path id="Path_76763" data-name="Path 76763" d="M24.354,11.382a2.8,2.8,0,0,1-3.019-2.5v-2.5h6.039v2.5a2.8,2.8,0,0,1-3.019,2.5" transform="translate(62.24 250.189)" fill="#fff" stroke="#212a66" stroke-width="0.3"/>
    <path id="Path_76764" data-name="Path 76764" d="M21.534,6.576V8.843a2.57,2.57,0,0,0,2.785,2.268A2.57,2.57,0,0,0,27.1,8.843V6.576Z" transform="translate(62.275 250.224)" fill="#ff0089" stroke="#212b69" stroke-width="1.5"/>
    <path id="Path_76765" data-name="Path 76765" d="M17.763,11.382a2.8,2.8,0,0,1-3.019-2.5v-2.5h6.04v2.5a2.8,2.8,0,0,1-3.02,2.5" transform="translate(61.07 250.189)" fill="#fff" stroke="#212a66" stroke-width="0.3"/>
    <path id="Path_76766" data-name="Path 76766" d="M14.942,6.576V8.843a2.57,2.57,0,0,0,2.785,2.268,2.57,2.57,0,0,0,2.786-2.268V6.576Z" transform="translate(61.105 250.224)" fill="#ff0089" stroke="#212b69" stroke-width="1.5"/>
    <path id="Path_76767" data-name="Path 76767" d="M11.172,11.382a2.8,2.8,0,0,1-3.02-2.5v-2.5h6.04v2.5a2.8,2.8,0,0,1-3.019,2.5" transform="translate(59.899 250.189)" fill="#fff" stroke="#212a66" stroke-width="0.3"/>
    <path id="Path_76768" data-name="Path 76768" d="M8.351,6.576V8.843a2.571,2.571,0,0,0,2.786,2.268,2.57,2.57,0,0,0,2.785-2.268V6.576Z" transform="translate(59.934 250.224)" fill="#ff0089" stroke="#212b69" stroke-width="1.5"/>
    <path id="Path_76769" data-name="Path 76769" d="M4.582,11.382A2.8,2.8,0,0,1,1.56,8.88v-2.5H7.6v2.5a2.8,2.8,0,0,1-3.022,2.5" transform="translate(58.728 250.189)" fill="none" stroke="#212a66" stroke-width="0.3"/>
    <path id="Path_76771" data-name="Path 76771" d="M4.528,11.093A2.473,2.473,0,0,0,7.2,8.884V6.676H1.86V8.884a2.474,2.474,0,0,0,2.668,2.209" transform="translate(58.782 250.124)" fill="#ff0089" stroke="#212b69" stroke-width="1.5"/>
  </g>
</svg>
