<svg xmlns="http://www.w3.org/2000/svg" width="26.696" height="26.864" viewBox="0 0 26.696 26.864">
  <g id="Group_19663" data-name="Group 19663" transform="translate(0 0)">
    <g id="Group_19586" data-name="Group 19586" transform="translate(0 0)">
      <path id="Path_76786" data-name="Path 76786" d="M16.05,24.452a.624.624,0,0,0-.414-.422L13.349,23.3l-9.106-.009A2.285,2.285,0,0,1,1.96,21.011v-8.59h.048L2,12.221a1.614,1.614,0,0,1,.436-1.147L10.2,2.519a1.715,1.715,0,0,1,2.533,0L20.5,11.073a1.617,1.617,0,0,1,.436,1.147l-.006.2h.025v.639l.45.343a.652.652,0,0,0,.6.1l.912-.294V12.031H22.9a3.581,3.581,0,0,0-.925-2.268L14.208,1.208a3.712,3.712,0,0,0-5.48,0L.965,9.763A3.581,3.581,0,0,0,.04,12.031H0v8.98a4.247,4.247,0,0,0,4.243,4.243H16.281Z" transform="translate(0 0)" fill="#fff"/>
      <path id="Path_76787" data-name="Path 76787" d="M30.312,26.164l-2.046-2.822a.4.4,0,0,1-.051-.377l1.221-3.3a.787.787,0,0,0-.169-.825.8.8,0,0,0-.834-.206l-3.382,1.093a.421.421,0,0,1-.386-.063l-2.785-2.116a.818.818,0,0,0-1.309.639l-.044,3.5a.422.422,0,0,1-.188.343L17.4,24.019a.8.8,0,0,0-.35.784.787.787,0,0,0,.545.641l3.355,1.068a.4.4,0,0,1,.266.272l.967,3.349a.79.79,0,0,0,.623.56.814.814,0,0,0,.805-.317l2.118-2.837a.486.486,0,0,1,.357-.174l3.539.076A.849.849,0,0,0,30.371,27a.789.789,0,0,0-.058-.836" transform="translate(-3.768 -3.843)" fill="#ff0089"/>
    </g>
  </g>
</svg>
