<svg xmlns="http://www.w3.org/2000/svg" xmlns:xlink="http://www.w3.org/1999/xlink" width="23.926" height="21" viewBox="0 0 23.926 21">
  <defs>
    <clipPath id="clip-path">
      <rect id="Rectangle_13926" data-name="Rectangle 13926" width="23.926" height="21" fill="#a6a7d2" stroke="#1f2861" stroke-width="0.5"/>
    </clipPath>
  </defs>
  <g id="Group_19651" data-name="Group 19651" transform="translate(0 0)">
    <g id="Group_19650" data-name="Group 19650" transform="translate(0 0)" clip-path="url(#clip-path)">
      <path id="Path_76855" data-name="Path 76855" d="M1.844,15.657V15.2q0-6.793,0-13.585c0-.25-.008-.5.012-.747A.873.873,0,0,1,2.685.026,10.394,10.394,0,0,1,3.979.014a.935.935,0,0,1,.847.878c.013.227,0,.454,0,.681q0,6.96,0,13.919c0,.149.047.173.18.169.315-.01.631,0,.947,0a.583.583,0,0,1,.6.265.8.8,0,0,1,.025.837c-.156.253-.343.489-.516.732q-1.152,1.616-2.3,3.23c-.252.353-.584.336-.858-.047-.451-.629-.9-1.262-1.351-1.89S.638,17.529.18,16.905a.861.861,0,0,1-.12-.848.574.574,0,0,1,.6-.4c.387,0,.774,0,1.18,0" transform="translate(0 0)" fill="#a6a7d2" stroke="#1f2861" stroke-width="0.5"/>
      <path id="Path_76856" data-name="Path 76856" d="M16.354,2.656H9.629A1.036,1.036,0,0,1,8.49,1.509,4.815,4.815,0,0,1,8.517.864.98.98,0,0,1,9.381.028a2.813,2.813,0,0,1,.348-.02q6.659,0,13.319,0a1.587,1.587,0,0,1,.612.108.981.981,0,0,1,.6.9c.013.21,0,.42,0,.632a.983.983,0,0,1-.852.973,6.921,6.921,0,0,1-.811.031q-3.122,0-6.244,0Z" transform="translate(-0.339 0)" fill="#a6a7d2" stroke="#1f2861" stroke-width="0.5"/>
      <path id="Path_76857" data-name="Path 76857" d="M15.125,9.027c-1.849,0-3.7,0-5.547,0a1.028,1.028,0,0,1-1.088-1.1,5.555,5.555,0,0,1,.02-.58,1.021,1.021,0,0,1,.937-.958,2.58,2.58,0,0,1,.3-.013H20.557a1.144,1.144,0,0,1,1,.421,1.063,1.063,0,0,1,.2.619c.007.171,0,.343,0,.515a1.038,1.038,0,0,1-1.107,1.1q-2.54,0-5.082,0h-.448Z" transform="translate(-0.339 -0.254)" fill="#a6a7d2" stroke="#1f2861" stroke-width="0.5"/>
      <path id="Path_76858" data-name="Path 76858" d="M13.682,12.74c1.333,0,2.666,0,4,0a1.75,1.75,0,0,1,.443.052.993.993,0,0,1,.723.93,6.8,6.8,0,0,1,0,.713.992.992,0,0,1-.857.934,2.7,2.7,0,0,1-.364.024q-3.926,0-7.851,0a2.151,2.151,0,0,1-.527-.045.941.941,0,0,1-.728-.815,3.393,3.393,0,0,1-.02-.826,1.01,1.01,0,0,1,1.08-.966c1.366,0,2.733,0,4.1,0Z" transform="translate(-0.339 -0.509)" fill="#a6a7d2" stroke="#1f2861" stroke-width="0.5"/>
      <path id="Path_76859" data-name="Path 76859" d="M12.2,19.111c.847,0,1.694-.006,2.539,0a1.051,1.051,0,0,1,1.15,1.173,4.094,4.094,0,0,1-.025.6,1.006,1.006,0,0,1-1.006.88c-1.748,0-3.5,0-5.246,0a1.055,1.055,0,0,1-1.124-1.151c0-.138,0-.276,0-.415A1.015,1.015,0,0,1,9.544,19.12c.885-.013,1.77,0,2.655,0v0" transform="translate(-0.339 -0.763)" fill="#a6a7d2" stroke="#1f2861" stroke-width="0.5"/>
    </g>
  </g>
</svg>
