<svg xmlns="http://www.w3.org/2000/svg" width="25.788" height="25.95" viewBox="0 0 25.788 25.95">
  <g id="Group_19663" data-name="Group 19663" transform="translate(0 0)">
    <g id="Group_19586" data-name="Group 19586" transform="translate(0 0)">
      <path id="Path_76786" data-name="Path 76786" d="M15.5,23.62a.6.6,0,0,0-.4-.408l-2.209-.7L4.1,22.5a2.207,2.207,0,0,1-2.2-2.2V12H1.94l-.005-.193A1.559,1.559,0,0,1,2.356,10.7l7.5-8.264a1.657,1.657,0,0,1,2.447,0L19.8,10.7a1.562,1.562,0,0,1,.421,1.108L20.215,12h.024v.617l.435.331a.63.63,0,0,0,.578.095l.881-.284V11.622h-.016a3.459,3.459,0,0,0-.894-2.191l-7.5-8.264a3.585,3.585,0,0,0-5.294,0L.932,9.431a3.459,3.459,0,0,0-.894,2.191H0V20.3a4.1,4.1,0,0,0,4.1,4.1H15.727Z" fill="#fff"/>
      <path id="Path_76787" data-name="Path 76787" d="M29.861,25.865l-1.977-2.726a.388.388,0,0,1-.049-.364l1.18-3.19a.76.76,0,0,0-.163-.8.776.776,0,0,0-.806-.2l-3.267,1.056a.407.407,0,0,1-.373-.061l-2.69-2.044a.791.791,0,0,0-1.264.617l-.042,3.378a.407.407,0,0,1-.181.332l-2.843,1.926a.777.777,0,0,0-.338.758.76.76,0,0,0,.527.619L20.816,26.2a.388.388,0,0,1,.257.263l.934,3.235a.764.764,0,0,0,.6.541.786.786,0,0,0,.778-.306l2.046-2.741a.469.469,0,0,1,.345-.169L29.2,27.1a.82.82,0,0,0,.721-.426.762.762,0,0,0-.056-.807" transform="translate(-4.219 -4.303)" fill="#ff0089"/>
    </g>
  </g>
</svg>
