<svg xmlns="http://www.w3.org/2000/svg" width="33.026" height="29.638" viewBox="0 0 33.026 29.638">
  <g id="Group_18413" data-name="Group 18413" transform="translate(0 -0.731)">
    <g id="Group_17332" data-name="Group 17332" transform="translate(0 0.731)">
      <g id="Group_17333" data-name="Group 17333" transform="translate(0 0)">
        <path id="Subtraction_48" data-name="Subtraction 48" d="M8.669,12.411a.7.7,0,0,1-.5-.235c-.1-.108-.208-.224-.326-.356l-.027-.03c-.132-.146-.268-.3-.408-.437a.366.366,0,0,0-.224-.077c-.234-.006-.469-.008-.718-.008-.229,0-.462,0-.713.007a.333.333,0,0,0-.205.071c-.154.153-.3.316-.448.474l-.011.011,0,0c-.08.088-.172.188-.261.283a.762.762,0,0,1-.551.285.83.83,0,0,1-.486-.187L1.765,10.746a.729.729,0,0,1-.242-1.116L2.306,8.26l-.434-.367,0,0-.2-.22.143-.077-.152.034c-.03-.135-.067-.3-.117-.464a.322.322,0,0,0-.13-.17c-.212-.109-.438-.211-.637-.3L.457,6.547a.691.691,0,0,1-.41-.911C.347,4.709.61,3.9.877,3.1a.66.66,0,0,1,.655-.5.989.989,0,0,1,.184.018l.3.06h0l.03.006.087.018c.228.048.433.091.635.126h.015a.3.3,0,0,0,.154-.054c.465-.329.854-.612,1.222-.893a.373.373,0,0,0,.134-.2c.046-.265.075-.549.1-.777l.014-.14A.735.735,0,0,1,5.254,0c.724.006,1.435.008,2.1.01h.4a.694.694,0,0,1,.794.7c.052.421.083.709.107.993.006.085.036.128.131.194.444.308.836.594,1.2.874a.278.278,0,0,0,.176.076.3.3,0,0,0,.066-.009c.384-.088.766-.158,1.02-.2a1.07,1.07,0,0,1,.189-.018.666.666,0,0,1,.663.53c.248.762.513,1.582.78,2.419a.717.717,0,0,1-.456,1.028l-.268.122h0c-.2.089-.4.181-.6.267a.245.245,0,0,0-.156.2c-.121.42-.27.867-.454,1.368a.25.25,0,0,0,.009.252c.179.3.349.613.512.912a.692.692,0,0,1-.2.986c-.689.5-1.417,1.029-2.163,1.564A.721.721,0,0,1,8.669,12.411ZM6.475,4.16a2.162,2.162,0,0,0,0,4.324h.01a2.15,2.15,0,0,0,1.531-.646,2.12,2.12,0,0,0,.619-1.517A2.182,2.182,0,0,0,8,4.791,2.124,2.124,0,0,0,6.481,4.16Z" transform="translate(19.582 14.972)" fill="#ff0089" stroke="rgba(0,0,0,0)" stroke-width="1"/>
        <path id="Path_65231" data-name="Path 65231" d="M2.379,1.384C-.595,3.778-.81,8.463,1.9,11.828l5.7,7.078,10.785-8.683-5.7-7.078C9.976-.22,5.353-1.01,2.379,1.384M7.713,16.4l-4.52-5.614C1.134,8.229,1.3,4.668,3.558,2.849S9.331,1.63,11.39,4.187L15.91,9.8Z" transform="translate(0)" fill="#fff"/>
        <path id="Path_65233" data-name="Path 65233" d="M26.276,34.191a5.788,5.788,0,0,1-6.252-2.03l-4.406-5.472,8.2-6.6,1.955,2.429,1.3-1.036L23.96,17.62,13.175,26.3l5.556,6.9A7.545,7.545,0,0,0,27.416,35.7Z" transform="translate(-4.919 -6.578)" fill="#fff"/>
      </g>
    </g>
  </g>
</svg>
