<svg xmlns="http://www.w3.org/2000/svg" width="25.073" height="23.59" viewBox="0 0 25.073 23.59">
  <g id="Group_19647" data-name="Group 19647" transform="translate(0.115 0.101)">
    <path id="Path_39861" data-name="Path 39861" d="M95.546,340.643h0Z" transform="translate(-89.526 -317.254)" fill="#a6a8d1" stroke="#1f2861" stroke-width="0.2"/>
    <g id="Group_7313" data-name="Group 7313" transform="translate(0 0)">
      <g id="Group_7315" data-name="Group 7315">
        <path id="Path_39862" data-name="Path 39862" d="M16.824,4.746q-3.531,0-7.062,0a.133.133,0,0,0-.151.111,3.713,3.713,0,0,1-.787,1.366,3.357,3.357,0,0,1-1.683.994A3.277,3.277,0,0,1,3.5,5.372c-.087-.178-.154-.368-.224-.554a.1.1,0,0,0-.1-.076c-.693,0-1.386.006-2.078,0a1.044,1.044,0,0,1-.952-.7A1.182,1.182,0,0,1,.357,2.875a.918.918,0,0,1,.676-.318c.706-.005,1.412,0,2.118,0a.115.115,0,0,0,.13-.1A3.454,3.454,0,0,1,5.444.177,2.961,2.961,0,0,1,7.418.162a3.432,3.432,0,0,1,2.2,2.324c.017.051.038.071.09.071l5.5,0q4.307,0,8.613,0a1,1,0,0,1,.944.545,1.113,1.113,0,0,1-.532,1.582,1.091,1.091,0,0,1-.393.066q-3.511.006-7.023,0M6.44,2.188A1.426,1.426,0,0,0,5.1,3.63,1.43,1.43,0,0,0,6.482,5.109,1.43,1.43,0,0,0,7.794,3.639,1.405,1.405,0,0,0,6.44,2.188" transform="translate(-0.067 0)" fill="#a6a8d1" stroke="#1f2861" stroke-width="0.2"/>
        <path id="Path_39863" data-name="Path 39863" d="M16.822,238.613H9.784c-.171,0-.171,0-.234.174A3.556,3.556,0,0,1,7.868,240.8a3.042,3.042,0,0,1-1.358.346,3.078,3.078,0,0,1-1.93-.582A3.6,3.6,0,0,1,3.23,238.68c-.018-.057-.04-.072-.094-.072q-1.027.005-2.055.005a1.049,1.049,0,0,1-1.027-.867,1.081,1.081,0,0,1,.864-1.313,2.013,2.013,0,0,1,.212-.012c.669,0,1.338,0,2.008,0,.067,0,.084-.036.1-.09a3.458,3.458,0,0,1,1.731-2.1,3.029,3.029,0,0,1,3.327.278,3.474,3.474,0,0,1,1.275,1.815c.028.084.063.112.141.1a1.426,1.426,0,0,1,.2-.006q6.94,0,13.88,0a1,1,0,0,1,.919.518,1.115,1.115,0,0,1-.5,1.6,1.071,1.071,0,0,1-.391.073q-3.5.006-7.007,0m-10.405.365a1.465,1.465,0,0,0-.007-2.918,1.463,1.463,0,0,0,.007,2.918" transform="translate(-0.027 -217.804)" fill="#a6a8d1" stroke="#1f2861" stroke-width="0.2"/>
        <path id="Path_39864" data-name="Path 39864" d="M8.106,119.467q3.535,0,7.071,0c.081,0,.108-.028.135-.108A3.394,3.394,0,0,1,17.4,117.12a3.068,3.068,0,0,1,3.443.858,3.4,3.4,0,0,1,.8,1.386c.026.083.06.105.138.1q1-.006,2.008,0a1.008,1.008,0,0,1,.981.664,1.093,1.093,0,0,1-.8,1.509c-.169.016-.34.016-.511.017-.559,0-1.118,0-1.677,0-.077,0-.111.021-.139.1a3.556,3.556,0,0,1-1.3,1.831,3,3,0,0,1-2.293.583,3.372,3.372,0,0,1-2.739-2.42c-.026-.073-.054-.1-.127-.1q-7.043,0-14.086,0a1.012,1.012,0,0,1-.876-.431A1.11,1.11,0,0,1,.1,120.1a.93.93,0,0,1,.8-.62,2.356,2.356,0,0,1,.259-.014H8.106m10.364,2.559a1.41,1.41,0,0,0,1.352-1.43,1.447,1.447,0,0,0-1.3-1.5,1.431,1.431,0,0,0-1.4,1.44,1.411,1.411,0,0,0,1.346,1.487" transform="translate(0 -108.88)" fill="#a6a8d1" stroke="#1f2861" stroke-width="0.2"/>
      </g>
    </g>
  </g>
</svg>
