<svg id="Group_32713" data-name="Group 32713" xmlns="http://www.w3.org/2000/svg" width="29.759" height="25.95" viewBox="0 0 29.759 25.95">
  <g id="Group_16374" data-name="Group 16374" transform="translate(0)">
    <path id="Path_64213" data-name="Path 64213" d="M36.864,34.389c.839.452,1.722.913,2.646,1.394l.291.152-.03-.179c-.187-1.126-.365-2.191-.563-3.252a1.172,1.172,0,0,1,.418-1.181c.8-.763,1.618-1.569,2.439-2.372l.02-.019-.221-.034c-.9-.141-1.755-.274-2.623-.364a1.879,1.879,0,0,1-1.853-1.342,13.373,13.373,0,0,0-.746-1.533c-.178-.363-.348-.7-.523-1.056l-.263.536c-.43.875-.858,1.747-1.307,2.611a1.373,1.373,0,0,1-.868.647c-.535.1-1.057.176-1.561.247l-.065.009c-.21.029-.419.058-.629.09-.359.054-.718.109-1.055.162l.152.166c.659.72,1.325,1.448,2,2.151a1.4,1.4,0,0,1,.468,1.5c-.121.522-.221,1.083-.3,1.658-.087.522-.169,1.028-.255,1.559l.178-.093c.966-.5,1.885-.982,2.8-1.479a1.3,1.3,0,0,1,.7-.2,1.364,1.364,0,0,1,.75.223" transform="translate(-12.326 -9.985)" fill="#ff0089"/>
    <path id="Path_64214" data-name="Path 64214" d="M18.42,24.252q-6.887,0-13.775,0A17.588,17.588,0,0,1,2.78,24.18a1.4,1.4,0,0,1-1.253-1.245,2.928,2.928,0,0,1-.039-.478q0-7.326,0-14.652V7.559H23.264c.261,0,.261,0,.261.262q0,2.141,0,4.281l1.471,1.2q-.009-3.136-.018-6.273a11.549,11.549,0,0,0-.04-1.369,3.009,3.009,0,0,0-2.595-2.517c-.448-.041-.9-.029-1.353-.031-.14,0-.185-.049-.183-.188q.008-.508-.006-1.016A1.972,1.972,0,0,0,19.275.044a1.862,1.862,0,0,0-2.123,1.508A9.33,9.33,0,0,0,17.081,2.9c0,.138-.039.185-.181.184-.7-.005-1.4,0-2.1,0-.118,0-.141-.051-.165-.154q-.2-.91-.426-1.816A1.406,1.406,0,0,0,13.738.4a1.7,1.7,0,0,0-2.422.247,2.454,2.454,0,0,0-.365.8c-.109.453-.157.922-.22,1.386-.019.145-.052.217-.223.214-.749-.01-1.5-.007-2.245,0-.128,0-.163-.039-.159-.163.011-.362.027-.725.011-1.086A1.909,1.909,0,0,0,6.415.018,1.847,1.847,0,0,0,4.491,1.587c-.066.457-.067.923-.094,1.385-.005.092-.009.159-.134.154-.345-.014-.69,0-1.033-.024A3.131,3.131,0,0,0,.1,5.39,5.506,5.506,0,0,0,0,6.823q0,7.922.005,15.844a2.965,2.965,0,0,0,.116.806,3.08,3.08,0,0,0,2.728,2.238c.419.035.843.03,1.264.03q4.161,0,8.324,0h5.646ZM17.884,1.524A.957.957,0,0,1,18.909.749a1.036,1.036,0,0,1,1.047.592,1.522,1.522,0,0,1,.14.6c.017.641.007,1.283.007,1.924h0c0,.648.011,1.3,0,1.942a1.134,1.134,0,0,1-1.08,1.17,1.172,1.172,0,0,1-1.2-1.22c-.005-.326,0-.653,0-.98,0-.879-.009-1.759,0-2.637a2.481,2.481,0,0,1,.074-.614m-6.413.422A1.136,1.136,0,0,1,13.119.828a1.124,1.124,0,0,1,.63,1.062q.032,1.969,0,3.938a1.147,1.147,0,0,1-1.91.86,1.13,1.13,0,0,1-.371-.892c-.007-.642,0-1.283,0-1.924s-.009-1.283,0-1.924m-6.356.136a1.365,1.365,0,0,1,.371-1.06A1.118,1.118,0,0,1,6.725.795a1.1,1.1,0,0,1,.688.979A14.368,14.368,0,0,1,7.422,4c-.011.611,0,1.222-.011,1.832a1.105,1.105,0,0,1-1.12,1.138,1.2,1.2,0,0,1-1.167-1.16c-.012-.653,0-1.306,0-1.96H5.115c0-.588,0-1.176,0-1.763" transform="translate(0 0)" fill="#fff"/>
  </g>
</svg>
