<svg xmlns="http://www.w3.org/2000/svg" width="30.215" height="27.076" viewBox="0 0 30.215 27.076">
  <g id="Group_18413" data-name="Group 18413" transform="translate(0 -0.731)">
    <g id="Group_17332" data-name="Group 17332" transform="translate(0 0.731)">
      <g id="Group_17333" data-name="Group 17333" transform="translate(0 0)">
        <path id="Subtraction_48" data-name="Subtraction 48" d="M7.919,11.338a.636.636,0,0,1-.458-.214c-.092-.1-.19-.2-.3-.325l-.024-.027c-.121-.134-.245-.27-.373-.4a.334.334,0,0,0-.205-.07c-.214-.005-.429-.008-.656-.008-.209,0-.422,0-.651.007a.3.3,0,0,0-.187.065c-.141.14-.277.289-.409.433l-.01.01,0,0c-.073.08-.157.172-.238.258a.7.7,0,0,1-.5.261.758.758,0,0,1-.444-.171L1.613,9.817A.666.666,0,0,1,1.391,8.8l.715-1.252-.4-.335,0,0-.183-.2.13-.07-.139.031c-.028-.124-.062-.277-.107-.424a.3.3,0,0,0-.119-.155C1.1,6.289.89,6.2.708,6.114L.417,5.981a.631.631,0,0,1-.375-.832C.317,4.3.558,3.566.8,2.833a.6.6,0,0,1,.6-.452.9.9,0,0,1,.168.017l.275.055h0l.028.006.08.016c.208.044.4.083.58.116h.014a.275.275,0,0,0,.141-.049c.425-.3.78-.559,1.116-.816a.341.341,0,0,0,.122-.182c.042-.242.068-.5.089-.71L4.027.707A.672.672,0,0,1,4.8,0c.662.006,1.311.008,1.919.009h.362a.634.634,0,0,1,.725.64c.048.385.076.648.1.907.006.077.033.117.12.177.406.281.763.542,1.093.8a.254.254,0,0,0,.161.07.27.27,0,0,0,.061-.008c.35-.08.7-.145.932-.186a.977.977,0,0,1,.173-.016.609.609,0,0,1,.606.484c.226.7.469,1.445.713,2.21a.655.655,0,0,1-.417.939l-.245.111h0c-.179.081-.364.166-.549.244a.224.224,0,0,0-.143.179c-.111.384-.247.792-.414,1.249a.228.228,0,0,0,.008.23c.164.278.318.56.468.833a.632.632,0,0,1-.186.9c-.63.459-1.295.94-1.976,1.429A.658.658,0,0,1,7.919,11.338Zm-2-7.538a1.975,1.975,0,0,0,0,3.95h.009a1.964,1.964,0,0,0,1.4-.59,1.937,1.937,0,0,0,.566-1.386,1.993,1.993,0,0,0-.582-1.4A1.94,1.94,0,0,0,5.92,3.8Z" transform="translate(17.889 13.678)" fill="#ff0089" stroke="rgba(0,0,0,0)" stroke-width="1"/>
        <path id="Path_65231" data-name="Path 65231" d="M2.173,1.265C-.543,3.452-.74,7.732,1.735,10.805L6.94,17.271l9.853-7.932L11.587,2.873C9.113-.2,4.89-.922,2.173,1.265M7.046,14.982,2.917,9.853C1.036,7.517,1.186,4.264,3.251,2.6s5.274-1.113,7.154,1.222l4.129,5.128Z" transform="translate(0 0)" fill="#fff"/>
        <path id="Path_65233" data-name="Path 65233" d="M25.144,32.758A5.288,5.288,0,0,1,19.432,30.9l-4.025-5L22.9,19.876l1.786,2.219,1.187-.946L23.028,17.62l-9.853,7.932,5.075,6.3a6.892,6.892,0,0,0,7.934,2.277Z" transform="translate(-5.632 -7.533)" fill="#fff"/>
      </g>
    </g>
  </g>
</svg>
