<svg xmlns="http://www.w3.org/2000/svg" width="29.515" height="28.836" viewBox="0 0 29.515 28.836">
  <g id="Group_19681" data-name="Group 19681" transform="translate(480.714 -7906.037)">
    <g id="Group_18427" data-name="Group 18427" transform="translate(-480.714 7906.037)">
      <g id="Group_17341" data-name="Group 17341" transform="translate(0 0)">
        <g id="Group_16371" data-name="Group 16371" transform="translate(0 0)">
          <g id="Group_16372" data-name="Group 16372" transform="translate(0 0)">
            <path id="Path_64204" data-name="Path 64204" d="M9.072,24.839l9.716,0v-3.43q0-2.788,0-5.573H9.072q0,4.5,0,9" transform="translate(-5.115 -7.465)" fill="#ff0089"/>
            <path id="Path_64206" data-name="Path 64206" d="M28.716,2.359a.868.868,0,0,0-.94.8c-.018.259-.016.52-.015.773V21.022c0,.221,0,.442,0,.662,0,.634.006,1.29-.02,1.933a3.381,3.381,0,0,1-.884,2.148,3.761,3.761,0,0,1-2.981,1.321q-9.1,0-18.205,0A3.811,3.811,0,0,1,3.8,26.667,3.718,3.718,0,0,1,1.913,24.4a5.834,5.834,0,0,1-.156-1.656V1.988c0-.1,0-.2,0-.218a1.01,1.01,0,0,1,.22-.011H23.451c.034,0,.072,0,.11-.005a1.513,1.513,0,0,1,.163-.006.585.585,0,0,1,0,.173c0,.039-.005.077-.005.111v18.9a2.094,2.094,0,0,0,.029.412.85.85,0,0,0,.12.3.86.86,0,0,0,1.192.253,1,1,0,0,0,.42-.936V8.247q0-3.589.006-7.168a.9.9,0,0,0,0-.149A1,1,0,0,0,24.431,0q-4.44.014-8.881.008H.964A1.14,1.14,0,0,0,.718.026.912.912,0,0,0,0,.979V23.2a5.893,5.893,0,0,0,.408,2.18,5.519,5.519,0,0,0,5.061,3.458H24.2a1.891,1.891,0,0,0,.192-.008,5.482,5.482,0,0,0,4.131-2.374,5.633,5.633,0,0,0,.992-3.37V3.259a.87.87,0,0,0-.8-.9" transform="translate(-0.001 0)" fill="#fff"/>
            <path id="Path_64207" data-name="Path 64207" d="M6.391,33.074a3.417,3.417,0,0,0,.367.02H22.676a3.556,3.556,0,0,0,.379-.022.872.872,0,0,0,.007-1.738,3.225,3.225,0,0,0-.37-.016h-16a2.346,2.346,0,0,0-.3.016.915.915,0,0,0-.8.867.9.9,0,0,0,.8.872" transform="translate(-2.052 -11.493)" fill="#fff"/>
            <path id="Path_64208" data-name="Path 64208" d="M22.824,6.907H6.873c-.147,0-.294,0-.444.008a.927.927,0,0,0-.809.665.87.87,0,0,0,.346.918,1.151,1.151,0,0,0,.625.189c.032,0,.064,0,.1,0h16.04a2.7,2.7,0,0,0,.39-.026.864.864,0,0,0,.587-1.338.974.974,0,0,0-.881-.411" transform="translate(-2.054 -2.533)" fill="#fff"/>
            <path id="Path_64209" data-name="Path 64209" d="M10.547,39.212a3.823,3.823,0,0,0,.383.018H24.188c.128,0,.256-.007.384-.02a.9.9,0,0,0,.8-.792.884.884,0,0,0-.689-.922,2.228,2.228,0,0,0-.477-.04H10.869a2.433,2.433,0,0,0-.332.016.918.918,0,0,0-.808.883.905.905,0,0,0,.818.858" transform="translate(-3.571 -13.745)" fill="#fff"/>
            <path id="Path_64210" data-name="Path 64210" d="M30.914,14.262a.891.891,0,0,0-.965-.783H27.48v0H25.463c-.3,0-.61,0-.917.019a.892.892,0,0,0-.821.863.911.911,0,0,0,.823.877c.132.013.266.02.4.02h4.943a1.974,1.974,0,0,0,.32-.027.9.9,0,0,0,.708-.931Z" transform="translate(-8.707 -4.945)" fill="#fff"/>
            <path id="Path_64211" data-name="Path 64211" d="M29.98,18.9H24.855a3.074,3.074,0,0,0-.378.023.914.914,0,0,0-.736.723.9.9,0,0,0-.009.108.882.882,0,0,0,.864.9c.635.009,1.272.008,1.908.005l2.441.01h.278c.3,0,.6,0,.9-.015a.892.892,0,0,0,.793-.977.874.874,0,0,0-.937-.779M27.314,20.53h0v0Z" transform="translate(-8.709 -6.934)" fill="#fff"/>
            <path id="Path_64212" data-name="Path 64212" d="M30.917,25.54a.876.876,0,0,0-.864-.888c-.6,0-1.207,0-1.81,0h-.831l0,0H25.077c-.168,0-.337,0-.506.009a.928.928,0,0,0-.825.665.837.837,0,0,0,.449.962,1.4,1.4,0,0,0,.589.13h.011q1.248.007,2.494.006h2.577a1.916,1.916,0,0,0,.318-.027.875.875,0,0,0,.733-.851" transform="translate(-8.705 -9.045)" fill="#fff"/>
          </g>
        </g>
      </g>
    </g>
  </g>
</svg>
