<svg xmlns="http://www.w3.org/2000/svg" width="29.949" height="44.547" viewBox="0 0 29.949 44.547">
  <g id="Group_19682" data-name="Group 19682" transform="translate(0.101 0.1)">
    <g id="Group_17347" data-name="Group 17347" transform="translate(0 0)">
      <g id="Group_16380" data-name="Group 16380" transform="translate(0)">
        <path id="Path_64218" data-name="Path 64218" d="M17.016,34.52a2.168,2.168,0,1,0-2.207-2.168,2.19,2.19,0,0,0,2.207,2.168" transform="translate(-2.309 -4.706)" fill="#ff0089"/>
        <path id="Path_64219" data-name="Path 64219" d="M16.549,36.585a4.7,4.7,0,1,1,4.74-4.7,4.725,4.725,0,0,1-4.74,4.7m0-7.712A3.012,3.012,0,1,0,19.6,31.884a3.035,3.035,0,0,0-3.051-3.011" transform="translate(-1.841 -4.238)" fill="#fff" stroke="#1a2256" stroke-width="0.2"/>
        <path id="Path_64220" data-name="Path 64220" d="M10.806,43.885l0,4.307H21.975V43.945a2.954,2.954,0,0,0-.89-2.131,3.067,3.067,0,0,0-1.964-.9c-.09.072-.234.2-.462.411a3.36,3.36,0,0,1-4.511.017c-.241-.222-.393-.352-.486-.428a3.07,3.07,0,0,0-2.856,2.972" transform="translate(-1.685 -6.378)" fill="#ff0089"/>
        <path id="Path_64221" data-name="Path 64221" d="M22.433,50.256H9.412A1.609,1.609,0,0,1,7.8,48.648V43.475a5.608,5.608,0,0,1,5.63-5.573c.685,0,1.144.354,1.958,1.1A.814.814,0,0,0,16.468,39c.7-.66,1.222-1.1,1.95-1.1a5.584,5.584,0,0,1,3.976,1.638,5.455,5.455,0,0,1,1.646,3.934v5.174a1.609,1.609,0,0,1-1.607,1.607M9.5,48.567H22.352V43.476a3.789,3.789,0,0,0-1.144-2.734,3.914,3.914,0,0,0-2.79-1.151,3.115,3.115,0,0,0-.8.649,2.506,2.506,0,0,1-3.362.01,3.777,3.777,0,0,0-.817-.66,3.919,3.919,0,0,0-3.941,3.885Z" transform="translate(-1.217 -5.909)" fill="#fff" stroke="#1a2256" stroke-width="0.2"/>
        <path id="Path_64222" data-name="Path 64222" d="M26.934,19.355a.84.84,0,0,0-.826-.713H23.479V14.576a5.634,5.634,0,0,0-5.628-5.627H16.339a4.6,4.6,0,1,0-2.931,0H11.9a5.633,5.633,0,0,0-5.627,5.627v4.066H3.639a.841.841,0,0,0-.826.713L.008,38.432a.836.836,0,0,0,.826.956H5.072V37.719H1.8L4.359,20.311H25.387l2.558,17.408h-3.6v1.669h4.568a.838.838,0,0,0,.826-.956ZM12.551,17.939l.23.7H10.734V15.426a.835.835,0,0,0-1.67,0v3.216H7.937V14.576A3.963,3.963,0,0,1,11.9,10.618h.938l.285,1.361-.6,5.613a.853.853,0,0,0,.037.347M11.946,4.6a2.927,2.927,0,1,1,2.927,2.928A2.93,2.93,0,0,1,11.946,4.6m3.262,6.023-.1.484h-.468l-.1-.484Zm0,8.024h-.672l-.344-1.052.519-4.82h.322l.517,4.82Zm6.6,0H20.682V15.426a.834.834,0,0,0-1.669,0v3.216H16.965l.229-.7a.83.83,0,0,0,.038-.349l-.6-5.612.285-1.36h.938a3.963,3.963,0,0,1,3.958,3.958Z" transform="translate(0)" fill="#fff" stroke="#1a2256" stroke-width="0.2"/>
      </g>
    </g>
  </g>
</svg>
