<svg xmlns="http://www.w3.org/2000/svg" width="30.107" height="30.092" viewBox="0 0 30.107 30.092">
  <g id="Group_19680" data-name="Group 19680" transform="translate(0.1 0.1)">
    <g id="Group_17348" data-name="Group 17348" transform="translate(0 0)">
      <g id="Group_17344" data-name="Group 17344" transform="translate(0 0)">
        <g id="Group_16362" data-name="Group 16362">
          <path id="Path_64183" data-name="Path 64183" d="M6.334,33.253a2.75,2.75,0,0,0-2.683,2.8A2.766,2.766,0,0,0,6.4,38.758c2.669.014,5.361.011,7.964.008H27.913a5.377,5.377,0,0,1,.016-5.513c-6.02-.011-13.8-.02-21.595,0" transform="translate(-1.241 -11.301)" fill="#ff0089"/>
          <path id="Path_64184" data-name="Path 64184" d="M28.406,39.953c-.094,0-.187,0-.275-.01s-.134-.009-.185-.009H13.128c-2.609,0-5.305.006-7.959-.009H5.155A5.181,5.181,0,0,1,0,34.852,5.161,5.161,0,0,1,5.073,29.6c8.1-.02,16.278-.011,23.217,0a1.6,1.6,0,0,1,1.5.919l.024.106a2.121,2.121,0,0,1-.161,1.209l-.024.068a1.655,1.655,0,0,1-.407.609l0,0a.361.361,0,0,1-.032.042,3.326,3.326,0,0,0,.092,4.572l-1.2.932a4.809,4.809,0,0,1-.1-6.425c.061-.078.11-.135.161-.189l.114-.215a.727.727,0,0,0,.038-.1l-.02,0c-6.935-.013-15.117-.023-23.2,0a3.644,3.644,0,0,0-3.57,3.705,3.659,3.659,0,0,0,3.643,3.582h.011c2.654.015,5.346.011,7.955.008H27.935a2.362,2.362,0,0,1,.3.013l.1,0a2.427,2.427,0,0,0-.24-.37l1.2-.933a2.252,2.252,0,0,1,.583,1.764,1.355,1.355,0,0,1-1.467,1.059" transform="translate(0 -10.06)" fill="#fff" stroke="#1a2256" stroke-width="0.2"/>
          <path id="Path_64185" data-name="Path 64185" d="M28.362,11.149v0A4.412,4.412,0,0,0,25.21,9.831c-2.9-.013-5.856-.01-8.712-.008H12.307V8.838H28.3c.043,0,.087,0,.132.007a.878.878,0,0,0,.342-.02c.044-.015.092-.028.141-.043.264-.078.535-.158.607-.35a1.167,1.167,0,0,0-.181-.874,2.559,2.559,0,0,0-.33-.462,3.366,3.366,0,0,1-.233-.3,3.557,3.557,0,0,1-.616-3.385,7.757,7.757,0,0,1,.69-1.276c.163-.264.33-.531.477-.808.071-.132.292-.594.156-.886-.122-.252-.558-.376-.8-.411a5.076,5.076,0,0,0-.867-.023c-.119,0-.24.007-.358.007H21.347q-7.773,0-15.542,0a4.414,4.414,0,1,0-.412,8.819c.123.006.248.007.372,0h.456v.985h-1.4c-.884,0-1.8-.006-2.7.016-.238.006-.7.138-.781.38a1.416,1.416,0,0,0,.124.847l.023.066a.976.976,0,0,0,.225.325,1.724,1.724,0,0,1,.119.141,4.011,4.011,0,0,1-.09,5.41c-.042.054-.087.107-.132.16a2.912,2.912,0,0,0-.281.372.743.743,0,0,0-.082.709.739.739,0,0,0,.6.383,2.589,2.589,0,0,0,.423.015H19.549c.57,0,1.131,0,1.7,0,.547,0,1.1,0,1.66,0,.809,0,1.625,0,2.433-.017a4.406,4.406,0,0,0,3.025-7.489M3.348,6.393a2.807,2.807,0,0,1-.514-3.078A2.88,2.88,0,0,1,5.343,1.454a2.084,2.084,0,0,1,.24-.011H27.461c-1.228,2.6-1.228,2.97-.049,5.94H12.282v-2.6c0-.845-.209-1.051-1.042-1.056-1.179,0-2.58-.006-4.022,0-.733,0-.956.228-.961.961,0,.638,0,1.275,0,1.926l0,.005v.766a3.069,3.069,0,0,1-2.9-.99m7.585-1.329V12.5c-.4-.3-.761-.558-1.092-.849a.778.778,0,0,0-1.1-.061.673.673,0,0,0-.071.073c-.315.277-.66.522-1.056.831l0-7.425ZM27.8,15.721a2.834,2.834,0,0,1-2.586,1.5q-8.8.008-17.594,0H3.556c-.06,0-.12,0-.193-.01a5.307,5.307,0,0,0,.01-5.915h2.88c0,.187,0,.376,0,.564-.005.566-.01,1.152.017,1.729a1.824,1.824,0,0,0,.182.615c.036.085.073.17.1.255l.037.106.106-.042c.084-.03.172-.055.259-.081A1.934,1.934,0,0,0,7.54,14.2c.428-.3.833-.624,1.262-.965.15-.12.3-.242.462-.365l.439.347c.413.33.841.669,1.28.976.225.157.671.389.92.264s.352-.62.366-.888c.028-.564.023-1.141.018-1.7,0-.2,0-.392,0-.589l.022-.006a.545.545,0,0,1,.117-.023q1.768,0,3.536,0c3.067-.005,6.237-.011,9.355.014a2.876,2.876,0,0,1,2.5,1.482,2.948,2.948,0,0,1-.014,2.978" transform="translate(-0.403 -0.001)" fill="#fff" stroke="#1a2256" stroke-width="0.2"/>
          <path id="Path_64186" data-name="Path 64186" d="M14.3,15.271l-.178-.137c-.124-.1-.245-.186-.363-.275-.259-.194-.5-.377-.735-.58a.672.672,0,0,0-.948-.065.635.635,0,0,0-.075.077c-.218.191-.45.368-.7.556-.116.088-.237.18-.362.279l-.179.14V7.5H14.3Zm-1.778-1.443a.987.987,0,0,1,.648.286c.224.2.465.378.721.568l.188.141v-7.1H10.985v7.091l.186-.142c.243-.185.473-.36.684-.547a1.017,1.017,0,0,1,.667-.3" transform="translate(-3.659 -2.551)" fill="#1e2663"/>
        </g>
      </g>
    </g>
  </g>
</svg>
