<svg xmlns="http://www.w3.org/2000/svg" width="35.758" height="23.55" viewBox="0 0 35.758 23.55">
  <g id="Group_19674" data-name="Group 19674" transform="translate(0 0)">
    <g id="Group_19567" data-name="Group 19567" transform="translate(0 0)">
      <path id="Path_76752" data-name="Path 76752" d="M37.764,16H20.978a1.8,1.8,0,0,0-1.716,1.871v6.9a1.8,1.8,0,0,0,1.716,1.871H37.764A1.8,1.8,0,0,0,39.48,24.77v-6.9A1.8,1.8,0,0,0,37.764,16m-5.953,7.6H22.748v-1.52h9.063Zm4.183-3.04H22.748v-1.52H35.994Z" transform="translate(-3.722 -3.092)" fill="#ff0089"/>
      <path id="Path_76753" data-name="Path 76753" d="M18.5,0H1.716A1.8,1.8,0,0,0,0,1.871v6.9a1.8,1.8,0,0,0,1.716,1.871H18.5A1.8,1.8,0,0,0,20.218,8.77v-6.9A1.8,1.8,0,0,0,18.5,0M12.549,7.6H3.486V6.081h9.063Zm4.183-3.04H3.486V3.041H16.732Z" fill="#fff"/>
      <path id="Path_76754" data-name="Path 76754" d="M8.613,20.071V15.943H6.487v4.128a4.072,4.072,0,0,0,4.217,3.9h4.5V22H10.7a2.019,2.019,0,0,1-2.091-1.933" transform="translate(-1.254 -3.081)" fill="#fff"/>
      <path id="Path_76755" data-name="Path 76755" d="M34.452,5.5H27.813V7.462h6.639A2.019,2.019,0,0,1,36.542,9.4V12.2h2.126V9.4a4.071,4.071,0,0,0-4.216-3.9" transform="translate(-5.374 -1.062)" fill="#fff"/>
    </g>
  </g>
</svg>
