<svg xmlns="http://www.w3.org/2000/svg" width="43.576" height="25.866" viewBox="0 0 43.576 25.866">
  <g id="Group_19683" data-name="Group 19683" transform="translate(782.342 -7906.342)">
    <g id="Group_18426" data-name="Group 18426" transform="translate(-782.342 7906.342)">
      <g id="Group_17388" data-name="Group 17388" transform="translate(0 0)">
        <path id="Path_64191" data-name="Path 64191" d="M55.815,5.007l-6.261,5.329v6.422l6.261,5.329Z" transform="translate(-15.713 -1.16)" fill="#ff0089"/>
        <g id="Group_16366" data-name="Group 16366" transform="translate(0 0)">
          <g id="Group_16367" data-name="Group 16367">
            <path id="Path_64192" data-name="Path 64192" d="M55.1,24.383a3.273,3.273,0,0,1-2.045-.7l-6.895-5.457a2.847,2.847,0,0,1-1.111-2.236V8.419a2.846,2.846,0,0,1,1.111-2.235l6.9-5.459a3.294,3.294,0,0,1,2.046-.7h.01a3.251,3.251,0,0,1,2.226.864,2.809,2.809,0,0,1,.917,2.075V21.446a2.811,2.811,0,0,1-.756,1.911,3.219,3.219,0,0,1-2.151,1.017c-.083.006-.167.009-.25.009M55.11,2.176a.874.874,0,0,0-.544.187l-6.9,5.461a.757.757,0,0,0-.295.594v7.568a.758.758,0,0,0,.295.595l6.9,5.46a.89.89,0,0,0,.611.186.853.853,0,0,0,.571-.27.745.745,0,0,0,.2-.508V2.959a.749.749,0,0,0-.243-.554.864.864,0,0,0-.591-.229Z" transform="translate(-14.687 -0.023)" fill="#fff"/>
            <path id="Path_64193" data-name="Path 64193" d="M25.759,20.986h-14.4A5.363,5.363,0,0,1,6,15.63V5.357A5.363,5.363,0,0,1,11.357,0h14.4a5.362,5.362,0,0,1,5.356,5.357V15.63a5.362,5.362,0,0,1-5.356,5.357M11.357,1.72A3.641,3.641,0,0,0,7.72,5.357V15.63a3.641,3.641,0,0,0,3.636,3.636h14.4a3.64,3.64,0,0,0,3.636-3.636V5.357A3.64,3.64,0,0,0,25.759,1.72Z" transform="translate(-2.464 1.261)" fill="#fff"/>
            <path id="Path_64194" data-name="Path 64194" d="M22.193,30.483a5.778,5.778,0,0,1-1.738.267H7.721A5.8,5.8,0,0,1,1.93,24.959V19.75H0v5.209A7.729,7.729,0,0,0,7.721,32.68H20.455a7.686,7.686,0,0,0,1.738-.2Z" transform="translate(0 -6.814)" fill="#ff0089"/>
          </g>
        </g>
      </g>
    </g>
  </g>
</svg>
