<svg xmlns="http://www.w3.org/2000/svg" width="26.115" height="37.007" viewBox="0 0 26.115 37.007">
  <g id="Group_19682" data-name="Group 19682" transform="translate(0.101 0.1)">
    <g id="Group_17347" data-name="Group 17347" transform="translate(0 0)">
      <g id="Group_16380" data-name="Group 16380" transform="translate(0)">
        <path id="Path_64218" data-name="Path 64218" d="M16.641,33.783a1.8,1.8,0,1,0-1.832-1.8,1.818,1.818,0,0,0,1.832,1.8" transform="translate(-3.83 -9.038)" fill="#ff0089"/>
        <path id="Path_64219" data-name="Path 64219" d="M15.743,34.987a3.9,3.9,0,1,1,3.934-3.9,3.922,3.922,0,0,1-3.934,3.9m0-6.4a2.5,2.5,0,1,0,2.533,2.5,2.519,2.519,0,0,0-2.533-2.5" transform="translate(-2.934 -8.14)" fill="#fff" stroke="#1a2256" stroke-width="0.2"/>
        <path id="Path_64220" data-name="Path 64220" d="M10.806,43.38l0,3.575h9.268V43.429a2.452,2.452,0,0,0-.738-1.768,2.546,2.546,0,0,0-1.63-.748c-.075.06-.194.163-.383.341a2.789,2.789,0,0,1-3.744.014c-.2-.184-.326-.292-.4-.355a2.548,2.548,0,0,0-2.371,2.467" transform="translate(-2.634 -12.25)" fill="#ff0089"/>
        <path id="Path_64221" data-name="Path 64221" d="M21.049,48.155H9.26A1.4,1.4,0,0,1,7.8,46.821V42.527A4.884,4.884,0,0,1,12.9,37.9c.62,0,1.036.294,1.773.916a.788.788,0,0,0,.973,0,2.719,2.719,0,0,1,1.765-.911,5.3,5.3,0,0,1,3.6,1.36,4.349,4.349,0,0,1,1.49,3.265v4.294a1.4,1.4,0,0,1-1.455,1.334m-11.712-1.4H20.976V42.528a3.021,3.021,0,0,0-1.036-2.269,3.714,3.714,0,0,0-2.526-.956,2.809,2.809,0,0,0-.728.539,2.424,2.424,0,0,1-3.044.008,3.4,3.4,0,0,0-.74-.548,3.415,3.415,0,0,0-3.568,3.225Z" transform="translate(-2.337 -11.348)" fill="#fff" stroke="#1a2256" stroke-width="0.2"/>
        <path id="Path_64222" data-name="Path 64222" d="M23.463,16.064a.722.722,0,0,0-.719-.592H20.454V12.1a4.8,4.8,0,0,0-4.9-4.67H14.233a3.841,3.841,0,0,0,2.728-3.614,3.917,3.917,0,0,0-4-3.814,3.916,3.916,0,0,0-4,3.814A3.841,3.841,0,0,0,11.68,7.428H10.363a4.8,4.8,0,0,0-4.9,4.67v3.375H3.17a.722.722,0,0,0-.72.592L.007,31.9a.674.674,0,0,0,.17.553.74.74,0,0,0,.549.24H4.419V31.306H1.569L3.8,16.857H22.116l2.229,14.448H21.207v1.385h3.98a.739.739,0,0,0,.549-.24.673.673,0,0,0,.171-.553Zm-12.53-1.176.2.584H9.351V12.8a.728.728,0,0,0-1.455,0v2.669H6.915V12.1a3.373,3.373,0,0,1,3.448-3.285h.817l.249,1.129L10.9,14.6a.676.676,0,0,0,.032.288M10.407,3.814a2.553,2.553,0,0,1,5.1,0,2.553,2.553,0,0,1-5.1,0m2.842,5-.088.4h-.407l-.088-.4Zm0,6.66h-.585l-.3-.873.452-4H13.1l.451,4Zm5.75,0h-.982V12.8a.728.728,0,0,0-1.454,0v2.669H14.779l.2-.584a.658.658,0,0,0,.033-.289l-.526-4.658.249-1.129h.817A3.373,3.373,0,0,1,19,12.1Z" transform="translate(0)" fill="#fff" stroke="#1a2256" stroke-width="0.2"/>
      </g>
    </g>
  </g>
</svg>
