<svg xmlns="http://www.w3.org/2000/svg" width="27.513" height="27.688" viewBox="0 0 27.513 27.688">
  <g id="Group_19673" data-name="Group 19673" transform="translate(0.75 -3.145)">
    <g id="Group_19578" data-name="Group 19578" transform="translate(0 3.895)">
      <path id="Path_76772" data-name="Path 76772" d="M3.83,17.476H1.16C.519,17.476,0,17.16,0,16.77V.707C0,.316.519,0,1.16,0H3.83c.641,0,1.16.316,1.16.707V16.77c0,.391-.519.707-1.16.707" transform="translate(0 8.711)" fill="#fff" stroke="#1a2256" stroke-width="1.5"/>
      <path id="Subtraction_86" data-name="Subtraction 86" d="M.026,11.955v0L0,.514C0,.231.521,0,1.16,0H3.83c.64,0,1.16.231,1.16.514V10.7a5.752,5.752,0,0,0-1.273-.142,5.389,5.389,0,0,0-3.69,1.4Z" transform="translate(17.465 0)" fill="#fff" stroke="#1a2256" stroke-width="1.5"/>
      <path id="Path_76773" data-name="Path 76773" d="M10.83,26.81H8.16A1.143,1.143,0,0,1,7,25.684V6.127A1.143,1.143,0,0,1,8.16,5h2.67a1.143,1.143,0,0,1,1.16,1.127V25.684a1.143,1.143,0,0,1-1.16,1.127" transform="translate(1.733 -0.622)" fill="#fff" stroke="#1a2256" stroke-width="1.5"/>
      <g id="Group_19579" data-name="Group 19579" transform="translate(16.822 11.886)">
        <path id="Path_76774" data-name="Path 76774" d="M19.941,22.408h-2.7a.41.41,0,1,0,0,.82h.18l-.009.1a.443.443,0,0,0,.329.428l.09.026-.036.082a.283.283,0,0,0-.022.11.3.3,0,0,0,.307.292H19.1a.3.3,0,0,0,.307-.292.283.283,0,0,0-.022-.11l-.036-.082.09-.026a.441.441,0,0,0,.329-.419l-.006-.114h.177a.41.41,0,1,0,0-.82" transform="translate(-13.872 -10.01)" fill="#fff" stroke="#1a2256" stroke-width="1"/>
        <path id="Path_76775" data-name="Path 76775" d="M19.175,13a4.726,4.726,0,0,0-4.721,4.721,4.66,4.66,0,0,0,1.01,2.91c.136.173.286.346.417.5A4.778,4.778,0,0,1,17,22.874a2.885,2.885,0,0,1,.046.666v.367a.525.525,0,0,0,.524.524h3.185a.525.525,0,0,0,.524-.524v-.372a2.817,2.817,0,0,1,.045-.616,5.308,5.308,0,0,1,1.17-1.816l.02-.024c.136-.16.258-.3.372-.447a4.663,4.663,0,0,0,1.01-2.912A4.726,4.726,0,0,0,19.175,13m2.68,5.366a.338.338,0,0,1-.4.256.334.334,0,0,1-.256-.4,2.029,2.029,0,0,0-1.534-2.4.326.326,0,0,1-.208-.147.334.334,0,0,1,.281-.513.29.29,0,0,1,.074.009,2.7,2.7,0,0,1,2.041,3.194" transform="translate(-14.454 -13)" fill="#ff0089" stroke="#1a2256" stroke-width="1"/>
      </g>
      <path id="Path_76776" data-name="Path 76776" d="M18.01,14.363v-.309c-.011.025-.036.04-.042.069a.387.387,0,0,0,.042.241" transform="translate(4.446 0.974)" stroke="#1a2256" stroke-width="1"/>
    </g>
  </g>
</svg>
