<svg id="Group_19633" data-name="Group 19633" xmlns="http://www.w3.org/2000/svg" width="28" height="30" viewBox="0 0 15.554 15.556">
  <path id="Path_76848" data-name="Path 76848" d="M15.136,6.765h0L8.789.419a1.432,1.432,0,0,0-2.025,0L.422,6.761l-.006.007a1.431,1.431,0,0,0,.953,2.44l.044,0h.253v4.67a1.678,1.678,0,0,0,1.676,1.676H5.824A.456.456,0,0,0,6.28,15.1V11.438a.766.766,0,0,1,.765-.765H8.509a.766.766,0,0,1,.765.765V15.1a.456.456,0,0,0,.456.456h2.483a1.678,1.678,0,0,0,1.676-1.676V9.209h.235a1.432,1.432,0,0,0,1.014-2.444m-.645,1.38a.517.517,0,0,1-.368.153h-.69a.456.456,0,0,0-.456.456v5.125a.765.765,0,0,1-.765.765H10.185V11.438A1.678,1.678,0,0,0,8.509,9.762H7.044a1.678,1.678,0,0,0-1.676,1.676v3.205H3.341a.765.765,0,0,1-.765-.765V8.753A.456.456,0,0,0,2.121,8.3h-.7a.52.52,0,0,1-.359-.888h0L7.408,1.063a.52.52,0,0,1,.736,0l6.344,6.344,0,0a.522.522,0,0,1,0,.735" transform="translate(0.001 0.001)" fill="#a6a7d2"/>
</svg>
