<svg xmlns="http://www.w3.org/2000/svg" width="25.913" height="25.317" viewBox="0 0 25.913 25.317">
  <g id="Group_19681" data-name="Group 19681" transform="translate(480.714 -7906.037)">
    <g id="Group_18427" data-name="Group 18427" transform="translate(-480.714 7906.037)">
      <g id="Group_17341" data-name="Group 17341" transform="translate(0 0)">
        <g id="Group_16371" data-name="Group 16371" transform="translate(0 0)">
          <g id="Group_16372" data-name="Group 16372">
            <path id="Path_64204" data-name="Path 64204" d="M9.072,23.74l8.531,0V20.727q0-2.448,0-4.893H9.072q0,3.954,0,7.905" transform="translate(-5.598 -8.487)" fill="#ff0089"/>
            <path id="Path_64206" data-name="Path 64206" d="M25.212,2.072a.762.762,0,0,0-.825.7c-.016.227-.014.457-.013.679V18.457c0,.194,0,.388,0,.581,0,.557.005,1.133-.017,1.7a2.969,2.969,0,0,1-.776,1.886,3.3,3.3,0,0,1-2.617,1.159q-7.988,0-15.984,0a3.346,3.346,0,0,1-1.649-.368A3.264,3.264,0,0,1,1.68,21.425a5.122,5.122,0,0,1-.137-1.454V1.746c0-.088,0-.18,0-.192a.887.887,0,0,1,.193-.01H20.589c.03,0,.063,0,.1,0a1.328,1.328,0,0,1,.143-.005.514.514,0,0,1,0,.152c0,.034,0,.067,0,.1V18.376a1.838,1.838,0,0,0,.026.362.746.746,0,0,0,.106.26.755.755,0,0,0,1.047.222.88.88,0,0,0,.369-.822V7.24q0-3.151.005-6.293a.794.794,0,0,0,0-.131A.875.875,0,0,0,21.45,0q-3.9.013-7.8.007H.846A1,1,0,0,0,.631.023.8.8,0,0,0,0,.859V20.367a5.174,5.174,0,0,0,.358,1.914,4.846,4.846,0,0,0,4.444,3.036H21.246a1.661,1.661,0,0,0,.168-.007,4.813,4.813,0,0,0,3.627-2.084,4.945,4.945,0,0,0,.871-2.958V2.861a.764.764,0,0,0-.7-.79" transform="translate(-0.001 0)" fill="#fff"/>
            <path id="Path_64207" data-name="Path 64207" d="M6.294,32.86a3,3,0,0,0,.322.018H20.591a3.122,3.122,0,0,0,.333-.019.766.766,0,0,0,.006-1.526,2.831,2.831,0,0,0-.325-.014H6.559a2.06,2.06,0,0,0-.265.014.8.8,0,0,0-.7.761.787.787,0,0,0,.7.765" transform="translate(-2.484 -13.912)" fill="#fff"/>
            <path id="Path_64208" data-name="Path 64208" d="M20.722,6.907h-14c-.129,0-.258,0-.39.007a.814.814,0,0,0-.71.584.764.764,0,0,0,.3.806,1.011,1.011,0,0,0,.549.166c.028,0,.056,0,.084,0H20.638a2.367,2.367,0,0,0,.342-.023A.758.758,0,0,0,21.5,7.268a.855.855,0,0,0-.774-.361" transform="translate(-2.486 -3.067)" fill="#fff"/>
            <path id="Path_64209" data-name="Path 64209" d="M10.447,39a3.357,3.357,0,0,0,.336.016h11.64c.112,0,.225-.006.337-.017a.793.793,0,0,0,.7-.7.776.776,0,0,0-.605-.809,1.956,1.956,0,0,0-.419-.035H10.73a2.136,2.136,0,0,0-.292.014.806.806,0,0,0-.709.775.8.8,0,0,0,.718.753" transform="translate(-4.322 -16.638)" fill="#fff"/>
            <path id="Path_64210" data-name="Path 64210" d="M30.037,14.166a.782.782,0,0,0-.848-.688H27.021v0h-1.77c-.263,0-.535,0-.805.017a.783.783,0,0,0-.721.758.8.8,0,0,0,.723.77c.116.011.233.018.347.018h4.34a1.733,1.733,0,0,0,.281-.023.791.791,0,0,0,.622-.818Z" transform="translate(-10.539 -5.985)" fill="#fff"/>
            <path id="Path_64211" data-name="Path 64211" d="M29.217,18.9h-4.5a2.7,2.7,0,0,0-.332.021.8.8,0,0,0-.646.635.792.792,0,0,0-.008.1.774.774,0,0,0,.759.791c.557.008,1.117.007,1.675,0l2.143.009h.244c.26,0,.525,0,.791-.013a.783.783,0,0,0,.7-.858.768.768,0,0,0-.823-.684M26.877,20.33h0v0Z" transform="translate(-10.542 -8.393)" fill="#fff"/>
            <path id="Path_64212" data-name="Path 64212" d="M30.038,25.431a.77.77,0,0,0-.759-.78c-.53,0-1.059,0-1.589,0h-.73l0,0H24.911c-.148,0-.3,0-.444.008a.814.814,0,0,0-.725.584.735.735,0,0,0,.394.845,1.226,1.226,0,0,0,.517.114h.01q1.1.006,2.19.005h2.263a1.682,1.682,0,0,0,.279-.023.769.769,0,0,0,.644-.747" transform="translate(-10.537 -10.949)" fill="#fff"/>
          </g>
        </g>
      </g>
    </g>
  </g>
</svg>
