<svg xmlns="http://www.w3.org/2000/svg" width="26.304" height="27.128" viewBox="0 0 26.304 27.128">
  <g id="Group_19684" data-name="Group 19684" transform="translate(1088.587 -7903.725)">
    <g id="Group_18425" data-name="Group 18425" transform="translate(-1088.587 7903.725)">
      <g id="Group_17386" data-name="Group 17386" transform="translate(0 0)">
        <g id="Group_17385" data-name="Group 17385" transform="translate(0 0)">
          <g id="Group_17387" data-name="Group 17387">
            <path id="Path_65804" data-name="Path 65804" d="M26.632,18.419a5.618,5.618,0,0,0,1.231-3.488,6.122,6.122,0,0,0-6.129-5.9c-.075,0-.148-.011-.223-.011s-.124.007-.186.009a6.125,6.125,0,0,0-6.166,5.905,6.109,6.109,0,0,0,5.962,5.9c.13.007.258.018.39.018s.286-.011.427-.02a6.586,6.586,0,0,0,3.622-1.338l5.654,5.654,1.07-1.07Zm-5.7-.819-2.436-2.482,1.3-1.273,1.177,1.2,2.7-2.6,1.259,1.31Z" transform="translate(-5.98 -3.557)" fill="#ff0089"/>
            <path id="Path_65805" data-name="Path 65805" d="M2.967,24.694H1.7V5.2H2.967V3.5H1.455A1.457,1.457,0,0,0,0,4.954v19.98a1.457,1.457,0,0,0,1.455,1.455H2.967Z" transform="translate(0 -1.381)" fill="#fff"/>
            <path id="Path_65806" data-name="Path 65806" d="M25.877,22.693v2.739H8.2V1.7H25.877v12.83l1.7,1.9V1.454A1.457,1.457,0,0,0,26.117,0H7.955A1.457,1.457,0,0,0,6.5,1.454V25.673a1.457,1.457,0,0,0,1.455,1.455H26.117a1.457,1.457,0,0,0,1.456-1.455V23.226Z" transform="translate(-2.564)" fill="#fff"/>
          </g>
        </g>
      </g>
    </g>
  </g>
</svg>
