<svg xmlns="http://www.w3.org/2000/svg" width="38.635" height="22.934" viewBox="0 0 38.635 22.934">
  <g id="Group_19683" data-name="Group 19683" transform="translate(782.342 -7906.342)">
    <g id="Group_18426" data-name="Group 18426" transform="translate(-782.342 7906.342)">
      <g id="Group_17388" data-name="Group 17388" transform="translate(0 0)">
        <path id="Path_64191" data-name="Path 64191" d="M55.105,5.007,49.554,9.732v5.694l5.551,4.725Z" transform="translate(-19.55 -1.596)" fill="#ff0089"/>
        <g id="Group_16366" data-name="Group 16366" transform="translate(0 0)">
          <g id="Group_16367" data-name="Group 16367">
            <path id="Path_64192" data-name="Path 64192" d="M53.965,21.621A2.9,2.9,0,0,1,52.152,21l-6.113-4.838a2.525,2.525,0,0,1-.985-1.982V7.467a2.523,2.523,0,0,1,.985-1.982L52.155.645A2.921,2.921,0,0,1,53.969.023h.009a2.882,2.882,0,0,1,1.974.766,2.491,2.491,0,0,1,.813,1.84V19.017a2.492,2.492,0,0,1-.671,1.694,2.854,2.854,0,0,1-1.907.9c-.074.006-.148.008-.222.008m0-19.689a.775.775,0,0,0-.483.165L47.369,6.939a.671.671,0,0,0-.261.527v6.71a.672.672,0,0,0,.261.528l6.117,4.841a.789.789,0,0,0,.542.165.756.756,0,0,0,.506-.239.66.66,0,0,0,.178-.451V2.626a.664.664,0,0,0-.216-.491.766.766,0,0,0-.524-.2Z" transform="translate(-18.13 -0.023)" fill="#fff"/>
            <path id="Path_64193" data-name="Path 64193" d="M23.519,18.607H10.749A4.755,4.755,0,0,1,6,13.858V4.749A4.755,4.755,0,0,1,10.749,0H23.519a4.754,4.754,0,0,1,4.749,4.749v9.108a4.754,4.754,0,0,1-4.749,4.749M10.749,1.525A3.228,3.228,0,0,0,7.525,4.749v9.108a3.228,3.228,0,0,0,3.224,3.224H23.519a3.227,3.227,0,0,0,3.224-3.224V4.749a3.227,3.227,0,0,0-3.224-3.224Z" transform="translate(-2.865 1.118)" fill="#fff"/>
            <path id="Path_64194" data-name="Path 64194" d="M19.677,29.266a5.123,5.123,0,0,1-1.541.237H6.846a5.14,5.14,0,0,1-5.134-5.134V19.75H0v4.618a6.853,6.853,0,0,0,6.846,6.846h11.29a6.814,6.814,0,0,0,1.541-.181Z" transform="translate(0 -8.28)" fill="#ff0089"/>
          </g>
        </g>
      </g>
    </g>
  </g>
</svg>
