<svg xmlns="http://www.w3.org/2000/svg" width="20.903" height="23.034" viewBox="0 0 20.903 23.034">
  <path id="Path_83415" data-name="Path 83415" d="M90.219,25.483a2.872,2.872,0,0,0,2.957-2.84q.008-7.586,0-15.173A2.777,2.777,0,0,0,92,5.174a2.735,2.735,0,0,0-1.67-.562c-.252,0-.5,0-.76,0h-.69l-.019-.394c0-.046,0-.086-.005-.127,0-.106,0-.213,0-.319,0-.211,0-.422-.006-.632a.728.728,0,0,0-1.455.036c0,.186,0,.371,0,.556v.361c0,.043,0,.087-.006.131l-.02.374H78.058l0-.815c0-.209,0-.419-.005-.628a.729.729,0,0,0-1.458.032c0,.175,0,.349,0,.523v.38c0,.042,0,.085-.006.133l-.021.388h-.7c-.254,0-.5,0-.752,0a2.879,2.879,0,0,0-2.842,2.862q-.005,7.579,0,15.159a2.739,2.739,0,0,0,.692,1.838,2.852,2.852,0,0,0,2.28,1.014h8.056q3.455,0,6.91,0M73.746,7.474a1.388,1.388,0,0,1,1.247-1.386,8.451,8.451,0,0,1,.868-.013c.125,0,.251.005.379.005h.327l.022.369c0,.042.007.084.007.127,0,.112,0,.225,0,.338,0,.223,0,.446.01.669a.726.726,0,0,0,1.443,0c.012-.192.011-.385.01-.577V6.077H87.4v.669c0,.249,0,.493,0,.738a.708.708,0,0,0,.171.485.731.731,0,0,0,.8.214.719.719,0,0,0,.488-.626c.009-.22.008-.439.006-.66v-.83l.6,0c.193,0,.379,0,.565,0l.081,0a2.583,2.583,0,0,1,.645.081,1.36,1.36,0,0,1,.962,1.288c.006.779.006,1.559.005,2.339v.868a.567.567,0,0,1-.011.1l-.052.285-.295.029H73.782l-.03-.353a1.148,1.148,0,0,1-.008-.124V9.872q0-1.2,0-2.4m5.01,16.545h-.909q-1.326,0-2.652,0a1.412,1.412,0,0,1-1.451-1.462l0-10.006H91.712l0,10a1.405,1.405,0,0,1-1.458,1.472q-.826,0-1.652,0H78.756Z" transform="translate(-72.277 -2.451)" fill="#7e7e7e"/>
</svg>
