<svg xmlns="http://www.w3.org/2000/svg" width="27.226" height="24.275" viewBox="0 0 27.226 24.275">
  <path id="Path_83414" data-name="Path 83414" d="M13.589,24.264q-5.292,0-10.584,0a1.54,1.54,0,0,1-1.624-1,2.076,2.076,0,0,1-.084-.683c-.005-2.917-.01-5.835.005-8.753,0-.36-.09-.572-.442-.674a1.072,1.072,0,0,1-.484-.243A1.119,1.119,0,0,1,.014,12.3C-.008,10.03,0,7.759.016,5.489a1.467,1.467,0,0,1,1.523-1.5c.842-.018,1.684-.007,2.527-.007,1.526,0,3.052,0,4.578.014.327,0,.444-.086.441-.433a9.749,9.749,0,0,1,.1-2.037A1.822,1.822,0,0,1,11.021.03c1.733-.037,3.468-.045,5.2,0a1.977,1.977,0,0,1,1.924,2.011c.018.524.019,1.05,0,1.574-.011.3.1.38.384.378,2.173-.009,4.346-.007,6.519-.008.232,0,.465-.011.7,0a1.473,1.473,0,0,1,1.465,1.481c.023,2.221.015,4.443.018,6.665a.676.676,0,0,1-.509.686c-.669.193-.811.607-.8,1.272.041,2.808-.014,5.616.032,8.424a1.645,1.645,0,0,1-1.775,1.753c-3.527-.025-7.056-.01-10.584-.01m.02-19.1v.008H11.485l-9.7-.008c-.5,0-.593.087-.595.562-.006,1.977-.005,3.954-.015,5.931a.468.468,0,0,0,.322.5,27.529,27.529,0,0,0,9.175,2.13c.2.015.278-.035.31-.244a1.039,1.039,0,0,1,1.1-.964q1.537-.028,3.075,0a1.013,1.013,0,0,1,1.073.861c.049.341.209.35.47.313,1.195-.168,2.395-.3,3.584-.5a21.405,21.405,0,0,0,5.443-1.748.506.506,0,0,0,.331-.537c-.012-1.879-.011-3.759-.015-5.638,0-.6-.066-.666-.676-.666H13.609m11.122,8.58c-.125.033-.2.052-.282.075-1.049.316-2.081.711-3.15.929-1.43.293-2.888.457-4.335.663-.7.1-.7.086-.709.781a1.086,1.086,0,0,1-1.127,1.176q-1.519.033-3.04,0a1.087,1.087,0,0,1-1.116-1.184c0-.134-.006-.269.006-.4.019-.22-.079-.29-.294-.313-1.127-.125-2.264-.2-3.376-.416-1.337-.255-2.653-.623-3.976-.95-.266-.065-.523-.162-.858-.268v.5q0,3.919,0,7.839c0,.921-.01.908.935.906q5.421-.012,10.842-.009,4.981,0,9.962.006c.477,0,.545-.075.546-.56q0-4.194,0-8.388c0-.116-.014-.232-.023-.381M13.626,1.2c-.817,0-1.635-.017-2.452.006a.863.863,0,0,0-.919.958c-.008.487.009.976,0,1.463-.007.268.1.366.364.365q3-.01,6,0c.273,0,.365-.108.358-.371-.012-.464,0-.927,0-1.391A.907.907,0,0,0,15.967,1.2c-.78-.012-1.561,0-2.341,0m-.035,15.01c.378,0,.757-.009,1.135,0,.239.008.362-.057.352-.327-.016-.439-.012-.879,0-1.318.005-.235-.088-.326-.324-.323q-1.134.012-2.269,0c-.229,0-.337.072-.332.315q.015.676,0,1.354c-.005.224.09.3.306.3.378-.009.757,0,1.135,0" transform="translate(0 0)" fill="#7e7e7e"/>
</svg>
