<svg xmlns="http://www.w3.org/2000/svg" width="64.866" height="49.422" viewBox="0 0 64.866 49.422">
  <g id="Group_35444" data-name="Group 35444" transform="translate(0)">
    <g id="Group_35445" data-name="Group 35445" transform="translate(0 0)">
      <path id="Path_96561" data-name="Path 96561" d="M64.843,36.661c-.009-.314-.018-.629-.022-.944l0-.169-6.542,0c-5.82,0-11.838.007-17.757-.028h-.044a2.76,2.76,0,0,0-2.456,1.085,1.059,1.059,0,0,1-.99.419l-.858-.007c-2.486-.022-5.056-.042-7.586.02a2.351,2.351,0,0,1-2.275-.956,1.339,1.339,0,0,0-1.2-.546H25.1q-10.084.015-20.17.01H0V36.6c0,.617,0,1.2,0,1.774a6.046,6.046,0,0,0,6.308,6.3q13.078,0,26.156,0H58.636c.136,0,.272,0,.408-.007a6.014,6.014,0,0,0,4.307-2.05c1.615-1.77,1.553-3.9,1.492-5.962m-3.328,2.16A2.655,2.655,0,0,1,59.042,41.4a4.152,4.152,0,0,1-.52.02H43.594q-18.6,0-37.2,0a2.843,2.843,0,0,1-2.65-1.294,4.277,4.277,0,0,1-.382-.942c-.039-.118-.078-.24-.122-.367H7.961q7.9,0,15.808-.011h.007a1.186,1.186,0,0,1,1.1.462,2.634,2.634,0,0,0,2.4,1.025c3.409-.054,6.779-.044,10.792-.008a1.831,1.831,0,0,0,1.607-.7,1.969,1.969,0,0,1,1.8-.788H41.5c4.943.029,9.969.026,14.829.023Z" transform="translate(0 4.741)" fill="#1a73e9"/>
      <rect id="Rectangle_5" data-name="Rectangle 5" width="40.937" height="2.83" transform="translate(11.976 20.665)"/>
      <path id="Path_96562" data-name="Path 96562" d="M51.693,21.252H10.416V18.083H51.693Zm-40.938-.34h40.6v-2.49h-40.6Z" transform="translate(1.39 2.413)"/>
      <rect id="Rectangle_6" data-name="Rectangle 6" width="40.957" height="2.838" transform="translate(11.95 8.931)"/>
      <path id="Path_96563" data-name="Path 96563" d="M51.691,10.907h-41.3V7.729h41.3Zm-40.959-.34H51.349v-2.5H10.732Z" transform="translate(1.387 1.032)"/>
      <rect id="Rectangle_7" data-name="Rectangle 7" width="40.934" height="2.827" transform="translate(11.974 14.804)"/>
      <path id="Path_96564" data-name="Path 96564" d="M51.688,16.078H10.414V12.912H51.688Zm-40.934-.34H51.348V13.251H10.754Z" transform="translate(1.39 1.723)"/>
      <rect id="Rectangle_8" data-name="Rectangle 8" width="21.92" height="2.854" transform="translate(11.947 26.518)"/>
      <path id="Path_96565" data-name="Path 96565" d="M32.65,26.441H10.39V23.247H32.65ZM10.729,26.1H32.31V23.587H10.729Z" transform="translate(1.387 3.103)"/>
      <path id="Path_96566" data-name="Path 96566" d="M59.107,0H5.52A5.374,5.374,0,0,0,.032,5.239V33.111A5.374,5.374,0,0,0,5.52,38.349H59.107c3.231,0,5.488-2.585,5.488-6.287V4.19C64.595,2.3,62.063,0,59.107,0m2.265,4.325V32.062c0,1.918-.847,3.064-2.265,3.064H5.52a2.153,2.153,0,0,1-2.265-2.015V5.239A2.153,2.153,0,0,1,5.52,3.224H59.107a2.908,2.908,0,0,1,2.265,1.1" transform="translate(0.004 0)" fill="#1a73e9"/>
    </g>
  </g>
</svg>
