<svg xmlns="http://www.w3.org/2000/svg" width="52.501" height="52.303" viewBox="0 0 52.501 52.303">
  <g id="Group_35447" data-name="Group 35447" transform="translate(-0.001)">
    <g id="Group_35448" data-name="Group 35448" transform="translate(0 0)">
      <path id="Path_96567" data-name="Path 96567" d="M50.58,24.258a1.784,1.784,0,0,0-2.524-.058q-4.331,3.952-8.615,7.957A1.678,1.678,0,0,0,38.934,34c.373,1.191.754,2.379,1.133,3.567s.762,2.381,1.136,3.574l.321,1.011c.377,1.178.768,2.4,1.054,3.631a2.316,2.316,0,0,1-.662,2.288,2.384,2.384,0,0,1-2.411.427L35.751,47.2c-2.731-.954-5.461-1.907-8.2-2.836a4.823,4.823,0,0,0-1.879-.266,4.32,4.32,0,0,0-1.194.361c-.2.08-.393.16-.589.227l-3.523,1.226q-3.772,1.313-7.545,2.615a2.386,2.386,0,0,1-2-.187,1.983,1.983,0,0,1-.966-1.381,4.309,4.309,0,0,1,.119-1.923c.954-3.059,2.1-6.685,3.35-10.4a2.433,2.433,0,0,0-.806-2.935c-1.657-1.482-3.289-2.991-4.92-4.5Q6.136,25.847,4.67,24.5a2.752,2.752,0,0,1-.948-2.95,2.7,2.7,0,0,1,2.335-1.811c.592-.117,1.18-.244,1.769-.37l2.735-.6c2.043-.451,4.157-.917,6.248-1.324A2.673,2.673,0,0,0,18.952,15.8c1.231-2.638,2.5-5.263,3.761-7.886l1.232-2.559A2.591,2.591,0,0,1,26.23,3.693a2.521,2.521,0,0,1,2.253,1.694l.113.239c.25.531.5,1.063.761,1.589l.919,1.866c.81,1.655,1.649,3.365,2.527,5.011a1.611,1.611,0,0,0,.987.788,1.868,1.868,0,0,0,1.434-.173,1.848,1.848,0,0,0,.7-2.449l-1.2-2.473q-1.481-3.05-2.969-6.1A5.925,5.925,0,0,0,26.324,0a5.719,5.719,0,0,0-5.5,3.395c-1.389,2.773-2.746,5.623-4.058,8.38l-.56,1.174a2,2,0,0,1-1.473,1.2q-2.574.538-5.144,1.091-2.234.477-4.471.95a6.054,6.054,0,0,0-5.072,5.51,6.376,6.376,0,0,0,2.388,5.75c1.12,1.013,2.231,2.037,3.342,3.061q1.468,1.356,2.946,2.7a1.652,1.652,0,0,1,.527,1.9Q8.11,38.558,7.041,42.029c-.289.932-.55,1.874-.792,2.75l-.268.958.108.63c.073.432.132.8.219,1.155a6.422,6.422,0,0,0,3.155,4.064,5.713,5.713,0,0,0,4.683.383q5.077-1.8,10.175-3.536l.312-.112a4.8,4.8,0,0,1,1.64-.373,2.772,2.772,0,0,1,.967.174c2.123.774,4.255,1.517,6.389,2.261q2.02.7,4.036,1.416a6.363,6.363,0,0,0,4.127.274,6.279,6.279,0,0,0,3.77-3.177,6.537,6.537,0,0,0,.376-5.113c-.379-1.118-.73-2.246-1.081-3.373-.47-1.507-.955-3.065-1.5-4.567A2.529,2.529,0,0,1,44.2,32.71c1.861-1.636,3.816-3.448,6.34-5.878a1.79,1.79,0,0,0,.552-1.269,1.834,1.834,0,0,0-.51-1.3" transform="translate(0 0)" fill="#1a73e9"/>
      <path id="Path_96568" data-name="Path 96568" d="M48,7.177a2.193,2.193,0,0,0-1.509.7q-2.268,2.24-4.511,4.5l-5.276,5.285q-5.256,5.263-10.519,10.519a2.875,2.875,0,0,1-4.354,0c-.83-.817-1.653-1.642-2.477-2.466-.91-.912-1.819-1.824-2.741-2.725a2.128,2.128,0,0,0-1.475-.649h-.02a1.949,1.949,0,0,0-1.387.625,2.026,2.026,0,0,0,.112,2.9l1.031,1.029c1.442,1.441,2.883,2.881,4.34,4.305a6.6,6.6,0,0,0,4.554,1.943,7.083,7.083,0,0,0,5.22-2.149l20.3-20.29a1.994,1.994,0,0,0,.145-2.891A1.863,1.863,0,0,0,48,7.177" transform="translate(2.512 1.368)"/>
    </g>
  </g>
</svg>
