<svg xmlns="http://www.w3.org/2000/svg" width="51.527" height="57.4" viewBox="0 0 51.527 57.4">
  <g id="Group_35474" data-name="Group 35474" transform="translate(0)">
    <g id="Group_35475" data-name="Group 35475" transform="translate(0 0)">
      <path id="Path_96608" data-name="Path 96608" d="M16.494,26.033A13.818,13.818,0,0,1,12.217,4.7a13.663,13.663,0,0,1,20.024-.652,13.181,13.181,0,0,1,3.744,11.9A13.565,13.565,0,0,1,28.46,26.013c.923.341,1.758.617,2.564.96a22.315,22.315,0,0,1,2.386,1.156,1.481,1.481,0,1,1-1.536,2.532,20.045,20.045,0,0,0-6.767-2.173,18.754,18.754,0,0,0-5.237-.011A19.759,19.759,0,0,0,3.738,42.7a25.182,25.182,0,0,0-.662,7.932,1.805,1.805,0,0,0,1.816,1.694c.432.026.868.009,1.3.009q8.645,0,17.291,0c1.086,0,1.738.574,1.737,1.5a1.456,1.456,0,0,1-1.209,1.467,2.8,2.8,0,0,1-.53.041c-6.139,0-12.277.014-18.416,0A4.875,4.875,0,0,1,.219,51.728a3.659,3.659,0,0,1-.141-.754c-.423-6.3.831-12.136,4.866-17.176a22.66,22.66,0,0,1,5.732-5.149,26.682,26.682,0,0,1,5.3-2.437l.517-.178M33.179,13.686A10.639,10.639,0,1,0,22.541,24.308,10.651,10.651,0,0,0,33.179,13.686" transform="translate(0 0)" fill="#1a73e9"/>
      <path id="Path_96609" data-name="Path 96609" d="M44.943,53.358a1.494,1.494,0,0,1-2.207,1.473c-1.228-.587-2.427-1.234-3.637-1.854-.966-.5-1.922-1.01-2.9-1.469a1.042,1.042,0,0,0-.8,0c-2,.993-3.974,2.02-5.956,3.037-.194.1-.384.206-.581.295a1.509,1.509,0,0,1-1.625-.118,1.469,1.469,0,0,1-.565-1.521c.353-2.182.669-4.37,1.064-6.544a1.842,1.842,0,0,0-.6-1.913c-1.576-1.462-3.065-3.016-4.6-4.526a1.587,1.587,0,0,1-.565-1.744A1.631,1.631,0,0,1,23.46,37.4q3.484-.509,6.958-1.088a1.034,1.034,0,0,0,.669-.461c1.061-2.069,2.09-4.156,3.119-6.241a1.655,1.655,0,0,1,3.17-.01c1.03,2.086,2.058,4.173,3.119,6.243a1.03,1.03,0,0,0,.662.469q3.5.582,7.016,1.094a1.585,1.585,0,0,1,1.436,1.056,1.567,1.567,0,0,1-.518,1.707c-1.657,1.635-3.3,3.289-4.962,4.917a1.038,1.038,0,0,0-.352,1.035c.379,2.2.723,4.4,1.077,6.6.04.253.07.507.088.633M30.1,50.8c.323-.155.533-.251.739-.357,1.351-.691,2.708-1.374,4.052-2.082a1.777,1.777,0,0,1,1.8,0c1.376.73,2.77,1.427,4.158,2.136.169.087.345.159.623.287-.049-.391-.076-.677-.121-.961-.225-1.4-.439-2.807-.691-4.2a1.95,1.95,0,0,1,.61-1.922c1.1-1.046,2.159-2.137,3.233-3.211.142-.143.273-.3.483-.526-1.841-.293-3.549-.582-5.264-.825a1.841,1.841,0,0,1-1.509-1.077c-.691-1.4-1.4-2.785-2.1-4.176-.085-.166-.186-.323-.327-.566-.147.268-.246.436-.334.608-.7,1.372-1.4,2.74-2.081,4.121a1.826,1.826,0,0,1-1.5,1.088c-1.582.221-3.158.491-4.735.745-.144.023-.284.074-.5.131.186.2.311.348.447.483,1.1,1.1,2.2,2.211,3.315,3.3a1.748,1.748,0,0,1,.548,1.659q-.258,1.517-.5,3.038c-.115.73-.22,1.463-.348,2.313" transform="translate(1.833 2.382)"/>
    </g>
  </g>
</svg>
