<svg id="Group_35471" data-name="Group 35471" xmlns="http://www.w3.org/2000/svg" width="46.061" height="55.187" viewBox="0 0 46.061 55.187">
  <g id="Group_35472" data-name="Group 35472" transform="translate(0 0)">
    <path id="Path_96602" data-name="Path 96602" d="M21.965,48.47H5.314a2.38,2.38,0,0,1-2.424-2.38q-.006-20.422,0-40.842a2.035,2.035,0,0,1,.053-.511A2.489,2.489,0,0,1,5.556,2.852H12.5q7.355,0,14.711-.01a.159.159,0,0,0,.039,0v.037c-.016,2.6-.011,5.193-.006,7.791l0,.635a3.729,3.729,0,0,0,.1.971,3.1,3.1,0,0,0,3.124,2.332q2.969.011,5.934,0H38.97V31l0,.133a3.925,3.925,0,0,0,.011.437,1.415,1.415,0,0,0,1.408,1.285A1.392,1.392,0,0,0,41.4,32.48a1.821,1.821,0,0,0,.454-1.361v-5.9q0-5.894.005-11.789a1.945,1.945,0,0,0-.6-1.461Q35.559,6.295,29.881.6a1.882,1.882,0,0,0-1.41-.6h0q-7.25.01-14.5.01l-8.7,0a4.642,4.642,0,0,0-1,.085A5.275,5.275,0,0,0,0,5.418L0,31.893V45.887A5.287,5.287,0,0,0,5.46,51.357h16.59a2.212,2.212,0,0,0,.328-.019,1.445,1.445,0,0,0,.978-.582,1.473,1.473,0,0,0,.238-1.129c-.079-.433-.395-1.157-1.629-1.157M30.59,11.738c-.468,0-.492-.112-.493-.435q-.01-2.94,0-5.877l0-.277,6.576,6.589q-3.042,0-6.082,0" transform="translate(0 0.001)" fill="#1a73e9"/>
    <path id="Path_96603" data-name="Path 96603" d="M44.341,34.954c-.125-1.957-.632-2.229-2.428-2.161-3.505.106-6.039-.853-7.965-3.032a1.415,1.415,0,0,0-1.008-.507,1.7,1.7,0,0,0-1.2.5l-.211.2a13.212,13.212,0,0,1-1.548,1.335,9.6,9.6,0,0,1-5.694,1.485h-.334c-.228,0-.456,0-.684,0-1.246-.03-1.771.445-1.855,1.671a19.344,19.344,0,0,0,.792,7.6,17.5,17.5,0,0,0,9.633,10.578,2.476,2.476,0,0,0,1.055.261,2.08,2.08,0,0,0,.871-.2A17.644,17.644,0,0,0,44.341,34.954m-2.845.719a15,15,0,0,1-2.247,8.817,14.455,14.455,0,0,1-6.23,5.366.479.479,0,0,1-.266.017,14.49,14.49,0,0,1-7.985-9.322,16.879,16.879,0,0,1-.562-4.843c0-.017,0-.032,0-.046s.026,0,.043,0a12.868,12.868,0,0,0,6.1-1.268,19.092,19.092,0,0,0,1.994-1.239c.184-.126.37-.252.56-.379a11.032,11.032,0,0,0,4.4,2.357,16.15,16.15,0,0,0,4.2.54" transform="translate(1.677 2.299)"/>
    <path id="Path_96604" data-name="Path 96604" d="M22.625,26.446a1.416,1.416,0,0,0,1.216-1.608,1.457,1.457,0,0,0-1.594-1.226l-12.536,0c-.854,0-1.71,0-2.565.012a1.42,1.42,0,0,0-.067,2.836,3.317,3.317,0,0,0,.349.013H22.14a3.49,3.49,0,0,0,.484-.023" transform="translate(0.453 1.856)"/>
    <path id="Path_96605" data-name="Path 96605" d="M27.366,19.207c.183,0,.366,0,.546-.014a1.587,1.587,0,0,0,1.526-1.326A1.5,1.5,0,0,0,28.053,16.4c-.284-.042-.579-.024-.9-.044H8.775c-.444,0-.889,0-1.33.016a2.466,2.466,0,0,0-1,.231,1.224,1.224,0,0,0-.7,1.636,1.712,1.712,0,0,0,1.738.97h0q3.7,0,7.39,0h2.64l9.711,0Z" transform="translate(0.443 1.286)"/>
    <path id="Path_96606" data-name="Path 96606" d="M21.206,31.517A1.373,1.373,0,0,0,19.772,30.5h0l-4.27,0h-3.7l-4.4,0A1.445,1.445,0,0,0,5.758,31.91a1.356,1.356,0,0,0,.372,1,1.732,1.732,0,0,0,1.273.445h3.978q4.088,0,8.171-.009a2.172,2.172,0,0,0,1.063-.233,1.316,1.316,0,0,0,.591-1.6" transform="translate(0.452 2.397)"/>
    <path id="Path_96607" data-name="Path 96607" d="M10.315,37.388c-1.031,0-2.057,0-3.085.005a1.431,1.431,0,0,0-.092,2.861c.065.005.129.008.219.008H18.547a2.887,2.887,0,0,0,.626-.054,1.369,1.369,0,0,0,1.1-1.417,1.4,1.4,0,0,0-1.534-1.4Z" transform="translate(0.452 2.938)"/>
  </g>
</svg>
