<svg xmlns="http://www.w3.org/2000/svg" width="36.518" height="36.5" viewBox="0 0 36.518 36.5">
  <g id="Group_34464" data-name="Group 34464" transform="translate(0.5 0.5)">
    <g id="Group_17348" data-name="Group 17348" transform="translate(0 0)">
      <g id="Group_17344" data-name="Group 17344" transform="translate(0 0)">
        <g id="Group_16362" data-name="Group 16362">
          <path id="Path_64183" data-name="Path 64183" d="M6.837,33.255a3.266,3.266,0,0,0-3.186,3.324,3.284,3.284,0,0,0,3.268,3.214c3.169.016,6.367.013,9.458.009H32.465a6.386,6.386,0,0,1,.019-6.548c-7.15-.013-16.383-.024-25.646,0" transform="translate(-0.789 -7.185)" fill="#1a73e8" stroke="rgba(0,0,0,0)" stroke-width="1"/>
          <path id="Path_64184" data-name="Path 64184" d="M33.735,41.9c-.112,0-.223-.005-.327-.012s-.159-.01-.22-.011h-17.6c-3.1,0-6.3.007-9.452-.01H6.122A6.153,6.153,0,0,1,0,35.839,6.13,6.13,0,0,1,6.025,29.6c9.615-.024,19.332-.013,27.572,0A1.9,1.9,0,0,1,35.383,30.7l.029.125a2.519,2.519,0,0,1-.191,1.435l-.028.081a1.965,1.965,0,0,1-.483.723l0,0a.43.43,0,0,1-.038.049c-1.4,1.893-1.373,3.523.11,5.43l-1.423,1.107a5.711,5.711,0,0,1-.119-7.631c.072-.093.13-.16.191-.225l.135-.256a.865.865,0,0,0,.045-.121l-.024,0c-8.236-.015-17.954-.027-27.549,0a4.327,4.327,0,0,0-4.24,4.4A4.345,4.345,0,0,0,6.13,40.062h.013c3.152.018,6.349.013,9.447.009H33.176a2.8,2.8,0,0,1,.356.016l.115.005a2.882,2.882,0,0,0-.285-.44l1.423-1.108a2.675,2.675,0,0,1,.692,2.094A1.609,1.609,0,0,1,33.735,41.9" transform="translate(0 -6.396)" fill="#1e2663" stroke="rgba(0,0,0,0)" stroke-width="1"/>
          <path id="Path_64185" data-name="Path 64185" d="M33.461,13.24v0a5.24,5.24,0,0,0-3.744-1.563c-3.449-.015-6.954-.012-10.347-.009H14.394V10.5H33.387c.051,0,.1,0,.157.008a1.043,1.043,0,0,0,.406-.024c.053-.017.109-.034.168-.051.314-.092.635-.187.72-.415a1.386,1.386,0,0,0-.215-1.038,3.039,3.039,0,0,0-.392-.549,4,4,0,0,1-.277-.353,4.224,4.224,0,0,1-.732-4.02,9.213,9.213,0,0,1,.819-1.516c.194-.314.392-.631.566-.959.084-.157.346-.705.186-1.052-.145-.3-.662-.447-.945-.488a6.028,6.028,0,0,0-1.03-.027c-.142,0-.285.009-.426.009H25.129q-9.231,0-18.458,0a5.242,5.242,0,1,0-.489,10.473c.147.007.294.008.441,0h.542v1.17H5.5c-1.05,0-2.137-.007-3.206.02-.283.007-.834.164-.927.451a1.682,1.682,0,0,0,.147,1.006l.027.078a1.159,1.159,0,0,0,.267.386,2.046,2.046,0,0,1,.142.167A4.763,4.763,0,0,1,1.843,20.2c-.05.064-.1.127-.157.19a3.458,3.458,0,0,0-.334.442.883.883,0,0,0-.1.842.878.878,0,0,0,.71.455,3.076,3.076,0,0,0,.5.017H22.994c.676,0,1.343,0,2.014,0,.65,0,1.309,0,1.971,0,.961,0,1.93,0,2.889-.02a5.233,5.233,0,0,0,3.592-8.894M3.754,7.592a3.333,3.333,0,0,1-.61-3.655,3.42,3.42,0,0,1,2.979-2.21,2.475,2.475,0,0,1,.285-.013H32.391C30.933,4.8,30.933,5.24,32.333,8.768H14.364V5.678c0-1-.248-1.249-1.238-1.254-1.4,0-3.064-.007-4.777,0-.87,0-1.136.271-1.141,1.141,0,.757,0,1.514,0,2.287l0,.006v.909A3.644,3.644,0,0,1,3.754,7.592m9.008-1.579V14.84c-.47-.361-.9-.662-1.3-1.009a.924.924,0,0,0-1.3-.073.8.8,0,0,0-.085.086c-.375.329-.784.62-1.254.987l0-8.818ZM32.789,18.67a3.366,3.366,0,0,1-3.071,1.776q-10.447.009-20.895,0H4c-.071,0-.143-.005-.229-.012a6.3,6.3,0,0,0,.012-7.025H7.2c0,.223,0,.446,0,.669-.006.673-.012,1.369.02,2.054a2.166,2.166,0,0,0,.216.731c.043.1.086.2.121.3L7.6,17.3l.125-.049c.1-.036.2-.066.308-.1a2.3,2.3,0,0,0,.7-.287c.509-.357.989-.741,1.5-1.146.179-.143.361-.288.549-.433.175.137.348.275.521.412.491.392,1,.795,1.52,1.159.267.187.8.462,1.093.314s.419-.736.434-1.055c.034-.67.027-1.355.021-2.017,0-.235,0-.466,0-.7l.026-.007a.647.647,0,0,1,.14-.027q2.1,0,4.2-.005c3.643-.006,7.407-.013,11.11.016a3.415,3.415,0,0,1,2.965,1.76,3.5,3.5,0,0,1-.016,3.537" transform="translate(-0.256 -0.001)" fill="#1e2663" stroke="rgba(0,0,0,0)" stroke-width="1"/>
          <path id="Path_64186" data-name="Path 64186" d="M14.964,16.728l-.212-.163c-.147-.114-.291-.221-.431-.326-.308-.23-.6-.448-.872-.688a.8.8,0,0,0-1.126-.078.754.754,0,0,0-.089.091c-.259.227-.535.437-.827.661-.138.105-.281.214-.43.331l-.212.166V7.5h4.2Zm-2.112-1.714a1.172,1.172,0,0,1,.77.339c.266.235.553.448.856.675l.223.167V7.764H11.027v8.422l.221-.169c.288-.22.561-.428.813-.649a1.208,1.208,0,0,1,.792-.353" transform="translate(-2.326 -1.622)" fill="#1e2663" stroke="rgba(0,0,0,0)" stroke-width="1"/>
        </g>
      </g>
    </g>
  </g>
</svg>
