<svg id="Group_34677" data-name="Group 34677" xmlns="http://www.w3.org/2000/svg" xmlns:xlink="http://www.w3.org/1999/xlink" width="67.543" height="19.961" viewBox="0 0 67.543 19.961">
  <defs>
    <clipPath id="clip-path">
      <rect id="Rectangle_19457" data-name="Rectangle 19457" width="67.543" height="19.961" transform="translate(0 0)" fill="#fff"/>
    </clipPath>
  </defs>
  <g id="Group_34676" data-name="Group 34676" transform="translate(0 0)" clip-path="url(#clip-path)">
    <path id="Path_83390" data-name="Path 83390" d="M66.724,11.7l-.163.233c-.033.048-.068.1-.1.142-.08.111-.163.225-.239.348-.144.232-.283.469-.421.705a14.311,14.311,0,0,1-.9,1.41,10.22,10.22,0,0,1-1.528,1.594,1.324,1.324,0,0,1-.513.167v0a1.219,1.219,0,0,1-.106-.482,31.5,31.5,0,0,1,1.243-3.685c.366-.856.819-1.7,1.257-2.509.2-.363.391-.725.578-1.087l.258-.5-.557-.076a3.179,3.179,0,0,0-3.5,1.331.285.285,0,0,1-.062.016A1.219,1.219,0,0,1,60.995,9a1.085,1.085,0,0,1-.36-.853.994.994,0,0,0-.949-1.115,1.678,1.678,0,0,0-1.318.288,1.7,1.7,0,0,0-.628,1.213,1.978,1.978,0,0,0,.784,1.855l-.1.208c-.171.356-.334.693-.523,1.008-.174.29-.345.582-.516.874a29.291,29.291,0,0,1-1.762,2.766,5.624,5.624,0,0,1-2.981,2.2c-.739.208-1.627.151-1.906-.636a4.125,4.125,0,0,1,.149-2.816l.387.035a10.354,10.354,0,0,0,1.415.066,5.428,5.428,0,0,0,3.672-1.453A2.653,2.653,0,0,0,57.1,9.7a2.562,2.562,0,0,0-2.471-1.66,5.6,5.6,0,0,0-3.739,1.075,9.49,9.49,0,0,0-2.846,3.471,16.787,16.787,0,0,1-1.736,2.7,5.792,5.792,0,0,1-2.961,2.158c-.883.245-1.586.039-1.835-.536A3.862,3.862,0,0,1,41.6,14l.425.034a10.948,10.948,0,0,0,1.459.057,5.436,5.436,0,0,0,3.523-1.378,2.716,2.716,0,0,0,.84-2.955,2.686,2.686,0,0,0-2.579-1.719A5.72,5.72,0,0,0,41.645,9.1a9.23,9.23,0,0,0-2.859,3.467,14.605,14.605,0,0,1-1.509,2.458,7.041,7.041,0,0,1-1.608,1.368.36.36,0,0,1-.136.063.347.347,0,0,1-.063-.224,2.434,2.434,0,0,1,.064-.835l.135-.4c.317-.952.645-1.936,1.056-2.854.383-.855.834-1.7,1.27-2.52.193-.363.386-.726.574-1.089l.291-.564-.635-.014c-.172,0-.331-.01-.48-.016a2.723,2.723,0,0,0-2.97,1.356.272.272,0,0,1-.071.019,1.264,1.264,0,0,1-.993-.322,1.011,1.011,0,0,1-.336-.788,1.052,1.052,0,0,0-1.1-1.182,1.6,1.6,0,0,0-1.8,1.469,1.979,1.979,0,0,0,.775,1.9q-.144.294-.284.584c-.319.658-.62,1.279-.952,1.89a10.513,10.513,0,0,1-2.3,3.155c-.382.323-.615.475-.747.368a1.352,1.352,0,0,1-.061-.816A19.206,19.206,0,0,1,29.558,9.3c.078-.123.171-.244.27-.372.05-.065.1-.13.149-.2l.392-.53-.651-.1a3.478,3.478,0,0,0-3.449,1.027,3.264,3.264,0,0,0-3.209-1.161,5.461,5.461,0,0,0-3.188,1.7,10.655,10.655,0,0,0-1.99,2.871,1.422,1.422,0,0,0-.655-.856l-.377-.237-.193.4a11.635,11.635,0,0,1-5.679,5.292,7.49,7.49,0,0,1-4.111.8,3.054,3.054,0,0,1-2.852-2.305,5.1,5.1,0,0,1-.222-1.352A12.809,12.809,0,0,1,10.68,2.615,6.678,6.678,0,0,1,14.5,1.778a1.333,1.333,0,0,1,1.162.632A1.26,1.26,0,0,1,15.5,3.667a2.42,2.42,0,0,1-2.358,1.164.951.951,0,0,0-.738.176,1.237,1.237,0,0,0-.354,1.061,1.193,1.193,0,0,0,.624.9,2.254,2.254,0,0,0,1.093.271,4.638,4.638,0,0,0,3.987-2.282,2.975,2.975,0,0,0,.41-2.3A3,3,0,0,0,16.671.833,6.649,6.649,0,0,0,15.407.321L15.172.243a5.639,5.639,0,0,0-.7-.173c-.1-.019-.192-.039-.287-.06L11.994,0l-.069.006A12.514,12.514,0,0,0,7.46,1.59,15.243,15.243,0,0,0,.1,13.014c-.016.118-.038.234-.059.351l-.031.172L0,14.045,0,14.1c.012.092.025.185.038.277.028.2.054.384.07.572a5.032,5.032,0,0,0,3.953,4.706,9.578,9.578,0,0,0,2.454.31,12.041,12.041,0,0,0,1.758-.135,12.747,12.747,0,0,0,8.538-4.592,4.622,4.622,0,0,0,.393-.584,9.277,9.277,0,0,0-.081,2.8,2.1,2.1,0,0,0,.89,1.565,2.071,2.071,0,0,0,1.773.166,5.224,5.224,0,0,0,2.042-1.159,18.61,18.61,0,0,0,1.721-2.031l.248-.322a14.863,14.863,0,0,0-.047,1.783,1.779,1.779,0,0,0,2.855,1.583,7.986,7.986,0,0,0,2-1.639,24.581,24.581,0,0,0,3.693-5.71c.03-.06.058-.121.087-.181.248-.525.34-.673.828-.578a1.359,1.359,0,0,0,.634-.045c-.2.39-.392.792-.557,1.208a11.21,11.21,0,0,0-.74,2.386,13.435,13.435,0,0,0-.2,3.252,1.811,1.811,0,0,0,.809,1.445,1.684,1.684,0,0,0,.885.236,2.525,2.525,0,0,0,.952-.2,3.8,3.8,0,0,0,1.248-.773c.57-.567,1.11-1.175,1.633-1.763l.326-.366a3.322,3.322,0,0,0,3.1,3.013,5.8,5.8,0,0,0,5.247-1.963c.327-.336.62-.7.924-1.074a3.381,3.381,0,0,0,3.252,3.064,5.67,5.67,0,0,0,5-1.895,14.474,14.474,0,0,0,1.842-2.36c.542-.863,1.044-1.765,1.529-2.637.256-.461.512-.921.775-1.378a.86.86,0,0,1,.082-.116,2.527,2.527,0,0,0,1.156-.1,14.534,14.534,0,0,0-1.306,3.52,7.759,7.759,0,0,0-.163,3.612,1.832,1.832,0,0,0,.866,1.217,1.777,1.777,0,0,0,1.449.082,5.23,5.23,0,0,0,1.507-.814,15.4,15.4,0,0,0,3.774-4.952,2.109,2.109,0,0,0,.207-.911c.008-.118.016-.229.032-.33l.055-.347Zm-11.682-1.5a3.428,3.428,0,0,1-2.819,2.374c-.471,0-.551-.115-.552-.116-.016-.028-.023-.177.154-.492a5.6,5.6,0,0,1,2.2-2.171,1.836,1.836,0,0,1,.464-.165A1.247,1.247,0,0,1,54.77,9.6a.346.346,0,0,1,.243.069.646.646,0,0,1,.03.539m-9.287.039a3.44,3.44,0,0,1-2.8,2.336c-.479,0-.561-.115-.562-.116-.016-.027-.022-.174.151-.484a5.552,5.552,0,0,1,2.236-2.2,1.785,1.785,0,0,1,.376-.132A1.357,1.357,0,0,1,45.5,9.6a.347.347,0,0,1,.24.065c.064.064.1.249.019.579M21.849,15.594l-.165.157a2.717,2.717,0,0,1-.669.455c-.3.149-.485.158-.555.117s-.154-.208-.178-.547c.037-.156.071-.313.1-.47a8.515,8.515,0,0,1,.278-1.073,9.673,9.673,0,0,1,2.176-3.517,2.571,2.571,0,0,1,2.051-.99,1.287,1.287,0,0,1,.65.287.482.482,0,0,1,.016.19c-1.059,1.736-1.94,3.126-2.772,4.371a6.344,6.344,0,0,1-.937,1.02" transform="translate(0 0)" fill="#fff"/>
  </g>
</svg>
