<svg xmlns="http://www.w3.org/2000/svg" width="42.717" height="37.293" viewBox="0 0 42.717 37.293">
  <g id="Group_34982" data-name="Group 34982" transform="translate(0.499 0.502)">
    <g id="Group_16374" data-name="Group 16374" transform="translate(0 0)">
      <path id="Path_64213" data-name="Path 64213" d="M39.349,38.136c1.16.625,2.381,1.262,3.659,1.927l.4.21-.041-.248c-.259-1.557-.5-3.03-.779-4.5a1.62,1.62,0,0,1,.578-1.633c1.1-1.056,2.238-2.169,3.373-3.281l.027-.026-.306-.048c-1.248-.195-2.427-.379-3.626-.5a2.6,2.6,0,0,1-2.562-1.855,18.5,18.5,0,0,0-1.032-2.12c-.246-.5-.481-.974-.723-1.46l-.364.741c-.594,1.21-1.186,2.416-1.807,3.611a1.9,1.9,0,0,1-1.2.895c-.74.145-1.462.244-2.159.341l-.09.012c-.29.04-.58.081-.87.124-.5.075-.992.151-1.458.224l.21.229c.911.995,1.832,2,2.771,2.974A1.937,1.937,0,0,1,34,35.823c-.167.721-.306,1.5-.408,2.293-.12.721-.234,1.422-.352,2.156l.246-.129c1.335-.7,2.606-1.357,3.866-2.046a1.8,1.8,0,0,1,.963-.27,1.886,1.886,0,0,1,1.037.309" transform="translate(-5.419 -4.389)" fill="#1a73e8" stroke="rgba(0,0,0,0)" stroke-width="1"/>
      <path id="Path_64214" data-name="Path 64214" d="M25.471,33.535q-9.524,0-19.047,0a24.323,24.323,0,0,1-2.58-.1,1.941,1.941,0,0,1-1.733-1.722,4.048,4.048,0,0,1-.054-.661q0-10.13,0-20.26v-.339H32.168c.361,0,.361,0,.361.362q0,2.96,0,5.919L34.562,18.4q-.012-4.337-.025-8.674a15.966,15.966,0,0,0-.055-1.893,4.16,4.16,0,0,0-3.588-3.481c-.619-.057-1.246-.039-1.871-.043-.194,0-.256-.068-.253-.26q.011-.7-.008-1.4A2.727,2.727,0,0,0,26.653.061a2.575,2.575,0,0,0-2.935,2.085,12.9,12.9,0,0,0-.1,1.864c0,.191-.054.256-.251.254-.969-.007-1.939,0-2.908,0-.163,0-.2-.07-.228-.214q-.281-1.258-.589-2.512A1.944,1.944,0,0,0,19,.547a2.347,2.347,0,0,0-3.349.341A3.393,3.393,0,0,0,15.143,2c-.15.627-.217,1.274-.3,1.916-.026.2-.071.3-.309.3-1.035-.014-2.07-.01-3.1,0-.177,0-.225-.053-.22-.225.015-.5.037-1,.015-1.5A2.64,2.64,0,0,0,8.87.025,2.553,2.553,0,0,0,6.21,2.194c-.091.632-.093,1.277-.131,1.915-.007.127-.012.219-.186.213-.477-.019-.954-.006-1.429-.033A4.329,4.329,0,0,0,.138,7.453,7.613,7.613,0,0,0,0,9.435Q0,20.389.012,31.344a4.1,4.1,0,0,0,.161,1.115,4.259,4.259,0,0,0,3.773,3.094c.579.048,1.165.041,1.747.042q5.754,0,11.509,0l7.807,0ZM24.729,2.108a1.324,1.324,0,0,1,1.418-1.073,1.433,1.433,0,0,1,1.448.818,2.105,2.105,0,0,1,.194.829c.024.886.009,1.774.009,2.66h0c0,.9.016,1.791,0,2.686A1.569,1.569,0,0,1,26.3,9.646a1.621,1.621,0,0,1-1.663-1.687c-.007-.451,0-.9-.006-1.355,0-1.216-.012-2.432,0-3.647a3.43,3.43,0,0,1,.1-.85m-8.867.584A1.571,1.571,0,0,1,18.14,1.144a1.555,1.555,0,0,1,.872,1.468q.044,2.722,0,5.445a1.585,1.585,0,0,1-2.641,1.19,1.562,1.562,0,0,1-.513-1.233c-.009-.887,0-1.775,0-2.661s-.012-1.775,0-2.661M7.073,2.88a1.888,1.888,0,0,1,.513-1.466A1.546,1.546,0,0,1,9.3,1.1a1.52,1.52,0,0,1,.951,1.354,19.868,19.868,0,0,1,.012,3.072c-.015.845.006,1.69-.015,2.534A1.529,1.529,0,0,1,8.7,9.633a1.656,1.656,0,0,1-1.614-1.6c-.016-.9,0-1.806,0-2.71h-.01c0-.813,0-1.626,0-2.438" transform="translate(0 0)" fill="#1d2465" stroke="rgba(0,0,0,0)" stroke-width="1"/>
    </g>
  </g>
</svg>
