<svg xmlns="http://www.w3.org/2000/svg" width="55.307" height="12.084" viewBox="0 0 55.307 12.084">
  <g id="Group_34674" data-name="Group 34674" transform="translate(0 0)">
    <g id="Group_31783" data-name="Group 31783" transform="translate(0 0)">
      <path id="Path_80935" data-name="Path 80935" d="M213.429,23.792l-1.453-2.74.79-.419,1.456,2.746a1.11,1.11,0,0,0,.662.615,1.437,1.437,0,0,0,1.5-.793,1.111,1.111,0,0,0-.138-.893l-1.456-2.746.79-.419,1.453,2.74a1.959,1.959,0,0,1,.256,1.059,1.657,1.657,0,0,1-.282.821c-.022.032-.044.063-.068.095a2.64,2.64,0,0,1-1.811.96,1.688,1.688,0,0,1-.957-.221,1.941,1.941,0,0,1-.737-.8" transform="translate(-169.913 -15.344)" fill="#fff"/>
      <path id="Path_80936" data-name="Path 80936" d="M204.766,3.009a2.555,2.555,0,0,1-.3-1.116,1.656,1.656,0,0,1,.268-.954,2.042,2.042,0,0,1,.808-.691A1.845,1.845,0,0,1,207.055.1a2.189,2.189,0,0,1,1.162,1.122l1.16,2.285-.744.378c-.194-.373-.524-1.008-.8-1.538-.331-.625-.605-1.287-1.131-1.478a1.256,1.256,0,0,0-1.014.212c.411-.1.974.611,1.218,1,.182.287.819,1.506,1.133,2.111l-1.063.539-1.06.538Z" transform="translate(-163.889 0)" fill="#fff"/>
      <path id="Path_80937" data-name="Path 80937" d="M4.774,12.43v.744H2.852v6.261h-.92V13.174H0V12.43Z" transform="translate(0 -9.964)" fill="#fff"/>
      <path id="Path_80938" data-name="Path 80938" d="M32.181,22.706h-4.43a1.737,1.737,0,0,0,1.8,1.729,1.709,1.709,0,0,0,1-.276,1.463,1.463,0,0,0,.561-.739H32.1a2.366,2.366,0,0,1-.89,1.291,2.7,2.7,0,0,1-1.659.5,2.816,2.816,0,0,1-1.411-.352,2.5,2.5,0,0,1-.976-1,3.085,3.085,0,0,1-.354-1.5,3.128,3.128,0,0,1,.344-1.5,2.406,2.406,0,0,1,.966-.99,2.889,2.889,0,0,1,1.431-.347,2.8,2.8,0,0,1,1.4.342,2.376,2.376,0,0,1,.936.94,2.759,2.759,0,0,1,.329,1.352,5.4,5.4,0,0,1-.03.553m-1.153-1.643a1.511,1.511,0,0,0-.632-.573,1.983,1.983,0,0,0-.885-.2,1.713,1.713,0,0,0-1.189.442,1.8,1.8,0,0,0-.561,1.226h3.5a1.68,1.68,0,0,0-.233-.9" transform="translate(-21.49 -15.647)" fill="#fff"/>
      <path id="Path_80939" data-name="Path 80939" d="M62.019,17.689l-2.175-2.432v2.432h-.921V10.253h.921v4.371l2.134-2.442h1.285l-2.61,2.743,2.62,2.764Z" transform="translate(-47.231 -8.218)" fill="#fff"/>
      <path id="Path_80940" data-name="Path 80940" d="M82.684,13.718a3.368,3.368,0,0,1,1.269-1.281,3.519,3.519,0,0,1,1.785-.462,3.642,3.642,0,0,1,2.013.553,3.17,3.17,0,0,1,1.254,1.568H87.9a2.206,2.206,0,0,0-.845-.975,2.457,2.457,0,0,0-1.32-.342,2.583,2.583,0,0,0-1.325.342,2.4,2.4,0,0,0-.921.97,3.394,3.394,0,0,0,0,2.934,2.4,2.4,0,0,0,.921.97,2.582,2.582,0,0,0,1.325.342A2.483,2.483,0,0,0,87.058,18a2.175,2.175,0,0,0,.845-.97h1.1a3.147,3.147,0,0,1-1.254,1.553,3.663,3.663,0,0,1-2.013.548,3.549,3.549,0,0,1-1.785-.457A3.341,3.341,0,0,1,82.684,17.4a3.875,3.875,0,0,1,0-3.683" transform="translate(-65.903 -9.598)" fill="#fff"/>
      <path id="Path_80941" data-name="Path 80941" d="M120.691,20.863a2.489,2.489,0,0,1,.946-.99,2.608,2.608,0,0,1,1.34-.352,2.474,2.474,0,0,1,1.264.312,2.084,2.084,0,0,1,.8.784v-1h.931v5.507h-.931V24.093a2.162,2.162,0,0,1-.814.8,2.448,2.448,0,0,1-1.259.317,2.509,2.509,0,0,1-2.276-1.377,3.146,3.146,0,0,1-.344-1.487,3.078,3.078,0,0,1,.344-1.482m4.1.407a1.783,1.783,0,0,0-.683-.709,1.947,1.947,0,0,0-1.886,0,1.751,1.751,0,0,0-.678.7,2.224,2.224,0,0,0-.253,1.085,2.276,2.276,0,0,0,.253,1.1,1.779,1.779,0,0,0,.678.714,1.842,1.842,0,0,0,.941.246,1.871,1.871,0,0,0,.946-.246,1.773,1.773,0,0,0,.683-.714,2.257,2.257,0,0,0,.253-1.09,2.228,2.228,0,0,0-.253-1.085" transform="translate(-96.466 -15.647)" fill="#fff"/>
      <path id="Path_80942" data-name="Path 80942" d="M157.05,19.837a2.448,2.448,0,0,1,1.259-.316,2.61,2.61,0,0,1,1.34.352,2.487,2.487,0,0,1,.946.99,3.077,3.077,0,0,1,.344,1.482,3.144,3.144,0,0,1-.344,1.487,2.522,2.522,0,0,1-2.286,1.377,2.426,2.426,0,0,1-1.249-.316,2.268,2.268,0,0,1-.824-.789v3.628h-.921v-8.12h.921v1.015a2.186,2.186,0,0,1,.814-.789m2.7,1.422a1.745,1.745,0,0,0-.683-.7,1.9,1.9,0,0,0-.946-.241,1.849,1.849,0,0,0-.936.246,1.806,1.806,0,0,0-.688.714,2.414,2.414,0,0,0,0,2.171,1.8,1.8,0,0,0,.688.713,1.847,1.847,0,0,0,.936.246,1.869,1.869,0,0,0,.946-.246,1.771,1.771,0,0,0,.683-.713,2.278,2.278,0,0,0,.253-1.1,2.226,2.226,0,0,0-.253-1.085" transform="translate(-124.496 -15.647)" fill="#fff"/>
      <path id="Path_80943" data-name="Path 80943" d="M187.766,24.73h2.721v.754h-3.773V24.73l2.691-4.01h-2.67v-.744h3.732v.744Z" transform="translate(-149.664 -16.012)" fill="#fff"/>
      <rect id="Rectangle_18027" data-name="Rectangle 18027" width="0.921" height="7.436" transform="translate(48.004 2.034)" fill="#fff"/>
      <path id="Path_80944" data-name="Path 80944" d="M256.87,22.706h-4.43a1.737,1.737,0,0,0,1.8,1.729,1.709,1.709,0,0,0,1-.276,1.463,1.463,0,0,0,.561-.739h.991a2.366,2.366,0,0,1-.89,1.291,2.7,2.7,0,0,1-1.659.5,2.816,2.816,0,0,1-1.411-.352,2.5,2.5,0,0,1-.976-1,3.086,3.086,0,0,1-.354-1.5,3.128,3.128,0,0,1,.344-1.5,2.406,2.406,0,0,1,.966-.99,2.889,2.889,0,0,1,1.431-.347,2.8,2.8,0,0,1,1.4.342,2.375,2.375,0,0,1,.936.94,2.759,2.759,0,0,1,.329,1.352,5.388,5.388,0,0,1-.03.553m-1.153-1.643a1.511,1.511,0,0,0-.632-.573,1.983,1.983,0,0,0-.885-.2,1.713,1.713,0,0,0-1.189.442,1.8,1.8,0,0,0-.561,1.226h3.5a1.68,1.68,0,0,0-.233-.9" transform="translate(-201.594 -15.647)" fill="#fff"/>
    </g>
  </g>
</svg>
