<svg xmlns="http://www.w3.org/2000/svg" width="52.067" height="31.313" viewBox="0 0 52.067 31.313">
  <g id="Group_34976" data-name="Group 34976" transform="translate(782.842 -7905.842)">
    <g id="Group_18426" data-name="Group 18426" transform="translate(-782.342 7906.342)">
      <g id="Group_17388" data-name="Group 17388" transform="translate(0 0)">
        <path id="Path_64191" data-name="Path 64191" d="M56.892,5.007l-7.338,6.246v7.526l7.338,6.246Z" transform="translate(-9.896 -0.498)" fill="#1a73e8" stroke="rgba(0,0,0,0)" stroke-width="1"/>
        <g id="Group_16366" data-name="Group 16366" transform="translate(0 0)">
          <g id="Group_16367" data-name="Group 16367">
            <path id="Path_64192" data-name="Path 64192" d="M56.832,28.571a3.836,3.836,0,0,1-2.4-.826l-8.08-6.395a3.337,3.337,0,0,1-1.3-2.62V9.862a3.335,3.335,0,0,1,1.3-2.619L54.44.846a3.861,3.861,0,0,1,2.4-.823h.012a3.809,3.809,0,0,1,2.609,1.013,3.292,3.292,0,0,1,1.075,2.432V25.129a3.294,3.294,0,0,1-.887,2.239,3.773,3.773,0,0,1-2.521,1.192c-.1.008-.2.011-.293.011m.006-26.024a1.024,1.024,0,0,0-.638.219l-8.087,6.4a.887.887,0,0,0-.346.7v8.869a.889.889,0,0,0,.346.7l8.085,6.4a1.043,1.043,0,0,0,.716.218,1,1,0,0,0,.669-.316.873.873,0,0,0,.235-.6V3.464a.877.877,0,0,0-.285-.649,1.013,1.013,0,0,0-.693-.268Z" transform="translate(-9.466 -0.023)" fill="#1e2663" stroke="rgba(0,0,0,0)" stroke-width="1"/>
            <path id="Path_64193" data-name="Path 64193" d="M29.156,24.594H12.278A6.285,6.285,0,0,1,6,18.317V6.278A6.285,6.285,0,0,1,12.278,0H29.156a6.284,6.284,0,0,1,6.277,6.278V18.317a6.284,6.284,0,0,1-6.277,6.278M12.278,2.016A4.267,4.267,0,0,0,8.016,6.278V18.317a4.267,4.267,0,0,0,4.262,4.262H29.156a4.266,4.266,0,0,0,4.261-4.262V6.278a4.266,4.266,0,0,0-4.261-4.262Z" transform="translate(-1.856 1.478)" fill="#1e2663" stroke="rgba(0,0,0,0)" stroke-width="1"/>
            <path id="Path_64194" data-name="Path 64194" d="M26.008,32.328a6.772,6.772,0,0,1-2.037.313H9.048a6.794,6.794,0,0,1-6.787-6.787v-6.1H0v6.1A9.058,9.058,0,0,0,9.048,34.9H23.971a9.006,9.006,0,0,0,2.037-.24Z" transform="translate(0 -4.59)" fill="#1a73e8" stroke="rgba(0,0,0,0)" stroke-width="1"/>
          </g>
        </g>
      </g>
    </g>
  </g>
</svg>
