<svg id="Group_35386" data-name="Group 35386" xmlns="http://www.w3.org/2000/svg" width="43.117" height="47.563" viewBox="0 0 43.117 47.563">
  <g id="Group_35387" data-name="Group 35387" transform="translate(0 0)">
    <path id="Path_96514" data-name="Path 96514" d="M40.061,33.329c-.647-.306-1.306-.643-1.956-1-.2-.108-.314-.236-.314-.341s.116-.229.307-.336c.72-.4,1.359-.721,1.956-.99a.868.868,0,0,0,.467-1.3c-.455-1.035-.932-2.138-1.337-3.238a.9.9,0,0,0-1.338-.614c-.508.192-1.026.359-1.525.52l-.6.195a.388.388,0,0,1-.342-.105.417.417,0,0,1-.041-.381c.215-.783.455-1.527.712-2.21a.768.768,0,0,0-.483-1.117c-1.263-.507-2.4-.968-3.549-1.465a.73.73,0,0,0-1.086.4c-.3.636-.633,1.311-1.009,1.943a.829.829,0,0,1-.4.356.862.862,0,0,1-.4-.373c-.347-.593-.654-1.231-.951-1.847l-.05-.1a.708.708,0,0,0-1.036-.392c-1.068.459-2.249.946-3.607,1.489a.783.783,0,0,0-.463,1.129c.227.609.481,1.332.677,2.081a.665.665,0,0,1-.057.474.679.679,0,0,1-.482.048c-.593-.158-1.187-.362-1.764-.56L21,25.453a.721.721,0,0,0-1.019.441c-.481,1.21-.989,2.41-1.5,3.607a.769.769,0,0,0,.416,1.1l.248.121c.568.275,1.155.561,1.7.881a.877.877,0,0,1,.366.39.855.855,0,0,1-.379.4c-.523.3-1.086.573-1.629.832l-.269.128a.79.79,0,0,0-.448,1.142c.21.486.413.975.617,1.464.3.717.6,1.434.917,2.143a.917.917,0,0,0,.9.422c.41-.107.812-.238,1.215-.371.342-.113.682-.226,1.029-.321a.777.777,0,0,1,.417,0,.645.645,0,0,1,.105.472,20.974,20.974,0,0,1-.686,2.145.768.768,0,0,0,.47,1.122c1.209.483,2.413.975,3.61,1.485a.705.705,0,0,0,1.032-.395c.3-.631.644-1.349,1.028-2.011a.693.693,0,0,1,.381-.3.681.681,0,0,1,.371.292c.395.672.752,1.413,1.037,2.007a.753.753,0,0,0,.654.508.948.948,0,0,0,.371-.085c1.216-.522,2.44-1.027,3.665-1.529a.716.716,0,0,0,.449-1.016c-.308-.859-.533-1.563-.709-2.213a.681.681,0,0,1,.029-.4.7.7,0,0,1,.5-.077c.7.185,1.387.421,2.148.69a.728.728,0,0,0,1.052-.478c.45-1.142.94-2.313,1.453-3.48a.84.84,0,0,0-.484-1.237m-6.832,3.7a1.14,1.14,0,0,0-.211.365l-.085.178.247.772c.158.494.3.959.467,1.418.094.27.058.35-.209.457l-.456.187a2.5,2.5,0,0,1-.739.249,2.256,2.256,0,0,1-.29-.567c-.056-.129-.118-.275-.194-.442a2.171,2.171,0,0,0-2.284-1.484h-.051a1.8,1.8,0,0,0-2.025,1.36.784.784,0,0,1-.065.13c-.283.554-.482.921-.652.975s-.546-.133-1.1-.422c-.228-.12-.243-.2-.177-.4.075-.229.147-.459.221-.689.117-.37.234-.739.362-1.105a.928.928,0,0,0-.354-1.172,1.819,1.819,0,0,1-.529-.491,1.546,1.546,0,0,0-2.275-.6,1.107,1.107,0,0,1-.145.052c-.295.088-.527.175-.717.246-.54.2-.539.2-1.032-1.071-.091-.235-.056-.281.137-.378s.414-.207.617-.313c.354-.181.706-.363,1.069-.531a.929.929,0,0,0,.6-1.082,2.236,2.236,0,0,1-.033-.838,1.428,1.428,0,0,0-1.119-1.884,1.278,1.278,0,0,1-.214-.1l-.458-.234a2.663,2.663,0,0,1-.66-.382,1.941,1.941,0,0,1,.177-.506c.071-.17.159-.376.255-.631a.51.51,0,0,1,.184-.269.458.458,0,0,1,.31.039,12.876,12.876,0,0,0,1.769.585,1.323,1.323,0,0,0,1-.263,3.32,3.32,0,0,0,.478-.474,2.513,2.513,0,0,1,.436-.425,1.179,1.179,0,0,0,.44-1.562,9.651,9.651,0,0,1-.493-1.567.579.579,0,0,1,.147-.333L26,23.633a2.778,2.778,0,0,1,.777-.3,1.975,1.975,0,0,1,.252.436c.078.158.172.347.3.576a1.01,1.01,0,0,1,.062.137,1.849,1.849,0,0,0,2.032,1.34h.025a2.133,2.133,0,0,0,2.33-1.543c.22-.545.44-.841.672-.906s.613.091,1.124.476a.528.528,0,0,1,.056.327,13.4,13.4,0,0,1-.5,1.583,1.121,1.121,0,0,0,.438,1.515,1.317,1.317,0,0,1,.466.431,1.46,1.46,0,0,0,2.116.561,4.868,4.868,0,0,1,.566-.2c.179-.056.358-.111.529-.183a.525.525,0,0,1,.315-.05c.084.033.149.156.188.254l.167.4a3,3,0,0,1,.281.809,2.062,2.062,0,0,1-.532.262c-.133.054-.287.118-.463.195a2.143,2.143,0,0,0-1.526,2.4c.056.951.288,1.605,1.272,1.933a.709.709,0,0,1,.129.067c.041.024.082.048.122.068.565.286.9.487.96.672s-.11.539-.438,1.12c-.1.169-.168.209-.432.118l-.43-.147c-.448-.156-.913-.317-1.382-.447a1.062,1.062,0,0,0-.893.149c-.456.4-.873.842-1.278,1.273Z" transform="translate(2.459 2.785)"/>
    <path id="Path_96515" data-name="Path 96515" d="M28.817,26.851h-.042a4.373,4.373,0,0,0-3.1,1.257,4.234,4.234,0,0,0-1.264,3.019h0a4.291,4.291,0,0,0,4.284,4.38h.019a4.329,4.329,0,0,0,.1-8.657m2.154,4.4a2.267,2.267,0,0,1-2.3,2.212,2.293,2.293,0,0,1-2.194-2.379,2.164,2.164,0,0,1,.689-1.527,2.209,2.209,0,0,1,1.64-.63,2.255,2.255,0,0,1,2.164,2.324" transform="translate(3.265 3.59)"/>
    <path id="Path_96516" data-name="Path 96516" d="M21.077,44.462H3.216a.539.539,0,0,1-.142,0V36.4q0-13.819-.01-27.638A.908.908,0,0,1,3.38,8.01q1.039-1.02,2.063-2.053c.882-.883,1.764-1.767,2.66-2.634a.834.834,0,0,1,.469-.2Q16.383,3.1,24.191,3.1h7.238V20.363a15.892,15.892,0,0,1,3.021-.3l.039,0V19.4q0-8.882.011-17.763A1.65,1.65,0,0,0,34.1.4,1.629,1.629,0,0,0,32.922,0Q20.457.032,7.99.006h0a2.254,2.254,0,0,0-1.705.72Q5.167,1.858,4.042,2.981C2.93,4.094,1.816,5.208.721,6.34A2.607,2.607,0,0,0,.032,8.024Q.013,18.406.012,28.788.009,37.38,0,45.97a1.631,1.631,0,0,0,.4,1.192,1.636,1.636,0,0,0,1.207.4h.007q11.028-.019,22.055,0a15.893,15.893,0,0,1-2.593-3.1" transform="translate(0 0)" fill="#1a73e9"/>
    <rect id="Rectangle_1" data-name="Rectangle 1" width="13.605" height="2.948" transform="translate(10.644 12.924)" fill="#1a73e9"/>
    <rect id="Rectangle_2" data-name="Rectangle 2" width="9.07" height="2.948" transform="translate(10.644 21.427)" fill="#1a73e9"/>
  </g>
</svg>
