<svg xmlns="http://www.w3.org/2000/svg" width="47.969" height="55.24" viewBox="0 0 47.969 55.24">
  <g id="Group_35399" data-name="Group 35399" transform="translate(0 0)">
    <g id="Group_35400" data-name="Group 35400" transform="translate(0 0)">
      <path id="Path_96526" data-name="Path 96526" d="M47.752,48.523a1.131,1.131,0,0,0,.041-1.273c-2.905-5.052-5.532-9.6-8.029-13.89a1.242,1.242,0,0,1,.048-1.531,19.61,19.61,0,0,0,3.415-16.78,19.841,19.841,0,0,0-38.546.12A19.3,19.3,0,0,0,7.922,31.6l.031.043c.618.871.621.98.063,1.948Q6.552,36.123,5.1,38.637L3.671,41.12Q1.98,44.051.287,46.982A1.369,1.369,0,0,0,.3,48.675a1.323,1.323,0,0,0,1.582.418c.758-.215,1.517-.424,2.277-.633l.217-.06c1.084-.3,2.2-.607,3.3-.928a1.719,1.719,0,0,1,.455-.079.706.706,0,0,1,.362.09.972.972,0,0,1,.411.671c.477,1.93,1,3.908,1.591,6.048a1.509,1.509,0,0,0,.475.724,1.22,1.22,0,0,0,1,.3,1.75,1.75,0,0,0,1.115-.928l1.026-1.78q3.512-6.084,7.013-12.173a1.139,1.139,0,0,1,1.221-.66c.37.043.756.055,1.127.067l.093,0,.422.016c.148-.007.3-.009.462-.012a7.925,7.925,0,0,0,1.036-.064,1.247,1.247,0,0,1,1.409.759c2.211,3.867,4.475,7.79,6.665,11.584l1.4,2.422a1.354,1.354,0,0,0,2.545-.365c.239-.947.485-1.891.731-2.836.276-1.056.552-2.113.816-3.173a.891.891,0,0,1,.392-.613.934.934,0,0,1,.728-.017c.533.165,1.083.313,1.615.457l.675.183q.579.161,1.154.324l.032.01c.871.245,1.77.5,2.66.724a1.294,1.294,0,0,0,1.451-.627m-29.44-8.636h0q-1.8,3.1-3.594,6.205l-1.752,3.033a2.458,2.458,0,0,1-.2.284c-.03.036-.058.071-.085.108l-.09.119L12.06,49.6l-.219-.816c-.07-.264-.142-.528-.214-.792-.077-.281-.151-.564-.223-.847-.171-.66-.348-1.344-.581-2a1.149,1.149,0,0,0-1.6-.846c-.823.194-1.658.425-2.464.648l-.075.02c-.358.1-.719.2-1.08.3-.122.032-.245.061-.413.1l-.832.191.323-.756a2.836,2.836,0,0,1,.161-.354l1.771-3.078q1.719-2.983,3.43-5.968a.89.89,0,0,1,.564-.5.839.839,0,0,1,.68.259,19.211,19.211,0,0,0,6.541,3.618.849.849,0,0,1,.607.436.8.8,0,0,1-.124.668m5.607-2.811h-.1a17.215,17.215,0,0,1,.138-34.429h.051A17.213,17.213,0,0,1,36.037,32.1a17.1,17.1,0,0,1-12.118,4.978m18.642,8.259c-.315-.088-.581-.162-.851-.232-.3-.079-.6-.161-.9-.243-.735-.2-1.471-.4-2.2-.556-.866-.182-1.253.049-1.517.874s-.485,1.683-.7,2.508c-.1.385-.2.771-.3,1.156-.038.136-.08.271-.122.405l-.117.368-.532.1-.63-1.068c-.274-.465-.549-.931-.819-1.4q-1.536-2.667-3.067-5.337l-1.089-1.9c-.2-.343-.31-.568-.22-.8.1-.253.381-.348.71-.458a19.56,19.56,0,0,0,6.468-3.629.807.807,0,0,1,.641-.245.792.792,0,0,1,.514.442q1.525,2.655,3.054,5.3l2.209,3.836a2.071,2.071,0,0,1,.142.338c.031.09.062.18.105.292l.193.512Z" transform="translate(0 0)" fill="#1a73e9"/>
      <path id="Path_96527" data-name="Path 96527" d="M11.8,45.863c-.128-.473-.252-.947-.382-1.418-.264-.957-.478-1.931-.811-2.863A1.41,1.41,0,0,0,8.683,40.56c-1.217.286-2.418.643-3.628.965-.183.049-.368.087-.7.164.123-.282.174-.438.254-.578,1.732-3.016,3.474-6.028,5.2-9.047.233-.407.438-.489.823-.163a19.386,19.386,0,0,0,6.635,3.669c.385.125.595.244.327.7-1.793,3.074-3.565,6.159-5.348,9.238a3.865,3.865,0,0,1-.271.364l-.176-.01" transform="translate(0.477 3.477)" fill="#fff"/>
      <path id="Path_96528" data-name="Path 96528" d="M12.082,46.062l-.386-.024-.141-.527c-.09-.335-.179-.67-.271-1q-.115-.421-.223-.844c-.172-.667-.351-1.355-.584-2.007a1.249,1.249,0,0,0-1.729-.915c-.829.2-1.666.426-2.475.65-.382.105-.765.212-1.147.314-.121.032-.243.06-.408.1l-.619.142.13-.3c.042-.1.075-.182.105-.254a2.682,2.682,0,0,1,.155-.341l1.772-3.079Q7.98,34.984,9.692,32a.79.79,0,0,1,.486-.443.774.774,0,0,1,.589.234,19.33,19.33,0,0,0,6.577,3.639c.239.077.458.163.537.37a.7.7,0,0,1-.115.574q-1.808,3.1-3.6,6.205l-1.752,3.032a2.291,2.291,0,0,1-.2.271q-.045.053-.087.11ZM9.3,40.333a1.515,1.515,0,0,1,1.488,1.208c.237.667.417,1.363.591,2.035.072.281.145.562.222.84.092.335.182.671.272,1.006l.071.266.016-.02a1.73,1.73,0,0,0,.166-.227l1.752-3.032q1.793-3.106,3.6-6.208c.111-.189.1-.263.093-.286-.029-.075-.231-.141-.328-.172a19.609,19.609,0,0,1-6.689-3.7c-.14-.118-.253-.174-.317-.16s-.158.107-.256.279Q8.271,35.15,6.55,38.132L4.778,41.21a2.209,2.209,0,0,0-.12.262c.152-.034.269-.06.382-.091.383-.1.765-.208,1.145-.313.812-.225,1.652-.457,2.488-.654a2.735,2.735,0,0,1,.63-.081" transform="translate(0.45 3.46)" fill="#f2f2f2"/>
      <path id="Path_96529" data-name="Path 96529" d="M23.094,5.347h-.08A13.938,13.938,0,0,0,9.041,19.307,14.024,14.024,0,0,0,22.78,33.227h.08a13.94,13.94,0,0,0,.234-27.88m7.587,21.818a11.039,11.039,0,0,1-7.745,3.145h-.108a11.036,11.036,0,0,1,.144-22.072h.08a10.918,10.918,0,0,1,7.763,3.27A11.08,11.08,0,0,1,34,19.443a10.832,10.832,0,0,1-3.318,7.721" transform="translate(0.992 0.586)"/>
      <path id="Path_96530" data-name="Path 96530" d="M29.523,14.721a4.312,4.312,0,0,1-.576,1q-3.815,3.86-7.679,7.674a1.371,1.371,0,0,1-2.041.131c-1.307-1.185-2.561-2.434-3.767-3.722a1.444,1.444,0,0,1,.265-2.036,1.471,1.471,0,0,1,2.056-.081c.656.577,1.272,1.2,1.869,1.841.356.381.6.381.968,0q2.993-3.039,6.029-6.036a1.564,1.564,0,0,1,2.6.38,5.334,5.334,0,0,1,.279.843" transform="translate(1.661 1.422)"/>
    </g>
  </g>
</svg>
