<svg xmlns="http://www.w3.org/2000/svg" width="38.74" height="47.563" viewBox="0 0 38.74 47.563">
  <g id="Group_35371" data-name="Group 35371" transform="translate(0 0)">
    <g id="Group_35372" data-name="Group 35372" transform="translate(0 0)">
      <path id="Path_96502" data-name="Path 96502" d="M0,23.767Q0,13.5,0,3.231A2.952,2.952,0,0,1,2.246.079,2.946,2.946,0,0,1,2.984,0Q13.557,0,24.13.009A1.061,1.061,0,0,1,24.805.3q6.168,6.137,12.313,12.3c.445.445.909.874,1.324,1.347a1.144,1.144,0,0,1,.278.685q.021,8.224.007,16.447c0,4.338-.007,8.678.013,13.016a3.42,3.42,0,0,1-.819,2.558,2.772,2.772,0,0,1-2.072.9H13.6q-5.187,0-10.375,0A2.933,2.933,0,0,1,.007,44.346q0-10.289,0-20.579Zm2.9.01v3.43q0,8.421,0,16.842c0,.612-.007.613.628.613q5.011,0,10.022-.006,10.881,0,21.76.008c.409,0,.517-.126.516-.524-.014-3.694-.008-7.388-.008-11.081q0-8.487.008-16.973c0-.423-.118-.548-.542-.546-2.726.018-5.452.011-8.176.009a3.418,3.418,0,0,1-3.621-3.6c0-2.844-.008-5.687.009-8.531,0-.409-.118-.526-.522-.525q-9.714.017-19.43.011c-.639,0-.643,0-.643.647q0,10.114,0,20.228M32.74,12.661,26.391,6.245c0,1.9-.006,3.863,0,5.825,0,.414.225.588.7.589,1.523,0,3.045,0,4.568,0H32.74" transform="translate(0 0)" fill="#1a73e9"/>
      <path id="Path_96503" data-name="Path 96503" d="M18.533,28.689c-3.515,0-7.031,0-10.546-.008a2.506,2.506,0,0,1-.936-.177,1.392,1.392,0,0,1-.784-1.445,1.468,1.468,0,0,1,1.192-1.246,3.36,3.36,0,0,1,.525-.038q10.589,0,21.18.008a1.464,1.464,0,0,1,1.568.951,1.416,1.416,0,0,1-.877,1.842,3.181,3.181,0,0,1-.907.116q-5.208.012-10.415,0Z" transform="translate(0.903 3.721)"/>
      <path id="Path_96504" data-name="Path 96504" d="M18.521,35.087c-3.53,0-7.06.007-10.59-.011a2.21,2.21,0,0,1-1.037-.26,1.325,1.325,0,0,1-.582-1.525,1.435,1.435,0,0,1,1.376-1.1c1.157-.021,2.314-.01,3.471-.009q9.008,0,18.016,0a1.531,1.531,0,0,1,1.474.768,1.429,1.429,0,0,1-1.23,2.122c-1.39.037-2.782.016-4.173.016q-3.361,0-6.723,0v-.006" transform="translate(0.903 4.646)"/>
      <path id="Path_96505" data-name="Path 96505" d="M12.5,14.536a4.619,4.619,0,1,1,4.631-4.762A4.6,4.6,0,0,1,12.5,14.536m.03-6.684a2.078,2.078,0,0,0-2.108,2.119,2.152,2.152,0,0,0,2.071,2.043A2.129,2.129,0,0,0,14.6,9.875,2.1,2.1,0,0,0,12.53,7.851" transform="translate(1.14 0.765)"/>
      <path id="Path_96506" data-name="Path 96506" d="M12.366,13.988c2.954.134,5,1.112,6.279,3.406a5.063,5.063,0,0,1,.6,2.363,1.407,1.407,0,0,1-1.319,1.479,1.363,1.363,0,0,1-1.554-1.315,3.265,3.265,0,0,0-2.986-2.955,4.041,4.041,0,0,0-3.112.779A2.814,2.814,0,0,0,9.146,19.8,1.4,1.4,0,0,1,7.574,21.24a1.479,1.479,0,0,1-1.319-1.668A5.872,5.872,0,0,1,10.2,14.494a16.583,16.583,0,0,1,2.164-.506" transform="translate(0.903 2.019)"/>
    </g>
  </g>
</svg>
