<svg xmlns="http://www.w3.org/2000/svg" width="42.107" height="51.284" viewBox="0 0 42.107 51.284">
  <g id="Group_35368" data-name="Group 35368" transform="translate(0 0)">
    <g id="Group_35369" data-name="Group 35369" transform="translate(0 0)">
      <path id="Path_96498" data-name="Path 96498" d="M42.094,36.647V9.135l0-.566a2.457,2.457,0,0,0-.623-1.616,2.839,2.839,0,0,0-2.2-.985c-.637-.016-1.275-.012-1.912-.01l-.814,0h-.809c-.663,0-1.328,0-2.063,0a6.706,6.706,0,0,0,0-.8,1.945,1.945,0,0,0-1.949-1.9c-.658.016-1.321.012-1.978.007l-.762,0h-.165c0-.049,0-.1,0-.152l0-.317a6.24,6.24,0,0,1,.006-.662,1.869,1.869,0,0,0-.541-1.39A2.212,2.212,0,0,0,26.694,0h-.007Q21.208.024,15.732,0h0a2.107,2.107,0,0,0-2.034,1.72c-.037.488-.057.977-.072,1.465,0,.03,0,.055,0,.076H12.479c-.76,0-1.515,0-2.274.007a1.766,1.766,0,0,0-1.55,1.016,2.334,2.334,0,0,0-.231,1.366c0,.091.007.182.009.274v.018H8.409q-2.624-.02-5.249,0a5.965,5.965,0,0,0-1.031.129l-.178.033a2.553,2.553,0,0,0-1.94,2.4c0,.131,0,.263,0,.393C0,9.007,0,9.114,0,9.223V47.851c0,.121,0,.242.009.363,0,.15.009.3.006.449a2.444,2.444,0,0,0,.709,1.767,2.84,2.84,0,0,0,1.981.847q6.742.007,13.478.007,6.146,0,12.292,0a1.038,1.038,0,0,0,.641-.2l.143-.118a16.006,16.006,0,0,0,1.249-1.1q5.3-5.377,10.579-10.774l.342-.344c.65-.649.694-.75.673-1.551,0-.147-.009-.326-.009-.549M30.149,39.058a.956.956,0,0,1,.692-.24h.017c1.582.016,3.161.012,4.746.011h1.773c-2.466,2.512-4.936,5.023-7.463,7.558q-.006-2,0-4l0-2.65a.93.93,0,0,1,.242-.682m-3.065,9.181c0,.06,0,.145,0,.213-.064,0-.145,0-.21,0H3.155a1.451,1.451,0,0,1-.338-.028l0-39.13,0-.4c0-.052,0-.086,0-.1a1.1,1.1,0,0,1,.116-.01c.152,0,.3,0,.454,0l4.967,0h.069c0,.018,0,.039,0,.063,0,.524,0,1.048,0,1.572A1.876,1.876,0,0,0,9.4,12.228a2.812,2.812,0,0,0,1.25.3c2.19.015,4.378.014,6.571.012H31.367a2.053,2.053,0,0,0,1.92-.857,2.708,2.708,0,0,0,.369-1.12,10.329,10.329,0,0,0,.022-1.185c0-.174,0-.346,0-.52,0-.028,0-.052,0-.072h5.394a1.213,1.213,0,0,0,.2,0A1.5,1.5,0,0,1,39.285,9v27H37.324q-3.338,0-6.673,0h0a3.467,3.467,0,0,0-2.813,1.386,3.575,3.575,0,0,0-.747,2.287q-.009,3.141,0,6.279Zm.428-42.19c.383.028.771.026,1.158.025h2.179V7.41c0,.747,0,1.493,0,2.277-.072,0-.15,0-.286,0H11.238c0-.049,0-.1,0-.153V6.217c0-.048,0-.1,0-.143H11.4l.888,0c.814,0,1.628.009,2.439-.017a2.46,2.46,0,0,0,1.121-.335,1.408,1.408,0,0,0,.584-1.29c.007-.292.006-.586,0-.878,0-.224,0-.449,0-.673l0-.053H26v.06l0,.427c.007.355.012.711-.009,1.065a1.523,1.523,0,0,0,1.518,1.667" transform="translate(0 0)" fill="#1a73e9"/>
      <path id="Path_96499" data-name="Path 96499" d="M7.826,23.577H31.293a4.976,4.976,0,0,0,.573-.023,1.3,1.3,0,0,0,.956-.647,1.33,1.33,0,0,0,.111-1.16,1.438,1.438,0,0,0-1.472-1H7.716a2.069,2.069,0,0,0-.215,0,1.625,1.625,0,0,0-1.27,1.043,1.451,1.451,0,0,0,.422,1.44,1.55,1.55,0,0,0,1.173.343" transform="translate(1.439 4.835)"/>
      <path id="Path_96500" data-name="Path 96500" d="M7.785,17.822h16q3.712,0,7.426,0a4.939,4.939,0,0,0,.777-.075,1.254,1.254,0,0,0,.956-.859,1.394,1.394,0,0,0-.3-1.416A1.678,1.678,0,0,0,31.3,15H7.874c-.1,0-.21,0-.313.009a1.472,1.472,0,0,0-1.232.767,1.456,1.456,0,0,0,.094,1.432,1.43,1.43,0,0,0,1.362.617" transform="translate(1.441 3.495)"/>
      <path id="Path_96501" data-name="Path 96501" d="M26.372,29.345a1.46,1.46,0,0,0,1.192-1.159,1.374,1.374,0,0,0-.324-1.127,1.433,1.433,0,0,0-1.147-.527c-2.27.018-4.54.015-6.811.014H16.907l-2.395,0c-2.307,0-4.611.006-6.918-.016a1.457,1.457,0,0,0-1.1.6,1.285,1.285,0,0,0-.289,1.1,1.518,1.518,0,0,0,1.473,1.112H26.118a1.917,1.917,0,0,0,.254-.007" transform="translate(1.437 6.183)"/>
    </g>
  </g>
</svg>
