<svg xmlns="http://www.w3.org/2000/svg" width="37.805" height="48.06" viewBox="0 0 37.805 48.06">
  <g id="Group_35600" data-name="Group 35600" transform="translate(0.25 0.25)">
    <g id="Group_35601" data-name="Group 35601" transform="translate(0 0)">
      <path id="Path_96737" data-name="Path 96737" d="M37.305,5.134A4.957,4.957,0,0,0,32.189,0Q25.429,0,18.669,0T5.149.006A4.912,4.912,0,0,0,.014,5.112q-.019,6.951-.01,13.9V23.44l0,4.808Q0,35.461.01,42.675a4.931,4.931,0,0,0,4.926,4.879q3.236.014,6.465.006h3.622q8.689,0,17.38-.019a4.941,4.941,0,0,0,4.891-5q.01-6.712,0-13.426V23.666h.008ZM34.211,42.256a1.9,1.9,0,0,1-1.289,2.1,2.209,2.209,0,0,1-.736.112q-10.395.012-20.791.01c-.619,0-1.237-.006-1.856-.011-1.352-.009-2.751-.023-4.124.024H5.293a2.187,2.187,0,0,1-1.587-.563,2.35,2.35,0,0,1-.625-1.747c.026-4.525.022-9.126.018-13.576L3.09,5.2A1.9,1.9,0,0,1,5.164,3.1q13.467,0,26.938,0a1.924,1.924,0,0,1,2.115,2.071q0,18.544-.007,37.088" transform="translate(0 0)" stroke="#fff" stroke-width="0.5"/>
      <path id="Path_96738" data-name="Path 96738" d="M9.216,28.065q-1.343,0-2.687,0a1.128,1.128,0,0,1-1.245-1.2q-.024-2.7,0-5.4a1.142,1.142,0,0,1,1.271-1.211q2.631,0,5.262,0a1.155,1.155,0,0,1,1.3,1.289q.007,2.616,0,5.234a1.129,1.129,0,0,1-1.271,1.28c-.877,0-1.754,0-2.631,0v.006m-.02-2.21v0c.475,0,.951-.007,1.426,0,.19,0,.264-.055.261-.253q-.01-1.44,0-2.879c0-.19-.067-.268-.26-.267q-1.426.01-2.85,0c-.2,0-.258.073-.257.264q.01,1.44,0,2.879c0,.194.058.261.254.256.475-.011.951,0,1.426,0" transform="translate(0.717 2.755)" fill="#1a73e9"/>
      <path id="Path_96739" data-name="Path 96739" d="M22.969,24.2c2.222,0,3.307,0,5.529,0a1.1,1.1,0,0,1,1.147,1.222,1.123,1.123,0,0,1-1.183,1c-.71.008-1.419,0-2.129,0l-9.9,0a1.159,1.159,0,0,1-1.23-.771A1.1,1.1,0,0,1,16.275,24.2c1.447-.009,2.895,0,4.341,0q1.178,0,2.353,0Z" transform="translate(2.062 3.291)" fill="#1a73e9"/>
      <path id="Path_96740" data-name="Path 96740" d="M22.955,10.642q-3.333,0-6.665,0a1.1,1.1,0,0,1-1.122-.933,1.069,1.069,0,0,1,.679-1.186,1.528,1.528,0,0,1,.546-.089q5.068-.005,10.136,0c1.018,0,.9,0,1.916,0a1.1,1.1,0,1,1,.094,2.2c-1.447.007-1.757,0-3.2,0h-2.38Z" transform="translate(2.061 1.147)" fill="#1a73e9"/>
      <path id="Path_96741" data-name="Path 96741" d="M22.951,22.458c-2.2,0-4.406-.008-6.608,0a1.108,1.108,0,0,1-1.2-1.1,1.135,1.135,0,0,1,1.221-1.113c4.406,0,7.675,0,12.081,0a1.131,1.131,0,0,1,1.177.838A1.091,1.091,0,0,1,29,22.362a1.588,1.588,0,0,1-.6.1c-2.194.007-3.25,0-5.444,0v0" transform="translate(2.061 2.755)" fill="#1a73e9"/>
      <path id="Path_96742" data-name="Path 96742" d="M22.984,12.387c2.231,0,3.325,0,5.556,0a1.092,1.092,0,1,1,.015,2.185c-1.12.011-1.1.007-2.223.008q-4.984,0-9.969,0a1.108,1.108,0,0,1-1.18-.861,1.083,1.083,0,0,1,1.025-1.333c.8-.01,1.606,0,2.408,0h4.368v0" transform="translate(2.061 1.684)" fill="#1a73e9"/>
      <path id="Path_96743" data-name="Path 96743" d="M6.264,10.654a1.389,1.389,0,0,1,.976.394c.4.4.8.783,1.185,1.189.173.183.279.165.45-.007,1.134-1.147,2.279-2.285,3.418-3.427a1.118,1.118,0,0,1,.874-.366,1.045,1.045,0,0,1,.935.609.983.983,0,0,1-.085,1.108,12.621,12.621,0,0,1-.915.98q-2.091,2.1-4.191,4.194c-.262.262-.259.265-.52,0-.9-.9-1.811-1.8-2.708-2.713a1.078,1.078,0,0,1-.037-1.631,2.609,2.609,0,0,1,.619-.335" transform="translate(0.72 1.148)" fill="#1a73e9"/>
    </g>
  </g>
</svg>
