<svg xmlns="http://www.w3.org/2000/svg" width="45.799" height="45.796" viewBox="0 0 45.799 45.796">
  <g id="Group_35597" data-name="Group 35597" transform="translate(0 0)">
    <g id="Group_35598" data-name="Group 35598" transform="translate(0 0)">
      <path id="Path_96732" data-name="Path 96732" d="M13.311.836a1.336,1.336,0,0,0-1.35-.82h-.588C9.838.011,8.251.011,6.692.026A6.51,6.51,0,0,0,2.857,1.265,6.6,6.6,0,0,0,.019,6.748C-.008,8.091,0,9.437.006,10.74l0,1.139A2.408,2.408,0,0,0,.1,12.5a1.256,1.256,0,0,0,.633.776,1.3,1.3,0,0,0,1.018.069,1.382,1.382,0,0,0,.911-1.479c0-.514,0-1,.006-1.488C2.68,9.176,2.688,8,2.656,6.836a4.086,4.086,0,0,1,4.19-4.169c.515.019,1.037.013,1.539.008h3.467a1.53,1.53,0,0,0,1.225-.456A1.241,1.241,0,0,0,13.311.836" transform="translate(0 0.001)" fill="#1a1818"/>
      <path id="Path_96733" data-name="Path 96733" d="M39.089,12.626a1.283,1.283,0,0,0,1.189.8,2.076,2.076,0,0,0,.241-.021,1.323,1.323,0,0,0,1.069-1.251c.013-.688.01-1.391.007-2.088V6.589A6.675,6.675,0,0,0,36.909.341,10.206,10.206,0,0,0,33.773.014H29.642a1.524,1.524,0,0,0-1.225.6,1.282,1.282,0,0,0-.14,1.174,1.383,1.383,0,0,0,1.389.881h2.028c.971,0,1.944,0,2.915.007.056,0,.112,0,.169,0a5.133,5.133,0,0,1,1.028.106A4.022,4.022,0,0,1,38.975,6.84c.007.795.007,1.6.006,2.4v2.513a2.662,2.662,0,0,0,.109.87" transform="translate(4.142 0)" fill="#1a1818"/>
      <path id="Path_96734" data-name="Path 96734" d="M.012,29.637v.81C0,31.774,0,33.106.023,34.414a11.963,11.963,0,0,0,.221,2.115,6.6,6.6,0,0,0,5.289,4.936c.806.1,1.646.126,2.506.149l.145,0c.319.009.638.019.955.034v-.06h1.412c.534,0,1.077,0,1.615-.011a1.23,1.23,0,0,0,1.16-.841,1.249,1.249,0,0,0-.287-1.381,1.429,1.429,0,0,0-1.139-.389l-.023-.228v0h-.006l.006.231H11.07c-1.431,0-2.864.007-4.3,0H6.695a4,4,0,0,1-3.788-2.706,5.171,5.171,0,0,1-.237-1.594c-.016-.977-.015-1.959-.014-2.943v-2.1a1.47,1.47,0,0,0-.564-1.2,1.294,1.294,0,0,0-.744-.232,1.308,1.308,0,0,0-.423.069,1.34,1.34,0,0,0-.912,1.36" transform="translate(0.001 4.143)" fill="#1a1818"/>
      <path id="Path_96735" data-name="Path 96735" d="M28.211,40.452a1.281,1.281,0,0,0,1.274,1.142h.356c.817.006,1.646.011,2.482.011h.006c.756,0,1.515,0,2.272-.019a10.139,10.139,0,0,0,2.028-.241,6.578,6.578,0,0,0,4.846-5.273c.094-.773.122-1.569.147-2.451l0-.077c.009-.333.018-.666.034-1H41.6V30.31c0-.263,0-.529-.007-.79a1.342,1.342,0,0,0-.647-1.138,1.287,1.287,0,0,0-1.254-.032,1.309,1.309,0,0,0-.719,1.288v1.078c.006,1.333.011,2.712-.017,4.067a4.858,4.858,0,0,1-.289,1.582,4.032,4.032,0,0,1-3.858,2.61c-.8.008-1.619.006-2.43.008H29.775a2.3,2.3,0,0,0-.752.1,1.259,1.259,0,0,0-.812,1.372" transform="translate(4.142 4.142)" fill="#1a1818"/>
      <path id="Path_96736" data-name="Path 96736" d="M28.521,17.377c.161-.052.253-.076.341-.111q3.145-1.278,6.288-2.562a1.247,1.247,0,0,1,1.879,1.262q0,5.034,0,10.067a1.248,1.248,0,0,1-1.9,1.236q-3.179-1.307-6.365-2.6a2.274,2.274,0,0,0-.245-.064V27.1a2.387,2.387,0,0,1-2.656,2.678H9.212a2.369,2.369,0,0,1-2.6-2.607q0-6.186,0-12.374a2.358,2.358,0,0,1,2.6-2.593q8.326,0,16.654,0a2.374,2.374,0,0,1,2.65,2.676c0,.81,0,1.619,0,2.494m-2.475-2.7H9.1V27.32h16.95Zm8.515,2.933c-.157.055-.288.1-.414.147q-2.192.888-4.385,1.78c-.411.167-.958.257-1.174.569-.205.295-.058.834-.067,1.266a1.6,1.6,0,0,1,0,.21c-.041.266.081.385.329.484,1.582.631,3.155,1.282,4.732,1.924.315.128.634.244.979.377Z" transform="translate(0.971 1.793)" fill="#1a73e9"/>
    </g>
  </g>
</svg>
