<svg xmlns="http://www.w3.org/2000/svg" xmlns:xlink="http://www.w3.org/1999/xlink" width="1403" height="383" viewBox="0 0 1403 383">
  <defs>
    <clipPath id="clip-path">
      <rect id="Rectangle_13554" data-name="Rectangle 13554" width="1403" height="383" transform="translate(0 170)" fill="#fff" stroke="#707070" stroke-width="1"/>
    </clipPath>
    <clipPath id="clip-path-2">
      <rect id="Rectangle_13539" data-name="Rectangle 13539" width="997" height="1107.692" transform="translate(0 0)"/>
    </clipPath>
    <clipPath id="clip-path-3">
      <rect id="Rectangle_13538" data-name="Rectangle 13538" width="1466" height="1950.551" transform="translate(0 0)"/>
    </clipPath>
    <clipPath id="clip-path-4">
      <path id="Path_69733" data-name="Path 69733" d="M375.606,1474.115,2613.365-164.217,2011.732,2741.658-226.027,4379.99Z" transform="translate(0 0)"/>
    </clipPath>
    <clipPath id="clip-path-5">
      <path id="Path_69732" data-name="Path 69732" d="M689.733,1508.791,3008.793-189.065,1986.361,4749.262-332.7,6447.119Z"/>
    </clipPath>
    <clipPath id="clip-path-6">
      <path id="Path_76630" data-name="Path 76630" d="M0,0,455.564,103.584l105,573.434L105,573.434Z" fill="#202a5f"/>
    </clipPath>
  </defs>
  <g id="Mask_Group_7425" data-name="Mask Group 7425" transform="translate(0 -170)" clip-path="url(#clip-path)">
    <g id="Group_19040" data-name="Group 19040" transform="translate(-101.943 -310.914)">
      <g id="Mask_Group_7422" data-name="Mask Group 7422" transform="translate(507.924 0)" opacity="0.37" clip-path="url(#clip-path-2)">
        <g id="Mask_Group_7421" data-name="Mask Group 7421" transform="translate(-31 -789.893)" opacity="0.189" clip-path="url(#clip-path-3)">
          <g id="Mask_Group_7420" data-name="Mask Group 7420" transform="matrix(0.966, -0.259, 0.259, 0.966, -1420.071, 13.95)" opacity="0.674" clip-path="url(#clip-path-4)">
            <g id="Group_19037" data-name="Group 19037" transform="translate(-252.781 1081.797)">
              <g id="Group_19036" data-name="Group 19036" transform="translate(0 0)" clip-path="url(#clip-path-5)">
                <path id="Path_69686" data-name="Path 69686" d="M312.093,33.42c-39.808-36.195-85.4-34.585-139.372,4.93S57.66,154.359-14.047,272.2l2.06-19.6C60.7,133.123,122.673,55.557,177.463,15.444s101.049-41.784,141.4-5.068Z" transform="translate(1338.822 4961.433)"/>
                <path id="Path_69687" data-name="Path 69687" d="M312.093,33.42c-39.812-36.192-85.4-34.585-139.372,4.93S57.655,154.362-14.047,272.2l2.056-19.593C60.7,133.126,122.673,55.557,177.463,15.444s101.049-41.784,141.4-5.068Z" transform="translate(15.652 5930.166)"/>
                <path id="Path_69688" data-name="Path 69688" d="M482.92,112.854c-41-82.2-96.658-156.179-198.586-81.555S70.759,302.394-25.014,484.728l1.052-17.821C72.815,282.659,185.69,84.085,289.077,8.393S448.756,7.421,490.19,90.48Z" transform="translate(1259.018 4814.839)"/>
                <path id="Path_69689" data-name="Path 69689" d="M482.92,112.852c-41-82.2-96.663-156.175-198.585-81.555S70.755,302.4-25.014,484.727l1.056-17.824C72.811,282.66,185.686,84.087,289.077,8.391s159.675-.969,201.109,82.091Z" transform="translate(-64.147 5783.572)"/>
                <path id="Path_69690" data-name="Path 69690" d="M622.936,205.113C567.04,70.45,509.242-68.792,380.949,25.135S106.247,407.811-35.345,687.061l.783-17.3C108.1,388.407,255.625,97.454,385.692,2.228S574,47.309,630.322,182.979Z" transform="translate(1194.217 4667.345)"/>
                <path id="Path_69691" data-name="Path 69691" d="M622.925,205.114c-55.907-134.681-113.7-273.9-241.987-179.978S106.244,407.793-35.341,687.024l.779-17.285C108.1,388.389,255.619,97.451,385.681,2.228S573.975,47.292,630.294,182.953Z" transform="translate(-128.942 5636.077)"/>
                <path id="Path_69692" data-name="Path 69692" d="M763.087,297.733c-15.247-30.557-29.612-65.181-43.506-98.658C663.683,64.4,605.887-74.869,477.586,19.064S202.881,401.755,61.285,681.02c-35.2,69.424-71.6,141.214-107.215,209.019l1.056-17.824c35.467-67.531,71.8-139.191,106.942-208.495C204.736,382.335,352.262,91.383,482.329-3.843S670.643,41.244,726.957,176.948c13.871,33.417,28.215,67.978,43.4,98.415Z" transform="translate(1129.397 4519.741)"/>
                <path id="Path_69693" data-name="Path 69693" d="M763.091,297.734c-15.244-30.573-29.621-65.187-43.517-98.676-55.9-134.662-113.687-273.923-241.979-180S202.885,401.756,61.3,681C26.086,750.445-10.318,822.238-45.93,890.043l1.052-17.821c35.476-67.537,71.809-139.2,106.95-208.5C204.745,382.333,352.27,91.38,482.337-3.846s188.3,45.084,244.622,180.769c13.867,33.433,28.216,67.99,43.4,98.436Z" transform="translate(-193.781 5488.477)"/>
                <path id="Path_69694" data-name="Path 69694" d="M935.332,377.808C893.446,339.7,862.269,264.615,832.125,191.973,776.228,57.3,718.425-81.941,590.12,12s-274.7,382.661-416.291,661.91C97.452,824.549,18.476,980.294-56.988,1104.316l2.056-19.592C19.9,961.734,98.548,806.617,174.6,656.625,317.273,375.252,464.8,84.315,594.862-10.911S783.184,34.157,839.5,169.858c30.022,72.33,61.064,147.113,102.6,184.906Z" transform="translate(1048.671 4373.18)"/>
                <path id="Path_69695" data-name="Path 69695" d="M933.968,377.89c-41.894-38.1-73.072-113.2-103.225-185.835C774.847,57.393,717.049-81.85,588.757,12.077S314.063,394.734,172.47,673.984C96.594,823.625,18.132,978.372-56.865,1101.95l2.043-19.583C19.552,959.815,97.684,805.725,173.248,656.688,315.91,375.334,463.433,84.4,593.5-10.83S781.8,34.251,838.129,169.921C868.155,242.248,899.2,317.055,940.74,354.845Z" transform="translate(-273.132 5341.83)"/>
                <path id="Path_69696" data-name="Path 69696" d="M1030.891,1234.739c-130.071,95.229-188.3-45.081-244.629-180.752C730.37,919.322,672.575,780.064,544.279,873.994s-274.7,382.676-416.29,661.923C52.112,1685.557-26.349,1840.3-101.346,1963.894l2.046-19.6c74.371-122.548,152.5-276.639,228.063-425.66,142.665-281.37,290.191-572.323,420.258-667.549s188.309,45.078,244.626,180.767c55.9,134.65,113.69,273.907,241.986,179.978s274.709-382.695,416.295-661.926c142.665-281.37,290.191-572.323,420.258-667.549l-4.743,22.907C1739.152-.81,1592.738,287.956,1451.146,567.2c-142.662,281.355-290.183,572.3-420.255,667.534" transform="translate(-196.841 4326.241)"/>
                <path id="Path_69697" data-name="Path 69697" d="M1030.891,1234.753c-130.071,95.229-188.3-45.081-244.626-180.766C730.373,919.321,672.578,780.064,544.281,873.993s-274.7,382.688-416.293,661.938C52.111,1685.573-26.35,1840.319-101.346,1963.909l2.046-19.6c74.371-122.548,152.5-276.653,228.063-425.66,142.668-281.385,290.194-572.338,420.261-667.564s188.309,45.078,244.623,180.782c55.895,134.65,113.69,273.908,241.987,179.978s274.71-382.695,416.295-661.926C1594.6,268.535,1742.122-22.417,1872.189-117.644l-4.743,22.907c-128.292,93.927-274.706,382.692-416.3,661.942-142.665,281.369-290.186,572.319-420.258,667.548" transform="translate(-165.029 4172.582)"/>
                <path id="Path_69698" data-name="Path 69698" d="M1030.889,1234.739c-130.071,95.229-188.3-45.082-244.626-180.767-55.9-134.65-113.69-273.907-241.987-179.978s-274.7,382.673-416.286,661.919c-75.878,149.629-154.339,304.376-229.335,427.965l2.046-19.6c74.367-122.533,152.5-276.639,228.067-425.664,142.665-281.37,290.188-572.307,420.251-667.53s188.309,45.078,244.629,180.751c55.891,134.666,113.687,273.923,241.983,179.993s274.71-382.694,416.3-661.941c142.662-281.355,290.188-572.307,420.255-667.533l-4.743,22.907C1739.15-.809,1592.737,287.955,1451.147,567.19c-142.666,281.37-290.187,572.32-420.259,667.549" transform="translate(-133.214 4018.938)"/>
                <path id="Path_69699" data-name="Path 69699" d="M1030.892,1234.738c-130.071,95.229-188.3-45.081-244.626-180.766-55.895-134.65-113.69-273.908-241.987-179.978s-274.7,382.677-416.29,661.923C52.112,1685.557-26.349,1840.3-101.346,1963.894l2.046-19.6c74.371-122.548,152.5-276.638,228.066-425.676,142.662-281.354,290.188-572.307,420.255-667.533s188.309,45.078,244.63,180.751c55.892,134.665,113.687,273.923,241.983,179.994s274.709-382.695,416.3-661.942c142.662-281.354,290.188-572.307,420.255-667.533l-4.742,22.907C1739.152-.81,1592.739,287.955,1451.149,567.19c-142.665,281.37-290.187,572.32-420.258,667.549" transform="translate(-101.403 3865.278)"/>
                <path id="Path_69700" data-name="Path 69700" d="M1030.892,1234.723c-130.071,95.23-188.3-45.081-244.629-180.751-55.892-134.665-113.69-273.908-241.987-179.978s-274.7,382.673-416.283,661.9c-75.876,149.641-154.342,304.391-229.338,427.98l2.046-19.6c74.371-122.548,152.506-276.642,228.067-425.663,142.665-281.37,290.188-572.307,420.25-667.53s188.312,45.063,244.626,180.767c55.9,134.65,113.693,273.892,241.99,179.962s274.706-382.679,416.291-661.91c142.668-281.385,290.191-572.323,420.258-667.549l-4.743,22.907C1739.15-.81,1592.74,287.94,1451.147,567.19c-142.662,281.354-290.184,572.3-420.255,667.533" transform="translate(-69.59 3711.634)"/>
                <path id="Path_69701" data-name="Path 69701" d="M1030.891,1234.739c-130.071,95.229-188.3-45.082-244.629-180.751C730.371,919.322,672.575,780.064,544.279,873.994s-274.7,382.676-416.29,661.923C52.112,1685.557-26.349,1840.3-101.346,1963.893l2.046-19.6c74.371-122.548,152.5-276.639,228.063-425.66,142.665-281.37,290.191-572.323,420.258-667.549s188.309,45.078,244.626,180.767c55.895,134.65,113.69,273.908,241.986,179.978s274.709-382.695,416.295-661.926c142.665-281.37,290.191-572.323,420.258-667.549l-4.742,22.907c-128.292,93.927-274.706,382.692-416.3,661.942-142.662,281.354-290.184,572.3-420.255,667.534" transform="translate(-37.775 3557.959)"/>
                <path id="Path_69702" data-name="Path 69702" d="M1030.892,1234.723c-130.071,95.23-188.3-45.081-244.63-180.751-55.892-134.665-113.69-273.908-241.986-179.978s-274.694,382.657-416.283,661.9c-75.876,149.641-154.342,304.391-229.338,427.98l2.046-19.6c74.367-122.533,152.506-276.642,228.067-425.664,142.665-281.37,290.188-572.307,420.25-667.53s188.312,45.063,244.626,180.767c55.895,134.65,113.693,273.892,241.99,179.963s274.707-382.679,416.292-661.911C1594.6,268.521,1742.118-22.417,1872.185-117.643l-4.743,22.907C1739.15-.81,1592.74,287.94,1451.147,567.19c-142.663,281.355-290.184,572.3-420.255,667.533" transform="translate(-5.963 3404.315)"/>
                <path id="Path_69703" data-name="Path 69703" d="M1030.893,1234.708c-130.071,95.23-188.3-45.082-244.629-180.751C730.372,919.292,672.57,780.065,544.274,873.994S269.583,1256.637,127.99,1535.886c-75.876,149.641-154.338,304.388-229.334,427.978l2.046-19.6c74.371-122.548,152.5-276.639,228.063-425.66C271.43,1237.236,418.95,946.313,549.017,851.088s188.315,45.047,244.633,180.736c55.889,134.681,113.69,273.908,241.987,179.978s274.7-382.664,416.295-661.926C1594.6,268.506,1742.115-22.417,1872.182-117.643l-4.743,22.907c-128.292,93.927-274.7,382.661-416.291,661.911-142.663,281.355-290.184,572.3-420.256,667.533" transform="translate(25.85 3250.67)"/>
                <path id="Path_69704" data-name="Path 69704" d="M1030.892,1234.723c-130.071,95.229-188.3-45.081-244.629-180.751-55.892-134.665-113.69-273.908-241.986-179.978S269.582,1256.652,127.989,1535.9C52.113,1685.543-26.348,1840.29-101.345,1963.879l2.046-19.6c74.371-122.548,152.5-276.639,228.063-425.661,142.665-281.37,290.188-572.307,420.255-667.533s188.312,45.063,244.63,180.751c55.892,134.666,113.69,273.908,241.986,179.979s274.707-382.68,416.295-661.927c142.665-281.37,290.188-572.307,420.255-667.533l-4.743,22.907C1739.15-.81,1592.74,287.94,1451.147,567.19c-142.663,281.355-290.184,572.3-420.255,667.534" transform="translate(57.662 3097.011)"/>
                <path id="Path_69705" data-name="Path 69705" d="M1030.889,1234.739c-130.071,95.229-188.3-45.082-244.626-180.767-55.892-134.665-113.69-273.908-241.986-179.978s-274.7,382.673-416.29,661.922C52.11,1685.558-26.351,1840.3-101.345,1963.879L-99.3,1944.3c74.371-122.548,152.5-276.654,228.066-425.676,142.662-281.354,290.188-572.307,420.255-667.533s188.309,45.078,244.626,180.766c55.892,134.666,113.69,273.908,241.987,179.978s274.707-382.68,416.295-661.926c142.665-281.37,290.191-572.322,420.258-667.549l-4.743,22.907C1739.149-.81,1592.739,287.94,1451.147,567.19c-142.666,281.37-290.187,572.32-420.258,667.549" transform="translate(89.479 2943.337)"/>
                <path id="Path_69706" data-name="Path 69706" d="M1030.889,1234.739c-130.071,95.229-188.3-45.081-244.626-180.766-55.892-134.665-113.69-273.908-241.987-179.978s-274.7,382.673-416.287,661.908C52.11,1685.558-26.351,1840.3-101.345,1963.879L-99.3,1944.3c74.371-122.548,152.505-276.654,228.071-425.679,142.665-281.37,290.183-572.3,420.25-667.53s188.309,45.078,244.626,180.766c55.892,134.666,113.69,273.908,241.987,179.978s274.706-382.679,416.295-661.926c142.665-281.37,290.191-572.322,420.258-667.549l-4.743,22.907C1739.149-.81,1592.739,287.94,1451.147,567.19c-142.666,281.37-290.187,572.319-420.258,667.549" transform="translate(121.289 2789.692)"/>
                <path id="Path_69707" data-name="Path 69707" d="M1030.89,1234.723c-130.071,95.229-188.3-45.082-244.629-180.751C730.369,919.307,672.57,780.064,544.274,873.994S269.579,1256.652,127.987,1535.9C52.111,1685.543-26.351,1840.29-101.344,1963.863l2.043-19.583c74.371-122.548,152.5-276.638,228.063-425.66,142.665-281.37,290.188-572.307,420.255-667.533s188.312,45.063,244.63,180.751c55.892,134.665,113.69,273.907,241.987,179.978s274.706-382.68,416.295-661.926c142.666-281.37,290.188-572.307,420.255-667.533l-4.743,22.907C1739.147-.81,1592.737,287.94,1451.145,567.19c-142.662,281.354-290.184,572.3-420.255,667.533" transform="translate(153.105 2636.033)"/>
                <path id="Path_69708" data-name="Path 69708" d="M1030.889,1234.739c-130.071,95.229-188.3-45.082-244.626-180.767-55.892-134.665-113.69-273.908-241.987-179.978s-274.7,382.673-416.29,661.923C52.11,1685.558-26.351,1840.3-101.345,1963.879L-99.3,1944.3c74.371-122.548,152.5-276.654,228.066-425.675,142.662-281.354,290.188-572.307,420.255-667.533s188.309,45.078,244.626,180.767c55.892,134.665,113.69,273.908,241.987,179.978s274.706-382.679,416.295-661.926c142.665-281.37,290.191-572.323,420.258-667.549l-4.743,22.907C1739.149-.81,1592.739,287.94,1451.147,567.19c-142.665,281.37-290.187,572.32-420.258,667.549" transform="translate(184.916 2482.374)"/>
                <path id="Path_69709" data-name="Path 69709" d="M1030.889,1234.739c-130.071,95.229-188.3-45.082-244.626-180.767-55.892-134.666-113.69-273.908-241.987-179.978s-274.7,382.676-416.29,661.923C52.11,1685.558-26.351,1840.3-101.345,1963.879L-99.3,1944.3c74.371-122.548,152.5-276.638,228.066-425.675,142.662-281.354,290.188-572.307,420.255-667.533s188.309,45.078,244.626,180.767c55.892,134.665,113.69,273.907,241.986,179.978s274.706-382.679,416.295-661.926c142.665-281.37,290.191-572.323,420.258-667.549l-4.743,22.907C1739.149-.81,1592.739,287.94,1451.147,567.19c-142.665,281.37-290.187,572.319-420.258,667.549" transform="translate(216.73 2328.714)"/>
                <path id="Path_69710" data-name="Path 69710" d="M1030.892,1234.739c-130.071,95.229-188.3-45.081-244.626-180.766-55.892-134.666-113.69-273.908-241.987-179.978s-274.7,382.676-416.29,661.923C52.109,1685.573-26.349,1840.3-101.346,1963.894l2.043-19.583c74.374-122.563,152.5-276.654,228.066-425.676,142.665-281.37,290.191-572.322,420.258-667.548s188.309,45.078,244.627,180.766c55.891,134.666,113.69,273.908,241.986,179.979s274.706-382.68,416.295-661.926c142.665-281.37,290.191-572.323,420.258-667.549l-4.743,22.907C1739.152-.809,1592.742,287.94,1451.149,567.19c-142.665,281.369-290.187,572.32-420.258,667.549" transform="translate(248.541 2175.056)"/>
                <path id="Path_69711" data-name="Path 69711" d="M1030.89,1234.723c-130.071,95.229-188.3-45.081-244.629-180.751C730.369,919.307,672.57,780.064,544.274,873.994s-274.7,382.661-416.287,661.908C52.111,1685.543-26.351,1840.29-101.344,1963.864l2.043-19.583c74.371-122.548,152.5-276.638,228.063-425.66,142.665-281.37,290.188-572.308,420.255-667.534s188.312,45.063,244.629,180.751c55.892,134.666,113.69,273.908,241.987,179.978s274.706-382.679,416.295-661.926c142.665-281.37,290.188-572.308,420.255-667.534l-4.743,22.907c-128.292,93.927-274.7,382.677-416.295,661.926-142.662,281.354-290.183,572.3-420.255,667.533" transform="translate(280.353 2021.426)"/>
                <path id="Path_69712" data-name="Path 69712" d="M1030.889,1234.739c-130.071,95.229-188.3-45.082-244.626-180.766-55.891-134.666-113.69-273.908-241.986-179.978s-274.7,382.673-416.29,661.923C52.11,1685.558-26.351,1840.3-101.345,1963.879L-99.3,1944.3c74.371-122.548,152.5-276.654,228.066-425.675,142.662-281.354,290.188-572.307,420.255-667.533s188.309,45.078,244.626,180.767c55.892,134.665,113.69,273.908,241.987,179.978s274.706-382.679,416.295-661.926c142.665-281.37,290.191-572.323,420.258-667.549l-4.743,22.907C1739.149-.81,1592.739,287.94,1451.147,567.19c-142.665,281.37-290.187,572.32-420.258,667.549" transform="translate(312.168 1867.752)"/>
                <path id="Path_69713" data-name="Path 69713" d="M1030.889,1234.739c-130.071,95.229-188.3-45.082-244.626-180.767-55.892-134.665-113.69-273.908-241.986-179.978s-274.7,382.676-416.29,661.923C52.11,1685.558-26.351,1840.3-101.345,1963.879L-99.3,1944.3c74.371-122.548,152.5-276.638,228.063-425.66,142.665-281.37,290.191-572.322,420.258-667.548s188.309,45.078,244.626,180.766c55.892,134.666,113.69,273.908,241.986,179.978s274.706-382.679,416.295-661.926c142.665-281.37,290.191-572.323,420.258-667.549l-4.743,22.907C1739.149-.81,1592.739,287.94,1451.147,567.19c-142.665,281.37-290.187,572.32-420.258,667.549" transform="translate(343.982 1714.092)"/>
                <path id="Path_69714" data-name="Path 69714" d="M1030.889,1234.739c-130.071,95.229-188.3-45.081-244.626-180.766-55.892-134.666-113.69-273.908-241.987-179.978s-274.693,382.67-416.283,661.9c-75.876,149.641-154.342,304.391-229.338,427.98l2.046-19.6c74.371-122.549,152.509-276.657,228.072-425.667,142.661-281.367,290.183-572.3,420.246-667.527s188.309,45.078,244.626,180.766c55.892,134.665,113.69,273.908,241.986,179.978s274.706-382.68,416.295-661.926c142.665-281.37,290.191-572.322,420.258-667.549l-4.743,22.907C1739.149-.81,1592.74,287.94,1451.147,567.19c-142.666,281.369-290.187,572.32-420.258,667.549" transform="translate(375.792 1560.448)"/>
                <path id="Path_69715" data-name="Path 69715" d="M1030.892,1234.723c-130.071,95.23-188.3-45.081-244.629-180.751-55.892-134.665-113.69-273.908-241.986-179.978s-274.7,382.676-416.295,661.926c-75.873,149.626-154.33,304.369-229.327,427.959L-99.3,1944.3c74.374-122.563,152.5-276.654,228.066-425.675,142.665-281.37,290.184-572.3,420.255-667.533s188.312,45.063,244.63,180.751c55.892,134.666,113.69,273.908,241.986,179.978S1310.341,829.137,1451.93,549.89c142.665-281.37,290.188-572.307,420.255-667.533l-4.743,22.907C1739.149-.81,1592.739,287.94,1451.147,567.19c-142.662,281.354-290.184,572.3-420.255,667.533" transform="translate(407.603 1406.804)"/>
                <path id="Path_69716" data-name="Path 69716" d="M1030.89,1234.723c-130.071,95.229-188.3-45.081-244.629-180.751C730.369,919.307,672.57,780.064,544.274,873.994S269.579,1256.652,127.987,1535.9C52.111,1685.543-26.351,1840.29-101.344,1963.864l2.043-19.583c74.371-122.548,152.5-276.639,228.063-425.66,142.665-281.37,290.188-572.307,420.255-667.533s188.312,45.063,244.629,180.751c55.892,134.665,113.69,273.907,241.987,179.978s274.706-382.679,416.295-661.926c142.665-281.37,290.188-572.307,420.255-667.534l-4.743,22.907C1739.147-.81,1592.737,287.94,1451.145,567.19c-142.662,281.354-290.183,572.3-420.255,667.533" transform="translate(439.419 1253.144)"/>
                <path id="Path_69717" data-name="Path 69717" d="M1030.889,1234.739c-130.071,95.229-188.3-45.082-244.626-180.767-55.892-134.666-113.69-273.908-241.987-179.978s-274.7,382.673-416.29,661.923C52.11,1685.558-26.351,1840.3-101.345,1963.879L-99.3,1944.3c74.371-122.548,152.5-276.638,228.067-425.663,142.665-281.37,290.187-572.32,420.254-667.545s188.309,45.078,244.626,180.766c55.892,134.665,113.69,273.908,241.987,179.978s274.706-382.68,416.294-661.926c142.665-281.37,290.191-572.322,420.258-667.549l-4.743,22.907C1739.149-.81,1592.739,287.94,1451.147,567.19c-142.666,281.37-290.187,572.319-420.258,667.549" transform="translate(471.233 1099.47)"/>
                <path id="Path_69718" data-name="Path 69718" d="M1030.892,1234.723c-130.071,95.229-188.3-45.081-244.63-180.751-55.892-134.666-113.69-273.908-241.987-179.978S269.582,1256.652,127.989,1535.9c-75.876,149.641-154.338,304.387-229.334,427.977L-99.3,1944.3c74.374-122.563,152.5-276.654,228.066-425.675,142.665-281.37,290.188-572.307,420.255-667.533s188.312,45.063,244.63,180.751c55.892,134.666,113.69,273.908,241.986,179.978s274.706-382.679,416.294-661.926c142.665-281.37,290.188-572.307,420.255-667.534l-4.743,22.907C1739.149-.81,1592.739,287.94,1451.147,567.19c-142.662,281.355-290.184,572.3-420.255,667.533" transform="translate(503.044 945.826)"/>
                <path id="Path_69719" data-name="Path 69719" d="M1030.889,1234.739c-130.071,95.229-188.3-45.082-244.626-180.767-55.892-134.665-113.69-273.908-241.987-179.978s-274.7,382.676-416.29,661.923C52.11,1685.558-26.351,1840.3-101.345,1963.879L-99.3,1944.3c74.371-122.548,152.5-276.654,228.063-425.66,142.665-281.37,290.191-572.323,420.258-667.548s188.309,45.078,244.626,180.766c55.892,134.665,113.69,273.908,241.987,179.978s274.706-382.68,416.294-661.926c142.665-281.37,290.191-572.322,420.258-667.549l-4.743,22.907C1739.149-.81,1592.739,287.94,1451.147,567.19c-142.666,281.37-290.187,572.32-420.258,667.549" transform="translate(534.857 792.167)"/>
                <path id="Path_69720" data-name="Path 69720" d="M1030.89,1234.723c-130.071,95.229-188.3-45.081-244.629-180.751C730.369,919.307,672.57,780.064,544.274,873.994S269.579,1256.652,127.987,1535.9C52.111,1685.543-26.351,1840.29-101.344,1963.864l2.043-19.583c74.371-122.548,152.5-276.638,228.063-425.66,142.665-281.37,290.188-572.307,420.255-667.533s188.312,45.063,244.629,180.751c55.892,134.666,113.69,273.908,241.986,179.978s274.707-382.68,416.295-661.926c142.665-281.37,290.188-572.307,420.255-667.533l-4.743,22.907C1739.147-.81,1592.737,287.94,1451.145,567.19c-142.662,281.354-290.184,572.3-420.255,667.533" transform="translate(566.67 638.522)"/>
                <path id="Path_69721" data-name="Path 69721" d="M1030.889,1234.739c-130.071,95.229-188.3-45.082-244.626-180.767-55.891-134.665-113.69-273.908-241.987-179.978s-274.7,382.673-416.287,661.908C52.11,1685.558-26.348,1840.289-101.345,1963.879L-99.3,1944.3c74.371-122.548,152.5-276.654,228.07-425.678,142.665-281.37,290.184-572.3,420.251-667.53s188.309,45.078,244.626,180.766c55.892,134.665,113.69,273.908,241.986,179.978s274.706-382.68,416.295-661.926c142.665-281.37,290.191-572.323,420.258-667.549l-4.743,22.907C1739.149-.81,1592.739,287.94,1451.147,567.19c-142.665,281.37-290.187,572.319-420.258,667.549" transform="translate(598.482 484.863)"/>
                <path id="Path_69722" data-name="Path 69722" d="M1030.889,1234.739c-130.071,95.229-188.3-45.082-244.626-180.767-55.892-134.666-113.69-273.908-241.987-179.978s-274.7,382.673-416.29,661.923C52.11,1685.558-26.351,1840.3-101.345,1963.879L-99.3,1944.3c74.371-122.548,152.5-276.653,228.066-425.675,142.662-281.354,290.188-572.307,420.255-667.533s188.309,45.078,244.626,180.766c55.892,134.665,113.69,273.908,241.987,179.978s274.706-382.679,416.294-661.926c142.665-281.37,290.191-572.323,420.258-667.549l-4.743,22.907C1739.149-.81,1592.739,287.94,1451.147,567.19c-142.665,281.37-290.187,572.319-420.258,667.549" transform="translate(630.295 331.204)"/>
                <path id="Path_69723" data-name="Path 69723" d="M311.684,1054.693c-130.076,95.232-188.314-45.087-244.636-180.772-30.022-72.33-61.068-147.11-102.6-184.9l6.775-23.06C13.108,704.062,44.282,779.164,74.43,851.8c55.9,134.662,113.7,273.917,242,179.984S591.129,649.11,732.721,369.86C809.095,219.233,888.074,63.473,963.533-60.546l-2.059,19.608C886.642,82.051,808,237.152,731.942,387.145c-142.665,281.37-290.186,572.319-420.258,667.549" transform="translate(1381.314 357.589)"/>
                <path id="Path_69724" data-name="Path 69724" d="M-43.835,849.438l2.043-19.583c74.371-122.548,152.5-276.638,228.071-425.678,76.37-150.612,155.345-306.369,230.8-430.385L415.02-6.6C340.2,116.367,261.555,271.469,185.5,421.458,109.62,571.117,31.159,725.864-43.835,849.438" transform="translate(604.599 1291.985)"/>
                <path id="Path_69725" data-name="Path 69725" d="M258.859,844.409C128.788,939.639,70.551,799.331,14.229,663.646c-13.867-33.433-28.211-67.981-43.4-98.427l7.27-22.373c15.243,30.56,29.613,65.192,43.512,98.667C77.506,776.178,135.306,915.432,263.6,821.5S538.311,438.808,679.9,159.576c35.21-69.442,71.611-141.232,107.222-209.037l-1.051,17.82c-35.471,67.534-71.805,139.2-106.946,208.5C536.452,458.23,388.931,749.18,258.859,844.409" transform="translate(1465.953 414.214)"/>
                <path id="Path_69726" data-name="Path 69726" d="M-32.775,635.128l2.043-19.583C43.634,493,121.758,338.928,197.314,189.909c35.214-69.457,71.62-141.238,107.236-209.047L303.5-1.317c-35.473,67.522-71.815,139.192-106.962,208.522C120.671,356.813,42.217,511.541-32.775,635.128" transform="translate(625.353 1352.636)"/>
                <path id="Path_69727" data-name="Path 69727" d="M220.7,644.466C90.63,739.692,32.393,599.385-23.929,463.7l7.382-22.119c55.9,134.647,113.694,273.9,241.986,179.978S500.13,238.9,641.711-40.323l-.751,17.238C498.274,258.312,350.76,549.244,220.7,644.466" transform="translate(1535.925 460.513)"/>
                <path id="Path_69728" data-name="Path 69728" d="M-22.292,431.979l2.043-19.583C54.085,289.9,132.178,135.89,207.7-13.051L207.038,4c-75.953,149.8-154.373,304.453-229.33,427.974" transform="translate(646.68 1402.141)"/>
                <path id="Path_69729" data-name="Path 69729" d="M182.378,445.141c-103.391,75.7-159.686.99-201.113-82.088l7.27-22.373c41,82.213,96.654,156.181,198.586,81.554S400.7,151.149,496.473-31.2l-1.051,17.82C398.641,170.887,285.769,369.446,182.378,445.141" transform="translate(1606.061 506.163)"/>
                <path id="Path_69730" data-name="Path 69730" d="M-11.856,229.748l2.043-19.583C25.977,151.2,64.463,82.18,111.3-6.994l-1.048,17.805C63.064,100.669,24.265,170.225-11.856,229.748" transform="translate(668.058 1450.712)"/>
                <path id="Path_69731" data-name="Path 69731" d="M128.932,236.615C74.138,276.731,27.883,278.4-12.473,241.7l6.775-23.06c39.812,36.191,85.4,34.586,139.372-4.93S248.739,97.7,320.437-20.135L318.378-.528C245.69,118.935,183.726,196.5,128.932,236.615" transform="translate(1691.318 561.046)"/>
              </g>
            </g>
          </g>
        </g>
      </g>
      <g id="Group_19038" data-name="Group 19038" transform="translate(402.382 1224.052) rotate(-149)" opacity="0.085" clip-path="url(#clip-path-6)">
        <path id="Path_69734" data-name="Path 69734" d="M96.882,45.177c-4.152-5.009-8.929-9.005-13.875-11.008-6.243-2.527-12-2.229-18.145-4.151a27.418,27.418,0,0,1-8.36-4.369,71.672,71.672,0,0,1-7.353-6.685C44.131,13.913,39.019,8.627,33.42,5.45a23.091,23.091,0,0,0-15.071-2.7A30,30,0,0,0,11.58,4.487,17.184,17.184,0,0,0,6.218,7.516C3.453,9.982,1.876,14.056,1.9,19.01,1.98,32.183,12.91,45.6,22.036,55.565a24.82,24.82,0,0,0,7.585,5.574,59.809,59.809,0,0,1,7.689,3.929,23.568,23.568,0,0,1,6.3,6.517,44.7,44.7,0,0,1,3.974,7.865c2.222,5.465,3.979,11.116,7.312,16.241A29.367,29.367,0,0,0,65.332,105.7a23.229,23.229,0,0,0,11.431,2.685,31.1,31.1,0,0,0,10.677-2.165,37.39,37.39,0,0,0,8.573-4.61,36.5,36.5,0,0,0,9.147-9.209,28.018,28.018,0,0,0,4.811-13.8,37.988,37.988,0,0,0-3.161-16.933,65.013,65.013,0,0,0-9.927-16.5" transform="translate(139.015 243.965)" fill="#202a5f"/>
        <path id="Path_69735" data-name="Path 69735" d="M45.251,94.851a11.316,11.316,0,0,0,9.057-6.131c2.383-4.64,2.747-10.952,4.7-15.963a12.149,12.149,0,0,1,3.878-5.45,19.28,19.28,0,0,1,5.394-2.589c4.022-1.387,8.217-2.693,10.989-6.148,2.641-3.291,3.364-8.478,3.384-13.835a66.67,66.67,0,0,0-.543-8.506,48.974,48.974,0,0,0-1.58-8.017,35.761,35.761,0,0,0-7.592-13.477C62.945,3.726,46.165,3.132,40.8,11.367c-1.13,1.733-2.057,3.723-3.5,5.081a6.413,6.413,0,0,1-5.172,1.61,18.989,18.989,0,0,1-5.882-1.9c-4.033-1.89-8.15-4.415-12.056-4.865A8.248,8.248,0,0,0,6.16,14.556c-1.855,2.545-2.686,6.178-3.008,10A64.089,64.089,0,0,0,3.6,37.524,105.594,105.594,0,0,0,5.966,50.161a112.738,112.738,0,0,0,5.516,16.812,66.3,66.3,0,0,0,9.145,15.785,34.557,34.557,0,0,0,12.128,9.791,23.187,23.187,0,0,0,12.5,2.3" transform="translate(22.523 48.81)" fill="#202a5f"/>
        <path id="Path_69736" data-name="Path 69736" d="M98.552,107.59c4.079-2.484,6.625-7.476,6.783-13.831.154-6.207-1.756-13.268-4.432-19.989A131.044,131.044,0,0,0,90.229,53.108,119.79,119.79,0,0,0,76.941,35.149,115.632,115.632,0,0,0,39.855,8.108C28.36,3.016,12.728-1.516,4.977,5.392,1.393,8.585.077,15.482,3.244,22.3c1.745,3.757,4.377,7.027,5.94,10.864A30.505,30.505,0,0,1,11.258,43.4c.306,5.989-.571,11.38-.464,17.278a70.581,70.581,0,0,0,1.834,15.352,41.814,41.814,0,0,0,6.259,14.455,26.565,26.565,0,0,0,12.294,9.567c6.937,2.6,12.739.827,18.628-.116a26.381,26.381,0,0,1,9.2-.114,52.8,52.8,0,0,1,8.009,2.3c5.641,2.017,11.342,4.573,16.929,6.082,5.346,1.443,10.63,1.806,14.606-.616" transform="translate(186.341 151.644)" fill="#202a5f"/>
        <path id="Path_69737" data-name="Path 69737" d="M111.109,78.032c-3.052-6.6-7.948-12.3-12.873-17.074-2.387-2.316-4.858-4.487-7.362-6.479C88.458,52.558,85.96,50.984,83.56,49a22.719,22.719,0,0,1-6.087-7.55,85.409,85.409,0,0,1-3.781-10.131,36.872,36.872,0,0,0-4.94-9.82,52.213,52.213,0,0,0-8-8.511C55.07,8.069,49.017,4.974,43.366,4.6c-5.516-.367-10.193,1.448-15.1,2.626a28.033,28.033,0,0,1-7.7.912c-7.583-.288-16.513-1-18.466,8.331a15.483,15.483,0,0,0,.956,8.518,26.218,26.218,0,0,0,4.73,7.627c3.964,4.6,8.622,7.818,12.6,12.377A42.414,42.414,0,0,1,26.307,53.4a19.28,19.28,0,0,1,2.042,7.135,38.509,38.509,0,0,1-.367,7.917,43.159,43.159,0,0,0-.267,8.925,47.574,47.574,0,0,0,5.729,18.446,51.839,51.839,0,0,0,13.273,15.657A56.375,56.375,0,0,0,63.6,120.693a51.849,51.849,0,0,0,16.427,2.822,33.96,33.96,0,0,0,14.829-3,31.588,31.588,0,0,0,11.7-9.637,36.037,36.037,0,0,0,6.54-14.054,29.242,29.242,0,0,0-1.985-18.8" transform="translate(269.214 270.738)" fill="#202a5f"/>
        <path id="Path_69738" data-name="Path 69738" d="M7.635,77.94A69.04,69.04,0,0,0,9.555,85.9c1.934,6.355,5.679,15.4,10.709,20.274,6.041,5.853,7.779-.381,10.23-3.7,2.984-4.037,7.645-5.81,13.36-4.051,6.2,1.908,12.384,7.383,18.425,12.214,10.837,8.665,24.259,14.964,32.442,9.057,4.023-2.9,6.594-7.676,9.578-11.894a25.819,25.819,0,0,1,5.05-5.6c5.445-4.228,12-8.806,9.689-20.1A21.481,21.481,0,0,0,115,73.424a21.2,21.2,0,0,0-6.338-5.451c-4.6-2.617-9.15-3.326-13.745-5.9a31.817,31.817,0,0,1-7.486-5.587,22.293,22.293,0,0,1-4.254-6.525,61.571,61.571,0,0,1-2.87-8.817,68.241,68.241,0,0,0-3.339-9.852,53.523,53.523,0,0,0-11.316-16.6A34.9,34.9,0,0,0,50.134,5.637a29.858,29.858,0,0,0-15.506.1,33.369,33.369,0,0,0-12.662,6.772c-6.106,5.125-8.533,13.581-10.682,22.652C8.241,48.006,4.77,61.91,7.635,77.94" transform="translate(87.105 439.477)" fill="#202a5f"/>
        <path id="Path_69739" data-name="Path 69739" d="M13.149,93.153A21.506,21.506,0,0,0,18.993,98.3a20.056,20.056,0,0,0,6.59,2.627A15.46,15.46,0,0,0,39.2,96.81a49.568,49.568,0,0,0,4.764-5.671A18.533,18.533,0,0,1,49,86.653c3.619-2.149,8.012-2.739,12.611-2.644,2.5.052,5.061.291,7.626.564a19.2,19.2,0,0,0,5.787-.08,12.339,12.339,0,0,0,7.822-5.171,22.6,22.6,0,0,0,3.487-10.264,47.216,47.216,0,0,0-.516-13.186,67.884,67.884,0,0,0-4.129-14.331,66.54,66.54,0,0,0-7.41-13.491A65.841,65.841,0,0,0,60.832,14.241,55.058,55.058,0,0,0,45.124,5.7,31.466,31.466,0,0,0,30.33,4.069c-3.733.6-6.928,2.57-7.87,7.008-.833,3.921-.031,8.783,1.059,13.482,1.161,5.009,2.728,10.069,3.8,15.065,1.276,5.968,1.853,12.208-.015,16.566a8.1,8.1,0,0,1-5.27,4.862c-2.433.673-5.2.517-7.664,1.118a8.293,8.293,0,0,0-4.942,3.174,12.136,12.136,0,0,0-1.976,5.773c-.777,7.042.7,15.73,5.7,22.034" transform="translate(302.723 150.472)" fill="#202a5f"/>
        <path id="Path_69740" data-name="Path 69740" d="M29.915,3.229c-5.788-.908-11.417-.84-16.317.788C3.058,7.519-1.958,21.277,6.444,38.294a36.173,36.173,0,0,0,6.875,9.782c2.89,2.822,6.258,4.5,9.132,4.4,2.837-.1,4.971-1.8,7.045-3.352,2.154-1.607,4.374-3.188,7.36-3.166,4.009.03,8.342,1.981,12.6,4.7,2.141,1.368,4.256,2.9,6.37,4.424A41.819,41.819,0,0,0,61.7,58.91a6.656,6.656,0,0,0,4.021.838,5.026,5.026,0,0,0,2.878-2.01,24.655,24.655,0,0,0,2.721-24.748c-3.5-8.026-10.47-14.139-16.516-18.921a51.2,51.2,0,0,0-7.938-5.25A54.745,54.745,0,0,0,29.915,3.229" transform="translate(361.429 259.32)" fill="#202a5f"/>
        <path id="Path_69741" data-name="Path 69741" d="M84.673,75.658a22.97,22.97,0,0,0-.308-8.713C83.009,60.8,78.26,54.1,73.406,50.622c-3.34-2.394-6.838-4.034-10.061-6.854s-6.267-7.434-6.158-11.237c.1-3.623,2.777-5.085,3.3-8.413.647-4.155-1.112-12.513-5.117-16.5A6.711,6.711,0,0,0,46.494,6.57c-5.182,3.6-7,11.863-12.56,14.838-6.159,3.3-15.673-.571-21.63,3.067A13.555,13.555,0,0,0,7.638,30C4.909,35.254,3.68,42.138,4.781,49.831a49.086,49.086,0,0,0,7.233,18.9c3.675,5.839,6.709,8.261,11.912,10.954,4.066,2.1,8.3,3.839,12.281,6.892a22.931,22.931,0,0,1,4.769,4.888,27.511,27.511,0,0,1,3.568,7.314c1.017,3.077,1.66,6.135,2.809,9.217a30.107,30.107,0,0,0,4.592,8.278A31.561,31.561,0,0,0,67.35,126.819a21.541,21.541,0,0,0,14.344-.549c3.679-1.512,7.186-3.9,9.017-7.981a12.681,12.681,0,0,0,.857-7.067c-.457-3.122-1.988-6.174-3.621-9.173a60.651,60.651,0,0,1-4.829-9.986,16.5,16.5,0,0,1-.478-8.868c.6-2.579,1.578-4.849,2.034-7.538" transform="translate(222.118 346.679)" fill="#202a5f"/>
        <path id="Path_69742" data-name="Path 69742" d="M80.624,49.38a82.2,82.2,0,0,0-14.1-12.137,75.344,75.344,0,0,0-6.934-4.281,60.783,60.783,0,0,0-6.528-2.873c-4.462-1.767-9.282-3.457-13.608-7.223a21.058,21.058,0,0,1-2.774-2.923,31.723,31.723,0,0,1-2.435-3.763,79.585,79.585,0,0,0-4.493-7.615,17.178,17.178,0,0,0-6.4-5.419A13.215,13.215,0,0,0,18.6,1.978,19.727,19.727,0,0,0,8.051,4.189a11.355,11.355,0,0,0-6.406,8.786c-.8,5.743,2.22,12.375,2.7,18.542.1,1.266.074,2.477.07,3.7-.007,2.049.011,4.11.089,6.2A73.008,73.008,0,0,0,6.235,55.6a37.24,37.24,0,0,0,5.937,13.58A23.15,23.15,0,0,0,24.415,77.9c4.221,1.16,8.993.9,13.091,5.6a31.931,31.931,0,0,1,2.9,4.175c.835,1.337,1.667,2.675,2.523,4a52.191,52.191,0,0,0,5.014,6.765,23.661,23.661,0,0,0,6.166,4.947,25.953,25.953,0,0,0,7.589,2.548,35.63,35.63,0,0,0,15.114-.088,18.191,18.191,0,0,0,6.144-2.6,23.306,23.306,0,0,0,4.864-4.625,30.259,30.259,0,0,0,6.227-14.545,31.674,31.674,0,0,0,.013-9.135,37.481,37.481,0,0,0-2.724-9.4A58.3,58.3,0,0,0,80.624,49.38" transform="translate(338.343 424.792)" fill="#202a5f"/>
        <path id="Path_69743" data-name="Path 69743" d="M48.69,20.6c-2.67-1.647-5.353-3.182-8.014-4.908-1.285-.833-2.564-1.715-3.824-2.684s-2.458-2.025-3.674-3.082A59.208,59.208,0,0,0,24.9,3.535C19.92.6,16.385,3.064,13.6,5.811c-1.515,1.5-2.871,3.209-4.455,4.612C7.6,11.791,5.546,12.4,4.11,13.908c-2.034,2.134-2.535,6.348-1.673,10.47A25.225,25.225,0,0,0,8.391,35.753a23.412,23.412,0,0,0,10.781,6.855c3.684,1.106,7.216,1.375,10.884,2.385a20.112,20.112,0,0,1,5.171,2.124,24.925,24.925,0,0,1,4.516,3.653c2.871,2.839,5.427,6.207,8.253,9.125,2.73,2.819,5.776,5.309,8.837,6.492,2.446.946,4.732.925,6.5-.163,3.654-2.249,4.807-8.006,4.758-13.593-.051-5.929-1.356-13.17-5.24-19.286C59.07,27.394,53.709,23.7,48.69,20.6" transform="translate(383.791 387.441)" fill="#202a5f"/>
        <path id="Path_69744" data-name="Path 69744" d="M15.941,9.569c-1.183,1.823-2.283,3.74-3.524,5.5a20.129,20.129,0,0,1-1.934,2.383,23.306,23.306,0,0,1-2.229,1.937A18.58,18.58,0,0,0,3.64,24.143c-2.105,3.493-.25,9.171,1.807,14.21,1.119,2.743,2.4,5.46,3.448,8.214,1.026,2.687,1.5,5.408,2.625,8.07a21.626,21.626,0,0,0,7.733,9.225c2.97,1.9,5.984,2.337,8.312,1.345,2.672-1.138,4.154-3.877,4.928-7.219s.931-7.09,1.632-10.475a13.23,13.23,0,0,1,1.506-4.281,7.485,7.485,0,0,1,2.639-2.475c2.059-1.21,4.511-1.7,6.628-2.8a9.081,9.081,0,0,0,4.682-5.3,12.527,12.527,0,0,0-.195-7.37c-1.7-5.661-5.953-10.993-10.069-14.864-4.368-4.109-9.688-7.74-14.149-7.7-4.341.038-7,3.426-9.227,6.853" transform="translate(75.518 239.334)" fill="#202a5f"/>
        <path id="Path_69745" data-name="Path 69745" d="M84.57,21.324A35.83,35.83,0,0,0,70.777,18.4c-4.786-.152-9.357.422-14.277-.181a30.055,30.055,0,0,1-7.632-1.95,40.206,40.206,0,0,1-7.578-4.2C24.955.88,19.047-.717,7.54,6.838c-4.266,2.8-6.528,7.513-5.42,15.084A39.261,39.261,0,0,0,6.565,34.765a40.714,40.714,0,0,0,8.475,10.8,29.487,29.487,0,0,0,5.234,3.748,24.621,24.621,0,0,0,5.964,2.3A77.641,77.641,0,0,1,41.3,57.121a79.7,79.7,0,0,1,7.493,4.232c2.562,1.63,5.059,3.521,7.591,5.315,8.484,6.013,17.5,10.388,25.689,10.909,8.167.519,14.9-3.146,18.768-10.11a26.45,26.45,0,0,0,1.612-3.5L96.167,29.647a39.154,39.154,0,0,0-11.6-8.324" transform="translate(406.929 333.527)" fill="#202a5f"/>
        <path id="Path_69746" data-name="Path 69746" d="M73.877,18.242c-4.8-4.234-9.96-4.837-14.529-5.205a55.124,55.124,0,0,1-14.816-2.791,28.891,28.891,0,0,1-3.673-1.625,35.719,35.719,0,0,1-3.5-2.287A17.42,17.42,0,0,0,33.7,4.326a22.182,22.182,0,0,0-3.229-.992,15.069,15.069,0,0,0-10.917,1.46,17.839,17.839,0,0,0-7.142,8.323,26.161,26.161,0,0,0-1.837,5.849,28.349,28.349,0,0,0-.587,5.758c.033,2.838.436,5.853.679,8.776.419,5.049.444,9.533-1.547,12.99C7.358,49.555,3.18,52.54,6.339,58.334c4.121,7.555,12.179,7.085,16.174,5.906A28.74,28.74,0,0,1,28.686,62.8a27.04,27.04,0,0,1,7.012.521,29.22,29.22,0,0,1,7.115,2.216,69.282,69.282,0,0,1,7.476,4.417,49.258,49.258,0,0,0,7.391,4.161,17.881,17.881,0,0,0,5.364,1.37,16.277,16.277,0,0,0,9.439-2.093A22.914,22.914,0,0,0,79.965,66.4a31,31,0,0,0,3.4-6.355L76.127,20.536a23.4,23.4,0,0,0-2.25-2.294" transform="translate(399.476 192.491)" fill="#202a5f"/>
        <path id="Path_69747" data-name="Path 69747" d="M33.979,49.852a47.435,47.435,0,0,1,9.829,12.829c6.751,12.867,17.8,27.871,28.646,24.253,2.89-.964,4.891-3.744,5.338-7.542a12.9,12.9,0,0,0-.672-5.424,28.2,28.2,0,0,0-2.386-5.107c-1.8-3.156-4.074-6.262-5.224-9.582a9.172,9.172,0,0,1-.486-4.495,8.042,8.042,0,0,1,.806-2.327c.5-.976,1-1.953,1.476-2.961a25.573,25.573,0,0,0,2.568-12.67,34.736,34.736,0,0,0-1.358-7.994,36.254,36.254,0,0,0-3.068-7.167,39.589,39.589,0,0,0-9.882-11.74c-3.927-3.071-8.121-4.84-11.853-4.8A8.265,8.265,0,0,0,42.693,6.7a18.585,18.585,0,0,0-3.618,4.044,31.8,31.8,0,0,1-3.442,4.331,10.3,10.3,0,0,1-5.28,2.584,18.44,18.44,0,0,1-7.1-.133,47.309,47.309,0,0,1-6.993-2.13C12.745,14.116,8.982,12.919,5.9,13.5a4.442,4.442,0,0,0-3.453,2.577,9.255,9.255,0,0,0-.105,6.206c1.322,4.5,5.111,8.467,8.386,11.235,3.683,3.114,7.614,5.232,11.427,7.633a79.8,79.8,0,0,1,11.829,8.7" transform="translate(224.414 93.9)" fill="#202a5f"/>
        <path id="Path_69748" data-name="Path 69748" d="M24.368,93.171c4.065,3.4,8.339,5.194,12.164,4.9,8.061-.613,13.84-5.491,22.461-4.829,8.783.674,18.571,3.49,23.5-4.232,6.143-9.621-8.77-19.869-12.227-30.683-2.315-7.243,3.886-9.271,5.6-13.755a15.182,15.182,0,0,0,1.065-6.141,23.841,23.841,0,0,0-1.588-7.216C70.716,18.833,59.125,4.435,48.9,5.376c-3.927.362-6.809,3.032-8.932,6.28-2.082,3.185-3.5,7.051-5.005,10.8-1.472,3.657-3.073,7.252-5.551,9.833-2.435,2.538-5.813,3.474-8.983,4.777a35.333,35.333,0,0,0-8.7,4.726,15.881,15.881,0,0,0-5.645,8.212c-1.122,3.937-.84,8.817.467,13.841a62.385,62.385,0,0,0,6.823,15.875,52.993,52.993,0,0,0,10.987,13.45" transform="translate(82.146 122.396)" fill="#202a5f"/>
        <path id="Path_69749" data-name="Path 69749" d="M89.444,135.207c3.34-1.67,6.537-3.939,8.379-7.662,1.633-3.3,1.729-7.94-.415-12.869a20.221,20.221,0,0,0-5.851-7.6c-2.374-1.925-4.86-3.294-7.288-4.922a21.787,21.787,0,0,1-6.442-6.235A27.293,27.293,0,0,1,73.87,85.644c-1.2-7-.179-13.262-1.877-20.419a31.135,31.135,0,0,0-4.9-10.755,46.263,46.263,0,0,0-5.98-6.892A67.611,67.611,0,0,0,47.9,38.215c-4.345-2.5-8.76-4.794-13.017-8.005A36.977,36.977,0,0,1,24.275,17.363c-2.455-4.774-3.657-12.723-8.64-14.97C-1.024-5.117.205,24.207,5.419,38.224c3.092,8.314,8.263,17.01,8.537,25.171.258,7.709-3.444,12.678-4.45,19.537A27.31,27.31,0,0,0,10.54,94.345,71.447,71.447,0,0,0,16.145,108,75.646,75.646,0,0,0,24.1,120.15a51.448,51.448,0,0,0,8.192,8.05,53.767,53.767,0,0,0,18.227,9.225,62.171,62.171,0,0,0,16.714,2.5,53.419,53.419,0,0,0,10.278-.958,44.488,44.488,0,0,0,11.933-3.762" transform="translate(115.775 306.136)" fill="#202a5f"/>
        <path id="Path_69750" data-name="Path 69750" d="M78.691,37.975a28.609,28.609,0,0,0-5.042-5.216,46.753,46.753,0,0,0-5.759-3.933,46.007,46.007,0,0,0-5.968-3.067c-4.331-1.762-8.65-2.71-13.008-5.121A19.927,19.927,0,0,1,43.3,16.063c-1.762-2.068-3.287-4.405-5.037-6.487A18.873,18.873,0,0,0,32.4,4.745,20.774,20.774,0,0,0,25.92,2.754a23.229,23.229,0,0,0-10.334.99,23.312,23.312,0,0,0-8.6,4.541c-6.8,5.93-5.869,16.225-1.324,28.8C7.077,41,9.256,44.75,10.675,48.674c.874,2.416,1.386,4.806,2.038,7.213.632,2.33,1.319,4.666,2.112,7a61.869,61.869,0,0,0,6.028,13.1A36.531,36.531,0,0,0,30.5,86.415a29.76,29.76,0,0,0,12.731,5.116,41.816,41.816,0,0,0,12.81-.13,61.317,61.317,0,0,0,11.005-2.767,24.616,24.616,0,0,0,8.812-4.978,21.713,21.713,0,0,0,5.576-9.181,56.387,56.387,0,0,0,2.62-13.516,40,40,0,0,0-1.7-15.928,25.925,25.925,0,0,0-3.666-7.056" transform="translate(207.5 464.231)" fill="#202a5f"/>
        <path id="Path_69751" data-name="Path 69751" d="M3.158,15.026C4.3,18.2,6.07,21.238,7.219,24.417c.708,1.957,1.123,3.893,1.651,5.842.512,1.887,1.068,3.78,1.711,5.671a50.127,50.127,0,0,0,4.883,10.61,29.588,29.588,0,0,0,7.818,8.447,24.106,24.106,0,0,0,10.312,4.145,33.848,33.848,0,0,0,10.376-.106,49.691,49.691,0,0,0,8.915-2.24,19.951,19.951,0,0,0,7.138-4.032,17.592,17.592,0,0,0,4.516-7.437,45.656,45.656,0,0,0,2.122-10.948,32.4,32.4,0,0,0-1.378-12.9,20.509,20.509,0,0,0-4.661-7.72L.309.033c-.339,4.233.8,9.327,2.849,14.994" transform="translate(307.766 70.016)" fill="#202a5f"/>
        <path id="Path_69752" data-name="Path 69752" d="M1.529,10.2c2.094,6.722,6.311,13.118,10.719,18.7,2.137,2.707,4.387,5.307,6.707,7.755,2.236,2.361,4.621,4.433,6.83,6.847a23.7,23.7,0,0,1,5.16,8.375A74.242,74.242,0,0,1,33.2,61.954a34.062,34.062,0,0,0,3.541,10.1A56.819,56.819,0,0,0,43.766,81.8c5.192,5.913,11.1,10.289,17.049,12.127,5.811,1.793,11.111,1.41,16.544,1.658a36.2,36.2,0,0,1,8.356,1.226c8.027,2.271,17.413,5.276,21.126-2.557a12.155,12.155,0,0,0,.474-7.878,25.484,25.484,0,0,0-3.7-8.084C100.2,73.125,95.8,69,92.367,63.868a42.674,42.674,0,0,1-4.834-9.1,16.134,16.134,0,0,1-.925-6.929,29.025,29.025,0,0,1,1.778-6.99,32.631,32.631,0,0,0,1.848-7.919,37.652,37.652,0,0,0-1.166-12.745L.55.058A23.843,23.843,0,0,0,1.529,10.2" transform="translate(98.56 22.477)" fill="#202a5f"/>
        <path id="Path_69753" data-name="Path 69753" d="M65.684,39.716a38.934,38.934,0,0,0-8.643-7.732A39.408,39.408,0,0,0,46.96,27.117c-3.51-1.1-6.9-1.3-10.462-2.827a17.182,17.182,0,0,1-5.01-3.229,24.177,24.177,0,0,1-4.183-5.5c-2.274-3.86-4.224-8.041-7.591-10.79C16.81,2.4,13.219.825,10.6,1.395,5.607,2.48,4.549,9.557,4.054,15.38a134.034,134.034,0,0,0-.684,19.933C4,44.762,8.346,56.472,15.98,64.1c6.58,6.576,14.047,8.846,20.75,9.954,7.178,1.186,14.126,1.071,20.182-.953,5.994-2,11.312-6.137,13.656-13.072A18.1,18.1,0,0,0,70.839,49.4a26.852,26.852,0,0,0-5.155-9.682" transform="translate(313.354 503.556)" fill="#202a5f"/>
        <path id="Path_69754" data-name="Path 69754" d="M56.052,31.879a39.4,39.4,0,0,0-10.081-4.866c-3.51-1.1-6.9-1.3-10.462-2.828a17.168,17.168,0,0,1-5.01-3.229,24.165,24.165,0,0,1-4.183-5.5c-2.274-3.86-4.224-8.042-7.591-10.79C15.821,2.3,12.23.721,9.609,1.29,4.62,2.375,3.56,9.448,3.066,15.27.956,40.112,7.249,69.241,35.741,73.95c7.177,1.186,14.126,1.072,20.182-.953,5.994-2,11.312-6.137,13.656-13.072.071-.211.138-.426.2-.644l-3.1-16.917A30.413,30.413,0,0,0,64.7,39.611a38.943,38.943,0,0,0-8.643-7.732" transform="translate(395.849 99.281)" fill="#202a5f"/>
        <path id="Path_69755" data-name="Path 69755" d="M60.748,25.9c-.7-.654-1.43-1.37-2.187-2.172C50.969,15.691,51.783,6.2,41.173,4.447c-15.725-2.6-27.157,2.1-30.131,18.31C9.778,29.64,2.768,33.029,3.96,41.524,5.422,51.94,14.818,53.636,17.66,62.152c1.254,3.757-2.76,4.5.138,9.127,2.529,4.04,9.194,5.085,12.054,5.558,9.646,1.6,9.624-2.383,13.214-9.532,3.5-6.971,10.033-3.6,16.256-6.2,5.814-2.437,9.874-9.627,10.43-17.718.746-10.856-3.006-11.879-9-17.485" transform="translate(407.273 543.328)" fill="#202a5f"/>
        <path id="Path_69756" data-name="Path 69756" d="M49.524,38.417a29.788,29.788,0,0,0-1.808-5.756c-1.83-4.058-4.72-7.489-6.931-11.34a25.84,25.84,0,0,1-2.467-5.927,23.063,23.063,0,0,0-2.166-5.817,14.485,14.485,0,0,0-4.68-4.835c-7.6-4.658-15.207-.591-20.424,2.242a6.833,6.833,0,0,0-3.55,4.54c-.615,2.614,0,5.875,1.128,9.073,1.38,3.9,3.451,7.769,4.533,11.686a11.584,11.584,0,0,1,.451,5.027A6.572,6.572,0,0,1,11.3,41.2c-1.773,1.481-4.174,2.116-5.535,4.179C4.148,47.838,4.52,52.119,6.4,56.037,11.689,67.09,24.01,80.23,33.126,80.776c3.022.182,5.785-.639,7.528-2.912,3.013-3.93,2.772-10.881,5.725-14.874.373-.505.794-.95,1.148-1.478a13.611,13.611,0,0,0,1.047-1.9,20.186,20.186,0,0,0,1.364-4.345,38.71,38.71,0,0,0,.477-11.134,44.057,44.057,0,0,0-.891-5.713" transform="translate(453.983 467.594)" fill="#202a5f"/>
        <path id="Path_69757" data-name="Path 69757" d="M74.078,20.4A50.78,50.78,0,0,0,64.515,9.676c-3.335-2.654-6.91-4.171-9.929-3.608a13.211,13.211,0,0,0-9,6.2c-2.146,3.48-3.211,8.011-3.872,12.734-.719,5.133-.884,10.633-1.947,15.54-1.745,8.053-5.531,17.725-13.483,17.611C22.593,58.1,18.36,56.305,15,57.128c-2.585.633-4.364,2.756-5.987,4.926C7.186,64.5,5.462,68.02,7.4,72.213c1.335,2.9,3.895,4.865,6.131,6.915s4.633,5.113,4.569,7.79c-.05,2.1-1.628,3.015-2.127,4.824-.742,2.686,1.134,6.832,3.6,9.507a27.036,27.036,0,0,0,8.161,5.632c7.158,3.629,14.787,7.067,20.726,5.422,8.758-2.426,12.377-15.365,17.585-22.765a33.075,33.075,0,0,1,4.022-4.722c1.508-1.463,3.2-2.637,4.82-3.93A30.119,30.119,0,0,0,85.59,64.008L79.115,28.646A81.955,81.955,0,0,0,74.078,20.4" transform="translate(463.821 552.114)" fill="#202a5f"/>
      </g>
    </g>
  </g>
</svg>
