<svg xmlns="http://www.w3.org/2000/svg" width="2705.418" height="665.492" viewBox="0 0 2705.418 665.492">
  <g id="Group_5235" data-name="Group 5235" opacity="0.538">
    <g id="Group_5231" data-name="Group 5231" transform="translate(0 0)" opacity="0.1">
      <path id="_1" data-name="1" d="M672.734,29.374v-.941H-5.133V693.925H-4.6V690.93H25.062v2.995h1.918V690.93H52.148v2.995h1.918V690.93H83.723v2.995h1.918V690.93h25.168v2.995h1.914V690.93h29.661v2.995H144.3V690.93h25.173v2.995h1.914V690.93h29.661v2.995h1.914V690.93h25.168v2.995h1.918V690.93h29.661v2.995h1.914V690.93h25.168v2.995h1.918V690.93h29.657v2.995h1.918V690.93h25.168v2.995h1.918V690.93h29.657v2.995h1.914V690.93h25.172v2.995h1.914V690.93h29.661v2.995H437.6V690.93h25.164v2.995h1.914V690.93h29.661v2.995h1.918V690.93H521.43v2.995h1.918V690.93H553.01v2.995h1.91V690.93h25.168v2.995h1.918V690.93h29.661v2.995h1.918V690.93h25.168v2.995h1.918V690.93h29.653v2.995h1.918V690.93h.492v-1.883h-.492V662.861h.492v-1.883h-.492V633.339h.492v-1.879h-.492v-26.19h.492v-1.879h-.492V575.749h.492V573.87h-.492V547.676h.492V545.8h-.492V518.158h.492V516.28h-.492V490.09h.492v-1.879h-.492V460.568h.492v-1.879h-.492V432.5h.492v-1.883h-.492V402.982h.492V401.1h-.492V374.913h.492V373.03h-.492V345.391h.492v-1.879h-.492v-26.19h.492v-1.879h-.492V287.8h.492v-1.879h-.492v-26.19h.492v-1.879h-.492V230.214h.492v-1.883h-.492v-26.19h.492v-1.879h-.492V172.62h.492v-1.879h-.492v-26.19h.492v-1.879h-.492V115.034h.492v-1.879h-.492V86.965h.492V85.086h-.492V57.443h.492V55.564h-.492V29.374Zm-677.329,0H25.062v26.19H-4.6Zm0,28.069H25.062V85.086H-4.6Zm0,29.522H25.062v26.19H-4.6Zm0,28.069H25.062v27.639H-4.6Zm0,29.518H25.062v26.19H-4.6Zm0,28.069H25.062v27.643H-4.6Zm0,29.522H25.062v26.19H-4.6Zm0,28.073H25.062v27.639H-4.6Zm0,29.518H25.062v26.19H-4.6Zm0,28.069H25.062v27.643H-4.6Zm0,29.522H25.062v26.19H-4.6Zm0,28.069H25.062V373.03H-4.6Zm0,29.522H25.062V401.1H-4.6Zm0,28.069H25.062v27.635H-4.6Zm0,29.518H25.062v26.19H-4.6Zm0,28.069H25.062v27.643H-4.6Zm0,29.522H25.062v26.19H-4.6Zm0,28.069H25.062V545.8H-4.6Zm0,29.518H25.062V573.87H-4.6Zm0,28.073H25.062v27.643H-4.6Zm0,29.522H25.062v26.19H-4.6Zm0,28.069H25.062v27.639H-4.6Zm29.657,55.708H-4.6V662.861H25.062Zm27.086,0H26.979V662.861H52.148Zm0-28.069H26.979V633.339H52.148Zm0-29.518H26.979v-26.19H52.148Zm0-28.069H26.979V575.749H52.148Zm0-29.521H26.979V547.676H52.148Zm0-28.073H26.979V518.158H52.148Zm0-29.518H26.979V490.09H52.148Zm0-28.069H26.979V460.568H52.148Zm0-29.521H26.979V432.5H52.148Zm0-28.073H26.979V402.982H52.148Zm0-29.518H26.979V374.913H52.148Zm0-28.069H26.979V345.391H52.148Zm0-29.518H26.979v-26.19H52.148Zm0-28.069H26.979V287.8H52.148Zm0-29.522H26.979v-26.19H52.148Zm0-28.069H26.979V230.214H52.148Zm0-29.522H26.979v-26.19H52.148Zm0-28.069H26.979V172.62H52.148Zm0-29.522H26.979v-26.19H52.148Zm0-28.069H26.979V115.034H52.148Zm0-29.518H26.979V86.965H52.148Zm0-28.069H26.979V57.443H52.148Zm0-29.522H26.979V29.374H52.148Zm1.918-26.19H83.723v26.19H54.066Zm0,28.069H83.723V85.086H54.066Zm0,29.522H83.723v26.19H54.066Zm0,28.069H83.723v27.639H54.066Zm0,29.518H83.723v26.19H54.066Zm0,28.069H83.723v27.643H54.066Zm0,29.522H83.723v26.19H54.066Zm0,28.073H83.723v27.639H54.066Zm0,29.518H83.723v26.19H54.066Zm0,28.069H83.723v27.643H54.066Zm0,29.522H83.723v26.19H54.066Zm0,28.069H83.723V373.03H54.066Zm0,29.522H83.723V401.1H54.066Zm0,28.069H83.723v27.635H54.066Zm0,29.518H83.723v26.19H54.066Zm0,28.069H83.723v27.643H54.066Zm0,29.522H83.723v26.19H54.066Zm0,28.069H83.723V545.8H54.066Zm0,29.518H83.723V573.87H54.066Zm0,28.073H83.723v27.643H54.066Zm0,29.522H83.723v26.19H54.066Zm0,28.069H83.723v27.639H54.066Zm29.657,55.708H54.066V662.861H83.723Zm27.086,0H85.641V662.861h25.168Zm0-28.069H85.641V633.339h25.168Zm0-29.518H85.641v-26.19h25.168Zm0-28.069H85.641V575.749h25.168Zm0-29.521H85.641V547.676h25.168Zm0-28.073H85.641V518.158h25.168Zm0-29.518H85.641V490.09h25.168Zm0-28.069H85.641V460.568h25.168Zm0-29.521H85.641V432.5h25.168Zm0-28.073H85.641V402.982h25.168Zm0-29.518H85.641V374.913h25.168Zm0-28.069H85.641V345.391h25.168Zm0-29.518H85.641v-26.19h25.168Zm0-28.069H85.641V287.8h25.168Zm0-29.522H85.641v-26.19h25.168Zm0-28.069H85.641V230.214h25.168Zm0-29.522H85.641v-26.19h25.168Zm0-28.069H85.641V172.62h25.168Zm0-29.522H85.641v-26.19h25.168Zm0-28.069H85.641V115.034h25.168Zm0-29.518H85.641V86.965h25.168Zm0-28.069H85.641V57.443h25.168Zm0-29.522H85.641V29.374h25.168Zm1.914-26.19h29.661v26.19H112.723Zm0,28.069h29.661V85.086H112.723Zm0,29.522h29.661v26.19H112.723Zm0,28.069h29.661v27.639H112.723Zm0,29.518h29.661v26.19H112.723Zm0,28.069h29.661v27.643H112.723Zm0,29.522h29.661v26.19H112.723Zm0,28.073h29.661v27.639H112.723Zm0,29.518h29.661v26.19H112.723Zm0,28.069h29.661v27.643H112.723Zm0,29.522h29.661v26.19H112.723Zm0,28.069h29.661V373.03H112.723Zm0,29.522h29.661V401.1H112.723Zm0,28.069h29.661v27.635H112.723Zm0,29.518h29.661v26.19H112.723Zm0,28.069h29.661v27.643H112.723Zm0,29.522h29.661v26.19H112.723Zm0,28.069h29.661V545.8H112.723Zm0,29.518h29.661V573.87H112.723Zm0,28.073h29.661v27.643H112.723Zm0,29.522h29.661v26.19H112.723Zm0,28.069h29.661v27.639H112.723Zm29.661,55.708H112.723V662.861h29.661Zm27.086,0H144.3V662.861h25.173Zm0-28.069H144.3V633.339h25.173Zm0-29.518H144.3v-26.19h25.173Zm0-28.069H144.3V575.749h25.173Zm0-29.521H144.3V547.676h25.173Zm0-28.073H144.3V518.158h25.173Zm0-29.518H144.3V490.09h25.173Zm0-28.069H144.3V460.568h25.173Zm0-29.521H144.3V432.5h25.173Zm0-28.073H144.3V402.982h25.173Zm0-29.518H144.3V374.913h25.173Zm0-28.069H144.3V345.391h25.173Zm0-29.518H144.3v-26.19h25.173Zm0-28.069H144.3V287.8h25.173Zm0-29.522H144.3v-26.19h25.173Zm0-28.069H144.3V230.214h25.173Zm0-29.522H144.3v-26.19h25.173Zm0-28.069H144.3V172.62h25.173Zm0-29.522H144.3v-26.19h25.173Zm0-28.069H144.3V115.034h25.173Zm0-29.518H144.3V86.965h25.173Zm0-28.069H144.3V57.443h25.173Zm0-29.522H144.3V29.374h25.173Zm1.914-26.19h29.661v26.19H171.384Zm0,28.069h29.661V85.086H171.384Zm0,29.522h29.661v26.19H171.384Zm0,28.069h29.661v27.639H171.384Zm0,29.518h29.661v26.19H171.384Zm0,28.069h29.661v27.643H171.384Zm0,29.522h29.661v26.19H171.384Zm0,28.073h29.661v27.639H171.384Zm0,29.518h29.661v26.19H171.384Zm0,28.069h29.661v27.643H171.384Zm0,29.522h29.661v26.19H171.384Zm0,28.069h29.661V373.03H171.384Zm0,29.522h29.661V401.1H171.384Zm0,28.069h29.661v27.635H171.384Zm0,29.518h29.661v26.19H171.384Zm0,28.069h29.661v27.643H171.384Zm0,29.522h29.661v26.19H171.384Zm0,28.069h29.661V545.8H171.384Zm0,29.518h29.661V573.87H171.384Zm0,28.073h29.661v27.643H171.384Zm0,29.522h29.661v26.19H171.384Zm0,28.069h29.661v27.639H171.384Zm29.661,55.708H171.384V662.861h29.661Zm27.082,0H202.959V662.861h25.168Zm0-28.069H202.959V633.339h25.168Zm0-29.518H202.959v-26.19h25.168Zm0-28.069H202.959V575.749h25.168Zm0-29.521H202.959V547.676h25.168Zm0-28.073H202.959V518.158h25.168Zm0-29.518H202.959V490.09h25.168Zm0-28.069H202.959V460.568h25.168Zm0-29.521H202.959V432.5h25.168Zm0-28.073H202.959V402.982h25.168Zm0-29.518H202.959V374.913h25.168Zm0-28.069H202.959V345.391h25.168Zm0-29.518H202.959v-26.19h25.168Zm0-28.069H202.959V287.8h25.168Zm0-29.522H202.959v-26.19h25.168Zm0-28.069H202.959V230.214h25.168Zm0-29.522H202.959v-26.19h25.168Zm0-28.069H202.959V172.62h25.168Zm0-29.522H202.959v-26.19h25.168Zm0-28.069H202.959V115.034h25.168Zm0-29.518H202.959V86.965h25.168Zm0-28.069H202.959V57.443h25.168Zm0-29.522H202.959V29.374h25.168Zm1.918-26.19h29.661v26.19H230.046Zm0,28.069h29.661V85.086H230.046Zm0,29.522h29.661v26.19H230.046Zm0,28.069h29.661v27.639H230.046Zm0,29.518h29.661v26.19H230.046Zm0,28.069h29.661v27.643H230.046Zm0,29.522h29.661v26.19H230.046Zm0,28.073h29.661v27.639H230.046Zm0,29.518h29.661v26.19H230.046Zm0,28.069h29.661v27.643H230.046Zm0,29.522h29.661v26.19H230.046Zm0,28.069h29.661V373.03H230.046Zm0,29.522h29.661V401.1H230.046Zm0,28.069h29.661v27.635H230.046Zm0,29.518h29.661v26.19H230.046Zm0,28.069h29.661v27.643H230.046Zm0,29.522h29.661v26.19H230.046Zm0,28.069h29.661V545.8H230.046Zm0,29.518h29.661V573.87H230.046Zm0,28.073h29.661v27.643H230.046Zm0,29.522h29.661v26.19H230.046Zm0,28.069h29.661v27.639H230.046Zm29.661,55.708H230.046V662.861h29.661Zm27.082,0H261.621V662.861h25.168Zm0-28.069H261.621V633.339h25.168Zm0-29.518H261.621v-26.19h25.168Zm0-28.069H261.621V575.749h25.168Zm0-29.521H261.621V547.676h25.168Zm0-28.073H261.621V518.158h25.168Zm0-29.518H261.621V490.09h25.168Zm0-28.069H261.621V460.568h25.168Zm0-29.521H261.621V432.5h25.168Zm0-28.073H261.621V402.982h25.168Zm0-29.518H261.621V374.913h25.168Zm0-28.069H261.621V345.391h25.168Zm0-29.518H261.621v-26.19h25.168Zm0-28.069H261.621V287.8h25.168Zm0-29.522H261.621v-26.19h25.168Zm0-28.069H261.621V230.214h25.168Zm0-29.522H261.621v-26.19h25.168Zm0-28.069H261.621V172.62h25.168Zm0-29.522H261.621v-26.19h25.168Zm0-28.069H261.621V115.034h25.168Zm0-29.518H261.621V86.965h25.168Zm0-28.069H261.621V57.443h25.168Zm0-29.522H261.621V29.374h25.168Zm1.918-26.19h29.657v26.19H288.707Zm0,28.069h29.657V85.086H288.707Zm0,29.522h29.657v26.19H288.707Zm0,28.069h29.657v27.639H288.707Zm0,29.518h29.657v26.19H288.707Zm0,28.069h29.657v27.643H288.707Zm0,29.522h29.657v26.19H288.707Zm0,28.073h29.657v27.639H288.707Zm0,29.518h29.657v26.19H288.707Zm0,28.069h29.657v27.643H288.707Zm0,29.522h29.657v26.19H288.707Zm0,28.069h29.657V373.03H288.707Zm0,29.522h29.657V401.1H288.707Zm0,28.069h29.657v27.635H288.707Zm0,29.518h29.657v26.19H288.707Zm0,28.069h29.657v27.643H288.707Zm0,29.522h29.657v26.19H288.707Zm0,28.069h29.657V545.8H288.707Zm0,29.518h29.657V573.87H288.707Zm0,28.073h29.657v27.643H288.707Zm0,29.522h29.657v26.19H288.707Zm0,28.069h29.657v27.639H288.707Zm29.657,55.708H288.707V662.861h29.657Zm27.086,0H320.282V662.861h25.168Zm0-28.069H320.282V633.339h25.168Zm0-29.518H320.282v-26.19h25.168Zm0-28.069H320.282V575.749h25.168Zm0-29.521H320.282V547.676h25.168Zm0-28.073H320.282V518.158h25.168Zm0-29.518H320.282V490.09h25.168Zm0-28.069H320.282V460.568h25.168Zm0-29.521H320.282V432.5h25.168Zm0-28.073H320.282V402.982h25.168Zm0-29.518H320.282V374.913h25.168Zm0-28.069H320.282V345.391h25.168Zm0-29.518H320.282v-26.19h25.168Zm0-28.069H320.282V287.8h25.168Zm0-29.522H320.282v-26.19h25.168Zm0-28.069H320.282V230.214h25.168Zm0-29.522H320.282v-26.19h25.168Zm0-28.069H320.282V172.62h25.168Zm0-29.522H320.282v-26.19h25.168Zm0-28.069H320.282V115.034h25.168Zm0-29.518H320.282V86.965h25.168Zm0-28.069H320.282V57.443h25.168Zm0-29.522H320.282V29.374h25.168Zm1.918-26.19h29.657v26.19H347.368Zm0,28.069h29.657V85.086H347.368Zm0,29.522h29.657v26.19H347.368Zm0,28.069h29.657v27.639H347.368Zm0,29.518h29.657v26.19H347.368Zm0,28.069h29.657v27.643H347.368Zm0,29.522h29.657v26.19H347.368Zm0,28.073h29.657v27.639H347.368Zm0,29.518h29.657v26.19H347.368Zm0,28.069h29.657v27.643H347.368Zm0,29.522h29.657v26.19H347.368Zm0,28.069h29.657V373.03H347.368Zm0,29.522h29.657V401.1H347.368Zm0,28.069h29.657v27.635H347.368Zm0,29.518h29.657v26.19H347.368Zm0,28.069h29.657v27.643H347.368Zm0,29.522h29.657v26.19H347.368Zm0,28.069h29.657V545.8H347.368Zm0,29.518h29.657V573.87H347.368Zm0,28.073h29.657v27.643H347.368Zm0,29.522h29.657v26.19H347.368Zm0,28.069h29.657v27.639H347.368Zm29.657,55.708H347.368V662.861h29.657Zm27.086,0H378.939V662.861h25.172Zm0-28.069H378.939V633.339h25.172Zm0-29.518H378.939v-26.19h25.172Zm0-28.069H378.939V575.749h25.172Zm0-29.521H378.939V547.676h25.172Zm0-28.073H378.939V518.158h25.172Zm0-29.518H378.939V490.09h25.172Zm0-28.069H378.939V460.568h25.172Zm0-29.521H378.939V432.5h25.172Zm0-28.073H378.939V402.982h25.172Zm0-29.518H378.939V374.913h25.172Zm0-28.069H378.939V345.391h25.172Zm0-29.518H378.939v-26.19h25.172Zm0-28.069H378.939V287.8h25.172Zm0-29.522H378.939v-26.19h25.172Zm0-28.069H378.939V230.214h25.172Zm0-29.522H378.939v-26.19h25.172Zm0-28.069H378.939V172.62h25.172Zm0-29.522H378.939v-26.19h25.172Zm0-28.069H378.939V115.034h25.172Zm0-29.518H378.939V86.965h25.172Zm0-28.069H378.939V57.443h25.172Zm0-29.522H378.939V29.374h25.172Zm1.914-26.19h29.661v26.19H406.026Zm0,28.069h29.661V85.086H406.026Zm0,29.522h29.661v26.19H406.026Zm0,28.069h29.661v27.639H406.026Zm0,29.518h29.661v26.19H406.026Zm0,28.069h29.661v27.643H406.026Zm0,29.522h29.661v26.19H406.026Zm0,28.073h29.661v27.639H406.026Zm0,29.518h29.661v26.19H406.026Zm0,28.069h29.661v27.643H406.026Zm0,29.522h29.661v26.19H406.026Zm0,28.069h29.661V373.03H406.026Zm0,29.522h29.661V401.1H406.026Zm0,28.069h29.661v27.635H406.026Zm0,29.518h29.661v26.19H406.026Zm0,28.069h29.661v27.643H406.026Zm0,29.522h29.661v26.19H406.026Zm0,28.069h29.661V545.8H406.026Zm0,29.518h29.661V573.87H406.026Zm0,28.073h29.661v27.643H406.026Zm0,29.522h29.661v26.19H406.026Zm0,28.069h29.661v27.639H406.026Zm29.661,55.708H406.026V662.861h29.661Zm27.082,0H437.6V662.861h25.164Zm0-28.069H437.6V633.339h25.164Zm0-29.518H437.6v-26.19h25.164Zm0-28.069H437.6V575.749h25.164Zm0-29.521H437.6V547.676h25.164Zm0-28.073H437.6V518.158h25.164Zm0-29.518H437.6V490.09h25.164Zm0-28.069H437.6V460.568h25.164Zm0-29.521H437.6V432.5h25.164Zm0-28.073H437.6V402.982h25.164Zm0-29.518H437.6V374.913h25.164Zm0-28.069H437.6V345.391h25.164Zm0-29.518H437.6v-26.19h25.164Zm0-28.069H437.6V287.8h25.164Zm0-29.522H437.6v-26.19h25.164Zm0-28.069H437.6V230.214h25.164Zm0-29.522H437.6v-26.19h25.164Zm0-28.069H437.6V172.62h25.164Zm0-29.522H437.6v-26.19h25.164Zm0-28.069H437.6V115.034h25.164Zm0-29.518H437.6V86.965h25.164Zm0-28.069H437.6V57.443h25.164Zm0-29.522H437.6V29.374h25.164Zm1.914-26.19h29.661v26.19H464.683Zm0,28.069h29.661V85.086H464.683Zm0,29.522h29.661v26.19H464.683Zm0,28.069h29.661v27.639H464.683Zm0,29.518h29.661v26.19H464.683Zm0,28.069h29.661v27.643H464.683Zm0,29.522h29.661v26.19H464.683Zm0,28.073h29.661v27.639H464.683Zm0,29.518h29.661v26.19H464.683Zm0,28.069h29.661v27.643H464.683Zm0,29.522h29.661v26.19H464.683Zm0,28.069h29.661V373.03H464.683Zm0,29.522h29.661V401.1H464.683Zm0,28.069h29.661v27.635H464.683Zm0,29.518h29.661v26.19H464.683Zm0,28.069h29.661v27.643H464.683Zm0,29.522h29.661v26.19H464.683Zm0,28.069h29.661V545.8H464.683Zm0,29.518h29.661V573.87H464.683Zm0,28.073h29.661v27.643H464.683Zm0,29.522h29.661v26.19H464.683Zm0,28.069h29.661v27.639H464.683Zm29.661,55.708H464.683V662.861h29.661Zm27.086,0H496.262V662.861H521.43Zm0-28.069H496.262V633.339H521.43Zm0-29.518H496.262v-26.19H521.43Zm0-28.069H496.262V575.749H521.43Zm0-29.521H496.262V547.676H521.43Zm0-28.073H496.262V518.158H521.43Zm0-29.518H496.262V490.09H521.43Zm0-28.069H496.262V460.568H521.43Zm0-29.521H496.262V432.5H521.43Zm0-28.073H496.262V402.982H521.43Zm0-29.518H496.262V374.913H521.43Zm0-28.069H496.262V345.391H521.43Zm0-29.518H496.262v-26.19H521.43Zm0-28.069H496.262V287.8H521.43Zm0-29.522H496.262v-26.19H521.43Zm0-28.069H496.262V230.214H521.43Zm0-29.522H496.262v-26.19H521.43Zm0-28.069H496.262V172.62H521.43Zm0-29.522H496.262v-26.19H521.43Zm0-28.069H496.262V115.034H521.43Zm0-29.518H496.262V86.965H521.43Zm0-28.069H496.262V57.443H521.43Zm0-29.522H496.262V29.374H521.43Zm1.918-26.19H553.01v26.19H523.348Zm0,28.069H553.01V85.086H523.348Zm0,29.522H553.01v26.19H523.348Zm0,28.069H553.01v27.639H523.348Zm0,29.518H553.01v26.19H523.348Zm0,28.069H553.01v27.643H523.348Zm0,29.522H553.01v26.19H523.348Zm0,28.073H553.01v27.639H523.348Zm0,29.518H553.01v26.19H523.348Zm0,28.069H553.01v27.643H523.348Zm0,29.522H553.01v26.19H523.348Zm0,28.069H553.01V373.03H523.348Zm0,29.522H553.01V401.1H523.348Zm0,28.069H553.01v27.635H523.348Zm0,29.518H553.01v26.19H523.348Zm0,28.069H553.01v27.643H523.348Zm0,29.522H553.01v26.19H523.348Zm0,28.069H553.01V545.8H523.348Zm0,29.518H553.01V573.87H523.348Zm0,28.073H553.01v27.643H523.348Zm0,29.522H553.01v26.19H523.348Zm0,28.069H553.01v27.639H523.348Zm29.661,55.708H523.348V662.861H553.01Zm27.078,0H554.919V662.861h25.168Zm0-28.069H554.919V633.339h25.168Zm0-29.518H554.919v-26.19h25.168Zm0-28.069H554.919V575.749h25.168Zm0-29.521H554.919V547.676h25.168Zm0-28.073H554.919V518.158h25.168Zm0-29.518H554.919V490.09h25.168Zm0-28.069H554.919V460.568h25.168Zm0-29.521H554.919V432.5h25.168Zm0-28.073H554.919V402.982h25.168Zm0-29.518H554.919V374.913h25.168Zm0-28.069H554.919V345.391h25.168Zm0-29.518H554.919v-26.19h25.168Zm0-28.069H554.919V287.8h25.168Zm0-29.522H554.919v-26.19h25.168Zm0-28.069H554.919V230.214h25.168Zm0-29.522H554.919v-26.19h25.168Zm0-28.069H554.919V172.62h25.168Zm0-29.522H554.919v-26.19h25.168Zm0-28.069H554.919V115.034h25.168Zm0-29.518H554.919V86.965h25.168Zm0-28.069H554.919V57.443h25.168Zm0-29.522H554.919V29.374h25.168Zm1.918-26.19h29.661v26.19H582.005Zm0,28.069h29.661V85.086H582.005Zm0,29.522h29.661v26.19H582.005Zm0,28.069h29.661v27.639H582.005Zm0,29.518h29.661v26.19H582.005Zm0,28.069h29.661v27.643H582.005Zm0,29.522h29.661v26.19H582.005Zm0,28.073h29.661v27.639H582.005Zm0,29.518h29.661v26.19H582.005Zm0,28.069h29.661v27.643H582.005Zm0,29.522h29.661v26.19H582.005Zm0,28.069h29.661V373.03H582.005Zm0,29.522h29.661V401.1H582.005Zm0,28.069h29.661v27.635H582.005Zm0,29.518h29.661v26.19H582.005Zm0,28.069h29.661v27.643H582.005Zm0,29.522h29.661v26.19H582.005Zm0,28.069h29.661V545.8H582.005Zm0,29.518h29.661V573.87H582.005Zm0,28.073h29.661v27.643H582.005Zm0,29.522h29.661v26.19H582.005Zm0,28.069h29.661v27.639H582.005Zm29.661,55.708H582.005V662.861h29.661Zm27.086,0H613.585V662.861h25.168Zm0-28.069H613.585V633.339h25.168Zm0-29.518H613.585v-26.19h25.168Zm0-28.069H613.585V575.749h25.168Zm0-29.521H613.585V547.676h25.168Zm0-28.073H613.585V518.158h25.168Zm0-29.518H613.585V490.09h25.168Zm0-28.069H613.585V460.568h25.168Zm0-29.521H613.585V432.5h25.168Zm0-28.073H613.585V402.982h25.168Zm0-29.518H613.585V374.913h25.168Zm0-28.069H613.585V345.391h25.168Zm0-29.518H613.585v-26.19h25.168Zm0-28.069H613.585V287.8h25.168Zm0-29.522H613.585v-26.19h25.168Zm0-28.069H613.585V230.214h25.168Zm0-29.522H613.585v-26.19h25.168Zm0-28.069H613.585V172.62h25.168Zm0-29.522H613.585v-26.19h25.168Zm0-28.069H613.585V115.034h25.168Zm0-29.518H613.585V86.965h25.168Zm0-28.069H613.585V57.443h25.168Zm0-29.522H613.585V29.374h25.168Zm31.571,633.483H640.671V662.861h29.653Zm-29.653-28.069V633.339h29.653v27.639Zm29.653-29.518H640.671v-26.19h29.653Zm-29.653-28.069V575.749h29.653v27.643Zm29.653-29.521H640.671V547.676h29.653ZM640.671,545.8V518.158h29.653V545.8Zm29.653-29.518H640.671V490.09h29.653Zm-29.653-28.069V460.568h29.653v27.643Zm29.653-29.521H640.671V432.5h29.653Zm-29.653-28.073V402.982h29.653v27.635ZM670.324,401.1H640.671V374.913h29.653ZM640.671,373.03V345.391h29.653V373.03Zm29.653-29.518H640.671v-26.19h29.653Zm-29.653-28.069V287.8h29.653v27.643Zm29.653-29.522H640.671v-26.19h29.653Zm-29.653-28.069V230.214h29.653v27.639Zm29.653-29.522H640.671v-26.19h29.653Zm-29.653-28.069V172.62h29.653v27.643Zm29.653-29.522H640.671v-26.19h29.653Zm-29.653-28.069V115.034h29.653v27.639Zm29.653-29.518H640.671V86.965h29.653ZM640.671,85.086V57.443h29.653V85.086Zm29.653-29.522H640.671V29.374h29.653Z" transform="translate(5.133 -28.433)" fill="#fff"/>
      <path id="_1-2" data-name="1" d="M672.734,29.374v-.941H-5.133V693.925H-4.6V690.93H25.062v2.995h1.918V690.93H52.148v2.995h1.918V690.93H83.723v2.995h1.918V690.93h25.168v2.995h1.914V690.93h29.661v2.995H144.3V690.93h25.173v2.995h1.914V690.93h29.661v2.995h1.914V690.93h25.168v2.995h1.918V690.93h29.661v2.995h1.914V690.93h25.168v2.995h1.918V690.93h29.657v2.995h1.918V690.93h25.168v2.995h1.918V690.93h29.657v2.995h1.914V690.93h25.172v2.995h1.914V690.93h29.661v2.995H437.6V690.93h25.164v2.995h1.914V690.93h29.661v2.995h1.918V690.93H521.43v2.995h1.918V690.93H553.01v2.995h1.91V690.93h25.168v2.995h1.918V690.93h29.661v2.995h1.918V690.93h25.168v2.995h1.918V690.93h29.653v2.995h1.918V690.93h.492v-1.883h-.492V662.861h.492v-1.883h-.492V633.339h.492v-1.879h-.492v-26.19h.492v-1.879h-.492V575.749h.492V573.87h-.492V547.676h.492V545.8h-.492V518.158h.492V516.28h-.492V490.09h.492v-1.879h-.492V460.568h.492v-1.879h-.492V432.5h.492v-1.883h-.492V402.982h.492V401.1h-.492V374.913h.492V373.03h-.492V345.391h.492v-1.879h-.492v-26.19h.492v-1.879h-.492V287.8h.492v-1.879h-.492v-26.19h.492v-1.879h-.492V230.214h.492v-1.883h-.492v-26.19h.492v-1.879h-.492V172.62h.492v-1.879h-.492v-26.19h.492v-1.879h-.492V115.034h.492v-1.879h-.492V86.965h.492V85.086h-.492V57.443h.492V55.564h-.492V29.374Zm-677.329,0H25.062v26.19H-4.6Zm0,28.069H25.062V85.086H-4.6Zm0,29.522H25.062v26.19H-4.6Zm0,28.069H25.062v27.639H-4.6Zm0,29.518H25.062v26.19H-4.6Zm0,28.069H25.062v27.643H-4.6Zm0,29.522H25.062v26.19H-4.6Zm0,28.073H25.062v27.639H-4.6Zm0,29.518H25.062v26.19H-4.6Zm0,28.069H25.062v27.643H-4.6Zm0,29.522H25.062v26.19H-4.6Zm0,28.069H25.062V373.03H-4.6Zm0,29.522H25.062V401.1H-4.6Zm0,28.069H25.062v27.635H-4.6Zm0,29.518H25.062v26.19H-4.6Zm0,28.069H25.062v27.643H-4.6Zm0,29.522H25.062v26.19H-4.6Zm0,28.069H25.062V545.8H-4.6Zm0,29.518H25.062V573.87H-4.6Zm0,28.073H25.062v27.643H-4.6Zm0,29.522H25.062v26.19H-4.6Zm0,28.069H25.062v27.639H-4.6Zm29.657,55.708H-4.6V662.861H25.062Zm27.086,0H26.979V662.861H52.148Zm0-28.069H26.979V633.339H52.148Zm0-29.518H26.979v-26.19H52.148Zm0-28.069H26.979V575.749H52.148Zm0-29.521H26.979V547.676H52.148Zm0-28.073H26.979V518.158H52.148Zm0-29.518H26.979V490.09H52.148Zm0-28.069H26.979V460.568H52.148Zm0-29.521H26.979V432.5H52.148Zm0-28.073H26.979V402.982H52.148Zm0-29.518H26.979V374.913H52.148Zm0-28.069H26.979V345.391H52.148Zm0-29.518H26.979v-26.19H52.148Zm0-28.069H26.979V287.8H52.148Zm0-29.522H26.979v-26.19H52.148Zm0-28.069H26.979V230.214H52.148Zm0-29.522H26.979v-26.19H52.148Zm0-28.069H26.979V172.62H52.148Zm0-29.522H26.979v-26.19H52.148Zm0-28.069H26.979V115.034H52.148Zm0-29.518H26.979V86.965H52.148Zm0-28.069H26.979V57.443H52.148Zm0-29.522H26.979V29.374H52.148Zm1.918-26.19H83.723v26.19H54.066Zm0,28.069H83.723V85.086H54.066Zm0,29.522H83.723v26.19H54.066Zm0,28.069H83.723v27.639H54.066Zm0,29.518H83.723v26.19H54.066Zm0,28.069H83.723v27.643H54.066Zm0,29.522H83.723v26.19H54.066Zm0,28.073H83.723v27.639H54.066Zm0,29.518H83.723v26.19H54.066Zm0,28.069H83.723v27.643H54.066Zm0,29.522H83.723v26.19H54.066Zm0,28.069H83.723V373.03H54.066Zm0,29.522H83.723V401.1H54.066Zm0,28.069H83.723v27.635H54.066Zm0,29.518H83.723v26.19H54.066Zm0,28.069H83.723v27.643H54.066Zm0,29.522H83.723v26.19H54.066Zm0,28.069H83.723V545.8H54.066Zm0,29.518H83.723V573.87H54.066Zm0,28.073H83.723v27.643H54.066Zm0,29.522H83.723v26.19H54.066Zm0,28.069H83.723v27.639H54.066Zm29.657,55.708H54.066V662.861H83.723Zm27.086,0H85.641V662.861h25.168Zm0-28.069H85.641V633.339h25.168Zm0-29.518H85.641v-26.19h25.168Zm0-28.069H85.641V575.749h25.168Zm0-29.521H85.641V547.676h25.168Zm0-28.073H85.641V518.158h25.168Zm0-29.518H85.641V490.09h25.168Zm0-28.069H85.641V460.568h25.168Zm0-29.521H85.641V432.5h25.168Zm0-28.073H85.641V402.982h25.168Zm0-29.518H85.641V374.913h25.168Zm0-28.069H85.641V345.391h25.168Zm0-29.518H85.641v-26.19h25.168Zm0-28.069H85.641V287.8h25.168Zm0-29.522H85.641v-26.19h25.168Zm0-28.069H85.641V230.214h25.168Zm0-29.522H85.641v-26.19h25.168Zm0-28.069H85.641V172.62h25.168Zm0-29.522H85.641v-26.19h25.168Zm0-28.069H85.641V115.034h25.168Zm0-29.518H85.641V86.965h25.168Zm0-28.069H85.641V57.443h25.168Zm0-29.522H85.641V29.374h25.168Zm1.914-26.19h29.661v26.19H112.723Zm0,28.069h29.661V85.086H112.723Zm0,29.522h29.661v26.19H112.723Zm0,28.069h29.661v27.639H112.723Zm0,29.518h29.661v26.19H112.723Zm0,28.069h29.661v27.643H112.723Zm0,29.522h29.661v26.19H112.723Zm0,28.073h29.661v27.639H112.723Zm0,29.518h29.661v26.19H112.723Zm0,28.069h29.661v27.643H112.723Zm0,29.522h29.661v26.19H112.723Zm0,28.069h29.661V373.03H112.723Zm0,29.522h29.661V401.1H112.723Zm0,28.069h29.661v27.635H112.723Zm0,29.518h29.661v26.19H112.723Zm0,28.069h29.661v27.643H112.723Zm0,29.522h29.661v26.19H112.723Zm0,28.069h29.661V545.8H112.723Zm0,29.518h29.661V573.87H112.723Zm0,28.073h29.661v27.643H112.723Zm0,29.522h29.661v26.19H112.723Zm0,28.069h29.661v27.639H112.723Zm29.661,55.708H112.723V662.861h29.661Zm27.086,0H144.3V662.861h25.173Zm0-28.069H144.3V633.339h25.173Zm0-29.518H144.3v-26.19h25.173Zm0-28.069H144.3V575.749h25.173Zm0-29.521H144.3V547.676h25.173Zm0-28.073H144.3V518.158h25.173Zm0-29.518H144.3V490.09h25.173Zm0-28.069H144.3V460.568h25.173Zm0-29.521H144.3V432.5h25.173Zm0-28.073H144.3V402.982h25.173Zm0-29.518H144.3V374.913h25.173Zm0-28.069H144.3V345.391h25.173Zm0-29.518H144.3v-26.19h25.173Zm0-28.069H144.3V287.8h25.173Zm0-29.522H144.3v-26.19h25.173Zm0-28.069H144.3V230.214h25.173Zm0-29.522H144.3v-26.19h25.173Zm0-28.069H144.3V172.62h25.173Zm0-29.522H144.3v-26.19h25.173Zm0-28.069H144.3V115.034h25.173Zm0-29.518H144.3V86.965h25.173Zm0-28.069H144.3V57.443h25.173Zm0-29.522H144.3V29.374h25.173Zm1.914-26.19h29.661v26.19H171.384Zm0,28.069h29.661V85.086H171.384Zm0,29.522h29.661v26.19H171.384Zm0,28.069h29.661v27.639H171.384Zm0,29.518h29.661v26.19H171.384Zm0,28.069h29.661v27.643H171.384Zm0,29.522h29.661v26.19H171.384Zm0,28.073h29.661v27.639H171.384Zm0,29.518h29.661v26.19H171.384Zm0,28.069h29.661v27.643H171.384Zm0,29.522h29.661v26.19H171.384Zm0,28.069h29.661V373.03H171.384Zm0,29.522h29.661V401.1H171.384Zm0,28.069h29.661v27.635H171.384Zm0,29.518h29.661v26.19H171.384Zm0,28.069h29.661v27.643H171.384Zm0,29.522h29.661v26.19H171.384Zm0,28.069h29.661V545.8H171.384Zm0,29.518h29.661V573.87H171.384Zm0,28.073h29.661v27.643H171.384Zm0,29.522h29.661v26.19H171.384Zm0,28.069h29.661v27.639H171.384Zm29.661,55.708H171.384V662.861h29.661Zm27.082,0H202.959V662.861h25.168Zm0-28.069H202.959V633.339h25.168Zm0-29.518H202.959v-26.19h25.168Zm0-28.069H202.959V575.749h25.168Zm0-29.521H202.959V547.676h25.168Zm0-28.073H202.959V518.158h25.168Zm0-29.518H202.959V490.09h25.168Zm0-28.069H202.959V460.568h25.168Zm0-29.521H202.959V432.5h25.168Zm0-28.073H202.959V402.982h25.168Zm0-29.518H202.959V374.913h25.168Zm0-28.069H202.959V345.391h25.168Zm0-29.518H202.959v-26.19h25.168Zm0-28.069H202.959V287.8h25.168Zm0-29.522H202.959v-26.19h25.168Zm0-28.069H202.959V230.214h25.168Zm0-29.522H202.959v-26.19h25.168Zm0-28.069H202.959V172.62h25.168Zm0-29.522H202.959v-26.19h25.168Zm0-28.069H202.959V115.034h25.168Zm0-29.518H202.959V86.965h25.168Zm0-28.069H202.959V57.443h25.168Zm0-29.522H202.959V29.374h25.168Zm1.918-26.19h29.661v26.19H230.046Zm0,28.069h29.661V85.086H230.046Zm0,29.522h29.661v26.19H230.046Zm0,28.069h29.661v27.639H230.046Zm0,29.518h29.661v26.19H230.046Zm0,28.069h29.661v27.643H230.046Zm0,29.522h29.661v26.19H230.046Zm0,28.073h29.661v27.639H230.046Zm0,29.518h29.661v26.19H230.046Zm0,28.069h29.661v27.643H230.046Zm0,29.522h29.661v26.19H230.046Zm0,28.069h29.661V373.03H230.046Zm0,29.522h29.661V401.1H230.046Zm0,28.069h29.661v27.635H230.046Zm0,29.518h29.661v26.19H230.046Zm0,28.069h29.661v27.643H230.046Zm0,29.522h29.661v26.19H230.046Zm0,28.069h29.661V545.8H230.046Zm0,29.518h29.661V573.87H230.046Zm0,28.073h29.661v27.643H230.046Zm0,29.522h29.661v26.19H230.046Zm0,28.069h29.661v27.639H230.046Zm29.661,55.708H230.046V662.861h29.661Zm27.082,0H261.621V662.861h25.168Zm0-28.069H261.621V633.339h25.168Zm0-29.518H261.621v-26.19h25.168Zm0-28.069H261.621V575.749h25.168Zm0-29.521H261.621V547.676h25.168Zm0-28.073H261.621V518.158h25.168Zm0-29.518H261.621V490.09h25.168Zm0-28.069H261.621V460.568h25.168Zm0-29.521H261.621V432.5h25.168Zm0-28.073H261.621V402.982h25.168Zm0-29.518H261.621V374.913h25.168Zm0-28.069H261.621V345.391h25.168Zm0-29.518H261.621v-26.19h25.168Zm0-28.069H261.621V287.8h25.168Zm0-29.522H261.621v-26.19h25.168Zm0-28.069H261.621V230.214h25.168Zm0-29.522H261.621v-26.19h25.168Zm0-28.069H261.621V172.62h25.168Zm0-29.522H261.621v-26.19h25.168Zm0-28.069H261.621V115.034h25.168Zm0-29.518H261.621V86.965h25.168Zm0-28.069H261.621V57.443h25.168Zm0-29.522H261.621V29.374h25.168Zm1.918-26.19h29.657v26.19H288.707Zm0,28.069h29.657V85.086H288.707Zm0,29.522h29.657v26.19H288.707Zm0,28.069h29.657v27.639H288.707Zm0,29.518h29.657v26.19H288.707Zm0,28.069h29.657v27.643H288.707Zm0,29.522h29.657v26.19H288.707Zm0,28.073h29.657v27.639H288.707Zm0,29.518h29.657v26.19H288.707Zm0,28.069h29.657v27.643H288.707Zm0,29.522h29.657v26.19H288.707Zm0,28.069h29.657V373.03H288.707Zm0,29.522h29.657V401.1H288.707Zm0,28.069h29.657v27.635H288.707Zm0,29.518h29.657v26.19H288.707Zm0,28.069h29.657v27.643H288.707Zm0,29.522h29.657v26.19H288.707Zm0,28.069h29.657V545.8H288.707Zm0,29.518h29.657V573.87H288.707Zm0,28.073h29.657v27.643H288.707Zm0,29.522h29.657v26.19H288.707Zm0,28.069h29.657v27.639H288.707Zm29.657,55.708H288.707V662.861h29.657Zm27.086,0H320.282V662.861h25.168Zm0-28.069H320.282V633.339h25.168Zm0-29.518H320.282v-26.19h25.168Zm0-28.069H320.282V575.749h25.168Zm0-29.521H320.282V547.676h25.168Zm0-28.073H320.282V518.158h25.168Zm0-29.518H320.282V490.09h25.168Zm0-28.069H320.282V460.568h25.168Zm0-29.521H320.282V432.5h25.168Zm0-28.073H320.282V402.982h25.168Zm0-29.518H320.282V374.913h25.168Zm0-28.069H320.282V345.391h25.168Zm0-29.518H320.282v-26.19h25.168Zm0-28.069H320.282V287.8h25.168Zm0-29.522H320.282v-26.19h25.168Zm0-28.069H320.282V230.214h25.168Zm0-29.522H320.282v-26.19h25.168Zm0-28.069H320.282V172.62h25.168Zm0-29.522H320.282v-26.19h25.168Zm0-28.069H320.282V115.034h25.168Zm0-29.518H320.282V86.965h25.168Zm0-28.069H320.282V57.443h25.168Zm0-29.522H320.282V29.374h25.168Zm1.918-26.19h29.657v26.19H347.368Zm0,28.069h29.657V85.086H347.368Zm0,29.522h29.657v26.19H347.368Zm0,28.069h29.657v27.639H347.368Zm0,29.518h29.657v26.19H347.368Zm0,28.069h29.657v27.643H347.368Zm0,29.522h29.657v26.19H347.368Zm0,28.073h29.657v27.639H347.368Zm0,29.518h29.657v26.19H347.368Zm0,28.069h29.657v27.643H347.368Zm0,29.522h29.657v26.19H347.368Zm0,28.069h29.657V373.03H347.368Zm0,29.522h29.657V401.1H347.368Zm0,28.069h29.657v27.635H347.368Zm0,29.518h29.657v26.19H347.368Zm0,28.069h29.657v27.643H347.368Zm0,29.522h29.657v26.19H347.368Zm0,28.069h29.657V545.8H347.368Zm0,29.518h29.657V573.87H347.368Zm0,28.073h29.657v27.643H347.368Zm0,29.522h29.657v26.19H347.368Zm0,28.069h29.657v27.639H347.368Zm29.657,55.708H347.368V662.861h29.657Zm27.086,0H378.939V662.861h25.172Zm0-28.069H378.939V633.339h25.172Zm0-29.518H378.939v-26.19h25.172Zm0-28.069H378.939V575.749h25.172Zm0-29.521H378.939V547.676h25.172Zm0-28.073H378.939V518.158h25.172Zm0-29.518H378.939V490.09h25.172Zm0-28.069H378.939V460.568h25.172Zm0-29.521H378.939V432.5h25.172Zm0-28.073H378.939V402.982h25.172Zm0-29.518H378.939V374.913h25.172Zm0-28.069H378.939V345.391h25.172Zm0-29.518H378.939v-26.19h25.172Zm0-28.069H378.939V287.8h25.172Zm0-29.522H378.939v-26.19h25.172Zm0-28.069H378.939V230.214h25.172Zm0-29.522H378.939v-26.19h25.172Zm0-28.069H378.939V172.62h25.172Zm0-29.522H378.939v-26.19h25.172Zm0-28.069H378.939V115.034h25.172Zm0-29.518H378.939V86.965h25.172Zm0-28.069H378.939V57.443h25.172Zm0-29.522H378.939V29.374h25.172Zm1.914-26.19h29.661v26.19H406.026Zm0,28.069h29.661V85.086H406.026Zm0,29.522h29.661v26.19H406.026Zm0,28.069h29.661v27.639H406.026Zm0,29.518h29.661v26.19H406.026Zm0,28.069h29.661v27.643H406.026Zm0,29.522h29.661v26.19H406.026Zm0,28.073h29.661v27.639H406.026Zm0,29.518h29.661v26.19H406.026Zm0,28.069h29.661v27.643H406.026Zm0,29.522h29.661v26.19H406.026Zm0,28.069h29.661V373.03H406.026Zm0,29.522h29.661V401.1H406.026Zm0,28.069h29.661v27.635H406.026Zm0,29.518h29.661v26.19H406.026Zm0,28.069h29.661v27.643H406.026Zm0,29.522h29.661v26.19H406.026Zm0,28.069h29.661V545.8H406.026Zm0,29.518h29.661V573.87H406.026Zm0,28.073h29.661v27.643H406.026Zm0,29.522h29.661v26.19H406.026Zm0,28.069h29.661v27.639H406.026Zm29.661,55.708H406.026V662.861h29.661Zm27.082,0H437.6V662.861h25.164Zm0-28.069H437.6V633.339h25.164Zm0-29.518H437.6v-26.19h25.164Zm0-28.069H437.6V575.749h25.164Zm0-29.521H437.6V547.676h25.164Zm0-28.073H437.6V518.158h25.164Zm0-29.518H437.6V490.09h25.164Zm0-28.069H437.6V460.568h25.164Zm0-29.521H437.6V432.5h25.164Zm0-28.073H437.6V402.982h25.164Zm0-29.518H437.6V374.913h25.164Zm0-28.069H437.6V345.391h25.164Zm0-29.518H437.6v-26.19h25.164Zm0-28.069H437.6V287.8h25.164Zm0-29.522H437.6v-26.19h25.164Zm0-28.069H437.6V230.214h25.164Zm0-29.522H437.6v-26.19h25.164Zm0-28.069H437.6V172.62h25.164Zm0-29.522H437.6v-26.19h25.164Zm0-28.069H437.6V115.034h25.164Zm0-29.518H437.6V86.965h25.164Zm0-28.069H437.6V57.443h25.164Zm0-29.522H437.6V29.374h25.164Zm1.914-26.19h29.661v26.19H464.683Zm0,28.069h29.661V85.086H464.683Zm0,29.522h29.661v26.19H464.683Zm0,28.069h29.661v27.639H464.683Zm0,29.518h29.661v26.19H464.683Zm0,28.069h29.661v27.643H464.683Zm0,29.522h29.661v26.19H464.683Zm0,28.073h29.661v27.639H464.683Zm0,29.518h29.661v26.19H464.683Zm0,28.069h29.661v27.643H464.683Zm0,29.522h29.661v26.19H464.683Zm0,28.069h29.661V373.03H464.683Zm0,29.522h29.661V401.1H464.683Zm0,28.069h29.661v27.635H464.683Zm0,29.518h29.661v26.19H464.683Zm0,28.069h29.661v27.643H464.683Zm0,29.522h29.661v26.19H464.683Zm0,28.069h29.661V545.8H464.683Zm0,29.518h29.661V573.87H464.683Zm0,28.073h29.661v27.643H464.683Zm0,29.522h29.661v26.19H464.683Zm0,28.069h29.661v27.639H464.683Zm29.661,55.708H464.683V662.861h29.661Zm27.086,0H496.262V662.861H521.43Zm0-28.069H496.262V633.339H521.43Zm0-29.518H496.262v-26.19H521.43Zm0-28.069H496.262V575.749H521.43Zm0-29.521H496.262V547.676H521.43Zm0-28.073H496.262V518.158H521.43Zm0-29.518H496.262V490.09H521.43Zm0-28.069H496.262V460.568H521.43Zm0-29.521H496.262V432.5H521.43Zm0-28.073H496.262V402.982H521.43Zm0-29.518H496.262V374.913H521.43Zm0-28.069H496.262V345.391H521.43Zm0-29.518H496.262v-26.19H521.43Zm0-28.069H496.262V287.8H521.43Zm0-29.522H496.262v-26.19H521.43Zm0-28.069H496.262V230.214H521.43Zm0-29.522H496.262v-26.19H521.43Zm0-28.069H496.262V172.62H521.43Zm0-29.522H496.262v-26.19H521.43Zm0-28.069H496.262V115.034H521.43Zm0-29.518H496.262V86.965H521.43Zm0-28.069H496.262V57.443H521.43Zm0-29.522H496.262V29.374H521.43Zm1.918-26.19H553.01v26.19H523.348Zm0,28.069H553.01V85.086H523.348Zm0,29.522H553.01v26.19H523.348Zm0,28.069H553.01v27.639H523.348Zm0,29.518H553.01v26.19H523.348Zm0,28.069H553.01v27.643H523.348Zm0,29.522H553.01v26.19H523.348Zm0,28.073H553.01v27.639H523.348Zm0,29.518H553.01v26.19H523.348Zm0,28.069H553.01v27.643H523.348Zm0,29.522H553.01v26.19H523.348Zm0,28.069H553.01V373.03H523.348Zm0,29.522H553.01V401.1H523.348Zm0,28.069H553.01v27.635H523.348Zm0,29.518H553.01v26.19H523.348Zm0,28.069H553.01v27.643H523.348Zm0,29.522H553.01v26.19H523.348Zm0,28.069H553.01V545.8H523.348Zm0,29.518H553.01V573.87H523.348Zm0,28.073H553.01v27.643H523.348Zm0,29.522H553.01v26.19H523.348Zm0,28.069H553.01v27.639H523.348Zm29.661,55.708H523.348V662.861H553.01Zm27.078,0H554.919V662.861h25.168Zm0-28.069H554.919V633.339h25.168Zm0-29.518H554.919v-26.19h25.168Zm0-28.069H554.919V575.749h25.168Zm0-29.521H554.919V547.676h25.168Zm0-28.073H554.919V518.158h25.168Zm0-29.518H554.919V490.09h25.168Zm0-28.069H554.919V460.568h25.168Zm0-29.521H554.919V432.5h25.168Zm0-28.073H554.919V402.982h25.168Zm0-29.518H554.919V374.913h25.168Zm0-28.069H554.919V345.391h25.168Zm0-29.518H554.919v-26.19h25.168Zm0-28.069H554.919V287.8h25.168Zm0-29.522H554.919v-26.19h25.168Zm0-28.069H554.919V230.214h25.168Zm0-29.522H554.919v-26.19h25.168Zm0-28.069H554.919V172.62h25.168Zm0-29.522H554.919v-26.19h25.168Zm0-28.069H554.919V115.034h25.168Zm0-29.518H554.919V86.965h25.168Zm0-28.069H554.919V57.443h25.168Zm0-29.522H554.919V29.374h25.168Zm1.918-26.19h29.661v26.19H582.005Zm0,28.069h29.661V85.086H582.005Zm0,29.522h29.661v26.19H582.005Zm0,28.069h29.661v27.639H582.005Zm0,29.518h29.661v26.19H582.005Zm0,28.069h29.661v27.643H582.005Zm0,29.522h29.661v26.19H582.005Zm0,28.073h29.661v27.639H582.005Zm0,29.518h29.661v26.19H582.005Zm0,28.069h29.661v27.643H582.005Zm0,29.522h29.661v26.19H582.005Zm0,28.069h29.661V373.03H582.005Zm0,29.522h29.661V401.1H582.005Zm0,28.069h29.661v27.635H582.005Zm0,29.518h29.661v26.19H582.005Zm0,28.069h29.661v27.643H582.005Zm0,29.522h29.661v26.19H582.005Zm0,28.069h29.661V545.8H582.005Zm0,29.518h29.661V573.87H582.005Zm0,28.073h29.661v27.643H582.005Zm0,29.522h29.661v26.19H582.005Zm0,28.069h29.661v27.639H582.005Zm29.661,55.708H582.005V662.861h29.661Zm27.086,0H613.585V662.861h25.168Zm0-28.069H613.585V633.339h25.168Zm0-29.518H613.585v-26.19h25.168Zm0-28.069H613.585V575.749h25.168Zm0-29.521H613.585V547.676h25.168Zm0-28.073H613.585V518.158h25.168Zm0-29.518H613.585V490.09h25.168Zm0-28.069H613.585V460.568h25.168Zm0-29.521H613.585V432.5h25.168Zm0-28.073H613.585V402.982h25.168Zm0-29.518H613.585V374.913h25.168Zm0-28.069H613.585V345.391h25.168Zm0-29.518H613.585v-26.19h25.168Zm0-28.069H613.585V287.8h25.168Zm0-29.522H613.585v-26.19h25.168Zm0-28.069H613.585V230.214h25.168Zm0-29.522H613.585v-26.19h25.168Zm0-28.069H613.585V172.62h25.168Zm0-29.522H613.585v-26.19h25.168Zm0-28.069H613.585V115.034h25.168Zm0-29.518H613.585V86.965h25.168Zm0-28.069H613.585V57.443h25.168Zm0-29.522H613.585V29.374h25.168Zm31.571,633.483H640.671V662.861h29.653Zm-29.653-28.069V633.339h29.653v27.639Zm29.653-29.518H640.671v-26.19h29.653Zm-29.653-28.069V575.749h29.653v27.643Zm29.653-29.521H640.671V547.676h29.653ZM640.671,545.8V518.158h29.653V545.8Zm29.653-29.518H640.671V490.09h29.653Zm-29.653-28.069V460.568h29.653v27.643Zm29.653-29.521H640.671V432.5h29.653Zm-29.653-28.073V402.982h29.653v27.635ZM670.324,401.1H640.671V374.913h29.653ZM640.671,373.03V345.391h29.653V373.03Zm29.653-29.518H640.671v-26.19h29.653Zm-29.653-28.069V287.8h29.653v27.643Zm29.653-29.522H640.671v-26.19h29.653Zm-29.653-28.069V230.214h29.653v27.639Zm29.653-29.522H640.671v-26.19h29.653Zm-29.653-28.069V172.62h29.653v27.643Zm29.653-29.522H640.671v-26.19h29.653Zm-29.653-28.069V115.034h29.653v27.639Zm29.653-29.518H640.671V86.965h29.653ZM640.671,85.086V57.443h29.653V85.086Zm29.653-29.522H640.671V29.374h29.653Z" transform="translate(680.355 -28.433)" fill="#fff"/>
    </g>
    <g id="Group_5234" data-name="Group 5234" transform="translate(1352.33 0)" opacity="0.1">
      <path id="_1-3" data-name="1" d="M672.734,29.374v-.941H-5.133V693.925H-4.6V690.93H25.062v2.995h1.918V690.93H52.148v2.995h1.918V690.93H83.723v2.995h1.918V690.93h25.168v2.995h1.914V690.93h29.661v2.995H144.3V690.93h25.173v2.995h1.914V690.93h29.661v2.995h1.914V690.93h25.168v2.995h1.918V690.93h29.661v2.995h1.914V690.93h25.168v2.995h1.918V690.93h29.657v2.995h1.918V690.93h25.168v2.995h1.918V690.93h29.657v2.995h1.914V690.93h25.172v2.995h1.914V690.93h29.661v2.995H437.6V690.93h25.164v2.995h1.914V690.93h29.661v2.995h1.918V690.93H521.43v2.995h1.918V690.93H553.01v2.995h1.91V690.93h25.168v2.995h1.918V690.93h29.661v2.995h1.918V690.93h25.168v2.995h1.918V690.93h29.653v2.995h1.918V690.93h.492v-1.883h-.492V662.861h.492v-1.883h-.492V633.339h.492v-1.879h-.492v-26.19h.492v-1.879h-.492V575.749h.492V573.87h-.492V547.676h.492V545.8h-.492V518.158h.492V516.28h-.492V490.09h.492v-1.879h-.492V460.568h.492v-1.879h-.492V432.5h.492v-1.883h-.492V402.982h.492V401.1h-.492V374.913h.492V373.03h-.492V345.391h.492v-1.879h-.492v-26.19h.492v-1.879h-.492V287.8h.492v-1.879h-.492v-26.19h.492v-1.879h-.492V230.214h.492v-1.883h-.492v-26.19h.492v-1.879h-.492V172.62h.492v-1.879h-.492v-26.19h.492v-1.879h-.492V115.034h.492v-1.879h-.492V86.965h.492V85.086h-.492V57.443h.492V55.564h-.492V29.374Zm-677.329,0H25.062v26.19H-4.6Zm0,28.069H25.062V85.086H-4.6Zm0,29.522H25.062v26.19H-4.6Zm0,28.069H25.062v27.639H-4.6Zm0,29.518H25.062v26.19H-4.6Zm0,28.069H25.062v27.643H-4.6Zm0,29.522H25.062v26.19H-4.6Zm0,28.073H25.062v27.639H-4.6Zm0,29.518H25.062v26.19H-4.6Zm0,28.069H25.062v27.643H-4.6Zm0,29.522H25.062v26.19H-4.6Zm0,28.069H25.062V373.03H-4.6Zm0,29.522H25.062V401.1H-4.6Zm0,28.069H25.062v27.635H-4.6Zm0,29.518H25.062v26.19H-4.6Zm0,28.069H25.062v27.643H-4.6Zm0,29.522H25.062v26.19H-4.6Zm0,28.069H25.062V545.8H-4.6Zm0,29.518H25.062V573.87H-4.6Zm0,28.073H25.062v27.643H-4.6Zm0,29.522H25.062v26.19H-4.6Zm0,28.069H25.062v27.639H-4.6Zm29.657,55.708H-4.6V662.861H25.062Zm27.086,0H26.979V662.861H52.148Zm0-28.069H26.979V633.339H52.148Zm0-29.518H26.979v-26.19H52.148Zm0-28.069H26.979V575.749H52.148Zm0-29.521H26.979V547.676H52.148Zm0-28.073H26.979V518.158H52.148Zm0-29.518H26.979V490.09H52.148Zm0-28.069H26.979V460.568H52.148Zm0-29.521H26.979V432.5H52.148Zm0-28.073H26.979V402.982H52.148Zm0-29.518H26.979V374.913H52.148Zm0-28.069H26.979V345.391H52.148Zm0-29.518H26.979v-26.19H52.148Zm0-28.069H26.979V287.8H52.148Zm0-29.522H26.979v-26.19H52.148Zm0-28.069H26.979V230.214H52.148Zm0-29.522H26.979v-26.19H52.148Zm0-28.069H26.979V172.62H52.148Zm0-29.522H26.979v-26.19H52.148Zm0-28.069H26.979V115.034H52.148Zm0-29.518H26.979V86.965H52.148Zm0-28.069H26.979V57.443H52.148Zm0-29.522H26.979V29.374H52.148Zm1.918-26.19H83.723v26.19H54.066Zm0,28.069H83.723V85.086H54.066Zm0,29.522H83.723v26.19H54.066Zm0,28.069H83.723v27.639H54.066Zm0,29.518H83.723v26.19H54.066Zm0,28.069H83.723v27.643H54.066Zm0,29.522H83.723v26.19H54.066Zm0,28.073H83.723v27.639H54.066Zm0,29.518H83.723v26.19H54.066Zm0,28.069H83.723v27.643H54.066Zm0,29.522H83.723v26.19H54.066Zm0,28.069H83.723V373.03H54.066Zm0,29.522H83.723V401.1H54.066Zm0,28.069H83.723v27.635H54.066Zm0,29.518H83.723v26.19H54.066Zm0,28.069H83.723v27.643H54.066Zm0,29.522H83.723v26.19H54.066Zm0,28.069H83.723V545.8H54.066Zm0,29.518H83.723V573.87H54.066Zm0,28.073H83.723v27.643H54.066Zm0,29.522H83.723v26.19H54.066Zm0,28.069H83.723v27.639H54.066Zm29.657,55.708H54.066V662.861H83.723Zm27.086,0H85.641V662.861h25.168Zm0-28.069H85.641V633.339h25.168Zm0-29.518H85.641v-26.19h25.168Zm0-28.069H85.641V575.749h25.168Zm0-29.521H85.641V547.676h25.168Zm0-28.073H85.641V518.158h25.168Zm0-29.518H85.641V490.09h25.168Zm0-28.069H85.641V460.568h25.168Zm0-29.521H85.641V432.5h25.168Zm0-28.073H85.641V402.982h25.168Zm0-29.518H85.641V374.913h25.168Zm0-28.069H85.641V345.391h25.168Zm0-29.518H85.641v-26.19h25.168Zm0-28.069H85.641V287.8h25.168Zm0-29.522H85.641v-26.19h25.168Zm0-28.069H85.641V230.214h25.168Zm0-29.522H85.641v-26.19h25.168Zm0-28.069H85.641V172.62h25.168Zm0-29.522H85.641v-26.19h25.168Zm0-28.069H85.641V115.034h25.168Zm0-29.518H85.641V86.965h25.168Zm0-28.069H85.641V57.443h25.168Zm0-29.522H85.641V29.374h25.168Zm1.914-26.19h29.661v26.19H112.723Zm0,28.069h29.661V85.086H112.723Zm0,29.522h29.661v26.19H112.723Zm0,28.069h29.661v27.639H112.723Zm0,29.518h29.661v26.19H112.723Zm0,28.069h29.661v27.643H112.723Zm0,29.522h29.661v26.19H112.723Zm0,28.073h29.661v27.639H112.723Zm0,29.518h29.661v26.19H112.723Zm0,28.069h29.661v27.643H112.723Zm0,29.522h29.661v26.19H112.723Zm0,28.069h29.661V373.03H112.723Zm0,29.522h29.661V401.1H112.723Zm0,28.069h29.661v27.635H112.723Zm0,29.518h29.661v26.19H112.723Zm0,28.069h29.661v27.643H112.723Zm0,29.522h29.661v26.19H112.723Zm0,28.069h29.661V545.8H112.723Zm0,29.518h29.661V573.87H112.723Zm0,28.073h29.661v27.643H112.723Zm0,29.522h29.661v26.19H112.723Zm0,28.069h29.661v27.639H112.723Zm29.661,55.708H112.723V662.861h29.661Zm27.086,0H144.3V662.861h25.173Zm0-28.069H144.3V633.339h25.173Zm0-29.518H144.3v-26.19h25.173Zm0-28.069H144.3V575.749h25.173Zm0-29.521H144.3V547.676h25.173Zm0-28.073H144.3V518.158h25.173Zm0-29.518H144.3V490.09h25.173Zm0-28.069H144.3V460.568h25.173Zm0-29.521H144.3V432.5h25.173Zm0-28.073H144.3V402.982h25.173Zm0-29.518H144.3V374.913h25.173Zm0-28.069H144.3V345.391h25.173Zm0-29.518H144.3v-26.19h25.173Zm0-28.069H144.3V287.8h25.173Zm0-29.522H144.3v-26.19h25.173Zm0-28.069H144.3V230.214h25.173Zm0-29.522H144.3v-26.19h25.173Zm0-28.069H144.3V172.62h25.173Zm0-29.522H144.3v-26.19h25.173Zm0-28.069H144.3V115.034h25.173Zm0-29.518H144.3V86.965h25.173Zm0-28.069H144.3V57.443h25.173Zm0-29.522H144.3V29.374h25.173Zm1.914-26.19h29.661v26.19H171.384Zm0,28.069h29.661V85.086H171.384Zm0,29.522h29.661v26.19H171.384Zm0,28.069h29.661v27.639H171.384Zm0,29.518h29.661v26.19H171.384Zm0,28.069h29.661v27.643H171.384Zm0,29.522h29.661v26.19H171.384Zm0,28.073h29.661v27.639H171.384Zm0,29.518h29.661v26.19H171.384Zm0,28.069h29.661v27.643H171.384Zm0,29.522h29.661v26.19H171.384Zm0,28.069h29.661V373.03H171.384Zm0,29.522h29.661V401.1H171.384Zm0,28.069h29.661v27.635H171.384Zm0,29.518h29.661v26.19H171.384Zm0,28.069h29.661v27.643H171.384Zm0,29.522h29.661v26.19H171.384Zm0,28.069h29.661V545.8H171.384Zm0,29.518h29.661V573.87H171.384Zm0,28.073h29.661v27.643H171.384Zm0,29.522h29.661v26.19H171.384Zm0,28.069h29.661v27.639H171.384Zm29.661,55.708H171.384V662.861h29.661Zm27.082,0H202.959V662.861h25.168Zm0-28.069H202.959V633.339h25.168Zm0-29.518H202.959v-26.19h25.168Zm0-28.069H202.959V575.749h25.168Zm0-29.521H202.959V547.676h25.168Zm0-28.073H202.959V518.158h25.168Zm0-29.518H202.959V490.09h25.168Zm0-28.069H202.959V460.568h25.168Zm0-29.521H202.959V432.5h25.168Zm0-28.073H202.959V402.982h25.168Zm0-29.518H202.959V374.913h25.168Zm0-28.069H202.959V345.391h25.168Zm0-29.518H202.959v-26.19h25.168Zm0-28.069H202.959V287.8h25.168Zm0-29.522H202.959v-26.19h25.168Zm0-28.069H202.959V230.214h25.168Zm0-29.522H202.959v-26.19h25.168Zm0-28.069H202.959V172.62h25.168Zm0-29.522H202.959v-26.19h25.168Zm0-28.069H202.959V115.034h25.168Zm0-29.518H202.959V86.965h25.168Zm0-28.069H202.959V57.443h25.168Zm0-29.522H202.959V29.374h25.168Zm1.918-26.19h29.661v26.19H230.046Zm0,28.069h29.661V85.086H230.046Zm0,29.522h29.661v26.19H230.046Zm0,28.069h29.661v27.639H230.046Zm0,29.518h29.661v26.19H230.046Zm0,28.069h29.661v27.643H230.046Zm0,29.522h29.661v26.19H230.046Zm0,28.073h29.661v27.639H230.046Zm0,29.518h29.661v26.19H230.046Zm0,28.069h29.661v27.643H230.046Zm0,29.522h29.661v26.19H230.046Zm0,28.069h29.661V373.03H230.046Zm0,29.522h29.661V401.1H230.046Zm0,28.069h29.661v27.635H230.046Zm0,29.518h29.661v26.19H230.046Zm0,28.069h29.661v27.643H230.046Zm0,29.522h29.661v26.19H230.046Zm0,28.069h29.661V545.8H230.046Zm0,29.518h29.661V573.87H230.046Zm0,28.073h29.661v27.643H230.046Zm0,29.522h29.661v26.19H230.046Zm0,28.069h29.661v27.639H230.046Zm29.661,55.708H230.046V662.861h29.661Zm27.082,0H261.621V662.861h25.168Zm0-28.069H261.621V633.339h25.168Zm0-29.518H261.621v-26.19h25.168Zm0-28.069H261.621V575.749h25.168Zm0-29.521H261.621V547.676h25.168Zm0-28.073H261.621V518.158h25.168Zm0-29.518H261.621V490.09h25.168Zm0-28.069H261.621V460.568h25.168Zm0-29.521H261.621V432.5h25.168Zm0-28.073H261.621V402.982h25.168Zm0-29.518H261.621V374.913h25.168Zm0-28.069H261.621V345.391h25.168Zm0-29.518H261.621v-26.19h25.168Zm0-28.069H261.621V287.8h25.168Zm0-29.522H261.621v-26.19h25.168Zm0-28.069H261.621V230.214h25.168Zm0-29.522H261.621v-26.19h25.168Zm0-28.069H261.621V172.62h25.168Zm0-29.522H261.621v-26.19h25.168Zm0-28.069H261.621V115.034h25.168Zm0-29.518H261.621V86.965h25.168Zm0-28.069H261.621V57.443h25.168Zm0-29.522H261.621V29.374h25.168Zm1.918-26.19h29.657v26.19H288.707Zm0,28.069h29.657V85.086H288.707Zm0,29.522h29.657v26.19H288.707Zm0,28.069h29.657v27.639H288.707Zm0,29.518h29.657v26.19H288.707Zm0,28.069h29.657v27.643H288.707Zm0,29.522h29.657v26.19H288.707Zm0,28.073h29.657v27.639H288.707Zm0,29.518h29.657v26.19H288.707Zm0,28.069h29.657v27.643H288.707Zm0,29.522h29.657v26.19H288.707Zm0,28.069h29.657V373.03H288.707Zm0,29.522h29.657V401.1H288.707Zm0,28.069h29.657v27.635H288.707Zm0,29.518h29.657v26.19H288.707Zm0,28.069h29.657v27.643H288.707Zm0,29.522h29.657v26.19H288.707Zm0,28.069h29.657V545.8H288.707Zm0,29.518h29.657V573.87H288.707Zm0,28.073h29.657v27.643H288.707Zm0,29.522h29.657v26.19H288.707Zm0,28.069h29.657v27.639H288.707Zm29.657,55.708H288.707V662.861h29.657Zm27.086,0H320.282V662.861h25.168Zm0-28.069H320.282V633.339h25.168Zm0-29.518H320.282v-26.19h25.168Zm0-28.069H320.282V575.749h25.168Zm0-29.521H320.282V547.676h25.168Zm0-28.073H320.282V518.158h25.168Zm0-29.518H320.282V490.09h25.168Zm0-28.069H320.282V460.568h25.168Zm0-29.521H320.282V432.5h25.168Zm0-28.073H320.282V402.982h25.168Zm0-29.518H320.282V374.913h25.168Zm0-28.069H320.282V345.391h25.168Zm0-29.518H320.282v-26.19h25.168Zm0-28.069H320.282V287.8h25.168Zm0-29.522H320.282v-26.19h25.168Zm0-28.069H320.282V230.214h25.168Zm0-29.522H320.282v-26.19h25.168Zm0-28.069H320.282V172.62h25.168Zm0-29.522H320.282v-26.19h25.168Zm0-28.069H320.282V115.034h25.168Zm0-29.518H320.282V86.965h25.168Zm0-28.069H320.282V57.443h25.168Zm0-29.522H320.282V29.374h25.168Zm1.918-26.19h29.657v26.19H347.368Zm0,28.069h29.657V85.086H347.368Zm0,29.522h29.657v26.19H347.368Zm0,28.069h29.657v27.639H347.368Zm0,29.518h29.657v26.19H347.368Zm0,28.069h29.657v27.643H347.368Zm0,29.522h29.657v26.19H347.368Zm0,28.073h29.657v27.639H347.368Zm0,29.518h29.657v26.19H347.368Zm0,28.069h29.657v27.643H347.368Zm0,29.522h29.657v26.19H347.368Zm0,28.069h29.657V373.03H347.368Zm0,29.522h29.657V401.1H347.368Zm0,28.069h29.657v27.635H347.368Zm0,29.518h29.657v26.19H347.368Zm0,28.069h29.657v27.643H347.368Zm0,29.522h29.657v26.19H347.368Zm0,28.069h29.657V545.8H347.368Zm0,29.518h29.657V573.87H347.368Zm0,28.073h29.657v27.643H347.368Zm0,29.522h29.657v26.19H347.368Zm0,28.069h29.657v27.639H347.368Zm29.657,55.708H347.368V662.861h29.657Zm27.086,0H378.939V662.861h25.172Zm0-28.069H378.939V633.339h25.172Zm0-29.518H378.939v-26.19h25.172Zm0-28.069H378.939V575.749h25.172Zm0-29.521H378.939V547.676h25.172Zm0-28.073H378.939V518.158h25.172Zm0-29.518H378.939V490.09h25.172Zm0-28.069H378.939V460.568h25.172Zm0-29.521H378.939V432.5h25.172Zm0-28.073H378.939V402.982h25.172Zm0-29.518H378.939V374.913h25.172Zm0-28.069H378.939V345.391h25.172Zm0-29.518H378.939v-26.19h25.172Zm0-28.069H378.939V287.8h25.172Zm0-29.522H378.939v-26.19h25.172Zm0-28.069H378.939V230.214h25.172Zm0-29.522H378.939v-26.19h25.172Zm0-28.069H378.939V172.62h25.172Zm0-29.522H378.939v-26.19h25.172Zm0-28.069H378.939V115.034h25.172Zm0-29.518H378.939V86.965h25.172Zm0-28.069H378.939V57.443h25.172Zm0-29.522H378.939V29.374h25.172Zm1.914-26.19h29.661v26.19H406.026Zm0,28.069h29.661V85.086H406.026Zm0,29.522h29.661v26.19H406.026Zm0,28.069h29.661v27.639H406.026Zm0,29.518h29.661v26.19H406.026Zm0,28.069h29.661v27.643H406.026Zm0,29.522h29.661v26.19H406.026Zm0,28.073h29.661v27.639H406.026Zm0,29.518h29.661v26.19H406.026Zm0,28.069h29.661v27.643H406.026Zm0,29.522h29.661v26.19H406.026Zm0,28.069h29.661V373.03H406.026Zm0,29.522h29.661V401.1H406.026Zm0,28.069h29.661v27.635H406.026Zm0,29.518h29.661v26.19H406.026Zm0,28.069h29.661v27.643H406.026Zm0,29.522h29.661v26.19H406.026Zm0,28.069h29.661V545.8H406.026Zm0,29.518h29.661V573.87H406.026Zm0,28.073h29.661v27.643H406.026Zm0,29.522h29.661v26.19H406.026Zm0,28.069h29.661v27.639H406.026Zm29.661,55.708H406.026V662.861h29.661Zm27.082,0H437.6V662.861h25.164Zm0-28.069H437.6V633.339h25.164Zm0-29.518H437.6v-26.19h25.164Zm0-28.069H437.6V575.749h25.164Zm0-29.521H437.6V547.676h25.164Zm0-28.073H437.6V518.158h25.164Zm0-29.518H437.6V490.09h25.164Zm0-28.069H437.6V460.568h25.164Zm0-29.521H437.6V432.5h25.164Zm0-28.073H437.6V402.982h25.164Zm0-29.518H437.6V374.913h25.164Zm0-28.069H437.6V345.391h25.164Zm0-29.518H437.6v-26.19h25.164Zm0-28.069H437.6V287.8h25.164Zm0-29.522H437.6v-26.19h25.164Zm0-28.069H437.6V230.214h25.164Zm0-29.522H437.6v-26.19h25.164Zm0-28.069H437.6V172.62h25.164Zm0-29.522H437.6v-26.19h25.164Zm0-28.069H437.6V115.034h25.164Zm0-29.518H437.6V86.965h25.164Zm0-28.069H437.6V57.443h25.164Zm0-29.522H437.6V29.374h25.164Zm1.914-26.19h29.661v26.19H464.683Zm0,28.069h29.661V85.086H464.683Zm0,29.522h29.661v26.19H464.683Zm0,28.069h29.661v27.639H464.683Zm0,29.518h29.661v26.19H464.683Zm0,28.069h29.661v27.643H464.683Zm0,29.522h29.661v26.19H464.683Zm0,28.073h29.661v27.639H464.683Zm0,29.518h29.661v26.19H464.683Zm0,28.069h29.661v27.643H464.683Zm0,29.522h29.661v26.19H464.683Zm0,28.069h29.661V373.03H464.683Zm0,29.522h29.661V401.1H464.683Zm0,28.069h29.661v27.635H464.683Zm0,29.518h29.661v26.19H464.683Zm0,28.069h29.661v27.643H464.683Zm0,29.522h29.661v26.19H464.683Zm0,28.069h29.661V545.8H464.683Zm0,29.518h29.661V573.87H464.683Zm0,28.073h29.661v27.643H464.683Zm0,29.522h29.661v26.19H464.683Zm0,28.069h29.661v27.639H464.683Zm29.661,55.708H464.683V662.861h29.661Zm27.086,0H496.262V662.861H521.43Zm0-28.069H496.262V633.339H521.43Zm0-29.518H496.262v-26.19H521.43Zm0-28.069H496.262V575.749H521.43Zm0-29.521H496.262V547.676H521.43Zm0-28.073H496.262V518.158H521.43Zm0-29.518H496.262V490.09H521.43Zm0-28.069H496.262V460.568H521.43Zm0-29.521H496.262V432.5H521.43Zm0-28.073H496.262V402.982H521.43Zm0-29.518H496.262V374.913H521.43Zm0-28.069H496.262V345.391H521.43Zm0-29.518H496.262v-26.19H521.43Zm0-28.069H496.262V287.8H521.43Zm0-29.522H496.262v-26.19H521.43Zm0-28.069H496.262V230.214H521.43Zm0-29.522H496.262v-26.19H521.43Zm0-28.069H496.262V172.62H521.43Zm0-29.522H496.262v-26.19H521.43Zm0-28.069H496.262V115.034H521.43Zm0-29.518H496.262V86.965H521.43Zm0-28.069H496.262V57.443H521.43Zm0-29.522H496.262V29.374H521.43Zm1.918-26.19H553.01v26.19H523.348Zm0,28.069H553.01V85.086H523.348Zm0,29.522H553.01v26.19H523.348Zm0,28.069H553.01v27.639H523.348Zm0,29.518H553.01v26.19H523.348Zm0,28.069H553.01v27.643H523.348Zm0,29.522H553.01v26.19H523.348Zm0,28.073H553.01v27.639H523.348Zm0,29.518H553.01v26.19H523.348Zm0,28.069H553.01v27.643H523.348Zm0,29.522H553.01v26.19H523.348Zm0,28.069H553.01V373.03H523.348Zm0,29.522H553.01V401.1H523.348Zm0,28.069H553.01v27.635H523.348Zm0,29.518H553.01v26.19H523.348Zm0,28.069H553.01v27.643H523.348Zm0,29.522H553.01v26.19H523.348Zm0,28.069H553.01V545.8H523.348Zm0,29.518H553.01V573.87H523.348Zm0,28.073H553.01v27.643H523.348Zm0,29.522H553.01v26.19H523.348Zm0,28.069H553.01v27.639H523.348Zm29.661,55.708H523.348V662.861H553.01Zm27.078,0H554.919V662.861h25.168Zm0-28.069H554.919V633.339h25.168Zm0-29.518H554.919v-26.19h25.168Zm0-28.069H554.919V575.749h25.168Zm0-29.521H554.919V547.676h25.168Zm0-28.073H554.919V518.158h25.168Zm0-29.518H554.919V490.09h25.168Zm0-28.069H554.919V460.568h25.168Zm0-29.521H554.919V432.5h25.168Zm0-28.073H554.919V402.982h25.168Zm0-29.518H554.919V374.913h25.168Zm0-28.069H554.919V345.391h25.168Zm0-29.518H554.919v-26.19h25.168Zm0-28.069H554.919V287.8h25.168Zm0-29.522H554.919v-26.19h25.168Zm0-28.069H554.919V230.214h25.168Zm0-29.522H554.919v-26.19h25.168Zm0-28.069H554.919V172.62h25.168Zm0-29.522H554.919v-26.19h25.168Zm0-28.069H554.919V115.034h25.168Zm0-29.518H554.919V86.965h25.168Zm0-28.069H554.919V57.443h25.168Zm0-29.522H554.919V29.374h25.168Zm1.918-26.19h29.661v26.19H582.005Zm0,28.069h29.661V85.086H582.005Zm0,29.522h29.661v26.19H582.005Zm0,28.069h29.661v27.639H582.005Zm0,29.518h29.661v26.19H582.005Zm0,28.069h29.661v27.643H582.005Zm0,29.522h29.661v26.19H582.005Zm0,28.073h29.661v27.639H582.005Zm0,29.518h29.661v26.19H582.005Zm0,28.069h29.661v27.643H582.005Zm0,29.522h29.661v26.19H582.005Zm0,28.069h29.661V373.03H582.005Zm0,29.522h29.661V401.1H582.005Zm0,28.069h29.661v27.635H582.005Zm0,29.518h29.661v26.19H582.005Zm0,28.069h29.661v27.643H582.005Zm0,29.522h29.661v26.19H582.005Zm0,28.069h29.661V545.8H582.005Zm0,29.518h29.661V573.87H582.005Zm0,28.073h29.661v27.643H582.005Zm0,29.522h29.661v26.19H582.005Zm0,28.069h29.661v27.639H582.005Zm29.661,55.708H582.005V662.861h29.661Zm27.086,0H613.585V662.861h25.168Zm0-28.069H613.585V633.339h25.168Zm0-29.518H613.585v-26.19h25.168Zm0-28.069H613.585V575.749h25.168Zm0-29.521H613.585V547.676h25.168Zm0-28.073H613.585V518.158h25.168Zm0-29.518H613.585V490.09h25.168Zm0-28.069H613.585V460.568h25.168Zm0-29.521H613.585V432.5h25.168Zm0-28.073H613.585V402.982h25.168Zm0-29.518H613.585V374.913h25.168Zm0-28.069H613.585V345.391h25.168Zm0-29.518H613.585v-26.19h25.168Zm0-28.069H613.585V287.8h25.168Zm0-29.522H613.585v-26.19h25.168Zm0-28.069H613.585V230.214h25.168Zm0-29.522H613.585v-26.19h25.168Zm0-28.069H613.585V172.62h25.168Zm0-29.522H613.585v-26.19h25.168Zm0-28.069H613.585V115.034h25.168Zm0-29.518H613.585V86.965h25.168Zm0-28.069H613.585V57.443h25.168Zm0-29.522H613.585V29.374h25.168Zm31.571,633.483H640.671V662.861h29.653Zm-29.653-28.069V633.339h29.653v27.639Zm29.653-29.518H640.671v-26.19h29.653Zm-29.653-28.069V575.749h29.653v27.643Zm29.653-29.521H640.671V547.676h29.653ZM640.671,545.8V518.158h29.653V545.8Zm29.653-29.518H640.671V490.09h29.653Zm-29.653-28.069V460.568h29.653v27.643Zm29.653-29.521H640.671V432.5h29.653Zm-29.653-28.073V402.982h29.653v27.635ZM670.324,401.1H640.671V374.913h29.653ZM640.671,373.03V345.391h29.653V373.03Zm29.653-29.518H640.671v-26.19h29.653Zm-29.653-28.069V287.8h29.653v27.643Zm29.653-29.522H640.671v-26.19h29.653Zm-29.653-28.069V230.214h29.653v27.639Zm29.653-29.522H640.671v-26.19h29.653Zm-29.653-28.069V172.62h29.653v27.643Zm29.653-29.522H640.671v-26.19h29.653Zm-29.653-28.069V115.034h29.653v27.639Zm29.653-29.518H640.671V86.965h29.653ZM640.671,85.086V57.443h29.653V85.086Zm29.653-29.522H640.671V29.374h29.653Z" transform="translate(5.133 -28.433)" fill="#fff"/>
      <path id="_1-4" data-name="1" d="M672.734,29.374v-.941H-5.133V693.925H-4.6V690.93H25.062v2.995h1.918V690.93H52.148v2.995h1.918V690.93H83.723v2.995h1.918V690.93h25.168v2.995h1.914V690.93h29.661v2.995H144.3V690.93h25.173v2.995h1.914V690.93h29.661v2.995h1.914V690.93h25.168v2.995h1.918V690.93h29.661v2.995h1.914V690.93h25.168v2.995h1.918V690.93h29.657v2.995h1.918V690.93h25.168v2.995h1.918V690.93h29.657v2.995h1.914V690.93h25.172v2.995h1.914V690.93h29.661v2.995H437.6V690.93h25.164v2.995h1.914V690.93h29.661v2.995h1.918V690.93H521.43v2.995h1.918V690.93H553.01v2.995h1.91V690.93h25.168v2.995h1.918V690.93h29.661v2.995h1.918V690.93h25.168v2.995h1.918V690.93h29.653v2.995h1.918V690.93h.492v-1.883h-.492V662.861h.492v-1.883h-.492V633.339h.492v-1.879h-.492v-26.19h.492v-1.879h-.492V575.749h.492V573.87h-.492V547.676h.492V545.8h-.492V518.158h.492V516.28h-.492V490.09h.492v-1.879h-.492V460.568h.492v-1.879h-.492V432.5h.492v-1.883h-.492V402.982h.492V401.1h-.492V374.913h.492V373.03h-.492V345.391h.492v-1.879h-.492v-26.19h.492v-1.879h-.492V287.8h.492v-1.879h-.492v-26.19h.492v-1.879h-.492V230.214h.492v-1.883h-.492v-26.19h.492v-1.879h-.492V172.62h.492v-1.879h-.492v-26.19h.492v-1.879h-.492V115.034h.492v-1.879h-.492V86.965h.492V85.086h-.492V57.443h.492V55.564h-.492V29.374Zm-677.329,0H25.062v26.19H-4.6Zm0,28.069H25.062V85.086H-4.6Zm0,29.522H25.062v26.19H-4.6Zm0,28.069H25.062v27.639H-4.6Zm0,29.518H25.062v26.19H-4.6Zm0,28.069H25.062v27.643H-4.6Zm0,29.522H25.062v26.19H-4.6Zm0,28.073H25.062v27.639H-4.6Zm0,29.518H25.062v26.19H-4.6Zm0,28.069H25.062v27.643H-4.6Zm0,29.522H25.062v26.19H-4.6Zm0,28.069H25.062V373.03H-4.6Zm0,29.522H25.062V401.1H-4.6Zm0,28.069H25.062v27.635H-4.6Zm0,29.518H25.062v26.19H-4.6Zm0,28.069H25.062v27.643H-4.6Zm0,29.522H25.062v26.19H-4.6Zm0,28.069H25.062V545.8H-4.6Zm0,29.518H25.062V573.87H-4.6Zm0,28.073H25.062v27.643H-4.6Zm0,29.522H25.062v26.19H-4.6Zm0,28.069H25.062v27.639H-4.6Zm29.657,55.708H-4.6V662.861H25.062Zm27.086,0H26.979V662.861H52.148Zm0-28.069H26.979V633.339H52.148Zm0-29.518H26.979v-26.19H52.148Zm0-28.069H26.979V575.749H52.148Zm0-29.521H26.979V547.676H52.148Zm0-28.073H26.979V518.158H52.148Zm0-29.518H26.979V490.09H52.148Zm0-28.069H26.979V460.568H52.148Zm0-29.521H26.979V432.5H52.148Zm0-28.073H26.979V402.982H52.148Zm0-29.518H26.979V374.913H52.148Zm0-28.069H26.979V345.391H52.148Zm0-29.518H26.979v-26.19H52.148Zm0-28.069H26.979V287.8H52.148Zm0-29.522H26.979v-26.19H52.148Zm0-28.069H26.979V230.214H52.148Zm0-29.522H26.979v-26.19H52.148Zm0-28.069H26.979V172.62H52.148Zm0-29.522H26.979v-26.19H52.148Zm0-28.069H26.979V115.034H52.148Zm0-29.518H26.979V86.965H52.148Zm0-28.069H26.979V57.443H52.148Zm0-29.522H26.979V29.374H52.148Zm1.918-26.19H83.723v26.19H54.066Zm0,28.069H83.723V85.086H54.066Zm0,29.522H83.723v26.19H54.066Zm0,28.069H83.723v27.639H54.066Zm0,29.518H83.723v26.19H54.066Zm0,28.069H83.723v27.643H54.066Zm0,29.522H83.723v26.19H54.066Zm0,28.073H83.723v27.639H54.066Zm0,29.518H83.723v26.19H54.066Zm0,28.069H83.723v27.643H54.066Zm0,29.522H83.723v26.19H54.066Zm0,28.069H83.723V373.03H54.066Zm0,29.522H83.723V401.1H54.066Zm0,28.069H83.723v27.635H54.066Zm0,29.518H83.723v26.19H54.066Zm0,28.069H83.723v27.643H54.066Zm0,29.522H83.723v26.19H54.066Zm0,28.069H83.723V545.8H54.066Zm0,29.518H83.723V573.87H54.066Zm0,28.073H83.723v27.643H54.066Zm0,29.522H83.723v26.19H54.066Zm0,28.069H83.723v27.639H54.066Zm29.657,55.708H54.066V662.861H83.723Zm27.086,0H85.641V662.861h25.168Zm0-28.069H85.641V633.339h25.168Zm0-29.518H85.641v-26.19h25.168Zm0-28.069H85.641V575.749h25.168Zm0-29.521H85.641V547.676h25.168Zm0-28.073H85.641V518.158h25.168Zm0-29.518H85.641V490.09h25.168Zm0-28.069H85.641V460.568h25.168Zm0-29.521H85.641V432.5h25.168Zm0-28.073H85.641V402.982h25.168Zm0-29.518H85.641V374.913h25.168Zm0-28.069H85.641V345.391h25.168Zm0-29.518H85.641v-26.19h25.168Zm0-28.069H85.641V287.8h25.168Zm0-29.522H85.641v-26.19h25.168Zm0-28.069H85.641V230.214h25.168Zm0-29.522H85.641v-26.19h25.168Zm0-28.069H85.641V172.62h25.168Zm0-29.522H85.641v-26.19h25.168Zm0-28.069H85.641V115.034h25.168Zm0-29.518H85.641V86.965h25.168Zm0-28.069H85.641V57.443h25.168Zm0-29.522H85.641V29.374h25.168Zm1.914-26.19h29.661v26.19H112.723Zm0,28.069h29.661V85.086H112.723Zm0,29.522h29.661v26.19H112.723Zm0,28.069h29.661v27.639H112.723Zm0,29.518h29.661v26.19H112.723Zm0,28.069h29.661v27.643H112.723Zm0,29.522h29.661v26.19H112.723Zm0,28.073h29.661v27.639H112.723Zm0,29.518h29.661v26.19H112.723Zm0,28.069h29.661v27.643H112.723Zm0,29.522h29.661v26.19H112.723Zm0,28.069h29.661V373.03H112.723Zm0,29.522h29.661V401.1H112.723Zm0,28.069h29.661v27.635H112.723Zm0,29.518h29.661v26.19H112.723Zm0,28.069h29.661v27.643H112.723Zm0,29.522h29.661v26.19H112.723Zm0,28.069h29.661V545.8H112.723Zm0,29.518h29.661V573.87H112.723Zm0,28.073h29.661v27.643H112.723Zm0,29.522h29.661v26.19H112.723Zm0,28.069h29.661v27.639H112.723Zm29.661,55.708H112.723V662.861h29.661Zm27.086,0H144.3V662.861h25.173Zm0-28.069H144.3V633.339h25.173Zm0-29.518H144.3v-26.19h25.173Zm0-28.069H144.3V575.749h25.173Zm0-29.521H144.3V547.676h25.173Zm0-28.073H144.3V518.158h25.173Zm0-29.518H144.3V490.09h25.173Zm0-28.069H144.3V460.568h25.173Zm0-29.521H144.3V432.5h25.173Zm0-28.073H144.3V402.982h25.173Zm0-29.518H144.3V374.913h25.173Zm0-28.069H144.3V345.391h25.173Zm0-29.518H144.3v-26.19h25.173Zm0-28.069H144.3V287.8h25.173Zm0-29.522H144.3v-26.19h25.173Zm0-28.069H144.3V230.214h25.173Zm0-29.522H144.3v-26.19h25.173Zm0-28.069H144.3V172.62h25.173Zm0-29.522H144.3v-26.19h25.173Zm0-28.069H144.3V115.034h25.173Zm0-29.518H144.3V86.965h25.173Zm0-28.069H144.3V57.443h25.173Zm0-29.522H144.3V29.374h25.173Zm1.914-26.19h29.661v26.19H171.384Zm0,28.069h29.661V85.086H171.384Zm0,29.522h29.661v26.19H171.384Zm0,28.069h29.661v27.639H171.384Zm0,29.518h29.661v26.19H171.384Zm0,28.069h29.661v27.643H171.384Zm0,29.522h29.661v26.19H171.384Zm0,28.073h29.661v27.639H171.384Zm0,29.518h29.661v26.19H171.384Zm0,28.069h29.661v27.643H171.384Zm0,29.522h29.661v26.19H171.384Zm0,28.069h29.661V373.03H171.384Zm0,29.522h29.661V401.1H171.384Zm0,28.069h29.661v27.635H171.384Zm0,29.518h29.661v26.19H171.384Zm0,28.069h29.661v27.643H171.384Zm0,29.522h29.661v26.19H171.384Zm0,28.069h29.661V545.8H171.384Zm0,29.518h29.661V573.87H171.384Zm0,28.073h29.661v27.643H171.384Zm0,29.522h29.661v26.19H171.384Zm0,28.069h29.661v27.639H171.384Zm29.661,55.708H171.384V662.861h29.661Zm27.082,0H202.959V662.861h25.168Zm0-28.069H202.959V633.339h25.168Zm0-29.518H202.959v-26.19h25.168Zm0-28.069H202.959V575.749h25.168Zm0-29.521H202.959V547.676h25.168Zm0-28.073H202.959V518.158h25.168Zm0-29.518H202.959V490.09h25.168Zm0-28.069H202.959V460.568h25.168Zm0-29.521H202.959V432.5h25.168Zm0-28.073H202.959V402.982h25.168Zm0-29.518H202.959V374.913h25.168Zm0-28.069H202.959V345.391h25.168Zm0-29.518H202.959v-26.19h25.168Zm0-28.069H202.959V287.8h25.168Zm0-29.522H202.959v-26.19h25.168Zm0-28.069H202.959V230.214h25.168Zm0-29.522H202.959v-26.19h25.168Zm0-28.069H202.959V172.62h25.168Zm0-29.522H202.959v-26.19h25.168Zm0-28.069H202.959V115.034h25.168Zm0-29.518H202.959V86.965h25.168Zm0-28.069H202.959V57.443h25.168Zm0-29.522H202.959V29.374h25.168Zm1.918-26.19h29.661v26.19H230.046Zm0,28.069h29.661V85.086H230.046Zm0,29.522h29.661v26.19H230.046Zm0,28.069h29.661v27.639H230.046Zm0,29.518h29.661v26.19H230.046Zm0,28.069h29.661v27.643H230.046Zm0,29.522h29.661v26.19H230.046Zm0,28.073h29.661v27.639H230.046Zm0,29.518h29.661v26.19H230.046Zm0,28.069h29.661v27.643H230.046Zm0,29.522h29.661v26.19H230.046Zm0,28.069h29.661V373.03H230.046Zm0,29.522h29.661V401.1H230.046Zm0,28.069h29.661v27.635H230.046Zm0,29.518h29.661v26.19H230.046Zm0,28.069h29.661v27.643H230.046Zm0,29.522h29.661v26.19H230.046Zm0,28.069h29.661V545.8H230.046Zm0,29.518h29.661V573.87H230.046Zm0,28.073h29.661v27.643H230.046Zm0,29.522h29.661v26.19H230.046Zm0,28.069h29.661v27.639H230.046Zm29.661,55.708H230.046V662.861h29.661Zm27.082,0H261.621V662.861h25.168Zm0-28.069H261.621V633.339h25.168Zm0-29.518H261.621v-26.19h25.168Zm0-28.069H261.621V575.749h25.168Zm0-29.521H261.621V547.676h25.168Zm0-28.073H261.621V518.158h25.168Zm0-29.518H261.621V490.09h25.168Zm0-28.069H261.621V460.568h25.168Zm0-29.521H261.621V432.5h25.168Zm0-28.073H261.621V402.982h25.168Zm0-29.518H261.621V374.913h25.168Zm0-28.069H261.621V345.391h25.168Zm0-29.518H261.621v-26.19h25.168Zm0-28.069H261.621V287.8h25.168Zm0-29.522H261.621v-26.19h25.168Zm0-28.069H261.621V230.214h25.168Zm0-29.522H261.621v-26.19h25.168Zm0-28.069H261.621V172.62h25.168Zm0-29.522H261.621v-26.19h25.168Zm0-28.069H261.621V115.034h25.168Zm0-29.518H261.621V86.965h25.168Zm0-28.069H261.621V57.443h25.168Zm0-29.522H261.621V29.374h25.168Zm1.918-26.19h29.657v26.19H288.707Zm0,28.069h29.657V85.086H288.707Zm0,29.522h29.657v26.19H288.707Zm0,28.069h29.657v27.639H288.707Zm0,29.518h29.657v26.19H288.707Zm0,28.069h29.657v27.643H288.707Zm0,29.522h29.657v26.19H288.707Zm0,28.073h29.657v27.639H288.707Zm0,29.518h29.657v26.19H288.707Zm0,28.069h29.657v27.643H288.707Zm0,29.522h29.657v26.19H288.707Zm0,28.069h29.657V373.03H288.707Zm0,29.522h29.657V401.1H288.707Zm0,28.069h29.657v27.635H288.707Zm0,29.518h29.657v26.19H288.707Zm0,28.069h29.657v27.643H288.707Zm0,29.522h29.657v26.19H288.707Zm0,28.069h29.657V545.8H288.707Zm0,29.518h29.657V573.87H288.707Zm0,28.073h29.657v27.643H288.707Zm0,29.522h29.657v26.19H288.707Zm0,28.069h29.657v27.639H288.707Zm29.657,55.708H288.707V662.861h29.657Zm27.086,0H320.282V662.861h25.168Zm0-28.069H320.282V633.339h25.168Zm0-29.518H320.282v-26.19h25.168Zm0-28.069H320.282V575.749h25.168Zm0-29.521H320.282V547.676h25.168Zm0-28.073H320.282V518.158h25.168Zm0-29.518H320.282V490.09h25.168Zm0-28.069H320.282V460.568h25.168Zm0-29.521H320.282V432.5h25.168Zm0-28.073H320.282V402.982h25.168Zm0-29.518H320.282V374.913h25.168Zm0-28.069H320.282V345.391h25.168Zm0-29.518H320.282v-26.19h25.168Zm0-28.069H320.282V287.8h25.168Zm0-29.522H320.282v-26.19h25.168Zm0-28.069H320.282V230.214h25.168Zm0-29.522H320.282v-26.19h25.168Zm0-28.069H320.282V172.62h25.168Zm0-29.522H320.282v-26.19h25.168Zm0-28.069H320.282V115.034h25.168Zm0-29.518H320.282V86.965h25.168Zm0-28.069H320.282V57.443h25.168Zm0-29.522H320.282V29.374h25.168Zm1.918-26.19h29.657v26.19H347.368Zm0,28.069h29.657V85.086H347.368Zm0,29.522h29.657v26.19H347.368Zm0,28.069h29.657v27.639H347.368Zm0,29.518h29.657v26.19H347.368Zm0,28.069h29.657v27.643H347.368Zm0,29.522h29.657v26.19H347.368Zm0,28.073h29.657v27.639H347.368Zm0,29.518h29.657v26.19H347.368Zm0,28.069h29.657v27.643H347.368Zm0,29.522h29.657v26.19H347.368Zm0,28.069h29.657V373.03H347.368Zm0,29.522h29.657V401.1H347.368Zm0,28.069h29.657v27.635H347.368Zm0,29.518h29.657v26.19H347.368Zm0,28.069h29.657v27.643H347.368Zm0,29.522h29.657v26.19H347.368Zm0,28.069h29.657V545.8H347.368Zm0,29.518h29.657V573.87H347.368Zm0,28.073h29.657v27.643H347.368Zm0,29.522h29.657v26.19H347.368Zm0,28.069h29.657v27.639H347.368Zm29.657,55.708H347.368V662.861h29.657Zm27.086,0H378.939V662.861h25.172Zm0-28.069H378.939V633.339h25.172Zm0-29.518H378.939v-26.19h25.172Zm0-28.069H378.939V575.749h25.172Zm0-29.521H378.939V547.676h25.172Zm0-28.073H378.939V518.158h25.172Zm0-29.518H378.939V490.09h25.172Zm0-28.069H378.939V460.568h25.172Zm0-29.521H378.939V432.5h25.172Zm0-28.073H378.939V402.982h25.172Zm0-29.518H378.939V374.913h25.172Zm0-28.069H378.939V345.391h25.172Zm0-29.518H378.939v-26.19h25.172Zm0-28.069H378.939V287.8h25.172Zm0-29.522H378.939v-26.19h25.172Zm0-28.069H378.939V230.214h25.172Zm0-29.522H378.939v-26.19h25.172Zm0-28.069H378.939V172.62h25.172Zm0-29.522H378.939v-26.19h25.172Zm0-28.069H378.939V115.034h25.172Zm0-29.518H378.939V86.965h25.172Zm0-28.069H378.939V57.443h25.172Zm0-29.522H378.939V29.374h25.172Zm1.914-26.19h29.661v26.19H406.026Zm0,28.069h29.661V85.086H406.026Zm0,29.522h29.661v26.19H406.026Zm0,28.069h29.661v27.639H406.026Zm0,29.518h29.661v26.19H406.026Zm0,28.069h29.661v27.643H406.026Zm0,29.522h29.661v26.19H406.026Zm0,28.073h29.661v27.639H406.026Zm0,29.518h29.661v26.19H406.026Zm0,28.069h29.661v27.643H406.026Zm0,29.522h29.661v26.19H406.026Zm0,28.069h29.661V373.03H406.026Zm0,29.522h29.661V401.1H406.026Zm0,28.069h29.661v27.635H406.026Zm0,29.518h29.661v26.19H406.026Zm0,28.069h29.661v27.643H406.026Zm0,29.522h29.661v26.19H406.026Zm0,28.069h29.661V545.8H406.026Zm0,29.518h29.661V573.87H406.026Zm0,28.073h29.661v27.643H406.026Zm0,29.522h29.661v26.19H406.026Zm0,28.069h29.661v27.639H406.026Zm29.661,55.708H406.026V662.861h29.661Zm27.082,0H437.6V662.861h25.164Zm0-28.069H437.6V633.339h25.164Zm0-29.518H437.6v-26.19h25.164Zm0-28.069H437.6V575.749h25.164Zm0-29.521H437.6V547.676h25.164Zm0-28.073H437.6V518.158h25.164Zm0-29.518H437.6V490.09h25.164Zm0-28.069H437.6V460.568h25.164Zm0-29.521H437.6V432.5h25.164Zm0-28.073H437.6V402.982h25.164Zm0-29.518H437.6V374.913h25.164Zm0-28.069H437.6V345.391h25.164Zm0-29.518H437.6v-26.19h25.164Zm0-28.069H437.6V287.8h25.164Zm0-29.522H437.6v-26.19h25.164Zm0-28.069H437.6V230.214h25.164Zm0-29.522H437.6v-26.19h25.164Zm0-28.069H437.6V172.62h25.164Zm0-29.522H437.6v-26.19h25.164Zm0-28.069H437.6V115.034h25.164Zm0-29.518H437.6V86.965h25.164Zm0-28.069H437.6V57.443h25.164Zm0-29.522H437.6V29.374h25.164Zm1.914-26.19h29.661v26.19H464.683Zm0,28.069h29.661V85.086H464.683Zm0,29.522h29.661v26.19H464.683Zm0,28.069h29.661v27.639H464.683Zm0,29.518h29.661v26.19H464.683Zm0,28.069h29.661v27.643H464.683Zm0,29.522h29.661v26.19H464.683Zm0,28.073h29.661v27.639H464.683Zm0,29.518h29.661v26.19H464.683Zm0,28.069h29.661v27.643H464.683Zm0,29.522h29.661v26.19H464.683Zm0,28.069h29.661V373.03H464.683Zm0,29.522h29.661V401.1H464.683Zm0,28.069h29.661v27.635H464.683Zm0,29.518h29.661v26.19H464.683Zm0,28.069h29.661v27.643H464.683Zm0,29.522h29.661v26.19H464.683Zm0,28.069h29.661V545.8H464.683Zm0,29.518h29.661V573.87H464.683Zm0,28.073h29.661v27.643H464.683Zm0,29.522h29.661v26.19H464.683Zm0,28.069h29.661v27.639H464.683Zm29.661,55.708H464.683V662.861h29.661Zm27.086,0H496.262V662.861H521.43Zm0-28.069H496.262V633.339H521.43Zm0-29.518H496.262v-26.19H521.43Zm0-28.069H496.262V575.749H521.43Zm0-29.521H496.262V547.676H521.43Zm0-28.073H496.262V518.158H521.43Zm0-29.518H496.262V490.09H521.43Zm0-28.069H496.262V460.568H521.43Zm0-29.521H496.262V432.5H521.43Zm0-28.073H496.262V402.982H521.43Zm0-29.518H496.262V374.913H521.43Zm0-28.069H496.262V345.391H521.43Zm0-29.518H496.262v-26.19H521.43Zm0-28.069H496.262V287.8H521.43Zm0-29.522H496.262v-26.19H521.43Zm0-28.069H496.262V230.214H521.43Zm0-29.522H496.262v-26.19H521.43Zm0-28.069H496.262V172.62H521.43Zm0-29.522H496.262v-26.19H521.43Zm0-28.069H496.262V115.034H521.43Zm0-29.518H496.262V86.965H521.43Zm0-28.069H496.262V57.443H521.43Zm0-29.522H496.262V29.374H521.43Zm1.918-26.19H553.01v26.19H523.348Zm0,28.069H553.01V85.086H523.348Zm0,29.522H553.01v26.19H523.348Zm0,28.069H553.01v27.639H523.348Zm0,29.518H553.01v26.19H523.348Zm0,28.069H553.01v27.643H523.348Zm0,29.522H553.01v26.19H523.348Zm0,28.073H553.01v27.639H523.348Zm0,29.518H553.01v26.19H523.348Zm0,28.069H553.01v27.643H523.348Zm0,29.522H553.01v26.19H523.348Zm0,28.069H553.01V373.03H523.348Zm0,29.522H553.01V401.1H523.348Zm0,28.069H553.01v27.635H523.348Zm0,29.518H553.01v26.19H523.348Zm0,28.069H553.01v27.643H523.348Zm0,29.522H553.01v26.19H523.348Zm0,28.069H553.01V545.8H523.348Zm0,29.518H553.01V573.87H523.348Zm0,28.073H553.01v27.643H523.348Zm0,29.522H553.01v26.19H523.348Zm0,28.069H553.01v27.639H523.348Zm29.661,55.708H523.348V662.861H553.01Zm27.078,0H554.919V662.861h25.168Zm0-28.069H554.919V633.339h25.168Zm0-29.518H554.919v-26.19h25.168Zm0-28.069H554.919V575.749h25.168Zm0-29.521H554.919V547.676h25.168Zm0-28.073H554.919V518.158h25.168Zm0-29.518H554.919V490.09h25.168Zm0-28.069H554.919V460.568h25.168Zm0-29.521H554.919V432.5h25.168Zm0-28.073H554.919V402.982h25.168Zm0-29.518H554.919V374.913h25.168Zm0-28.069H554.919V345.391h25.168Zm0-29.518H554.919v-26.19h25.168Zm0-28.069H554.919V287.8h25.168Zm0-29.522H554.919v-26.19h25.168Zm0-28.069H554.919V230.214h25.168Zm0-29.522H554.919v-26.19h25.168Zm0-28.069H554.919V172.62h25.168Zm0-29.522H554.919v-26.19h25.168Zm0-28.069H554.919V115.034h25.168Zm0-29.518H554.919V86.965h25.168Zm0-28.069H554.919V57.443h25.168Zm0-29.522H554.919V29.374h25.168Zm1.918-26.19h29.661v26.19H582.005Zm0,28.069h29.661V85.086H582.005Zm0,29.522h29.661v26.19H582.005Zm0,28.069h29.661v27.639H582.005Zm0,29.518h29.661v26.19H582.005Zm0,28.069h29.661v27.643H582.005Zm0,29.522h29.661v26.19H582.005Zm0,28.073h29.661v27.639H582.005Zm0,29.518h29.661v26.19H582.005Zm0,28.069h29.661v27.643H582.005Zm0,29.522h29.661v26.19H582.005Zm0,28.069h29.661V373.03H582.005Zm0,29.522h29.661V401.1H582.005Zm0,28.069h29.661v27.635H582.005Zm0,29.518h29.661v26.19H582.005Zm0,28.069h29.661v27.643H582.005Zm0,29.522h29.661v26.19H582.005Zm0,28.069h29.661V545.8H582.005Zm0,29.518h29.661V573.87H582.005Zm0,28.073h29.661v27.643H582.005Zm0,29.522h29.661v26.19H582.005Zm0,28.069h29.661v27.639H582.005Zm29.661,55.708H582.005V662.861h29.661Zm27.086,0H613.585V662.861h25.168Zm0-28.069H613.585V633.339h25.168Zm0-29.518H613.585v-26.19h25.168Zm0-28.069H613.585V575.749h25.168Zm0-29.521H613.585V547.676h25.168Zm0-28.073H613.585V518.158h25.168Zm0-29.518H613.585V490.09h25.168Zm0-28.069H613.585V460.568h25.168Zm0-29.521H613.585V432.5h25.168Zm0-28.073H613.585V402.982h25.168Zm0-29.518H613.585V374.913h25.168Zm0-28.069H613.585V345.391h25.168Zm0-29.518H613.585v-26.19h25.168Zm0-28.069H613.585V287.8h25.168Zm0-29.522H613.585v-26.19h25.168Zm0-28.069H613.585V230.214h25.168Zm0-29.522H613.585v-26.19h25.168Zm0-28.069H613.585V172.62h25.168Zm0-29.522H613.585v-26.19h25.168Zm0-28.069H613.585V115.034h25.168Zm0-29.518H613.585V86.965h25.168Zm0-28.069H613.585V57.443h25.168Zm0-29.522H613.585V29.374h25.168Zm31.571,633.483H640.671V662.861h29.653Zm-29.653-28.069V633.339h29.653v27.639Zm29.653-29.518H640.671v-26.19h29.653Zm-29.653-28.069V575.749h29.653v27.643Zm29.653-29.521H640.671V547.676h29.653ZM640.671,545.8V518.158h29.653V545.8Zm29.653-29.518H640.671V490.09h29.653Zm-29.653-28.069V460.568h29.653v27.643Zm29.653-29.521H640.671V432.5h29.653Zm-29.653-28.073V402.982h29.653v27.635ZM670.324,401.1H640.671V374.913h29.653ZM640.671,373.03V345.391h29.653V373.03Zm29.653-29.518H640.671v-26.19h29.653Zm-29.653-28.069V287.8h29.653v27.643Zm29.653-29.522H640.671v-26.19h29.653Zm-29.653-28.069V230.214h29.653v27.639Zm29.653-29.522H640.671v-26.19h29.653Zm-29.653-28.069V172.62h29.653v27.643Zm29.653-29.522H640.671v-26.19h29.653Zm-29.653-28.069V115.034h29.653v27.639Zm29.653-29.518H640.671V86.965h29.653ZM640.671,85.086V57.443h29.653V85.086Zm29.653-29.522H640.671V29.374h29.653Z" transform="translate(680.355 -28.433)" fill="#fff"/>
    </g>
  </g>
</svg>
