<svg xmlns="http://www.w3.org/2000/svg" width="97.594" height="68.99" viewBox="0 0 97.594 68.99">
  <g id="Group_34769" data-name="Group 34769" transform="translate(0 0)">
    <g id="Group_34742" data-name="Group 34742" transform="translate(0 0)">
      <path id="Path_83426" data-name="Path 83426" d="M27.512,113.02h-3.8a.251.251,0,0,1-.089-.013.165.165,0,0,1-.1-.173.169.169,0,0,1,.168-.137h3.85c-.027-.03-.039-.047-.055-.063l-1.09-1.089a.18.18,0,0,1-.071-.187.161.161,0,0,1,.278-.067c.093.09.184.183.275.275l1.159,1.158a.16.16,0,0,1,0,.261L26.618,114.4a.165.165,0,0,1-.275-.013.178.178,0,0,1,.046-.218l.551-.55.534-.534c.016-.016.031-.033.045-.049l-.008-.015" transform="translate(-14.857 -70.291)" fill="#27c6da"/>
      <path id="Path_83427" data-name="Path 83427" d="M105.978,87.251c.543-1.635,1.009-3.077,1.5-4.51,1.648-4.8,3.294-9.6,4.973-14.394a3.761,3.761,0,0,1,.853-1.372q18.058-18.106,36.12-36.207a4.371,4.371,0,0,1,5.089-1.161,17.441,17.441,0,0,1,9.555,9.051,4.215,4.215,0,0,1-.992,5.185Q145.2,61.663,127.357,79.515a6.648,6.648,0,0,1-2.47,1.3c-5.91,2.094-11.837,4.143-17.761,6.2a10.554,10.554,0,0,1-1.148.241M125,78.021c.25-.2.475-.353.664-.54.892-.883,1.772-1.777,2.659-2.664Q141.144,62,153.974,49.189c.56-.559.674-.947.039-1.568q-4.071-3.976-8.055-8.042c-.573-.582-.934-.636-1.551-.016Q130.229,53.813,116,68.011c-.508.507-.541.842-.02,1.345,2.816,2.723,5.608,5.47,8.413,8.2a6.316,6.316,0,0,0,.61.46m37.073-37.512a10.828,10.828,0,0,0-.766-1.755,19.672,19.672,0,0,0-7.911-6.632,1.4,1.4,0,0,0-1.767.24q-1.944,2.009-3.957,3.951c-.456.441-.467.769-.018,1.214q4.231,4.194,8.432,8.418c.427.43.738.388,1.141-.026,1.365-1.4,2.77-2.762,4.121-4.175a6.166,6.166,0,0,0,.725-1.235M110.356,82.751l.209.233,11.25-3.935a2.654,2.654,0,0,0-.237-.455q-3.368-3.306-6.742-6.606c-.531-.522-.752-.251-.941.306-1.061,3.122-2.136,6.239-3.2,9.359-.124.362-.225.731-.337,1.1" transform="translate(-66.968 -18.475)" fill="#27c6da"/>
      <path id="Path_83428" data-name="Path 83428" d="M63.076,26.737a26.327,26.327,0,0,1-2.2,2.087c-.549.414-1.327-.028-1.588-.708-.82-2.134-1.689-4.251-2.473-6.4a1.514,1.514,0,0,1,.173-1.208c.8-1.12,1.7-2.164,2.541-3.255a1.813,1.813,0,0,0-.144-2.831q-2.216-2.263-4.47-4.489c-1.069-1.054-1.763-1.071-2.969-.129-.989.772-1.99,1.531-2.953,2.335a1.155,1.155,0,0,1-1.411.107Q44.319,10.8,41,9.47a1.2,1.2,0,0,1-.893-1.114C40,7.076,39.842,5.8,39.692,4.523a1.748,1.748,0,0,0-1.917-1.8q-3.444-.062-6.89-.011a1.708,1.708,0,0,0-1.791,1.727c-.173,1.273-.336,2.55-.429,3.831-.051.7-.4.965-1.017,1.2-2.1.816-4.2,1.669-6.245,2.609a1.24,1.24,0,0,1-1.552-.152c-.957-.811-1.945-1.586-2.941-2.349a1.756,1.756,0,0,0-2.622.144Q11.922,12.038,9.6,14.394a1.72,1.72,0,0,0-.148,2.678c.76,1,1.523,2,2.334,2.952a1.34,1.34,0,0,1,.169,1.649c-.871,1.948-1.656,3.936-2.41,5.934a1.187,1.187,0,0,1-1.08.931c-1.31.131-2.617.293-3.925.441a1.8,1.8,0,0,0-1.871,1.952c-.039,2.234-.042,4.469-.02,6.7a1.807,1.807,0,0,0,1.783,1.952c1.307.16,2.615.317,3.926.432A1.267,1.267,0,0,1,9.587,41c.745,2,1.57,3.973,2.456,5.915a1.347,1.347,0,0,1-.137,1.712c-.886,1.012-1.693,2.094-2.514,3.161A1.738,1.738,0,0,0,9.5,54.475q2.337,2.4,4.731,4.747a1.688,1.688,0,0,0,2.542.149c1.146-.869,2.286-1.748,3.386-2.673a1.262,1.262,0,0,1,1.562-.124c1.949.873,3.919,1.715,5.931,2.425A1.4,1.4,0,0,1,28.8,60.382c.111,1.372.294,2.739.492,4.1.193,1.329.725,1.769,2.1,1.792,1.256.021,2.511.025,3.766.021.633,0,.9.151.649.872-.748,2.152-.512,1.808-2.539,1.792a16.344,16.344,0,0,1-3.547-.261,3.819,3.819,0,0,1-2.954-3.178c-.2-1.016-.282-2.06-.387-3.094A1.373,1.373,0,0,0,25.354,61.1c-1.213-.416-2.367-1-3.579-1.419a1.6,1.6,0,0,0-1.223.159c-.77.491-1.442,1.134-2.182,1.677a4.37,4.37,0,0,1-6.065-.438c-1.545-1.529-3.088-3.06-4.608-4.614-1.974-2.018-2.178-4.311-.3-6.387,1.468-1.619,1.836-2.95.83-5.111-.857-1.841-1.744-2.653-3.732-2.754C1.466,42.058,0,40.328,0,37.318c0-2.143,0-4.286.014-6.428a4.326,4.326,0,0,1,4.035-4.522,13.38,13.38,0,0,1,1.82-.23A1.594,1.594,0,0,0,7.628,24.8a21.608,21.608,0,0,1,1.223-2.964A1.133,1.133,0,0,0,8.7,20.429C8.135,19.783,7.619,19.1,7.118,18.4a4.232,4.232,0,0,1,.295-5.559Q10,10.108,12.746,7.525a4.255,4.255,0,0,1,5.423-.315c.728.505,1.37,1.14,2.121,1.6a1.6,1.6,0,0,0,1.224.117c1.321-.477,2.619-1.025,3.891-1.621a1.487,1.487,0,0,0,.718-.885,21,21,0,0,0,.343-2.452A4.389,4.389,0,0,1,30.727.033q3.628-.066,7.258,0a4.359,4.359,0,0,1,4.32,3.97,12.8,12.8,0,0,1,.236,1.911c-.03.986.479,1.372,1.331,1.666a30.763,30.763,0,0,1,3.371,1.438,1.239,1.239,0,0,0,1.577-.145c.566-.512,1.194-.956,1.8-1.42a4.31,4.31,0,0,1,5.718.186c1.828,1.717,3.6,3.5,5.32,5.324a4.209,4.209,0,0,1,.3,5.486A27.851,27.851,0,0,1,60.2,20.688a1.244,1.244,0,0,0-.2,1.5c.488,1.12.872,2.287,1.383,3.4.16.348.577.589.9.843a3.845,3.845,0,0,0,.792.31" transform="translate(0 0)" fill="#27c6da"/>
      <path id="Path_83429" data-name="Path 83429" d="M55.9,69.781A13.909,13.909,0,1,1,69.759,83.744,13.931,13.931,0,0,1,55.9,69.781m25.136.038A11.247,11.247,0,1,0,69.929,81.071,11.281,11.281,0,0,0,81.04,69.819" transform="translate(-35.326 -35.328)" fill="#27c6da"/>
    </g>
  </g>
</svg>
