<svg xmlns="http://www.w3.org/2000/svg" width="52.755" height="52.754" viewBox="0 0 52.755 52.754">
  <g id="Group_35641" data-name="Group 35641" transform="translate(-2349.187 -2755.361)">
    <g id="Group_35605" data-name="Group 35605" transform="translate(2349.187 2755.36)">
      <g id="Group_35442" data-name="Group 35442" transform="translate(0 0.001)">
        <path id="Path_96557" data-name="Path 96557" d="M.011,13.8a3,3,0,0,0,.112.784,1.683,1.683,0,0,0,.855,1.045,1.742,1.742,0,0,0,.8.195,1.682,1.682,0,0,0,.578-.1,1.848,1.848,0,0,0,1.209-1.965c0-.554,0-1.107.008-1.661.008-1.328.018-2.7-.019-4.053A4.4,4.4,0,0,1,4.866,4.811,4.286,4.286,0,0,1,8.06,3.553c.59.022,1.189.016,1.768.01l.819,0h.626q1.252,0,2.506,0a1.983,1.983,0,0,0,1.591-.6,1.681,1.681,0,0,0,.31-1.863,1.784,1.784,0,0,0-1.8-1.087h-.648C11.481,0,9.671-.006,7.89.017A7.725,7.725,0,0,0,3.367,1.48,7.794,7.794,0,0,0,.022,7.948C-.009,9.465,0,11.008.007,12.5Z" transform="translate(0 -0.001)"/>
        <path id="Path_96558" data-name="Path 96558" d="M34.527,3.552H36.82c1.107,0,2.215,0,3.322.007a5.507,5.507,0,0,1,1.314.111,4.324,4.324,0,0,1,3.407,4.37c.008.982.007,1.964.006,2.945q0,1.335,0,2.67a3.3,3.3,0,0,0,.136,1.069,1.719,1.719,0,0,0,1.616,1.1,1.7,1.7,0,0,0,.31-.028,1.776,1.776,0,0,0,1.436-1.674c.015-.8.011-1.6.008-2.393l0-.79,0-1.148c0-.676.006-1.353,0-2.028A7.886,7.886,0,0,0,42.847.386a11.9,11.9,0,0,0-3.668-.38c-.661,0-1.32,0-1.98,0-.9,0-1.811,0-2.717.006a1.948,1.948,0,0,0-1.609.778,1.728,1.728,0,0,0-.194,1.581,1.833,1.833,0,0,0,1.848,1.182" transform="translate(4.312 0)"/>
        <path id="Path_96559" data-name="Path 96559" d="M13.809,44.854h-.015l-.9,0c-1.632.006-3.265.01-4.9,0A4.318,4.318,0,0,1,3.83,41.945a5.6,5.6,0,0,1-.256-1.731c-.019-1.119-.018-2.239-.016-3.359,0-.8,0-1.6,0-2.393a1.929,1.929,0,0,0-.745-1.573,1.758,1.758,0,0,0-1.576-.23A1.788,1.788,0,0,0,.014,34.481l0,.9C0,36.872-.007,38.407.022,39.919a13.98,13.98,0,0,0,.257,2.456,7.8,7.8,0,0,0,6.246,5.84c.961.118,1.944.146,2.894.173.433.012.866.025,1.3.045l.226.01,0-.079c.264,0,.528,0,.792,0,.788,0,1.6.009,2.4-.012a1.663,1.663,0,0,0,1.567-1.14,1.685,1.685,0,0,0-.4-1.846,1.906,1.906,0,0,0-1.506-.515" transform="translate(0.001 4.31)"/>
        <path id="Path_96560" data-name="Path 96560" d="M48.392,37.519h-.01l0-2.013c0-.4.006-.79-.008-1.186a1.8,1.8,0,0,0-.863-1.513,1.726,1.726,0,0,0-1.688-.043,1.757,1.757,0,0,0-.959,1.722l0,1.019c.007,1.581.015,3.215-.019,4.82a5.279,5.279,0,0,1-.314,1.719,4.287,4.287,0,0,1-4.147,2.806c-1.095.011-2.19.009-3.286.008-.823,0-1.646,0-2.467,0a2.9,2.9,0,0,0-.933.123,1.7,1.7,0,0,0-1.11,1.855,1.727,1.727,0,0,0,1.738,1.525l.379,0c.93.006,1.876.012,2.827.012.866,0,1.736-.006,2.6-.022a11.9,11.9,0,0,0,2.362-.281,7.765,7.765,0,0,0,5.729-6.231c.117-.94.144-1.9.17-2.832.012-.422.024-.846.044-1.267Z" transform="translate(4.312 4.31)"/>
      </g>
    </g>
    <g id="Group_35608" data-name="Group 35608" transform="translate(2362.337 2764.252)">
      <g id="Group_35475" data-name="Group 35475" transform="translate(0 0)">
        <path id="Path_96608" data-name="Path 96608" d="M10.049,15.86A8.419,8.419,0,0,1,7.443,2.866a8.324,8.324,0,0,1,12.2-.4,8.03,8.03,0,0,1,2.281,7.248,8.264,8.264,0,0,1-4.585,6.131c.563.208,1.071.376,1.562.585a13.6,13.6,0,0,1,1.454.7.9.9,0,1,1-.936,1.542A12.212,12.212,0,0,0,15.3,17.356a11.426,11.426,0,0,0-3.19-.007,12.038,12.038,0,0,0-9.829,8.663,15.342,15.342,0,0,0-.4,4.833,1.1,1.1,0,0,0,1.107,1.032c.263.016.529.005.794.005q5.267,0,10.534,0c.662,0,1.059.35,1.058.916a.887.887,0,0,1-.737.894,1.7,1.7,0,0,1-.323.025c-3.74,0-7.48.009-11.219,0a2.97,2.97,0,0,1-2.954-2.2,2.229,2.229,0,0,1-.086-.46A14.5,14.5,0,0,1,3.012,20.59,13.8,13.8,0,0,1,6.5,17.454a16.255,16.255,0,0,1,3.229-1.485l.315-.108M20.214,8.338a6.481,6.481,0,1,0-6.481,6.471,6.489,6.489,0,0,0,6.481-6.471" transform="translate(0 0)" fill="#1a73e9" stroke="#1a73e9" stroke-width="1"/>
        <path id="Path_96609" data-name="Path 96609" d="M35.931,43.617a.91.91,0,0,1-1.344.9c-.748-.358-1.478-.752-2.216-1.13-.588-.3-1.171-.615-1.77-.895a.635.635,0,0,0-.488,0c-1.216.6-2.421,1.231-3.629,1.85-.118.06-.234.125-.354.18a.919.919,0,0,1-.99-.072.9.9,0,0,1-.344-.926c.215-1.329.407-2.662.648-3.987a1.122,1.122,0,0,0-.366-1.165c-.96-.891-1.867-1.838-2.8-2.757a.967.967,0,0,1-.344-1.062.994.994,0,0,1,.909-.651q2.122-.31,4.239-.663a.63.63,0,0,0,.407-.281c.646-1.26,1.273-2.532,1.9-3.8a1.009,1.009,0,0,1,1.931-.006c.627,1.271,1.254,2.542,1.9,3.8a.628.628,0,0,0,.4.286q2.133.355,4.275.666a.966.966,0,0,1,.875.643.955.955,0,0,1-.316,1.04c-1.01,1-2.008,2-3.023,3a.633.633,0,0,0-.215.631c.231,1.338.44,2.681.656,4.022.024.154.043.309.053.386m-9.04-1.558c.2-.094.325-.153.45-.217.823-.421,1.65-.837,2.469-1.268a1.083,1.083,0,0,1,1.095,0c.839.445,1.688.87,2.533,1.3.1.053.21.1.38.175-.03-.238-.046-.413-.074-.586-.137-.854-.267-1.71-.421-2.561a1.188,1.188,0,0,1,.372-1.171c.671-.637,1.315-1.3,1.97-1.956.086-.087.166-.18.294-.32-1.122-.178-2.162-.355-3.207-.5a1.122,1.122,0,0,1-.919-.656c-.421-.851-.852-1.7-1.281-2.544-.052-.1-.114-.2-.2-.345-.09.163-.15.265-.2.37-.425.836-.854,1.669-1.268,2.51a1.112,1.112,0,0,1-.913.663c-.964.135-1.924.3-2.885.454-.088.014-.173.045-.3.08.114.123.189.212.272.294.671.671,1.339,1.347,2.02,2.009a1.065,1.065,0,0,1,.334,1.011q-.157.924-.3,1.851c-.07.445-.134.891-.212,1.409" transform="translate(-7.434 -9.659)"/>
      </g>
    </g>
  </g>
</svg>
