<svg xmlns="http://www.w3.org/2000/svg" width="52.755" height="52.754" viewBox="0 0 52.755 52.754">
  <g id="Group_35605" data-name="Group 35605" transform="translate(0 0)">
    <g id="Group_35442" data-name="Group 35442" transform="translate(0 0.001)">
      <path id="Path_96557" data-name="Path 96557" d="M.011,13.8a3,3,0,0,0,.112.784,1.683,1.683,0,0,0,.855,1.045,1.742,1.742,0,0,0,.8.195,1.682,1.682,0,0,0,.578-.1,1.848,1.848,0,0,0,1.209-1.965c0-.554,0-1.107.008-1.661.008-1.328.018-2.7-.019-4.053A4.4,4.4,0,0,1,4.866,4.811,4.286,4.286,0,0,1,8.06,3.553c.59.022,1.189.016,1.768.01l.819,0h.626q1.252,0,2.506,0a1.983,1.983,0,0,0,1.591-.6,1.681,1.681,0,0,0,.31-1.863,1.784,1.784,0,0,0-1.8-1.087h-.648C11.481,0,9.671-.006,7.89.017A7.725,7.725,0,0,0,3.367,1.48,7.794,7.794,0,0,0,.022,7.948C-.009,9.465,0,11.008.007,12.5Z" transform="translate(0 -0.001)"/>
      <path id="Path_96558" data-name="Path 96558" d="M34.527,3.552H36.82c1.107,0,2.215,0,3.322.007a5.507,5.507,0,0,1,1.314.111,4.324,4.324,0,0,1,3.407,4.37c.008.982.007,1.964.006,2.945q0,1.335,0,2.67a3.3,3.3,0,0,0,.136,1.069,1.719,1.719,0,0,0,1.616,1.1,1.7,1.7,0,0,0,.31-.028,1.776,1.776,0,0,0,1.436-1.674c.015-.8.011-1.6.008-2.393l0-.79,0-1.148c0-.676.006-1.353,0-2.028A7.886,7.886,0,0,0,42.847.386a11.9,11.9,0,0,0-3.668-.38c-.661,0-1.32,0-1.98,0-.9,0-1.811,0-2.717.006a1.948,1.948,0,0,0-1.609.778,1.728,1.728,0,0,0-.194,1.581,1.833,1.833,0,0,0,1.848,1.182" transform="translate(4.312 0)"/>
      <path id="Path_96559" data-name="Path 96559" d="M13.809,44.854h-.015l-.9,0c-1.632.006-3.265.01-4.9,0A4.318,4.318,0,0,1,3.83,41.945a5.6,5.6,0,0,1-.256-1.731c-.019-1.119-.018-2.239-.016-3.359,0-.8,0-1.6,0-2.393a1.929,1.929,0,0,0-.745-1.573,1.758,1.758,0,0,0-1.576-.23A1.788,1.788,0,0,0,.014,34.481l0,.9C0,36.872-.007,38.407.022,39.919a13.98,13.98,0,0,0,.257,2.456,7.8,7.8,0,0,0,6.246,5.84c.961.118,1.944.146,2.894.173.433.012.866.025,1.3.045l.226.01,0-.079c.264,0,.528,0,.792,0,.788,0,1.6.009,2.4-.012a1.663,1.663,0,0,0,1.567-1.14,1.685,1.685,0,0,0-.4-1.846,1.906,1.906,0,0,0-1.506-.515" transform="translate(0.001 4.31)"/>
      <path id="Path_96560" data-name="Path 96560" d="M48.392,37.519h-.01l0-2.013c0-.4.006-.79-.008-1.186a1.8,1.8,0,0,0-.863-1.513,1.726,1.726,0,0,0-1.688-.043,1.757,1.757,0,0,0-.959,1.722l0,1.019c.007,1.581.015,3.215-.019,4.82a5.279,5.279,0,0,1-.314,1.719,4.287,4.287,0,0,1-4.147,2.806c-1.095.011-2.19.009-3.286.008-.823,0-1.646,0-2.467,0a2.9,2.9,0,0,0-.933.123,1.7,1.7,0,0,0-1.11,1.855,1.727,1.727,0,0,0,1.738,1.525l.379,0c.93.006,1.876.012,2.827.012.866,0,1.736-.006,2.6-.022a11.9,11.9,0,0,0,2.362-.281,7.765,7.765,0,0,0,5.729-6.231c.117-.94.144-1.9.17-2.832.012-.422.024-.846.044-1.267Z" transform="translate(4.312 4.31)"/>
    </g>
  </g>
</svg>
