<svg id="Group_35606" data-name="Group 35606" xmlns="http://www.w3.org/2000/svg" width="73.701" height="46.235" viewBox="0 0 73.701 46.235">
  <g id="Group_35469" data-name="Group 35469" transform="translate(0 0)">
    <path id="Path_96596" data-name="Path 96596" d="M41.332,24.465a14.4,14.4,0,0,0-15.741,1.089c-4.335,3.063-6.4,7.439-6.317,13.379a4.45,4.45,0,0,0,1.24,3.232,4.287,4.287,0,0,0,3.056,1.126l.128,0c2.5-.052,5.042-.04,7.5-.029,1.061,0,2.121.01,3.182.01l.168,0q1.568,0,3.135,0c2.516,0,5.116.008,7.674-.009a3.732,3.732,0,0,0,4.025-4l0-.189c.006-.476.012-.968,0-1.453-.164-6.049-2.874-10.476-8.055-13.154M22.34,38.9c-.218-4.978,1.648-8.76,5.547-11.243A11.852,11.852,0,0,1,34.3,25.678a12.082,12.082,0,0,1,5.68,1.492,11.439,11.439,0,0,1,6.366,9.988c.027.441.024.9.02,1.332l0,.386c0,1.248-.1,1.348-1.313,1.349q-3.77.005-7.541,0H34.2v.006H23.685c-1.2,0-1.291-.087-1.345-1.332" transform="translate(2.507 2.944)" fill="#1a73e9"/>
    <path id="Path_96597" data-name="Path 96597" d="M3.3,32.195c-.281-.286-.269-.983-.247-2.249a12.035,12.035,0,0,1,22.4-6.029c.129.215.267.424.409.642l.3.462,2.465-1.515-.182-.406c-.064-.149-.116-.264-.175-.376a15.1,15.1,0,0,0-18.266-6.88C3.277,18.336-.536,24.549.061,32.056a3.6,3.6,0,0,0,3.4,3.412c2.322.024,4.664.031,7,.031,2.3,0,4.585-.007,6.835-.014l.994,0a1.026,1.026,0,0,0,.846-.437c.216-.505.379-1.02.566-1.616.073-.232.149-.474.233-.729L20,32.477H5.509c-1.243,0-1.928,0-2.207-.284" transform="translate(0 1.946)"/>
    <path id="Path_96598" data-name="Path 96598" d="M68.475,29.893a15.063,15.063,0,0,0-27.6-8.219c-.561.828-.842,1.245-.758,1.633s.493.635,1.309,1.137l.967.59.477-.824a12.139,12.139,0,0,1,7.772-5.9A11.97,11.97,0,0,1,60.1,20.056c3.672,2.436,5.478,6.1,5.365,10.888-.034,1.445-.12,1.539-1.526,1.539h-.025q-7.03-.007-14.057,0c-.224,0-.449.017-.705.035-.128.01-.264.02-.414.029l-.223.014.072.21c.078.226.155.436.229.636a10.547,10.547,0,0,1,.386,1.19,1.073,1.073,0,0,0,1.226.919h.018c4.719-.025,9.437-.006,14.153-.024a3.728,3.728,0,0,0,3.878-3.858c.015-.594.006-1.2,0-1.738" transform="translate(5.217 1.948)"/>
    <path id="Path_96599" data-name="Path 96599" d="M14.228,14.956h.006a7.448,7.448,0,0,0,5.3-2.207,7.334,7.334,0,0,0,2.173-5.221A7.522,7.522,0,0,0,19.5,2.21,7.4,7.4,0,0,0,14.225,0h-.018a7.476,7.476,0,1,0,.02,14.952M9.75,7.476a4.508,4.508,0,0,1,4.414-4.462h.057a4.462,4.462,0,0,1,3.082,1.3A4.553,4.553,0,0,1,18.7,7.486a4.577,4.577,0,0,1-4.42,4.464,4.438,4.438,0,0,1-3.128-1.282,4.571,4.571,0,0,1-1.4-3.193" transform="translate(0.876 0.001)"/>
    <path id="Path_96600" data-name="Path 96600" d="M52.738,14.952h.018a7.406,7.406,0,0,0,5.268-2.162A7.49,7.49,0,0,0,52.844,0h-.061a7.476,7.476,0,1,0-.044,14.952m3.2-4.35a4.446,4.446,0,0,1-3.152,1.354,4.6,4.6,0,0,1-4.51-4.372A4.494,4.494,0,0,1,52.656,3.02h.077a4.563,4.563,0,0,1,4.482,4.413,4.43,4.43,0,0,1-1.28,3.171" transform="translate(5.887 0)"/>
    <path id="Path_96601" data-name="Path 96601" d="M33.448,22.7h.034a7.478,7.478,0,0,0,5.3-12.749,7.391,7.391,0,0,0-5.266-2.2h-.026A7.476,7.476,0,0,0,33.448,22.7m-4.422-7.582A4.388,4.388,0,0,1,33.5,10.775h.019A4.4,4.4,0,0,1,36.651,12.1,4.424,4.424,0,0,1,33.5,19.649h-.05a4.434,4.434,0,0,1-4.421-4.532" transform="translate(3.384 1.008)" fill="#1a73e9"/>
  </g>
</svg>
