<svg xmlns="http://www.w3.org/2000/svg" xmlns:xlink="http://www.w3.org/1999/xlink" width="1402" height="454" viewBox="0 0 1402 454">
  <defs>
    <linearGradient id="linear-gradient" x1="1.371" y1="1.193" x2="0.195" y2="0.186" gradientUnits="objectBoundingBox">
      <stop offset="0" stop-color="#ff860d"/>
      <stop offset="1" stop-color="#c31b82"/>
    </linearGradient>
  </defs>
  <g id="Group_19132" data-name="Group 19132" transform="translate(2 -493)">
    <rect id="Rectangle_13686" data-name="Rectangle 13686" width="1402" height="454" transform="translate(-2 493)" fill="url(#linear-gradient)"/>
    <g id="Group_3924" data-name="Group 3924" transform="translate(36.336 379.279)" opacity="0.604">
      <g id="Group_3909" data-name="Group 3909" transform="translate(95.616 217.351)" opacity="0.4">
        <g id="Group_3906" data-name="Group 3906" transform="translate(0 0)">
          <path id="Path_28593" data-name="Path 28593" d="M197.535,426.236a2.014,2.014,0,1,1-2.014-2.014A2.015,2.015,0,0,1,197.535,426.236Z" transform="translate(-193.506 -424.222)" fill="#fff" stroke="#fff" stroke-width="1"/>
          <path id="Path_28594" data-name="Path 28594" d="M205.66,426.236a2.014,2.014,0,1,1-2.014-2.014A2.015,2.015,0,0,1,205.66,426.236Z" transform="translate(-189.353 -424.222)" fill="#fff" stroke="#fff" stroke-width="1"/>
          <path id="Path_28595" data-name="Path 28595" d="M213.785,426.236a2.014,2.014,0,1,1-2.014-2.014A2.015,2.015,0,0,1,213.785,426.236Z" transform="translate(-185.2 -424.222)" fill="#fff" stroke="#fff" stroke-width="1"/>
          <path id="Path_28596" data-name="Path 28596" d="M221.91,426.236a2.014,2.014,0,1,1-2.014-2.014A2.015,2.015,0,0,1,221.91,426.236Z" transform="translate(-181.047 -424.222)" fill="#fff" stroke="#fff" stroke-width="1"/>
          <path id="Path_28597" data-name="Path 28597" d="M230.035,426.236a2.014,2.014,0,1,1-2.014-2.014A2.015,2.015,0,0,1,230.035,426.236Z" transform="translate(-176.894 -424.222)" fill="#fff" stroke="#fff" stroke-width="1"/>
          <path id="Path_28598" data-name="Path 28598" d="M238.16,426.236a2.014,2.014,0,1,1-2.014-2.014A2.015,2.015,0,0,1,238.16,426.236Z" transform="translate(-172.741 -424.222)" fill="#fff" stroke="#fff" stroke-width="1"/>
        </g>
        <g id="Group_3907" data-name="Group 3907" transform="translate(0 11.648)">
          <path id="Path_28599" data-name="Path 28599" d="M197.535,433.944a2.014,2.014,0,1,1-2.014-2.014A2.015,2.015,0,0,1,197.535,433.944Z" transform="translate(-193.506 -431.93)" fill="#fff" stroke="#fff" stroke-width="1"/>
          <path id="Path_28600" data-name="Path 28600" d="M205.66,433.944a2.014,2.014,0,1,1-2.014-2.014A2.015,2.015,0,0,1,205.66,433.944Z" transform="translate(-189.353 -431.93)" fill="#fff" stroke="#fff" stroke-width="1"/>
          <path id="Path_28601" data-name="Path 28601" d="M213.785,433.944a2.014,2.014,0,1,1-2.014-2.014A2.015,2.015,0,0,1,213.785,433.944Z" transform="translate(-185.2 -431.93)" fill="#fff" stroke="#fff" stroke-width="1"/>
          <path id="Path_28602" data-name="Path 28602" d="M221.91,433.944a2.014,2.014,0,1,1-2.014-2.014A2.015,2.015,0,0,1,221.91,433.944Z" transform="translate(-181.047 -431.93)" fill="#fff" stroke="#fff" stroke-width="1"/>
          <path id="Path_28603" data-name="Path 28603" d="M230.035,433.944a2.014,2.014,0,1,1-2.014-2.014A2.015,2.015,0,0,1,230.035,433.944Z" transform="translate(-176.894 -431.93)" fill="#fff" stroke="#fff" stroke-width="1"/>
          <path id="Path_28604" data-name="Path 28604" d="M238.16,433.944a2.014,2.014,0,1,1-2.014-2.014A2.015,2.015,0,0,1,238.16,433.944Z" transform="translate(-172.741 -431.93)" fill="#fff" stroke="#fff" stroke-width="1"/>
        </g>
        <g id="Group_3908" data-name="Group 3908" transform="translate(0 23.296)">
          <path id="Path_28605" data-name="Path 28605" d="M197.535,441.654a2.014,2.014,0,1,1-2.014-2.016A2.015,2.015,0,0,1,197.535,441.654Z" transform="translate(-193.506 -439.638)" fill="#fff" stroke="#fff" stroke-width="1"/>
          <path id="Path_28606" data-name="Path 28606" d="M205.66,441.654a2.014,2.014,0,1,1-2.014-2.016A2.015,2.015,0,0,1,205.66,441.654Z" transform="translate(-189.353 -439.638)" fill="#fff" stroke="#fff" stroke-width="1"/>
          <path id="Path_28607" data-name="Path 28607" d="M213.785,441.654a2.014,2.014,0,1,1-2.014-2.016A2.015,2.015,0,0,1,213.785,441.654Z" transform="translate(-185.2 -439.638)" fill="#fff" stroke="#fff" stroke-width="1"/>
          <path id="Path_28608" data-name="Path 28608" d="M221.91,441.654a2.014,2.014,0,1,1-2.014-2.016A2.015,2.015,0,0,1,221.91,441.654Z" transform="translate(-181.047 -439.638)" fill="#fff" stroke="#fff" stroke-width="1"/>
          <path id="Path_28609" data-name="Path 28609" d="M230.035,441.654a2.014,2.014,0,1,1-2.014-2.016A2.015,2.015,0,0,1,230.035,441.654Z" transform="translate(-176.894 -439.638)" fill="#fff" stroke="#fff" stroke-width="1"/>
          <path id="Path_28610" data-name="Path 28610" d="M238.16,441.654a2.014,2.014,0,1,1-2.014-2.016A2.015,2.015,0,0,1,238.16,441.654Z" transform="translate(-172.741 -439.638)" fill="#fff" stroke="#fff" stroke-width="1"/>
        </g>
      </g>
      <g id="Group_3960" data-name="Group 3960" transform="translate(0 422.055)" opacity="0.24">
        <g id="Group_3913" data-name="Group 3913">
          <g id="Group_3910" data-name="Group 3910">
            <path id="Path_28611" data-name="Path 28611" d="M23.66,479.284a2.015,2.015,0,1,1-2.014,2.016A2.016,2.016,0,0,1,23.66,479.284Z" transform="translate(-21.646 -417.894)" fill="#fff" stroke="#fff" stroke-width="1"/>
            <path id="Path_28612" data-name="Path 28612" d="M23.66,471.159a2.015,2.015,0,1,1-2.014,2.016A2.016,2.016,0,0,1,23.66,471.159Z" transform="translate(-21.646 -422.047)" fill="#fff" stroke="#fff" stroke-width="1"/>
            <path id="Path_28613" data-name="Path 28613" d="M23.66,463.034a2.015,2.015,0,1,1-2.014,2.016A2.016,2.016,0,0,1,23.66,463.034Z" transform="translate(-21.646 -426.2)" fill="#fff" stroke="#fff" stroke-width="1"/>
            <path id="Path_28614" data-name="Path 28614" d="M23.66,454.909a2.015,2.015,0,1,1-2.014,2.016A2.016,2.016,0,0,1,23.66,454.909Z" transform="translate(-21.646 -430.353)" fill="#fff" stroke="#fff" stroke-width="1"/>
            <path id="Path_28615" data-name="Path 28615" d="M23.66,446.784a2.015,2.015,0,1,1-2.014,2.016A2.016,2.016,0,0,1,23.66,446.784Z" transform="translate(-21.646 -434.506)" fill="#fff" stroke="#fff" stroke-width="1"/>
            <path id="Path_28616" data-name="Path 28616" d="M23.66,438.659a2.015,2.015,0,1,1-2.014,2.016A2.016,2.016,0,0,1,23.66,438.659Z" transform="translate(-21.646 -438.659)" fill="#fff" stroke="#fff" stroke-width="1"/>
          </g>
          <g id="Group_3911" data-name="Group 3911" transform="translate(11.648 0)">
            <circle id="Ellipse_683" data-name="Ellipse 683" cx="2.015" cy="2.015" r="2.015" transform="translate(0 61.39)" fill="#fff" stroke="#fff" stroke-width="1"/>
            <circle id="Ellipse_684" data-name="Ellipse 684" cx="2.015" cy="2.015" r="2.015" transform="translate(0 49.112)" fill="#fff" stroke="#fff" stroke-width="1"/>
            <circle id="Ellipse_685" data-name="Ellipse 685" cx="2.015" cy="2.015" r="2.015" transform="translate(0 36.834)" fill="#fff" stroke="#fff" stroke-width="1"/>
            <circle id="Ellipse_686" data-name="Ellipse 686" cx="2.015" cy="2.015" r="2.015" transform="translate(0 24.556)" fill="#fff" stroke="#fff" stroke-width="1"/>
            <circle id="Ellipse_687" data-name="Ellipse 687" cx="2.015" cy="2.015" r="2.015" transform="translate(0 12.278)" fill="#fff" stroke="#fff" stroke-width="1"/>
            <circle id="Ellipse_688" data-name="Ellipse 688" cx="2.015" cy="2.015" r="2.015" fill="#fff" stroke="#fff" stroke-width="1"/>
          </g>
          <g id="Group_3912" data-name="Group 3912" transform="translate(23.297)">
            <path id="Path_28617" data-name="Path 28617" d="M39.077,479.284a2.015,2.015,0,1,1-2.014,2.016A2.015,2.015,0,0,1,39.077,479.284Z" transform="translate(-37.063 -417.894)" fill="#fff" stroke="#fff" stroke-width="1"/>
            <path id="Path_28618" data-name="Path 28618" d="M39.077,471.159a2.015,2.015,0,1,1-2.014,2.016A2.015,2.015,0,0,1,39.077,471.159Z" transform="translate(-37.063 -422.047)" fill="#fff" stroke="#fff" stroke-width="1"/>
            <path id="Path_28619" data-name="Path 28619" d="M39.077,463.034a2.015,2.015,0,1,1-2.014,2.016A2.015,2.015,0,0,1,39.077,463.034Z" transform="translate(-37.063 -426.2)" fill="#fff" stroke="#fff" stroke-width="1"/>
            <path id="Path_28620" data-name="Path 28620" d="M39.077,454.909a2.015,2.015,0,1,1-2.014,2.016A2.015,2.015,0,0,1,39.077,454.909Z" transform="translate(-37.063 -430.353)" fill="#fff" stroke="#fff" stroke-width="1"/>
            <path id="Path_28621" data-name="Path 28621" d="M39.077,446.784a2.015,2.015,0,1,1-2.014,2.016A2.015,2.015,0,0,1,39.077,446.784Z" transform="translate(-37.063 -434.506)" fill="#fff" stroke="#fff" stroke-width="1"/>
            <path id="Path_28622" data-name="Path 28622" d="M39.077,438.659a2.015,2.015,0,1,1-2.014,2.016A2.015,2.015,0,0,1,39.077,438.659Z" transform="translate(-37.063 -438.659)" fill="#fff" stroke="#fff" stroke-width="1"/>
          </g>
        </g>
        <g id="Group_3959" data-name="Group 3959" transform="translate(34.983)">
          <g id="Group_3910-2" data-name="Group 3910">
            <path id="Path_28611-2" data-name="Path 28611" d="M23.66,479.284a2.015,2.015,0,1,1-2.014,2.016A2.016,2.016,0,0,1,23.66,479.284Z" transform="translate(-21.646 -417.894)" fill="#fff" stroke="#fff" stroke-width="1"/>
            <path id="Path_28612-2" data-name="Path 28612" d="M23.66,471.159a2.015,2.015,0,1,1-2.014,2.016A2.016,2.016,0,0,1,23.66,471.159Z" transform="translate(-21.646 -422.047)" fill="#fff" stroke="#fff" stroke-width="1"/>
            <path id="Path_28613-2" data-name="Path 28613" d="M23.66,463.034a2.015,2.015,0,1,1-2.014,2.016A2.016,2.016,0,0,1,23.66,463.034Z" transform="translate(-21.646 -426.2)" fill="#fff" stroke="#fff" stroke-width="1"/>
            <path id="Path_28614-2" data-name="Path 28614" d="M23.66,454.909a2.015,2.015,0,1,1-2.014,2.016A2.016,2.016,0,0,1,23.66,454.909Z" transform="translate(-21.646 -430.353)" fill="#fff" stroke="#fff" stroke-width="1"/>
            <path id="Path_28615-2" data-name="Path 28615" d="M23.66,446.784a2.015,2.015,0,1,1-2.014,2.016A2.016,2.016,0,0,1,23.66,446.784Z" transform="translate(-21.646 -434.506)" fill="#fff" stroke="#fff" stroke-width="1"/>
            <path id="Path_28616-2" data-name="Path 28616" d="M23.66,438.659a2.015,2.015,0,1,1-2.014,2.016A2.016,2.016,0,0,1,23.66,438.659Z" transform="translate(-21.646 -438.659)" fill="#fff" stroke="#fff" stroke-width="1"/>
          </g>
          <g id="Group_3911-2" data-name="Group 3911" transform="translate(11.648 0)">
            <circle id="Ellipse_683-2" data-name="Ellipse 683" cx="2.015" cy="2.015" r="2.015" transform="translate(0 61.39)" fill="#fff" stroke="#fff" stroke-width="1"/>
            <circle id="Ellipse_684-2" data-name="Ellipse 684" cx="2.015" cy="2.015" r="2.015" transform="translate(0 49.112)" fill="#fff" stroke="#fff" stroke-width="1"/>
            <circle id="Ellipse_685-2" data-name="Ellipse 685" cx="2.015" cy="2.015" r="2.015" transform="translate(0 36.834)" fill="#fff" stroke="#fff" stroke-width="1"/>
            <circle id="Ellipse_686-2" data-name="Ellipse 686" cx="2.015" cy="2.015" r="2.015" transform="translate(0 24.556)" fill="#fff" stroke="#fff" stroke-width="1"/>
            <circle id="Ellipse_687-2" data-name="Ellipse 687" cx="2.015" cy="2.015" r="2.015" transform="translate(0 12.278)" fill="#fff" stroke="#fff" stroke-width="1"/>
            <circle id="Ellipse_688-2" data-name="Ellipse 688" cx="2.015" cy="2.015" r="2.015" fill="#fff" stroke="#fff" stroke-width="1"/>
          </g>
          <g id="Group_3912-2" data-name="Group 3912" transform="translate(23.297)">
            <path id="Path_28617-2" data-name="Path 28617" d="M39.077,479.284a2.015,2.015,0,1,1-2.014,2.016A2.015,2.015,0,0,1,39.077,479.284Z" transform="translate(-37.063 -417.894)" fill="#fff" stroke="#fff" stroke-width="1"/>
            <path id="Path_28618-2" data-name="Path 28618" d="M39.077,471.159a2.015,2.015,0,1,1-2.014,2.016A2.015,2.015,0,0,1,39.077,471.159Z" transform="translate(-37.063 -422.047)" fill="#fff" stroke="#fff" stroke-width="1"/>
            <path id="Path_28619-2" data-name="Path 28619" d="M39.077,463.034a2.015,2.015,0,1,1-2.014,2.016A2.015,2.015,0,0,1,39.077,463.034Z" transform="translate(-37.063 -426.2)" fill="#fff" stroke="#fff" stroke-width="1"/>
            <path id="Path_28620-2" data-name="Path 28620" d="M39.077,454.909a2.015,2.015,0,1,1-2.014,2.016A2.015,2.015,0,0,1,39.077,454.909Z" transform="translate(-37.063 -430.353)" fill="#fff" stroke="#fff" stroke-width="1"/>
            <path id="Path_28621-2" data-name="Path 28621" d="M39.077,446.784a2.015,2.015,0,1,1-2.014,2.016A2.015,2.015,0,0,1,39.077,446.784Z" transform="translate(-37.063 -434.506)" fill="#fff" stroke="#fff" stroke-width="1"/>
            <path id="Path_28622-2" data-name="Path 28622" d="M39.077,438.659a2.015,2.015,0,1,1-2.014,2.016A2.015,2.015,0,0,1,39.077,438.659Z" transform="translate(-37.063 -438.659)" fill="#fff" stroke="#fff" stroke-width="1"/>
          </g>
        </g>
      </g>
      <g id="Group_19130" data-name="Group 19130" transform="translate(1251.214 403.12)" opacity="0.24">
        <g id="Group_3913-2" data-name="Group 3913" transform="translate(0)">
          <g id="Group_3910-3" data-name="Group 3910">
            <path id="Path_28611-3" data-name="Path 28611" d="M23.66,479.284a2.015,2.015,0,1,1-2.014,2.016A2.016,2.016,0,0,1,23.66,479.284Z" transform="translate(-21.646 -417.894)" fill="#fff" stroke="#fff" stroke-width="1"/>
            <path id="Path_28612-3" data-name="Path 28612" d="M23.66,471.159a2.015,2.015,0,1,1-2.014,2.016A2.016,2.016,0,0,1,23.66,471.159Z" transform="translate(-21.646 -422.047)" fill="#fff" stroke="#fff" stroke-width="1"/>
            <path id="Path_28613-3" data-name="Path 28613" d="M23.66,463.034a2.015,2.015,0,1,1-2.014,2.016A2.016,2.016,0,0,1,23.66,463.034Z" transform="translate(-21.646 -426.2)" fill="#fff" stroke="#fff" stroke-width="1"/>
            <path id="Path_28614-3" data-name="Path 28614" d="M23.66,454.909a2.015,2.015,0,1,1-2.014,2.016A2.016,2.016,0,0,1,23.66,454.909Z" transform="translate(-21.646 -430.353)" fill="#fff" stroke="#fff" stroke-width="1"/>
            <path id="Path_28615-3" data-name="Path 28615" d="M23.66,446.784a2.015,2.015,0,1,1-2.014,2.016A2.016,2.016,0,0,1,23.66,446.784Z" transform="translate(-21.646 -434.506)" fill="#fff" stroke="#fff" stroke-width="1"/>
            <path id="Path_28616-3" data-name="Path 28616" d="M23.66,438.659a2.015,2.015,0,1,1-2.014,2.016A2.016,2.016,0,0,1,23.66,438.659Z" transform="translate(-21.646 -438.659)" fill="#fff" stroke="#fff" stroke-width="1"/>
          </g>
          <g id="Group_3911-3" data-name="Group 3911" transform="translate(11.648 0)">
            <circle id="Ellipse_683-3" data-name="Ellipse 683" cx="2.015" cy="2.015" r="2.015" transform="translate(0 61.39)" fill="#fff" stroke="#fff" stroke-width="1"/>
            <circle id="Ellipse_684-3" data-name="Ellipse 684" cx="2.015" cy="2.015" r="2.015" transform="translate(0 49.112)" fill="#fff" stroke="#fff" stroke-width="1"/>
            <circle id="Ellipse_685-3" data-name="Ellipse 685" cx="2.015" cy="2.015" r="2.015" transform="translate(0 36.834)" fill="#fff" stroke="#fff" stroke-width="1"/>
            <circle id="Ellipse_686-3" data-name="Ellipse 686" cx="2.015" cy="2.015" r="2.015" transform="translate(0 24.556)" fill="#fff" stroke="#fff" stroke-width="1"/>
            <circle id="Ellipse_687-3" data-name="Ellipse 687" cx="2.015" cy="2.015" r="2.015" transform="translate(0 12.278)" fill="#fff" stroke="#fff" stroke-width="1"/>
            <circle id="Ellipse_688-3" data-name="Ellipse 688" cx="2.015" cy="2.015" r="2.015" fill="#fff" stroke="#fff" stroke-width="1"/>
          </g>
          <g id="Group_3912-3" data-name="Group 3912" transform="translate(23.297)">
            <path id="Path_28617-3" data-name="Path 28617" d="M39.077,479.284a2.015,2.015,0,1,1-2.014,2.016A2.015,2.015,0,0,1,39.077,479.284Z" transform="translate(-37.063 -417.894)" fill="#fff" stroke="#fff" stroke-width="1"/>
            <path id="Path_28618-3" data-name="Path 28618" d="M39.077,471.159a2.015,2.015,0,1,1-2.014,2.016A2.015,2.015,0,0,1,39.077,471.159Z" transform="translate(-37.063 -422.047)" fill="#fff" stroke="#fff" stroke-width="1"/>
            <path id="Path_28619-3" data-name="Path 28619" d="M39.077,463.034a2.015,2.015,0,1,1-2.014,2.016A2.015,2.015,0,0,1,39.077,463.034Z" transform="translate(-37.063 -426.2)" fill="#fff" stroke="#fff" stroke-width="1"/>
            <path id="Path_28620-3" data-name="Path 28620" d="M39.077,454.909a2.015,2.015,0,1,1-2.014,2.016A2.015,2.015,0,0,1,39.077,454.909Z" transform="translate(-37.063 -430.353)" fill="#fff" stroke="#fff" stroke-width="1"/>
            <path id="Path_28621-3" data-name="Path 28621" d="M39.077,446.784a2.015,2.015,0,1,1-2.014,2.016A2.015,2.015,0,0,1,39.077,446.784Z" transform="translate(-37.063 -434.506)" fill="#fff" stroke="#fff" stroke-width="1"/>
            <path id="Path_28622-3" data-name="Path 28622" d="M39.077,438.659a2.015,2.015,0,1,1-2.014,2.016A2.015,2.015,0,0,1,39.077,438.659Z" transform="translate(-37.063 -438.659)" fill="#fff" stroke="#fff" stroke-width="1"/>
          </g>
        </g>
        <g id="Group_3959-2" data-name="Group 3959" transform="translate(34.983)">
          <g id="Group_3910-4" data-name="Group 3910">
            <path id="Path_28611-4" data-name="Path 28611" d="M23.66,479.284a2.015,2.015,0,1,1-2.014,2.016A2.016,2.016,0,0,1,23.66,479.284Z" transform="translate(-21.646 -417.894)" fill="#fff" stroke="#fff" stroke-width="1"/>
            <path id="Path_28612-4" data-name="Path 28612" d="M23.66,471.159a2.015,2.015,0,1,1-2.014,2.016A2.016,2.016,0,0,1,23.66,471.159Z" transform="translate(-21.646 -422.047)" fill="#fff" stroke="#fff" stroke-width="1"/>
            <path id="Path_28613-4" data-name="Path 28613" d="M23.66,463.034a2.015,2.015,0,1,1-2.014,2.016A2.016,2.016,0,0,1,23.66,463.034Z" transform="translate(-21.646 -426.2)" fill="#fff" stroke="#fff" stroke-width="1"/>
            <path id="Path_28614-4" data-name="Path 28614" d="M23.66,454.909a2.015,2.015,0,1,1-2.014,2.016A2.016,2.016,0,0,1,23.66,454.909Z" transform="translate(-21.646 -430.353)" fill="#fff" stroke="#fff" stroke-width="1"/>
            <path id="Path_28615-4" data-name="Path 28615" d="M23.66,446.784a2.015,2.015,0,1,1-2.014,2.016A2.016,2.016,0,0,1,23.66,446.784Z" transform="translate(-21.646 -434.506)" fill="#fff" stroke="#fff" stroke-width="1"/>
            <path id="Path_28616-4" data-name="Path 28616" d="M23.66,438.659a2.015,2.015,0,1,1-2.014,2.016A2.016,2.016,0,0,1,23.66,438.659Z" transform="translate(-21.646 -438.659)" fill="#fff" stroke="#fff" stroke-width="1"/>
          </g>
          <g id="Group_3911-4" data-name="Group 3911" transform="translate(11.648 0)">
            <circle id="Ellipse_683-4" data-name="Ellipse 683" cx="2.015" cy="2.015" r="2.015" transform="translate(0 61.39)" fill="#fff" stroke="#fff" stroke-width="1"/>
            <circle id="Ellipse_684-4" data-name="Ellipse 684" cx="2.015" cy="2.015" r="2.015" transform="translate(0 49.112)" fill="#fff" stroke="#fff" stroke-width="1"/>
            <circle id="Ellipse_685-4" data-name="Ellipse 685" cx="2.015" cy="2.015" r="2.015" transform="translate(0 36.834)" fill="#fff" stroke="#fff" stroke-width="1"/>
            <circle id="Ellipse_686-4" data-name="Ellipse 686" cx="2.015" cy="2.015" r="2.015" transform="translate(0 24.556)" fill="#fff" stroke="#fff" stroke-width="1"/>
            <circle id="Ellipse_687-4" data-name="Ellipse 687" cx="2.015" cy="2.015" r="2.015" transform="translate(0 12.278)" fill="#fff" stroke="#fff" stroke-width="1"/>
            <circle id="Ellipse_688-4" data-name="Ellipse 688" cx="2.015" cy="2.015" r="2.015" fill="#fff" stroke="#fff" stroke-width="1"/>
          </g>
          <g id="Group_3912-4" data-name="Group 3912" transform="translate(23.297)">
            <path id="Path_28617-4" data-name="Path 28617" d="M39.077,479.284a2.015,2.015,0,1,1-2.014,2.016A2.015,2.015,0,0,1,39.077,479.284Z" transform="translate(-37.063 -417.894)" fill="#fff" stroke="#fff" stroke-width="1"/>
            <path id="Path_28618-4" data-name="Path 28618" d="M39.077,471.159a2.015,2.015,0,1,1-2.014,2.016A2.015,2.015,0,0,1,39.077,471.159Z" transform="translate(-37.063 -422.047)" fill="#fff" stroke="#fff" stroke-width="1"/>
            <path id="Path_28619-4" data-name="Path 28619" d="M39.077,463.034a2.015,2.015,0,1,1-2.014,2.016A2.015,2.015,0,0,1,39.077,463.034Z" transform="translate(-37.063 -426.2)" fill="#fff" stroke="#fff" stroke-width="1"/>
            <path id="Path_28620-4" data-name="Path 28620" d="M39.077,454.909a2.015,2.015,0,1,1-2.014,2.016A2.015,2.015,0,0,1,39.077,454.909Z" transform="translate(-37.063 -430.353)" fill="#fff" stroke="#fff" stroke-width="1"/>
            <path id="Path_28621-4" data-name="Path 28621" d="M39.077,446.784a2.015,2.015,0,1,1-2.014,2.016A2.015,2.015,0,0,1,39.077,446.784Z" transform="translate(-37.063 -434.506)" fill="#fff" stroke="#fff" stroke-width="1"/>
            <path id="Path_28622-4" data-name="Path 28622" d="M39.077,438.659a2.015,2.015,0,1,1-2.014,2.016A2.015,2.015,0,0,1,39.077,438.659Z" transform="translate(-37.063 -438.659)" fill="#fff" stroke="#fff" stroke-width="1"/>
          </g>
        </g>
      </g>
      <g id="Group_3918" data-name="Group 3918" transform="translate(1237.868 141.456)" opacity="0.3">
        <rect id="Rectangle_2783" data-name="Rectangle 2783" width="3.305" height="3.305" fill="#fff" stroke="#fff" stroke-width="1"/>
        <rect id="Rectangle_2784" data-name="Rectangle 2784" width="3.305" height="3.305" transform="translate(0 23.325)" fill="#fff" stroke="#fff" stroke-width="1"/>
        <rect id="Rectangle_2785" data-name="Rectangle 2785" width="3.305" height="3.305" transform="translate(0 46.651)" fill="#fff" stroke="#fff" stroke-width="1"/>
        <rect id="Rectangle_2786" data-name="Rectangle 2786" width="3.305" height="3.305" transform="translate(0 69.976)" fill="#fff" stroke="#fff" stroke-width="1"/>
        <rect id="Rectangle_2787" data-name="Rectangle 2787" width="3.305" height="3.305" transform="translate(0 93.301)" fill="#fff" stroke="#fff" stroke-width="1"/>
      </g>
      <g id="Group_3919" data-name="Group 3919" transform="translate(101.44 371.934)" opacity="0.5">
        <rect id="Rectangle_2788" data-name="Rectangle 2788" width="3.305" height="3.305" fill="#fff" stroke="#fff" stroke-width="1"/>
        <rect id="Rectangle_2789" data-name="Rectangle 2789" width="3.305" height="3.305" transform="translate(0 23.325)" fill="#fff" stroke="#fff" stroke-width="1"/>
        <rect id="Rectangle_2790" data-name="Rectangle 2790" width="3.305" height="3.305" transform="translate(0 46.651)" fill="#fff" stroke="#fff" stroke-width="1"/>
        <rect id="Rectangle_2791" data-name="Rectangle 2791" width="3.305" height="3.305" transform="translate(0 69.976)" fill="#fff" stroke="#fff" stroke-width="1"/>
        <rect id="Rectangle_2792" data-name="Rectangle 2792" width="3.305" height="3.305" transform="translate(0 93.301)" fill="#fff" stroke="#fff" stroke-width="1"/>
      </g>
      <g id="Group_19131" data-name="Group 19131" transform="translate(1352.654 353)" opacity="0.5">
        <rect id="Rectangle_2788-2" data-name="Rectangle 2788" width="3.305" height="3.305" fill="#fff" stroke="#fff" stroke-width="1"/>
        <rect id="Rectangle_2789-2" data-name="Rectangle 2789" width="3.305" height="3.305" transform="translate(0 23.325)" fill="#fff" stroke="#fff" stroke-width="1"/>
        <rect id="Rectangle_2790-2" data-name="Rectangle 2790" width="3.305" height="3.305" transform="translate(0 46.651)" fill="#fff" stroke="#fff" stroke-width="1"/>
        <rect id="Rectangle_2791-2" data-name="Rectangle 2791" width="3.305" height="3.305" transform="translate(0 69.976)" fill="#fff" stroke="#fff" stroke-width="1"/>
        <rect id="Rectangle_2792-2" data-name="Rectangle 2792" width="3.305" height="3.305" transform="translate(0 93.301)" fill="#fff" stroke="#fff" stroke-width="1"/>
      </g>
      <g id="Group_3920" data-name="Group 3920" transform="translate(1180.758 438.154)" opacity="0.4">
        <rect id="Rectangle_2793" data-name="Rectangle 2793" width="16.611" height="5.681" transform="translate(0 5.465)" fill="#fff" stroke="#fff" stroke-width="1"/>
        <rect id="Rectangle_2794" data-name="Rectangle 2794" width="16.611" height="5.681" transform="translate(5.465 16.611) rotate(-90)" fill="#fff" stroke="#fff" stroke-width="1"/>
      </g>
      <g id="Group_3921" data-name="Group 3921" transform="translate(169.34 233.614) rotate(45)" opacity="0.4">
        <rect id="Rectangle_2795" data-name="Rectangle 2795" width="7.822" height="2.676" transform="translate(0 2.573)" fill="#fff" stroke="#fff" stroke-width="1"/>
        <rect id="Rectangle_2796" data-name="Rectangle 2796" width="7.822" height="2.676" transform="translate(2.573 7.822) rotate(-90)" fill="#fff" stroke="#fff" stroke-width="1"/>
      </g>
      <path id="Path_28641" data-name="Path 28641" d="M131.794,351.578h-3.446v-3.446h-3.583v3.446h-3.446v3.583h3.446v3.446h3.583v-3.446h3.446Z" transform="translate(7.587 33.18)" fill="#fff" stroke="#fff" stroke-width="1" opacity="0.2"/>
      <g id="Group_3923" data-name="Group 3923" transform="translate(95.908 422.055)">
        <line id="Line_4" data-name="Line 4" y1="85.309" x2="81.35" transform="translate(0 7.662)" fill="none" stroke="#fff" stroke-width="0.21"/>
        <line id="Line_5" data-name="Line 5" y1="85.309" x2="81.35" transform="translate(24.451 3.831)" fill="none" stroke="#fff" stroke-width="0.21"/>
        <line id="Line_6" data-name="Line 6" y1="85.309" x2="81.35" transform="translate(48.903)" fill="none" stroke="#fff" stroke-width="0.21"/>
      </g>
    </g>
  </g>
</svg>
