<svg xmlns="http://www.w3.org/2000/svg" xmlns:xlink="http://www.w3.org/1999/xlink" width="500.612" height="502.306" viewBox="0 0 500.612 502.306">
  <defs>
    <clipPath id="clip-path">
      <rect id="Rectangle_13263" data-name="Rectangle 13263" width="362.965" height="367.916" fill="#97a3d9"/>
    </clipPath>
  </defs>
  <g id="Group_18337" data-name="Group 18337" transform="translate(311.121 502.306) rotate(-149)" opacity="0.482" clip-path="url(#clip-path)">
    <path id="Path_68347" data-name="Path 68347" d="M75.3,17.614a17.73,17.73,0,0,0-9.859-5.257c-4.805-.742-9.633.334-14.453-.017a16.871,16.871,0,0,1-6.285-1.652,31.139,31.139,0,0,1-5.1-3.356C36.21,4.713,32.764,1.952,28.593.678,24.62-.537,20.4.04,16.476,1.161a40.884,40.884,0,0,0-5.892,2.2A25.176,25.176,0,0,0,5.665,6.2,14.635,14.635,0,0,0,.329,14.553c-1.942,8.808,5.1,16.126,11.172,21.408a12.361,12.361,0,0,0,5.457,2.577A37.181,37.181,0,0,1,22.753,40,9.677,9.677,0,0,1,27,43.4a16.446,16.446,0,0,1,2.107,4.661c1.015,3.32,1.615,6.837,3.607,9.76a12.6,12.6,0,0,0,7.148,5.116A20.222,20.222,0,0,0,48.957,63a41.061,41.061,0,0,0,9.206-3.075,54.829,54.829,0,0,0,7.828-4.391A50.626,50.626,0,0,0,75,47.972,26.807,26.807,0,0,0,81.1,38a18.051,18.051,0,0,0-.05-10.855A23.739,23.739,0,0,0,75.3,17.614" transform="translate(76.794 140.051)" fill="#97a3d9"/>
    <path id="Path_68348" data-name="Path 68348" d="M26.045,61.271a16,16,0,0,0,8.463-5.483c2.688-3.469,3.951-7.75,6.336-11.4A15.219,15.219,0,0,1,44.9,40.148a28.076,28.076,0,0,1,4.879-2.554c3.555-1.541,7.241-3.053,10.072-5.789,2.7-2.605,4.087-6.188,4.919-9.777a36.916,36.916,0,0,0,.843-5.612,22.725,22.725,0,0,0-.093-5.127,13.208,13.208,0,0,0-4.26-7.867c-6.63-5.85-20.49-3.693-26.207,2.637a33.565,33.565,0,0,1-3.687,3.935,8.734,8.734,0,0,1-4.545,1.865,14.846,14.846,0,0,1-4.6-.376c-3.065-.651-6.1-1.715-9.282-1.422a11.368,11.368,0,0,0-7.165,3.4,18.249,18.249,0,0,0-4.023,7.154,37.034,37.034,0,0,0-1.6,8.612,49.563,49.563,0,0,0,.042,8.1A45.676,45.676,0,0,0,2.214,47.749a24.193,24.193,0,0,0,5.2,9.175,16.3,16.3,0,0,0,8.592,4.709,21.431,21.431,0,0,0,10.039-.361" transform="translate(8.431 24.589)" fill="#97a3d9"/>
    <path id="Path_68349" data-name="Path 68349" d="M66.788,58.826a17.215,17.215,0,0,0,7.744-10.292,24.133,24.133,0,0,0-.642-12.707,48.043,48.043,0,0,0-5.728-12.209,44.442,44.442,0,0,0-8.314-10A57.92,57.92,0,0,0,33.133,1.16C24.353-.5,12.047-1.154,4.551,4.651,1.085,7.334-1.058,12.152.537,16.235c.879,2.249,2.569,4.038,3.285,6.369a14.14,14.14,0,0,1,.166,6.537C3.331,33.1,1.781,36.845.972,40.778a36.23,36.23,0,0,0-.812,10,15.959,15.959,0,0,0,3,8.725,12.915,12.915,0,0,0,8.764,4.534c5.37.687,10.465-1.386,15.5-2.913a30.13,30.13,0,0,1,7.664-1.477,43.112,43.112,0,0,1,6.308.321c4.382.491,8.733,1.335,13.148,1.495,4.225.152,8.562-.409,12.237-2.636" transform="translate(130.596 71.358)" fill="#97a3d9"/>
    <path id="Path_68350" data-name="Path 68350" d="M82.027,39.011c-1.532-3.956-4.736-7.022-8.1-9.471a44.181,44.181,0,0,0-5.134-3.217c-1.716-.918-3.553-1.592-5.246-2.555a8.729,8.729,0,0,1-3.911-4.128,33.4,33.4,0,0,1-1.6-6.207A13.638,13.638,0,0,0,55.42,7.61a20.994,20.994,0,0,0-5.355-4.48A20.156,20.156,0,0,0,36.887.16c-4.53.594-8.695,2.521-12.954,4.057A35.043,35.043,0,0,1,17.4,6C11.135,6.961,3.82,7.846.776,14.388a8.13,8.13,0,0,0-.5,5.557A9.6,9.6,0,0,0,3.046,24.33c2.6,2.474,5.978,3.921,8.588,6.368a15.63,15.63,0,0,1,3.643,4.728,8.19,8.19,0,0,1,.612,4.466,25.018,25.018,0,0,1-1.51,5.356A27.38,27.38,0,0,0,12.8,51.264a19.787,19.787,0,0,0,1.955,11.477A20.192,20.192,0,0,0,23.4,71.2a33.784,33.784,0,0,0,12.628,3.6,48.7,48.7,0,0,0,13.227-.612A44.714,44.714,0,0,0,62.044,69.93,45.228,45.228,0,0,0,73.238,61.7a38.544,38.544,0,0,0,7.577-10.4c1.817-3.813,2.787-8.214,1.211-12.282" transform="translate(181.064 136.588)" fill="#97a3d9"/>
    <path id="Path_68351" data-name="Path 68351" d="M0,54.883a30.426,30.426,0,0,0,.384,5.038c.64,3.96,2.377,9.445,5.817,11.943,4.131,3,6.525-1.439,9.068-4.033a14.983,14.983,0,0,1,11.723-4.745c4.86.334,9.171,3.058,13.458,5.372,7.69,4.152,17.89,6.325,25.592,1.125,3.787-2.556,6.65-6.142,9.773-9.421a35.025,35.025,0,0,1,5.05-4.517c5.17-3.659,11.318-7.722,11.115-14.934a8.127,8.127,0,0,0-2.036-5.194,9.6,9.6,0,0,0-4.439-2.685c-3.428-1.052-7.1-.834-10.529-1.856a15.642,15.642,0,0,1-5.373-2.6,8.193,8.193,0,0,1-2.544-3.721,25,25,0,0,1-1.044-5.466A27.4,27.4,0,0,0,64.74,13.1,19.791,19.791,0,0,0,57.86,3.709,20.2,20.2,0,0,0,46.338.009,33.79,33.79,0,0,0,33.433,2.434,48.7,48.7,0,0,0,21.875,8.895c-5.856,4.36-9.161,10.391-12.329,16.791C5.061,34.75.059,44.587,0,54.883" transform="translate(0 277.093)" fill="#97a3d9"/>
    <path id="Path_68352" data-name="Path 68352" d="M2.567,63.556A9.56,9.56,0,0,0,6.643,66.11a14.283,14.283,0,0,0,5.079.756,20.867,20.867,0,0,0,11.95-4.828A66.064,66.064,0,0,0,28.5,57.516a26.318,26.318,0,0,1,4.863-3.768,30.986,30.986,0,0,1,10.886-3.69c2.073-.346,4.163-.576,6.254-.783a21.98,21.98,0,0,0,4.823-.934,17.736,17.736,0,0,0,7.29-4.652,21.434,21.434,0,0,0,4.461-7.4,27.147,27.147,0,0,0,1.578-8.749A28.564,28.564,0,0,0,67.4,18.571a24.3,24.3,0,0,0-4.107-7.9,26.978,26.978,0,0,0-9.073-7.2A33.078,33.078,0,0,0,42.462.143,31.648,31.648,0,0,0,30.411,1.3c-3.194.967-6.151,2.775-7.61,5.89-1.289,2.752-1.363,5.885-1.172,8.865.2,3.176.735,6.326.862,9.508.152,3.8-.317,7.891-2.534,11.093a11.153,11.153,0,0,1-5.121,4.057c-2.125.821-4.4,1.138-6.542,1.915A11.968,11.968,0,0,0,3.7,45.506a11.536,11.536,0,0,0-2.521,4.166C-.536,54.5-.627,60.1,2.567,63.556" transform="translate(222.947 51.462)" fill="#97a3d9"/>
    <path id="Path_68353" data-name="Path 68353" d="M26.285.088A41.151,41.151,0,0,0,12.6,3.1C3.3,7.049-2.96,17.023,1.434,27.136a13.39,13.39,0,0,0,4.226,5.5,8.752,8.752,0,0,0,6.922,1.556c2.374-.5,4.407-1.965,6.367-3.316a17.186,17.186,0,0,1,6.6-3.24,18.5,18.5,0,0,1,9.76,1.23c1.572.59,3.1,1.294,4.622,1.992a22.364,22.364,0,0,0,4.3,1.667,5.979,5.979,0,0,0,3.215-.051,7.234,7.234,0,0,0,2.7-1.784,28.741,28.741,0,0,0,2.678-3.125c2.9-3.792,5.035-9.028,3.351-13.858S49.623,5.837,45.325,3.556a27.125,27.125,0,0,0-5.8-2.307A42.428,42.428,0,0,0,26.285.088" transform="translate(259.093 116.111)" fill="#97a3d9"/>
    <path id="Path_68354" data-name="Path 68354" d="M62.512,41.946a13.312,13.312,0,0,0,1.07-5.786,11.441,11.441,0,0,0-6.626-9.26c-2.412-1.094-5.07-1.66-7.321-3.057s-4.079-4.023-3.409-6.586c.638-2.442,3.083-3.827,4.02-6.134,1.17-2.88.98-8.208-1.741-10.271C46.45-.7,43.442.086,41.289,1.5c-4.856,3.2-7.626,9.007-12.7,11.846-5.622,3.145-12.943,2-18.449,5.346A17.944,17.944,0,0,0,5.419,23.1,24.68,24.68,0,0,0,.025,36.817,19.328,19.328,0,0,0,3.162,48.366c2.166,3.35,4.32,4.509,8.236,5.52,3.06.79,6.317,1.306,9.161,2.745a9.409,9.409,0,0,1,3.221,2.546,10.22,10.22,0,0,1,1.853,4.353c.377,1.906.446,3.854.932,5.743a11.035,11.035,0,0,0,2.557,4.843c2.833,3.034,7.14,4.5,11.2,4.717a24.984,24.984,0,0,0,12.008-2.551,22.3,22.3,0,0,0,8.711-6.715,9.2,9.2,0,0,0,1.788-4.861,11.148,11.148,0,0,0-1.614-5.59,22.448,22.448,0,0,1-2.494-5.95,9.368,9.368,0,0,1,.952-5.864c.889-1.818,2.05-3.487,2.838-5.356" transform="translate(128.249 194.097)" fill="#97a3d9"/>
    <path id="Path_68355" data-name="Path 68355" d="M62.85,22.422a36.94,36.94,0,0,0-9.874-5.979,41.669,41.669,0,0,0-5.113-1.811,41.085,41.085,0,0,0-4.989-.93c-3.441-.5-7.19-.9-10.213-2.764A8.491,8.491,0,0,1,30.8,9.4a11.538,11.538,0,0,1-1.452-2.148,28.847,28.847,0,0,0-2.576-4.414,7.893,7.893,0,0,0-4.5-2.654,11.357,11.357,0,0,0-3.77-.059A26,26,0,0,0,9.4,3.215C6.6,4.754,3.942,6.959,2.733,10.072c-1.54,3.967-.038,7.947-.58,12-.111.833-.315,1.647-.5,2.464-.318,1.373-.616,2.75-.869,4.136A37.325,37.325,0,0,0,.06,37.908,14.206,14.206,0,0,0,2.929,46.1,11.93,11.93,0,0,0,11.78,50.07c3.332.134,7.338-.764,10.031,1.755a11.711,11.711,0,0,1,1.779,2.353c.49.768.978,1.537,1.489,2.292a19.354,19.354,0,0,0,3.138,3.766,11.137,11.137,0,0,0,4.373,2.373,19.963,19.963,0,0,0,5.921.551A40.391,40.391,0,0,0,51.09,60.8a26.194,26.194,0,0,0,5.5-2.677,32.771,32.771,0,0,0,4.748-3.837A31.276,31.276,0,0,0,68.732,43.6a19.308,19.308,0,0,0,1.4-6.117,15.768,15.768,0,0,0-.834-5.876,21.431,21.431,0,0,0-6.449-9.186" transform="translate(213.278 231.248)" fill="#97a3d9"/>
    <path id="Path_68356" data-name="Path 68356" d="M39.032,8.147c-1.969-.7-3.966-1.315-5.915-2.066a29.459,29.459,0,0,1-2.771-1.215c-.89-.452-1.735-.982-2.586-1.5A28.41,28.41,0,0,0,21.848.344c-3.69-1.207-7,.98-9.737,3.243C10.624,4.818,9.237,6.172,7.706,7.352,6.213,8.5,4.413,9.225,2.99,10.452a9.408,9.408,0,0,0,.234,13.973,12.865,12.865,0,0,0,7.919,2.948c2.894.18,5.79-.178,8.685-.06a14.1,14.1,0,0,1,3.975.635A11.633,11.633,0,0,1,27,29.706c1.954,1.464,3.567,3.329,5.472,4.853a13.319,13.319,0,0,0,6.359,3,8.2,8.2,0,0,0,5.428-1.1c3.38-2.062,5.215-6.091,6.025-9.824.86-3.962.877-8.61-1.421-12.114-2.236-3.409-6.13-5.067-9.831-6.377" transform="translate(258.398 199.193)" fill="#97a3d9"/>
    <path id="Path_68357" data-name="Path 68357" d="M13.984,6.16c-1.261,1.4-2.467,2.851-3.767,4.218a26.549,26.549,0,0,1-1.97,1.89c-.685.586-1.419,1.108-2.148,1.636a25.635,25.635,0,0,0-4.56,3.886c-2.282,2.659-1.6,6.178-.661,9.238C1.391,28.694,2.04,30.318,2.495,32c.444,1.643.423,3.392.954,5a8.49,8.49,0,0,0,11.73,4.634,11.61,11.61,0,0,0,5.2-5.583c1.15-2.351,1.853-4.888,2.952-7.261a12.719,12.719,0,0,1,1.9-3.095A10.494,10.494,0,0,1,27.8,23.641c1.9-1.124,4.008-1.823,5.937-2.885a12.026,12.026,0,0,0,4.7-4.264,7.406,7.406,0,0,0,.96-4.9c-.551-3.531-3.276-6.453-6.108-8.419C30.283,1.084,26.413-.538,22.7.167c-3.614.686-6.344,3.36-8.714,5.992" transform="translate(24.162 146.552)" fill="#97a3d9"/>
    <path id="Path_68358" data-name="Path 68358" d="M68.653,3.237a32.083,32.083,0,0,0-11.022.145c-3.956.627-7.843,1.707-11.842,2.052a25.528,25.528,0,0,1-6.048-.144A23.823,23.823,0,0,1,34.08,3.631C22.2-1.375,17.535-1.545,6.819,5.265,2.846,7.789.247,11.289.017,16.188a15.8,15.8,0,0,0,1.74,7.921,15.429,15.429,0,0,0,5.4,5.941,14.851,14.851,0,0,0,3.781,1.713,17.818,17.818,0,0,0,4.608.629,57.492,57.492,0,0,1,11.681,1.4,46.627,46.627,0,0,1,5.585,1.693c1.882.7,3.67,1.587,5.5,2.4,6.138,2.734,12.97,4.29,19.7,3.393a26.756,26.756,0,0,0,17.141-9.625,28.261,28.261,0,0,0,1.873-2.591V7.044a19.783,19.783,0,0,0-8.374-3.807" transform="translate(285.938 159.51)" fill="#97a3d9"/>
    <path id="Path_68359" data-name="Path 68359" d="M62.686,3.374C59.338,1.271,55.142,1.652,51.4,2.1a50.779,50.779,0,0,1-11.892.387A19.478,19.478,0,0,1,36.7,1.959a19.057,19.057,0,0,1-2.563-1A10.379,10.379,0,0,0,31.406.173,17.662,17.662,0,0,0,28.872,0a18.785,18.785,0,0,0-9.3,2.639,23.639,23.639,0,0,0-7.2,6.659,24.153,24.153,0,0,0-2.417,4.2,19.942,19.942,0,0,0-1.365,3.944c-.4,1.9-.528,3.852-.771,5.772-.42,3.316-1.082,6.314-3.263,8.932C2.619,34.463-1.309,37.1.436,40.495c2.276,4.431,9.047,2.889,12.547,1.492a38.706,38.706,0,0,1,5.351-1.9,28.347,28.347,0,0,1,5.75-.718,23.156,23.156,0,0,1,5.578.4A39.414,39.414,0,0,1,35.2,41.583a28.891,28.891,0,0,0,5.511,1.661,15.188,15.188,0,0,0,4.251.1,21.56,21.56,0,0,0,8.166-2.838,32.2,32.2,0,0,0,7.283-5.816,35.123,35.123,0,0,0,3.791-4.772V4.567a9.569,9.569,0,0,0-1.521-1.193" transform="translate(298.757 65.651)" fill="#97a3d9"/>
    <path id="Path_68360" data-name="Path 68360" d="M22.165,32.271a17.872,17.872,0,0,1,6.219,7.093c3.653,7.587,10.552,15.95,20.123,11.876a10.3,10.3,0,0,0,5.586-5.862,6.626,6.626,0,0,0,.267-3.529,10.5,10.5,0,0,0-1.206-3.056c-1.018-1.838-2.434-3.572-2.884-5.62a4.819,4.819,0,0,1,.28-2.935,7.69,7.69,0,0,1,1.024-1.681c.566-.73,1.133-1.46,1.677-2.207a20.649,20.649,0,0,0,4.064-8.873,16.7,16.7,0,0,0,.088-5.145A13.751,13.751,0,0,0,55.943,8a15.375,15.375,0,0,0-6.429-6.355A14.074,14.074,0,0,0,40.392.237a11.4,11.4,0,0,0-4.414,1.82,25.161,25.161,0,0,0-3.623,3.258,41.659,41.659,0,0,1-3.521,3.423,14.882,14.882,0,0,1-4.783,2.534,20.432,20.432,0,0,1-5.886.992,37.809,37.809,0,0,1-5.49-.361c-2.724-.324-5.67-.552-8.322.3A6.24,6.24,0,0,0,1.09,14.458,5.83,5.83,0,0,0,.057,18.629c.414,2.813,2.96,4.89,5.262,6.245a49.93,49.93,0,0,0,8.337,3.371,39.472,39.472,0,0,1,8.509,4.027" transform="translate(170.768 24.634)" fill="#97a3d9"/>
    <path id="Path_68361" data-name="Path 68361" d="M10.435,62.882A12.634,12.634,0,0,0,19.8,64.314c6.795-1.637,12.342-5.783,19.408-6.652,7.2-.886,14.907-.49,20.181-6.41,6.571-7.376-4.267-11.967-5.494-18.68-.822-4.5,4.642-6.8,6.752-10.062a11.8,11.8,0,0,0,1.82-4.273,10.816,10.816,0,0,0-.222-4.589C60.282,6.06,52.838-1.815,44.2.371a17.515,17.515,0,0,0-8.382,5.564,66.928,66.928,0,0,0-5.805,7.993A35.245,35.245,0,0,1,23.9,21.356c-2.41,2.07-5.361,3.211-8.195,4.566a51.812,51.812,0,0,0-7.949,4.488,19.6,19.6,0,0,0-5.943,6.357,15.8,15.8,0,0,0-1.719,9.2A23.709,23.709,0,0,0,3.348,55.55a20.306,20.306,0,0,0,7.087,7.332" transform="translate(45.301 65.22)" fill="#97a3d9"/>
    <path id="Path_68362" data-name="Path 68362" d="M59.523,77.9a24.458,24.458,0,0,0,8.132-6.405,9.147,9.147,0,0,0,1.614-8.553,7.7,7.7,0,0,0-3.707-4.2,48.6,48.6,0,0,0-5.31-2.186,9.253,9.253,0,0,1-4.407-3.193,10.722,10.722,0,0,1-1.726-6.274c.068-4.507,1.87-8.851,1.548-13.384a11.768,11.768,0,0,0-2.434-6.455,17.984,17.984,0,0,0-3.922-3.7,34.3,34.3,0,0,0-9.562-4.257,66.619,66.619,0,0,1-9.6-3.378,14.339,14.339,0,0,1-6.863-6.985C21.969,6.1,22.18.964,18.379.219,5.673-2.273,2.231,17.171,4.432,25.761c1.305,5.1,4.28,10.13,3.265,15.552C6.738,46.435,2.9,50.325,1.024,55.07a14.671,14.671,0,0,0-.877,7.483A27.351,27.351,0,0,0,2.728,70.84a27.579,27.579,0,0,0,4.763,6.926,21.486,21.486,0,0,0,5.585,4.142,33.729,33.729,0,0,0,13.748,3.4,59.934,59.934,0,0,0,13.515-.87,65.565,65.565,0,0,0,8.69-2.206A62.138,62.138,0,0,0,59.523,77.9" transform="translate(43.903 186.33)" fill="#97a3d9"/>
    <path id="Path_68363" data-name="Path 68363" d="M61.453,15.6a11.664,11.664,0,0,0-3.4-2.725,24.243,24.243,0,0,0-4.189-1.756,28.5,28.5,0,0,0-4.494-1.145c-3.332-.52-6.779-.5-10.035-1.448a9.3,9.3,0,0,1-3.972-2.209C34.215,5.2,33.3,3.87,32.165,2.743A8.767,8.767,0,0,0,28.029.4,16.555,16.555,0,0,0,22.944.054,28.44,28.44,0,0,0,14.2,2.29,34.022,34.022,0,0,0,6.361,6.639c-6.555,5-7.349,11.755-5.485,19.48.58,2.406,1.821,4.587,2.4,7a37.556,37.556,0,0,1,.6,4.519c.171,1.464.386,2.923.69,4.365a23.142,23.142,0,0,0,3.018,7.851,14.712,14.712,0,0,0,6.436,5.513,21.14,21.14,0,0,0,9.8,1.487,47.688,47.688,0,0,0,10.67-2.037,83.385,83.385,0,0,0,9.57-3.527,36.008,36.008,0,0,0,8.084-4.674,25.728,25.728,0,0,0,6.033-7,44.972,44.972,0,0,0,4.235-9.448,21,21,0,0,0,1.01-10.4A9.555,9.555,0,0,0,61.453,15.6" transform="translate(100.024 277.048)" fill="#97a3d9"/>
    <path id="Path_68364" data-name="Path 68364" d="M.709,9.6c.47,1.949,1.475,3.715,1.947,5.669a30.337,30.337,0,0,1,.483,3.66c.138,1.186.313,2.368.559,3.536a18.75,18.75,0,0,0,2.445,6.36,11.916,11.916,0,0,0,5.213,4.465A17.122,17.122,0,0,0,19.3,34.5a38.6,38.6,0,0,0,8.642-1.651,67.578,67.578,0,0,0,7.752-2.857,29.186,29.186,0,0,0,6.548-3.786,20.847,20.847,0,0,0,4.886-5.666,36.416,36.416,0,0,0,3.43-7.653,17.008,17.008,0,0,0,.818-8.427,7.738,7.738,0,0,0-1.6-3.374A8.042,8.042,0,0,0,48.675,0H.623A17.749,17.749,0,0,0,.709,9.6" transform="translate(244.832 0)" fill="#97a3d9"/>
    <path id="Path_68365" data-name="Path 68365" d="M.165,6.641c.718,4.181,3.25,7.822,6.064,10.889A44.191,44.191,0,0,0,10.624,21.7c1.5,1.24,3.167,2.265,4.636,3.544a8.728,8.728,0,0,1,3.015,4.822,33.378,33.378,0,0,1,.338,6.4,13.637,13.637,0,0,0,1.406,6.224,21,21,0,0,0,4.361,5.452,20.155,20.155,0,0,0,12.328,5.524c4.558.316,9.022-.747,13.5-1.408a35.017,35.017,0,0,1,6.76-.451c6.327.3,13.673.882,17.953-4.928a8.126,8.126,0,0,0,1.593-5.346,9.6,9.6,0,0,0-1.846-4.849c-2.054-2.939-5.082-5.028-7.155-7.944a15.637,15.637,0,0,1-2.633-5.357,8.188,8.188,0,0,1,.286-4.5,24.99,24.99,0,0,1,2.542-4.95,27.377,27.377,0,0,0,2.741-5.583A20.144,20.144,0,0,0,71.419,0H.894a12.717,12.717,0,0,0-.73,6.641" transform="translate(78.07 0)" fill="#97a3d9"/>
    <path id="Path_68366" data-name="Path 68366" d="M51.36,17.644a17.154,17.154,0,0,0-6.008-3.861,25.354,25.354,0,0,0-7.64-1.723c-2.751-.2-5.535.177-8.267-.3a9.291,9.291,0,0,1-3.674-1.4,9.065,9.065,0,0,1-2.641-3.044c-1.3-2.238-2.287-4.741-4.668-6.068A9.081,9.081,0,0,0,11.4.375C7.084,1.861,5.126,6.76,3.829,10.733a85.528,85.528,0,0,0-3.6,13.449c-.916,6.23.915,13.408,6.1,17.353,4.469,3.4,10.332,3.784,15.735,3.505a49.735,49.735,0,0,0,16.924-3.71c5.288-2.253,10.338-5.83,13.343-10.83a11.5,11.5,0,0,0,1.844-7.159,9.941,9.941,0,0,0-2.812-5.7" transform="translate(181.055 288.364)" fill="#97a3d9"/>
    <path id="Path_68367" data-name="Path 68367" d="M44.373,13.783a25.353,25.353,0,0,0-7.64-1.723c-2.751-.2-5.535.177-8.267-.3a9.283,9.283,0,0,1-3.673-1.4,9.06,9.06,0,0,1-2.64-3.044c-1.3-2.238-2.288-4.741-4.668-6.068A9.083,9.083,0,0,0,10.419.375C6.106,1.861,4.148,6.757,2.851,10.73c-5.536,16.952-4.738,35.5,18.232,34.311a49.724,49.724,0,0,0,16.924-3.71c5.288-2.253,10.338-5.83,13.342-10.83.091-.152.18-.306.267-.462V19.184a11.2,11.2,0,0,0-1.234-1.54,17.159,17.159,0,0,0-6.008-3.861" transform="translate(311.349 5.236)" fill="#97a3d9"/>
    <path id="Path_68368" data-name="Path 68368" d="M49.6,11.4c-.482-.331-.98-.7-1.488-1.121C43.027,6.058,45.147-.419,36.594.021,23.916.676,13.7,5.563,8.757,16.866,6.659,21.666.315,25,.013,30.508c-.37,6.751,7.183,6.456,8.249,11.725.471,2.325-2.979,3.432-1.275,6.089,1.487,2.32,6.869,2.005,9.175,1.886,7.776-.4,8.363-3.06,12.436-8.393,3.971-5.2,8.889-3.936,14.459-6.628A23.3,23.3,0,0,0,54.425,21.738c2.273-7.381-.691-7.5-4.824-10.335" transform="translate(252.838 298.436)" fill="#97a3d9"/>
    <path id="Path_68369" data-name="Path 68369" d="M39.066,20.329a12.229,12.229,0,0,0-.627-3.578c-.9-2.438-2.784-4.3-4.036-6.537a9.877,9.877,0,0,1-1.149-3.592,9.067,9.067,0,0,0-.916-3.564A5.982,5.982,0,0,0,29.183.534c-5.605-1.962-12.553,1.919-17.32,4.61A8.708,8.708,0,0,0,8.22,8.724a8.785,8.785,0,0,0-.443,5.9c.554,2.4,1.686,4.676,1.99,7.133a6.236,6.236,0,0,1-.39,3.3,7.668,7.668,0,0,1-2.508,2.955c-1.7,1.261-3.792,2.052-5.237,3.64a6.727,6.727,0,0,0-1.1,7.039C3.247,45.285,11.49,52.206,18.985,51.183a11.623,11.623,0,0,0,6.7-3.1c3.1-3.09,3.961-7.706,7.023-10.829.387-.4.8-.757,1.18-1.164a15.6,15.6,0,0,0,1.16-1.433,18.643,18.643,0,0,0,1.8-3.116,25.051,25.051,0,0,0,2.092-7.527,21.508,21.508,0,0,0,.129-3.689" transform="translate(302.498 241.787)" fill="#97a3d9"/>
    <path id="Path_68370" data-name="Path 68370" d="M63.578,7.05a20.018,20.018,0,0,0-6.317-5.726,9.87,9.87,0,0,0-7.705-.9,18.869,18.869,0,0,0-8.427,5.521,30.48,30.48,0,0,0-5.157,9.114c-1.379,3.546-2.354,7.253-3.984,10.7-2.676,5.657-7.3,12.708-13.89,13.842-3.059.527-6.305-.03-9.222,1.032a16.3,16.3,0,0,0-5.727,4.209C1.255,46.753-.714,49.373.256,51.885c.669,1.735,2.5,2.664,4.045,3.7S7.373,58.3,6.913,60.1c-.362,1.415-1.812,2.266-2.5,3.553-1.026,1.911-.1,4.4,1.545,5.817A14,14,0,0,0,11.883,72c5.4,1.34,11.218,2.48,16.405.475,7.65-2.957,12.628-12.17,18.085-17.917a44.232,44.232,0,0,1,4.062-3.773c1.477-1.209,3.059-2.252,4.605-3.365A36.075,36.075,0,0,0,66.511,34.49V11.8A29.715,29.715,0,0,0,63.578,7.05" transform="translate(296.453 294.355)" fill="#97a3d9"/>
  </g>
</svg>
