<svg xmlns="http://www.w3.org/2000/svg" xmlns:xlink="http://www.w3.org/1999/xlink" width="433.045" height="434.51" viewBox="0 0 433.045 434.51">
  <defs>
    <clipPath id="clip-path">
      <rect id="Rectangle_13264" data-name="Rectangle 13264" width="313.976" height="318.259" fill="#f1acfd"/>
    </clipPath>
  </defs>
  <g id="Group_18338" data-name="Group 18338" transform="translate(269.13 434.51) rotate(-149)" opacity="0.349" clip-path="url(#clip-path)">
    <path id="Path_68371" data-name="Path 68371" d="M65.141,15.236a15.338,15.338,0,0,0-8.529-4.548c-4.157-.642-8.333.289-12.5-.015a14.594,14.594,0,0,1-5.437-1.429,26.934,26.934,0,0,1-4.407-2.9C31.323,4.077,28.342,1.689,24.734.586,21.3-.464,17.648.034,14.252,1a35.371,35.371,0,0,0-5.1,1.9A21.778,21.778,0,0,0,4.9,5.364,12.66,12.66,0,0,0,.284,12.588C-1.4,20.208,4.7,26.538,9.949,31.107a10.693,10.693,0,0,0,4.721,2.229A32.168,32.168,0,0,1,19.682,34.6a8.371,8.371,0,0,1,3.675,2.944,14.226,14.226,0,0,1,1.822,4.032c.878,2.872,1.4,5.914,3.12,8.443a10.9,10.9,0,0,0,6.183,4.426,17.492,17.492,0,0,0,7.867.05,35.521,35.521,0,0,0,7.963-2.66,47.431,47.431,0,0,0,6.772-3.8A43.789,43.789,0,0,0,64.874,41.5a23.189,23.189,0,0,0,5.276-8.622,15.615,15.615,0,0,0-.044-9.39,20.535,20.535,0,0,0-4.966-8.249" transform="translate(66.429 121.148)" fill="#f1acfd"/>
    <path id="Path_68372" data-name="Path 68372" d="M22.53,53a13.841,13.841,0,0,0,7.321-4.743c2.325-3,3.417-6.7,5.481-9.863a13.165,13.165,0,0,1,3.506-3.667,24.287,24.287,0,0,1,4.22-2.209c3.075-1.333,6.264-2.641,8.712-5.007a16.729,16.729,0,0,0,4.255-8.458,31.936,31.936,0,0,0,.73-4.855,19.658,19.658,0,0,0-.081-4.435,11.425,11.425,0,0,0-3.685-6.8C47.253-2.1,35.264-.234,30.318,5.242a29.035,29.035,0,0,1-3.189,3.4A7.555,7.555,0,0,1,23.2,10.259a12.842,12.842,0,0,1-3.98-.325c-2.651-.563-5.28-1.484-8.029-1.23a9.834,9.834,0,0,0-6.2,2.945,15.786,15.786,0,0,0-3.48,6.188A32.035,32.035,0,0,0,.126,25.287a42.873,42.873,0,0,0,.036,7.007A39.511,39.511,0,0,0,1.915,41.3a20.927,20.927,0,0,0,4.5,7.937,14.1,14.1,0,0,0,7.432,4.073A18.539,18.539,0,0,0,22.53,53" transform="translate(7.293 21.27)" fill="#f1acfd"/>
    <path id="Path_68373" data-name="Path 68373" d="M57.773,50.886a14.892,14.892,0,0,0,6.7-8.9,20.876,20.876,0,0,0-.556-10.992A41.558,41.558,0,0,0,58.962,20.43a38.446,38.446,0,0,0-7.191-8.65A50.1,50.1,0,0,0,28.661,1c-7.6-1.435-18.241-2-24.725,3.02-3,2.321-4.852,6.489-3.472,10.02.76,1.946,2.223,3.493,2.842,5.509a12.232,12.232,0,0,1,.144,5.654C2.881,28.635,1.54,31.872.841,35.274a31.339,31.339,0,0,0-.7,8.649,13.8,13.8,0,0,0,2.6,7.547,11.172,11.172,0,0,0,7.581,3.922c4.646.595,9.052-1.2,13.412-2.52a26.063,26.063,0,0,1,6.63-1.277,37.3,37.3,0,0,1,5.457.278c3.791.425,7.554,1.155,11.373,1.293a18.9,18.9,0,0,0,10.585-2.28" transform="translate(112.97 61.727)" fill="#f1acfd"/>
    <path id="Path_68374" data-name="Path 68374" d="M70.956,33.746c-1.326-3.422-4.1-6.075-7.009-8.193a38.217,38.217,0,0,0-4.442-2.783c-1.484-.794-3.073-1.377-4.538-2.21a7.551,7.551,0,0,1-3.383-3.571A28.889,28.889,0,0,1,50.2,11.619,11.8,11.8,0,0,0,47.94,6.583a18.159,18.159,0,0,0-4.632-3.875A17.436,17.436,0,0,0,31.908.139C27.99.652,24.387,2.319,20.7,3.648A30.311,30.311,0,0,1,15.048,5.19C9.632,6.021,3.3,6.787.672,12.446a7.032,7.032,0,0,0-.434,4.807,8.308,8.308,0,0,0,2.4,3.794c2.246,2.14,5.171,3.392,7.429,5.509a13.521,13.521,0,0,1,3.152,4.09,7.085,7.085,0,0,1,.529,3.863,21.638,21.638,0,0,1-1.306,4.633,23.685,23.685,0,0,0-1.367,5.2,17.116,17.116,0,0,0,1.691,9.928,17.467,17.467,0,0,0,7.484,7.32,29.225,29.225,0,0,0,10.923,3.115,42.122,42.122,0,0,0,11.442-.529A38.678,38.678,0,0,0,53.67,60.492a39.121,39.121,0,0,0,9.683-7.122,33.342,33.342,0,0,0,6.554-9c1.572-3.3,2.411-7.106,1.048-10.624" transform="translate(156.626 118.153)" fill="#f1acfd"/>
    <path id="Path_68375" data-name="Path 68375" d="M0,47.476a26.317,26.317,0,0,0,.332,4.358C.887,55.259,2.389,60,5.365,62.164c3.573,2.594,5.645-1.245,7.844-3.489a12.96,12.96,0,0,1,10.141-4.1c4.2.289,7.933,2.645,11.642,4.647,6.652,3.591,15.475,5.472,22.138.973,3.276-2.211,5.753-5.313,8.454-8.149a30.3,30.3,0,0,1,4.369-3.907c4.472-3.165,9.79-6.68,9.615-12.919a7.03,7.03,0,0,0-1.761-4.493,8.3,8.3,0,0,0-3.84-2.322c-2.965-.91-6.142-.721-9.108-1.605a13.532,13.532,0,0,1-4.648-2.249,7.087,7.087,0,0,1-2.2-3.219,21.619,21.619,0,0,1-.9-4.728A23.7,23.7,0,0,0,56,11.333,17.12,17.12,0,0,0,50.05,3.209a17.47,17.47,0,0,0-9.967-3.2,29.23,29.23,0,0,0-11.163,2.1,42.127,42.127,0,0,0-10,5.589C13.857,11.466,11,16.683,8.258,22.219,4.378,30.06.051,38.569,0,47.476" transform="translate(0 239.694)" fill="#f1acfd"/>
    <path id="Path_68376" data-name="Path 68376" d="M2.221,54.978a8.27,8.27,0,0,0,3.526,2.209,12.355,12.355,0,0,0,4.393.654,18.051,18.051,0,0,0,10.337-4.176,57.151,57.151,0,0,0,4.173-3.912,22.765,22.765,0,0,1,4.207-3.26A26.8,26.8,0,0,1,38.274,43.3c1.793-.3,3.6-.5,5.41-.677a19.013,19.013,0,0,0,4.172-.808,15.343,15.343,0,0,0,6.306-4.024,18.541,18.541,0,0,0,3.859-6.4,23.482,23.482,0,0,0,1.365-7.568A24.708,24.708,0,0,0,58.3,16.064a21.019,21.019,0,0,0-3.552-6.837A23.337,23.337,0,0,0,46.9,3,28.614,28.614,0,0,0,36.731.123a27.376,27.376,0,0,0-10.424,1c-2.763.836-5.321,2.4-6.583,5.095a15.646,15.646,0,0,0-1.014,7.668c.175,2.748.636,5.472.746,8.225.131,3.288-.275,6.826-2.192,9.6a9.648,9.648,0,0,1-4.43,3.509c-1.838.71-3.808.984-5.659,1.657A10.352,10.352,0,0,0,3.2,39.364a9.979,9.979,0,0,0-2.181,3.6c-1.486,4.181-1.565,9.017,1.2,12.01" transform="translate(192.856 44.517)" fill="#f1acfd"/>
    <path id="Path_68377" data-name="Path 68377" d="M22.738.076A35.6,35.6,0,0,0,10.9,2.681C2.858,6.1-2.561,14.725,1.241,23.473A11.583,11.583,0,0,0,4.9,28.233a7.571,7.571,0,0,0,5.988,1.346,15.863,15.863,0,0,0,5.508-2.869,14.866,14.866,0,0,1,5.71-2.8,16,16,0,0,1,8.443,1.064c1.36.511,2.679,1.12,4,1.723a19.344,19.344,0,0,0,3.719,1.442,5.172,5.172,0,0,0,2.781-.044,6.258,6.258,0,0,0,2.335-1.543,24.852,24.852,0,0,0,2.317-2.7c2.51-3.28,4.355-7.81,2.9-11.987s-5.668-6.81-9.386-8.783a23.463,23.463,0,0,0-5.017-2,36.7,36.7,0,0,0-11.453-1" transform="translate(224.123 100.439)" fill="#f1acfd"/>
    <path id="Path_68378" data-name="Path 68378" d="M54.075,36.284A11.515,11.515,0,0,0,55,31.279a9.9,9.9,0,0,0-5.732-8.01c-2.086-.947-4.386-1.436-6.333-2.644s-3.528-3.48-2.949-5.7c.552-2.112,2.667-3.311,3.478-5.306,1.012-2.491.848-7.1-1.506-8.884C40.181-.61,37.579.075,35.716,1.3c-4.2,2.767-6.6,7.792-10.986,10.247-4.863,2.72-11.2,1.733-15.959,4.625a15.522,15.522,0,0,0-4.083,3.812A21.349,21.349,0,0,0,.022,31.847a16.719,16.719,0,0,0,2.713,9.99c1.874,2.9,3.737,3.9,7.124,4.775,2.647.683,5.464,1.13,7.924,2.374a8.139,8.139,0,0,1,2.786,2.2,8.841,8.841,0,0,1,1.6,3.766c.326,1.648.386,3.334.807,4.968a9.545,9.545,0,0,0,2.212,4.189,14.362,14.362,0,0,0,9.689,4.081,21.612,21.612,0,0,0,10.387-2.207A19.287,19.287,0,0,0,52.8,60.178a7.958,7.958,0,0,0,1.547-4.205,9.644,9.644,0,0,0-1.4-4.835A19.417,19.417,0,0,1,50.8,45.99a8.1,8.1,0,0,1,.824-5.072c.769-1.572,1.773-3.016,2.455-4.633" transform="translate(110.94 167.9)" fill="#f1acfd"/>
    <path id="Path_68379" data-name="Path 68379" d="M54.367,19.4a31.956,31.956,0,0,0-8.542-5.172A36.055,36.055,0,0,0,41.4,12.657a35.534,35.534,0,0,0-4.316-.8c-2.976-.435-6.22-.78-8.835-2.391a7.348,7.348,0,0,1-1.61-1.328,9.983,9.983,0,0,1-1.256-1.858,24.959,24.959,0,0,0-2.228-3.818,6.828,6.828,0,0,0-3.89-2.3A9.826,9.826,0,0,0,16.007.111a22.491,22.491,0,0,0-7.88,2.67A12.162,12.162,0,0,0,2.364,8.713c-1.332,3.431-.033,6.874-.5,10.383-.1.72-.273,1.424-.436,2.132C1.152,22.414.893,23.606.674,24.8a32.282,32.282,0,0,0-.622,7.987,12.289,12.289,0,0,0,2.482,7.082,10.319,10.319,0,0,0,7.656,3.437c2.883.116,6.348-.661,8.677,1.518a10.13,10.13,0,0,1,1.539,2.035c.424.664.846,1.329,1.288,1.982A16.739,16.739,0,0,0,24.409,52.1a9.634,9.634,0,0,0,3.783,2.053,17.268,17.268,0,0,0,5.122.476,34.941,34.941,0,0,0,10.881-2.041,22.656,22.656,0,0,0,4.761-2.316,28.347,28.347,0,0,0,4.107-3.319,27.053,27.053,0,0,0,6.393-9.243,16.7,16.7,0,0,0,1.212-5.292,13.642,13.642,0,0,0-.722-5.083A18.539,18.539,0,0,0,54.367,19.4" transform="translate(184.493 200.036)" fill="#f1acfd"/>
    <path id="Path_68380" data-name="Path 68380" d="M33.764,7.047c-1.7-.6-3.43-1.138-5.117-1.787a25.482,25.482,0,0,1-2.4-1.051c-.77-.391-1.5-.849-2.237-1.3A24.578,24.578,0,0,0,18.9.3c-3.192-1.044-6.058.848-8.423,2.805C9.19,4.168,7.99,5.339,6.666,6.36c-1.292,1-2.848,1.62-4.079,2.681a8.138,8.138,0,0,0,.2,12.087,11.129,11.129,0,0,0,6.85,2.55c2.5.156,5.008-.154,7.513-.052a12.2,12.2,0,0,1,3.439.549A10.063,10.063,0,0,1,23.357,25.7c1.69,1.266,3.085,2.88,4.734,4.2a11.522,11.522,0,0,0,5.5,2.6,7.1,7.1,0,0,0,4.7-.95c2.924-1.784,4.511-5.269,5.212-8.5.744-3.427.759-7.448-1.229-10.479-1.934-2.949-5.3-4.383-8.5-5.516" transform="translate(223.522 172.308)" fill="#f1acfd"/>
    <path id="Path_68381" data-name="Path 68381" d="M12.1,5.328C11.006,6.54,9.962,7.8,8.838,8.977a22.974,22.974,0,0,1-1.7,1.635c-.592.507-1.227.958-1.858,1.415a22.176,22.176,0,0,0-3.944,3.362C-.642,17.689-.055,20.732.76,23.38c.443,1.441,1,2.846,1.4,4.3.384,1.421.366,2.934.825,4.328A7.344,7.344,0,0,0,13.13,36.02a10.043,10.043,0,0,0,4.494-4.829c.995-2.034,1.6-4.229,2.553-6.281a11,11,0,0,1,1.646-2.677,9.079,9.079,0,0,1,2.224-1.781c1.64-.972,3.467-1.577,5.136-2.5a10.4,10.4,0,0,0,4.065-3.689,6.407,6.407,0,0,0,.831-4.242C33.6,6.97,31.246,4.442,28.8,2.742c-2.6-1.8-5.947-3.207-9.161-2.6C16.508.738,14.147,3.051,12.1,5.328" transform="translate(20.901 126.772)" fill="#f1acfd"/>
    <path id="Path_68382" data-name="Path 68382" d="M59.387,2.8a27.752,27.752,0,0,0-9.535.125C46.43,3.467,43.067,4.4,39.609,4.7a22.079,22.079,0,0,1-5.232-.124,20.609,20.609,0,0,1-4.9-1.435C19.207-1.189,15.169-1.337,5.9,4.554,2.462,6.738.214,9.765.014,14A13.668,13.668,0,0,0,1.52,20.855a13.347,13.347,0,0,0,4.673,5.14,12.846,12.846,0,0,0,3.27,1.481,15.414,15.414,0,0,0,3.987.544,49.729,49.729,0,0,1,10.1,1.209,40.326,40.326,0,0,1,4.832,1.464c1.628.607,3.175,1.373,4.759,2.078a31.909,31.909,0,0,0,17.038,2.935A23.145,23.145,0,0,0,65.01,27.38a24.454,24.454,0,0,0,1.621-2.241V6.093A17.112,17.112,0,0,0,59.387,2.8" transform="translate(247.345 137.981)" fill="#f1acfd"/>
    <path id="Path_68383" data-name="Path 68383" d="M54.226,2.919c-2.9-1.82-6.526-1.49-9.763-1.1a43.925,43.925,0,0,1-10.287.335,16.853,16.853,0,0,1-2.428-.457A16.488,16.488,0,0,1,29.53.831,8.978,8.978,0,0,0,27.167.15,15.278,15.278,0,0,0,24.975,0a16.25,16.25,0,0,0-8.043,2.283A20.447,20.447,0,0,0,10.7,8.044a20.9,20.9,0,0,0-2.091,3.629,17.256,17.256,0,0,0-1.181,3.412c-.35,1.639-.457,3.332-.667,4.993C6.4,22.946,5.826,25.54,3.939,27.8,2.266,29.811-1.132,32.09.377,35.029c1.968,3.833,7.826,2.5,10.854,1.291a33.479,33.479,0,0,1,4.629-1.648,24.518,24.518,0,0,1,4.974-.621,20.032,20.032,0,0,1,4.825.347,34.094,34.094,0,0,1,4.8,1.573,24.991,24.991,0,0,0,4.767,1.436,13.139,13.139,0,0,0,3.677.087,18.651,18.651,0,0,0,7.064-2.455,27.853,27.853,0,0,0,6.3-5.031,30.385,30.385,0,0,0,3.279-4.128V3.951a8.283,8.283,0,0,0-1.316-1.032" transform="translate(258.434 56.79)" fill="#f1acfd"/>
    <path id="Path_68384" data-name="Path 68384" d="M19.173,27.916a15.46,15.46,0,0,1,5.379,6.135c3.16,6.563,9.128,13.8,17.407,10.273a8.912,8.912,0,0,0,4.832-5.071,5.732,5.732,0,0,0,.231-3.053,9.085,9.085,0,0,0-1.043-2.643c-.88-1.59-2.106-3.09-2.495-4.861a4.169,4.169,0,0,1,.242-2.539,6.65,6.65,0,0,1,.886-1.454c.49-.632.98-1.263,1.451-1.909a17.862,17.862,0,0,0,3.515-7.675,14.442,14.442,0,0,0,.076-4.451,11.9,11.9,0,0,0-1.263-3.746,13.3,13.3,0,0,0-5.561-5.5A12.175,12.175,0,0,0,34.94.2a9.864,9.864,0,0,0-3.819,1.575A21.764,21.764,0,0,0,27.987,4.6a36.036,36.036,0,0,1-3.045,2.961A12.873,12.873,0,0,1,20.8,9.75a17.674,17.674,0,0,1-5.091.858,32.707,32.707,0,0,1-4.749-.313,17.123,17.123,0,0,0-7.2.263A5.4,5.4,0,0,0,.942,12.506,5.044,5.044,0,0,0,.05,16.114c.358,2.433,2.561,4.23,4.551,5.4a43.193,43.193,0,0,0,7.212,2.916,34.145,34.145,0,0,1,7.36,3.483" transform="translate(147.72 21.309)" fill="#f1acfd"/>
    <path id="Path_68385" data-name="Path 68385" d="M9.026,54.4a10.928,10.928,0,0,0,8.1,1.238c5.878-1.416,10.676-5,16.789-5.754,6.227-.766,12.9-.424,17.457-5.545,5.684-6.38-3.691-10.352-4.753-16.159-.711-3.89,4.015-5.881,5.841-8.7a10.2,10.2,0,0,0,1.575-3.7,9.356,9.356,0,0,0-.192-3.97C52.146,5.242,45.706-1.57,38.232.321a15.151,15.151,0,0,0-7.25,4.813,57.9,57.9,0,0,0-5.022,6.914,30.487,30.487,0,0,1-5.287,6.426c-2.085,1.79-4.638,2.778-7.089,3.949a44.822,44.822,0,0,0-6.876,3.882,16.958,16.958,0,0,0-5.141,5.5A13.669,13.669,0,0,0,.08,39.758a20.51,20.51,0,0,0,2.816,8.3A17.565,17.565,0,0,0,9.026,54.4" transform="translate(39.187 56.418)" fill="#f1acfd"/>
    <path id="Path_68386" data-name="Path 68386" d="M51.489,67.385a21.157,21.157,0,0,0,7.035-5.541,7.912,7.912,0,0,0,1.4-7.4,6.664,6.664,0,0,0-3.207-3.633,42.014,42.014,0,0,0-4.593-1.891,8,8,0,0,1-3.812-2.762,9.275,9.275,0,0,1-1.493-5.427c.059-3.9,1.617-7.657,1.339-11.578a10.18,10.18,0,0,0-2.105-5.583,15.558,15.558,0,0,0-3.393-3.2,29.673,29.673,0,0,0-8.271-3.683,57.624,57.624,0,0,1-8.307-2.922A12.4,12.4,0,0,1,20.14,7.721C19,5.28,19.186.834,15.9.189,4.907-1.966,1.93,14.854,3.833,22.284c1.129,4.408,3.7,8.763,2.825,13.453-.829,4.43-4.146,7.8-5.772,11.9a12.691,12.691,0,0,0-.759,6.473A23.66,23.66,0,0,0,2.36,61.279,23.857,23.857,0,0,0,6.48,67.27a18.587,18.587,0,0,0,4.831,3.583A29.177,29.177,0,0,0,23.2,73.8a51.846,51.846,0,0,0,11.691-.753,56.715,56.715,0,0,0,7.517-1.908,53.751,53.751,0,0,0,9.077-3.75" transform="translate(37.978 161.181)" fill="#f1acfd"/>
    <path id="Path_68387" data-name="Path 68387" d="M53.159,13.5a10.093,10.093,0,0,0-2.939-2.357A20.98,20.98,0,0,0,46.6,9.619a24.658,24.658,0,0,0-3.888-.99c-2.883-.45-5.864-.43-8.68-1.253a8.047,8.047,0,0,1-3.436-1.91C29.6,4.5,28.808,3.348,27.824,2.372A7.583,7.583,0,0,0,24.246.347a14.318,14.318,0,0,0-4.4-.3,24.6,24.6,0,0,0-7.562,1.934A29.435,29.435,0,0,0,5.5,5.743C-.168,10.073-.855,15.912.758,22.594c.5,2.081,1.575,3.968,2.079,6.053a32.479,32.479,0,0,1,.516,3.909c.148,1.266.334,2.529.6,3.776a20.018,20.018,0,0,0,2.61,6.792,12.726,12.726,0,0,0,5.567,4.769,18.287,18.287,0,0,0,8.481,1.287,41.257,41.257,0,0,0,9.23-1.762,72.144,72.144,0,0,0,8.279-3.051,31.145,31.145,0,0,0,6.993-4.043,22.256,22.256,0,0,0,5.219-6.051A38.9,38.9,0,0,0,53.992,26.1a18.167,18.167,0,0,0,.874-9,8.265,8.265,0,0,0-1.708-3.6" transform="translate(86.524 239.655)" fill="#f1acfd"/>
    <path id="Path_68388" data-name="Path 68388" d="M.613,8.308c.407,1.686,1.276,3.214,1.684,4.9a26.269,26.269,0,0,1,.418,3.166c.119,1.026.27,2.049.483,3.059a16.219,16.219,0,0,0,2.115,5.5A10.308,10.308,0,0,0,9.823,28.8a14.812,14.812,0,0,0,6.87,1.042,33.393,33.393,0,0,0,7.476-1.428,58.455,58.455,0,0,0,6.706-2.471,25.249,25.249,0,0,0,5.664-3.275,18.034,18.034,0,0,0,4.227-4.9,31.494,31.494,0,0,0,2.967-6.62,14.713,14.713,0,0,0,.708-7.29A6.693,6.693,0,0,0,43.058.938,6.967,6.967,0,0,0,42.105,0H.539A15.353,15.353,0,0,0,.613,8.308" transform="translate(211.787 0)" fill="#f1acfd"/>
    <path id="Path_68389" data-name="Path 68389" d="M.142,5.745c.621,3.617,2.811,6.766,5.246,9.42a38.227,38.227,0,0,0,3.8,3.608c1.3,1.073,2.739,1.959,4.01,3.066a7.55,7.55,0,0,1,2.608,4.171,28.872,28.872,0,0,1,.293,5.537,11.8,11.8,0,0,0,1.216,5.384,18.163,18.163,0,0,0,3.772,4.716,17.435,17.435,0,0,0,10.664,4.778c3.943.273,7.8-.646,11.679-1.218a30.29,30.29,0,0,1,5.848-.39c5.473.258,11.828.763,15.53-4.263a7.029,7.029,0,0,0,1.378-4.625,8.307,8.307,0,0,0-1.6-4.194c-1.777-2.542-4.4-4.35-6.19-6.872a13.526,13.526,0,0,1-2.278-4.634,7.083,7.083,0,0,1,.247-3.891,21.617,21.617,0,0,1,2.2-4.282A23.682,23.682,0,0,0,60.94,7.227,17.426,17.426,0,0,0,61.78,0H.774A11,11,0,0,0,.142,5.745" transform="translate(67.533 0)" fill="#f1acfd"/>
    <path id="Path_68390" data-name="Path 68390" d="M44.428,15.263a14.838,14.838,0,0,0-5.2-3.34,21.93,21.93,0,0,0-6.609-1.491c-2.38-.173-4.788.153-7.151-.26a8.037,8.037,0,0,1-3.178-1.21,7.843,7.843,0,0,1-2.284-2.633c-1.127-1.936-1.979-4.1-4.038-5.249A7.855,7.855,0,0,0,9.86.324C6.128,1.61,4.434,5.848,3.312,9.285A73.99,73.99,0,0,0,.2,20.918c-.793,5.389.792,11.6,5.277,15.011,3.866,2.942,8.937,3.273,13.611,3.032a43.022,43.022,0,0,0,14.639-3.209c4.574-1.949,8.943-5.043,11.542-9.368a9.95,9.95,0,0,0,1.6-6.192,8.6,8.6,0,0,0-2.432-4.928" transform="translate(156.618 249.444)" fill="#f1acfd"/>
    <path id="Path_68391" data-name="Path 68391" d="M38.384,11.923a21.931,21.931,0,0,0-6.609-1.491c-2.38-.173-4.788.153-7.151-.26a8.03,8.03,0,0,1-3.177-1.21,7.838,7.838,0,0,1-2.284-2.633c-1.127-1.936-1.979-4.1-4.038-5.249A7.857,7.857,0,0,0,9.013.324C5.282,1.609,3.588,5.845,2.466,9.282c-4.789,14.664-4.1,30.7,15.771,29.68a43.012,43.012,0,0,0,14.64-3.209c4.574-1.949,8.943-5.044,11.542-9.369.079-.131.156-.265.231-.4V16.6a9.7,9.7,0,0,0-1.068-1.332,14.841,14.841,0,0,0-5.2-3.34" transform="translate(269.327 4.529)" fill="#f1acfd"/>
    <path id="Path_68392" data-name="Path 68392" d="M42.907,9.864c-.417-.287-.848-.605-1.287-.97C37.219,5.24,39.054-.362,31.655.018,20.688.585,11.848,4.812,7.575,14.59,5.76,18.742.273,21.628.011,26.39c-.32,5.84,6.213,5.585,7.136,10.142.407,2.011-2.577,2.968-1.1,5.267,1.287,2.007,5.942,1.734,7.937,1.632,6.727-.346,7.234-2.647,10.758-7.26,3.435-4.5,7.689-3.4,12.507-5.734A20.153,20.153,0,0,0,47.08,18.8c1.966-6.385-.6-6.484-4.173-8.94" transform="translate(218.712 258.157)" fill="#f1acfd"/>
    <path id="Path_68393" data-name="Path 68393" d="M33.793,17.586a10.581,10.581,0,0,0-.543-3.1c-.782-2.109-2.408-3.715-3.491-5.654a8.544,8.544,0,0,1-.994-3.108,7.845,7.845,0,0,0-.792-3.083A5.175,5.175,0,0,0,25.244.462C20.4-1.235,14.386,2.122,10.261,4.45a7.532,7.532,0,0,0-3.151,3.1,7.6,7.6,0,0,0-.383,5.106c.479,2.075,1.458,4.045,1.721,6.17a5.394,5.394,0,0,1-.338,2.852,6.633,6.633,0,0,1-2.17,2.556c-1.47,1.091-3.28,1.775-4.53,3.149a5.82,5.82,0,0,0-.953,6.089c2.351,5.7,9.482,11.691,15.965,10.807a10.055,10.055,0,0,0,5.8-2.678c2.684-2.673,3.426-6.666,6.075-9.368.335-.342.7-.655,1.02-1.007a13.516,13.516,0,0,0,1-1.24,16.125,16.125,0,0,0,1.553-2.7,21.669,21.669,0,0,0,1.809-6.511,18.6,18.6,0,0,0,.112-3.191" transform="translate(261.67 209.153)" fill="#f1acfd"/>
    <path id="Path_68394" data-name="Path 68394" d="M55,6.1a17.317,17.317,0,0,0-5.464-4.953A8.538,8.538,0,0,0,42.868.363a16.323,16.323,0,0,0-7.29,4.776,26.365,26.365,0,0,0-4.461,7.884C29.924,16.09,29.08,19.3,27.67,22.279c-2.315,4.893-6.311,10.993-12.015,11.974-2.647.456-5.454-.026-7.978.892a14.1,14.1,0,0,0-4.954,3.641c-1.637,1.656-3.341,3.923-2.5,6.1.579,1.5,2.16,2.3,3.5,3.2s2.658,2.351,2.26,3.91c-.313,1.224-1.568,1.96-2.165,3.074-.887,1.653-.084,3.807,1.337,5.032a12.106,12.106,0,0,0,5.127,2.187c4.669,1.159,9.7,2.145,14.191.411,6.618-2.558,10.924-10.528,15.644-15.5a38.282,38.282,0,0,1,3.514-3.264c1.277-1.046,2.646-1.948,3.984-2.911a31.207,31.207,0,0,0,9.923-11.184V10.208A25.72,25.72,0,0,0,55,6.1" transform="translate(256.441 254.627)" fill="#f1acfd"/>
  </g>
</svg>
