<svg id="Group_35616" data-name="Group 35616" xmlns="http://www.w3.org/2000/svg" width="53.669" height="46.537" viewBox="0 0 53.669 46.537">
  <g id="Group_35617" data-name="Group 35617">
    <path id="Path_96753" data-name="Path 96753" d="M53.127,33.018A4.185,4.185,0,0,0,53,28.679a2.318,2.318,0,0,1-.384-1.584,4.344,4.344,0,0,0-2.784-4.317c-.326-.125-.326-.125-.275-.471a3.232,3.232,0,0,0-.922-2.842,4.912,4.912,0,0,0-.81-.615c-.146-.1-.291-.19-.43-.293A11.006,11.006,0,0,0,43.3,16.521a3.212,3.212,0,0,0-3.173.666c-.013.013-.022.018-.024.021a.657.657,0,0,1-.08-.067,3.01,3.01,0,0,0-2.417-.736,8.086,8.086,0,0,0-3.234,1.129,25.422,25.422,0,0,0-2.323,1.522,4.087,4.087,0,0,0-.99,1.095,2.987,2.987,0,0,0-.388,2.283c.046.213.01.252-.158.294a2.435,2.435,0,0,0-.514.215l-.061.03a4.432,4.432,0,0,0-2.285,4.819.367.367,0,0,1-.089.34,4.327,4.327,0,0,0-.479,4.914.324.324,0,0,1,0,.355,4.4,4.4,0,0,0,1.339,5.741.412.412,0,0,1,.141.265,4.98,4.98,0,0,0,3.117,4.752.686.686,0,0,1,.275.221,4.964,4.964,0,0,0,4,2.155h.075a4.95,4.95,0,0,0,3.979-2.027c.025-.034.057-.076.083-.108.026.032.059.076.087.113a4.856,4.856,0,0,0,3.877,2.023h.005a5.048,5.048,0,0,0,4.144-2.112.928.928,0,0,1,.36-.292,4.908,4.908,0,0,0,3.049-4.706.305.305,0,0,1,.147-.3,4.37,4.37,0,0,0,1.352-5.708.363.363,0,0,1,.007-.4m-3.3,5.928a3.23,3.23,0,0,1-2.269,3.713,1.136,1.136,0,0,0-.584.47,3.194,3.194,0,0,1-5.992-1.75,3.171,3.171,0,0,1,2.3-2.836,1,1,0,0,0,.607-.479.824.824,0,0,0,.049-.636.85.85,0,0,0-.836-.6,1.137,1.137,0,0,0-.3.042,4.856,4.856,0,0,0-1.825.969c-.005-.087-.009-.164-.009-.24q0-1.479,0-2.96c0-2.315.007-4.711-.008-7.066a1.391,1.391,0,0,1,.38-1,1.182,1.182,0,0,1,.843-.349h0a.814.814,0,0,0,.8-.857.9.9,0,0,0-.261-.643.776.776,0,0,0-.547-.216,4.294,4.294,0,0,0-1.112.2.785.785,0,0,0-.1.028.576.576,0,0,1-.007-.1q0-1.021,0-2.042c0-1.089,0-2.178.006-3.266a1.225,1.225,0,0,1,.368-.9,1.2,1.2,0,0,1,.911-.3,5.655,5.655,0,0,1,2.3.7c-.024.017-.047.032-.071.047A3.458,3.458,0,0,0,43.2,20.183a.9.9,0,0,0,.281,1.283.874.874,0,0,0,1.238-.429,1.631,1.631,0,0,1,1.885-.829,1.656,1.656,0,0,1,1.249,1.668,1.17,1.17,0,0,1-.1.481.445.445,0,0,1-.258.171,4.331,4.331,0,0,0-3.409,2.82,5.281,5.281,0,0,0-.277,1.444.882.882,0,0,0,.211.686.926.926,0,0,0,.655.276.88.88,0,0,0,.87-.924,2.675,2.675,0,1,1,5.2.927,1.041,1.041,0,0,0,.289,1.223,2.654,2.654,0,0,1-.877,4.475,3.484,3.484,0,0,1-.9.17.9.9,0,0,0-.9.9.877.877,0,0,0,.928.847h.018a4.425,4.425,0,0,0,2.292-.691c.044-.027.089-.053.139-.08a2.262,2.262,0,0,1,.159,1.19,2.683,2.683,0,0,1-1.534,2.152.85.85,0,0,0-.544,1m-14.2,5.82a3.162,3.162,0,0,1-2.277-1.482,1.582,1.582,0,0,0-.908-.722,3.148,3.148,0,0,1-2.073-3.54.888.888,0,0,0-.535-1.081,2.686,2.686,0,0,1-1.449-3.132,1.44,1.44,0,0,1,.07-.195l.209.111a4.531,4.531,0,0,0,.787.358,7.065,7.065,0,0,0,1.434.277.868.868,0,1,0,.046-1.73,2.628,2.628,0,0,1-2.481-1.8,2.5,2.5,0,0,1,.628-2.754,1.24,1.24,0,0,0,.35-1.429,2.554,2.554,0,0,1,.187-2.012,2.671,2.671,0,0,1,1.615-1.321,2.71,2.71,0,0,1,2.075.242,2.578,2.578,0,0,1,1.239,1.562,3.567,3.567,0,0,1,.114.717.892.892,0,0,0,.876.915h0a.874.874,0,0,0,.872-.948,4.4,4.4,0,0,0-3.649-4.26c-.209-.032-.286-.07-.331-.232a1.685,1.685,0,0,1,.949-2.038,1.66,1.66,0,0,1,2.1.739.881.881,0,0,0,1.63.035.829.829,0,0,0,0-.643,3.087,3.087,0,0,0-1.306-1.485c-.051-.032-.1-.065-.151-.1l.119-.058a5.659,5.659,0,0,1,.689-.3,8.247,8.247,0,0,1,1.315-.328,1.266,1.266,0,0,1,1.051.245,1.318,1.318,0,0,1,.416,1.022c.006.82,0,1.64,0,2.461V22.6c0,.031,0,.064,0,.1l-.106-.03c-.216-.058-.42-.115-.628-.158a1.608,1.608,0,0,0-.557-.02.864.864,0,0,0,.107,1.716,1.125,1.125,0,0,1,1.072.7,1.941,1.941,0,0,1,.114.741q.01,2.709.006,5.417v4.237c0,1.989,0,3.976.011,5.964A3.442,3.442,0,0,1,38.2,43.947a3.138,3.138,0,0,1-2.577.819"/>
    <path id="Path_96754" data-name="Path 96754" d="M32.115,33.763a3.376,3.376,0,0,0,3.1-2.365c.068-.206.158-.26.38-.311a4.108,4.108,0,0,0,2.1-1.213.871.871,0,0,0,.114-1.017.84.84,0,0,0-.941-.406,1.249,1.249,0,0,0-.486.29,2.729,2.729,0,0,1-2.558.654,2.657,2.657,0,0,1-1.861-1.822,3.18,3.18,0,0,1-.1-.64l-.013-.135a.881.881,0,0,0-.936-.854.848.848,0,0,0-.8.926,3.683,3.683,0,0,0,.06.723,4.379,4.379,0,0,0,3.224,3.482c.041.013.065.024.076.025a.4.4,0,0,1-.038.071A1.7,1.7,0,0,1,32,32.03a.945.945,0,0,0-.677.3.858.858,0,0,0-.194.642.867.867,0,0,0,.921.8c.023,0,.046,0,.069,0"/>
    <path id="Path_96755" data-name="Path 96755" d="M37.139,33.54h-.047a4.426,4.426,0,0,0-4.255,3.921c-.016.136-.022.137-.123.141a.861.861,0,0,0-.912.906c.015.488.355.8.934.843a3,3,0,0,1,.836.162,2.625,2.625,0,0,1,1.763,2.479.942.942,0,0,0,.35.722.83.83,0,0,0,.513.172.966.966,0,0,0,.2-.023A.83.83,0,0,0,37.074,42a4.292,4.292,0,0,0-2.266-3.823.4.4,0,0,1-.248-.477,2.7,2.7,0,0,1,2.6-2.416,1,1,0,0,0,.719-.3.844.844,0,0,0,.213-.623.887.887,0,0,0-.953-.825"/>
    <path id="Path_96756" data-name="Path 96756" d="M43.936,31.406a3.371,3.371,0,0,0,3.14,2.437h.066A.952.952,0,0,0,47.8,33.6a.844.844,0,0,0,.257-.627c0-.507-.329-.824-.91-.871a1.673,1.673,0,0,1-1.426-.916l.321-.1a4.389,4.389,0,0,0,3.034-4.16.838.838,0,0,0-.821-.894h-.037a.843.843,0,0,0-.872.84l-.012.132q-.009.115-.021.231a2.667,2.667,0,0,1-2.474,2.327,2.74,2.74,0,0,1-2.092-.793.934.934,0,0,0-.654-.26.851.851,0,0,0-.6.266.89.89,0,0,0,.053,1.252A4.246,4.246,0,0,0,43.7,31.2a.249.249,0,0,1,.233.2"/>
    <path id="Path_96757" data-name="Path 96757" d="M48.23,38.2c-.172-.014-.179-.015-.194-.131a4.238,4.238,0,0,0-2.706-3.584,5.34,5.34,0,0,0-1.354-.3l-.244-.033a.816.816,0,0,0-.85.462.833.833,0,0,0,.044.872.943.943,0,0,0,.826.4,2.666,2.666,0,0,1,2.567,2.453.344.344,0,0,1-.216.41,4.313,4.313,0,0,0-2.3,3.515v.009a1.349,1.349,0,0,0,.3.995.775.775,0,0,0,.561.228h.007c.509,0,.855-.393.88-1a2.712,2.712,0,0,1,2.579-2.56,1.389,1.389,0,0,0,.455-.082.839.839,0,0,0,.484-.958.853.853,0,0,0-.832-.688"/>
    <path id="Path_96758" data-name="Path 96758" d="M26.529,39.307H4.969c-1.184,0-1.712-.527-1.712-1.709V32.245q0-9.735-.012-19.469c0-.2.024-.317.077-.37s.167-.077.367-.077h.006q8.361.021,16.723.012H44.873c.493,0,.493,0,.493.479v2.64a18.164,18.164,0,0,1,3.241.909q0-5.838-.011-11.675A4.943,4.943,0,0,0,48.122,2.6,4.487,4.487,0,0,0,43.829,0Q37.17,0,30.51,0H20.9Q12.875,0,4.849,0H4.843A4.686,4.686,0,0,0,0,4.97Q.013,16.724.007,28.477v8.438l0,.349c0,.3-.006.615.012.924A4.5,4.5,0,0,0,1.14,40.959a4.678,4.678,0,0,0,3.677,1.61h.005q7.038,0,14.076,0h5.414q2.3,0,4.61,0a16.547,16.547,0,0,1-2.393-3.257M3.261,4.829A1.423,1.423,0,0,1,4.832,3.264q19.512,0,39.026,0a1.4,1.4,0,0,1,1.5,1.483c.005.537,0,1.073,0,1.61,0,.747,0,1.519.014,2.28A.528.528,0,0,1,45.3,9c-.056.057-.173.083-.38.083h-.006q-6.355-.014-12.71-.011H3.736c-.481,0-.481,0-.481-.456V7.673c0-.948,0-1.9.006-2.844" fill="#1a73e9"/>
  </g>
</svg>
