<svg xmlns="http://www.w3.org/2000/svg" width="55.356" height="51.817" viewBox="0 0 55.356 51.817">
  <g id="Group_35450" data-name="Group 35450" transform="translate(0 0)">
    <g id="Group_35451" data-name="Group 35451" transform="translate(0 0)">
      <path id="Path_96569" data-name="Path 96569" d="M24.558,6.853c0,.753.013,1.5,0,2.258a1.461,1.461,0,0,1-1.2,1.532A17.163,17.163,0,0,0,18.108,12.8a1.38,1.38,0,0,1-1.966-.241c-.976-.951-1.919-1.934-2.894-2.886-1.177-1.151-2.172-1.127-3.331.055-.133.134-.267.265-.4.4A1.905,1.905,0,0,0,9.492,13.1c.967,1,1.962,1.962,2.937,2.947a1.48,1.48,0,0,1,.273,2.19,16.972,16.972,0,0,0-2.023,4.928c-.232,1.05-.662,1.358-1.731,1.363-1.387.006-2.774,0-4.162,0a1.987,1.987,0,0,0-2.155,2.151,9.323,9.323,0,0,0,.032,1.057,1.887,1.887,0,0,0,2,1.847c1.41.013,2.821,0,4.232.006,1.071,0,1.49.26,1.734,1.269a17.547,17.547,0,0,0,2.262,5.353,1.417,1.417,0,0,1-.322,1.795c-.937.956-1.892,1.9-2.838,2.844-1.266,1.268-1.261,2.126.021,3.409.115.117.233.232.351.346A1.883,1.883,0,0,0,13.11,44.6c.973-.953,1.931-1.923,2.9-2.884a1.513,1.513,0,0,1,2.189-.295,11.223,11.223,0,0,0,1.3.695.948.948,0,0,1,.675,1.017c-.019.492.015.987.037,1.481.022.515-.242.635-.664.457-.519-.218-1.027-.463-1.524-.724a.774.774,0,0,0-1.064.16c-.624.672-1.28,1.314-1.932,1.958A4.579,4.579,0,0,1,8.105,46.4a5.189,5.189,0,0,1-1.941-3.685,4.4,4.4,0,0,1,1.143-3.164c.736-.792,1.5-1.563,2.282-2.3a.879.879,0,0,0,.16-1.227A29.183,29.183,0,0,1,8.5,32.966a.845.845,0,0,0-.9-.7,35.887,35.887,0,0,1-3.663-.1,4.364,4.364,0,0,1-3.92-4.347C-.015,26.459-.1,25.093.791,23.9a4.411,4.411,0,0,1,3.692-1.988c1.035,0,2.07-.017,3.1.016a.816.816,0,0,0,.876-.633c.434-1.111.881-2.219,1.362-3.311a.764.764,0,0,0-.189-1c-.712-.683-1.408-1.384-2.093-2.093a4.51,4.51,0,0,1,.014-6.558A8.5,8.5,0,0,1,9.93,6.513a4.177,4.177,0,0,1,4.761.876c.8.729,1.556,1.5,2.3,2.283a.722.722,0,0,0,.972.179c1.129-.511,2.3-.933,3.425-1.452a1.006,1.006,0,0,0,.468-.728c.051-.914,0-1.833.01-2.75A4.611,4.611,0,0,1,26.822,0a7.482,7.482,0,0,1,2.554.362,4.241,4.241,0,0,1,2.856,4.127c.031,1.058.013,2.116,0,3.174-.007.442.166.642.6.8,1.121.408,2.223.873,3.305,1.377a.756.756,0,0,0,1.035-.175c.675-.72,1.382-1.41,2.093-2.1a4.537,4.537,0,0,1,6.565,0,5.428,5.428,0,0,1,2.154,4.1c-.014,1-.1,1.065-1.025.779a2.3,2.3,0,0,0-.412-.088,1.325,1.325,0,0,1-1.368-1.205,3.115,3.115,0,0,0-2.3-2.257,1.874,1.874,0,0,0-1.886.694c-1,1-1.987,2-3,2.985a1.383,1.383,0,0,1-1.969.221,17.255,17.255,0,0,0-5.249-2.159,1.351,1.351,0,0,1-1.152-1.469c-.013-1.434.01-2.868,0-4.3a1.954,1.954,0,0,0-2.172-2.187,7.885,7.885,0,0,0-1.336.054,1.793,1.793,0,0,0-1.564,1.8c-.019.776,0,1.552,0,2.327h0" transform="translate(0 0)" fill="#1a73e9"/>
      <path id="Path_96570" data-name="Path 96570" d="M19.53,43.532c0-1.6-.033-3.2.022-4.8a2.353,2.353,0,0,1,.466-1.338Q29.847,25.544,39.725,13.73c1.268-1.518,3.654-1.585,5.464-.142,1.194.952,2.352,1.948,3.525,2.927.758.633,1.515,1.264,2.262,1.908a4.658,4.658,0,0,1,1.514,2.567A3.343,3.343,0,0,1,51.667,24q-5.126,6.1-10.22,12.216c-2.8,3.357-5.642,6.678-8.362,10.1a5.437,5.437,0,0,1-3.572,2.076c-2.682.465-5.343,1.053-8.01,1.6a1.293,1.293,0,0,1-1.72-1.307c-.031-1.715-.008-3.431-.008-5.146H19.53M44.763,28.016a4.207,4.207,0,0,0-.39-.433c-2.346-1.956-4.7-3.9-7.038-5.864-.344-.289-.583-.3-.869.066-.51.644-1.052,1.263-1.579,1.894q-5.82,6.98-11.644,13.958c-.305.366-.5.631,0,1.031q3.542,2.847,7.039,5.753c.424.352.657.264.964-.127.639-.811,1.317-1.592,1.979-2.384Q38.819,35.2,44.411,28.488c.117-.139.219-.292.352-.472m-2.448-12.9a4.9,4.9,0,0,0-.729.57c-.858,1-1.675,2.028-2.544,3.013-.391.442-.35.727.095,1.091q3.481,2.862,6.928,5.765c.394.332.615.264.911-.1.751-.932,1.538-1.835,2.3-2.758.794-.962.772-1.554-.189-2.379q-2.674-2.291-5.411-4.506a7.435,7.435,0,0,0-1.36-.692M27.671,46.01l.041-.262-5.319-4.333V47.08l5.277-1.071" transform="translate(2.782 1.789)"/>
      <path id="Path_96571" data-name="Path 96571" d="M15.606,25.459A9.467,9.467,0,0,0,20.178,33.4c.755.487.762.475.187,1.175l-.047.053c-1.178,1.435-1.207,1.47-2.636.29a11.891,11.891,0,0,1-4.5-11.958,11.765,11.765,0,0,1,7.741-9.223,12.3,12.3,0,0,1,13.225,3.047c.409.428.547.775.065,1.234a8.634,8.634,0,0,0-.819.967c-.306.4-.552.4-.887,0a9.782,9.782,0,0,0-4.4-2.92,9.649,9.649,0,0,0-11.86,5.716,12.416,12.416,0,0,0-.5,1.829,17.971,17.971,0,0,0-.141,1.857" transform="translate(1.845 1.845)" fill="#1a73e9"/>
      <path id="Path_96572" data-name="Path 96572" d="M27.312,42.408l-5.277,1.071V37.814l5.319,4.333-.041.262" transform="translate(3.141 5.391)" fill="#fff"/>
    </g>
  </g>
</svg>
