<svg xmlns="http://www.w3.org/2000/svg" width="50.847" height="54.299" viewBox="0 0 50.847 54.299">
  <g id="Group_35456" data-name="Group 35456" transform="translate(0 0)">
    <g id="Group_35457" data-name="Group 35457" transform="translate(0 0)">
      <path id="Path_96578" data-name="Path 96578" d="M49.085,34.863c-1.034-2.223-2.239-4.408-3.4-6.522l-1.376-2.512c-1.261-2.315-2.565-4.707-4-6.97a4.1,4.1,0,0,0-2.779-2.043,4.446,4.446,0,0,0-3.523,1.248.723.723,0,0,1-.514.069c-2.053-1.414-3.708-1.327-5.533.3-.322.285-.428.255-.788-.012a3.934,3.934,0,0,0-5.182.175c-.1.087-.214.166-.345.262l0,0-.026-.039c-.125-.186-.239-.356-.342-.533-.318-.547-.628-1.1-.938-1.655-.664-1.19-1.352-2.421-2.128-3.571a4.273,4.273,0,0,0-5.584-1.3,4.258,4.258,0,0,0-2.237,5.248,17.58,17.58,0,0,0,1.36,2.861l.065.117q1.995,3.62,4,7.231,2.208,3.98,4.406,7.963A17.685,17.685,0,0,1,21,36.87c.078.182.159.372.243.568l-.392-.058c-.528-.08-.964-.146-1.4-.183-.587-.051-1.174-.1-1.762-.159-2.022-.184-4.115-.375-6.179-.457a5.247,5.247,0,0,0-2.478.764,3.374,3.374,0,0,0-1.767,3.307,2.83,2.83,0,0,0,2.144,2.622,34.036,34.036,0,0,0,4.783,1.139,18.264,18.264,0,0,1,8.377,3.232c1.152.871,2.361,1.841,3.8,3.057a9.138,9.138,0,0,0,5.966,2.286,9.524,9.524,0,0,0,2.365-.306c4.673-1.195,8.87-3.864,12.833-8.157a8.244,8.244,0,0,0,1.548-9.663m-24.967,5.11a1.692,1.692,0,0,0,.143-1.66A41.788,41.788,0,0,0,20.329,30c-.386-.681-.773-1.362-1.149-2.049-1.137-2.075-2.29-4.14-3.443-6.205q-1.333-2.388-2.659-4.78a1.952,1.952,0,0,1,2.347-2.92,3.387,3.387,0,0,1,1.186,1.235q3.266,5.765,6.482,11.557L25,30.254c.112.2.227.4.347.591a1.383,1.383,0,0,0,.918.683.955.955,0,0,0,.784-.245,1.737,1.737,0,0,0,.487-1.557,7.25,7.25,0,0,0-.768-1.579c-.1-.172-.2-.343-.3-.516q-.529-.96-1.064-1.915c-.609-1.093-1.218-2.187-1.815-3.287A1.432,1.432,0,0,1,24,20.3a1.375,1.375,0,0,1,1.065-.161,1.8,1.8,0,0,1,1.061.888c.849,1.483,1.675,2.979,2.5,4.475l1.161,2.1a6.1,6.1,0,0,0,.325.557,1.278,1.278,0,1,0,2.2-1.3q-.834-1.529-1.687-3.05l-.783-1.4c-.076-.134-.152-.268-.22-.4a1.436,1.436,0,1,1,2.466-1.473c.334.517.63,1.079.917,1.62.155.294.31.586.472.877l.169.3c.382.683.765,1.368,1.174,2.036.5.817,1.1,1.03,1.8.632.722-.412.856-1.067.4-1.947-.16-.3-.327-.6-.5-.9-.265-.471-.537-.957-.764-1.449-.435-.949-.293-1.655.427-2.1.442-.271,1.137-.506,2.056.6a4.728,4.728,0,0,1,.525.738l1.6,2.874c1.846,3.314,3.755,6.74,5.579,10.138a14.148,14.148,0,0,1,1.293,3.51,5.367,5.367,0,0,1-1.176,4.9c-3.572,4-7.321,6.542-11.459,7.777a6.5,6.5,0,0,1-6.687-1.523A27.727,27.727,0,0,0,21.43,43.9a26.9,26.9,0,0,0-7.008-2.016c-.516-.1-1.033-.2-1.548-.3l-.386-.077a12.447,12.447,0,0,1-2.071-.536c-.387-.152-.63-.389-.65-.636-.017-.227.157-.466.48-.653a7.069,7.069,0,0,1,1.787-.64c.239-.064.471-.124.687-.191l2.878.435c2.346.353,4.609.693,6.867,1.06a1.729,1.729,0,0,0,1.654-.367" transform="translate(0.847 1.311)" fill="#1a73e9"/>
      <path id="Path_96579" data-name="Path 96579" d="M9.45,26.943a1.655,1.655,0,0,0,.77-.308,3.267,3.267,0,0,1,.335-.183l.26-.116-.122-.258c-.049-.106-.095-.213-.142-.32a4.74,4.74,0,0,0-.413-.811.989.989,0,0,0-.543-.327c-.058-.02-.117-.039-.171-.063A11.435,11.435,0,0,1,2.932,10.242a10.936,10.936,0,0,1,9.721-7.813A10.984,10.984,0,0,1,23.64,7.822a10.783,10.783,0,0,1,1.54,8.256,1.654,1.654,0,0,0,.118,1.236,1.117,1.117,0,0,0,.751.461,1.094,1.094,0,0,0,.868-.144,1.642,1.642,0,0,0,.561-1.126c.094-.592.143-1.181.2-1.864.026-.31.054-.64.087-.994l0-.036-.006-.036c-.041-.255-.079-.532-.121-.824a21.8,21.8,0,0,0-.394-2.257,13.819,13.819,0,0,0-6.82-8.821A13.564,13.564,0,0,0,9.526.729,13.26,13.26,0,0,0,.194,11.7c-.878,5.675,1.222,10.444,6.071,13.791A13.235,13.235,0,0,0,9.259,26.91a.538.538,0,0,0,.191.033" transform="translate(0 0)"/>
      <path id="Path_96580" data-name="Path 96580" d="M12.4,6.542A6.991,6.991,0,0,1,19.915,11.2l.049.138c.2.55.494,1.385,1.473,1.1a1.117,1.117,0,0,0,.72-.532,1.863,1.863,0,0,0-.048-1.419l-.046-.153a3.207,3.207,0,0,0-.106-.323,9.266,9.266,0,0,0-10.51-5.647A9.137,9.137,0,0,0,4.2,13.4c0,.108,0,.217-.007.325a5.267,5.267,0,0,0,.013.76,8.6,8.6,0,0,0,3.525,6.168.787.787,0,0,0,.48.135,3.234,3.234,0,0,0,.5-.055,3.283,3.283,0,0,1,.368-.046l.28-.011-.012-.28c0-.116,0-.236,0-.354a2.365,2.365,0,0,0-.1-.934,1.611,1.611,0,0,0-.543-.622,3.167,3.167,0,0,1-.25-.217A6.782,6.782,0,0,1,6.433,13.56,6.989,6.989,0,0,1,12.4,6.542" transform="translate(0.489 0.489)"/>
    </g>
  </g>
</svg>
