<svg id="Group_35619" data-name="Group 35619" xmlns="http://www.w3.org/2000/svg" width="69.327" height="51.926" viewBox="0 0 69.327 51.926">
  <g id="Group_35620" data-name="Group 35620">
    <path id="Path_96759" data-name="Path 96759" d="M48.506,22.342c-1.726-1.743-3.578-3.593-5.664-5.657a1.855,1.855,0,0,0-2.571-.056,1.8,1.8,0,0,0,0,2.651c1.282,1.3,2.8,2.829,4.343,4.35a.516.516,0,0,1,.044.047c-.011.009-.021.023-.036.037-.869.852-1.732,1.715-2.593,2.578l-1.641,1.639a2.408,2.408,0,0,0-.774,1.487l.008.121.036.075c.033.071.064.145.11.257a2.621,2.621,0,0,0,.357.674,1.77,1.77,0,0,0,1.294.679l.1,0a1.885,1.885,0,0,0,1.321-.562c1.722-1.7,3.587-3.562,5.7-5.691a1.809,1.809,0,0,0-.027-2.631" transform="translate(6.611 2.693)"/>
    <path id="Path_96760" data-name="Path 96760" d="M31.315,24l-.167-.167c-.035-.035-.077-.076-.114-.114.042-.044.091-.093.135-.138l1.265-1.263q1.4-1.4,2.8-2.8a3.067,3.067,0,0,0,.541-.68,1.76,1.76,0,0,0-.037-1.765,1.812,1.812,0,0,0-1.3-.873l-.17-.287-.372.217c-.1.061-.215.116-.338.177a3.03,3.03,0,0,0-.8.518c-1.249,1.219-2.5,2.476-3.717,3.692l-1.645,1.644A2.206,2.206,0,0,0,26.6,23.71a2.229,2.229,0,0,0,.8,1.561l3.917,3.923c.485.49.973.979,1.468,1.461a2.029,2.029,0,0,0,1.41.6,1.853,1.853,0,0,0,.212-.013,1.767,1.767,0,0,0,1.3-.831A1.819,1.819,0,0,0,35.3,27.97Q33.309,25.978,31.315,24" transform="translate(4.439 2.655)"/>
    <path id="Path_96761" data-name="Path 96761" d="M40.875,51.926A25.963,25.963,0,1,1,66.838,25.963,25.992,25.992,0,0,1,40.875,51.926m0-47.842A21.879,21.879,0,1,0,62.754,25.963,21.9,21.9,0,0,0,40.875,4.084" transform="translate(2.489)" fill="#1a73e9"/>
    <path id="Path_96762" data-name="Path 96762" d="M6.4,17.251A2.625,2.625,0,1,1,6.4,12h18.67a2.625,2.625,0,0,1,0,5.251Z" transform="translate(0.63 2.003)"/>
    <path id="Path_96763" data-name="Path 96763" d="M25.194,13a1.75,1.75,0,0,1,0,3.5H6.524a1.75,1.75,0,0,1,0-3.5Zm0-1.75H6.524a3.5,3.5,0,1,0,0,7h18.67a3.5,3.5,0,1,0,0-7" transform="translate(0.504 1.877)" fill="#fff"/>
    <path id="Path_96764" data-name="Path 96764" d="M3.375,33.251a2.625,2.625,0,1,1,0-5.251h18.67a2.625,2.625,0,1,1,0,5.251Z" transform="translate(0.125 4.673)"/>
    <path id="Path_96765" data-name="Path 96765" d="M22.171,29a1.75,1.75,0,0,1,0,3.5H3.5a1.75,1.75,0,0,1,0-3.5Zm0-1.75H3.5a3.5,3.5,0,0,0,0,7h18.67a3.5,3.5,0,0,0,0-7" transform="translate(0 4.548)" fill="#fff"/>
    <path id="Path_96766" data-name="Path 96766" d="M7.4,25.251A2.625,2.625,0,1,1,7.4,20h18.67a2.625,2.625,0,0,1,0,5.251Z" transform="translate(0.797 3.338)"/>
    <path id="Path_96767" data-name="Path 96767" d="M26.194,21a1.75,1.75,0,0,1,0,3.5H7.524a1.75,1.75,0,1,1,0-3.5Zm0-1.75H7.524a3.5,3.5,0,1,0,0,7h18.67a3.5,3.5,0,0,0,0-7" transform="translate(0.671 3.212)" fill="#fff"/>
  </g>
</svg>
