<svg xmlns="http://www.w3.org/2000/svg" width="44.808" height="57.129" viewBox="0 0 44.808 57.129">
  <g id="Group_35611" data-name="Group 35611" transform="translate(0.202 0.198)">
    <g id="Group_35612" data-name="Group 35612" transform="translate(0 0)">
      <path id="Path_96746" data-name="Path 96746" d="M35.995,20.84a.863.863,0,0,0-.6-.17c-.789.014-1.581.015-2.369.01-.643,0-1.287,0-1.931,0-.263,0-.3-.03-.324-.277a3.814,3.814,0,0,0-4.356-3.273,3.859,3.859,0,0,0-3.133,3.2c-.044.326-.106.354-.375.343-.812-.026-1.644-.025-2.471.007-.165,0-.269-.011-.309-.053s-.061-.1-.056-.3c.016-.673.015-1.349.012-2.024,0-.48,0-.961,0-1.441a.687.687,0,0,0-.166-.521.589.589,0,0,0-.5-.149c-.4.014-.8.011-1.272,0a1.57,1.57,0,0,1-1.63-1.569,1.608,1.608,0,0,1,1.631-1.584l.162,0c.346-.01.7-.016,1.048.005a.706.706,0,0,0,.549-.144.741.741,0,0,0,.176-.574c-.014-.841-.011-1.682-.008-2.523V9.016h.007l0-1.189c0-.844,0-1.687.01-2.532a.744.744,0,0,0-.172-.562.7.7,0,0,0-.553-.157c-.406.015-.812.014-1.219.008l-.729,0A17.1,17.1,0,0,0,6.966,8.11,17.057,17.057,0,0,0,.178,19.668,17.206,17.206,0,0,0,3.293,32.275,23.985,23.985,0,0,0,8.136,37l.278.225c1.427,1.149,1.427,1.149,1.423,2.97a.578.578,0,0,1-.341.577,2.823,2.823,0,0,0,.2,5.044c.23.12.258.174.209.421a2.421,2.421,0,0,0,.874,2.621,2.834,2.834,0,0,1,1.253,1.959,1.118,1.118,0,0,0,.059.2,6.5,6.5,0,0,0,5.978,4.062,5.8,5.8,0,0,0,1.438-.179,6.336,6.336,0,0,0,4.875-4.9,1.015,1.015,0,0,1,.514-.729,2.749,2.749,0,0,0,1.394-3c-.048-.267-.016-.327.24-.463a2.97,2.97,0,0,0,1.616-2.373,2.656,2.656,0,0,0-1.1-2.362,1.549,1.549,0,0,1-.709-1.611,1.666,1.666,0,0,0,0-.3.831.831,0,0,1,.01-.278l.018-.064a1.455,1.455,0,0,1,.293-.637c.635-.556,1.3-1.1,1.941-1.631.38-.312.761-.624,1.138-.94a17.477,17.477,0,0,0,6.452-14.172.822.822,0,0,0-.187-.592M10.871,42.567a1.251,1.251,0,0,1,.327-.018l13.583,0h.12c.1,0,.207,0,.309.005a.732.732,0,0,1,.706.691.688.688,0,0,1-.707.666c-.882.015-1.761.014-2.644.01h-11.4a1.159,1.159,0,0,1-.436-.046.651.651,0,0,1-.463-.7.675.675,0,0,1,.605-.6m1.791,3.572a.883.883,0,0,1,.207-.018H13q5.105,0,10.214,0c.274,0,.913.067.916.686a.6.6,0,0,1-.168.446,1.036,1.036,0,0,1-.743.241c-1.223,0-2.447,0-3.668,0h-2.7q-1.84,0-3.684,0l-.132,0a1.772,1.772,0,0,1-.379-.02.659.659,0,0,1-.6-.642c-.01-.361.187-.589.605-.7M17.457,6.777c.21,0,.334.025.382.076a.467.467,0,0,1,.046.319,11.164,11.164,0,0,0-.018,1.148c0,.164.007.327.007.491s0,.331,0,.5c-.005.388-.008.791.011,1.189.014.275-.011.333-.334.382a3.775,3.775,0,0,0-1.066,7.162,4.136,4.136,0,0,0,1.178.333c.214.031.232.067.226.256-.019.725-.022,1.28-.007,1.8,0,.151-.023.2-.037.209s-.049.057-.206.038c-.851-.012-1.736-.011-2.633.005-.228.016-.279-.019-.316-.289a3.894,3.894,0,0,0-3.146-3.258,3.8,3.8,0,0,0-4.025,2.154,3.871,3.871,0,0,0-.328,1.123c-.034.256-.082.26-.274.273-.717-.007-1.449-.011-2.207-.011-.71,0-1.445,0-2.211.01-.189,0-.207-.034-.211-.038s-.034-.05-.008-.241A15.246,15.246,0,0,1,11.209,8.145a14.427,14.427,0,0,1,6.24-1.368ZM2.245,22.927c.011-.014.059-.052.233-.052H2.5c.755.016,1.51.014,2.265.01H5.839v-.011l.657,0c.686-.007,1.4-.011,2.092.015A.824.824,0,0,0,9.2,22.7a.8.8,0,0,0,.161-.62,11.587,11.587,0,0,1,.005-1.209,1.573,1.573,0,0,1,1.572-1.561h.019a1.569,1.569,0,0,1,1.555,1.543c.018.489.018.921,0,1.322a.69.69,0,0,0,.15.527.737.737,0,0,0,.54.174c.627-.007,1.253,0,1.875,0,.81,0,1.619,0,2.427-.011a.453.453,0,0,1,.335.063.472.472,0,0,1,.056.32c-.03.71-.034,1.471-.01,2.472.005.258-.018.307-.309.352A3.772,3.772,0,0,0,16.5,33.249a4.589,4.589,0,0,0,1.174.327c.195.031.207.055.207.219-.008,2.106-.014,4.21,0,6.315,0,.143-.029.184-.038.194-.041.041-.206.035-.281.04-1.753,0-3.5-.007-5.253.01H12.3c-.164,0-.215-.027-.233-.045s-.044-.07-.038-.222c.011-.318.01-.635.008-.951,0-.372-.005-.741.014-1.112a1.238,1.238,0,0,0-.529-1.115c-1.026-.815-2.109-1.693-3.51-2.847A15.245,15.245,0,0,1,2.6,25.467c-.109-.5-.183-1.013-.254-1.513-.038-.262-.075-.525-.117-.786-.029-.172,0-.226.012-.241m21.911,15c-.046.631-.035,1.272-.023,1.89l.005.3c0,.14-.025.181-.035.192a.265.265,0,0,1-.177.034c-1.344-.01-2.532-.007-3.634.008-.153-.011-.17-.025-.179-.033s-.04-.075-.038-.243c.005-.992,0-1.987,0-2.981v-.838h.007v-1.3c0-.936-.005-1.874.01-2.809a.768.768,0,0,0-.165-.567.782.782,0,0,0-.575-.187l-.179,0a6.5,6.5,0,0,1-1.738-.181,1.425,1.425,0,0,1-.913-1.649A1.653,1.653,0,0,1,18,28.248a9.767,9.767,0,0,1,1.31,0,.741.741,0,0,0,.59-.146.819.819,0,0,0,.191-.639c-.01-.669-.008-1.34-.007-2.009,0-.728,0-1.454-.01-2.181,0-.183.016-.293.061-.338a.411.411,0,0,1,.319-.061c.777.015,1.554.011,2.333.012.639,0,1.276,0,1.912.005a.809.809,0,0,0,.6-.188.731.731,0,0,0,.149-.571c-.026-.333-.019-.677-.012-1.011l0-.142a1.586,1.586,0,0,1,1.6-1.671A1.608,1.608,0,0,1,28.6,20.965v.164c.015,1.656.113,1.754,1.745,1.754h.883c.788,0,1.574,0,2.362-.016a.381.381,0,0,1,.308.06c.041.045.053.161.035.343a15.255,15.255,0,0,1-5.3,10.368c-.7.612-1.439,1.212-2.151,1.792-.632.515-1.263,1.03-1.882,1.559a1.452,1.452,0,0,0-.444.931M15.109,51.607a3.32,3.32,0,0,1-1.058-1.863H22.11c-.124,1.434-2.038,3.022-3.831,3.117a4.306,4.306,0,0,1-3.17-1.254" transform="translate(0 1.66)" fill="#1a73e9" stroke="#1a73e9" stroke-width="0.4"/>
      <path id="Path_96747" data-name="Path 96747" d="M25.89,2.106c.109.022.218.038.326.05l2.411,1.61q3.629,2.419,7.244,4.856c.258.173.443.357.12.844q-2,3.009-4.014,6.008l-1.452,2.167c-.034.052-.116.174-.555.284-.046.011-.093.025-.138.04a.588.588,0,0,1-.07-.04c-.211-.138-.418-.279-.627-.423-.432-.3-.9-.617-1.423-.913a4.785,4.785,0,0,0,.481-1.8,2.971,2.971,0,0,0-1.843-2.962c-.213-.082-.428-.161-.643-.239l-.131-.046a2.012,2.012,0,0,0-.62-.121l-.166,0a3.377,3.377,0,0,0-2.775,1.311l-.574-.386c-.342-.232-.684-.424-.987-.593-.165-.091-.328-.183-.488-.279q-.27-.166-.511-.319.309-.462.613-.924a3.375,3.375,0,0,0-.029-3.868,4.85,4.85,0,0,0-.4-.526c0-.045-.01-.089-.014-.131a3.586,3.586,0,0,1,.213-1.217.547.547,0,0,1,.421-.433h.117c.189-.008.38-.016.57-.016a1.746,1.746,0,0,1,.786.121,2.449,2.449,0,0,0,1.144.288,2.392,2.392,0,0,0,1.99-1.088l.05-.072a4.48,4.48,0,0,0,.333-.53,1.228,1.228,0,0,1,.641-.652M25.936,0a3.187,3.187,0,0,0-2.5,1.821,3.807,3.807,0,0,1-.259.391.366.366,0,0,1-.3.191.411.411,0,0,1-.192-.053,3.623,3.623,0,0,0-1.738-.356c-.218,0-.438.008-.656.018l-.08-.027a2.627,2.627,0,0,0-2.3,1.815,5.611,5.611,0,0,0-.331,2.031,3.125,3.125,0,0,1,.031.451c.027.521.461.8.71,1.191a1.354,1.354,0,0,1,.037,1.637c-.459.7-.93,1.393-1.4,2.088-.176.262-.241.5.048.732A19.217,19.217,0,0,0,18.9,13.221c.458.278.946.517,1.393.819.563.382,1.13.758,1.7,1.135a.812.812,0,0,0,.41.176.281.281,0,0,0,.207-.091c.274-.285.646-.491.8-.878a1.362,1.362,0,0,1,1.378-.916l.089,0c.244.087.488.174.729.269a.954.954,0,0,1,.544.946,5.685,5.685,0,0,1-.808,2.051c-.083.183-.275.326-.184.563a2.846,2.846,0,0,0,.871.726,19.2,19.2,0,0,1,2.617,1.614,2.2,2.2,0,0,0,1.221.384,2.291,2.291,0,0,0,.517-.061l.08-.053a2.809,2.809,0,0,0,1.758-1.13q2.735-4.089,5.468-8.179a2.508,2.508,0,0,0-.676-3.669C33.64,4.641,30.238,2.387,26.847.12a1.5,1.5,0,0,1-.219.016A2.063,2.063,0,0,1,25.936,0" transform="translate(6.103)" stroke="#000" stroke-width="0.4"/>
    </g>
  </g>
</svg>
