<svg id="Group_34678" data-name="Group 34678" xmlns="http://www.w3.org/2000/svg" width="90.15" height="16.981" viewBox="0 0 90.15 16.981">
  <path id="Path_83391" data-name="Path 83391" d="M.421,14.458V2.524L2.43.452h7.758l1.994,2.072V6.792H7.945V4.845H4.673v7.291H7.945V10.188h4.237v4.27l-1.994,2.071H2.43ZM2.274,0,0,2.352V14.628l2.274,2.353h8.069l2.274-2.353V9.752H7.524V11.7H5.094V5.281h2.43V7.229h5.094V2.352L10.344,0Z" fill="#fff"/>
  <path id="Path_83392" data-name="Path 83392" d="M15.928,4.845h3.333V6.294H15.928Zm-.437,1.884H19.7V4.392H15.491Zm-4.844,5.408h.95V2.524L13.654.452h7.9l2.041,2.072v9.612h.95v4.392H18.311V12.137h.95V10.688H15.928v1.449h.965v4.392H10.647ZM13.482,0,11.16,2.352V11.7h-.965v5.281H17.33V11.7h-.966v-.577h2.462V11.7h-.95v5.281h7.1V11.7h-.949V2.352L21.723,0Z" transform="translate(3.358)" fill="#fff"/>
  <path id="Path_83393" data-name="Path 83393" d="M33.282.452h5.25V4.845h-.981v7.291h.981v4.392h-6.34V12.137h.965V7.15L30.493,9.829,27.831,7.15v4.986H28.8v4.392h-6.34V12.137h.981V4.845h-.981V.452H27.69l2.8,2.8ZM33.127,0,30.493,2.633,27.861,0H22.019V5.281h.966V11.7h-.966v5.281h7.229V11.7h-.982V8.21l2.228,2.228L32.721,8.21V11.7H31.74v5.281h7.244V11.7H38V5.281h.981V0Z" transform="translate(7.252)" fill="#fff"/>
  <path id="Path_83394" data-name="Path 83394" d="M41.155,4.845h3.318V6.294H41.155Zm-.436,1.884H44.91V4.392H40.719ZM35.921.452h10.81l2.026,2.072V8.6l-2.026,2.088H41.155v1.449h.95v4.392H35.921V12.137h.949V4.845h-.949ZM35.484,0V5.281h.95V11.7h-.95v5.281h7.057V11.7h-.95v-.577h5.3l2.305-2.352V2.352L46.887,0Z" transform="translate(11.686)" fill="#fff"/>
  <path id="Path_83395" data-name="Path 83395" d="M54.616.452h6.232V4.845H59.9v9.612l-2.041,2.071h-7.9L47.9,14.458V4.845h-.952V.452H53.2V4.845h-.966v7.291h3.334V4.845h-.95ZM54.18,0V5.281h.95V11.7H52.668V5.281h.966V0H46.5V5.281h.965v9.347l2.321,2.353h8.241l2.306-2.353V5.281h.949V0Z" transform="translate(15.314)" fill="#fff"/>
  <path id="Path_83396" data-name="Path 83396" d="M63.417,11.123h2.431V11.7H63.417Zm0-5.841h2.431v.561H63.417ZM58.744,8.6V2.524L60.754.452h7.758l1.994,2.072V5.811H66.268V4.845H63V6.294h5.514l1.994,2.071v6.092l-1.994,2.071H60.754l-2.01-2.071V11.169H63v.968h3.27V10.688H60.754ZM60.6,0,58.324,2.352V8.771l1.885,1.947H58.324v3.91L60.6,16.981h8.069l2.274-2.353V8.194l-1.869-1.93h1.869V2.352L68.668,0Z" transform="translate(19.208)" fill="#fff"/>
  <path id="Path_83397" data-name="Path 83397" d="M2.489,1.018.995,2.578V13.731l1.494,1.561H9.46l1.509-1.562V10.771H8.519v1.946H3.445V3.593H8.519V5.54h2.45V2.578L9.46,1.018Z" transform="translate(0.328 0.335)" fill="#fff"/>
  <path id="Path_83398" data-name="Path 83398" d="M12.163,12.716h-.95v2.575h4.429V12.716h-.95V9.434h5.135v3.282h-.949v2.575h4.429V12.716h-.966V2.579L20.832,1.018H13.7L12.163,2.58Zm3.4-8.237h3.391V5.971H15.564Z" transform="translate(3.693 0.335)" fill="#fff"/>
  <path id="Path_83399" data-name="Path 83399" d="M30.159,8.2l3.58-3.6v8.121h-.981v2.574H37.28V12.717h-.965V3.593h.965V1.018H33.344l-3.184,3.2-3.2-3.2H23.038V3.593H24v9.125h-.965v2.574H27.56V12.717h-.981V4.6Z" transform="translate(7.587 0.335)" fill="#fff"/>
  <path id="Path_83400" data-name="Path 83400" d="M47.525,2.579,46.016,1.018H36.49V3.592h.95v9.125h-.95v2.575h4.383V12.716h-.95V9.434h6.095l1.507-1.546ZM44.171,5.971H40.8V4.48h3.375Z" transform="translate(12.017 0.335)" fill="#fff"/>
  <path id="Path_83401" data-name="Path 83401" d="M58.646,3.593h.966V1.018H55.183V3.593h.949v9.125H51V3.593h.95V1.018H47.518V3.593h.95V13.729L50,15.292h7.132l1.509-1.562Z" transform="translate(15.649 0.335)" fill="#fff"/>
  <path id="Path_83402" data-name="Path 83402" d="M69.294,8.406,67.786,6.86H61.77V3.593h5.073v.981h2.451V2.58L67.785,1.018H60.812L59.318,2.578V7.889l1.493,1.545h6.031v3.283H61.77v-.981H59.318v2l1.494,1.561h6.972l1.509-1.562Z" transform="translate(19.535 0.335)" fill="#fff"/>
</svg>
