<svg xmlns="http://www.w3.org/2000/svg" width="47.34" height="47.529" viewBox="0 0 47.34 47.529">
  <g id="Group_35603" data-name="Group 35603" transform="translate(-0.001 0)">
    <g id="Group_35604" data-name="Group 35604" transform="translate(0 0)">
      <path id="Path_96744" data-name="Path 96744" d="M43.911,18.579a2.627,2.627,0,0,0-1.243-4.209,10.316,10.316,0,0,0-1.6-.294c-.187-.025-.372-.049-.558-.076q-4.978-.729-9.958-1.446a.832.832,0,0,1-.674-.493L24.73,1.616A2.613,2.613,0,0,0,22.263,0a2.579,2.579,0,0,0-2.47,1.607L18.009,5.223q-1.6,3.242-3.191,6.487a1.237,1.237,0,0,1-1.263.893h-.019a1.388,1.388,0,0,0-.249.039c-.07.015-.14.03-.208.04l-3,.433q-3.8.549-7.6,1.1a2.811,2.811,0,0,0-1.726.812A2.672,2.672,0,0,0,0,16.931,2.789,2.789,0,0,0,.88,18.9q2.448,2.354,4.873,4.731,1.685,1.644,3.374,3.282a1.106,1.106,0,0,1,.36,1.074c-.23,1.282-.448,2.566-.666,3.851l-.553,3.225c-.258,1.492-.516,2.985-.754,4.479A2.459,2.459,0,0,0,8.627,42.1a2.54,2.54,0,0,0,2.752.187c.33-.163.656-.335.98-.509l1.7-.9q3.025-1.588,6.051-3.175c-.125-.746-.234-1.466-.344-2.186l-.088-.57L10.2,39.931l.06-.772A1.47,1.47,0,0,1,10.274,39l.965-5.639q.458-2.661.919-5.316a2.807,2.807,0,0,0-.9-2.733c-.237-.217-.466-.443-.694-.67l-.321-.316-7.578-7.4.8-.168c.081-.017.138-.029.2-.037L14.711,15.1a2.644,2.644,0,0,0,2.124-1.537L21.312,4.49c.138-.279.279-.558.427-.85l.48-.952.35.573c.085.135.11.174.131.217l2.85,5.772c.727,1.477,1.455,2.955,2.194,4.426a2.463,2.463,0,0,0,1.931,1.4c2.458.369,4.918.722,7.375,1.079l4.783.708-2.544,2.646,2.687,1.1c.148-.153.3-.308.458-.465.495-.5,1.006-1.016,1.476-1.566" transform="translate(0 -0.001)"/>
      <path id="Path_96745" data-name="Path 96745" d="M30.331,43.525a13.945,13.945,0,0,1-1.876-.127,1.481,1.481,0,0,1-1.287-1.2c-.1-.483-.2-.938-.328-1.381A3.42,3.42,0,0,0,25.2,38.694a3.562,3.562,0,0,0-2.775-.22l-.367.11c-.186.055-.361.107-.528.163a1.424,1.424,0,0,1-1.659-.512A14,14,0,0,1,17.994,34.8a1.479,1.479,0,0,1,.4-1.7c.277-.249.552-.518.808-.771a3.357,3.357,0,0,0-.046-4.885l-.169-.161c-.224-.211-.455-.427-.68-.673a1.578,1.578,0,0,1-.328-1.531,13.813,13.813,0,0,1,1.89-3.5,1.42,1.42,0,0,1,1.631-.512l.339.1c.3.092.592.179.876.25a3.345,3.345,0,0,0,4.138-2.484c.113-.45.223-.889.319-1.328a1.447,1.447,0,0,1,1.261-1.178,13.64,13.64,0,0,1,3.8,0,1.429,1.429,0,0,1,1.224,1.1c.065.232.123.463.179.688a9.683,9.683,0,0,0,.443,1.455,3.278,3.278,0,0,0,3.676,1.782c.218-.054.441-.118.676-.187s.495-.144.757-.209a1.544,1.544,0,0,1,1.553.495,13.434,13.434,0,0,1,1.933,3.526c.012.034.024.066.04.113l.234.688-.442.537a2.928,2.928,0,0,1-.2.235c-.147.151-.3.294-.438.432a9.015,9.015,0,0,0-.735.762,3.353,3.353,0,0,0,.325,4.49l.047.044c.279.262.567.532.845.831a1.543,1.543,0,0,1,.32,1.512,13.211,13.211,0,0,1-1.9,3.515,1.414,1.414,0,0,1-1.594.512c-.193-.052-.381-.108-.562-.162a7.491,7.491,0,0,0-1.1-.274,3.343,3.343,0,0,0-3.722,2.559c-.091.364-.208.843-.31,1.327A1.462,1.462,0,0,1,32.213,43.4a13.97,13.97,0,0,1-1.882.128m-1-2.384a11.729,11.729,0,0,0,1.984,0c.071-.305.141-.59.2-.827A5.654,5.654,0,0,1,37.824,36a9.28,9.28,0,0,1,1.425.341,10.88,10.88,0,0,0,1.018-1.9c-.118-.116-.242-.23-.367-.349l-.047-.045a5.661,5.661,0,0,1-.538-7.677,10.781,10.781,0,0,1,.924-.969l.031-.031a11.1,11.1,0,0,0-1.029-1.9l-.152.044c-.25.073-.508.148-.779.214a5.633,5.633,0,0,1-6.381-3.129,11.547,11.547,0,0,1-.564-1.812c-.01-.036-.019-.072-.027-.107a11.235,11.235,0,0,0-2.005,0c-.066.275-.136.549-.206.827A5.7,5.7,0,0,1,22.152,23.7c-.258-.065-.508-.137-.752-.211a11.51,11.51,0,0,0-1.018,1.9l.215.206.179.169A5.7,5.7,0,0,1,20.853,34c-.151.149-.309.3-.471.46A11.668,11.668,0,0,0,21.4,36.337h0l.335-.1a5.872,5.872,0,0,1,4.588.4A5.745,5.745,0,0,1,29.1,40.181c.09.321.167.643.239.96m.987-6.659h-.039a4.364,4.364,0,0,1-3.154-1.389,4.632,4.632,0,0,1,.069-6.435,4.4,4.4,0,0,1,3.141-1.318h.045a4.506,4.506,0,0,1,4.4,4.574,4.625,4.625,0,0,1-1.376,3.3,4.374,4.374,0,0,1-3.087,1.272m.019-6.8a2.079,2.079,0,0,0-1.482.627,2.251,2.251,0,0,0-.653,1.573,2.278,2.278,0,0,0,.624,1.6,2.043,2.043,0,0,0,1.474.658h.019a2.044,2.044,0,0,0,1.444-.6,2.306,2.306,0,0,0,.679-1.642,2.187,2.187,0,0,0-2.083-2.217Z" transform="translate(4.392 4.003)" fill="#1a73e8"/>
    </g>
  </g>
</svg>
