<svg xmlns="http://www.w3.org/2000/svg" width="38.769" height="49.428" viewBox="0 0 38.769 49.428">
  <g id="Group_35515" data-name="Group 35515" transform="translate(0.001)">
    <g id="Group_35516" data-name="Group 35516" transform="translate(0 0)">
      <path id="Path_96638" data-name="Path 96638" d="M38.769,5.335A5.151,5.151,0,0,0,33.451,0Q26.426,0,19.4,0T5.351.006A5.1,5.1,0,0,0,.014,5.313Q-.005,12.536,0,19.761v4.6l0,5q0,7.5.009,14.994A5.125,5.125,0,0,0,5.13,49.42q3.363.014,6.719.006h3.764q9.03,0,18.062-.02a5.134,5.134,0,0,0,5.083-5.2q.011-6.976,0-13.952v-5.66h.008ZM35.553,43.914a1.978,1.978,0,0,1-1.34,2.178,2.3,2.3,0,0,1-.765.117q-10.8.012-21.606.011c-.643,0-1.286-.006-1.929-.012-1.4-.009-2.859-.024-4.286.025H5.5a2.273,2.273,0,0,1-1.649-.586A2.442,2.442,0,0,1,3.2,43.833c.027-4.7.022-9.484.019-14.108L3.211,5.4A1.974,1.974,0,0,1,5.367,3.218q14,0,27.995,0a2,2,0,0,1,2.2,2.152q0,19.271-.007,38.543" transform="translate(0 0)" fill="#1a73e9"/>
      <path id="Path_96639" data-name="Path 96639" d="M29.034,10.725a1.559,1.559,0,0,0,1.352-2.264,1.621,1.621,0,0,0-1.642-.933H14.015q-3.161,0-6.326.014a1.684,1.684,0,0,0-1.231.506,1.582,1.582,0,0,0-.419,1.176A1.6,1.6,0,0,0,7.769,10.74q3.5.007,7,0H26.654l.617,0c.577,0,1.177,0,1.763-.021" transform="translate(1.09 1.36)"/>
      <path id="Path_96640" data-name="Path 96640" d="M28.748,15.056q-4.541,0-9.084,0H13.035c-1.78,0-3.558,0-5.338.015a1.647,1.647,0,0,0-1.455.782A1.633,1.633,0,0,0,7.8,18.274h.011q3.8-.005,7.595,0h2.848q4.194,0,8.387,0l.6,0c.6,0,1.223.006,1.831-.025a1.536,1.536,0,0,0,1.244-.737,1.559,1.559,0,0,0,.089-1.47,1.621,1.621,0,0,0-1.663-.988" transform="translate(1.09 2.719)"/>
      <path id="Path_96641" data-name="Path 96641" d="M11.43,22.586H9.9c-.736,0-1.472,0-2.208.008a1.6,1.6,0,0,0-1.662,1.578,1.584,1.584,0,0,0,.451,1.14,1.688,1.688,0,0,0,1.215.482q5.242.014,10.48-.006a1.611,1.611,0,0,0,1.715-1.578,1.545,1.545,0,0,0-.43-1.125,1.8,1.8,0,0,0-1.292-.49c-1.209-.009-2.417,0-3.624,0l-1.764,0v0Z" transform="translate(1.089 4.079)"/>
      <path id="Path_96642" data-name="Path 96642" d="M25.541,35.051H21.984l-.495,1.674h-3.2L22.1,26.585H25.52l3.811,10.14H26.049Zm-.649-2.192-1.119-3.646-1.109,3.646Z" transform="translate(3.303 4.802)"/>
    </g>
  </g>
</svg>
