<svg xmlns="http://www.w3.org/2000/svg" width="43.624" height="49.025" viewBox="0 0 43.624 49.025">
  <g id="Group_35554" data-name="Group 35554" transform="translate(0 0)">
    <g id="Group_35555" data-name="Group 35555" transform="translate(0 0)">
      <path id="Path_96697" data-name="Path 96697" d="M43.621,18.386c0-1.958.007-3.919-.008-5.879A8.029,8.029,0,0,0,37,4.541a16.845,16.845,0,0,0-2.874-.185c-.388,0-.776-.006-1.161-.02-.413-.014-.823-.009-1.229-.007l-.35,0A5.235,5.235,0,0,0,25.873,0C24.285.061,22.664.049,21.1.04c-1.23-.009-2.5-.017-3.756.008a5.919,5.919,0,0,0-2.29.5,4.876,4.876,0,0,0-2.8,3.78H11.121c-.953,0-1.893,0-2.836,0A8.23,8.23,0,0,0,.009,12.609C0,21.952,0,31.424.009,40.766a8.189,8.189,0,0,0,8.272,8.256q5.29,0,10.58,0,8.242,0,16.482-.009a9.205,9.205,0,0,0,1.82-.177,8.23,8.23,0,0,0,6.451-8.074q.01-7.015,0-14.034v-5.78ZM28.051,6.771a1.724,1.724,0,0,1-1.931,1.91c-1.007,0-2.015,0-3.021,0H20.509c-1.009,0-2.014,0-3.021,0a1.724,1.724,0,0,1-1.917-1.925V6.388c0-.422,0-.843,0-1.264a1.67,1.67,0,0,1,1.681-1.712c3.147-.018,6.218-.018,9.127,0A1.655,1.655,0,0,1,28.05,5.139c.009.455.006.911,0,1.365ZM40.22,28.788v11.74a4.831,4.831,0,0,1-5.089,5.115q-13.382,0-26.764,0a4.817,4.817,0,0,1-4.839-3.76,5.7,5.7,0,0,1-.118-1.23q-.01-13.979,0-27.958A4.8,4.8,0,0,1,8.355,7.747l1.355,0h2.536a5.118,5.118,0,0,0,1.494,2.892,4.837,4.837,0,0,0,3.417,1.431c3.044.011,6.191.023,9.288,0a5.034,5.034,0,0,0,4.863-4.006l.07-.314h2.2c.573,0,1.147,0,1.72,0a4.781,4.781,0,0,1,4.923,4.923q.012,4.011,0,8.019v8.1Z" transform="translate(0 0)"/>
      <path id="Path_96698" data-name="Path 96698" d="M19.8,8.5c-1.439,0-2.878,0-4.317,0a1.945,1.945,0,0,1-2.146-2.154c0-.545-.009-1.091,0-1.638a1.892,1.892,0,0,1,1.91-1.938q4.564-.028,9.13,0a1.891,1.891,0,0,1,1.9,1.951c.011.545,0,1.091,0,1.638A1.946,1.946,0,0,1,24.12,8.5c-1.439,0-2.878,0-4.317,0" transform="translate(2 0.413)" fill="#fff"/>
      <path id="Path_96699" data-name="Path 96699" d="M22.423,8.76H18.538c-1.006,0-2.015,0-3.022,0A2.174,2.174,0,0,1,13.14,6.375l0-.368c0-.424,0-.85,0-1.275a2.118,2.118,0,0,1,2.139-2.163c3.147-.02,6.221-.018,9.132,0A2.12,2.12,0,0,1,26.54,4.747c.008.46.006.919,0,1.378V6.39A2.174,2.174,0,0,1,24.15,8.758l-1.727,0M19.833,8.3h1.295c1.007,0,2.015,0,3.021,0a1.725,1.725,0,0,0,1.932-1.91l0-.267c0-.454,0-.91,0-1.365A1.655,1.655,0,0,0,24.41,3.03c-2.908-.02-5.979-.02-9.126,0A1.671,1.671,0,0,0,13.6,4.741c-.008.421-.006.843,0,1.264v.368A1.724,1.724,0,0,0,15.517,8.3c1.007,0,2.012,0,3.021,0Z" transform="translate(1.97 0.383)"/>
      <path id="Path_96700" data-name="Path 96700" d="M29.21,20.371a2.205,2.205,0,0,0-3.165-.254c-.707.561-1.409,1.129-2.111,1.7l-6.556,5.275-.618-.788c-.66-.839-1.3-1.655-1.931-2.478a2.324,2.324,0,0,0-1.969-1.061A2.185,2.185,0,0,0,11.2,26.317q1.646,2.118,3.306,4.227l.647.825a2.438,2.438,0,0,0,1.616,1.03c.072.007.144.012.216.012a2.554,2.554,0,0,0,1.587-.644q5.132-4.116,10.239-8.256a2.167,2.167,0,0,0,.4-3.141" transform="translate(1.604 2.935)" fill="#1a73e9"/>
    </g>
  </g>
</svg>
