<svg xmlns="http://www.w3.org/2000/svg" width="33.593" height="56.5" viewBox="0 0 33.593 56.5">
  <g id="Group_35510" data-name="Group 35510" transform="translate(0 0)">
    <g id="Group_35511" data-name="Group 35511" transform="translate(0 0)">
      <path id="Path_96626" data-name="Path 96626" d="M31.76,44.517l-.129-.088.034-.056a11.693,11.693,0,0,0,1.867-6.536q-.019-3.978-.012-7.952,0-2.566,0-5.133a5.007,5.007,0,0,0-.12-1.239,3.767,3.767,0,0,0-1.872-2.379,4.278,4.278,0,0,0-3.434-.223c-.216.074-.239.061-.36-.1a3.446,3.446,0,0,0-2.618-1.45,10.216,10.216,0,0,0-1.774.141c-.219.03-.444.062-.676.088a4.118,4.118,0,0,0-4.117-1.255l0-2.377c0-1.438.005-2.879,0-4.317a4.281,4.281,0,0,0-4.287-4.416h-.022a4.452,4.452,0,0,0-3.175,1.243A4.381,4.381,0,0,0,9.818,11.6q-.015,5.145,0,10.289l0,7.262-.35-.283q-.734-.591-1.465-1.185A4.739,4.739,0,0,0,5.08,26.562a4.335,4.335,0,0,0-4.224,2.3A4.863,4.863,0,0,0,1.2,34.229c2.551,3.607,5.177,7.217,7.716,10.707a.454.454,0,0,1,.05.622,2.873,2.873,0,0,0-.3,1.326c-.028,1.569-.018,3.122-.009,4.623a2.644,2.644,0,0,0,2.9,2.888h4.988q6.818,0,13.638-.006a2.671,2.671,0,0,0,2.822-2.8q.008-2.368,0-4.735a2.647,2.647,0,0,0-1.251-2.335m-1.722,6.526v.345H11.668v-4.3c.115-.006.225-.012.333-.012H16.41q6.613,0,13.225-.017c.333.015.363.044.376.058s.056.071.043.352c-.034.848-.028,1.708-.021,2.539,0,.346.005.692.005,1.038m-2.246-6.957c-5.156.015-10.316.005-15.474.023h0c-.306,0-.436-.16-.658-.466q-1.452-1.995-2.893-4l-1.7-2.361Q5.4,34.974,3.739,32.657A2.849,2.849,0,0,1,3.3,31.78,1.772,1.772,0,0,1,3.911,29.8a1.762,1.762,0,0,1,.945-.274,2,2,0,0,1,1.242.453q1.956,1.57,3.89,3.165a1.627,1.627,0,0,0,1.89.392,1.728,1.728,0,0,0,.91-1.709V18.487q0-3.437,0-6.873a1.3,1.3,0,0,1,.861-1.33,1.237,1.237,0,0,1,1.505.311,2.186,2.186,0,0,1,.4,1.192c.026,3.384.023,6.765.021,10.147l0,3.075c0,.138,0,.278.009.416a1.471,1.471,0,0,0,1.531,1.4,1.44,1.44,0,0,0,1.428-1.437c.028-1.056.025-2.111.022-3.167a.85.85,0,0,1,.493-.893,1.007,1.007,0,0,1,1.172.1,1.217,1.217,0,0,1,.332.736c.035.657.03,1.334.025,1.986,0,.346-.005.692,0,1.037a1.487,1.487,0,0,0,1.483,1.634h.006a1.48,1.48,0,0,0,1.476-1.645c0-.3,0-.6,0-.9,0-.359,0-.719,0-1.079a.916.916,0,0,1,.966-.92,1,1,0,0,1,.784.266.852.852,0,0,1,.263.613c.014.568.015,1.139.015,1.707,0,.639,0,1.278.022,1.916a1.424,1.424,0,0,0,1.4,1.4,1.523,1.523,0,0,0,1.519-1.265,3.825,3.825,0,0,0,.03-.576v-.711c0-.365,0-.729,0-1.095.009-.569.378-.9,1.013-.9h0a.864.864,0,0,1,.971.88l.006,3.168c.01,3.594.019,7.312-.027,10.967a7.689,7.689,0,0,1-2.262,5.238.764.764,0,0,1-.463.2" transform="translate(0.062 2.103)" fill="#1a73e9"/>
      <path id="Path_96627" data-name="Path 96627" d="M15.851,9.025a1.692,1.692,0,0,0,1.17-.544c1.21-1.181,2.126-2.1,2.972-2.981a2.749,2.749,0,0,0,.431-.675c.061-.12.128-.249.208-.389l.115-.2-.152-.174c-.09-.1-.174-.213-.256-.32a2.444,2.444,0,0,0-.7-.7,1.372,1.372,0,0,0-1.716.324c-.5.5-1,1.006-1.507,1.508q-.732.73-1.46,1.463a1.516,1.516,0,0,0-.146,2.214,1.454,1.454,0,0,0,1.038.472" transform="translate(4.19 0.835)"/>
      <path id="Path_96628" data-name="Path 96628" d="M11.36,7.412h.013a1.442,1.442,0,0,0,1.45-1.535c.009-.492.006-.984.005-1.474l0-.633,0-.673c0-.516,0-1.035-.005-1.552A1.43,1.43,0,0,0,11.353,0h-.027A1.44,1.44,0,0,0,9.86,1.526q-.021,2.163,0,4.325a1.488,1.488,0,0,0,1.5,1.561" transform="translate(2.866 0.001)"/>
      <path id="Path_96629" data-name="Path 96629" d="M16.278,11.35a1.476,1.476,0,0,0,1.581,1.476c.485.008.972.008,1.456,0h1.334c.23,0,.458,0,.688,0,.285,0,.569,0,.855-.009a1.478,1.478,0,1,0-.025-2.955q-2.159-.019-4.321-.006a1.465,1.465,0,0,0-1.569,1.487" transform="translate(4.737 2.869)"/>
      <path id="Path_96630" data-name="Path 96630" d="M1.558,12.826c.524.012,1.048.008,1.571.005l.594,0,.675,0c.227,0,.454,0,.682,0,.29,0,.58,0,.87-.013a1.479,1.479,0,1,0-.03-2.958C4.462,9.85,3,9.852,1.541,9.865a1.482,1.482,0,1,0,.017,2.96" transform="translate(0 2.868)"/>
      <path id="Path_96631" data-name="Path 96631" d="M3.716,5.812l.834.835c.62.624,1.238,1.246,1.863,1.864A1.534,1.534,0,0,0,7.5,9.018a1.428,1.428,0,0,0,.6-.136,1.527,1.527,0,0,0,.915-1.535l-.03-.137a.583.583,0,0,1-.03-.083,1.443,1.443,0,0,0-.3-.553c-.975-1-2.135-2.184-3.35-3.353a1.442,1.442,0,0,0-1.992.1A1.472,1.472,0,0,0,3.224,5.3a6.594,6.594,0,0,0,.492.514" transform="translate(0.84 0.836)"/>
    </g>
  </g>
</svg>
