<svg xmlns="http://www.w3.org/2000/svg" width="65.633" height="47.664" viewBox="0 0 65.633 47.664">
  <g id="Group_35518" data-name="Group 35518" transform="translate(0 -1)">
    <g id="Group_35519" data-name="Group 35519" transform="translate(0 0)">
      <path id="Path_96643" data-name="Path 96643" d="M42.71,43.39c.189.023.212-.027.214-.027s.031-.038.03-.244c-.01-1.494-.01-2.987-.008-4.482V37.362h0V35.642q0-1.7,0-3.408a13.3,13.3,0,0,0-1.589-6.278A13.709,13.709,0,0,0,23.382,19.9a12.976,12.976,0,0,0-7.946,11.657c-.149,2.642-.124,5.342-.1,7.954.012,1.25.023,2.5.017,3.749a.25.25,0,0,0,.014.118.5.5,0,0,0,.141.009h.11c.558-.005,1.127-.012,1.7-.012.5,0,1.007.005,1.508.018.18.019.213-.027.213-.027s.033-.035.033-.245q-.015-5.333,0-10.667a10.357,10.357,0,0,1,2.407-6.627,9.872,9.872,0,0,1,11.648-2.686,9.766,9.766,0,0,1,6.131,9.218q.008,5.4-.012,10.8c0,.168.028.2.028.2s.026.027.216.023c1.243-.024,2.263-.024,3.219,0" transform="translate(4.337 5.264)" fill="#1a73e9"/>
      <path id="Path_96644" data-name="Path 96644" d="M28.368,0c-.108,0-.216,0-.323.005A10.356,10.356,0,0,0,18.084,10.37a10.2,10.2,0,0,0,3.082,7.243,10.092,10.092,0,0,0,7.186,2.94,10.426,10.426,0,0,0,7.413-3.124,10.1,10.1,0,0,0,2.9-7.241A10.288,10.288,0,0,0,28.368,0m5.1,15.454a7.128,7.128,0,0,1-5.058,2.112h-.026A7.282,7.282,0,1,1,28.393,3h.023a7.138,7.138,0,0,1,5.068,2.112,7.277,7.277,0,0,1-.012,10.341" transform="translate(5.12 0.999)" fill="#1a73e9"/>
      <path id="Path_96645" data-name="Path 96645" d="M43.33,9.853h-.006A8.175,8.175,0,0,0,43.37,26.2a8.278,8.278,0,0,0,8.165-8.158,8.205,8.205,0,0,0-8.2-8.192M47,21.681a5.162,5.162,0,1,1-3.653-8.81h.015A5.168,5.168,0,0,1,47,21.681" transform="translate(9.96 3.789)"/>
      <path id="Path_96646" data-name="Path 96646" d="M20.742,15.806a8.166,8.166,0,0,0-8.149-8.147h-.005a8.169,8.169,0,1,0,0,16.338H12.6a8.176,8.176,0,0,0,8.142-8.192m-8.161,5.208h-.058a5.194,5.194,0,0,1-5.112-5.229,5.174,5.174,0,0,1,5.161-5.12h.054a5.178,5.178,0,0,1,5.115,5.222,5.19,5.19,0,0,1-5.16,5.126" transform="translate(1.243 3.168)"/>
      <path id="Path_96647" data-name="Path 96647" d="M18.1,23.67l-.033-.009c-.246-.058-.493-.124-.738-.192a10.317,10.317,0,0,0-1.238-.291A13.514,13.514,0,0,0,5.212,26.014,13.034,13.034,0,0,0,.127,35.385c-.114,1.378-.113,2.8-.112,4.165,0,.62,0,1.243-.009,1.866l0,.145a2.607,2.607,0,0,0,.018.507.248.248,0,0,0,.044.051c1.046.014,2.086.015,3.172.012h.49l0-.448c0-.5-.005-.985.006-1.467s.009-.987.006-1.483a21.809,21.809,0,0,1,.172-3.539,9.689,9.689,0,0,1,5.637-7.635,9.882,9.882,0,0,1,7.075-.44.873.873,0,0,0,.218.037.387.387,0,0,0,.062-.132c.313-.946.672-1.952,1.165-3.262.014-.041.024-.071.031-.092" transform="translate(0 6.51)"/>
      <path id="Path_96648" data-name="Path 96648" d="M54.645,39.164c-.036-.3-.068-.612-.1-.919a19.556,19.556,0,0,0-.371-2.52,13.308,13.308,0,0,0-4.681-7.44,13.783,13.783,0,0,0-10.558-3,.426.426,0,0,0-.127.028c.005.005,0,.05.027.158.271,1.213.488,2.281.663,3.267.023.131.046.155.047.157a.416.416,0,0,0,.183.027l.606.019a16.2,16.2,0,0,1,2.569.213,9.724,9.724,0,0,1,7.873,8.526,23.707,23.707,0,0,1,.092,2.711c0,.331,0,.662,0,.992a.476.476,0,0,0,.012.124.638.638,0,0,0,.091,0h.012c.566-.006,1.1-.01,1.622-.01.631,0,1.231.005,1.811.015.124,0,.142-.015.145-.017a.715.715,0,0,0,.01-.162c-.01-.457-.008-.915-.006-1.372v-.8Z" transform="translate(10.988 7.13)"/>
    </g>
  </g>
</svg>
