<svg xmlns="http://www.w3.org/2000/svg" width="48.189" height="48.193" viewBox="0 0 48.189 48.193">
  <g id="Group_35539" data-name="Group 35539" transform="translate(0 0)">
    <g id="Group_35540" data-name="Group 35540">
      <path id="Path_96681" data-name="Path 96681" d="M17.19,48.193q-7.512,0-15.023,0C.618,48.191,0,47.578,0,46.038Q0,30.947,0,15.856c0-1.444.651-2.085,2.1-2.085H32.285c1.493,0,2.135.639,2.135,2.124q0,15.09,0,30.182c0,1.479-.637,2.116-2.142,2.116q-7.545,0-15.09,0M3.442,30.968c0,4.325.012,8.65-.013,12.974,0,.628.159.825.808.824q12.972-.033,25.945,0c.651,0,.808-.2.807-.825q-.027-12.975,0-25.949c0-.6-.156-.79-.775-.788q-13.005.028-26.011,0c-.626,0-.774.2-.771.793.021,4.324.011,8.649.011,12.974" fill="#1a73e9"/>
      <path id="Path_96682" data-name="Path 96682" d="M31.008,0Q38.584,0,46.16,0a1.79,1.79,0,0,1,2.027,2.031q0,15.186,0,30.373c0,1.224-.671,2.006-1.709,2.01a1.722,1.722,0,0,1-1.724-1.583c-.024-.33-.011-.662-.011-.993q0-13.731,0-27.462c0-.932,0-.934-.935-.934q-13.962,0-27.923-.013a3,3,0,0,1-1.32-.293,1.622,1.622,0,0,1-.747-1.826A1.742,1.742,0,0,1,15.327.019C15.7-.012,16.077,0,16.451,0H31.008Z"/>
      <path id="Path_96683" data-name="Path 96683" d="M41.3,24.1q0,7.543-.011,15.088a2.964,2.964,0,0,1-.228,1.209,1.64,1.64,0,0,1-1.822.886,1.772,1.772,0,0,1-1.369-1.589c-.021-.307-.011-.617-.011-.926q0-13.764,0-27.529c0-.908,0-.909-.9-.909q-13.96,0-27.922,0A3.149,3.149,0,0,1,8,10.2,1.7,1.7,0,0,1,6.915,8.3,1.726,1.726,0,0,1,8.6,6.893c1.676-.018,3.353-.007,5.029-.007H39.1c1.585,0,2.2.611,2.2,2.189q0,7.512,0,15.022"/>
    </g>
  </g>
</svg>
