<svg xmlns="http://www.w3.org/2000/svg" width="50.747" height="47.76" viewBox="0 0 50.747 47.76">
  <g id="Group_35513" data-name="Group 35513" transform="translate(0 0)">
    <g id="Group_35514" data-name="Group 35514" transform="translate(0 0)">
      <path id="Path_96632" data-name="Path 96632" d="M23.123,15.169a49.731,49.731,0,0,0-11.3-3.691,50.768,50.768,0,0,0-8.767-.933,4.221,4.221,0,0,0-1.254.107A2.475,2.475,0,0,0,0,13.364V32.542q0,3.586,0,7.168a2.461,2.461,0,0,0,2.6,2.77q.766.049,1.531.089c1.424.077,2.9.156,4.31.363a48.577,48.577,0,0,1,6.537,1.34c1.636.474,3.269,1.11,4.848,1.725.618.242,1.235.482,1.856.715a2.6,2.6,0,0,0,.91.167,2.031,2.031,0,0,0,1.9-1.141,3.575,3.575,0,0,0,.277-1.478q.018-5.066.011-10.135V25.31q0-3.759,0-7.519a2.65,2.65,0,0,0-1.661-2.622M2.6,30.286,2.6,13.6c0-.134,0-.356.013-.491.134-.01.353,0,.474,0a47.908,47.908,0,0,1,9.525,1.153,48.8,48.8,0,0,1,9.248,3.13c.291.129.354.235.353.6-.005,1.935,0,3.872,0,5.808l.007,3.43q0,7.727,0,15.454c0,.476-.007.951-.014,1.427v.01c-.5-.189-1-.382-1.506-.575-1.633-.627-3.321-1.275-5.038-1.764a52.065,52.065,0,0,0-6.8-1.4c-1.606-.233-3.249-.316-4.836-.4L2.74,39.912c-.065,0-.105-.012-.122-.012H2.612a1.917,1.917,0,0,1-.017-.316v-9.3Z" transform="translate(0 0.881)" fill="#1a73e9"/>
      <path id="Path_96633" data-name="Path 96633" d="M48.742,13.317a2.809,2.809,0,0,0-.78-2.134,2.526,2.526,0,0,0-1.98-.612c-2.73.165-5.192.33-7.693.684a45.7,45.7,0,0,0-12.507,3.813,2.9,2.9,0,0,0-1.84,2.905c.022,3.173.018,6.345.015,9.518L23.94,43.083c0,.5,0,1.008.021,1.511a2.323,2.323,0,0,0,.99,1.927,2.08,2.08,0,0,0,1.143.328,2.839,2.839,0,0,0,1.04-.211l1.009-.4c1.31-.52,2.663-1.06,4.012-1.518A36.761,36.761,0,0,1,40.3,42.905c1.829-.184,3.7-.3,5.514-.407l.539-.033a2.336,2.336,0,0,0,2.191-1.509,3.858,3.858,0,0,0,.2-1.406q.011-5.885.007-11.769V21.533q0-4.107,0-8.216M26.51,18.111c0-.453.09-.6.474-.77a50.976,50.976,0,0,1,9.143-3.071,48.885,48.885,0,0,1,9.528-1.155c.046,0,.129,0,.217,0s.191,0,.261.01c.016.134.016.372.016.488l-.014,25.864c0,.119,0,.295-.009.415-.112.009-.273.012-.374.014a44.746,44.746,0,0,0-11.331,1.5c-1.962.549-3.9,1.26-5.781,1.948-.705.258-1.41.516-2.116.767l0-9.8V27.774c0-3.221,0-6.442-.013-9.663" transform="translate(2.001 0.883)" fill="#1a73e9"/>
      <path id="Path_96634" data-name="Path 96634" d="M3.348,9.472a1.134,1.134,0,0,0,.959.014,1.3,1.3,0,0,0,.685-.871,6.622,6.622,0,0,0,.183-.756c.01-.065.031-.2.054-.3.1.014.236.039.291.049a42.244,42.244,0,0,1,10.186,3.283c1.328.625,2.648,1.35,3.924,2.049q.681.375,1.366.747a1.645,1.645,0,0,0,.775.215,1.165,1.165,0,0,0,1.02-.6,1.284,1.284,0,0,0,.176-1,1.389,1.389,0,0,0-.684-.847l-.553-.33c-.364-.217-.727-.435-1.1-.641A49.709,49.709,0,0,0,8.4,5.579c-.855-.213-1.723-.368-2.488-.5-.317-.056-.619-.111-.9-.165L4.952,4.9H4.894a1.9,1.9,0,0,0-2,1.24,9.541,9.541,0,0,0-.376,2.046,1.526,1.526,0,0,0,.831,1.285" transform="translate(0.21 0.409)"/>
      <path id="Path_96635" data-name="Path 96635" d="M26.221,11.393a1.677,1.677,0,0,0-.831,1.059,1.179,1.179,0,0,0,.216.932,1.217,1.217,0,0,0,.982.539,1.784,1.784,0,0,0,.934-.311,42.968,42.968,0,0,1,9.53-4.463c1.343-.433,2.748-.78,4.108-1.115.617-.152,1.234-.3,1.849-.465.1-.026.161-.03.18-.038a.7.7,0,0,1,.027.185,3.838,3.838,0,0,0,.208.974,1.25,1.25,0,0,0,.65.787,1.16,1.16,0,0,0,.943,0,1.744,1.744,0,0,0,.677-.6c.036-.048.068-.091.1-.126l.19-.2-.174-.928c-.078-.425-.146-.8-.228-1.164a1.763,1.763,0,0,0-2.209-1.52l-.282.044c-1,.156-2.025.319-3.026.572a50.09,50.09,0,0,0-13.842,5.832" transform="translate(2.12 0.41)"/>
      <path id="Path_96636" data-name="Path 96636" d="M25.27,10.927a1.609,1.609,0,0,0,.957-.363c.077-.059.15-.12.222-.184l.081-.069A44.79,44.79,0,0,1,38.223,3.125a6.822,6.822,0,0,1,.66-.25,7.448,7.448,0,0,1,.323.7.893.893,0,0,0,.441.536l.109.05a1.333,1.333,0,0,0,1.069.168c.383-.154.995-.79.809-1.328A15.645,15.645,0,0,0,40.593.658,1.233,1.233,0,0,0,39.8.143a1.814,1.814,0,0,1-.184-.064L39.441,0l-.483.131c-.2.053-.389.1-.569.168A43.7,43.7,0,0,0,27.981,5.937c-.829.593-1.635,1.235-2.414,1.857l-.952.756a1.417,1.417,0,0,0-.578.949,1.268,1.268,0,0,0,.293.946,1.188,1.188,0,0,0,.941.481" transform="translate(2.008 0)"/>
      <path id="Path_96637" data-name="Path 96637" d="M7.415,4.365A1.263,1.263,0,0,0,9.021,3.5l.1-.271c.061-.145.122-.291.17-.394.1.038.245.1.394.158a46.179,46.179,0,0,1,12.1,7.433,1.746,1.746,0,0,0,1.121.477,1.027,1.027,0,0,0,.119-.007,1.189,1.189,0,0,0,.827-.469,1.35,1.35,0,0,0-.4-1.962A49.013,49.013,0,0,0,10.949.714C10.5.525,10.043.37,9.67.245L9.3.122,9.135.09a1.814,1.814,0,0,0-1.885.995c-.234.492-.445,1-.641,1.505a1.423,1.423,0,0,0,.043,1.151,1.2,1.2,0,0,0,.764.624" transform="translate(0.544 0.007)"/>
    </g>
  </g>
</svg>
