<svg xmlns="http://www.w3.org/2000/svg" width="37.263" height="51.054" viewBox="0 0 37.263 51.054">
  <g id="Group_35496" data-name="Group 35496" transform="translate(0 0)">
    <g id="Group_35366" data-name="Group 35366">
      <path id="Path_96496" data-name="Path 96496" d="M36.807,27.77a1.6,1.6,0,0,0-1.309-.28,56.815,56.815,0,0,0-5.988.944A39.4,39.4,0,0,0,19.056,32.49a1.1,1.1,0,0,1-.86,0c-.681-.306-1.365-.639-2.027-.961-.907-.442-1.846-.9-2.8-1.294a38.013,38.013,0,0,0-11.48-2.746A1.83,1.83,0,0,0,.436,27.8,1.915,1.915,0,0,0,0,29.283V36.57l.014.123,0,2.427q0,2.55,0,5.1a1.345,1.345,0,0,0,1.394,1.488c1.193.132,2.475.283,3.771.5A36.34,36.34,0,0,1,17.55,50.72a1.911,1.911,0,0,0,1.085.334,1.887,1.887,0,0,0,1.071-.328,37.835,37.835,0,0,1,16.009-5.014c1.136-.092,1.538-.524,1.538-1.649q.01-7.467.01-14.934a1.721,1.721,0,0,0-.456-1.359M2.623,30.821c0-.24.028-.381.1-.444A.405.405,0,0,1,3,30.307c.047,0,.1,0,.16.009a34.594,34.594,0,0,1,10.412,2.8c.653.277,1.3.6,1.928.92.411.207.822.414,1.249.615a.927.927,0,0,1,.585.978c-.024,2.685-.014,5.415,0,8.055l0,1.111a1.319,1.319,0,0,0,2.191,1.131A1.529,1.529,0,0,0,19.93,44.8q.007-3.717,0-7.422a5.754,5.754,0,0,0-.01-.908,1.933,1.933,0,0,1,1.341-2.263,38.524,38.524,0,0,1,12.757-3.884c.27-.029.433-.007.512.066s.114.23.109.5c-.023,1.4-.019,2.833-.015,4.216,0,.544,0,1.088,0,1.632h0q0,.8,0,1.6c0,1.392-.008,2.83.015,4.245.008.5-.134.66-.633.713A38.855,38.855,0,0,0,19.069,48.1a1.038,1.038,0,0,1-.849.006A40.872,40.872,0,0,0,6.27,43.717c-.854-.168-1.81-.3-3.007-.423-.5-.052-.64-.211-.64-.709.017-3.9.017-7.86,0-11.764" fill="#1a73e9"/>
      <path id="Path_96497" data-name="Path 96497" d="M6.832,26.453A2.277,2.277,0,0,0,8.2,25.8a15.681,15.681,0,0,1,7.332-3.478A16.23,16.23,0,0,1,29.27,25.978c.738.608,1.488.63,2.006.058a1.2,1.2,0,0,0,.333-.872A1.732,1.732,0,0,0,30.965,24a17.808,17.808,0,0,0-6.806-3.759c-.382-.115-.766-.227-1.173-.345l-.624-.182A16.9,16.9,0,0,0,27,11.247a9.02,9.02,0,0,0-.009-5.14c-.066-.2-.14-.409-.221-.609A8.783,8.783,0,0,0,15.336.646,8.614,8.614,0,0,0,9.907,8.859a17.219,17.219,0,0,0,4.033,9.856c.215.26.455.506.71.767l.23.236-.126.041c-.218.072-.406.134-.6.181A18.577,18.577,0,0,0,6.515,23.8a2.117,2.117,0,0,0-.871,1.358,1.172,1.172,0,0,0,.331.873,1.121,1.121,0,0,0,.857.424M18.038,2.676c.192-.034.384-.068.575-.1a6.065,6.065,0,0,1,6.011,7.08A15.753,15.753,0,0,1,21.7,16.53a8.266,8.266,0,0,1-1.551,1.452,2.355,2.355,0,0,1-3.123-.024,10.02,10.02,0,0,1-3.418-4.882,21.8,21.8,0,0,1-1-3.785,5.8,5.8,0,0,1,4.14-6.354c.423-.109.863-.186,1.289-.261"/>
    </g>
  </g>
</svg>
