<svg xmlns="http://www.w3.org/2000/svg" width="43.511" height="52.812" viewBox="0 0 43.511 52.812">
  <g id="Group_35524" data-name="Group 35524" transform="translate(0 0.001)">
    <g id="Group_35525" data-name="Group 35525" transform="translate(0 0)">
      <path id="Path_96654" data-name="Path 96654" d="M39.244,45.817c.328,0,.57,0,.813,0,.765-.018,1.118-.33,1.134-1.018.01-.443,0-.888,0-1.331V7.774c0-1.06-.272-1.311-1.425-1.311H8.7c-.162,0-.324,0-.487,0-.721-.013-1.141-.347-1.129-.9s.424-.873,1.156-.873q12.033,0,24.065,0,3.868,0,7.738,0a2.79,2.79,0,0,1,3.1,2.853c0,13.857-.02,23.167.024,37.023a2.957,2.957,0,0,1-3.307,3.026c-.178-.015-.359,0-.614,0,0,.714,0,1.39,0,2.068a2.8,2.8,0,0,1-3.091,2.808q-16.42,0-32.838,0a2.78,2.78,0,0,1-3.063-2.78c0-16.22,0-27.9,0-44.117A5.57,5.57,0,0,1,6.1.257Q21.79.248,37.478.255a2.118,2.118,0,0,1,.485.018c.48.115.79.391.787.862a.857.857,0,0,1-.828.879,4.476,4.476,0,0,1-.669.014q-15.475,0-30.948,0A3.922,3.922,0,0,0,2.628,3.986C1.337,6.238,3.1,8.994,5.894,9.115c.446.019.892.007,1.339.007h28.7c2.165,0,3.316,1.039,3.316,2.995v33.7ZM2.2,9.546v.694c0,14.558,0,24.568,0,39.126,0,1.085.269,1.33,1.468,1.33h32.1c1.286,0,1.522-.216,1.522-1.388,0-13.853,0-23.161,0-37.015,0-1.171-.244-1.4-1.518-1.4-9.564,0-19.127-.015-28.692.014A7.349,7.349,0,0,1,2.2,9.546" transform="translate(0.047 0.047)"/>
      <path id="Path_96655" data-name="Path 96655" d="M36.2,52.811H3.362A3.089,3.089,0,0,1,0,49.735v-1.1C0,32.979,0,21.471,0,5.616.006,2.472,2.7.008,6.149.007Q17.916,0,29.68,0l7.96,0a1.691,1.691,0,0,1,.437.029,1.166,1.166,0,0,1,1.016,1.153,1.146,1.146,0,0,1-1.079,1.171,3.069,3.069,0,0,1-.544.02l-.17,0q-15.478,0-30.949,0a3.645,3.645,0,0,0-3.418,1.81,2.88,2.88,0,0,0-.012,2.877A3.581,3.581,0,0,0,5.954,8.864c.323.017.648.013.97.01H35.975c2.329,0,3.613,1.171,3.613,3.293l.026,33.4c.175,0,.33,0,.484,0,.692-.017.832-.279.843-.73.007-.307.006-.613,0-.92V7.82c0-.846-.09-1.013-1.128-1.013H8.25A1.556,1.556,0,0,1,7.126,6.4a1.085,1.085,0,0,1-.3-.794c.014-.718.572-1.163,1.455-1.163l26.174,0q2.815,0,5.627,0a3.079,3.079,0,0,1,3.4,3.149l0,9.916c0,9.014-.006,16.8.026,27.106a3.3,3.3,0,0,1-1.04,2.478,3.339,3.339,0,0,1-2.59.845,2.612,2.612,0,0,0-.292,0v1.775A3.088,3.088,0,0,1,36.2,52.811M21.83.6Q13.988.6,6.149.6A5.25,5.25,0,0,0,.6,5.616c-.007,15.854,0,27.363,0,43.02v1.1a2.5,2.5,0,0,0,2.765,2.483H36.2A2.5,2.5,0,0,0,38.994,49.7V47.34l.528,0a3.8,3.8,0,0,1,.409.006,2.758,2.758,0,0,0,2.137-.69,2.706,2.706,0,0,0,.849-2.038c-.032-10.3-.03-18.093-.026-27.109l0-9.916a2.5,2.5,0,0,0-2.808-2.555q-2.813-.007-5.626,0l-26.174,0c-.563,0-.853.2-.86.581a.493.493,0,0,0,.13.37,1,1,0,0,0,.707.226c.115,0,.228,0,.342,0H39.815c1.32,0,1.722.376,1.722,1.607V43.914c0,.311,0,.624,0,.936-.019.846-.5,1.288-1.424,1.31H38.994V12.166c0-1.791-1.016-2.7-3.019-2.7H6.928c-.335,0-.668,0-1-.01A4.17,4.17,0,0,1,2.4,7.344a3.457,3.457,0,0,1,.018-3.458A4.2,4.2,0,0,1,6.351,1.777q15.473,0,30.948,0l.183,0a2.741,2.741,0,0,0,.442-.013c.511-.08.573-.374.575-.587,0-.188-.055-.449-.559-.572A1.114,1.114,0,0,0,37.658.6l-.133,0H21.83M3.715,51.038c-1.351,0-1.764-.38-1.764-1.627V8.982l.48.377a7.11,7.11,0,0,0,4.7,1.3q10.9-.034,21.807-.015l6.886,0c1.442,0,1.815.348,1.815,1.691V49.353c0,1.338-.374,1.684-1.819,1.684ZM2.546,10.168V49.411c0,.877.086,1.033,1.169,1.033h32.1c1.158,0,1.225-.124,1.225-1.09V12.337c0-.972-.068-1.1-1.22-1.1l-6.886,0q-10.9-.005-21.8.015a7.9,7.9,0,0,1-4.588-1.085" transform="translate(0 0)"/>
      <path id="Path_96656" data-name="Path 96656" d="M18.683,24.14H28.3a2.746,2.746,0,0,1,3.017,2.691q.032,4.874.017,9.748a2.763,2.763,0,0,1-2.914,2.629q-9.742.012-19.483,0A2.762,2.762,0,0,1,6,36.547Q5.981,31.673,6,26.8a2.762,2.762,0,0,1,2.94-2.661c3.248-.007,6.495,0,9.741,0Zm-.014,13.3h9.375c1.039,0,1.343-.276,1.344-1.213q.007-4.571.011-9.139c0-.849-.341-1.173-1.275-1.173Q18.665,25.9,9.207,25.9c-.942,0-1.261.3-1.262,1.184q-.005,4.569,0,9.138c0,.935.31,1.211,1.35,1.212h9.375" transform="translate(1.129 4.547)" fill="#1a73e9"/>
      <path id="Path_96658" data-name="Path 96658" d="M13.807,21.175c-.535-.626-1.081-1.247-1.636-1.873l-.45-.512a3.406,3.406,0,0,0,2.275-3.934,3.586,3.586,0,0,0-3.714-2.909c-1-.011-1.992-.006-2.99,0-1.081.006-1.545.431-1.546,1.425q0,2.767,0,5.531V20.13l0,.518c0,.46-.006.919.012,1.377A1.208,1.208,0,0,0,7.038,23.18a1.242,1.242,0,0,0,1.235-1.117,3.871,3.871,0,0,0,.012-.471V19.047a.976.976,0,0,1,1.058.471c.512.726,1.085,1.43,1.639,2.109.238.29.474.581.736.912.027.037.056.074.084.106a1.429,1.429,0,0,0,1.08.542,1.3,1.3,0,0,0,.748-.246,1.166,1.166,0,0,0,.5-.8,1.252,1.252,0,0,0-.324-.961M8.3,14.209l.5-.01a14.728,14.728,0,0,1,1.767.031.877.877,0,0,1,.654.436,1.575,1.575,0,0,1,.212.972c-.069.727-.462,1.157-1.078,1.18-.526.02-1.054.014-1.6.012l-.453,0Z" transform="translate(1.081 2.25)" fill="#1a73e9"/>
      <path id="Path_96659" data-name="Path 96659" d="M20.111,20.936c-.292-.007-.586-.006-.879,0H16.416v-2.3h.569c.67,0,1.324,0,1.979,0a1.108,1.108,0,1,0,.048-2.213c-.191-.013-.386-.011-.58-.008l-.232,0H16.4V14.193h.765c.921,0,1.817,0,2.713,0a1.167,1.167,0,0,0,1.319-1.083,1.055,1.055,0,0,0-.282-.791,1.392,1.392,0,0,0-1.028-.37q-2.25-.011-4.505,0c-.959,0-1.427.447-1.431,1.351,0,1.064,0,2.127,0,3.192v2.426c0,.99,0,1.979,0,2.969a1.2,1.2,0,0,0,1.364,1.294q1.2.005,2.405.006t2.4-.006a1.116,1.116,0,0,0,1.24-1.091,1.131,1.131,0,0,0-1.251-1.152" transform="translate(2.627 2.25)" fill="#1a73e9"/>
      <path id="Path_96660" data-name="Path 96660" d="M25.224,14.182c.743,0,1.485,0,2.231-.007.783-.011,1.289-.448,1.291-1.116s-.493-1.106-1.291-1.11c-1.584-.007-3.167-.011-4.752,0-.866,0-1.365.456-1.367,1.24q-.018,4.378,0,8.755a1.243,1.243,0,0,0,.359.9,1.222,1.222,0,0,0,.866.336h.03a1.194,1.194,0,0,0,1.192-1.219c.01-.633.008-1.267.007-1.9V18.963c0-.1.006-.208.013-.317h.629c.692,0,1.36,0,2.027,0a1.279,1.279,0,0,0,.935-.354,1.038,1.038,0,0,0,.276-.767,1.085,1.085,0,0,0-1.206-1.051c-.68-.008-1.36-.007-2.049,0h-.585V14.181Z" transform="translate(4.018 2.25)" fill="#1a73e9"/>
      <path id="Path_96663" data-name="Path 96663" d="M25.913,28.369a1.141,1.141,0,0,0-1.241-.753h-.006q-2.392,0-4.783,0H15.96c-1.563,0-3.125,0-4.688,0a1.528,1.528,0,0,0-1.115.395,1.1,1.1,0,0,0-.309.806c.01.706.556,1.162,1.394,1.163q2.742,0,5.483,0,3.956,0,7.912-.014a1.479,1.479,0,0,0,1.078-.439,1.459,1.459,0,0,0,.2-1.163" transform="translate(1.855 5.202)" fill="#1a73e9"/>
      <path id="Path_96664" data-name="Path 96664" d="M25.824,31.964a1.735,1.735,0,0,0-1.216-.6c-3.689-.024-7.375-.021-11.064-.023H11.33a1.615,1.615,0,0,0-1.18.405,1.085,1.085,0,0,0-.3.8c.007.348.169,1.159,1.518,1.161l8.189,0h1.614c1.117,0,2.235,0,3.355-.02a1.814,1.814,0,0,0,1.211-.466,1.157,1.157,0,0,0,.09-1.27" transform="translate(1.855 5.906)" fill="#1a73e9"/>
    </g>
  </g>
</svg>
