<svg xmlns="http://www.w3.org/2000/svg" width="48.229" height="38.8" viewBox="0 0 48.229 38.8">
  <g id="Group_35532" data-name="Group 35532" transform="translate(-961.154 -287.047)">
    <g id="Group_35498" data-name="Group 35498" transform="translate(961.154 287.047)">
      <g id="Group_35371" data-name="Group 35371">
        <path id="Path_96505" data-name="Path 96505" d="M42.346,38.8H5.883A5.89,5.89,0,0,1,0,32.917V5.883A5.89,5.89,0,0,1,5.883,0H42.346a5.89,5.89,0,0,1,5.883,5.883V32.917A5.89,5.89,0,0,1,42.346,38.8M5.883,2.8A3.086,3.086,0,0,0,2.8,5.883V32.917A3.086,3.086,0,0,0,5.883,36H42.346a3.086,3.086,0,0,0,3.083-3.083V5.883A3.086,3.086,0,0,0,42.346,2.8Z" fill="#1a73e8"/>
        <path id="Path_96506" data-name="Path 96506" d="M40.476,33.894H21.752a3.042,3.042,0,0,1-3.038-3.038V16.7a3.042,3.042,0,0,1,3.038-3.039H40.476A3.042,3.042,0,0,1,43.514,16.7V30.856a3.042,3.042,0,0,1-3.038,3.038M21.752,16.46a.239.239,0,0,0-.238.239V30.856a.239.239,0,0,0,.238.238H40.476a.239.239,0,0,0,.238-.238V16.7a.239.239,0,0,0-.238-.239Z"/>
      </g>
    </g>
  </g>
</svg>
