<svg xmlns="http://www.w3.org/2000/svg" width="65.033" height="47.581" viewBox="0 0 65.033 47.581">
  <g id="Group_35530" data-name="Group 35530" transform="translate(0 0)">
    <g id="Group_35531" data-name="Group 35531" transform="translate(0 0)">
      <path id="Path_96667" data-name="Path 96667" d="M55.228,27.149c.023-.124.059-.3.084-.469.038-.258.047-.522.11-.773a1.066,1.066,0,0,1,1.16-.837A1.088,1.088,0,0,1,57.6,26.09c-.05,1.453-.14,2.906-.263,4.355a.977.977,0,0,1-1.064.878q-2.1-.078-4.191-.231A1.034,1.034,0,0,1,51.1,30a1.147,1.147,0,0,1,1.031-1.133,3.087,3.087,0,0,0,.917-.175,5.847,5.847,0,0,0-.512-.356,7,7,0,0,0-10.108,4.465,10.71,10.71,0,0,0-.231,1.6,1.217,1.217,0,0,1-1.149,1.27A1.124,1.124,0,0,1,39.921,34.4a8.651,8.651,0,0,1,1.727-5.277,9.168,9.168,0,0,1,10.361-3.467,26.451,26.451,0,0,1,3.219,1.488" transform="translate(5.056 3.174)" fill="#1a73e9"/>
      <path id="Path_96668" data-name="Path 96668" d="M45.619,39.62a3.2,3.2,0,0,0,1.544.759,7.048,7.048,0,0,0,8.88-5.553,9.254,9.254,0,0,0,.082-1c.064-.855.522-1.362,1.2-1.337s1.147.622,1.093,1.482a9.482,9.482,0,0,1-1.52,4.739,9.314,9.314,0,0,1-11.7,3.383c-.457-.206-.881-.486-1.322-.73-.29-.161-.463-.11-.469.255,0,.279,0,.561-.019.839a1.059,1.059,0,0,1-1.12,1.013,1.043,1.043,0,0,1-1.1-1.038q-.035-2.1,0-4.2A1.05,1.05,0,0,1,42.238,37.2q2.074-.029,4.146,0a1.114,1.114,0,0,1,.065,2.221c-.256.029-.515.033-.773.047l-.057.146" transform="translate(5.214 4.114)" fill="#1a73e9"/>
      <path id="Path_96669" data-name="Path 96669" d="M62.975,2.11A7.125,7.125,0,0,0,57.893,0h-.068C51.909.053,45.892.043,40.074.032c-2.507,0-5-.019-7.52-.008H21.461c-4.72,0-9.5,0-14.232.02A7.655,7.655,0,0,0,4.62.45,6.917,6.917,0,0,0,0,7.2Q0,23.21,0,39.228a6.826,6.826,0,0,0,.85,3.434,6.942,6.942,0,0,0,6.4,3.679q14.253.025,28.511,0l2.194,0a2.5,2.5,0,0,0,.8-.131,1.41,1.41,0,0,0,.906-1.586,1.427,1.427,0,0,0-1.216-1.191,6.249,6.249,0,0,0-.818-.03h-6.68q-11.784,0-23.571-.019a5.329,5.329,0,0,1-2.2-.459A3.789,3.789,0,0,1,2.948,39.3q0-6.549.024-13.1l.015-6.773H62.076l.036,4.971a4.092,4.092,0,0,0,.052.633,1.325,1.325,0,0,0,.981,1.087,1.368,1.368,0,0,0,1.4-.319,1.676,1.676,0,0,0,.475-1.408q0-2.385-.01-4.769c-.01-4.091-.021-8.32.026-12.48A6.96,6.96,0,0,0,62.975,2.11M62.06,9.348c-.023.764-.044,1.527-.041,2.29l.009,1.484H2.978l0-.469c-.016-1.8-.033-3.658-.016-5.489a4.725,4.725,0,0,1,.474-2.029A4.093,4.093,0,0,1,7.469,2.924h.01q19.053.019,38.1.01l11.082,0c.436,0,.872-.006,1.307.011A4.011,4.011,0,0,1,62.1,7.222c0,.709-.021,1.417-.042,2.126" transform="translate(0 0)"/>
      <rect id="Rectangle_9" data-name="Rectangle 9" width="23.66" height="3.38" transform="translate(8.433 26.416)"/>
      <rect id="Rectangle_10" data-name="Rectangle 10" width="23.66" height="3.38" transform="translate(8.433 33.176)"/>
    </g>
  </g>
</svg>
