<svg xmlns="http://www.w3.org/2000/svg" width="57.7" height="51.562" viewBox="0 0 57.7 51.562">
  <g id="Group_35557" data-name="Group 35557" transform="translate(0 0.001)">
    <g id="Group_35558" data-name="Group 35558" transform="translate(0 0)">
      <path id="Path_96701" data-name="Path 96701" d="M57.692,48.126c0-.589,0-1.177-.008-1.766a1.647,1.647,0,0,0-.221-.777c-.348-.6-.721-1.188-1.1-1.772l0-.124A6.463,6.463,0,0,0,57.7,39.52v-3.4q0-4.158-.013-8.317a7.534,7.534,0,0,0-.193-1.639,4.745,4.745,0,0,0-3.879-3.5c-.735-.078-1.481-.085-2.2-.09-.32,0-.639,0-.958-.013a3.464,3.464,0,0,0-2.772,1.185c-.629.669-1.269,1.329-1.91,1.987l-.627.643c-.025.027-.051.051-.077.077l-.006-.009-.644-.961c-.772-1.151-1.545-2.3-2.306-3.461a1.035,1.035,0,0,0-.908-.48c-.467.006-.932.005-1.4,0s-.94,0-1.41.005h-.018c-.025,0-.04,0-.051,0a.728.728,0,0,1,0-.082c.018-1.006.024-1.854,0-2.713a5.539,5.539,0,0,0-.2-1.352A5.052,5.052,0,0,0,35.9,14.627,14.272,14.272,0,0,0,28.737,12.4a12.553,12.553,0,0,0-3.789.456,11.68,11.68,0,0,0-4.774,2.225,4.645,4.645,0,0,0-1.82,3.82c.01.458.008.917.005,1.378,0,.4,0,.8,0,1.206,0,.028,0,.049,0,.062H18.3c-.289-.005-.576-.005-.866,0-.313,0-.629,0-.942,0a.939.939,0,0,0-.915.48c-.633.97-1.276,1.933-1.918,2.9l-1.032,1.535c-.048-.046-.093-.089-.136-.133l-.539-.556q-1-1.033-2-2.074a3.28,3.28,0,0,0-2.295-1.107c-1.033-.034-2.086-.031-3.128.012a4.386,4.386,0,0,0-2.339.813A4.962,4.962,0,0,0,.01,27.744q0,3.182,0,6.364l0,5.759A6.021,6.021,0,0,0,1.275,43.6c.1.134.1.166.018.288C.925,44.449.566,45.016.229,45.6a1.551,1.551,0,0,0-.216.743C.005,46.969.005,47.6.005,48.23c0,.565,0,1.13-.005,1.7a.744.744,0,0,0,.176.544.745.745,0,0,0,.547.182q6.469-.011,12.937-.006H41.618q7.667,0,15.331,0a.637.637,0,0,0,.572-.186.749.749,0,0,0,.179-.555c-.009-.6-.008-1.189-.008-1.783M20.974,18.862a2.009,2.009,0,0,1,.753-1.662A8.416,8.416,0,0,1,25,15.551a10.245,10.245,0,0,1,4.241-.487,10.89,10.89,0,0,1,5.564,2.017,2.141,2.141,0,0,1,.9,1.873c-.02.536-.016,1.074-.011,1.611,0,.255,0,.51,0,.765,0,.07,0,.144,0,.2-.061,0-.143,0-.219,0h-9q-2.67-.006-5.341.006a.816.816,0,0,0-.146,0h-.011a.578.578,0,0,1-.009-.143c.028-.944.029-1.773,0-2.533M2.625,48.072c0-.04,0-.084-.005-.126l-.01-.223A3,3,0,0,1,3.1,45.838c1.53-2.39,3.03-4.8,4.53-7.205L9.149,36.2c.048-.08.093-.162.147-.259l.237-.424-.614-.386c-.388-.246-.771-.489-1.172-.709-.368-.2-.77.369-.775.375q-.924,1.458-1.832,2.925l-.657,1.052Q3.7,40.033,2.91,41.29a2.6,2.6,0,0,1-.273-1.082c-.021-.7-.02-1.4-.019-2.094l0-3.62c0-2.318.006-4.638-.011-6.956a2.335,2.335,0,0,1,1.608-2.26,3.516,3.516,0,0,1,.866-.121c.4-.011.8-.01,1.207-.006.3,0,.6,0,.895,0a1.356,1.356,0,0,1,.975.415q1.353,1.415,2.718,2.819,1.2,1.236,2.386,2.475a1.246,1.246,0,0,0,.966.411h.013c1.22-.011,2.44-.009,3.661-.006h.771l.092,0c-.006.025-.014.055-.025.09a1.8,1.8,0,0,1-1.866,1.419c-1.747.012-3.5.013-5.243-.01a.7.7,0,0,1-.417-.179q-2.094-2.082-4.151-4.2a.686.686,0,0,0-.551-.284.718.718,0,0,0-.509.281c-.264.3-.572.584-.843.837a.664.664,0,0,0-.239.458.651.651,0,0,0,.216.459L7.1,32.117q1.487,1.5,2.978,3a.972.972,0,0,0,.653.251l.936.005c1.8.011,3.594.02,5.392-.005a4.336,4.336,0,0,0,4.284-3.9,9.486,9.486,0,0,0,.026-1.327c-.006-.251-.014-.5-.009-.755a.687.687,0,0,0-.172-.525.871.871,0,0,0-.576-.187q-2.789.013-5.581,0a.582.582,0,0,1-.313-.061c-.078-.061-.24-.194-.263-.176a2.314,2.314,0,0,1,.2-.337l.318-.476q1.094-1.637,2.177-3.28a.352.352,0,0,1,.36-.2q11.331.013,22.662,0c.177-.036.268.04.365.188q.911,1.392,1.837,2.773l.737,1.106a.278.278,0,0,1,.02.27.327.327,0,0,1-.255.188,1.968,1.968,0,0,1-.225.008H37.27c-.555,0-.848.026-.91.592-.006.058-.014.13-.029.217a5.72,5.72,0,0,0,.268,2.962,4.3,4.3,0,0,0,4.109,2.921q3.1.023,6.214-.006a1.165,1.165,0,0,0,.768-.321q1.355-1.349,2.7-2.706,1.077-1.085,2.154-2.165a.71.71,0,0,0,.25-.51.7.7,0,0,0-.271-.49c-.265-.237-.517-.487-.776-.746l-.573-.562L49,30.056c-.823.833-1.647,1.666-2.462,2.505a.628.628,0,0,1-.5.222h-.008c-1-.008-2-.005-3-.005-.712,0-1.426,0-2.139,0a1.822,1.822,0,0,1-1.94-1.46c-.005-.019-.01-.035-.013-.051H39.6c1.287,0,2.574-.008,3.861.005a1.276,1.276,0,0,0,.978-.413q1.31-1.365,2.628-2.724,1.241-1.281,2.478-2.565a1.207,1.207,0,0,1,.792-.407h.718c.664-.006,1.359,0,2.029.046a2.195,2.195,0,0,1,1.989,2.129c.021,2.078.019,4.157.017,6.235v2.6c0,1.328,0,2.655-.021,3.981a2.707,2.707,0,0,1-.279,1.135l-4.459-7.119-.687.427c-.356.223-.7.436-1.036.644a.552.552,0,0,0-.269.341.646.646,0,0,0,.13.5L51.864,41.5c1.031,1.645,2.062,3.29,3.077,4.946a1.737,1.737,0,0,1,.142.721l.018.248a2.184,2.184,0,0,1,0,.625,1.534,1.534,0,0,1-.628.041c-.109-.006-.217-.012-.318-.012q-25.6,0-51.2,0H2.8c-.059,0-.12,0-.172,0" transform="translate(0 0.902)"/>
      <path id="Path_96702" data-name="Path 96702" d="M26.187,12.69a4.78,4.78,0,0,0,1.072.121,5.385,5.385,0,0,0,4.6-2.74,6.316,6.316,0,0,0,.774-3.552,7.817,7.817,0,0,0-.4-3.007A5.407,5.407,0,0,0,26.887.019,5.2,5.2,0,0,0,22.341,3.43a8.4,8.4,0,0,0-.113,5.647,5.14,5.14,0,0,0,3.959,3.612m-1.754-6.3,0-.106a4.736,4.736,0,0,1,.369-2.048,2.7,2.7,0,0,1,2.586-1.616,2.765,2.765,0,0,1,2.522,2.211,6.586,6.586,0,0,1-.117,3.5,2.613,2.613,0,0,1-2.34,1.832,2.724,2.724,0,0,1-2.838-2.126,7.193,7.193,0,0,1-.142-1.129c-.013-.174-.026-.349-.044-.522" transform="translate(1.588 0)" fill="#1a73e9"/>
      <path id="Path_96703" data-name="Path 96703" d="M41.841,16.511a11.019,11.019,0,0,0,.138,1.309,5.494,5.494,0,0,0,2.343,3.57,5.186,5.186,0,0,0,2.908.915,4.8,4.8,0,0,0,.956-.094,5.643,5.643,0,0,0,4.2-3.972,10.705,10.705,0,0,0,.219-2.587V15.3a5.743,5.743,0,0,0-.456-2.361A5.226,5.226,0,0,0,47.4,9.53a5.12,5.12,0,0,0-4.747,2.676A6.58,6.58,0,0,0,41.8,15.9v.024c.017.2.031.392.044.588m5.374-4.393a2.484,2.484,0,0,1,2.433,1.607,5.508,5.508,0,0,1-.036,4.444,2.61,2.61,0,0,1-2.706,1.507,2.886,2.886,0,0,1-2.376-2.318c-.055-.332-.083-.667-.109-1L44.38,15.9a4.548,4.548,0,0,1,.445-2.269,2.641,2.641,0,0,1,2.39-1.511" transform="translate(3.044 0.694)" fill="#1a73e9"/>
      <path id="Path_96704" data-name="Path 96704" d="M7.311,22.293h.121a5.128,5.128,0,0,0,4.31-2.49,5.963,5.963,0,0,0,.918-3.59l.129-.009-.046-.342c-.033-.239-.059-.477-.084-.718A11.333,11.333,0,0,0,12.4,13.5a5.459,5.459,0,0,0-4.789-3.98A5.552,5.552,0,0,0,2.6,12.372c-.916,1.552-.928,5.5-.021,7.029a5.286,5.286,0,0,0,4.731,2.892M4.563,14.648a2.822,2.822,0,0,1,1.478-2.21,2.5,2.5,0,0,1,1.235-.329,2.567,2.567,0,0,1,.908.168,2.914,2.914,0,0,1,1.708,1.836,1.643,1.643,0,0,1,.092.329c.039.354.069.708.1,1.063l.034.416a4.878,4.878,0,0,1-.364,2.123A2.735,2.735,0,0,1,7.15,19.7a2.794,2.794,0,0,1-2.468-2,7.12,7.12,0,0,1-.119-3.048" transform="translate(0.139 0.692)" fill="#1a73e9"/>
    </g>
  </g>
</svg>
