<svg xmlns="http://www.w3.org/2000/svg" width="65.049" height="45.75" viewBox="0 0 65.049 45.75">
  <g id="Group_35551" data-name="Group 35551" transform="translate(0 0.001)">
    <g id="Group_35552" data-name="Group 35552" transform="translate(0 0)">
      <path id="Path_96695" data-name="Path 96695" d="M0,39.393a5.7,5.7,0,0,0,.041.875,5.548,5.548,0,0,0,5.694,4.846q7.352.013,14.706.009h7.441q11.662,0,23.325,0l.676,0a17.37,17.37,0,0,0,2.459-.11,5.56,5.56,0,0,0,4.591-5.66c-.035-3.4-.026-6.847-.016-10.186V29q.007-2.23.009-4.459V21.07l-3.2-1.58v4.652q0,7.519,0,15.038a6.155,6.155,0,0,1-.076.852c-.02.146-.035.262-.048.38l-.084.8L40.64,26.329l.117-.116,6.327-6.25a4.849,4.849,0,0,1-1.54-2.864Q38.648,24,31.75,30.889l-1.169,1.168a1.333,1.333,0,0,1-2.242,0L7.391,11.117c-.084-.085-.165-.171-.266-.282l-.8-.857H43.494a4.658,4.658,0,0,1-.982-3.15H24.058q-9.158,0-18.317,0A5.543,5.543,0,0,0,0,12.55Q0,25.97,0,39.393m21.455-9.665c.73.718,1.489,1.466,2.244,2.215.273.27.542.541.813.813l.162.163c.5.507,1.007,1.015,1.519,1.513a4.436,4.436,0,0,0,6.549-.021q1.588-1.576,3.162-3.17l1.845-1.857c.092-.092.184-.18.262-.253l.344-.324.112.112L51.455,41.9H7.547L20.583,28.866ZM3.192,11.5,18.159,26.464l-.53.531L3.421,41.192l-.1-.77c-.011-.088-.025-.176-.039-.264l-.008-.043a4.639,4.639,0,0,1-.081-.744q-.007-8.928,0-17.858Z" transform="translate(0 0.624)"/>
      <path id="Path_96696" data-name="Path 96696" d="M56.273,19.166a2.328,2.328,0,0,1-1.091-.3q-.892-.476-1.787-.944c-.7-.368-1.4-.736-2.1-1.109-1.305.705-2.616,1.387-3.93,2.062a2.06,2.06,0,0,1-2.074-.046,2.124,2.124,0,0,1-.911-1.939l.014-.13c.059-.343.115-.692.17-1.048.14-.885.285-1.8.5-2.72.138-.583.065-.742-.272-1.023-.679-.565-1.3-1.19-1.89-1.791-.279-.283-.557-.564-.841-.839a1.98,1.98,0,0,1-.646-2.171,2.064,2.064,0,0,1,1.814-1.4l1.779-.256c.835-.121,1.669-.243,2.5-.356q.517-1.064,1.041-2.119l.862-1.753a2.012,2.012,0,0,1,3.754-.008l.8,1.629c.37.751.74,1.5,1.1,2.255,1.1.143,2.2.3,3.288.463l1.077.157a2.037,2.037,0,0,1,1.722,1.363,1.931,1.931,0,0,1-.56,2.11l-.921.907c-.749.739-1.5,1.476-2.258,2.2.179.988.347,1.957.515,2.927l.17.98a1.859,1.859,0,0,1,.05.968,2.914,2.914,0,0,1-.626,1.376,1.694,1.694,0,0,1-1.259.547m-4.981-4.594a1.859,1.859,0,0,1,.891.242c.742.4,1.484.789,2.227,1.18.529.278,1.06.557,1.587.837-.019-.077-.029-.131-.039-.183l-.169-.98c-.176-1.011-.351-2.022-.535-3.03a1.848,1.848,0,0,1,.571-1.764c.785-.743,1.554-1.5,2.325-2.262l.713-.7-.815-.122c-1.136-.166-2.272-.333-3.412-.477a1.783,1.783,0,0,1-1.467-1.073c-.379-.79-.766-1.576-1.154-2.362L51.3,2.416,50.515,4.01q-.563,1.141-1.121,2.282A1.726,1.726,0,0,1,48,7.3c-.891.118-1.778.248-2.666.379l-1.606.231c.248.242.492.49.737.737C45.044,9.239,45.6,9.8,46.2,10.3a2.938,2.938,0,0,1,1,3.2c-.2.839-.336,1.715-.47,2.559-.04.256-.08.509-.121.758,1.305-.667,2.569-1.327,3.822-2.006a1.79,1.79,0,0,1,.868-.237M56.02,16.8v0" transform="translate(3.774 0)" fill="#1a73e9"/>
    </g>
  </g>
</svg>
