<svg xmlns="http://www.w3.org/2000/svg" width="36.237" height="62.5" viewBox="0 0 36.237 62.5">
  <g id="Group_35542" data-name="Group 35542" transform="translate(0 0)">
    <g id="Group_35543" data-name="Group 35543">
      <path id="Path_96684" data-name="Path 96684" d="M36.233,17.353l-.005-8.489c0-.767-.036-1.512-.106-2.216A6.929,6.929,0,0,0,28.842.007C22.378-.006,15.488,0,7.155.017A7.838,7.838,0,0,0,5.18.24C2.046,1.067.017,3.979.012,7.659,0,13.693,0,16.947.006,21.2l0,6.8L0,45.5C0,48.69,0,51.987.029,55.23a7.669,7.669,0,0,0,2.277,5.33A6.941,6.941,0,0,0,7.239,62.5c.067,0,.134,0,.2,0,5.319-.129,10.729-.1,15.965-.064q2.92.017,5.842.027h.018A6.189,6.189,0,0,0,35.3,58.573a13.232,13.232,0,0,0,.9-4.979c.049-13.915.043-23.768.036-36.241M2.452,28.207c0-2.405,0-4.352,0-6.093-.006-4.467-.01-7.7.05-13.978a8.827,8.827,0,0,1,.965-3.673,3.772,3.772,0,0,1,3.5-2.029c.276-.009.556,0,.838,0a11.279,11.279,0,0,0,1.373-.028,2.247,2.247,0,0,1,1.7.275,1.916,1.916,0,0,1,.537,1.377c.054.672,1.258,1.531,1.974,1.562,3.192.142,6.411.1,9.432.046a2.122,2.122,0,0,0,2.2-2.223,1.145,1.145,0,0,1,.272-.831,1.247,1.247,0,0,1,.944-.208c.546.029,1.1.023,1.634.016.319-.005.639-.008.958,0a4.637,4.637,0,0,1,4.794,4.043,10.138,10.138,0,0,1,.132,1.754l0,5.658c.007,14.5.011,24.979-.029,40.36a8.48,8.48,0,0,1-.707,3.374A3.868,3.868,0,0,1,29.244,60h0q-3.75.006-7.5,0-7.351.006-14.7-.009a4.678,4.678,0,0,1-4.552-4.821c-.061-1.613-.052-3.256-.042-4.847q.006-.927.007-1.854Z" fill="#1a73e9"/>
      <path id="Path_96685" data-name="Path 96685" d="M18.255,39.685h.014A11.443,11.443,0,0,0,18.228,16.8h-.04a11.488,11.488,0,0,0-8.171,3.331A11.294,11.294,0,0,0,6.7,28.188a11.41,11.41,0,0,0,11.559,11.5m-.136-20.747H18.2a9.3,9.3,0,0,1,6.378,15.979,9.128,9.128,0,0,1-6.409,2.625h-.151a9.3,9.3,0,1,1,.1-18.6"/>
      <path id="Path_96686" data-name="Path 96686" d="M16.621,32.382l-3.565-3.566,1.13-1.131,2.435,2.433,5.435-5.433,1.13,1.131Z"/>
    </g>
  </g>
</svg>
