<svg xmlns="http://www.w3.org/2000/svg" width="42.54" height="44.317" viewBox="0 0 42.54 44.317">
  <g id="Group_35497" data-name="Group 35497" transform="translate(0.001)">
    <g id="Group_35369" data-name="Group 35369">
      <path id="Path_96498" data-name="Path 96498" d="M41.936,24.791c-.313-.455-.632-.905-.951-1.355l-.132-.187c-.348-.491-.695-.982-1.04-1.481a3.948,3.948,0,0,1-.992-3.41,11.191,11.191,0,0,0-.741-7.119,17.394,17.394,0,0,0-8.039-9.145A18.8,18.8,0,0,0,20.953,0a40.709,40.709,0,0,0-5.587.523,18.4,18.4,0,0,0-6.9,2.538,17.416,17.416,0,0,0-7.393,8.6,15.581,15.581,0,0,0,.312,12.087,40.765,40.765,0,0,0,1.929,3.862l.269.493A18.079,18.079,0,0,1,5.2,32.838a14.974,14.974,0,0,1-.042,7.033c-.189.753-.442,1.488-.714,2.276l-.038.112c-.113.328-.228.662-.339,1l-.079.242.231.106c.106.05.216.1.327.146l.04-.091-.016.1c.259.113.527.231.777.369a.824.824,0,0,0,.4.119.564.564,0,0,0,.171-.026.786.786,0,0,0,.428-.449A17.724,17.724,0,0,0,7.908,37.9a19.193,19.193,0,0,0-.583-6.5A18.525,18.525,0,0,0,5.5,26.618a20.716,20.716,0,0,1-2.923-7.331,12.376,12.376,0,0,1,.178-5.139A15.111,15.111,0,0,1,10.787,4.52a18.977,18.977,0,0,1,6.194-1.876,24.559,24.559,0,0,1,3.731-.261,28.347,28.347,0,0,1,4.011.417,14.154,14.154,0,0,1,5.791,2.421,14.484,14.484,0,0,1,4.435,4.967c1.66,3.02,2.126,5.648,1.464,8.272a3.227,3.227,0,0,0,.073,2.244,18.558,18.558,0,0,0,1.154,2.115c.433.667.912,1.342,1.335,1.938.288.405.575.81.856,1.221.141.2.325.492.295.613-.034.137-.412.338-.573.424-.441.235-.909.489-1.366.785a1.323,1.323,0,0,0-.547,1.552,4.553,4.553,0,0,0,.243.684c.042.092.068.159.085.206a2.2,2.2,0,0,1-.231.01q-.451,0-.9,0c-.414,0-.827,0-1.241,0-.191.006-.353,0-.49,0H35.02c-.388,0-.628-.011-.8.16s-.176.42-.174.889c0,.156,0,.345,0,.572a.754.754,0,0,0,.173.551.8.8,0,0,0,.571.182c.814-.011,1.6-.01,2.546-.008h1.392A1.873,1.873,0,0,0,40.5,29.948c-.244-.595-.244-.595.347-.912.05-.027.1-.058.155-.094l.066-.042a2.694,2.694,0,0,0,.869-4.109" fill="#1a73e8"/>
      <path id="Path_96499" data-name="Path 96499" d="M24.044,8.67a3.867,3.867,0,0,0-1.381-3.983,3.85,3.85,0,0,0-4.034-.608,3.749,3.749,0,0,0-2.514,3.528A3.641,3.641,0,0,0,18.24,11.33c.614.3.794.588.716,1.16a1.766,1.766,0,0,0-.007.309l0,24.087c0,.635,0,.953.223,1.175s.51.219,1.024.219h.133c.873,0,1-.132,1-1V32.953q0-10.453-.008-20.907c0-.338.064-.436.365-.554A3.671,3.671,0,0,0,24.044,8.67m-3.99-2.517h.027a1.758,1.758,0,0,1,1.7,1.634,1.75,1.75,0,0,1-1.626,1.668,1.717,1.717,0,0,1-1.21-.516,1.64,1.64,0,0,1-.487-1.177,1.754,1.754,0,0,1,1.6-1.609"/>
      <path id="Path_96500" data-name="Path 96500" d="M15.988,26.537c-.352-.328-.688-.67-1.021-1.009-.352-.356-.716-.726-1.093-1.073-.456-.42-.571-.657-.353-1.238a3.825,3.825,0,0,0-.556-3.6A3.919,3.919,0,0,0,9.54,17.983,3.876,3.876,0,0,0,6.223,20a3.731,3.731,0,0,0,.008,3.989,3.971,3.971,0,0,0,5.109,1.683.333.333,0,0,1,.459.083c.826.843,1.5,1.51,2.111,2.1a.9.9,0,0,1,.3.736c-.009,1.716-.008,3.432-.007,5.147l0,4.027c0,1.744,0,3.548-.012,5.322a.956.956,0,0,0,.242.744.77.77,0,0,0,.533.177A1.667,1.667,0,0,0,15.15,44a2.626,2.626,0,0,1,.345,0A2.193,2.193,0,0,0,16,43.966a.752.752,0,0,0,.547-.618c.008-1.646,0-3.232,0-5.134l-.009-3.964c0-2.072-.007-4.215.02-6.319a1.687,1.687,0,0,0-.571-1.394M8.057,22.006a1.688,1.688,0,0,1,.509-1.186,1.577,1.577,0,0,1,1.1-.478h0a1.717,1.717,0,0,1,1.22.515,1.626,1.626,0,0,1,.471,1.168,1.609,1.609,0,0,1-.5,1.134,1.665,1.665,0,0,1-1.158.472h0a1.766,1.766,0,0,1-1.637-1.625"/>
      <path id="Path_96501" data-name="Path 96501" d="M23.16,17.243a1.723,1.723,0,0,0-.423,1.024c-.032.584-.027,1.176-.021,1.76v.115c0,.19,0,.381,0,.571v1.946c0,1.285.121,1.408,1.419,1.457a1.276,1.276,0,0,0,.268.031.641.641,0,0,0,.421-.136.9.9,0,0,0,.247-.723c-.025-1.562-.023-2.926.007-4.171a1.044,1.044,0,0,1,.255-.614c.426-.458.879-.908,1.332-1.358.3-.293.593-.587.885-.887.128-.134.185-.145.356-.067a3.988,3.988,0,0,0,3.481-.078,3.94,3.94,0,0,0,2.1-2.725A3.815,3.815,0,0,0,32.1,9.423a3.883,3.883,0,0,0-4.17-.577A3.957,3.957,0,0,0,25.8,11.083a3.779,3.779,0,0,0,.051,2.987c.117.253.083.4-.143.612-.964.918-1.8,1.755-2.551,2.561m6.378-3.079a1.618,1.618,0,0,1-1.589-1.66,1.571,1.571,0,0,1,1.609-1.59,1.6,1.6,0,0,1,1.144.442,1.671,1.671,0,0,1,.462,1.2,1.605,1.605,0,0,1-.462,1.153,1.622,1.622,0,0,1-1.162.45Z"/>
      <path id="Path_96502" data-name="Path 96502" d="M17.5,18.259h0a1.526,1.526,0,0,0-.4-.952c-.857-.9-1.7-1.733-2.717-2.73-.151-.148-.149-.2-.077-.351a3.775,3.775,0,0,0,.258-2.7,4.07,4.07,0,0,0-2.533-2.794,4.029,4.029,0,1,0,.267,7.473c.2-.087.259-.075.4.072.71.737,1.453,1.48,2.208,2.208a.684.684,0,0,1,.245.589c-.023.483-.019.973-.014,1.463,0,.136,0,.271,0,.4l-.005.633c0,.323,0,.645,0,.968,0,.191,0,.354,0,.494v.052c-.005.439-.008.68.167.858s.408.171.824.174c.159,0,.356,0,.6.007h.049a.738.738,0,0,0,.543-.185.835.835,0,0,0,.2-.623c-.006-.7-.006-1.4-.006-2.1,0-.972,0-1.977-.015-2.964M9.03,12.494a1.5,1.5,0,0,1,.449-1.085,1.7,1.7,0,0,1,1.206-.494h0a1.633,1.633,0,0,1,1.625,1.636,1.575,1.575,0,0,1-.472,1.111,1.676,1.676,0,0,1-1.175.5,1.633,1.633,0,0,1-1.636-1.67"/>
      <path id="Path_96503" data-name="Path 96503" d="M37.179,33.042h0c-.475.025-1.193.064-1.255.968,0,0-.006.066-.134.218a3.941,3.941,0,0,0-.955,3,.8.8,0,0,1-.531.9,4.423,4.423,0,0,1-1.809.255c-1.8-.284-3.608-.689-5.358-1.082l-.092-.021a.814.814,0,0,1-.463-.392c-.541-1.244-1.016-2.5-1.37-3.453A.844.844,0,0,0,24.8,32.9a.771.771,0,0,0-.608.04c-.189.08-.4.148-.593.214-.1.033-.2.067-.3.1a.688.688,0,0,0-.424.336.628.628,0,0,0,.015.51c.112.286.213.577.311.857.119.343.253.732.412,1.11.082.2.16.4.238.6.457,1.185.929,2.41,2.407,2.885-.01.028-.02.055-.031.081l-.473,1.114q-.486,1.135-.961,2.276a.8.8,0,0,0,0,.76.776.776,0,0,0,.675.306,2,2,0,0,1,.57.148,1.1,1.1,0,0,0,.381.078.635.635,0,0,0,.3-.072.9.9,0,0,0,.4-.62,9.6,9.6,0,0,1,1.37-3.084.594.594,0,0,1,.768-.274,14.05,14.05,0,0,0,4.417.484,3.484,3.484,0,0,0,3.514-3.575,2.039,2.039,0,0,1,.466-1.424,3.913,3.913,0,0,0,.656-1.4c.135-.527.208-.861.011-1.1s-.552-.234-1.13-.2" fill="#1a73e8"/>
      <path id="Path_96504" data-name="Path 96504" d="M23.693,30.708l.008-.1,0,.1h0a2.594,2.594,0,0,1,.332,0c.153.012.278.021.382.021a.631.631,0,0,0,.444-.133c.181-.16.191-.385.21-.8l0-.068a1.509,1.509,0,0,1,.171-.749c1.127-1.2,2.277-2.321,3.252-3.26a.475.475,0,0,1,.318-.052,4.154,4.154,0,0,0,3.583-.132,4.016,4.016,0,0,0-3-7.409,3.837,3.837,0,0,0-2.493,2.006,4.149,4.149,0,0,0-.1,3.4.472.472,0,0,1-.145.629c-.429.418-.858.85-1.272,1.269l-.044.044c-.58.586-1.179,1.191-1.789,1.761a2.158,2.158,0,0,0-.865,2.065c.01.089.012.181.015.275v.031a1.654,1.654,0,0,0,.186.884c.157.239.483.224.805.214m5.651-7.583a1.566,1.566,0,0,1-.469-1.113,1.663,1.663,0,0,1,1.595-1.67,1.683,1.683,0,0,1,1.2.48,1.605,1.605,0,0,1,.458,1.153,1.694,1.694,0,0,1-.481,1.174,1.565,1.565,0,0,1-1.126.482,1.686,1.686,0,0,1-1.18-.506"/>
    </g>
  </g>
</svg>
