<svg xmlns="http://www.w3.org/2000/svg" width="58.615" height="47.216" viewBox="0 0 58.615 47.216">
  <g id="Group_35521" data-name="Group 35521" transform="translate(0)">
    <g id="Group_35522" data-name="Group 35522" transform="translate(0 0)">
      <path id="Path_96649" data-name="Path 96649" d="M58.609,16.168c-.1-3.762-.1-7.422,0-10.879a5.1,5.1,0,0,0-1.394-3.747A5.245,5.245,0,0,0,53.411,0Q47.84-.005,42.27,0L35.182,0a5.366,5.366,0,0,0-3.923,1.614A4.806,4.806,0,0,0,30,5.308c0,.062.013.2.016.319-.117,0-.258,0-.376,0H8.8c-2.947,0-4.571,1.628-4.571,4.585l0,14.607L4.221,32.2c-.009,1.264-.016,2.528.023,3.791.005.15-.005.236,0,.268A1.075,1.075,0,0,1,4,36.252a7.793,7.793,0,0,0-1.264-.005A2.645,2.645,0,0,0,.005,39.1C0,39.948,0,40.8.005,41.648A5.273,5.273,0,0,0,2.24,46.019a6.693,6.693,0,0,0,4.185,1.2h.013q8.665-.008,17.335,0H41.306q5.3,0,10.589-.008c3.067-.011,5.382-1.712,5.9-4.337a16.954,16.954,0,0,0,.131-4.122l-.016-.329A2.178,2.178,0,0,0,56.044,36.4a9.462,9.462,0,0,0-2.06-.141l-.1,0a1.082,1.082,0,0,0-.118,0,1.3,1.3,0,0,1-.02-.264c.027-4.449.027-9.128,0-14.308,0-.159.012-.239,0-.256a1.014,1.014,0,0,1,.242-.044,4.951,4.951,0,0,0,4.621-5.221m-3.2,22.919-.01.326a17.138,17.138,0,0,0,.015,1.9,2.865,2.865,0,0,1-.717,2.254,3.758,3.758,0,0,1-2.714,1.13c-1.9.022-3.806.016-5.707.013l-17.288,0H6.219a3.44,3.44,0,0,1-3.471-2.026,4.259,4.259,0,0,1-.158-1.249l-.01-.272c-.022-.515-.015-1.032-.009-1.547l.007-.65c0-.086.013-.131.009-.131a.456.456,0,0,1,.187-.039c.1-.005.2,0,.306,0H7.655q6.7,0,13.388-.011h.014c.169,0,.274,0,.274-.03a.96.96,0,0,1,.034.207A2.975,2.975,0,0,0,24.47,41.72c3.211.047,6.163.048,9.023,0a3.041,3.041,0,0,0,3.166-2.937v0q9.219.018,18.434,0a.714.714,0,0,1,.286.039.564.564,0,0,1,.034.264M30.013,8.456c0,.787.007,1.573.014,2.36.015,1.767.031,3.594-.033,5.38a4.884,4.884,0,0,0,1.272,3.61,5.509,5.509,0,0,0,3.874,1.634,8.68,8.68,0,0,1,.868.048c.024.177.024.532.024.876l0,1.012c0,.927-.009,1.853.023,2.779a1.794,1.794,0,0,0,.761,1.5,1.755,1.755,0,0,0,1.682-.4c.89-.766,1.773-1.542,2.656-2.317,1.176-1.033,2.35-2.065,3.545-3.076a1.813,1.813,0,0,1,.994-.393c.968-.036,1.939-.033,2.907-.028.824,0,1.645.007,2.467-.013.083,0,.144,0,.183.005a1.55,1.55,0,0,1,.012.231c-.025,5.6-.023,10.15.005,14.313,0,.145-.011.225,0,.251a1.788,1.788,0,0,1-.325.022q-5.64-.023-11.281-.011H36.236c-1.729,0-2.085.349-2.109,2.068-.01.72-.179.885-.9.887q-4.226.018-8.458,0c-.766,0-.9-.144-.907-.949-.012-1.6-.411-2-2.031-2H7.058c-.1,0-.223,0-.327,0,0-.106,0-.228,0-.324l0-25.685c0-1.524.543-2.066,2.071-2.073,2.351-.013,4.7-.012,7.052-.009h6.4l7.473,0c.062,0,.18,0,.286,0,0,.108,0,.231,0,.3M45.367,18.882a3.166,3.166,0,0,0-2.127.825c-1.291,1.167-2.6,2.314-3.91,3.461l-.728.638,0-2.558c0-1.007.007-1.562-.406-1.971a1.868,1.868,0,0,0-1.442-.387c-.126,0-.259,0-.4,0l-.377,0a4.027,4.027,0,0,1-2.372-.437,2.17,2.17,0,0,1-1.086-1.914l0-1.855c0-3.276-.008-6.549.008-9.825.008-1.4,1.11-2.345,2.744-2.348q5.91-.01,11.821-.005h3.941l.763,0c.558-.005,1.117-.009,1.675.008a2.4,2.4,0,0,1,2.544,2.615q0,5.648,0,11.3a2.308,2.308,0,0,1-2.434,2.454c-2.9.03-5.583.028-8.213,0" transform="translate(0 0)"/>
      <path id="Path_96650" data-name="Path 96650" d="M26.333,24.247a8.033,8.033,0,0,0-1.49-.335,6.076,6.076,0,0,0,1.322-3.649,6.22,6.22,0,0,0-1.946-4.8,6.1,6.1,0,0,0-7.7-.78A6.705,6.705,0,0,0,13.5,19.113,7.085,7.085,0,0,0,14.843,23.9a5.2,5.2,0,0,0-4.776,3.95,10.915,10.915,0,0,0-.2,2.846l.01.612a1.409,1.409,0,0,0,.517.967,2.151,2.151,0,0,1,.146.159l.568.733.554-.743a1.953,1.953,0,0,1,.142-.163,1.617,1.617,0,0,0,.5-.89,9.313,9.313,0,0,0,.041-1.269c0-.235-.008-.472,0-.708a2.959,2.959,0,0,1,3.051-3c2.951-.026,5.923-.028,8.834,0a2.95,2.95,0,0,1,3.087,3.093c0,.2,0,.4,0,.6a10.483,10.483,0,0,0,.05,1.394,1.415,1.415,0,0,0,.566.869,1.733,1.733,0,0,1,.144.133l.55.6.517-.635a1.647,1.647,0,0,1,.137-.14,1.425,1.425,0,0,0,.517-.879,17.169,17.169,0,0,0,.036-1.984l-.005-.247a5.276,5.276,0,0,0-3.5-4.953m-10.3-4.288A3.744,3.744,0,0,1,17.2,17.313a3.8,3.8,0,0,1,5.4.12,3.693,3.693,0,0,1,1.048,2.653,3.839,3.839,0,0,1-3.789,3.775h-.05a3.865,3.865,0,0,1-3.783-3.9" transform="translate(0.825 1.141)" fill="#1a73e9"/>
      <path id="Path_96651" data-name="Path 96651" d="M35.647,8.45A1.67,1.67,0,0,0,33.869,9.97a1.6,1.6,0,0,0,.443,1.313,1.66,1.66,0,0,0,1.194.562c.028,0,.057,0,.086,0a1.739,1.739,0,0,0,1.67-1.547l.017-.1-.011-.1A1.7,1.7,0,0,0,35.647,8.45" transform="translate(2.831 0.706)"/>
      <path id="Path_96652" data-name="Path 96652" d="M40.892,8.442a1.693,1.693,0,0,0-1.568,1.61l0,.037v.037a1.835,1.835,0,0,0,.6,1.307,1.523,1.523,0,0,0,1.024.415c.038,0,.076,0,.114-.005A1.7,1.7,0,0,0,42.147,8.9a1.582,1.582,0,0,0-1.255-.458" transform="translate(3.288 0.705)"/>
      <path id="Path_96653" data-name="Path 96653" d="M46.481,8.433a1.528,1.528,0,0,0-1.2.49,1.744,1.744,0,0,0-.5,1.295,1.6,1.6,0,0,0,1.642,1.615h.064a1.594,1.594,0,0,0,1.63-1.544v-.031a1.784,1.784,0,0,0-1.642-1.823" transform="translate(3.745 0.705)"/>
    </g>
  </g>
</svg>
