<svg xmlns="http://www.w3.org/2000/svg" width="54.831" height="57.754" viewBox="0 0 54.831 57.754">
  <g id="Group_35527" data-name="Group 35527" transform="translate(0 -0.001)">
    <g id="Group_35528" data-name="Group 35528" transform="translate(0 0)">
      <path id="Path_96665" data-name="Path 96665" d="M54.827,25.176c0-1.773-.389-2.157-2.189-2.158l-2.787,0c-4.068,0-8.135-.008-12.2.015-.47.01-.526-.068-.534-.075s-.075-.084-.064-.478c.047-1.545.036-3.088.026-4.634l-.008-1.515c0-1.7-.441-2.139-2.118-2.139H18.759c-1.871,0-2.275.409-2.275,2.292l0,17.294c0,.248,0,.711,0,.763a3.669,3.669,0,0,1-.8.049l-13.376,0c-1.957,0-2.3.353-2.3,2.342Q0,43.317,0,49.7c0,2.089.364,2.455,2.426,2.458l31.252,0H52.614c1.78,0,2.214-.422,2.214-2.148q0-12.418,0-24.836M52.02,37.546l0,2.769c-.006,2.8-.01,5.6.021,8.4,0,.409-.066.5-.079.513s-.07.056-.506.079c-2.172-.015-4.385-.024-6.674-.024s-4.647.008-7.115.024a1.473,1.473,0,0,1-.523-.081c-.008-.008-.085-.095-.084-.5q.052-11.117.007-22.23c0-.428.07-.545.1-.576s.1-.128.542-.095c4.408.033,8.92.032,13.787,0,.362-.07.457.068.466.077s.078.091.075.473c-.024,2.728-.02,5.457-.017,8.185Zm-49.21.273a.748.748,0,0,1,.053-.386s.066-.081.452-.052c1.525.028,3.049.024,4.579.017l1.762,0,1.8.006c1.482.01,2.967.015,4.449-.025.389,0,.48.066.488.075s.089.109.085.533c-.032,3.437-.033,6.956,0,10.76,0,.375-.068.466-.082.48s-.07.1-.461.081q-3.26-.021-6.522-.02-3.072,0-6.146.014c-.308.021-.393-.053-.393-.054a.707.707,0,0,1-.053-.365c.033-4.068.032-7.685,0-11.06m31.452-5.188-.01,4.506c0,3.812-.008,7.622.02,11.432,0,.463-.064.6-.1.64-.024.025-.116.086-.558.1-2.249-.021-4.516-.032-6.837-.032-2.221,0-4.492.01-6.843.029-.448-.008-.528-.07-.542-.085s-.092-.113-.091-.558q.042-15.478,0-30.955c0-.443.072-.565.1-.6s.149-.1.6-.1c4.48.038,9.048.038,13.578,0,.456-.018.572.071.6.1s.109.156.1.6c-.031,3.828-.026,7.658-.021,11.487Z" transform="translate(0 5.593)"/>
      <path id="Path_96666" data-name="Path 96666" d="M16.028,11.1a1.048,1.048,0,0,1,.322,1.174c-.192.916-.35,1.838-.5,2.7l-.173,1-.01.074a1.785,1.785,0,0,0,.634,1.693,1.22,1.22,0,0,0,.675.192,2.142,2.142,0,0,0,.941-.252c1.23-.608,2.431-1.209,3.584-1.868a.869.869,0,0,1,1.03.021c1.244.7,2.365,1.278,3.427,1.762a1.952,1.952,0,0,0,1.821-.015,2.073,2.073,0,0,0,.495-1.739c-.155-1.241-.4-2.479-.636-3.695A1.013,1.013,0,0,1,28,11.07c.747-.678,1.72-1.582,2.616-2.567a2.16,2.16,0,0,0,.634-1.8c-.233-.728-1.365-.993-1.589-1.037-.53-.109-1.069-.181-1.608-.252a17.774,17.774,0,0,1-1.93-.329,1.83,1.83,0,0,1-.982-.746c-.33-.547-.6-1.122-.894-1.73-.25-.526-.5-1.051-.786-1.556A2.12,2.12,0,0,0,22,.005c-.616-.067-1.213.6-1.449,1.028-.524.948-1.036,1.987-1.662,3.366a1.029,1.029,0,0,1-.908.7c-1.266.156-2.5.318-3.714.567A2.28,2.28,0,0,0,12.723,6.7c-.336.728.583,1.727.622,1.769.81.871,1.688,1.733,2.684,2.635m8.75,1.079a10.244,10.244,0,0,1,.279,1.7l.008.074a2.55,2.55,0,0,1-.584-.3A4.094,4.094,0,0,0,21.99,12.7a4.028,4.028,0,0,0-2.457.936,2.8,2.8,0,0,1-.567.31c0-.022.007-.045.011-.066a14.118,14.118,0,0,0,.261-2.185,3.39,3.39,0,0,0-.68-2.026,12.2,12.2,0,0,0-1.476-1.488L17.01,8.12a10.484,10.484,0,0,1,1.241-.17A3.153,3.153,0,0,0,21.4,5.7a7.116,7.116,0,0,1,.59-1.213A16.717,16.717,0,0,1,22.785,6.1a2.633,2.633,0,0,0,2.338,1.754c.6.066,1.2.162,1.8.257l.088.014-.045.042c-.431.415-.86.832-1.313,1.22a2.459,2.459,0,0,0-.876,2.793" transform="translate(4.986 0)" fill="#1a73e9"/>
    </g>
  </g>
</svg>
