<svg xmlns="http://www.w3.org/2000/svg" width="48.74" height="56.991" viewBox="0 0 48.74 56.991">
  <g id="Group_35535" data-name="Group 35535" transform="translate(0 0)">
    <g id="Group_35536" data-name="Group 35536" transform="translate(0 0)">
      <path id="Path_96670" data-name="Path 96670" d="M37.457,20a14.349,14.349,0,0,0-6.44-9.055,15.466,15.466,0,0,0-2.893-1.494,14.712,14.712,0,0,0-2.878-.694,14.2,14.2,0,0,0-7.882.9,15.121,15.121,0,0,0-3.236,1.817,14.86,14.86,0,0,0-5.677,8.474,15.876,15.876,0,0,0-.239,6.269,14.074,14.074,0,0,0,3.079,7.121c.59.71,1.223,1.4,1.835,2.071.307.334.616.67.918,1.009a2.634,2.634,0,0,1,.773,1.528c.025.311.057.622.087.932a20.2,20.2,0,0,1,.138,2.2,3.894,3.894,0,0,0,1.145,2.857,3.764,3.764,0,0,0,2.661,1.084h.107c.9-.026,1.829-.02,2.719-.013.347,0,.694,0,1.042,0v.008h1.367c.992,0,1.982,0,2.976,0h.008a3.753,3.753,0,0,0,3.761-3.434l.054-.745c.069-.982.141-2,.251-2.987a2.225,2.225,0,0,1,.393-.966,9.125,9.125,0,0,1,.733-.893c.119-.134.237-.267.352-.4.288-.339.586-.671.885-1a20.933,20.933,0,0,0,1.889-2.311A15.155,15.155,0,0,0,37.457,20M28.144,38.579c-.082.674-.1,1.364-.121,2.032-.006.2-.012.411-.02.617a.915.915,0,0,1-.938.926c-.975,0-1.948,0-2.922,0H22.8v0c-.33,0-.659,0-.988,0-.923,0-1.88-.011-2.821.016h-.04a1.009,1.009,0,0,1-1.05-1.064c-.012-.38-.031-.762-.051-1.143-.021-.411-.042-.822-.053-1.231a6.987,6.987,0,0,0-2.207-4.9,30.726,30.726,0,0,1-2.407-2.753,10.817,10.817,0,0,1-2.154-5.324,14.641,14.641,0,0,1-.014-3.993A11.7,11.7,0,0,1,13.33,16.22a12.11,12.11,0,0,1,9.565-4.8,11.5,11.5,0,0,1,1.792.141,11.949,11.949,0,0,1,8.942,6.309,11.816,11.816,0,0,1,1.4,6.285,12.2,12.2,0,0,1-1.783,6.229A21.142,21.142,0,0,1,30.658,33.5l-.418.444A6.436,6.436,0,0,0,28.657,36.2a11.912,11.912,0,0,0-.513,2.381" transform="translate(1.419 1.515)" fill="#1a73e9"/>
      <g id="Group_35537" data-name="Group 35537">
        <path id="Path_96671" data-name="Path 96671" d="M25.631,40.074c-2.688-.015-5.415-.016-8.1,0a1.721,1.721,0,1,0,.046,3.438l1.607,0h1.2l2.438-.008c.926,0,1.854,0,2.78,0a1.706,1.706,0,0,0,1.8-1.691,1.651,1.651,0,0,0-.467-1.2,1.814,1.814,0,0,0-1.308-.536" transform="translate(2.791 7.095)"/>
        <path id="Path_96672" data-name="Path 96672" d="M25.68,43.386c-2.524-.02-5.091-.014-7.572-.012H17.5A1.669,1.669,0,0,0,16.16,44a1.622,1.622,0,0,0-.259,1.748,1.667,1.667,0,0,0,1.587,1.058c.585.006,1.169.007,1.754.007h1.168l2.264,0c.972,0,1.945,0,2.919,0A1.723,1.723,0,0,0,27.4,45.124a1.681,1.681,0,0,0-.467-1.223,1.755,1.755,0,0,0-1.257-.514" transform="translate(2.79 7.681)"/>
        <path id="Path_96673" data-name="Path 96673" d="M7.913,10.456c.679.678,1.358,1.356,2.032,2.041a.555.555,0,0,0,.378.2h.007a.579.579,0,0,0,.4-.24c.463-.514.977-1.061,1.573-1.67a1.006,1.006,0,0,1,.248-.162l.118-.066.187-.118-.154-.157c-.427-.437-.843-.865-1.252-1.288-1.013-1.045-1.97-2.033-2.971-3a1.637,1.637,0,0,0-2.3.127,1.72,1.72,0,0,0-.552,1.23,2.069,2.069,0,0,0,.652,1.456q.817.825,1.64,1.643" transform="translate(0.995 0.989)"/>
        <path id="Path_96674" data-name="Path 96674" d="M30.044,10.627q.27.283.543.564c.4.41.806.833,1.194,1.263a.557.557,0,0,0,.384.221h.008a.579.579,0,0,0,.394-.213q1.132-1.144,2.274-2.278.717-.713,1.431-1.429a1.8,1.8,0,1,0-2.5-2.583c-.213.2-.418.408-.623.617q-.177.18-.354.358l-3.106,3.07.2.235c.059.071.1.124.152.174" transform="translate(5.258 0.993)"/>
        <path id="Path_96675" data-name="Path 96675" d="M7.557,21.72c.04-.714.079-1.4.124-2.092a.422.422,0,0,0-.1-.334.506.506,0,0,0-.375-.119c-.275,0-.549,0-.823,0l-1.739,0c-.919,0-1.84,0-2.76,0A1.8,1.8,0,0,0,0,20.979,1.772,1.772,0,0,0,1.9,22.75H7.5Z" transform="translate(0 3.394)"/>
        <path id="Path_96676" data-name="Path 96676" d="M40.778,19.188c-1.207-.019-2.433-.018-3.621-.014-.6,0-1.2,0-1.808,0a.47.47,0,0,0-.354.122.5.5,0,0,0-.1.379c.052.869.089,1.728.109,2.553.007.224.066.52.507.52h.013c.632-.008,1.262-.006,1.893,0h1.4c.623,0,1.247,0,1.869,0a2.187,2.187,0,0,0,.674-.093,1.778,1.778,0,0,0-.584-3.461" transform="translate(6.179 3.395)"/>
        <path id="Path_96677" data-name="Path 96677" d="M19.715,7.4c.618-.028,1.267-.045,1.925-.049.206.007.4.014.611.032l.313.024.188.013v-.19q0-.849.008-1.69c.011-1.316.021-2.677-.031-4.007a1.523,1.523,0,0,0-.62-1.168,1.865,1.865,0,0,0-1.554-.31,1.735,1.735,0,0,0-1.363,1.776c-.009.964-.008,1.928-.007,2.893,0,.722,0,1.444,0,2.166a.443.443,0,0,0,.532.51" transform="translate(3.397 0)"/>
        <path id="Path_96678" data-name="Path 96678" d="M34.08,31.586l-.793-.789c-.065-.064-.132-.124-.2-.188l-.248-.227-.477.586c-.536.656-1.058,1.3-1.573,1.947a.458.458,0,0,0,.058.516l.485.488c.8.8,1.617,1.629,2.455,2.415a1.5,1.5,0,0,0,1.048.421,1.989,1.989,0,0,0,.782-.173,1.73,1.73,0,0,0,1.038-1.256,1.912,1.912,0,0,0-.554-1.715c-.665-.683-1.341-1.355-2.018-2.026" transform="translate(5.442 5.38)"/>
        <path id="Path_96679" data-name="Path 96679" d="M10.073,31.12c-.1-.125-.192-.258-.285-.392l-.25-.353-.225.17a.889.889,0,0,0-.122.1L8.33,31.5c-.725.72-1.449,1.441-2.16,2.173a1.773,1.773,0,0,0-.02,2.548,1.712,1.712,0,0,0,1.232.525A1.893,1.893,0,0,0,8.7,36.191c.53-.512,1.05-1.033,1.57-1.557.381-.383.763-.765,1.148-1.143a.459.459,0,0,0,.024-.707c-.463-.549-.915-1.1-1.364-1.663" transform="translate(0.995 5.379)"/>
        <path id="Path_96680" data-name="Path 96680" d="M24.433,46.7c-.76.016-1.522.014-2.284.011l-1.77,0c-.752,0-1.5,0-2.254,0a.449.449,0,0,0-.453.735,1.258,1.258,0,0,0,.454.563c.081.046.164.094.246.142a3.021,3.021,0,0,0,1.183.491c.633.064,1.263.085,1.846.085.481,0,.93-.015,1.322-.032a2.87,2.87,0,0,0,1.3-.427,2.829,2.829,0,0,0,.849-.892.437.437,0,0,0,.053-.456c-.057-.1-.168-.225-.49-.218" transform="translate(3.112 8.269)"/>
      </g>
    </g>
  </g>
</svg>
