<svg xmlns="http://www.w3.org/2000/svg" width="45.824" height="45.797" viewBox="0 0 45.824 45.797">
  <g id="Group_35560" data-name="Group 35560" transform="translate(0 0)">
    <g id="Group_35561" data-name="Group 35561" transform="translate(0 0)">
      <path id="Path_96705" data-name="Path 96705" d="M44.927,27.346c0,4.7.015,9.408-.008,14.112a4.1,4.1,0,0,1-2.433,3.924A4.27,4.27,0,0,1,40.6,45.8q-13.573,0-27.143,0A4.193,4.193,0,0,1,9.28,42.518a4.241,4.241,0,0,1-.116-.992q-.015-4.293-.007-8.588a1.31,1.31,0,0,1,.725-1.269,1.458,1.458,0,0,1,1.548.1A1.336,1.336,0,0,1,12,32.956q0,3.964,0,7.929c0,.2,0,.4,0,.6a1.357,1.357,0,0,0,1.461,1.467q2.361,0,4.724,0H36.963l3.55,0a1.377,1.377,0,0,0,1.569-1.558q0-10.663,0-21.325c0-1.813-.005-3.626.005-5.439,0-.267-.077-.335-.337-.333-2.262.009-4.524.027-6.785,0a4.122,4.122,0,0,1-4-2.587,4.343,4.343,0,0,1-.336-1.785q0-3.35,0-6.7c0-.372,0-.371-.373-.371l-16.348,0c-.181,0-.363,0-.544,0A1.332,1.332,0,0,0,12,4.24C11.992,5.682,12,7.122,12,8.562a1.372,1.372,0,0,1-1.517,1.445A1.332,1.332,0,0,1,9.163,8.682c-.014-1.555-.041-3.111.011-4.665a4.132,4.132,0,0,1,3.5-3.924,6.171,6.171,0,0,1,.964-.08c6.041,0,12.083,0,18.124-.013a1.9,1.9,0,0,1,1.446.6q3.164,3.189,6.351,6.357c1.585,1.585,3.163,3.178,4.76,4.75a1.948,1.948,0,0,1,.62,1.5c-.018,4.714-.01,9.428-.01,14.142M33.469,4.94v.3q0,2.358,0,4.717a1.367,1.367,0,0,0,1.508,1.505q2.358,0,4.718,0c.1,0,.2-.011.283-.015L33.469,4.94" transform="translate(0.887 0)"/>
      <path id="Path_96706" data-name="Path 96706" d="M11.529,10.434a1.268,1.268,0,0,1,1.229.77c.846,1.75,1.7,3.494,2.545,5.246a.567.567,0,0,0,.517.357c.937.112,1.869.257,2.8.386,1.029.142,2.059.278,3.088.421a1.339,1.339,0,0,1,1.163.811,1.262,1.262,0,0,1-.357,1.391c-.767.771-1.556,1.519-2.336,2.276-.649.631-1.3,1.265-1.953,1.89a.454.454,0,0,0-.162.451c.231,1.343.454,2.687.679,4.029.1.621.222,1.239.306,1.862a1.217,1.217,0,0,1-.57,1.257,1.4,1.4,0,0,1-1.505.146c-1.715-.892-3.452-1.74-5.177-2.614a.459.459,0,0,0-.475.056c-1.746.9-3.5,1.782-5.238,2.691a1.511,1.511,0,0,1-2.175-.914,3.9,3.9,0,0,1,.083-1.213c.183-1.176.389-2.35.586-3.524.091-.545.174-1.092.273-1.635A.458.458,0,0,0,4.7,24.12C3.23,22.716,1.775,21.3.3,19.9c-.3-.281-.238-.6-.29-.936-.09-.57.656-1.284,1.115-1.347q.963-.135,1.922-.291c1.382-.224,2.763-.459,4.147-.676a.513.513,0,0,0,.421-.323q1.251-2.521,2.517-5.036a1.448,1.448,0,0,1,1.4-.862M18.5,20.013l-.1-.135a.4.4,0,0,0-.1-.041q-2-.276-3.993-.55a1.143,1.143,0,0,1-.935-.62q-.862-1.678-1.729-3.355a3.126,3.126,0,0,0-.192-.282c-.079.16-.131.26-.178.361C10.8,16.4,10.32,17.41,9.87,18.43a1.649,1.649,0,0,1-1.44,1.042c-1.2.145-2.4.34-3.595.517a1.3,1.3,0,0,0-.178.05l-.087.115a1,1,0,0,1,.261.128c.834.783,1.663,1.573,2.494,2.361a1.536,1.536,0,0,1,.528,1.489c-.2,1.038-.392,2.079-.584,3.119-.037.2-.065.4-.1.646.136-.061.214-.092.286-.132,1.117-.6,2.231-1.2,3.35-1.8a1.628,1.628,0,0,1,1.589-.018q1.611.838,3.222,1.674c.071.037.148.064.275.116-.023-.2-.031-.353-.058-.5-.2-1.1-.394-2.2-.611-3.288a1.431,1.431,0,0,1,.472-1.391q1.229-1.178,2.469-2.344a1.856,1.856,0,0,1,.341-.206" transform="translate(0 1.013)" fill="#1a73e9"/>
      <path id="Path_96707" data-name="Path 96707" d="M28.274,34.165c-2.785,0-5.571,0-8.357-.007a2.446,2.446,0,0,1-.862-.148,1.323,1.323,0,0,1-.762-1.354,1.4,1.4,0,0,1,.956-1.237,1.908,1.908,0,0,1,.559-.091q8.373-.007,16.743,0a3.132,3.132,0,0,1,.626.034A1.353,1.353,0,0,1,38.3,32.9a1.336,1.336,0,0,1-1.41,1.256c-1.68.009-3.358,0-5.038,0H28.274Z" transform="translate(1.775 3.04)"/>
      <path id="Path_96708" data-name="Path 96708" d="M29.472,26.337c-2.375,0-4.75,0-7.126,0A1.37,1.37,0,0,1,20.9,24.819,1.456,1.456,0,0,1,22.4,23.5c1.812-.005,3.626,0,5.438,0q4.349,0,8.7,0a1.422,1.422,0,1,1,.058,2.84c-1.68,0-3.358,0-5.038,0H29.472Z" transform="translate(2.028 2.28)"/>
      <path id="Path_96709" data-name="Path 96709" d="M30.67,15.67c1.879,0,3.758-.007,5.638,0a1.379,1.379,0,0,1,1.414,1.887,1.315,1.315,0,0,1-1.372.945q-3.09.008-6.181,0-2.562,0-5.122,0a1.4,1.4,0,0,1-1.447-1.93,1.314,1.314,0,0,1,1.347-.9c1.459-.005,2.919,0,4.378,0H30.67" transform="translate(2.282 1.521)"/>
    </g>
  </g>
</svg>
