<svg xmlns="http://www.w3.org/2000/svg" width="50.949" height="49.492" viewBox="0 0 50.949 49.492">
  <g id="Group_35546" data-name="Group 35546" transform="translate(0 0)">
    <g id="Group_35547" data-name="Group 35547" transform="translate(0 0)">
      <path id="Path_96687" data-name="Path 96687" d="M25.476,13.786H46.35c1.114,0,1.131,0,1.113-1.133a27.209,27.209,0,0,0-.145-3.428,3.243,3.243,0,0,0-3.386-2.844c-.847-.006-1.7-.021-2.543,0-.5.014-.738-.13-.714-.672.032-.747-.014-1.5.028-2.243.01-.189.231-.53.347-.526a23.254,23.254,0,0,1,4.971.271,6.761,6.761,0,0,1,4.9,6.45c.048,1.245.016,2.494.016,3.74,0,9.5.029,19-.017,28.5a6.773,6.773,0,0,1-4.1,6.512,7.1,7.1,0,0,1-2.9.576q-18.479.057-36.958.02A6.83,6.83,0,0,1,.009,41.962q-.017-16.085,0-32.17A6.845,6.845,0,0,1,6.9,2.9c.9-.006,1.8.013,2.694,0,.473-.009.677.165.657.657-.029.722-.024,1.447,0,2.169.016.48-.167.674-.653.66-.823-.023-1.65.045-2.468-.015A3.423,3.423,0,0,0,3.5,9.747c-.071,1.118-.013,2.243-.027,3.365-.007.534.276.679.755.677,1.6-.012,3.193,0,4.788,0H25.476m-.016,3.491H4.51c-1.029,0-1.032,0-1.032,1.033q0,11.112,0,22.222c0,.5-.019,1,.006,1.5a3.409,3.409,0,0,0,3.43,3.5q18.556.01,37.112.008a3.024,3.024,0,0,0,2.965-1.886,5.7,5.7,0,0,0,.456-2.237c.032-7.707.021-15.413.02-23.119,0-1.014,0-1.016-1.055-1.016H25.46" transform="translate(0 0.461)"/>
      <path id="Path_96688" data-name="Path 96688" d="M23.157,6.381c-2.616,0-5.233-.026-7.848.016-.743.012-.978-.246-.914-.947.043-.468.009-.946.008-1.419,0-1.124,0-1.126,1.087-1.126H27.9c1.047,0,2.095.037,3.139-.012.706-.034.937.238.881.912a10.093,10.093,0,0,0,0,1.643c.057.7-.166.962-.914.949-2.615-.043-5.232-.016-7.848-.016" transform="translate(2.291 0.46)"/>
      <path id="Path_96689" data-name="Path 96689" d="M34.29,5.083c0,1.02.014,2.041,0,3.062a1.746,1.746,0,0,1-1.746,1.912A1.707,1.707,0,0,1,30.8,8.151q-.03-3.1,0-6.194C30.822.709,31.5-.009,32.573,0c1.04.009,1.7.781,1.713,2.023.01,1.02,0,2.041,0,3.06" transform="translate(4.904 -0.001)"/>
      <path id="Path_96690" data-name="Path 96690" d="M13.583,5.027c0,1.07.015,2.14,0,3.209a1.675,1.675,0,0,1-1.732,1.82,1.723,1.723,0,0,1-1.725-1.851q-.023-3.172,0-6.342A1.721,1.721,0,0,1,11.84,0a1.678,1.678,0,0,1,1.737,1.817c.022,1.069,0,2.139,0,3.209h0" transform="translate(1.61 0)"/>
      <path id="Path_96691" data-name="Path 96691" d="M34.757,20.907c-1.077,1.524-2.092,2.967-3.111,4.406q-4.036,5.7-8.074,11.4c-.158.224-.314.45-.492.657a1.681,1.681,0,0,1-2.669.054q-3.48-4.246-6.872-8.566a.725.725,0,0,1,.066-.7c.6-.554,1.275-1.034,1.9-1.563.407-.342.614-.071.844.216q2.334,2.918,4.673,5.829c.591.735.629.729,1.163-.024,3.067-4.325,6.144-8.645,9.187-12.987.412-.587.718-.694,1.286-.223.628.523,1.325.961,2.095,1.508" transform="translate(2.146 3.042)" fill="#1a73e9"/>
    </g>
  </g>
</svg>
