<svg xmlns="http://www.w3.org/2000/svg" width="23.828" height="19.106" viewBox="0 0 23.828 19.106"><defs><style>.a{fill:#009872;}</style></defs><path class="a" d="M1480.257,182.434a4.513,4.513,0,0,0-3.451-1.448c-2.6.085-5.013,1.676-4.734,5.751,0,0-3.914,1.193-10.006-4.6,0,0-1.96,3.2,1.505,6.205a3.234,3.234,0,0,1-2.272-.454s-.7,2.7,3.763,4.743c0,0-1.505.426-2.187,0,0,0,.4,2.868,4.4,3.55,0,0-2.059,2.045-6.93,1.988,0,0,10.129,5.183,17.151-1.477a14.3,14.3,0,0,0,4.319-11.1,4.473,4.473,0,0,0,2.357-2.059,9.218,9.218,0,0,1-2.641.44s1.846-1.152,1.988-2.514A5.629,5.629,0,0,1,1480.257,182.434Z" transform="translate(-1460.348 -180.983)"/></svg>