<svg xmlns="http://www.w3.org/2000/svg" width="22.635" height="20.635" viewBox="0 0 22.635 20.635"><defs><style>.a{fill:#EC0085;}</style></defs><g transform="translate(-24 -25.999)"><path class="a" d="M143.489,30.413,145.906,28V38.78a1.171,1.171,0,1,0,2.342,0V28l2.417,2.417a1.171,1.171,0,1,0,1.656-1.656L147.9,24.342a1.171,1.171,0,0,0-1.656,0l-4.415,4.415a1.171,1.171,0,0,0,1.656,1.656Z" transform="translate(-111.759 2)"/><path class="a" d="M45.464,232a1.171,1.171,0,0,0-1.171,1.171v8.976H26.342v-8.976a1.171,1.171,0,1,0-2.342,0v9.366a1.951,1.951,0,0,0,1.951,1.951H44.684a1.951,1.951,0,0,0,1.951-1.951v-9.366A1.171,1.171,0,0,0,45.464,232Z" transform="translate(0 -197.854)"/></g></svg>