<svg xmlns="http://www.w3.org/2000/svg" width="83.706" height="97.479" viewBox="0 0 83.706 97.479">
  <g id="Group_19542" data-name="Group 19542" transform="translate(-16.791 -9.177)">
    <g id="Group_19543" data-name="Group 19543" transform="translate(5.198 6.068)">
      <path id="Path_76718" data-name="Path 76718" d="M36.208,0A36.219,36.219,0,0,1,71.875,42.458L81.983,56.465a3.609,3.609,0,0,1-2.58,5.705,59.383,59.383,0,0,0-7.864,1.192V75.439a6.327,6.327,0,0,1-2.262,4.891,7.972,7.972,0,0,1-5.2,1.8A9.756,9.756,0,0,1,62.511,82L54.8,80.75v8.515a7.224,7.224,0,0,1-7.216,7.216H18.31a7.224,7.224,0,0,1-7.216-7.216v-27A36.189,36.189,0,0,1,36.208,0M11.887,58.939q1.074,1.149,2.253,2.193a4.3,4.3,0,0,0-.145,1.09V89.265A4.32,4.32,0,0,0,18.31,93.58H47.581A4.32,4.32,0,0,0,51.9,89.265V77.339l2.9.472,8.179,1.33A5.44,5.44,0,0,0,67.4,78.12a3.423,3.423,0,0,0,1.24-2.681V61.176a24.954,24.954,0,0,1,2.9-.791,65.642,65.642,0,0,1,7.587-1.1.708.708,0,0,0,.5-1.119L71.539,46.951l-.53-.735-2.221-3.077a33.187,33.187,0,0,0,.607-4.117c.078-.927.12-1.865.12-2.812,0-1.029-.049-2.047-.141-3.053A33.3,33.3,0,1,0,11.887,58.939" transform="translate(12.092 3.607)" fill="#fff" stroke="#fff" stroke-width="1"/>
      <g id="Group_19554" data-name="Group 19554" transform="translate(22.258 22.117)">
        <path id="Path_76719" data-name="Path 76719" d="M172.606,533.307l-.126.175c.041.191.082.381.126.57Z" transform="translate(-172.48 -506.635)" fill="#fff"/>
        <path id="Path_76720" data-name="Path 76720" d="M778.692,564.24h-5.371a.967.967,0,0,0-.967.967v.762a.967.967,0,0,0,.967.967h5.371a.967.967,0,0,0,.967-.967v-.762a.967.967,0,0,0-.967-.967" transform="translate(-731.648 -535.469)" fill="#fff"/>
        <path id="Path_76721" data-name="Path 76721" d="M778.692,471.083h-5.371a.967.967,0,0,0-.967.967v.762a.967.967,0,0,0,.967.967h5.371a.967.967,0,0,0,.967-.967v-.762a.967.967,0,0,0-.967-.967" transform="translate(-731.648 -448.634)" fill="#fff"/>
        <path id="Path_76722" data-name="Path 76722" d="M778.692,377.926h-5.371a.967.967,0,0,0-.967.967v.762a.967.967,0,0,0,.967.967h5.371a.967.967,0,0,0,.967-.967v-.762a.967.967,0,0,0-.967-.967" transform="translate(-731.648 -361.798)" fill="#fff"/>
        <path id="Path_76723" data-name="Path 76723" d="M778.692,284.769h-5.371a.967.967,0,0,0-.967.967v.762a.967.967,0,0,0,.967.967h5.371a.967.967,0,0,0,.967-.967v-.762a.967.967,0,0,0-.967-.967" transform="translate(-731.648 -274.962)" fill="#fff"/>
        <path id="Path_76724" data-name="Path 76724" d="M282.268,564.24H276.9a.967.967,0,0,0-.967.967v.762a.967.967,0,0,0,.967.967h5.371a.967.967,0,0,0,.967-.967v-.762a.967.967,0,0,0-.967-.967" transform="translate(-268.911 -535.469)" fill="#fff"/>
        <path id="Path_76725" data-name="Path 76725" d="M282.268,471.083H276.9a.967.967,0,0,0-.967.967v.762a.967.967,0,0,0,.967.967h5.371a.967.967,0,0,0,.967-.967v-.762a.967.967,0,0,0-.967-.967" transform="translate(-268.911 -448.634)" fill="#fff"/>
        <path id="Path_76726" data-name="Path 76726" d="M282.268,377.926H276.9a.967.967,0,0,0-.967.967v.762a.967.967,0,0,0,.967.967h5.371a.967.967,0,0,0,.967-.967v-.762a.967.967,0,0,0-.967-.967" transform="translate(-268.911 -361.798)" fill="#fff"/>
        <path id="Path_76727" data-name="Path 76727" d="M282.268,284.769H276.9a.967.967,0,0,0-.967.967v.762a.967.967,0,0,0,.967.967h5.371a.967.967,0,0,0,.967-.967v-.762a.967.967,0,0,0-.967-.967" transform="translate(-268.911 -274.962)" fill="#fff"/>
        <path id="Path_76728" data-name="Path 76728" d="M420.1,140.244h-.762a.967.967,0,0,0-.967.967v5.371a.967.967,0,0,0,.967.967h.762a.967.967,0,0,0,.967-.967v-5.371a.967.967,0,0,0-.967-.967" transform="translate(-401.68 -140.244)" fill="#fff"/>
        <path id="Path_76729" data-name="Path 76729" d="M513.254,140.244h-.762a.967.967,0,0,0-.967.967v5.371a.967.967,0,0,0,.967.967h.762a.967.967,0,0,0,.967-.967v-5.371a.967.967,0,0,0-.967-.967" transform="translate(-488.518 -140.244)" fill="#fff"/>
        <path id="Path_76730" data-name="Path 76730" d="M606.41,140.244h-.762a.967.967,0,0,0-.967.967v5.371a.967.967,0,0,0,.967.967h.762a.967.967,0,0,0,.967-.967v-5.371a.967.967,0,0,0-.967-.967" transform="translate(-575.353 -140.244)" fill="#fff"/>
        <path id="Path_76731" data-name="Path 76731" d="M699.566,140.244H698.8a.967.967,0,0,0-.966.967v5.371a.967.967,0,0,0,.966.967h.762a.967.967,0,0,0,.966-.967v-5.371a.967.967,0,0,0-.966-.967" transform="translate(-662.188 -140.244)" fill="#fff"/>
        <path id="Path_76732" data-name="Path 76732" d="M420.1,622.883h-.762a.967.967,0,0,0-.967.967v5.371a.967.967,0,0,0,.967.967h.762a.967.967,0,0,0,.967-.967V623.85a.967.967,0,0,0-.967-.967" transform="translate(-401.68 -590.133)" fill="#fff"/>
        <path id="Path_76733" data-name="Path 76733" d="M513.254,622.883h-.762a.967.967,0,0,0-.967.967v5.371a.967.967,0,0,0,.967.967h.762a.967.967,0,0,0,.967-.967V623.85a.967.967,0,0,0-.967-.967" transform="translate(-488.518 -590.133)" fill="#fff"/>
        <path id="Path_76734" data-name="Path 76734" d="M606.41,622.883h-.762a.967.967,0,0,0-.967.967v5.371a.967.967,0,0,0,.967.967h.762a.967.967,0,0,0,.967-.967V623.85a.967.967,0,0,0-.967-.967" transform="translate(-575.353 -590.133)" fill="#fff"/>
        <path id="Path_76735" data-name="Path 76735" d="M392.717,251.35a1.475,1.475,0,0,1-1.473-1.473v-.762a1.474,1.474,0,0,1,1.473-1.473h.349v-2.614h-.349a1.474,1.474,0,0,1-1.473-1.473v-.762a1.475,1.475,0,0,1,1.473-1.473h.349v-2.614h-.349a1.475,1.475,0,0,1-1.473-1.473v-.762A1.474,1.474,0,0,1,392.717,235h.349v-2.614h-.349a1.474,1.474,0,0,1-1.473-1.473v-.762a1.474,1.474,0,0,1,1.473-1.473H393a4.278,4.278,0,0,0-3.1-3.39v.427a1.475,1.475,0,0,1-1.473,1.473h-.762a1.474,1.474,0,0,1-1.473-1.473v-.577h-2.614v.577a1.474,1.474,0,0,1-1.473,1.473h-.762a1.474,1.474,0,0,1-1.473-1.473v-.577h-2.614v.577a1.474,1.474,0,0,1-1.473,1.473h-.762a1.474,1.474,0,0,1-1.473-1.473v-.577h-2.614v.577a1.474,1.474,0,0,1-1.473,1.473H368.7a1.474,1.474,0,0,1-1.473-1.473v-.43a4.278,4.278,0,0,0-3.112,3.393h.291a1.474,1.474,0,0,1,1.473,1.473v.762a1.474,1.474,0,0,1-1.473,1.473h-.359V235h.359a1.474,1.474,0,0,1,1.473,1.473v.762a1.474,1.474,0,0,1-1.473,1.473h-.359v2.614h.359a1.474,1.474,0,0,1,1.473,1.473v.762a1.474,1.474,0,0,1-1.473,1.473h-.359v2.614h.359a1.474,1.474,0,0,1,1.473,1.473v.762a1.474,1.474,0,0,1-1.473,1.473h-.094a4.281,4.281,0,0,0,2.916,2.663v-.918a1.474,1.474,0,0,1,1.473-1.473h.762a1.474,1.474,0,0,1,1.473,1.473v1.066h2.614v-1.066a1.474,1.474,0,0,1,1.473-1.473h.762a1.474,1.474,0,0,1,1.473,1.473v1.066h2.614v-1.066a1.474,1.474,0,0,1,1.473-1.473h.762a1.474,1.474,0,0,1,1.473,1.473v1.066h2.614v-1.066a1.475,1.475,0,0,1,1.473-1.473h.762a1.475,1.475,0,0,1,1.473,1.473v.916a4.281,4.281,0,0,0,2.906-2.66Z" transform="translate(-351.046 -219.377)" fill="#fff"/>
        <path id="Path_76736" data-name="Path 76736" d="M699.566,622.883H698.8a.967.967,0,0,0-.966.967v5.371a.967.967,0,0,0,.966.967h.762a.967.967,0,0,0,.966-.967V623.85a.967.967,0,0,0-.966-.967" transform="translate(-662.188 -590.133)" fill="#fff"/>
        <path id="Path_76737" data-name="Path 76737" d="M445.918,364.155a2.3,2.3,0,0,1,.11.253q.042.118.076.253h-3.446q-.034-.118-.068-.211c-.023-.062-.045-.121-.068-.177l-.608-1.385h-6.756l-.591,1.368-.068.2a1.312,1.312,0,0,0-.051.2h-3.53a2.607,2.607,0,0,1,.076-.253,2.247,2.247,0,0,1,.11-.253l4.087-9.053a3.676,3.676,0,0,1,1.284-1.588,4.135,4.135,0,0,1,4.028,0A3.656,3.656,0,0,1,441.8,355.1Zm-5.118-3.784-1.757-4.087a.6.6,0,0,0-.219-.27.564.564,0,0,0-.3-.084.577.577,0,0,0-.287.076.542.542,0,0,0-.22.279l-1.74,4.087Z" transform="translate(-413.383 -338.554)" fill="#2d55ee"/>
        <rect id="Rectangle_13882" data-name="Rectangle 13882" width="3.074" height="11.418" transform="translate(33.937 14.69)" fill="#2d55ee"/>
      </g>
    </g>
  </g>
</svg>
