<svg id="Group_35581" data-name="Group 35581" xmlns="http://www.w3.org/2000/svg" xmlns:xlink="http://www.w3.org/1999/xlink" width="40.208" height="41.908" viewBox="0 0 40.208 41.908">
  <defs>
    <clipPath id="clip-path">
      <rect id="Rectangle_20649" data-name="Rectangle 20649" width="40.208" height="41.908" transform="translate(0 0)" fill="#1A73E8"/>
    </clipPath>
  </defs>
  <g id="Group_35580" data-name="Group 35580" clip-path="url(#clip-path)">
    <path id="Path_96725" data-name="Path 96725" d="M38.748,22.262l-.21-.3c-.3-.429-.606-.858-.907-1.294a3.908,3.908,0,0,1-.969-3.36,10.558,10.558,0,0,0-.695-6.69,16.431,16.431,0,0,0-7.59-8.64A17.689,17.689,0,0,0,19.8.006a38.768,38.768,0,0,0-5.3.5A17.26,17.26,0,0,0,7.981,2.9,16.507,16.507,0,0,0,1,11.017,14.772,14.772,0,0,0,1.295,22.41a39.264,39.264,0,0,0,1.831,3.666l.258.471A17.36,17.36,0,0,1,4.939,31.1,14.45,14.45,0,0,1,4.9,37.864c-.186.741-.439,1.472-.683,2.179l-.036.106c-.108.312-.217.63-.322.951l-.034.1.1.045c.056.026.113.053.17.078l.45-1.051-.181,1.166c.231.1.442.2.646.31a.645.645,0,0,0,.314.1.45.45,0,0,0,.112-.018.6.6,0,0,0,.311-.337A16.691,16.691,0,0,0,7.22,35.937,18.07,18.07,0,0,0,6.669,29.8a17.419,17.419,0,0,0-1.725-4.52,19.792,19.792,0,0,1-2.8-7.026,11.881,11.881,0,0,1,.172-4.959,14.538,14.538,0,0,1,7.729-9.269,18.184,18.184,0,0,1,5.946-1.8,24.138,24.138,0,0,1,3.573-.25,27.2,27.2,0,0,1,3.845.4A13.72,13.72,0,0,1,28.987,4.7a14.022,14.022,0,0,1,4.268,4.782c1.6,2.911,2.048,5.449,1.408,7.987a2.928,2.928,0,0,0,.063,2.042,17.373,17.373,0,0,0,1.088,1.991c.405.625.856,1.261,1.254,1.823.286.4.56.789.829,1.18.31.443.327.606.3.706-.04.163-.267.312-.62.5-.4.211-.853.458-1.291.742a1.106,1.106,0,0,0-.46,1.3,4.354,4.354,0,0,0,.226.639c.042.091.068.158.085.206l.068.183-.195.019c-.079.008-.16.01-.236.01H33.739c-.122,0-.236,0-.338,0H33.13c-.337.007-.488,0-.6.109s-.123.323-.121.738v.546a.569.569,0,0,0,.129.427.622.622,0,0,0,.418.121c.785-.012,1.534-.009,2.435-.009h1.325a1.633,1.633,0,0,0,1.7-1.572,1.657,1.657,0,0,0-.147-.739c-.265-.645-.236-.724.4-1.063.043-.023.087-.051.135-.082l.065-.041a2.417,2.417,0,0,0,.792-3.692l.117-.095h0l-.125.086c-.3-.432-.6-.861-.9-1.289" fill="#1A73E8"/>
    <path id="Path_96726" data-name="Path 96726" d="M20.437,10.66a3.354,3.354,0,0,0,2.152-2.573l0-.01A3.536,3.536,0,0,0,21.33,4.439a3.544,3.544,0,0,0-2.3-.846,3.489,3.489,0,0,0-1.388.286,3.429,3.429,0,0,0-2.3,3.221,3.313,3.313,0,0,0,1.935,3.409c.644.315.852.656.769,1.262a1.659,1.659,0,0,0-.006.265V34.984c0,.6.006.852.167,1.012s.362.165.845.165H19.2c.75,0,.8-.052.8-.8V31.238q0-9.954-.008-19.91a.585.585,0,0,1,.444-.668M19.044,9.01a1.781,1.781,0,0,1-1.271-.535,1.727,1.727,0,0,1-.506-1.229,1.817,1.817,0,0,1,1.661-1.681l.013.151h.007l-.011-.152h.027a1.821,1.821,0,0,1,1.768,1.7A1.817,1.817,0,0,1,19.044,9.01" fill="#1A73E8"/>
    <path id="Path_96727" data-name="Path 96727" d="M14.965,25.242l.084-.1-.087.091c-.338-.314-.663-.645-.977-.965l-.076-.077c-.31-.313-.631-.636-.959-.939a1.031,1.031,0,0,1-.375-1.343,3.48,3.48,0,0,0-.509-3.285,3.574,3.574,0,0,0-3.132-1.5A3.551,3.551,0,0,0,5.9,18.976a3.423,3.423,0,0,0,0,3.646,3.656,3.656,0,0,0,4.675,1.545.413.413,0,0,1,.235-.07.479.479,0,0,1,.388.2c.711.723,1.349,1.358,1.992,1.977a1,1,0,0,1,.331.822c-.007,1.623-.006,3.257-.005,4.89v3.836c0,1.66,0,3.38-.012,5.069a.769.769,0,0,0,.191.606.6.6,0,0,0,.388.12,1.008,1.008,0,0,0,.169-.008,2.584,2.584,0,0,1,.352,0,2.308,2.308,0,0,0,.444-.03.559.559,0,0,0,.4-.462c0-1.006,0-2.007,0-3.084l-.011-6.494c0-1.67,0-3.4.02-5.085a1.468,1.468,0,0,0-.492-1.212M10.283,22.02a1.73,1.73,0,0,1-1.207.493,1.849,1.849,0,0,1-1.71-1.687l.149-.012-.154,0a1.748,1.748,0,0,1,.531-1.236,1.664,1.664,0,0,1,1.15-.5,1.777,1.777,0,0,1,1.272.537,1.71,1.71,0,0,1,.492,1.218,1.692,1.692,0,0,1-.523,1.187" fill="#1A73E8"/>
    <path id="Path_96728" data-name="Path 96728" d="M31.584,12.575a3.485,3.485,0,0,0-1.265-3.626A3.563,3.563,0,0,0,26.5,8.416a3.645,3.645,0,0,0-1.951,2.047,3.473,3.473,0,0,0,.045,2.731.572.572,0,0,1-.171.754c-.921.877-1.713,1.671-2.418,2.427h0a1.505,1.505,0,0,0-.366.886c-.029.551-.024,1.117-.02,1.665v2.508c0,1.136.056,1.194,1.207,1.237a1.217,1.217,0,0,0,.272.03.455.455,0,0,0,.285-.1.7.7,0,0,0,.179-.552c-.026-1.511-.023-2.813.006-3.994a1.16,1.16,0,0,1,.279-.68c.423-.454.877-.9,1.277-1.3.286-.28.563-.558.84-.843a.374.374,0,0,1,.511-.1,3.624,3.624,0,0,0,3.183-.072,3.583,3.583,0,0,0,1.922-2.491m-3.492.914v0l-.127,0A1.694,1.694,0,0,1,26.3,11.773l0-.039a1.6,1.6,0,0,1,.465-1.139,1.637,1.637,0,0,1,1.158-.5h.057a1.713,1.713,0,0,1,1.193.463,1.734,1.734,0,0,1,.487,1.257,1.635,1.635,0,0,1-1.574,1.671" fill="#1A73E8"/>
    <line id="Line_1" data-name="Line 1" transform="translate(8.436 11.791)" fill="#1A73E8"/>
    <path id="Path_96729" data-name="Path 96729" d="M14.516,22.551c.11.113.263.118.624.12h.055c.151,0,.34,0,.575.007h.042a.585.585,0,0,0,.416-.137.644.644,0,0,0,.141-.467c-.006-.679-.006-1.348-.006-2.014,0-.925,0-1.881-.015-2.821h.006a1.308,1.308,0,0,0-.341-.8c-.836-.878-1.664-1.7-2.582-2.594a.37.37,0,0,1-.1-.507,3.444,3.444,0,0,0,.237-2.466,3.73,3.73,0,0,0-2.319-2.56,3.687,3.687,0,1,0,.245,6.838.4.4,0,0,1,.55.1c.675.7,1.381,1.407,2.1,2.1a.8.8,0,0,1,.278.682c-.02.432-.018.863-.012,1.379L14.4,21.84c-.005.418,0,.592.115.711m-3.3-9.577a1.738,1.738,0,0,1-1.224.52h0a1.709,1.709,0,0,1-1.707-1.7l.144-.037-.141,0a1.589,1.589,0,0,1,.473-1.142,1.758,1.758,0,0,1,1.247-.515h.009a1.711,1.711,0,0,1,1.7,1.71,1.652,1.652,0,0,1-.495,1.165" fill="#1A73E8"/>
    <path id="Path_96730" data-name="Path 96730" d="M35.254,31.474c-.549.028-1.006.107-1.053.782a.572.572,0,0,1-.163.295,3.61,3.61,0,0,0-.873,2.744.916.916,0,0,1-.609,1.015,4.291,4.291,0,0,1-1.78.251c-1.741-.274-3.462-.661-5.126-1.034l-.089-.02a.929.929,0,0,1-.54-.45c-.516-1.185-.972-2.39-1.312-3.307a.676.676,0,0,0-.324-.43.585.585,0,0,0-.438.041c-.158.067-.318.121-.473.174l-.4.134a.5.5,0,0,0-.318.249.438.438,0,0,0,.017.348c.108.274.2.542.292.8l.026.076c.108.311.232.664.374,1,.066.16.129.32.191.479l.037.1c.422,1.1.859,2.228,2.2,2.659l.15.048-.085.227L24.5,38.721q-.465,1.08-.915,2.166a.62.62,0,0,0-.007.595.584.584,0,0,0,.5.212,2,2,0,0,1,.612.153.894.894,0,0,0,.308.061h0a.45.45,0,0,0,.208-.051.7.7,0,0,0,.3-.48,9.253,9.253,0,0,1,1.33-3,.712.712,0,0,1,.917-.315,13.263,13.263,0,0,0,4.137.45h.028a3.175,3.175,0,0,0,3.177-3.14v-.112a2.071,2.071,0,0,1,.479-1.455,3.577,3.577,0,0,0,.6-1.273c.128-.5.173-.754.04-.916s-.4-.166-.951-.136l-.009-.151-.012-.007Z" fill="#1A73E8"/>
    <path id="Path_96731" data-name="Path 96731" d="M32.42,21.881a3.673,3.673,0,0,0-4.546-4.618A3.5,3.5,0,0,0,25.592,19.1a3.8,3.8,0,0,0-.09,3.112.6.6,0,0,1-.194.782c-.386.38-.8.792-1.188,1.19l-.042.043c-.552.556-1.122,1.134-1.708,1.68a1.909,1.909,0,0,0-.778,1.834c.01.086.013.167.015.252v.073a1.439,1.439,0,0,0,.16.761c.087.129.3.131.615.124l.007.053H22.4l0-.05a2.691,2.691,0,0,1,.336,0c.143.012.258.019.354.019a.439.439,0,0,0,.33-.094c.112-.1.125-.258.142-.641v-.067a1.589,1.589,0,0,1,.181-.783l.024-.033c1.057-1.127,2.116-2.16,3.1-3.11l.031-.023a.6.6,0,0,1,.4-.067,3.82,3.82,0,0,0,3.316-.111,3.65,3.65,0,0,0,1.8-2.159M30.084,22a1.644,1.644,0,0,1-1.181.5,1.75,1.75,0,0,1-1.231-.527l0,0a1.652,1.652,0,0,1-.489-1.164,1.73,1.73,0,0,1,1.664-1.741h.024a1.768,1.768,0,0,1,1.231.5,1.7,1.7,0,0,1,.482,1.209,1.76,1.76,0,0,1-.5,1.22" fill="#1A73E8"/>
  </g>
</svg>
