<svg id="Group_34783" data-name="Group 34783" xmlns="http://www.w3.org/2000/svg" xmlns:xlink="http://www.w3.org/1999/xlink" width="43.511" height="43.507" viewBox="0 0 43.511 43.507">
  <defs>
    <clipPath id="clip-path">
      <rect id="Rectangle_20643" data-name="Rectangle 20643" width="43.511" height="43.507" fill="none"/>
    </clipPath>
  </defs>
  <g id="Group_34782" data-name="Group 34782" transform="translate(0 0)" clip-path="url(#clip-path)">
    <path id="Path_83485" data-name="Path 83485" d="M21.369,38.878l-4.74-4.791.209-.48c.064-.09.133-.186.2-.278a9.333,9.333,0,0,0,1.848-7.1,9.081,9.081,0,0,0-4.139-6.569,9,9,0,0,0-8.556-.984A9.008,9.008,0,0,0,.1,26.353,9.049,9.049,0,0,0,3.13,34.6a9.453,9.453,0,0,0,10.994,1.254,1.023,1.023,0,0,1,.507-.152.88.88,0,0,1,.632.3q1.951,1.971,3.923,3.922l.587.588c.6.605,1.205,1.21,1.83,1.791a1.12,1.12,0,0,0,1.579-1.58c-.592-.626-1.2-1.236-1.812-1.844M14.6,32.651A7.175,7.175,0,0,1,9.5,34.78H9.494a7.216,7.216,0,1,1,0-14.432h.015a7.235,7.235,0,0,1,7.212,7.206,7.151,7.151,0,0,1-2.122,5.1" transform="translate(0 0.88)" fill="#1a1818"/>
    <path id="Path_83486" data-name="Path 83486" d="M25.482,21.227H25.5A10.629,10.629,0,0,0,36.1,10.649,10.634,10.634,0,0,0,25.512,0h-.041a10.614,10.614,0,0,0,.012,21.227M19.631,4.708A8.259,8.259,0,0,1,25.477,2.29h.035a8.337,8.337,0,0,1,8.3,8.346,8.29,8.29,0,0,1-8.326,8.307h-.012A8.319,8.319,0,0,1,19.631,4.708" transform="translate(0.726 0)" fill="#1a1818"/>
    <path id="Path_83487" data-name="Path 83487" d="M42.295,28.688a4.4,4.4,0,0,0-4.2-3.173q-6.43-.022-12.86-.02l-4.083,0,.1,2.306H32.439l5.42,0a2.195,2.195,0,0,1,2.358,2.3c.015.77,0,1.535-.033,2.275a5.2,5.2,0,0,1-1.639,3.581,11.665,11.665,0,0,1-3.657,2.347,22.947,22.947,0,0,1-8.19,1.655c-.373.014-.744.013-1.124.008a4.467,4.467,0,0,1-.017,2.293A28.157,28.157,0,0,0,33.87,41.1a15.242,15.242,0,0,0,6.392-3.644,6.856,6.856,0,0,0,2.065-3.988,24.736,24.736,0,0,0,.146-3.034l.005-.6a3.9,3.9,0,0,0-.184-1.154" transform="translate(1.033 1.245)" fill="#1a1818"/>
  </g>
</svg>
