<svg xmlns="http://www.w3.org/2000/svg" xmlns:xlink="http://www.w3.org/1999/xlink" width="48.492" height="39.109" viewBox="0 0 48.492 39.109">
  <defs>
    <clipPath id="clip-path">
      <rect id="Rectangle_20642" data-name="Rectangle 20642" width="48.492" height="39.109" transform="translate(0 0)" fill="none" stroke="#1A73E8" stroke-width="0.4"/>
    </clipPath>
  </defs>
  <g id="Group_34781" data-name="Group 34781" transform="translate(0 0)">
    <g id="Group_34780" data-name="Group 34780" clip-path="url(#clip-path)">
      <path id="Path_83481" data-name="Path 83481" d="M29.176,10.683a.835.835,0,0,0-1.163.248c-.293.446-.591.889-.889,1.332-.758,1.131-1.543,2.3-2.244,3.494-.454.774-.889,1.021-1.613.9a1.279,1.279,0,0,0-1.247.551c-.47.614-.924,1.24-1.378,1.866-.247.341-.494.681-.744,1.02-.457.62-.929,1.261-1.422,1.872a.43.43,0,0,1-.249.022,6.331,6.331,0,0,1-.6-.223c-.144-.059-.289-.118-.435-.17q-.69-.243-1.384-.481c-.726-.251-1.451-.5-2.173-.764L13.3,20.23a17.558,17.558,0,0,0-3.909-1.1,8.587,8.587,0,0,0-4.349.351,8.263,8.263,0,0,0-3.7,2.848A6.159,6.159,0,0,0,.014,25.984q0,2.178,0,4.355v1.433h0V33.54c0,1.567,0,3.134-.01,4.7,0,.507.224.739.737.75s1.053.033,1.58.054c.793.031,1.611.064,2.421.064h.085c2.957-.008,5.963-.05,8.87-.09l.635-.009c.985-.011,1.111-.066,1.118-.978l0-.278c.023-1.255.026-2.51.028-3.766,0-1.024.005-2.048.018-3.071.013-1,.053-2.009.093-2.989l.044-1.131c0-.052.006-.174.007-.191a.207.207,0,0,1,.095.017q.492.161.984.325c.654.218,1.33.444,2.005.642a1.847,1.847,0,0,0,1.917-.2,8.985,8.985,0,0,0,1.135-1.342Q22.8,24.6,23.817,23.134q.878-1.262,1.761-2.518a2.171,2.171,0,0,0,.188-2.642c-.152-.23-.131-.454.073-.772.817-1.279,1.618-2.568,2.421-3.856l1.034-1.659a1.037,1.037,0,0,0,.19-.478.565.565,0,0,0-.308-.526m-10.159,15.3A10.379,10.379,0,0,0,17.54,25.5c-.231-.063-.462-.125-.691-.2l-.28-.085c-.424-.128-.863-.261-1.283-.411a1.006,1.006,0,0,0-.871-.015.963.963,0,0,0-.4.726,9.272,9.272,0,0,0-.148,1.518q-.018,3.8-.014,7.6l0,2.4a1.845,1.845,0,0,1-.021.4,1.662,1.662,0,0,1-.418.026H1.963a1.7,1.7,0,0,1-.369-.021,1.434,1.434,0,0,1-.024-.37l.008-2.958c0-2.628.012-5.256.035-7.884A5.406,5.406,0,0,1,3.773,22,6.136,6.136,0,0,1,8.6,20.646a13.954,13.954,0,0,1,2.158.5c.221.063.443.126.663.186.742.2,1.467.431,2.139.652.45.148.9.311,1.342.473l1.311.476q.69.252,1.379.5l.2.073a3.613,3.613,0,0,0,.8.23.984.984,0,0,0,.811-.261C20,22.7,20.569,21.9,21.121,21.127l.3-.419c.548-.765,1.1-1.53,1.627-2.306a.426.426,0,0,1,.608-.132,2.432,2.432,0,0,1,.739.54.494.494,0,0,1,0,.617q-1.431,2.136-2.88,4.257c-.394.578-.822,1.181-1.345,1.9-.4.543-.631.624-1.15.4" fill="#1A73E8" stroke="#1A73E8" stroke-width="0.4"/>
      <path id="Path_83482" data-name="Path 83482" d="M48.49,2.241A2.02,2.02,0,0,0,46.481.182c-1.291-.049-2.457-.09-3.644-.1C39.017.049,34.956.016,30.976.01Q25.683,0,20.387,0q-4.821,0-9.647,0h-.007A2.531,2.531,0,0,0,9.441.294,2.32,2.32,0,0,0,8.09,2.078,16.761,16.761,0,0,0,8.063,4.03c.006.232.012.464.014.7a.756.756,0,0,0,.652.805c.386.056.671-.163.847-.639a1.159,1.159,0,0,0,.052-.41V4.425c0-.267.007-.533.008-.8,0-.42.008-.841.019-1.261.01-.4.155-.539.556-.548l1.619-.039c1.417-.036,2.883-.072,4.324-.078q4.365-.021,8.731-.008l3.411,0,3.756,0c2.889,0,5.78,0,8.668.008,1.468.006,2.96.044,4.4.081l1.336.033c.334.008.412.085.437.429.021.3.026.611.027.917l0,1.745q.009,3.78.01,7.561c0,3.883-.014,12.767-.032,16.651,0,.612-.014.624-.629.653l-.719.036c-.954.048-1.94.1-2.909.1q-3.312.021-6.625.019-2.556,0-5.112.012c-8.4.036-11.313.059-12.275.072h-.062a.545.545,0,0,0-.655.478c-.081.631.284.8.518.853a6.888,6.888,0,0,0,1.384.192c3.054.005,7.71.009,12.427.009,4.684,0,9.428,0,12.719-.013a11.685,11.685,0,0,0,2.153-.252,1.921,1.921,0,0,0,1.363-1.706c.005-7.444.01-19.889.005-27.333" fill="#1A73E8" stroke="#1A73E8" stroke-width="0.4"/>
      <path id="Path_83483" data-name="Path 83483" d="M7.434,6.774c3.1-.17,5.727,2.828,5.717,5.6a5.861,5.861,0,0,1-5.612,5.8,5.8,5.8,0,0,1-5.888-5.708C1.557,9.627,4.218,6.529,7.434,6.774m-.02,1.191a4.376,4.376,0,0,0-4.567,4.4,4.433,4.433,0,0,0,4.542,4.587A4.371,4.371,0,0,0,11.9,12.539a4.378,4.378,0,0,0-4.49-4.574" fill="#1A73E8" stroke="#1A73E8" stroke-width="0.4"/>
      <path id="Path_83484" data-name="Path 83484" d="M7.456,18.374a6.015,6.015,0,0,1-6-5.9A5.9,5.9,0,0,1,3.343,8.139,5.326,5.326,0,0,1,7.437,6.574a5.389,5.389,0,0,1,3.978,1.572,5.994,5.994,0,0,1,1.938,4.23,6.061,6.061,0,0,1-5.811,6H7.456M7.076,6.961A5,5,0,0,0,3.621,8.428a5.491,5.491,0,0,0-1.769,4.03,5.614,5.614,0,0,0,5.685,5.515,5.653,5.653,0,0,0,5.416-5.6,5.587,5.587,0,0,0-1.814-3.939A4.948,4.948,0,0,0,7.446,6.974H7.419c-.114-.008-.229-.012-.343-.012m.279,10.187a4.617,4.617,0,0,1-4.707-4.785A4.621,4.621,0,0,1,4.083,9.007,4.455,4.455,0,0,1,7.417,7.764a4.491,4.491,0,0,1,3.3,1.29A4.822,4.822,0,0,1,12.1,12.542,4.571,4.571,0,0,1,7.39,17.148ZM7.187,8.159A4.047,4.047,0,0,0,4.36,9.3a4.22,4.22,0,0,0-1.312,3.063,4.229,4.229,0,0,0,4.307,4.389h.033A4.182,4.182,0,0,0,11.7,12.536a4.434,4.434,0,0,0-1.267-3.2A4.1,4.1,0,0,0,7.513,8.164H7.405c-.073,0-.146,0-.218,0" fill="#1A73E8" stroke="#1A73E8" stroke-width="0.4"/>
    </g>
  </g>
</svg>
