<svg xmlns="http://www.w3.org/2000/svg" xmlns:xlink="http://www.w3.org/1999/xlink" width="40.835" height="39.224" viewBox="0 0 40.835 39.224">
  <defs>
    <clipPath id="clip-path">
      <rect id="Rectangle_20640" data-name="Rectangle 20640" width="40.835" height="39.224" fill="none"/>
    </clipPath>
  </defs>
  <g id="Group_34776" data-name="Group 34776" transform="translate(0 0)">
    <g id="Group_34775" data-name="Group 34775" transform="translate(0 0)" clip-path="url(#clip-path)">
      <path id="Path_83470" data-name="Path 83470" d="M17.852,37.3c-.151-.013-.3-.012-.452-.011h-.142l-3.114,0c-3.031,0-6.58-.005-8.984-.015a3.654,3.654,0,0,1-1.166-.138,3.07,3.07,0,0,1-2.027-3.618,3.15,3.15,0,0,1,3.12-2.43c1.493,0,1.832-.005,2.389,0,.379,0,.863,0,1.876,0h.325c1.044,0,1.344,0,2.546-.011a.871.871,0,0,0,.961-.928c0-.386-.168-.861-.957-.935a1.837,1.837,0,0,0-.256-.005h-.08c-1.162,0-1.92,0-2.519,0-1.351,0-1.911,0-4.555.02a5.5,5.5,0,0,0-1.645.368l-.142.048a4.7,4.7,0,0,0-.825.4c-.083.047-.167.1-.257.144l-.007-.14c-.011-.2-.021-.362-.021-.526V28.464q0-11.6,0-23.2a3.85,3.85,0,0,1,.162-1.229c.512-1.472,1.5-2.1,3.3-2.1q10.13.007,20.247.008l4.339,0c.827,0,.827,0,.827.816V5.324c0,1.091,0,1.608,0,3.985a1.337,1.337,0,0,0,.354.978.861.861,0,0,0,.646.24c.343-.015.919-.191.92-1.209,0-3.273,0-3.816-.008-5.957l-.008-2.086C32.7.345,32.373.012,31.441,0,30.869,0,30.3,0,29.727.006c-.38,0-.762.005-1.141.005H22.747Q13.992.01,5.234.025A5.478,5.478,0,0,0,3.406.286,4.937,4.937,0,0,0,0,5.171Q0,8.048,0,10.925v6.441q0,8.271.013,16.541A5.662,5.662,0,0,0,.278,35.8a4.937,4.937,0,0,0,4.881,3.407c2.534.01,6.571.013,9.612.015l1.941,0h.265c.311,0,.627-.005.939-.034a.89.89,0,0,0,.9-.936.943.943,0,0,0-.96-.951" transform="translate(0 0)" fill="#1A73E8"/>
      <path id="Path_83471" data-name="Path 83471" d="M39.118,27.011c-.136-.079-.273-.154-.41-.23a8.937,8.937,0,0,1-.918-.557.716.716,0,0,1-.222-.491c-.027-1.072-.025-2.113.008-3.094a.785.785,0,0,1,.256-.53,6.351,6.351,0,0,1,.767-.474c.153-.085.307-.169.456-.261a.958.958,0,0,0,.4-1.448c-.94-1.645-1.912-3.312-2.751-4.746a.908.908,0,0,0-1.321-.348c-.388.2-.8.441-1.259.728a.548.548,0,0,1-.691-.036c-.443-.284-.907-.548-1.357-.8-.4-.229-.821-.466-1.22-.716a.892.892,0,0,1-.365-.544,5.149,5.149,0,0,1-.021-.853c.005-.193.012-.386,0-.577a.945.945,0,0,0-1.045-1.012q-2.72-.011-5.439,0c-.69,0-1,.3-1.035,1-.026.516-.03.974-.015,1.4.011.293-.093.444-.428.621-.952.5-1.786.984-2.55,1.471-.29.185-.451.193-.688.041-.369-.24-.775-.477-1.2-.707a.908.908,0,0,0-1.368.339c-.962,1.625-1.9,3.238-2.784,4.794a.894.894,0,0,0,.335,1.326l.34.21c.31.19.63.388.96.556.265.135.3.294.292.621-.02.517-.015,1.042-.013,1.549,0,.474.005.964-.009,1.443a.8.8,0,0,1-.244.543,7.814,7.814,0,0,1-.922.565c-.134.075-.268.149-.4.227a.891.891,0,0,0-.373,1.276c.877,1.558,1.771,3.083,2.844,4.893A.853.853,0,0,0,18,33.524c.134-.076.27-.15.406-.223a9.392,9.392,0,0,0,.9-.533c.26-.178.406-.13.657.058.089.067.18.137.27.207a4.244,4.244,0,0,0,1.269.772,1.894,1.894,0,0,1,1.468,2.383,1.016,1.016,0,0,0,.162.828,1.169,1.169,0,0,0,.927.3c.6.01,1.192.009,1.788.005.273,0,.549,0,.818,0l.809,0,.81,0c.348,0,.7,0,1.044-.008.836-.014,1.136-.315,1.149-1.149,0-.156,0-.314-.009-.47a5.261,5.261,0,0,1,.018-.842.8.8,0,0,1,.328-.49c.831-.519,1.722-1.041,2.724-1.594a.62.62,0,0,1,.475-.02c.438.2.865.454,1.279.7l.125.074a.83.83,0,0,0,1.232-.306c.961-1.609,1.917-3.255,2.844-4.894a.9.9,0,0,0-.38-1.318m-3.377-4.864a8.946,8.946,0,0,1,0,4.064.93.93,0,0,0,.492,1.119c.142.079.282.163.421.248.2.123.415.25.632.36.136.068.213.138.235.211a.463.463,0,0,1-.1.331c-.478.8-.948,1.629-1.4,2.428l-.242.425c-.087.153-.163.235-.231.248s-.142-.025-.242-.105a2.165,2.165,0,0,0-3.23.164A7.107,7.107,0,0,1,29.9,32.818l-.365.149a1.125,1.125,0,0,0-.81,1.157c0,.1,0,.191,0,.287,0,.25,0,.508.015.763a.447.447,0,0,1-.071.34.473.473,0,0,1-.364.081c-.206-.009-.414-.011-.62-.011-.16,0-.318,0-.474,0l-.474,0H26.3c-.436,0-.871-.005-1.306,0-.129-.007-.206-.02-.249-.063a.326.326,0,0,1-.059-.243c.012-.367.014-.756.009-1.221A1.032,1.032,0,0,0,23.911,33a9.176,9.176,0,0,1-3.381-1.936,1.1,1.1,0,0,0-1.462-.138c-.081.05-.166.1-.253.162-.348.227-.745.488-1,.425-.182-.041-.356-.4-.508-.71-.072-.147-.143-.292-.217-.416-.169-.282-.335-.568-.5-.854-.2-.348-.4-.7-.612-1.037a.462.462,0,0,1-.1-.343c.025-.08.113-.156.281-.235a4.06,4.06,0,0,0,1.106-.677,1.281,1.281,0,0,0,.4-.99,9.317,9.317,0,0,1,.023-4.124.965.965,0,0,0-.518-1.112l-.07-.043a9.017,9.017,0,0,0-1-.565c-.131-.06-.209-.126-.231-.2s.008-.188.1-.348l.3-.514c.448-.762.91-1.548,1.351-2.333.072-.127.143-.2.218-.218a.417.417,0,0,1,.3.081c.1.059.2.115.305.172a5.17,5.17,0,0,1,.531.319A1.179,1.179,0,0,0,20.6,17.23a8.575,8.575,0,0,1,3.233-1.841,1.1,1.1,0,0,0,.865-1.208c0-.024,0-.049,0-.105.013-1.35.013-1.35,1.342-1.351h.53c.568,0,1.154,0,1.729-.016a.507.507,0,0,1,.378.1.387.387,0,0,1,.046.323,2.066,2.066,0,0,0,1.713,2.62,6.9,6.9,0,0,1,2.047,1.238c.113.088.226.175.339.26a1.239,1.239,0,0,0,1.557.148c.627-.369.939-.543,1.141-.49s.412.4.772,1.024l.361.629c.263.458.526.917.8,1.37a.388.388,0,0,1,.079.277c-.018.061-.086.122-.2.179-.23.116-.454.248-.672.376-.128.075-.257.151-.388.224a.969.969,0,0,0-.526,1.159" transform="translate(1.187 0.951)" fill="#1A73E8"/>
      <path id="Path_83472" data-name="Path 83472" d="M26.13,18.336h-.013a5.194,5.194,0,1,0-.038,10.387h0a5.194,5.194,0,0,0,.049-10.387m-.012,8.689h-.032a3.5,3.5,0,0,1-2.494-5.918,3.493,3.493,0,0,1,2.5-1.015h.018a3.463,3.463,0,0,1,2.447,1,3.414,3.414,0,0,1,1.025,2.44,3.54,3.54,0,0,1-3.466,3.5" transform="translate(1.802 1.583)" fill="#1A73E8"/>
    </g>
  </g>
</svg>
