<svg xmlns="http://www.w3.org/2000/svg" xmlns:xlink="http://www.w3.org/1999/xlink" width="1556.768" height="717.467" viewBox="0 0 1556.768 717.467">
  <defs>
    <clipPath id="clip-path">
      <rect id="Rectangle_17101" data-name="Rectangle 17101" width="291.299" height="295.272" fill="#fff"/>
    </clipPath>
    <clipPath id="clip-path-3">
      <rect id="Rectangle_17104" data-name="Rectangle 17104" width="785" height="224" transform="translate(0.081 0.325)" fill="#fff" stroke="#c5daf6" stroke-width="1"/>
    </clipPath>
    <clipPath id="clip-path-4">
      <rect id="Rectangle_17103" data-name="Rectangle 17103" width="963.618" height="353.863" fill="#fff" stroke="#c5daf6" stroke-width="4"/>
    </clipPath>
    <clipPath id="clip-path-5">
      <rect id="Rectangle_17102" data-name="Rectangle 17102" width="998.628" height="601.365" fill="#fff" stroke="#c5daf6" stroke-width="4"/>
    </clipPath>
  </defs>
  <g id="Group_28689" data-name="Group 28689" transform="translate(-319.373 -2395.533)">
    <g id="Group_28686" data-name="Group 28686" transform="translate(569.064 2798.661) rotate(-149)" opacity="0.032" clip-path="url(#clip-path)">
      <path id="Path_80121" data-name="Path 80121" d="M60.436,14.136a14.23,14.23,0,0,0-7.913-4.219c-3.856-.6-7.731.268-11.6-.014A13.541,13.541,0,0,1,35.88,8.577a24.99,24.99,0,0,1-4.089-2.694c-2.731-2.1-5.5-4.316-8.843-5.339a17.2,17.2,0,0,0-9.725.388A32.823,32.823,0,0,0,8.494,2.694,20.206,20.206,0,0,0,4.547,4.977a11.746,11.746,0,0,0-4.283,6.7C-1.295,18.748,4.359,24.621,9.23,28.861a9.921,9.921,0,0,0,4.38,2.068A29.838,29.838,0,0,1,18.26,32.1a7.767,7.767,0,0,1,3.41,2.731,13.2,13.2,0,0,1,1.691,3.74c.815,2.665,1.3,5.487,2.894,7.833a10.11,10.11,0,0,0,5.736,4.106,16.229,16.229,0,0,0,7.3.046,32.956,32.956,0,0,0,7.388-2.468,44,44,0,0,0,6.283-3.524A40.63,40.63,0,0,0,60.189,38.5a21.514,21.514,0,0,0,4.9-8,14.487,14.487,0,0,0-.041-8.712,19.051,19.051,0,0,0-4.608-7.653" transform="translate(61.631 112.398)" fill="#fff"/>
      <path id="Path_80122" data-name="Path 80122" d="M20.9,49.174a12.842,12.842,0,0,0,6.792-4.4c2.157-2.784,3.171-6.22,5.085-9.151a12.214,12.214,0,0,1,3.253-3.4,22.531,22.531,0,0,1,3.915-2.05c2.853-1.237,5.811-2.451,8.083-4.646a15.521,15.521,0,0,0,3.948-7.847,29.626,29.626,0,0,0,.677-4.5A18.238,18.238,0,0,0,52.58,9.06a10.6,10.6,0,0,0-3.419-6.313C43.84-1.948,32.717-.218,28.128,4.863a26.938,26.938,0,0,1-2.959,3.158,7.009,7.009,0,0,1-3.648,1.5,11.914,11.914,0,0,1-3.693-.3c-2.46-.523-4.9-1.377-7.449-1.141A9.124,9.124,0,0,0,4.63,10.808,14.646,14.646,0,0,0,1.4,16.549,29.722,29.722,0,0,0,.117,23.461a39.777,39.777,0,0,0,.034,6.5,36.657,36.657,0,0,0,1.626,8.359A19.416,19.416,0,0,0,5.95,45.684a13.079,13.079,0,0,0,6.9,3.779,17.2,17.2,0,0,0,8.057-.29" transform="translate(6.767 19.734)" fill="#fff"/>
      <path id="Path_80123" data-name="Path 80123" d="M53.6,47.211a13.816,13.816,0,0,0,6.215-8.26,19.367,19.367,0,0,0-.515-10.2,38.558,38.558,0,0,0-4.6-9.8,35.667,35.667,0,0,0-6.672-8.025,46.484,46.484,0,0,0-21.44-10C19.544-.4,9.668-.926,3.652,3.732c-2.781,2.154-4.5,6.02-3.222,9.3.705,1.805,2.062,3.241,2.636,5.111A11.348,11.348,0,0,1,3.2,23.386C2.673,26.567,1.429,29.57.78,32.727a29.076,29.076,0,0,0-.652,8.025,12.808,12.808,0,0,0,2.41,7,10.365,10.365,0,0,0,7.033,3.639c4.31.552,8.4-1.112,12.443-2.338a24.181,24.181,0,0,1,6.151-1.185,34.6,34.6,0,0,1,5.063.258c3.517.394,7.009,1.072,10.552,1.2A17.536,17.536,0,0,0,53.6,47.211" transform="translate(104.81 57.268)" fill="#fff"/>
      <path id="Path_80124" data-name="Path 80124" d="M65.831,31.308c-1.23-3.175-3.8-5.636-6.5-7.6a35.459,35.459,0,0,0-4.121-2.582c-1.377-.737-2.852-1.277-4.21-2.05a7.005,7.005,0,0,1-3.139-3.313,26.8,26.8,0,0,1-1.285-4.982,10.945,10.945,0,0,0-2.1-4.673,16.847,16.847,0,0,0-4.3-3.6A16.176,16.176,0,0,0,29.6.129c-3.636.477-6.978,2.023-10.4,3.256a28.126,28.126,0,0,1-5.246,1.43C8.937,5.587,3.066,6.3.623,11.547a6.524,6.524,0,0,0-.4,4.46,7.708,7.708,0,0,0,2.224,3.52c2.083,1.985,4.8,3.147,6.892,5.111a12.545,12.545,0,0,1,2.924,3.795,6.574,6.574,0,0,1,.491,3.584,20.076,20.076,0,0,1-1.212,4.3,21.974,21.974,0,0,0-1.269,4.828,15.88,15.88,0,0,0,1.569,9.211,16.2,16.2,0,0,0,6.943,6.791,27.114,27.114,0,0,0,10.134,2.89,39.082,39.082,0,0,0,10.616-.491,35.886,35.886,0,0,0,10.26-3.421,36.3,36.3,0,0,0,8.984-6.607,30.934,30.934,0,0,0,6.081-8.35c1.458-3.06,2.237-6.592.972-9.857" transform="translate(145.314 109.619)" fill="#fff"/>
      <path id="Path_80125" data-name="Path 80125" d="M0,44.047A24.417,24.417,0,0,0,.309,48.09c.514,3.178,1.908,7.58,4.668,9.585,3.315,2.407,5.237-1.155,7.277-3.237a12.024,12.024,0,0,1,9.409-3.808c3.9.268,7.36,2.454,10.8,4.311,6.172,3.332,14.357,5.076,20.539.9,3.039-2.052,5.337-4.93,7.844-7.561A28.106,28.106,0,0,1,64.9,44.658c4.149-2.937,9.083-6.2,8.92-11.986A6.523,6.523,0,0,0,72.186,28.5a7.7,7.7,0,0,0-3.563-2.155c-2.751-.844-5.7-.669-8.45-1.489a12.556,12.556,0,0,1-4.312-2.087,6.576,6.576,0,0,1-2.041-2.986,20.06,20.06,0,0,1-.838-4.387,21.988,21.988,0,0,0-1.024-4.885,15.883,15.883,0,0,0-5.522-7.537A16.208,16.208,0,0,0,37.189.007,27.118,27.118,0,0,0,26.831,1.953a39.086,39.086,0,0,0-9.276,5.185c-4.7,3.5-7.353,8.34-9.894,13.476C4.062,27.889.047,35.784,0,44.047" transform="translate(0 222.382)" fill="#fff"/>
      <path id="Path_80126" data-name="Path 80126" d="M2.06,51.007a7.673,7.673,0,0,0,3.271,2.05,11.463,11.463,0,0,0,4.076.607A16.747,16.747,0,0,0,19,49.788a53.032,53.032,0,0,0,3.871-3.629,21.121,21.121,0,0,1,3.9-3.024,24.868,24.868,0,0,1,8.737-2.961c1.663-.278,3.341-.462,5.019-.629A17.639,17.639,0,0,0,44.4,38.8a14.235,14.235,0,0,0,5.851-3.734,17.2,17.2,0,0,0,3.58-5.941A21.788,21.788,0,0,0,55.1,22.1a22.927,22.927,0,0,0-1-7.2,19.5,19.5,0,0,0-3.3-6.343,21.651,21.651,0,0,0-7.281-5.778A26.547,26.547,0,0,0,34.078.114a25.4,25.4,0,0,0-9.671.93A9.388,9.388,0,0,0,18.3,5.771a14.516,14.516,0,0,0-.941,7.114c.163,2.549.59,5.077.692,7.631.122,3.051-.255,6.333-2.034,8.9a8.951,8.951,0,0,1-4.11,3.256c-1.705.659-3.533.913-5.25,1.537a9.6,9.6,0,0,0-3.685,2.309A9.259,9.259,0,0,0,.949,39.864C-.43,43.743-.5,48.23,2.06,51.007" transform="translate(178.927 41.301)" fill="#fff"/>
      <path id="Path_80127" data-name="Path 80127" d="M21.1.071A33.026,33.026,0,0,0,10.112,2.488C2.652,5.657-2.376,13.662,1.151,21.778a10.747,10.747,0,0,0,3.392,4.416A7.024,7.024,0,0,0,10.1,27.442a14.718,14.718,0,0,0,5.11-2.662,13.792,13.792,0,0,1,5.3-2.6,14.846,14.846,0,0,1,7.833.987c1.261.474,2.485,1.039,3.71,1.6A17.948,17.948,0,0,0,35.5,26.1a4.8,4.8,0,0,0,2.58-.041,5.806,5.806,0,0,0,2.166-1.432,23.062,23.062,0,0,0,2.149-2.508c2.328-3.043,4.04-7.246,2.689-11.121s-5.258-6.318-8.708-8.149A21.77,21.77,0,0,0,31.721,1,34.05,34.05,0,0,0,21.1.071" transform="translate(207.936 93.185)" fill="#fff"/>
      <path id="Path_80128" data-name="Path 80128" d="M50.169,33.664a10.683,10.683,0,0,0,.859-4.644,9.182,9.182,0,0,0-5.318-7.431c-1.936-.878-4.069-1.332-5.876-2.453S36.561,15.907,37.1,13.85c.512-1.959,2.474-3.072,3.226-4.923.939-2.312.787-6.587-1.4-8.243-1.649-1.25-4.063-.615-5.791.523-3.9,2.567-6.12,7.229-10.193,9.507C18.432,13.238,12.557,12.322,8.137,15a14.4,14.4,0,0,0-3.788,3.537A19.807,19.807,0,0,0,.02,29.547a15.511,15.511,0,0,0,2.517,9.269C4.276,41.5,6,42.435,9.147,43.246c2.456.634,5.069,1.048,7.352,2.2a7.551,7.551,0,0,1,2.585,2.044,8.2,8.2,0,0,1,1.487,3.494c.3,1.529.358,3.093.748,4.609a8.857,8.857,0,0,0,2.052,3.887,13.325,13.325,0,0,0,8.99,3.786A20.052,20.052,0,0,0,42,61.221a17.894,17.894,0,0,0,6.991-5.389,7.384,7.384,0,0,0,1.435-3.9,8.948,8.948,0,0,0-1.3-4.486,18.015,18.015,0,0,1-2-4.776,7.518,7.518,0,0,1,.764-4.706c.714-1.459,1.645-2.8,2.278-4.3" transform="translate(102.927 155.774)" fill="#fff"/>
      <path id="Path_80129" data-name="Path 80129" d="M50.441,17.994a29.649,29.649,0,0,0-7.925-4.8,33.446,33.446,0,0,0-4.1-1.453,32.96,32.96,0,0,0-4-.746c-2.762-.4-5.771-.723-8.2-2.218a6.817,6.817,0,0,1-1.493-1.232,9.261,9.261,0,0,1-1.165-1.724A23.149,23.149,0,0,0,21.486,2.28,6.334,6.334,0,0,0,17.877.15,9.114,9.114,0,0,0,14.851.1,20.867,20.867,0,0,0,7.54,2.58a11.283,11.283,0,0,0-5.347,5.5c-1.236,3.184-.031,6.378-.465,9.633-.089.668-.253,1.322-.4,1.978-.255,1.1-.495,2.207-.7,3.319a29.953,29.953,0,0,0-.577,7.41,11.4,11.4,0,0,0,2.3,6.571,9.574,9.574,0,0,0,7.1,3.189c2.674.108,5.89-.613,8.05,1.409a9.4,9.4,0,0,1,1.428,1.888c.394.616.785,1.233,1.195,1.839a15.533,15.533,0,0,0,2.519,3.022,8.939,8.939,0,0,0,3.51,1.9,16.022,16.022,0,0,0,4.752.442A32.417,32.417,0,0,0,41,48.795a21.02,21.02,0,0,0,4.417-2.148,26.3,26.3,0,0,0,3.811-3.079,25.1,25.1,0,0,0,5.931-8.576,15.5,15.5,0,0,0,1.125-4.91,12.654,12.654,0,0,0-.67-4.716,17.2,17.2,0,0,0-5.175-7.372" transform="translate(171.167 185.589)" fill="#fff"/>
      <path id="Path_80130" data-name="Path 80130" d="M31.326,6.538c-1.58-.559-3.183-1.056-4.747-1.658a23.633,23.633,0,0,1-2.224-.975c-.714-.363-1.393-.788-2.075-1.207A22.8,22.8,0,0,0,17.534.276c-2.961-.969-5.621.787-7.814,2.6C8.526,3.867,7.413,4.954,6.184,5.9c-1.2.924-2.643,1.5-3.785,2.488A7.551,7.551,0,0,0,2.587,19.6a10.325,10.325,0,0,0,6.355,2.366c2.323.144,4.647-.143,6.97-.048a11.318,11.318,0,0,1,3.19.509,9.335,9.335,0,0,1,2.567,1.411c1.568,1.175,2.862,2.672,4.392,3.895a10.689,10.689,0,0,0,5.1,2.409,6.584,6.584,0,0,0,4.356-.881c2.713-1.655,4.185-4.889,4.835-7.884.69-3.179.7-6.91-1.14-9.722-1.795-2.736-4.92-4.067-7.89-5.118" transform="translate(207.378 159.863)" fill="#fff"/>
      <path id="Path_80131" data-name="Path 80131" d="M11.223,4.944C10.211,6.068,9.243,7.232,8.2,8.329A21.306,21.306,0,0,1,6.619,9.845c-.55.47-1.139.889-1.724,1.313a20.575,20.575,0,0,0-3.66,3.119C-.6,16.411-.051,19.235.7,21.691c.411,1.337.932,2.641,1.3,3.992.356,1.318.339,2.723.766,4.015a6.814,6.814,0,0,0,9.414,3.719,9.318,9.318,0,0,0,4.17-4.481c.923-1.887,1.487-3.923,2.369-5.828a10.208,10.208,0,0,1,1.528-2.484,8.423,8.423,0,0,1,2.063-1.652c1.522-.9,3.217-1.463,4.765-2.315a9.652,9.652,0,0,0,3.772-3.422A5.944,5.944,0,0,0,31.618,9.3c-.442-2.834-2.629-5.179-4.9-6.756C24.3.87,21.2-.431,18.217.134c-2.9.551-5.091,2.7-6.994,4.809" transform="translate(19.391 117.616)" fill="#fff"/>
      <path id="Path_80132" data-name="Path 80132" d="M55.1,2.6a25.748,25.748,0,0,0-8.846.116c-3.175.5-6.295,1.37-9.5,1.647a20.486,20.486,0,0,1-4.854-.115,19.121,19.121,0,0,1-4.543-1.331C17.82-1.1,14.073-1.24,5.472,4.225,2.284,6.252.2,9.06.013,12.992a12.681,12.681,0,0,0,1.4,6.357,12.383,12.383,0,0,0,4.335,4.768,11.919,11.919,0,0,0,3.034,1.374,14.3,14.3,0,0,0,3.7.5,46.137,46.137,0,0,1,9.374,1.121,37.425,37.425,0,0,1,4.483,1.359c1.51.563,2.945,1.274,4.415,1.928a29.6,29.6,0,0,0,15.807,2.723A21.474,21.474,0,0,0,60.315,25.4a22.681,22.681,0,0,0,1.5-2.08V5.653A15.877,15.877,0,0,0,55.1,2.6" transform="translate(229.48 128.015)" fill="#fff"/>
      <path id="Path_80133" data-name="Path 80133" d="M50.309,2.708c-2.687-1.688-6.055-1.382-9.058-1.022A40.753,40.753,0,0,1,31.707,2a15.633,15.633,0,0,1-2.252-.424A15.3,15.3,0,0,1,27.4.771,8.33,8.33,0,0,0,25.2.139,14.176,14.176,0,0,0,23.172,0a15.076,15.076,0,0,0-7.462,2.118A18.971,18.971,0,0,0,9.927,7.463a19.387,19.387,0,0,0-1.94,3.367A16.012,16.012,0,0,0,6.892,14c-.324,1.521-.424,3.091-.619,4.632C5.936,21.289,5.4,23.7,3.654,25.8,2.1,27.658-1.05,29.772.35,32.5c1.826,3.556,7.261,2.319,10.07,1.2a31.061,31.061,0,0,1,4.295-1.529,22.749,22.749,0,0,1,4.614-.577,18.584,18.584,0,0,1,4.476.321,31.63,31.63,0,0,1,4.449,1.46,23.188,23.188,0,0,0,4.423,1.333,12.189,12.189,0,0,0,3.412.081,17.3,17.3,0,0,0,6.554-2.278,25.838,25.838,0,0,0,5.845-4.668,28.175,28.175,0,0,0,3.043-3.83V3.666a7.681,7.681,0,0,0-1.221-.958" transform="translate(239.769 52.689)" fill="#fff"/>
      <path id="Path_80134" data-name="Path 80134" d="M17.789,25.9a14.343,14.343,0,0,1,4.991,5.692c2.932,6.089,8.469,12.8,16.15,9.531a8.268,8.268,0,0,0,4.483-4.7,5.318,5.318,0,0,0,.214-2.832,8.43,8.43,0,0,0-.968-2.452c-.817-1.475-1.953-2.867-2.315-4.51a3.868,3.868,0,0,1,.225-2.356,6.173,6.173,0,0,1,.822-1.349c.454-.586.909-1.172,1.346-1.771A16.572,16.572,0,0,0,46,14.027a13.4,13.4,0,0,0,.07-4.129A11.036,11.036,0,0,0,44.9,6.422a12.34,12.34,0,0,0-5.159-5.1A11.3,11.3,0,0,0,32.417.19a9.152,9.152,0,0,0-3.543,1.461,20.191,20.191,0,0,0-2.908,2.615A33.44,33.44,0,0,1,23.14,7.013,11.944,11.944,0,0,1,19.3,9.046a16.4,16.4,0,0,1-4.724.8,30.344,30.344,0,0,1-4.406-.29A15.886,15.886,0,0,0,3.493,9.8,5.008,5.008,0,0,0,.874,11.6,4.679,4.679,0,0,0,.046,14.95c.332,2.257,2.376,3.925,4.223,5.012a40.072,40.072,0,0,0,6.691,2.705A31.678,31.678,0,0,1,17.789,25.9" transform="translate(137.051 19.77)" fill="#fff"/>
      <path id="Path_80135" data-name="Path 80135" d="M8.375,50.466a10.139,10.139,0,0,0,7.517,1.149c5.453-1.314,9.905-4.641,15.576-5.339,5.778-.711,11.964-.394,16.2-5.145,5.274-5.92-3.424-9.6-4.409-14.992-.66-3.609,3.725-5.456,5.419-8.075a9.467,9.467,0,0,0,1.461-3.43,8.68,8.68,0,0,0-.178-3.683C48.38,4.863,42.405-1.457,35.47.3a14.057,14.057,0,0,0-6.727,4.466,53.714,53.714,0,0,0-4.659,6.415,28.286,28.286,0,0,1-4.9,5.962c-1.935,1.661-4.3,2.577-6.577,3.664a41.582,41.582,0,0,0-6.38,3.6,15.733,15.733,0,0,0-4.77,5.1,12.682,12.682,0,0,0-1.379,7.38,19.028,19.028,0,0,0,2.613,7.7,16.3,16.3,0,0,0,5.688,5.884" transform="translate(36.357 52.343)" fill="#fff"/>
      <path id="Path_80136" data-name="Path 80136" d="M47.77,62.518A19.629,19.629,0,0,0,54.3,57.377a7.341,7.341,0,0,0,1.3-6.864,6.183,6.183,0,0,0-2.975-3.371,39,39,0,0,0-4.261-1.754,7.426,7.426,0,0,1-3.537-2.563,8.605,8.605,0,0,1-1.385-5.035c.055-3.617,1.5-7.1,1.242-10.741a9.444,9.444,0,0,0-1.953-5.18A14.434,14.434,0,0,0,39.575,18.9,27.53,27.53,0,0,0,31.9,15.48a53.463,53.463,0,0,1-7.707-2.711,11.507,11.507,0,0,1-5.508-5.606C17.631,4.9,17.8.774,14.75.176c-10.2-2-12.96,13.605-11.193,20.5C4.6,24.764,6.992,28.8,6.177,33.156,5.408,37.267,2.33,40.389.822,44.2a11.774,11.774,0,0,0-.7,6.005,21.951,21.951,0,0,0,2.072,6.65,22.134,22.134,0,0,0,3.823,5.558,17.244,17.244,0,0,0,4.482,3.325,27.07,27.07,0,0,0,11.034,2.73,48.1,48.1,0,0,0,10.846-.7A52.618,52.618,0,0,0,39.349,66a49.869,49.869,0,0,0,8.421-3.479" transform="translate(35.235 149.54)" fill="#fff"/>
      <path id="Path_80137" data-name="Path 80137" d="M49.319,12.521a9.361,9.361,0,0,0-2.727-2.187,19.465,19.465,0,0,0-3.362-1.41,22.875,22.875,0,0,0-3.607-.919c-2.674-.418-5.44-.4-8.053-1.162a7.466,7.466,0,0,1-3.187-1.772c-.923-.9-1.655-1.965-2.568-2.87A7.036,7.036,0,0,0,22.495.322,13.286,13.286,0,0,0,18.414.044,22.826,22.826,0,0,0,11.4,1.838a27.308,27.308,0,0,0-6.293,3.49C-.156,9.345-.793,14.763.7,20.962c.466,1.931,1.461,3.681,1.929,5.616A30.14,30.14,0,0,1,3.111,30.2c.137,1.175.31,2.346.554,3.5a18.573,18.573,0,0,0,2.422,6.3,11.807,11.807,0,0,0,5.165,4.424,16.967,16.967,0,0,0,7.869,1.194,38.274,38.274,0,0,0,8.563-1.635,66.921,66.921,0,0,0,7.681-2.831,28.9,28.9,0,0,0,6.488-3.751A20.65,20.65,0,0,0,46.694,31.8a36.09,36.09,0,0,0,3.4-7.582,16.855,16.855,0,0,0,.811-8.35,7.668,7.668,0,0,0-1.584-3.343" transform="translate(80.275 222.346)" fill="#fff"/>
      <path id="Path_80138" data-name="Path 80138" d="M.569,7.708c.377,1.564,1.184,2.982,1.562,4.549a24.36,24.36,0,0,1,.388,2.937c.111.952.251,1.9.448,2.838a15.049,15.049,0,0,0,1.962,5.1A9.563,9.563,0,0,0,9.114,26.72a13.742,13.742,0,0,0,6.374.967,30.981,30.981,0,0,0,6.936-1.325,54.234,54.234,0,0,0,6.222-2.293A23.423,23.423,0,0,0,33.9,21.031a16.73,16.73,0,0,0,3.922-4.547,29.224,29.224,0,0,0,2.753-6.142,13.65,13.65,0,0,0,.657-6.763A6.209,6.209,0,0,0,39.948.87,6.458,6.458,0,0,0,39.064,0H.5A14.245,14.245,0,0,0,.569,7.708" transform="translate(196.491 0)" fill="#fff"/>
      <path id="Path_80139" data-name="Path 80139" d="M.132,5.33C.708,8.686,2.74,11.607,5,14.069a35.467,35.467,0,0,0,3.527,3.347c1.2,1,2.541,1.817,3.72,2.844a7,7,0,0,1,2.419,3.87,26.787,26.787,0,0,1,.272,5.137,10.944,10.944,0,0,0,1.128,5,16.851,16.851,0,0,0,3.5,4.376,16.176,16.176,0,0,0,9.894,4.433c3.658.254,7.241-.6,10.836-1.13a28.1,28.1,0,0,1,5.425-.362c5.078.24,10.973.707,14.408-3.955a6.522,6.522,0,0,0,1.279-4.291,7.706,7.706,0,0,0-1.482-3.891c-1.649-2.359-4.079-4.035-5.742-6.375a12.549,12.549,0,0,1-2.113-4.3,6.571,6.571,0,0,1,.229-3.61,20.056,20.056,0,0,1,2.04-3.973,21.973,21.973,0,0,0,2.2-4.481A16.167,16.167,0,0,0,57.318,0H.718A10.206,10.206,0,0,0,.132,5.33" transform="translate(62.655 0)" fill="#fff"/>
      <path id="Path_80140" data-name="Path 80140" d="M41.219,14.161a13.768,13.768,0,0,0-4.822-3.1,20.347,20.347,0,0,0-6.131-1.383c-2.208-.16-4.442.142-6.635-.241a7.457,7.457,0,0,1-2.948-1.123,7.276,7.276,0,0,1-2.119-2.443c-1.046-1.8-1.836-3.8-3.747-4.87A7.288,7.288,0,0,0,9.148.3C5.685,1.494,4.114,5.425,3.073,8.614A68.639,68.639,0,0,0,.182,19.407c-.735,5,.734,10.761,4.9,13.927,3.587,2.729,8.292,3.037,12.628,2.813A39.915,39.915,0,0,0,31.288,33.17c4.244-1.808,8.3-4.679,10.708-8.692a9.232,9.232,0,0,0,1.48-5.745,7.978,7.978,0,0,0-2.257-4.572" transform="translate(145.306 231.428)" fill="#fff"/>
      <path id="Path_80141" data-name="Path 80141" d="M35.611,11.062A20.347,20.347,0,0,0,29.48,9.679c-2.208-.16-4.442.142-6.635-.241A7.45,7.45,0,0,1,19.9,8.315a7.27,7.27,0,0,1-2.119-2.443c-1.046-1.8-1.836-3.8-3.747-4.87A7.29,7.29,0,0,0,8.362.3C4.9,1.493,3.329,5.423,2.288,8.611-2.155,22.217-1.515,37.1,16.92,36.148A39.9,39.9,0,0,0,30.5,33.17c4.244-1.808,8.3-4.679,10.708-8.692.073-.122.144-.246.214-.371V15.4a9,9,0,0,0-.991-1.236,13.77,13.77,0,0,0-4.822-3.1" transform="translate(249.875 4.202)" fill="#fff"/>
      <path id="Path_80142" data-name="Path 80142" d="M39.808,9.152c-.387-.266-.787-.562-1.194-.9C34.531,4.862,36.233-.336,29.368.017,19.194.542,10.992,4.464,7.028,13.536,5.344,17.389.253,20.066.011,24.484c-.3,5.418,5.765,5.181,6.621,9.41.378,1.866-2.391,2.754-1.023,4.887,1.194,1.862,5.513,1.609,7.363,1.514,6.241-.321,6.712-2.456,9.981-6.736,3.187-4.173,7.134-3.159,11.6-5.32a18.7,18.7,0,0,0,9.123-10.794c1.824-5.924-.554-6.015-3.871-8.294" transform="translate(202.916 239.511)" fill="#fff"/>
      <path id="Path_80143" data-name="Path 80143" d="M31.352,16.316a9.816,9.816,0,0,0-.5-2.872C30.124,11.487,28.614,10,27.61,8.2a7.928,7.928,0,0,1-.922-2.883,7.276,7.276,0,0,0-.735-2.86A4.8,4.8,0,0,0,23.421.428c-4.5-1.575-10.074,1.54-13.9,3.7A6.988,6.988,0,0,0,6.6,7a7.051,7.051,0,0,0-.356,4.737c.445,1.926,1.353,3.753,1.6,5.725a5.005,5.005,0,0,1-.313,2.646,6.154,6.154,0,0,1-2.013,2.372c-1.364,1.012-3.043,1.647-4.2,2.921a5.4,5.4,0,0,0-.884,5.649c2.181,5.292,8.8,10.847,14.812,10.026a9.329,9.329,0,0,0,5.378-2.484c2.49-2.48,3.179-6.185,5.636-8.691.311-.317.646-.608.947-.934a12.533,12.533,0,0,0,.931-1.15,14.957,14.957,0,0,0,1.441-2.5,20.1,20.1,0,0,0,1.679-6.041,17.262,17.262,0,0,0,.1-2.961" transform="translate(242.771 194.047)" fill="#fff"/>
      <path id="Path_80144" data-name="Path 80144" d="M51.025,5.658a16.067,16.067,0,0,0-5.07-4.6A7.921,7.921,0,0,0,39.771.337a15.145,15.145,0,0,0-6.763,4.431,24.461,24.461,0,0,0-4.139,7.315c-1.107,2.846-1.889,5.821-3.2,8.587-2.148,4.54-5.856,10.2-11.147,11.109-2.455.423-5.06-.024-7.4.828a13.079,13.079,0,0,0-4.6,3.378c-1.519,1.537-3.1,3.64-2.321,5.656.537,1.392,2,2.138,3.246,2.966s2.466,2.181,2.1,3.627c-.29,1.136-1.454,1.819-2.009,2.852-.823,1.534-.078,3.532,1.24,4.668a11.234,11.234,0,0,0,4.757,2.029c4.332,1.075,9,1.99,13.166.381,6.14-2.373,10.135-9.767,14.514-14.38a35.509,35.509,0,0,1,3.26-3.028c1.185-.97,2.455-1.808,3.7-2.7A28.952,28.952,0,0,0,53.379,27.68V9.471a23.857,23.857,0,0,0-2.354-3.814" transform="translate(237.92 236.236)" fill="#fff"/>
    </g>
    <g id="Group_28690" data-name="Group 28690" transform="translate(1724.064 3000.225) rotate(-149)" opacity="0.032" clip-path="url(#clip-path)">
      <path id="Path_80191" data-name="Path 80191" d="M60.436,14.136a14.23,14.23,0,0,0-7.913-4.219c-3.856-.6-7.731.268-11.6-.014A13.541,13.541,0,0,1,35.88,8.577a24.99,24.99,0,0,1-4.089-2.694c-2.731-2.1-5.5-4.316-8.843-5.339a17.2,17.2,0,0,0-9.725.388A32.823,32.823,0,0,0,8.494,2.694,20.206,20.206,0,0,0,4.547,4.977a11.746,11.746,0,0,0-4.283,6.7C-1.295,18.748,4.359,24.621,9.23,28.861a9.921,9.921,0,0,0,4.38,2.068A29.838,29.838,0,0,1,18.26,32.1a7.767,7.767,0,0,1,3.41,2.731,13.2,13.2,0,0,1,1.691,3.74c.815,2.665,1.3,5.487,2.894,7.833a10.11,10.11,0,0,0,5.736,4.106,16.229,16.229,0,0,0,7.3.046,32.956,32.956,0,0,0,7.388-2.468,44,44,0,0,0,6.283-3.524A40.63,40.63,0,0,0,60.189,38.5a21.514,21.514,0,0,0,4.9-8,14.487,14.487,0,0,0-.041-8.712,19.051,19.051,0,0,0-4.608-7.653" transform="translate(61.631 112.398)" fill="#fff"/>
      <path id="Path_80192" data-name="Path 80192" d="M20.9,49.174a12.842,12.842,0,0,0,6.792-4.4c2.157-2.784,3.171-6.22,5.085-9.151a12.214,12.214,0,0,1,3.253-3.4,22.531,22.531,0,0,1,3.915-2.05c2.853-1.237,5.811-2.451,8.083-4.646a15.521,15.521,0,0,0,3.948-7.847,29.626,29.626,0,0,0,.677-4.5A18.238,18.238,0,0,0,52.58,9.06a10.6,10.6,0,0,0-3.419-6.313C43.84-1.948,32.717-.218,28.128,4.863a26.938,26.938,0,0,1-2.959,3.158,7.009,7.009,0,0,1-3.648,1.5,11.914,11.914,0,0,1-3.693-.3c-2.46-.523-4.9-1.377-7.449-1.141A9.124,9.124,0,0,0,4.63,10.808,14.646,14.646,0,0,0,1.4,16.549,29.722,29.722,0,0,0,.117,23.461a39.777,39.777,0,0,0,.034,6.5,36.657,36.657,0,0,0,1.626,8.359A19.416,19.416,0,0,0,5.95,45.684a13.079,13.079,0,0,0,6.9,3.779,17.2,17.2,0,0,0,8.057-.29" transform="translate(6.767 19.734)" fill="#fff"/>
      <path id="Path_80193" data-name="Path 80193" d="M53.6,47.211a13.816,13.816,0,0,0,6.215-8.26,19.367,19.367,0,0,0-.515-10.2,38.558,38.558,0,0,0-4.6-9.8,35.667,35.667,0,0,0-6.672-8.025,46.484,46.484,0,0,0-21.44-10C19.544-.4,9.668-.926,3.652,3.732c-2.781,2.154-4.5,6.02-3.222,9.3.705,1.805,2.062,3.241,2.636,5.111A11.348,11.348,0,0,1,3.2,23.386C2.673,26.567,1.429,29.57.78,32.727a29.076,29.076,0,0,0-.652,8.025,12.808,12.808,0,0,0,2.41,7,10.365,10.365,0,0,0,7.033,3.639c4.31.552,8.4-1.112,12.443-2.338a24.181,24.181,0,0,1,6.151-1.185,34.6,34.6,0,0,1,5.063.258c3.517.394,7.009,1.072,10.552,1.2A17.536,17.536,0,0,0,53.6,47.211" transform="translate(104.81 57.268)" fill="#fff"/>
      <path id="Path_80194" data-name="Path 80194" d="M65.831,31.308c-1.23-3.175-3.8-5.636-6.5-7.6a35.459,35.459,0,0,0-4.121-2.582c-1.377-.737-2.852-1.277-4.21-2.05a7.005,7.005,0,0,1-3.139-3.313,26.8,26.8,0,0,1-1.285-4.982,10.945,10.945,0,0,0-2.1-4.673,16.847,16.847,0,0,0-4.3-3.6A16.176,16.176,0,0,0,29.6.129c-3.636.477-6.978,2.023-10.4,3.256a28.126,28.126,0,0,1-5.246,1.43C8.937,5.587,3.066,6.3.623,11.547a6.524,6.524,0,0,0-.4,4.46,7.708,7.708,0,0,0,2.224,3.52c2.083,1.985,4.8,3.147,6.892,5.111a12.545,12.545,0,0,1,2.924,3.795,6.574,6.574,0,0,1,.491,3.584,20.076,20.076,0,0,1-1.212,4.3,21.974,21.974,0,0,0-1.269,4.828,15.88,15.88,0,0,0,1.569,9.211,16.2,16.2,0,0,0,6.943,6.791,27.114,27.114,0,0,0,10.134,2.89,39.082,39.082,0,0,0,10.616-.491,35.886,35.886,0,0,0,10.26-3.421,36.3,36.3,0,0,0,8.984-6.607,30.934,30.934,0,0,0,6.081-8.35c1.458-3.06,2.237-6.592.972-9.857" transform="translate(145.314 109.619)" fill="#fff"/>
      <path id="Path_80195" data-name="Path 80195" d="M0,44.047A24.417,24.417,0,0,0,.309,48.09c.514,3.178,1.908,7.58,4.668,9.585,3.315,2.407,5.237-1.155,7.277-3.237a12.024,12.024,0,0,1,9.409-3.808c3.9.268,7.36,2.454,10.8,4.311,6.172,3.332,14.357,5.076,20.539.9,3.039-2.052,5.337-4.93,7.844-7.561A28.106,28.106,0,0,1,64.9,44.658c4.149-2.937,9.083-6.2,8.92-11.986A6.523,6.523,0,0,0,72.186,28.5a7.7,7.7,0,0,0-3.563-2.155c-2.751-.844-5.7-.669-8.45-1.489a12.556,12.556,0,0,1-4.312-2.087,6.576,6.576,0,0,1-2.041-2.986,20.06,20.06,0,0,1-.838-4.387,21.988,21.988,0,0,0-1.024-4.885,15.883,15.883,0,0,0-5.522-7.537A16.208,16.208,0,0,0,37.189.007,27.118,27.118,0,0,0,26.831,1.953a39.086,39.086,0,0,0-9.276,5.185c-4.7,3.5-7.353,8.34-9.894,13.476C4.062,27.889.047,35.784,0,44.047" transform="translate(0 222.382)" fill="#fff"/>
      <path id="Path_80196" data-name="Path 80196" d="M2.06,51.007a7.673,7.673,0,0,0,3.271,2.05,11.463,11.463,0,0,0,4.076.607A16.747,16.747,0,0,0,19,49.788a53.032,53.032,0,0,0,3.871-3.629,21.121,21.121,0,0,1,3.9-3.024,24.868,24.868,0,0,1,8.737-2.961c1.663-.278,3.341-.462,5.019-.629A17.639,17.639,0,0,0,44.4,38.8a14.235,14.235,0,0,0,5.851-3.734,17.2,17.2,0,0,0,3.58-5.941A21.788,21.788,0,0,0,55.1,22.1a22.927,22.927,0,0,0-1-7.2,19.5,19.5,0,0,0-3.3-6.343,21.651,21.651,0,0,0-7.281-5.778A26.547,26.547,0,0,0,34.078.114a25.4,25.4,0,0,0-9.671.93A9.388,9.388,0,0,0,18.3,5.771a14.516,14.516,0,0,0-.941,7.114c.163,2.549.59,5.077.692,7.631.122,3.051-.255,6.333-2.034,8.9a8.951,8.951,0,0,1-4.11,3.256c-1.705.659-3.533.913-5.25,1.537a9.6,9.6,0,0,0-3.685,2.309A9.259,9.259,0,0,0,.949,39.864C-.43,43.743-.5,48.23,2.06,51.007" transform="translate(178.927 41.301)" fill="#fff"/>
      <path id="Path_80197" data-name="Path 80197" d="M21.1.071A33.026,33.026,0,0,0,10.112,2.488C2.652,5.657-2.376,13.662,1.151,21.778a10.747,10.747,0,0,0,3.392,4.416A7.024,7.024,0,0,0,10.1,27.442a14.718,14.718,0,0,0,5.11-2.662,13.792,13.792,0,0,1,5.3-2.6,14.846,14.846,0,0,1,7.833.987c1.261.474,2.485,1.039,3.71,1.6A17.948,17.948,0,0,0,35.5,26.1a4.8,4.8,0,0,0,2.58-.041,5.806,5.806,0,0,0,2.166-1.432,23.062,23.062,0,0,0,2.149-2.508c2.328-3.043,4.04-7.246,2.689-11.121s-5.258-6.318-8.708-8.149A21.77,21.77,0,0,0,31.721,1,34.05,34.05,0,0,0,21.1.071" transform="translate(207.936 93.185)" fill="#fff"/>
      <path id="Path_80198" data-name="Path 80198" d="M50.169,33.664a10.683,10.683,0,0,0,.859-4.644,9.182,9.182,0,0,0-5.318-7.431c-1.936-.878-4.069-1.332-5.876-2.453S36.561,15.907,37.1,13.85c.512-1.959,2.474-3.072,3.226-4.923.939-2.312.787-6.587-1.4-8.243-1.649-1.25-4.063-.615-5.791.523-3.9,2.567-6.12,7.229-10.193,9.507C18.432,13.238,12.557,12.322,8.137,15a14.4,14.4,0,0,0-3.788,3.537A19.807,19.807,0,0,0,.02,29.547a15.511,15.511,0,0,0,2.517,9.269C4.276,41.5,6,42.435,9.147,43.246c2.456.634,5.069,1.048,7.352,2.2a7.551,7.551,0,0,1,2.585,2.044,8.2,8.2,0,0,1,1.487,3.494c.3,1.529.358,3.093.748,4.609a8.857,8.857,0,0,0,2.052,3.887,13.325,13.325,0,0,0,8.99,3.786A20.052,20.052,0,0,0,42,61.221a17.894,17.894,0,0,0,6.991-5.389,7.384,7.384,0,0,0,1.435-3.9,8.948,8.948,0,0,0-1.3-4.486,18.015,18.015,0,0,1-2-4.776,7.518,7.518,0,0,1,.764-4.706c.714-1.459,1.645-2.8,2.278-4.3" transform="translate(102.927 155.774)" fill="#fff"/>
      <path id="Path_80199" data-name="Path 80199" d="M50.441,17.994a29.649,29.649,0,0,0-7.925-4.8,33.446,33.446,0,0,0-4.1-1.453,32.96,32.96,0,0,0-4-.746c-2.762-.4-5.771-.723-8.2-2.218a6.817,6.817,0,0,1-1.493-1.232,9.261,9.261,0,0,1-1.165-1.724A23.149,23.149,0,0,0,21.486,2.28,6.334,6.334,0,0,0,17.877.15,9.114,9.114,0,0,0,14.851.1,20.867,20.867,0,0,0,7.54,2.58a11.283,11.283,0,0,0-5.347,5.5c-1.236,3.184-.031,6.378-.465,9.633-.089.668-.253,1.322-.4,1.978-.255,1.1-.495,2.207-.7,3.319a29.953,29.953,0,0,0-.577,7.41,11.4,11.4,0,0,0,2.3,6.571,9.574,9.574,0,0,0,7.1,3.189c2.674.108,5.89-.613,8.05,1.409a9.4,9.4,0,0,1,1.428,1.888c.394.616.785,1.233,1.195,1.839a15.533,15.533,0,0,0,2.519,3.022,8.939,8.939,0,0,0,3.51,1.9,16.022,16.022,0,0,0,4.752.442A32.417,32.417,0,0,0,41,48.795a21.02,21.02,0,0,0,4.417-2.148,26.3,26.3,0,0,0,3.811-3.079,25.1,25.1,0,0,0,5.931-8.576,15.5,15.5,0,0,0,1.125-4.91,12.654,12.654,0,0,0-.67-4.716,17.2,17.2,0,0,0-5.175-7.372" transform="translate(171.167 185.589)" fill="#fff"/>
      <path id="Path_80200" data-name="Path 80200" d="M31.326,6.538c-1.58-.559-3.183-1.056-4.747-1.658a23.633,23.633,0,0,1-2.224-.975c-.714-.363-1.393-.788-2.075-1.207A22.8,22.8,0,0,0,17.534.276c-2.961-.969-5.621.787-7.814,2.6C8.526,3.867,7.413,4.954,6.184,5.9c-1.2.924-2.643,1.5-3.785,2.488A7.551,7.551,0,0,0,2.587,19.6a10.325,10.325,0,0,0,6.355,2.366c2.323.144,4.647-.143,6.97-.048a11.318,11.318,0,0,1,3.19.509,9.335,9.335,0,0,1,2.567,1.411c1.568,1.175,2.862,2.672,4.392,3.895a10.689,10.689,0,0,0,5.1,2.409,6.584,6.584,0,0,0,4.356-.881c2.713-1.655,4.185-4.889,4.835-7.884.69-3.179.7-6.91-1.14-9.722-1.795-2.736-4.92-4.067-7.89-5.118" transform="translate(207.378 159.863)" fill="#fff"/>
      <path id="Path_80201" data-name="Path 80201" d="M11.223,4.944C10.211,6.068,9.243,7.232,8.2,8.329A21.306,21.306,0,0,1,6.619,9.845c-.55.47-1.139.889-1.724,1.313a20.575,20.575,0,0,0-3.66,3.119C-.6,16.411-.051,19.235.7,21.691c.411,1.337.932,2.641,1.3,3.992.356,1.318.339,2.723.766,4.015a6.814,6.814,0,0,0,9.414,3.719,9.318,9.318,0,0,0,4.17-4.481c.923-1.887,1.487-3.923,2.369-5.828a10.208,10.208,0,0,1,1.528-2.484,8.423,8.423,0,0,1,2.063-1.652c1.522-.9,3.217-1.463,4.765-2.315a9.652,9.652,0,0,0,3.772-3.422A5.944,5.944,0,0,0,31.618,9.3c-.442-2.834-2.629-5.179-4.9-6.756C24.3.87,21.2-.431,18.217.134c-2.9.551-5.091,2.7-6.994,4.809" transform="translate(19.391 117.616)" fill="#fff"/>
      <path id="Path_80202" data-name="Path 80202" d="M55.1,2.6a25.748,25.748,0,0,0-8.846.116c-3.175.5-6.295,1.37-9.5,1.647a20.486,20.486,0,0,1-4.854-.115,19.121,19.121,0,0,1-4.543-1.331C17.82-1.1,14.073-1.24,5.472,4.225,2.284,6.252.2,9.06.013,12.992a12.681,12.681,0,0,0,1.4,6.357,12.383,12.383,0,0,0,4.335,4.768,11.919,11.919,0,0,0,3.034,1.374,14.3,14.3,0,0,0,3.7.5,46.137,46.137,0,0,1,9.374,1.121,37.425,37.425,0,0,1,4.483,1.359c1.51.563,2.945,1.274,4.415,1.928a29.6,29.6,0,0,0,15.807,2.723A21.474,21.474,0,0,0,60.315,25.4a22.681,22.681,0,0,0,1.5-2.08V5.653A15.877,15.877,0,0,0,55.1,2.6" transform="translate(229.48 128.015)" fill="#fff"/>
      <path id="Path_80203" data-name="Path 80203" d="M50.309,2.708c-2.687-1.688-6.055-1.382-9.058-1.022A40.753,40.753,0,0,1,31.707,2a15.633,15.633,0,0,1-2.252-.424A15.3,15.3,0,0,1,27.4.771,8.33,8.33,0,0,0,25.2.139,14.176,14.176,0,0,0,23.172,0a15.076,15.076,0,0,0-7.462,2.118A18.971,18.971,0,0,0,9.927,7.463a19.387,19.387,0,0,0-1.94,3.367A16.012,16.012,0,0,0,6.892,14c-.324,1.521-.424,3.091-.619,4.632C5.936,21.289,5.4,23.7,3.654,25.8,2.1,27.658-1.05,29.772.35,32.5c1.826,3.556,7.261,2.319,10.07,1.2a31.061,31.061,0,0,1,4.295-1.529,22.749,22.749,0,0,1,4.614-.577,18.584,18.584,0,0,1,4.476.321,31.63,31.63,0,0,1,4.449,1.46,23.188,23.188,0,0,0,4.423,1.333,12.189,12.189,0,0,0,3.412.081,17.3,17.3,0,0,0,6.554-2.278,25.838,25.838,0,0,0,5.845-4.668,28.175,28.175,0,0,0,3.043-3.83V3.666a7.681,7.681,0,0,0-1.221-.958" transform="translate(239.769 52.689)" fill="#fff"/>
      <path id="Path_80204" data-name="Path 80204" d="M17.789,25.9a14.343,14.343,0,0,1,4.991,5.692c2.932,6.089,8.469,12.8,16.15,9.531a8.268,8.268,0,0,0,4.483-4.7,5.318,5.318,0,0,0,.214-2.832,8.43,8.43,0,0,0-.968-2.452c-.817-1.475-1.953-2.867-2.315-4.51a3.868,3.868,0,0,1,.225-2.356,6.173,6.173,0,0,1,.822-1.349c.454-.586.909-1.172,1.346-1.771A16.572,16.572,0,0,0,46,14.027a13.4,13.4,0,0,0,.07-4.129A11.036,11.036,0,0,0,44.9,6.422a12.34,12.34,0,0,0-5.159-5.1A11.3,11.3,0,0,0,32.417.19a9.152,9.152,0,0,0-3.543,1.461,20.191,20.191,0,0,0-2.908,2.615A33.44,33.44,0,0,1,23.14,7.013,11.944,11.944,0,0,1,19.3,9.046a16.4,16.4,0,0,1-4.724.8,30.344,30.344,0,0,1-4.406-.29A15.886,15.886,0,0,0,3.493,9.8,5.008,5.008,0,0,0,.874,11.6,4.679,4.679,0,0,0,.046,14.95c.332,2.257,2.376,3.925,4.223,5.012a40.072,40.072,0,0,0,6.691,2.705A31.678,31.678,0,0,1,17.789,25.9" transform="translate(137.051 19.77)" fill="#fff"/>
      <path id="Path_80205" data-name="Path 80205" d="M8.375,50.466a10.139,10.139,0,0,0,7.517,1.149c5.453-1.314,9.905-4.641,15.576-5.339,5.778-.711,11.964-.394,16.2-5.145,5.274-5.92-3.424-9.6-4.409-14.992-.66-3.609,3.725-5.456,5.419-8.075a9.467,9.467,0,0,0,1.461-3.43,8.68,8.68,0,0,0-.178-3.683C48.38,4.863,42.405-1.457,35.47.3a14.057,14.057,0,0,0-6.727,4.466,53.714,53.714,0,0,0-4.659,6.415,28.286,28.286,0,0,1-4.9,5.962c-1.935,1.661-4.3,2.577-6.577,3.664a41.582,41.582,0,0,0-6.38,3.6,15.733,15.733,0,0,0-4.77,5.1,12.682,12.682,0,0,0-1.379,7.38,19.028,19.028,0,0,0,2.613,7.7,16.3,16.3,0,0,0,5.688,5.884" transform="translate(36.357 52.343)" fill="#fff"/>
      <path id="Path_80206" data-name="Path 80206" d="M47.77,62.518A19.629,19.629,0,0,0,54.3,57.377a7.341,7.341,0,0,0,1.3-6.864,6.183,6.183,0,0,0-2.975-3.371,39,39,0,0,0-4.261-1.754,7.426,7.426,0,0,1-3.537-2.563,8.605,8.605,0,0,1-1.385-5.035c.055-3.617,1.5-7.1,1.242-10.741a9.444,9.444,0,0,0-1.953-5.18A14.434,14.434,0,0,0,39.575,18.9,27.53,27.53,0,0,0,31.9,15.48a53.463,53.463,0,0,1-7.707-2.711,11.507,11.507,0,0,1-5.508-5.606C17.631,4.9,17.8.774,14.75.176c-10.2-2-12.96,13.605-11.193,20.5C4.6,24.764,6.992,28.8,6.177,33.156,5.408,37.267,2.33,40.389.822,44.2a11.774,11.774,0,0,0-.7,6.005,21.951,21.951,0,0,0,2.072,6.65,22.134,22.134,0,0,0,3.823,5.558,17.244,17.244,0,0,0,4.482,3.325,27.07,27.07,0,0,0,11.034,2.73,48.1,48.1,0,0,0,10.846-.7A52.618,52.618,0,0,0,39.349,66a49.869,49.869,0,0,0,8.421-3.479" transform="translate(35.235 149.54)" fill="#fff"/>
      <path id="Path_80207" data-name="Path 80207" d="M49.319,12.521a9.361,9.361,0,0,0-2.727-2.187,19.465,19.465,0,0,0-3.362-1.41,22.875,22.875,0,0,0-3.607-.919c-2.674-.418-5.44-.4-8.053-1.162a7.466,7.466,0,0,1-3.187-1.772c-.923-.9-1.655-1.965-2.568-2.87A7.036,7.036,0,0,0,22.495.322,13.286,13.286,0,0,0,18.414.044,22.826,22.826,0,0,0,11.4,1.838a27.308,27.308,0,0,0-6.293,3.49C-.156,9.345-.793,14.763.7,20.962c.466,1.931,1.461,3.681,1.929,5.616A30.14,30.14,0,0,1,3.111,30.2c.137,1.175.31,2.346.554,3.5a18.573,18.573,0,0,0,2.422,6.3,11.807,11.807,0,0,0,5.165,4.424,16.967,16.967,0,0,0,7.869,1.194,38.274,38.274,0,0,0,8.563-1.635,66.921,66.921,0,0,0,7.681-2.831,28.9,28.9,0,0,0,6.488-3.751A20.65,20.65,0,0,0,46.694,31.8a36.09,36.09,0,0,0,3.4-7.582,16.855,16.855,0,0,0,.811-8.35,7.668,7.668,0,0,0-1.584-3.343" transform="translate(80.275 222.346)" fill="#fff"/>
      <path id="Path_80208" data-name="Path 80208" d="M.569,7.708c.377,1.564,1.184,2.982,1.562,4.549a24.36,24.36,0,0,1,.388,2.937c.111.952.251,1.9.448,2.838a15.049,15.049,0,0,0,1.962,5.1A9.563,9.563,0,0,0,9.114,26.72a13.742,13.742,0,0,0,6.374.967,30.981,30.981,0,0,0,6.936-1.325,54.234,54.234,0,0,0,6.222-2.293A23.423,23.423,0,0,0,33.9,21.031a16.73,16.73,0,0,0,3.922-4.547,29.224,29.224,0,0,0,2.753-6.142,13.65,13.65,0,0,0,.657-6.763A6.209,6.209,0,0,0,39.948.87,6.458,6.458,0,0,0,39.064,0H.5A14.245,14.245,0,0,0,.569,7.708" transform="translate(196.491 0)" fill="#fff"/>
      <path id="Path_80209" data-name="Path 80209" d="M.132,5.33C.708,8.686,2.74,11.607,5,14.069a35.467,35.467,0,0,0,3.527,3.347c1.2,1,2.541,1.817,3.72,2.844a7,7,0,0,1,2.419,3.87,26.787,26.787,0,0,1,.272,5.137,10.944,10.944,0,0,0,1.128,5,16.851,16.851,0,0,0,3.5,4.376,16.176,16.176,0,0,0,9.894,4.433c3.658.254,7.241-.6,10.836-1.13a28.1,28.1,0,0,1,5.425-.362c5.078.24,10.973.707,14.408-3.955a6.522,6.522,0,0,0,1.279-4.291,7.706,7.706,0,0,0-1.482-3.891c-1.649-2.359-4.079-4.035-5.742-6.375a12.549,12.549,0,0,1-2.113-4.3,6.571,6.571,0,0,1,.229-3.61,20.056,20.056,0,0,1,2.04-3.973,21.973,21.973,0,0,0,2.2-4.481A16.167,16.167,0,0,0,57.318,0H.718A10.206,10.206,0,0,0,.132,5.33" transform="translate(62.655 0)" fill="#fff"/>
      <path id="Path_80210" data-name="Path 80210" d="M41.219,14.161a13.768,13.768,0,0,0-4.822-3.1,20.347,20.347,0,0,0-6.131-1.383c-2.208-.16-4.442.142-6.635-.241a7.457,7.457,0,0,1-2.948-1.123,7.276,7.276,0,0,1-2.119-2.443c-1.046-1.8-1.836-3.8-3.747-4.87A7.288,7.288,0,0,0,9.148.3C5.685,1.494,4.114,5.425,3.073,8.614A68.639,68.639,0,0,0,.182,19.407c-.735,5,.734,10.761,4.9,13.927,3.587,2.729,8.292,3.037,12.628,2.813A39.915,39.915,0,0,0,31.288,33.17c4.244-1.808,8.3-4.679,10.708-8.692a9.232,9.232,0,0,0,1.48-5.745,7.978,7.978,0,0,0-2.257-4.572" transform="translate(145.306 231.428)" fill="#fff"/>
      <path id="Path_80211" data-name="Path 80211" d="M35.611,11.062A20.347,20.347,0,0,0,29.48,9.679c-2.208-.16-4.442.142-6.635-.241A7.45,7.45,0,0,1,19.9,8.315a7.27,7.27,0,0,1-2.119-2.443c-1.046-1.8-1.836-3.8-3.747-4.87A7.29,7.29,0,0,0,8.362.3C4.9,1.493,3.329,5.423,2.288,8.611-2.155,22.217-1.515,37.1,16.92,36.148A39.9,39.9,0,0,0,30.5,33.17c4.244-1.808,8.3-4.679,10.708-8.692.073-.122.144-.246.214-.371V15.4a9,9,0,0,0-.991-1.236,13.77,13.77,0,0,0-4.822-3.1" transform="translate(249.875 4.202)" fill="#fff"/>
      <path id="Path_80212" data-name="Path 80212" d="M39.808,9.152c-.387-.266-.787-.562-1.194-.9C34.531,4.862,36.233-.336,29.368.017,19.194.542,10.992,4.464,7.028,13.536,5.344,17.389.253,20.066.011,24.484c-.3,5.418,5.765,5.181,6.621,9.41.378,1.866-2.391,2.754-1.023,4.887,1.194,1.862,5.513,1.609,7.363,1.514,6.241-.321,6.712-2.456,9.981-6.736,3.187-4.173,7.134-3.159,11.6-5.32a18.7,18.7,0,0,0,9.123-10.794c1.824-5.924-.554-6.015-3.871-8.294" transform="translate(202.916 239.511)" fill="#fff"/>
      <path id="Path_80213" data-name="Path 80213" d="M31.352,16.316a9.816,9.816,0,0,0-.5-2.872C30.124,11.487,28.614,10,27.61,8.2a7.928,7.928,0,0,1-.922-2.883,7.276,7.276,0,0,0-.735-2.86A4.8,4.8,0,0,0,23.421.428c-4.5-1.575-10.074,1.54-13.9,3.7A6.988,6.988,0,0,0,6.6,7a7.051,7.051,0,0,0-.356,4.737c.445,1.926,1.353,3.753,1.6,5.725a5.005,5.005,0,0,1-.313,2.646,6.154,6.154,0,0,1-2.013,2.372c-1.364,1.012-3.043,1.647-4.2,2.921a5.4,5.4,0,0,0-.884,5.649c2.181,5.292,8.8,10.847,14.812,10.026a9.329,9.329,0,0,0,5.378-2.484c2.49-2.48,3.179-6.185,5.636-8.691.311-.317.646-.608.947-.934a12.533,12.533,0,0,0,.931-1.15,14.957,14.957,0,0,0,1.441-2.5,20.1,20.1,0,0,0,1.679-6.041,17.262,17.262,0,0,0,.1-2.961" transform="translate(242.771 194.047)" fill="#fff"/>
      <path id="Path_80214" data-name="Path 80214" d="M51.025,5.658a16.067,16.067,0,0,0-5.07-4.6A7.921,7.921,0,0,0,39.771.337a15.145,15.145,0,0,0-6.763,4.431,24.461,24.461,0,0,0-4.139,7.315c-1.107,2.846-1.889,5.821-3.2,8.587-2.148,4.54-5.856,10.2-11.147,11.109-2.455.423-5.06-.024-7.4.828a13.079,13.079,0,0,0-4.6,3.378c-1.519,1.537-3.1,3.64-2.321,5.656.537,1.392,2,2.138,3.246,2.966s2.466,2.181,2.1,3.627c-.29,1.136-1.454,1.819-2.009,2.852-.823,1.534-.078,3.532,1.24,4.668a11.234,11.234,0,0,0,4.757,2.029c4.332,1.075,9,1.99,13.166.381,6.14-2.373,10.135-9.767,14.514-14.38a35.509,35.509,0,0,1,3.26-3.028c1.185-.97,2.455-1.808,3.7-2.7A28.952,28.952,0,0,0,53.379,27.68V9.471a23.857,23.857,0,0,0-2.354-3.814" transform="translate(237.92 236.236)" fill="#fff"/>
    </g>
    <g id="Mask_Group_7460" data-name="Mask Group 7460" transform="translate(334.918 2888.675)" opacity="0.079" clip-path="url(#clip-path-3)">
      <g id="Mask_Group_7459" data-name="Mask Group 7459" transform="matrix(0.966, -0.259, 0.259, 0.966, -362.171, 154.114)" opacity="0.674" clip-path="url(#clip-path-4)">
        <g id="Group_28688" data-name="Group 28688" transform="translate(148.46 166.696)">
          <g id="Group_28687" data-name="Group 28687" clip-path="url(#clip-path-5)">
            <path id="Path_80145" data-name="Path 80145" d="M141.455,16.728C117.447,7.349,94.476,2.789,71.234,2.789S25.025,7.349,1.014,16.728L0,14.132C24.339,4.621,47.641,0,71.234,0s46.9,4.621,71.236,14.132Z" transform="translate(712.725 584.637)" fill="#fff" stroke="#c5daf6" stroke-width="4"/>
            <path id="Path_80146" data-name="Path 80146" d="M141.457,16.728C117.447,7.349,94.478,2.789,71.236,2.789S25.025,7.349,1.015,16.728L0,14.132C24.339,4.621,47.643,0,71.236,0s46.9,4.621,71.236,14.132Z" transform="translate(142.943 584.637)" fill="#fff" stroke="#c5daf6" stroke-width="4"/>
            <path id="Path_80147" data-name="Path 80147" d="M220.064,35.363C190.615,19.257,154.593,2.789,110.7,2.789S30.788,19.257,1.339,35.363L0,32.916C29.758,16.64,66.181,0,110.7,0s80.943,16.64,110.7,32.916Z" transform="translate(673.257 565.927)" fill="#fff" stroke="#c5daf6" stroke-width="4"/>
            <path id="Path_80148" data-name="Path 80148" d="M220.062,35.363C190.615,19.257,154.59,2.789,110.7,2.789S30.785,19.257,1.337,35.363L0,32.916C29.754,16.64,66.178,0,110.7,0s80.942,16.64,110.7,32.916Z" transform="translate(103.481 565.927)" fill="#fff" stroke="#c5daf6" stroke-width="4"/>
            <path id="Path_80149" data-name="Path 80149" d="M284.888,54.051C242.367,28.849,198.4,2.789,143.154,2.789S43.942,28.849,1.421,54.051L0,51.65C42.843,26.258,87.145,0,143.154,0S243.466,26.258,286.311,51.65Z" transform="translate(640.804 547.215)" fill="#fff" stroke="#c5daf6" stroke-width="4"/>
            <path id="Path_80150" data-name="Path 80150" d="M284.885,54.051C242.356,28.845,198.392,2.789,143.151,2.789S43.94,28.847,1.421,54.047L0,51.648C42.841,26.256,87.144,0,143.151,0S243.455,26.255,286.3,51.645Z" transform="translate(71.028 547.215)" fill="#fff" stroke="#c5daf6" stroke-width="4"/>
            <path id="Path_80151" data-name="Path 80151" d="M349.714,72.789c-10.95-5.988-21.879-12.467-32.449-18.732C274.742,28.853,230.772,2.79,175.524,2.79S76.311,28.851,33.79,54.055C23.218,60.32,12.287,66.8,1.337,72.789L0,70.342c10.905-5.966,21.814-12.434,32.369-18.688C75.212,26.258,119.515,0,175.524,0s100.317,26.26,143.16,51.656c10.552,6.254,21.464,12.722,32.367,18.686Z" transform="translate(608.435 528.501)" fill="#fff" stroke="#c5daf6" stroke-width="4"/>
            <path id="Path_80152" data-name="Path 80152" d="M349.718,72.789c-10.95-5.99-21.884-12.469-32.457-18.736C274.74,28.851,230.774,2.79,175.529,2.79S76.315,28.851,33.8,54.053C23.222,60.32,12.289,66.8,1.339,72.789L0,70.342c10.909-5.966,21.819-12.434,32.373-18.688C75.218,26.258,119.52,0,175.529,0s100.31,26.258,143.155,51.652c10.552,6.256,21.466,12.724,32.373,18.69Z" transform="translate(38.649 528.501)" fill="#fff" stroke="#c5daf6" stroke-width="4"/>
            <path id="Path_80153" data-name="Path 80153" d="M428.326,91.571c-25.263-9.871-48.978-23.924-71.911-37.519C313.892,28.849,269.922,2.79,214.671,2.79S115.459,28.847,72.938,54.049C50,67.645,26.284,81.7,1.015,91.571L0,88.975C25.057,79.186,48.675,65.187,71.515,51.65,114.36,26.257,158.662,0,214.671,0S314.991,26.258,357.835,51.654c22.838,13.536,46.452,27.532,71.506,37.321Z" transform="translate(569.287 509.793)" fill="#fff" stroke="#c5daf6" stroke-width="4"/>
            <path id="Path_80154" data-name="Path 80154" d="M427.834,91.571c-25.267-9.871-48.983-23.926-71.92-37.52C313.393,28.849,269.425,2.79,214.18,2.79S114.97,28.847,72.449,54.049C49.662,67.554,26.1,81.52,1.021,91.376L0,88.78C24.871,79.006,48.334,65.1,71.026,51.648,113.869,26.257,158.171,0,214.18,0S314.492,26.258,357.337,51.65c22.84,13.536,46.458,27.536,71.513,37.325Z" transform="translate(0 509.793)" fill="#fff" stroke="#c5daf6" stroke-width="4"/>
            <path id="Path_80155" data-name="Path 80155" d="M499.069,105.7c-56.011,0-100.312-26.258-143.156-51.65-42.519-25.2-86.487-51.263-141.734-51.263S114.966,28.849,72.447,54.051C49.66,67.556,26.1,81.522,1.021,91.38L0,88.782C24.869,79.007,48.332,65.1,71.024,51.652,113.867,26.258,158.169,0,214.178,0S314.492,26.258,357.335,51.652c42.519,25.2,86.487,51.261,141.734,51.261S598.283,76.852,640.8,51.652C683.645,26.258,727.948,0,783.957,0V2.789c-55.245,0-99.213,26.061-141.734,51.263C599.38,79.445,555.08,105.7,499.069,105.7" transform="translate(0 491.08)" fill="#fff" stroke="#c5daf6" stroke-width="4"/>
            <path id="Path_80156" data-name="Path 80156" d="M499.069,105.7c-56.011,0-100.312-26.258-143.156-51.652-42.519-25.2-86.487-51.263-141.734-51.263S114.968,28.851,72.447,54.053C49.66,67.558,26.1,81.524,1.021,91.382L0,88.784C24.869,79.009,48.332,65.1,71.024,51.654,113.867,26.258,158.169,0,214.178,0S314.492,26.258,357.335,51.654c42.519,25.2,86.487,51.261,141.734,51.261S598.283,76.854,640.8,51.654C683.645,26.258,727.948,0,783.957,0V2.789c-55.245,0-99.213,26.061-141.734,51.263C599.38,79.446,555.08,105.7,499.069,105.7" transform="translate(0 472.368)" fill="#fff" stroke="#c5daf6" stroke-width="4"/>
            <path id="Path_80157" data-name="Path 80157" d="M499.069,105.7c-56.011,0-100.312-26.258-143.156-51.652-42.519-25.2-86.487-51.261-141.734-51.261S114.968,28.849,72.449,54.051C49.66,67.554,26.1,81.52,1.021,91.378L0,88.78C24.869,79.008,48.332,65.1,71.026,51.65,113.869,26.256,158.171,0,214.178,0S314.492,26.258,357.335,51.65c42.519,25.2,86.487,51.263,141.734,51.263S598.283,76.852,640.8,51.65C683.645,26.258,727.948,0,783.957,0V2.789c-55.245,0-99.213,26.061-141.734,51.261C599.38,79.444,555.08,105.7,499.069,105.7" transform="translate(0 453.658)" fill="#fff" stroke="#c5daf6" stroke-width="4"/>
            <path id="Path_80158" data-name="Path 80158" d="M499.069,105.7c-56.011,0-100.312-26.258-143.156-51.652-42.519-25.2-86.487-51.261-141.734-51.261S114.966,28.849,72.447,54.051C49.66,67.556,26.1,81.522,1.021,91.38L0,88.782C24.869,79.007,48.332,65.1,71.024,51.65,113.867,26.258,158.169,0,214.178,0S314.492,26.258,357.335,51.65c42.519,25.2,86.487,51.263,141.734,51.263S598.283,76.852,640.8,51.65C683.645,26.258,727.948,0,783.957,0V2.789c-55.245,0-99.213,26.061-141.734,51.261C599.38,79.445,555.08,105.7,499.069,105.7" transform="translate(0 434.946)" fill="#fff" stroke="#c5daf6" stroke-width="4"/>
            <path id="Path_80159" data-name="Path 80159" d="M499.069,105.7c-56.011,0-100.312-26.258-143.156-51.65-42.519-25.2-86.487-51.261-141.734-51.261s-99.211,26.059-141.73,51.26C49.662,67.554,26.1,81.52,1.021,91.378L0,88.78C24.869,79.006,48.334,65.1,71.026,51.65,113.869,26.256,158.171,0,214.178,0S314.492,26.256,357.335,51.652c42.519,25.2,86.487,51.26,141.734,51.26S598.283,76.852,640.8,51.652C683.645,26.256,727.948,0,783.957,0V2.789c-55.245,0-99.213,26.059-141.734,51.261C599.38,79.443,555.08,105.7,499.069,105.7" transform="translate(0 416.236)" fill="#fff" stroke="#c5daf6" stroke-width="4"/>
            <path id="Path_80160" data-name="Path 80160" d="M499.069,105.7c-56.011,0-100.312-26.258-143.156-51.65-42.519-25.2-86.487-51.263-141.734-51.263S114.966,28.849,72.447,54.051C49.66,67.556,26.1,81.522,1.021,91.38L0,88.782C24.869,79.008,48.332,65.1,71.024,51.652,113.867,26.258,158.169,0,214.178,0S314.492,26.258,357.335,51.652c42.519,25.2,86.487,51.261,141.734,51.261S598.283,76.852,640.8,51.652C683.645,26.258,727.948,0,783.957,0V2.789c-55.245,0-99.213,26.061-141.734,51.263C599.38,79.445,555.08,105.7,499.069,105.7" transform="translate(0 397.522)" fill="#fff" stroke="#c5daf6" stroke-width="4"/>
            <path id="Path_80161" data-name="Path 80161" d="M499.069,105.7c-56.011,0-100.312-26.258-143.156-51.65-42.519-25.2-86.487-51.261-141.734-51.261s-99.211,26.057-141.73,51.26C49.662,67.554,26.1,81.52,1.021,91.378L0,88.78C24.869,79.008,48.334,65.1,71.026,51.65,113.869,26.256,158.171,0,214.178,0S314.492,26.256,357.335,51.652c42.519,25.2,86.487,51.26,141.734,51.26S598.283,76.852,640.8,51.652C683.645,26.256,727.948,0,783.957,0V2.789c-55.245,0-99.213,26.059-141.734,51.261C599.38,79.443,555.08,105.7,499.069,105.7" transform="translate(0 378.812)" fill="#fff" stroke="#c5daf6" stroke-width="4"/>
            <path id="Path_80162" data-name="Path 80162" d="M499.069,105.7c-56.011,0-100.312-26.258-143.156-51.65-42.519-25.2-86.487-51.26-141.734-51.26S114.968,28.845,72.447,54.047C49.66,67.552,26.1,81.518,1.021,91.376L0,88.778C24.869,79,48.332,65.1,71.024,51.648,113.867,26.255,158.169,0,214.178,0S314.492,26.255,357.335,51.648c42.519,25.2,86.487,51.261,141.734,51.261S598.283,76.852,640.8,51.648C683.645,26.255,727.948,0,783.957,0V2.79c-55.245,0-99.213,26.057-141.734,51.26C599.38,79.441,555.08,105.7,499.069,105.7" transform="translate(0 360.102)" fill="#fff" stroke="#c5daf6" stroke-width="4"/>
            <path id="Path_80163" data-name="Path 80163" d="M499.069,105.7c-56.011,0-100.312-26.258-143.156-51.65-42.519-25.2-86.487-51.261-141.734-51.261S114.968,28.847,72.447,54.049C49.66,67.554,26.1,81.52,1.021,91.378L0,88.78C24.869,79.006,48.332,65.1,71.024,51.65,113.867,26.257,158.169,0,214.178,0S314.492,26.257,357.335,51.65c42.519,25.2,86.487,51.261,141.734,51.261S598.283,76.852,640.8,51.65C683.645,26.257,727.948,0,783.957,0V2.789c-55.245,0-99.213,26.059-141.734,51.261C599.38,79.443,555.08,105.7,499.069,105.7" transform="translate(0 341.39)" fill="#fff" stroke="#c5daf6" stroke-width="4"/>
            <path id="Path_80164" data-name="Path 80164" d="M499.069,105.7c-56.011,0-100.312-26.258-143.156-51.652-42.519-25.2-86.487-51.261-141.734-51.261S114.968,28.849,72.447,54.051C49.66,67.556,26.1,81.522,1.021,91.378L0,88.782C24.869,79.007,48.332,65.1,71.024,51.65,113.867,26.258,158.169,0,214.178,0S314.492,26.258,357.335,51.652c42.519,25.2,86.487,51.261,141.734,51.261S598.283,76.854,640.8,51.652C683.645,26.258,727.948,0,783.957,0V2.789c-55.245,0-99.213,26.059-141.734,51.261C599.38,79.444,555.08,105.7,499.069,105.7" transform="translate(0 322.676)" fill="#fff" stroke="#c5daf6" stroke-width="4"/>
            <path id="Path_80165" data-name="Path 80165" d="M499.069,105.7c-56.011,0-100.312-26.258-143.156-51.652-42.519-25.2-86.487-51.261-141.734-51.261S114.968,28.849,72.447,54.049C49.66,67.556,26.1,81.522,1.021,91.378L0,88.782C24.869,79.007,48.332,65.1,71.026,51.65,113.869,26.257,158.169,0,214.178,0S314.492,26.258,357.335,51.652c42.519,25.2,86.487,51.261,141.734,51.261S598.283,76.854,640.8,51.652C683.645,26.258,727.948,0,783.957,0V2.789c-55.245,0-99.213,26.059-141.734,51.261C599.38,79.445,555.08,105.7,499.069,105.7" transform="translate(0 303.966)" fill="#fff" stroke="#c5daf6" stroke-width="4"/>
            <path id="Path_80166" data-name="Path 80166" d="M499.069,105.7c-56.011,0-100.312-26.258-143.156-51.65-42.519-25.2-86.487-51.261-141.734-51.261S114.968,28.847,72.447,54.049C49.66,67.554,26.1,81.52,1.021,91.376L0,88.78C24.869,79.006,48.332,65.1,71.024,51.65,113.867,26.256,158.169,0,214.178,0S314.492,26.256,357.335,51.65c42.519,25.2,86.487,51.261,141.734,51.261S598.283,76.852,640.8,51.65C683.645,26.256,727.948,0,783.957,0V2.789c-55.245,0-99.213,26.059-141.734,51.261C599.38,79.443,555.08,105.7,499.069,105.7" transform="translate(0 285.255)" fill="#fff" stroke="#c5daf6" stroke-width="4"/>
            <path id="Path_80167" data-name="Path 80167" d="M499.069,105.7c-56.011,0-100.312-26.258-143.156-51.652-42.519-25.2-86.487-51.261-141.734-51.261S114.968,28.849,72.447,54.051C49.66,67.556,26.1,81.522,1.021,91.378L0,88.782C24.869,79.008,48.332,65.1,71.024,51.65,113.867,26.258,158.169,0,214.178,0S314.492,26.258,357.335,51.652c42.519,25.2,86.487,51.261,141.734,51.261S598.283,76.854,640.8,51.652C683.645,26.258,727.948,0,783.957,0V2.789c-55.245,0-99.213,26.059-141.734,51.261C599.38,79.445,555.08,105.7,499.069,105.7" transform="translate(0 266.543)" fill="#fff" stroke="#c5daf6" stroke-width="4"/>
            <path id="Path_80168" data-name="Path 80168" d="M499.069,105.7c-56.011,0-100.312-26.258-143.156-51.652-42.519-25.2-86.487-51.261-141.734-51.261S114.966,28.849,72.447,54.051C49.66,67.556,26.1,81.522,1.021,91.378L0,88.782C24.869,79.008,48.332,65.1,71.024,51.65,113.867,26.258,158.169,0,214.178,0S314.492,26.258,357.335,51.652c42.519,25.2,86.487,51.261,141.734,51.261S598.283,76.854,640.8,51.652C683.645,26.258,727.948,0,783.957,0V2.789c-55.245,0-99.213,26.059-141.734,51.261C599.38,79.445,555.08,105.7,499.069,105.7" transform="translate(0 247.831)" fill="#fff" stroke="#c5daf6" stroke-width="4"/>
            <path id="Path_80169" data-name="Path 80169" d="M499.069,105.7c-56.011,0-100.312-26.258-143.156-51.652C313.393,28.849,269.425,2.79,214.178,2.79S114.966,28.849,72.447,54.051C49.66,67.558,26.1,81.522,1.021,91.38L0,88.784C24.869,79.008,48.332,65.1,71.024,51.652,113.867,26.258,158.169,0,214.178,0S314.492,26.258,357.335,51.652c42.519,25.2,86.487,51.261,141.734,51.261S598.283,76.854,640.8,51.652C683.645,26.258,727.948,0,783.957,0V2.79c-55.245,0-99.213,26.059-141.734,51.261C599.38,79.445,555.08,105.7,499.069,105.7" transform="translate(0 229.119)" fill="#fff" stroke="#c5daf6" stroke-width="4"/>
            <path id="Path_80170" data-name="Path 80170" d="M499.069,105.7c-56.011,0-100.312-26.258-143.156-51.65-42.519-25.2-86.487-51.261-141.734-51.261S114.966,28.847,72.447,54.049C49.66,67.554,26.1,81.52,1.021,91.376L0,88.78C24.869,79.006,48.332,65.1,71.024,51.65,113.867,26.256,158.169,0,214.178,0S314.492,26.256,357.335,51.65c42.519,25.2,86.487,51.261,141.734,51.261S598.283,76.852,640.8,51.65C683.645,26.256,727.948,0,783.957,0V2.789c-55.245,0-99.213,26.059-141.734,51.261C599.38,79.443,555.08,105.7,499.069,105.7" transform="translate(0 210.411)" fill="#fff" stroke="#c5daf6" stroke-width="4"/>
            <path id="Path_80171" data-name="Path 80171" d="M499.069,105.7c-56.011,0-100.312-26.258-143.156-51.652-42.519-25.2-86.487-51.261-141.734-51.261S114.968,28.849,72.447,54.051C49.66,67.556,26.1,81.522,1.021,91.378L0,88.782C24.869,79.008,48.332,65.1,71.024,51.65,113.867,26.258,158.169,0,214.178,0S314.492,26.258,357.335,51.652c42.519,25.2,86.487,51.261,141.734,51.261S598.283,76.854,640.8,51.652C683.645,26.258,727.948,0,783.957,0V2.789c-55.245,0-99.213,26.059-141.734,51.261C599.38,79.445,555.08,105.7,499.069,105.7" transform="translate(0 191.697)" fill="#fff" stroke="#c5daf6" stroke-width="4"/>
            <path id="Path_80172" data-name="Path 80172" d="M499.069,105.7c-56.011,0-100.312-26.258-143.156-51.652-42.519-25.2-86.487-51.261-141.734-51.261S114.966,28.849,72.447,54.051C49.66,67.556,26.1,81.522,1.021,91.378L0,88.782C24.869,79.008,48.332,65.1,71.024,51.652,113.867,26.258,158.169,0,214.178,0S314.492,26.258,357.335,51.652c42.519,25.2,86.487,51.261,141.734,51.261S598.283,76.854,640.8,51.652C683.645,26.258,727.948,0,783.957,0V2.789c-55.245,0-99.213,26.059-141.734,51.261C599.38,79.445,555.08,105.7,499.069,105.7" transform="translate(0 172.985)" fill="#fff" stroke="#c5daf6" stroke-width="4"/>
            <path id="Path_80173" data-name="Path 80173" d="M499.069,105.7c-56.011,0-100.312-26.258-143.156-51.652-42.519-25.2-86.487-51.261-141.734-51.261S114.97,28.849,72.449,54.049C49.662,67.554,26.1,81.52,1.021,91.378L0,88.78C24.869,79.006,48.334,65.1,71.028,51.65,113.869,26.256,158.171,0,214.178,0S314.492,26.258,357.335,51.652c42.519,25.2,86.487,51.261,141.734,51.261S598.283,76.854,640.8,51.652C683.645,26.258,727.948,0,783.957,0V2.789c-55.245,0-99.213,26.059-141.734,51.261C599.38,79.445,555.08,105.7,499.069,105.7" transform="translate(0 154.275)" fill="#fff" stroke="#c5daf6" stroke-width="4"/>
            <path id="Path_80174" data-name="Path 80174" d="M499.069,105.7c-56.011,0-100.312-26.258-143.156-51.65-42.519-25.2-86.487-51.261-141.734-51.261S114.966,28.849,72.445,54.051C49.658,67.554,26.1,81.52,1.021,91.378L0,88.782C24.869,79.006,48.332,65.1,71.024,51.65,113.867,26.256,158.168,0,214.178,0S314.492,26.256,357.335,51.65c42.519,25.2,86.487,51.261,141.734,51.261S598.283,76.852,640.8,51.65C683.645,26.256,727.948,0,783.957,0V2.789c-55.245,0-99.213,26.059-141.734,51.261C599.38,79.443,555.08,105.7,499.069,105.7" transform="translate(0 135.565)" fill="#fff" stroke="#c5daf6" stroke-width="4"/>
            <path id="Path_80175" data-name="Path 80175" d="M499.069,105.7c-56.011,0-100.312-26.258-143.156-51.65-42.519-25.2-86.487-51.261-141.734-51.261S114.968,28.847,72.447,54.049C49.66,67.554,26.1,81.52,1.021,91.376L0,88.78C24.869,79.006,48.332,65.1,71.024,51.65,113.867,26.256,158.169,0,214.178,0S314.492,26.256,357.335,51.65c42.519,25.2,86.487,51.261,141.734,51.261S598.283,76.852,640.8,51.65C683.645,26.256,727.948,0,783.957,0V2.789c-55.245,0-99.213,26.059-141.734,51.261C599.38,79.443,555.08,105.7,499.069,105.7" transform="translate(0 116.853)" fill="#fff" stroke="#c5daf6" stroke-width="4"/>
            <path id="Path_80176" data-name="Path 80176" d="M499.069,105.7c-56.011,0-100.312-26.258-143.156-51.652-42.519-25.2-86.487-51.261-141.734-51.261S114.968,28.849,72.447,54.051C49.66,67.556,26.1,81.522,1.021,91.378L0,88.782C24.869,79.008,48.332,65.1,71.026,51.652,113.869,26.258,158.169,0,214.178,0S314.492,26.258,357.335,51.652c42.519,25.2,86.487,51.261,141.734,51.261S598.283,76.854,640.8,51.652C683.645,26.258,727.948,0,783.957,0V2.789c-55.245,0-99.213,26.059-141.734,51.261C599.38,79.445,555.08,105.7,499.069,105.7" transform="translate(0 98.14)" fill="#fff" stroke="#c5daf6" stroke-width="4"/>
            <path id="Path_80177" data-name="Path 80177" d="M499.069,105.7c-56.011,0-100.312-26.258-143.156-51.65-42.519-25.2-86.487-51.261-141.734-51.261S114.968,28.847,72.447,54.049C49.66,67.554,26.1,81.52,1.021,91.378L0,88.782C24.869,79.006,48.332,65.1,71.024,51.65,113.867,26.256,158.169,0,214.178,0S314.492,26.256,357.335,51.65c42.519,25.2,86.487,51.261,141.734,51.261S598.283,76.852,640.8,51.65C683.645,26.256,727.948,0,783.957,0V2.789c-55.245,0-99.213,26.059-141.734,51.261C599.38,79.443,555.08,105.7,499.069,105.7" transform="translate(0 79.43)" fill="#fff" stroke="#c5daf6" stroke-width="4"/>
            <path id="Path_80178" data-name="Path 80178" d="M499.069,105.7c-56.011,0-100.312-26.258-143.156-51.652-42.519-25.2-86.487-51.261-141.734-51.261S114.966,28.849,72.447,54.051C49.66,67.556,26.1,81.522,1.021,91.378L0,88.782C24.869,79.008,48.332,65.1,71.024,51.652,113.867,26.258,158.169,0,214.178,0S314.492,26.258,357.335,51.652c42.519,25.2,86.487,51.261,141.734,51.261S598.283,76.854,640.8,51.652C683.645,26.258,727.948,0,783.957,0V2.789c-55.245,0-99.213,26.059-141.734,51.261C599.38,79.445,555.08,105.7,499.069,105.7" transform="translate(0 60.718)" fill="#fff" stroke="#c5daf6" stroke-width="4"/>
            <path id="Path_80179" data-name="Path 80179" d="M499.069,105.7c-56.011,0-100.312-26.258-143.156-51.65-42.519-25.2-86.487-51.261-141.734-51.261S114.968,28.847,72.447,54.049C49.66,67.554,26.1,81.52,1.021,91.376L0,88.78C24.869,79.006,48.332,65.1,71.024,51.65,113.867,26.256,158.169,0,214.178,0S314.492,26.256,357.335,51.65c42.519,25.2,86.487,51.261,141.734,51.261S598.283,76.852,640.8,51.65C683.645,26.256,727.948,0,783.957,0V2.789c-55.245,0-99.213,26.059-141.734,51.261C599.38,79.443,555.08,105.7,499.069,105.7" transform="translate(0 42.008)" fill="#fff" stroke="#c5daf6" stroke-width="4"/>
            <path id="Path_80180" data-name="Path 80180" d="M499.069,105.7c-56.011,0-100.312-26.258-143.156-51.652-42.519-25.2-86.487-51.261-141.734-51.261S114.968,28.849,72.447,54.049C49.66,67.556,26.1,81.52,1.021,91.378L0,88.782C24.869,79.008,48.332,65.1,71.026,51.65,113.869,26.256,158.169,0,214.178,0S314.492,26.258,357.335,51.652c42.519,25.2,86.487,51.261,141.734,51.261S598.283,76.854,640.8,51.652C683.645,26.258,727.948,0,783.957,0V2.789c-55.245,0-99.213,26.059-141.734,51.261C599.38,79.445,555.08,105.7,499.069,105.7" transform="translate(0 23.296)" fill="#fff" stroke="#c5daf6" stroke-width="4"/>
            <path id="Path_80181" data-name="Path 80181" d="M499.069,105.7c-56.011,0-100.312-26.258-143.156-51.652-42.519-25.2-86.487-51.261-141.734-51.261S114.968,28.849,72.447,54.051C49.66,67.556,26.1,81.522,1.021,91.378L0,88.782C24.869,79.008,48.332,65.1,71.024,51.65,113.867,26.258,158.169,0,214.178,0S314.492,26.258,357.335,51.652c42.519,25.2,86.487,51.261,141.734,51.261S598.283,76.854,640.8,51.652C683.645,26.258,727.948,0,783.957,0V2.789c-55.245,0-99.213,26.059-141.734,51.261C599.38,79.445,555.08,105.7,499.069,105.7" transform="translate(0 4.584)" fill="#fff" stroke="#c5daf6" stroke-width="4"/>
            <path id="Path_80182" data-name="Path 80182" d="M214.669,91.573c-56.013,0-100.317-26.26-143.162-51.654C48.669,26.383,25.053,12.387,0,2.6L1.015,0C26.281,9.871,50,23.926,72.93,37.52c42.521,25.2,86.491,51.263,141.739,51.263S313.882,62.724,356.4,37.522C379.338,23.928,403.056,9.871,428.324,0l1.015,2.6c-25.057,9.789-48.675,23.787-71.515,37.323C314.981,65.315,270.68,91.573,214.669,91.573" transform="translate(284.399 0.002)" fill="#fff" stroke="#c5daf6" stroke-width="4"/>
            <path id="Path_80183" data-name="Path 80183" d="M1.021,77.248,0,74.652C24.869,64.878,48.332,50.971,71.026,37.52,93.961,23.928,117.677,9.871,142.943,0l1.015,2.6C118.9,12.385,95.287,26.383,72.449,39.919,49.66,53.426,26.1,67.392,1.021,77.248" transform="translate(0 0.002)" fill="#fff" stroke="#c5daf6" stroke-width="4"/>
            <path id="Path_80184" data-name="Path 80184" d="M175.527,72.787c-56.011,0-100.314-26.258-143.158-51.652C21.817,14.879,10.907,8.413,0,2.447L1.339,0C12.287,5.988,23.22,12.469,33.792,18.734,76.311,43.936,120.281,70,175.527,70s99.215-26.061,141.734-51.261C327.835,12.469,338.766,5.99,349.716,0l1.339,2.447c-10.907,5.966-21.818,12.434-32.371,18.688-42.845,25.394-87.145,51.652-143.156,51.652" transform="translate(323.541 0.076)" fill="#fff" stroke="#c5daf6" stroke-width="4"/>
            <path id="Path_80185" data-name="Path 80185" d="M1.021,58.46,0,55.864C24.867,46.09,48.329,32.185,71.018,18.736,81.592,12.467,92.527,5.99,103.479,0l1.339,2.447C93.909,8.411,82.995,14.879,72.441,21.137,49.657,34.638,26.1,48.6,1.021,58.46" transform="translate(0 0.078)" fill="#fff" stroke="#c5daf6" stroke-width="4"/>
            <path id="Path_80186" data-name="Path 80186" d="M143.156,54.051C87.147,54.051,42.845,27.793,0,2.4L1.423,0C43.944,25.2,87.912,51.261,143.156,51.261S242.365,25.2,284.883,0l1.43,2.4c-42.85,25.4-87.149,51.652-143.156,51.652" transform="translate(355.912 0.102)" fill="#fff" stroke="#c5daf6" stroke-width="4"/>
            <path id="Path_80187" data-name="Path 80187" d="M1.021,39.707,0,37.111C24.856,27.341,48.308,13.442,70.989,0l1.456,2.379C49.636,15.9,26.085,29.855,1.021,39.707" transform="translate(0 0.121)" fill="#fff" stroke="#c5daf6" stroke-width="4"/>
            <path id="Path_80188" data-name="Path 80188" d="M110.7,35.363C66.18,35.363,29.756,18.725,0,2.447L1.339,0C30.787,16.108,66.808,32.574,110.7,32.574S190.619,16.108,220.066,0l1.339,2.447c-29.758,16.278-66.181,32.916-110.7,32.916" transform="translate(388.367 0.076)" fill="#fff" stroke="#c5daf6" stroke-width="4"/>
            <path id="Path_80189" data-name="Path 80189" d="M1.021,21.038,0,18.442A335.4,335.4,0,0,0,38.651,0L39.99,2.445A337.827,337.827,0,0,1,1.021,21.038" transform="translate(0 0.078)" fill="#fff" stroke="#c5daf6" stroke-width="4"/>
            <path id="Path_80190" data-name="Path 80190" d="M71.236,16.728c-23.6,0-46.9-4.621-71.236-14.13L1.015,0c24.01,9.378,46.979,13.938,70.221,13.938S117.447,9.378,141.455,0l1.015,2.6c-24.339,9.508-47.639,14.13-71.234,14.13" transform="translate(427.833 0.002)" fill="#fff" stroke="#c5daf6" stroke-width="4"/>
          </g>
        </g>
      </g>
    </g>
  </g>
</svg>
