<svg id="Group_19590" data-name="Group 19590" xmlns="http://www.w3.org/2000/svg" width="18" height="16" viewBox="0 0 22.316 19.46">
  <g id="Group_16374" data-name="Group 16374" transform="translate(0)">
    <path id="Path_64213" data-name="Path 64213" d="M35.239,31.942c.629.339,1.291.684,1.984,1.045l.218.114-.022-.135c-.14-.844-.274-1.643-.422-2.439a.879.879,0,0,1,.314-.886c.6-.573,1.214-1.176,1.829-1.779l.015-.014-.166-.026c-.677-.106-1.316-.205-1.967-.273a1.409,1.409,0,0,1-1.389-1.006,10.03,10.03,0,0,0-.56-1.15c-.133-.272-.261-.528-.392-.792l-.2.4c-.322.656-.643,1.31-.98,1.958a1.03,1.03,0,0,1-.651.485c-.4.078-.793.132-1.171.185l-.049.007c-.157.022-.315.044-.472.067l-.791.122.114.124c.494.54.994,1.086,1.5,1.613a1.05,1.05,0,0,1,.351,1.122c-.09.391-.166.812-.221,1.244-.065.391-.127.771-.191,1.169l.133-.07c.724-.377,1.413-.736,2.1-1.109a.976.976,0,0,1,.522-.147,1.023,1.023,0,0,1,.562.168" transform="translate(-16.839 -13.64)" fill="#a6a7d2"/>
    <path id="Path_64214" data-name="Path 64214" d="M13.813,18.186q-5.165,0-10.33,0a13.188,13.188,0,0,1-1.4-.053,1.053,1.053,0,0,1-.94-.934,2.2,2.2,0,0,1-.029-.358q0-5.494,0-10.987V5.669H17.445c.2,0,.2,0,.2.2q0,1.605,0,3.21l1.1.9q-.007-2.352-.013-4.7a8.661,8.661,0,0,0-.03-1.027,2.256,2.256,0,0,0-1.946-1.888c-.336-.031-.676-.021-1.015-.023-.105,0-.139-.037-.137-.141q.006-.381,0-.762a1.479,1.479,0,0,0-1.144-1.4,1.4,1.4,0,0,0-1.592,1.131,7,7,0,0,0-.053,1.011c0,.1-.029.139-.136.138-.526,0-1.052,0-1.577,0-.088,0-.106-.038-.123-.116q-.152-.682-.319-1.362A1.054,1.054,0,0,0,10.3.3,1.273,1.273,0,0,0,8.486.481a1.84,1.84,0,0,0-.274.6c-.082.34-.118.691-.165,1.039-.014.109-.039.163-.168.161-.561-.008-1.123-.005-1.684,0-.1,0-.122-.029-.119-.122.008-.271.02-.544.008-.814A1.432,1.432,0,0,0,4.81.014,1.385,1.385,0,0,0,3.368,1.19c-.049.343-.05.692-.071,1.039,0,.069-.007.119-.1.115-.258-.01-.517,0-.775-.018A2.348,2.348,0,0,0,.075,4.042,4.129,4.129,0,0,0,0,5.117Q0,11.057.006,17a2.224,2.224,0,0,0,.087.6A2.31,2.31,0,0,0,2.14,19.281c.314.026.632.022.948.023q3.12,0,6.242,0h4.234Zm-.4-17.043A.718.718,0,0,1,14.18.561a.777.777,0,0,1,.786.444,1.142,1.142,0,0,1,.105.45c.013.481,0,.962,0,1.443h0c0,.486.008.971,0,1.457a.851.851,0,0,1-.81.877.879.879,0,0,1-.9-.915c0-.245,0-.49,0-.735,0-.659-.007-1.319,0-1.978a1.86,1.86,0,0,1,.056-.461M8.6,1.46A.852.852,0,0,1,9.838.621a.843.843,0,0,1,.473.8q.024,1.476,0,2.953a.86.86,0,0,1-1.432.645A.847.847,0,0,1,8.6,4.346c0-.481,0-.962,0-1.443s-.007-.962,0-1.443m-4.766.1A1.024,1.024,0,0,1,4.114.767.838.838,0,0,1,5.043.6a.824.824,0,0,1,.516.734A10.774,10.774,0,0,1,5.566,3c-.008.458,0,.916-.008,1.374a.829.829,0,0,1-.84.854.9.9,0,0,1-.875-.87c-.009-.49,0-.979,0-1.469H3.836c0-.441,0-.882,0-1.322" transform="translate(0 0)" fill="#a6a7d2"/>
  </g>
</svg>
