<svg id="Group_18290" data-name="Group 18290" xmlns="http://www.w3.org/2000/svg" xmlns:xlink="http://www.w3.org/1999/xlink" width="1401.211" height="291.083" viewBox="0 0 1401.211 291.083">
  <defs>
    <linearGradient id="linear-gradient" x1="0.928" y1="0.104" x2="0.017" y2="1" gradientUnits="objectBoundingBox">
      <stop offset="0" stop-color="#721d86"/>
      <stop offset="1" stop-color="#282b72"/>
    </linearGradient>
    <clipPath id="clip-path">
      <rect id="Rectangle_13256" data-name="Rectangle 13256" width="1401.211" height="291.083" fill="url(#linear-gradient)"/>
    </clipPath>
    <clipPath id="clip-path-2">
      <rect id="Rectangle_13167" data-name="Rectangle 13167" width="723.229" height="381.684" fill="#1f2552" stroke="#707070" stroke-width="1"/>
    </clipPath>
    <clipPath id="clip-path-3">
      <rect id="Rectangle_12927" data-name="Rectangle 12927" width="1064.045" height="845.836" transform="translate(0 0)" fill="#c6daf5" stroke="#c5daf6" stroke-width="1"/>
    </clipPath>
    <clipPath id="clip-path-4">
      <path id="Path_67258" data-name="Path 67258" d="M212.51,578.7,1673.006,0,1460.5,1272.485,0,1851.181Z" transform="translate(0 0)" fill="#c6daf5" stroke="#c5daf6" stroke-width="4"/>
    </clipPath>
    <clipPath id="clip-path-5">
      <path id="Path_67257" data-name="Path 67257" d="M361.146,599.721,1874.705,0,1513.559,2162.5,0,2762.218Z" fill="#c6daf5" stroke="#c5daf6" stroke-width="4"/>
    </clipPath>
    <clipPath id="clip-path-6">
      <rect id="Rectangle_13253" data-name="Rectangle 13253" width="723.229" height="190.908" fill="#1f2552" stroke="#707070" stroke-width="1"/>
    </clipPath>
    <clipPath id="clip-path-7">
      <rect id="Rectangle_13252" data-name="Rectangle 13252" width="1064.045" height="423.065" fill="#c6daf5" stroke="#c5daf6" stroke-width="1"/>
    </clipPath>
    <clipPath id="clip-path-8">
      <path id="Path_68128" data-name="Path 68128" d="M46.39,652.514,1385.674,778.84l-46.39-652.514L0,0Z" transform="translate(0 0)" fill="#c6daf5" stroke="#c5daf6" stroke-width="4"/>
    </clipPath>
  </defs>
  <rect id="Rectangle_12924" data-name="Rectangle 12924" width="1401.211" height="291.083" fill="url(#linear-gradient)"/>
  <g id="Mask_Group_7390" data-name="Mask Group 7390" clip-path="url(#clip-path)">
    <g id="Group_18289" data-name="Group 18289" transform="translate(-49.626)">
      <g id="Mask_Group_7380" data-name="Mask Group 7380" transform="translate(725.419)" opacity="0.652" clip-path="url(#clip-path-2)">
        <g id="Mask_Group_7373" data-name="Mask Group 7373" transform="translate(-61.303 -290.459)" opacity="0.189" clip-path="url(#clip-path-3)">
          <g id="Mask_Group_7372" data-name="Mask Group 7372" transform="matrix(0.966, -0.259, 0.259, 0.966, -845.505, 77.644)" opacity="0.674" clip-path="url(#clip-path-4)">
            <g id="Group_17408" data-name="Group 17408" transform="translate(-23.733 489.253)">
              <g id="Group_17407" data-name="Group 17407" transform="translate(0 0)" clip-path="url(#clip-path-5)">
                <path id="Path_67211" data-name="Path 67211" d="M212.858,26.936C182.1,7.63,150.026,5.028,114.8,18.986S42.025,63.133,0,111.277l.023-8.727c42.6-48.815,80.693-79.427,116.452-93.6s68.3-11.546,99.481,8.036Z" transform="translate(1081.768 2222.31)" fill="#c6daf5" stroke="#c5daf6" stroke-width="4"/>
                <path id="Path_67212" data-name="Path 67212" d="M212.858,26.936C182.1,7.631,150.026,5.028,114.8,18.986S42.023,63.134,0,111.277l.02-8.726c42.6-48.815,80.7-79.428,116.455-93.6s68.3-11.546,99.481,8.036Z" transform="translate(218.188 2564.488)" fill="#c6daf5" stroke="#c5daf6" stroke-width="4"/>
                <path id="Path_67213" data-name="Path 67213" d="M332.068,70.424C297.106,30.191,252.4-7.392,185.876,18.966S54.867,126.174.56,201.778l-.56-8c54.877-76.4,120.075-158.11,187.551-184.846S300.239,20.163,335.567,60.819Z" transform="translate(1021.928 2155.048)" fill="#c6daf5" stroke="#c5daf6" stroke-width="4"/>
                <path id="Path_67214" data-name="Path 67214" d="M332.065,70.424C297.106,30.189,252.394-7.392,185.873,18.966S54.861,126.174.557,201.778l-.557-8C54.871,117.384,120.069,35.672,187.548,8.935S300.233,20.164,335.562,60.82Z" transform="translate(158.354 2497.225)" fill="#c6daf5" stroke="#c5daf6" stroke-width="4"/>
                <path id="Path_67215" data-name="Path 67215" d="M430.346,118.158c-49.312-65.091-100.3-132.4-184.032-99.218S80.293,172.23.712,288.392L0,280.612C80.183,163.575,163.1,42.545,247.989,8.909S384.256,43.092,433.944,108.67Z" transform="translate(972.728 2087.787)" fill="#c6daf5" stroke="#c5daf6" stroke-width="4"/>
                <path id="Path_67216" data-name="Path 67216" d="M430.339,118.158C381.018,53.058,330.032-14.235,246.307,18.94S80.29,172.222.713,288.377L0,280.6C80.18,163.567,163.1,42.544,247.982,8.909S384.24,43.083,433.923,108.657Z" transform="translate(109.155 2429.965)" fill="#c6daf5" stroke="#c5daf6" stroke-width="4"/>
                <path id="Path_67217" data-name="Path 67217" d="M528.57,166.048c-13-14.957-25.673-31.693-37.932-47.874-49.313-65.1-100.3-132.413-184.04-99.233s-166.021,153.3-245.6,269.466C41.208,317.285,20.75,347.148.557,375.264l-.557-8c20.111-28,40.529-57.811,60.283-86.64C140.468,163.575,223.384,42.545,308.273,8.909S444.548,43.1,494.231,108.688c12.237,16.153,24.892,32.858,37.836,47.756Z" transform="translate(923.682 2020.493)" fill="#c6daf5" stroke="#c5daf6" stroke-width="4"/>
                <path id="Path_67218" data-name="Path 67218" d="M528.576,166.048c-13-14.964-25.681-31.7-37.941-47.883-49.312-65.09-100.3-132.4-184.028-99.226S140.583,172.238,61,288.4C41.214,317.285,20.753,347.15.56,375.265l-.56-8c20.116-28,40.537-57.815,60.288-86.642C140.476,163.575,223.392,42.545,308.282,8.909s136.264,34.184,185.951,99.769c12.236,16.159,24.893,32.863,37.842,47.766Z" transform="translate(60.093 2362.671)" fill="#c6daf5" stroke="#c5daf6" stroke-width="4"/>
                <path id="Path_67219" data-name="Path 67219" d="M647.647,209.891c-32.362-20.324-59.865-56.619-86.46-91.73-49.313-65.1-100.306-132.4-184.045-99.219s-166.019,153.284-245.6,269.446C88.616,351.052,44.227,415.838,0,466.509l.02-8.726c43.856-50.25,88.059-114.775,130.806-177.169C211.013,163.57,293.928,42.546,378.818,8.91S515.1,43.089,564.782,108.68c26.486,34.961,53.871,71.109,85.964,91.265Z" transform="translate(864.373 1953.217)" fill="#c6daf5" stroke="#c5daf6" stroke-width="4"/>
                <path id="Path_67220" data-name="Path 67220" d="M646.778,209.889c-32.368-20.322-59.872-56.622-86.473-91.731C510.993,53.067,460-14.237,376.273,18.94s-166.016,153.283-245.6,269.445C88.029,350.632,43.93,415,0,465.508l.012-8.723C43.577,406.7,87.49,342.6,129.96,280.606c80.183-117.037,163.1-238.061,247.988-271.7S514.215,43.092,563.9,108.67c26.488,34.96,53.877,71.119,85.973,91.274Z" transform="translate(1.665 2295.395)" fill="#c6daf5" stroke="#c5daf6" stroke-width="4"/>
                <path id="Path_67221" data-name="Path 67221" d="M746.258,551.194c-84.892,33.637-136.267-34.183-185.955-99.761-49.309-65.091-100.3-132.4-184.031-99.224S210.252,505.5,130.673,621.66C88.027,683.907,43.929,748.279,0,798.788l.013-8.729c43.563-50.083,87.476-114.182,129.945-176.172,80.184-117.044,163.1-238.074,247.99-271.71s136.27,34.182,185.954,99.768c49.31,65.085,100.3,132.4,184.032,99.218s166.024-153.3,245.6-269.453c80.184-117.044,163.1-238.074,247.99-271.71l-1.675,10.031c-83.731,33.177-166.021,153.3-245.6,269.459-80.183,117.037-163.1,238.067-247.989,271.7" transform="translate(12.901 1894.834)" fill="#c6daf5" stroke="#c5daf6" stroke-width="4"/>
                <path id="Path_67222" data-name="Path 67222" d="M746.258,551.2c-84.892,33.637-136.267-34.183-185.954-99.768-49.309-65.092-100.3-132.4-184.031-99.225s-166.019,153.3-245.6,269.458C88.027,683.914,43.929,748.285,0,798.795l.013-8.729C43.575,739.982,87.49,675.877,129.958,613.894c80.185-117.051,163.1-238.081,247.991-271.717s136.27,34.182,185.953,99.775c49.31,65.085,100.3,132.4,184.032,99.218s166.024-153.3,245.6-269.453C1073.721,154.666,1156.637,33.636,1241.526,0l-1.675,10.031c-83.731,33.177-166.022,153.3-245.6,269.46-80.184,117.044-163.1,238.073-247.99,271.71" transform="translate(24.137 1827.546)" fill="#c6daf5" stroke="#c5daf6" stroke-width="4"/>
                <path id="Path_67223" data-name="Path 67223" d="M746.257,551.194C661.365,584.831,609.99,517.011,560.3,451.426c-49.31-65.085-100.3-132.4-184.032-99.218S210.254,505.5,130.675,621.659C88.027,683.9,43.929,748.272,0,798.782l.013-8.729C43.574,739.976,87.489,675.871,129.96,613.88c80.184-117.044,163.1-238.068,247.986-271.7s136.27,34.182,185.955,99.761c49.309,65.092,100.3,132.4,184.031,99.224s166.024-153.3,245.6-269.459c80.183-117.037,163.1-238.068,247.989-271.7l-1.675,10.031c-83.731,33.177-166.022,153.3-245.6,269.453-80.184,117.044-163.1,238.073-247.99,271.71" transform="translate(35.375 1760.266)" fill="#c6daf5" stroke="#c5daf6" stroke-width="4"/>
                <path id="Path_67224" data-name="Path 67224" d="M746.258,551.194c-84.892,33.637-136.267-34.183-185.954-99.768-49.31-65.085-100.3-132.4-184.032-99.218S210.252,505.5,130.673,621.66C88.027,683.907,43.929,748.279,0,798.788l.013-8.729c43.563-50.084,87.476-114.182,129.946-176.178,80.183-117.037,163.1-238.068,247.989-271.7s136.27,34.182,185.955,99.761c49.309,65.092,100.3,132.4,184.031,99.225s166.024-153.3,245.6-269.46c80.183-117.037,163.1-238.067,247.989-271.7l-1.675,10.031c-83.731,33.177-166.022,153.3-245.6,269.453-80.184,117.044-163.1,238.073-247.99,271.71" transform="translate(46.612 1692.978)" fill="#c6daf5" stroke="#c5daf6" stroke-width="4"/>
                <path id="Path_67225" data-name="Path 67225" d="M746.258,551.187C661.366,584.824,609.991,517,560.3,451.426c-49.309-65.092-100.3-132.4-184.032-99.218S210.253,505.5,130.676,621.652C88.03,683.9,43.929,748.272,0,798.781l.013-8.729C43.575,739.969,87.492,675.869,129.96,613.88c80.184-117.044,163.1-238.068,247.986-271.7S514.217,376.352,563.9,441.945c49.31,65.085,100.3,132.389,184.033,99.211s166.023-153.292,245.6-269.446C1073.72,154.66,1156.634,33.636,1241.524,0l-1.675,10.031c-83.731,33.177-166.021,153.291-245.6,269.453-80.183,117.037-163.1,238.066-247.989,271.7" transform="translate(57.849 1625.697)" fill="#c6daf5" stroke="#c5daf6" stroke-width="4"/>
                <path id="Path_67226" data-name="Path 67226" d="M746.258,551.194c-84.892,33.637-136.267-34.183-185.955-99.761-49.309-65.092-100.3-132.4-184.031-99.225S210.252,505.5,130.673,621.66C88.027,683.907,43.929,748.279,0,798.788l.013-8.729c43.563-50.084,87.476-114.182,129.945-176.172,80.184-117.044,163.1-238.074,247.99-271.71s136.27,34.182,185.954,99.768c49.31,65.085,100.3,132.4,184.032,99.218s166.024-153.3,245.6-269.453c80.184-117.044,163.1-238.074,247.99-271.71l-1.675,10.031c-83.731,33.177-166.021,153.3-245.6,269.459-80.183,117.037-163.1,238.067-247.989,271.7" transform="translate(69.086 1558.403)" fill="#c6daf5" stroke="#c5daf6" stroke-width="4"/>
                <path id="Path_67227" data-name="Path 67227" d="M746.258,551.187C661.366,584.824,609.991,517,560.3,451.426c-49.309-65.092-100.3-132.4-184.032-99.218s-166.016,153.283-245.6,269.444C88.03,683.9,43.929,748.272,0,798.782l.013-8.729C43.574,739.976,87.492,675.869,129.96,613.88c80.184-117.044,163.1-238.068,247.986-271.7S514.217,376.352,563.9,441.945c49.31,65.085,100.3,132.389,184.033,99.211s166.023-153.292,245.6-269.446C1073.72,154.66,1156.634,33.636,1241.524,0l-1.675,10.031c-83.731,33.177-166.021,153.291-245.6,269.453-80.183,117.037-163.1,238.066-247.989,271.7" transform="translate(80.324 1491.122)" fill="#c6daf5" stroke="#c5daf6" stroke-width="4"/>
                <path id="Path_67228" data-name="Path 67228" d="M746.258,551.181C661.366,584.818,609.991,517,560.3,451.419,510.995,386.328,460,319.03,376.27,352.208s-166.015,153.276-245.6,269.438C88.027,683.894,43.929,748.265,0,798.775l.013-8.729c43.563-50.084,87.476-114.182,129.945-176.172,80.184-117.044,163.1-238.061,247.987-271.7S514.217,376.346,563.9,441.932c49.308,65.1,100.3,132.4,184.032,99.218S913.956,387.865,993.535,271.7c80.184-117.044,163.1-238.061,247.988-271.7l-1.675,10.031c-83.731,33.177-166.019,153.284-245.6,269.446-80.183,117.037-163.1,238.067-247.989,271.7" transform="translate(91.561 1423.841)" fill="#c6daf5" stroke="#c5daf6" stroke-width="4"/>
                <path id="Path_67229" data-name="Path 67229" d="M746.258,551.187C661.366,584.824,609.991,517,560.3,451.426c-49.309-65.092-100.3-132.4-184.032-99.218s-166.016,153.283-245.6,269.445C88.027,683.9,43.929,748.272,0,798.782l.013-8.729c43.563-50.083,87.476-114.182,129.945-176.172,80.184-117.044,163.1-238.068,247.989-271.7S514.217,376.352,563.9,441.938c49.309,65.092,100.3,132.4,184.032,99.218S913.957,387.865,993.535,271.7C1073.72,154.66,1156.634,33.636,1241.524,0l-1.675,10.031c-83.731,33.177-166.021,153.291-245.6,269.453-80.183,117.037-163.1,238.067-247.989,271.7" transform="translate(102.797 1356.553)" fill="#c6daf5" stroke="#c5daf6" stroke-width="4"/>
                <path id="Path_67230" data-name="Path 67230" d="M746.257,551.194C661.365,584.831,609.99,517.011,560.3,451.426c-49.309-65.092-100.3-132.4-184.032-99.218S210.253,505.5,130.672,621.66C88.026,683.907,43.927,748.279,0,798.781l.012-8.722c43.563-50.084,87.477-114.189,129.946-176.178,80.183-117.037,163.1-238.068,247.989-271.7s136.27,34.182,185.954,99.768c49.309,65.092,100.3,132.4,184.032,99.218s166.023-153.292,245.6-269.453c80.184-117.044,163.1-238.074,247.99-271.71l-1.675,10.031c-83.731,33.177-166.021,153.291-245.6,269.453-80.184,117.044-163.1,238.073-247.99,271.71" transform="translate(114.035 1289.259)" fill="#c6daf5" stroke="#c5daf6" stroke-width="4"/>
                <path id="Path_67231" data-name="Path 67231" d="M746.257,551.194C661.365,584.831,609.99,517.011,560.3,451.426c-49.309-65.092-100.3-132.4-184.032-99.218S210.253,505.5,130.673,621.653C88.026,683.907,43.927,748.279,0,798.781l.012-8.722C43.574,739.976,87.489,675.871,129.96,613.88c80.184-117.044,163.1-238.066,247.986-271.7s136.27,34.182,185.954,99.768c49.309,65.092,100.3,132.4,184.032,99.218s166.023-153.292,245.6-269.453c80.184-117.044,163.1-238.074,247.99-271.71l-1.675,10.031c-83.731,33.177-166.021,153.291-245.6,269.453-80.184,117.044-163.1,238.073-247.99,271.71" transform="translate(125.272 1221.978)" fill="#c6daf5" stroke="#c5daf6" stroke-width="4"/>
                <path id="Path_67232" data-name="Path 67232" d="M746.257,551.187C661.365,584.824,609.99,517,560.3,451.426,510.993,386.334,460,319.03,376.27,352.208s-166.016,153.283-245.6,269.445C88.026,683.9,43.927,748.272,0,798.775l.012-8.722c43.563-50.083,87.476-114.182,129.945-176.172,80.184-117.044,163.1-238.067,247.989-271.7S514.216,376.352,563.9,441.938c49.309,65.091,100.3,132.4,184.032,99.218S913.956,387.864,993.534,271.7C1073.719,154.66,1156.633,33.636,1241.523,0l-1.675,10.031c-83.731,33.177-166.021,153.291-245.6,269.453-80.183,117.037-163.1,238.067-247.989,271.7" transform="translate(136.51 1154.691)" fill="#c6daf5" stroke="#c5daf6" stroke-width="4"/>
                <path id="Path_67233" data-name="Path 67233" d="M746.257,551.194C661.365,584.831,609.99,517.011,560.3,451.426c-49.309-65.092-100.3-132.4-184.032-99.218S210.253,505.5,130.672,621.66C88.026,683.907,43.927,748.279,0,798.782l.012-8.722c43.563-50.084,87.477-114.189,129.946-176.178,80.183-117.037,163.1-238.068,247.989-271.7s136.27,34.182,185.954,99.768c49.309,65.092,100.3,132.4,184.032,99.218s166.023-153.292,245.6-269.453c80.184-117.044,163.1-238.074,247.99-271.71l-1.675,10.031c-83.731,33.177-166.021,153.291-245.6,269.453-80.184,117.044-163.1,238.073-247.99,271.71" transform="translate(147.746 1087.403)" fill="#c6daf5" stroke="#c5daf6" stroke-width="4"/>
                <path id="Path_67234" data-name="Path 67234" d="M746.257,551.194C661.365,584.831,609.99,517.011,560.3,451.426c-49.309-65.092-100.3-132.4-184.032-99.218S210.251,505.5,130.672,621.66C88.026,683.907,43.927,748.279,0,798.782l.012-8.722c43.563-50.083,87.476-114.182,129.946-176.178,80.183-117.037,163.1-238.068,247.989-271.7s136.27,34.182,185.954,99.768c49.309,65.092,100.3,132.4,184.032,99.218s166.023-153.292,245.6-269.453c80.184-117.044,163.1-238.074,247.99-271.71l-1.675,10.031c-83.731,33.177-166.02,153.291-245.6,269.453-80.184,117.044-163.1,238.073-247.99,271.71" transform="translate(158.984 1020.116)" fill="#c6daf5" stroke="#c5daf6" stroke-width="4"/>
                <path id="Path_67235" data-name="Path 67235" d="M746.258,551.194c-84.893,33.637-136.267-34.183-185.954-99.768-49.309-65.092-100.3-132.4-184.032-99.218S210.252,505.5,130.673,621.66C88.026,683.914,43.929,748.279,0,798.788l.012-8.722c43.564-50.09,87.477-114.188,129.946-176.178,80.184-117.044,163.1-238.074,247.99-271.71s136.27,34.182,185.954,99.768c49.309,65.092,100.3,132.4,184.032,99.218s166.023-153.292,245.6-269.453c80.184-117.044,163.1-238.074,247.99-271.71l-1.675,10.031c-83.731,33.177-166.02,153.291-245.6,269.453-80.184,117.044-163.1,238.073-247.99,271.71" transform="translate(170.22 952.828)" fill="#c6daf5" stroke="#c5daf6" stroke-width="4"/>
                <path id="Path_67236" data-name="Path 67236" d="M746.257,551.187C661.365,584.824,609.99,517,560.3,451.426,510.993,386.334,460,319.03,376.27,352.208s-166.019,153.284-245.6,269.445C88.026,683.9,43.927,748.272,0,798.775l.012-8.723c43.563-50.083,87.476-114.182,129.945-176.172,80.184-117.044,163.1-238.068,247.989-271.7S514.216,376.352,563.9,441.938c49.309,65.091,100.3,132.4,184.032,99.218S913.956,387.865,993.534,271.7C1073.718,154.66,1156.633,33.636,1241.523,0l-1.676,10.031c-83.731,33.177-166.02,153.291-245.6,269.453-80.183,117.037-163.1,238.066-247.989,271.7" transform="translate(181.457 885.554)" fill="#c6daf5" stroke="#c5daf6" stroke-width="4"/>
                <path id="Path_67237" data-name="Path 67237" d="M746.257,551.194C661.365,584.831,609.99,517.011,560.3,451.426c-49.309-65.092-100.3-132.4-184.032-99.218S210.253,505.5,130.672,621.66C88.026,683.907,43.927,748.279,0,798.781l.012-8.722c43.563-50.083,87.477-114.189,129.946-176.178,80.183-117.037,163.1-238.068,247.989-271.7s136.27,34.182,185.954,99.768c49.309,65.092,100.3,132.4,184.032,99.218s166.023-153.292,245.6-269.453c80.184-117.044,163.1-238.074,247.99-271.71l-1.675,10.031c-83.731,33.177-166.021,153.291-245.6,269.453-80.184,117.044-163.1,238.073-247.99,271.71" transform="translate(192.694 818.26)" fill="#c6daf5" stroke="#c5daf6" stroke-width="4"/>
                <path id="Path_67238" data-name="Path 67238" d="M746.257,551.194C661.365,584.831,609.99,517.011,560.3,451.426c-49.309-65.092-100.3-132.4-184.032-99.218S210.251,505.5,130.672,621.66C88.026,683.907,43.927,748.279,0,798.781l.012-8.722c43.563-50.083,87.476-114.182,129.945-176.172,80.184-117.044,163.1-238.074,247.99-271.71s136.27,34.182,185.954,99.768c49.309,65.092,100.3,132.4,184.032,99.218s166.023-153.292,245.6-269.453c80.184-117.044,163.1-238.074,247.99-271.71l-1.675,10.031c-83.731,33.177-166.021,153.291-245.6,269.453-80.184,117.044-163.1,238.073-247.99,271.71" transform="translate(203.932 750.972)" fill="#c6daf5" stroke="#c5daf6" stroke-width="4"/>
                <path id="Path_67239" data-name="Path 67239" d="M746.257,551.194C661.365,584.831,609.99,517.011,560.3,451.426c-49.309-65.092-100.3-132.4-184.032-99.218S210.256,505.5,130.676,621.652C88.03,683.9,43.929,748.272,0,798.781l.013-8.729c43.563-50.083,87.48-114.19,129.951-176.174,80.181-117.043,163.1-238.066,247.983-271.7s136.27,34.182,185.954,99.768c49.309,65.092,100.3,132.4,184.032,99.218s166.023-153.292,245.6-269.453c80.184-117.044,163.1-238.074,247.99-271.71l-1.675,10.031c-83.731,33.177-166.021,153.291-245.6,269.453-80.184,117.044-163.1,238.073-247.99,271.71" transform="translate(215.168 683.691)" fill="#c6daf5" stroke="#c5daf6" stroke-width="4"/>
                <path id="Path_67240" data-name="Path 67240" d="M746.258,551.187C661.366,584.824,609.991,517,560.3,451.426c-49.309-65.092-100.3-132.4-184.032-99.218S210.251,505.5,130.669,621.661C88.024,683.9,43.929,748.272,0,798.782l.012-8.722c43.564-50.09,87.477-114.189,129.946-176.178,80.184-117.044,163.1-238.067,247.989-271.7S514.217,376.352,563.9,441.938c49.309,65.092,100.3,132.4,184.032,99.218S913.957,387.865,993.535,271.7C1073.719,154.66,1156.634,33.636,1241.524,0l-1.675,10.031c-83.731,33.177-166.021,153.291-245.6,269.453-80.183,117.037-163.1,238.066-247.989,271.7" transform="translate(226.404 616.41)" fill="#c6daf5" stroke="#c5daf6" stroke-width="4"/>
                <path id="Path_67241" data-name="Path 67241" d="M746.257,551.187C661.365,584.824,609.99,517,560.3,451.426,510.993,386.335,460,319.03,376.27,352.208s-166.016,153.283-245.6,269.445C88.026,683.9,43.927,748.272,0,798.775l.012-8.723c43.563-50.083,87.476-114.182,129.945-176.172,80.184-117.044,163.1-238.068,247.989-271.7S514.216,376.352,563.9,441.939c49.309,65.091,100.3,132.4,184.032,99.218S913.956,387.865,993.534,271.7C1073.718,154.66,1156.633,33.636,1241.523,0l-1.675,10.031c-83.731,33.177-166.021,153.291-245.6,269.453-80.183,117.037-163.1,238.066-247.989,271.7" transform="translate(237.643 549.123)" fill="#c6daf5" stroke="#c5daf6" stroke-width="4"/>
                <path id="Path_67242" data-name="Path 67242" d="M746.257,551.194C661.365,584.831,609.99,517.011,560.3,451.426c-49.309-65.092-100.3-132.4-184.032-99.218S210.253,505.5,130.672,621.66C88.026,683.907,43.927,748.279,0,798.781l.012-8.722c43.563-50.083,87.476-114.182,129.948-176.173,80.184-117.044,163.1-238.073,247.987-271.709s136.27,34.182,185.954,99.768c49.309,65.092,100.3,132.4,184.032,99.218s166.023-153.292,245.6-269.453c80.184-117.044,163.1-238.074,247.99-271.71l-1.675,10.031c-83.731,33.177-166.021,153.291-245.6,269.453-80.184,117.044-163.1,238.073-247.99,271.71" transform="translate(248.88 481.828)" fill="#c6daf5" stroke="#c5daf6" stroke-width="4"/>
                <path id="Path_67243" data-name="Path 67243" d="M746.258,551.187C661.366,584.824,609.991,517,560.3,451.426c-49.309-65.092-100.3-132.4-184.032-99.218s-166.016,153.283-245.6,269.445C88.027,683.9,43.929,748.272,0,798.781l.012-8.722c43.564-50.09,87.477-114.188,129.946-176.178,80.184-117.044,163.1-238.068,247.989-271.7S514.217,376.352,563.9,441.938c49.309,65.092,100.3,132.4,184.032,99.218S913.957,387.865,993.535,271.7C1073.72,154.66,1156.634,33.636,1241.524,0l-1.675,10.031c-83.731,33.177-166.021,153.291-245.6,269.453-80.183,117.037-163.1,238.067-247.989,271.7" transform="translate(260.116 414.547)" fill="#c6daf5" stroke="#c5daf6" stroke-width="4"/>
                <path id="Path_67244" data-name="Path 67244" d="M746.257,551.194C661.365,584.831,609.99,517.011,560.3,451.426c-49.309-65.092-100.3-132.4-184.032-99.218S210.251,505.5,130.672,621.66C88.026,683.907,43.927,748.279,0,798.781l.012-8.722c43.563-50.083,87.477-114.189,129.945-176.172,80.184-117.044,163.1-238.074,247.99-271.71s136.27,34.182,185.954,99.768c49.309,65.092,100.3,132.4,184.032,99.218s166.023-153.292,245.6-269.453c80.184-117.044,163.1-238.074,247.99-271.71l-1.675,10.031c-83.731,33.177-166.021,153.291-245.6,269.453-80.184,117.044-163.1,238.073-247.99,271.71" transform="translate(271.353 347.26)" fill="#c6daf5" stroke="#c5daf6" stroke-width="4"/>
                <path id="Path_67245" data-name="Path 67245" d="M746.257,551.187C661.365,584.824,609.99,517,560.3,451.426,510.994,386.335,460,319.03,376.27,352.208s-166.016,153.283-245.6,269.445C88.026,683.9,43.927,748.272,0,798.775l.012-8.722c43.563-50.083,87.476-114.182,129.945-176.172,80.184-117.044,163.1-238.068,247.989-271.7S514.216,376.352,563.9,441.938c49.309,65.092,100.3,132.4,184.032,99.218S913.956,387.865,993.534,271.7C1073.719,154.66,1156.633,33.636,1241.523,0l-1.675,10.031c-83.731,33.177-166.021,153.291-245.6,269.453-80.183,117.037-163.1,238.067-247.989,271.7" transform="translate(282.591 279.979)" fill="#c6daf5" stroke="#c5daf6" stroke-width="4"/>
                <path id="Path_67246" data-name="Path 67246" d="M746.257,551.194C661.365,584.831,609.99,517.011,560.3,451.426c-49.309-65.092-100.3-132.4-184.032-99.218S210.253,505.5,130.673,621.653C88.026,683.907,43.929,748.272,0,798.781l.012-8.722C43.574,739.976,87.489,675.871,129.96,613.88c80.184-117.044,163.1-238.067,247.986-271.7s136.27,34.182,185.954,99.768c49.309,65.092,100.3,132.4,184.032,99.218s166.023-153.292,245.6-269.453c80.184-117.044,163.1-238.074,247.99-271.71l-1.675,10.031c-83.731,33.177-166.021,153.291-245.6,269.453-80.184,117.044-163.1,238.073-247.99,271.71" transform="translate(293.827 212.691)" fill="#c6daf5" stroke="#c5daf6" stroke-width="4"/>
                <path id="Path_67247" data-name="Path 67247" d="M746.257,551.194C661.365,584.831,609.99,517.011,560.3,451.426c-49.309-65.092-100.3-132.4-184.032-99.218S210.253,505.5,130.672,621.66C88.026,683.907,43.927,748.279,0,798.782l.012-8.722c43.563-50.083,87.477-114.188,129.946-176.178,80.183-117.037,163.1-238.068,247.989-271.7s136.27,34.182,185.954,99.768c49.309,65.092,100.3,132.4,184.032,99.218s166.023-153.292,245.6-269.453c80.184-117.044,163.1-238.074,247.99-271.71l-1.675,10.031c-83.731,33.177-166.02,153.291-245.6,269.453-80.184,117.044-163.1,238.073-247.99,271.71" transform="translate(305.064 145.404)" fill="#c6daf5" stroke="#c5daf6" stroke-width="4"/>
                <path id="Path_67248" data-name="Path 67248" d="M271.928,457.6c-84.9,33.638-136.274-34.186-185.961-99.771C59.481,322.872,32.093,286.726,0,266.569l3.1-9.952c32.365,20.323,59.867,56.624,86.464,91.735,49.312,65.091,100.3,132.4,184.04,99.221s166.02-153.291,245.6-269.453C562.13,115.463,606.52,50.67,650.744,0l-.021,8.732C606.866,58.982,562.664,123.5,519.917,185.894c-80.184,117.044-163.1,238.073-247.99,271.71" transform="translate(790.631 171.706)" fill="#c6daf5" stroke="#c5daf6" stroke-width="4"/>
                <path id="Path_67249" data-name="Path 67249" d="M0,363.014l.012-8.722C43.574,304.208,87.488,240.11,129.96,178.112,172.885,115.461,217.272,50.669,261.493,0l-.021,8.732c-43.849,50.241-88.051,114.76-130.8,177.152C88.026,248.139,43.927,312.511,0,363.014" transform="translate(316.301 513.884)" fill="#c6daf5" stroke="#c5daf6" stroke-width="4"/>
                <path id="Path_67250" data-name="Path 67250" d="M223.794,366.349C138.9,399.986,87.524,332.167,37.837,266.582,25.6,250.423,12.948,233.723,0,218.82l3.5-9.6c13,14.958,25.675,31.7,37.936,47.878,49.309,65.092,100.3,132.4,184.034,99.224s166.024-153.3,245.6-269.453C490.861,57.979,511.319,28.116,531.512,0l.56,8c-20.114,28-40.534,57.814-60.286,86.641C391.6,211.682,308.686,332.712,223.794,366.349" transform="translate(850.002 195.674)" fill="#c6daf5" stroke="#c5daf6" stroke-width="4"/>
                <path id="Path_67251" data-name="Path 67251" d="M0,271.752l.012-8.722c43.56-50.082,87.469-114.173,129.935-176.162C149.738,57.975,170.2,28.117,190.4,0l.56,8c-20.115,28-40.542,57.81-60.3,86.651C88.02,156.88,43.926,221.244,0,271.752" transform="translate(327.539 537.858)" fill="#c6daf5" stroke="#c5daf6" stroke-width="4"/>
                <path id="Path_67252" data-name="Path 67252" d="M185.954,279.466C101.064,313.1,49.687,245.283,0,179.7l3.6-9.481C52.91,235.3,103.9,302.612,187.629,269.435S353.643,116.153,433.217,0l.729,7.754C353.75,124.81,270.841,245.831,185.954,279.466" transform="translate(899.078 215.276)" fill="#c6daf5" stroke="#c5daf6" stroke-width="4"/>
                <path id="Path_67253" data-name="Path 67253" d="M0,184.806l.012-8.722C43.552,126.021,87.444,61.956,129.892,0l.779,7.679C87.981,69.993,43.905,134.324,0,184.806" transform="translate(338.775 557.523)" fill="#c6daf5" stroke="#c5daf6" stroke-width="4"/>
                <path id="Path_67254" data-name="Path 67254" d="M148.016,192.844C80.537,219.581,35.325,181.624,0,140.96l3.5-9.6c34.958,40.241,79.666,77.817,146.192,51.458S280.7,75.61,335.01,0l.56,8C280.692,84.4,215.5,166.106,148.016,192.844" transform="translate(948.254 234.604)" fill="#c6daf5" stroke="#c5daf6" stroke-width="4"/>
                <path id="Path_67255" data-name="Path 67255" d="M0,98.252.012,89.53C20.976,65.43,43.11,36.976,69.668,0l.561,7.99C43.474,45.25,21.158,73.926,0,98.252" transform="translate(350.012 576.79)" fill="#c6daf5" stroke="#c5daf6" stroke-width="4"/>
                <path id="Path_67256" data-name="Path 67256" d="M99.483,102.322c-35.762,14.17-68.3,11.546-99.483-8.03L3.1,84.34c30.758,19.3,62.832,21.909,98.059,7.951S173.935,48.142,215.954,0l-.021,8.732c-42.6,48.809-80.689,79.419-116.451,93.589" transform="translate(1008.024 257.845)" fill="#c6daf5" stroke="#c5daf6" stroke-width="4"/>
              </g>
            </g>
          </g>
        </g>
      </g>
      <g id="Mask_Group_7389" data-name="Mask Group 7389" transform="translate(0 103.2)" opacity="0.652" clip-path="url(#clip-path-6)">
        <g id="Mask_Group_7388" data-name="Mask Group 7388" transform="translate(-279.512 -145.28)" opacity="0.189" clip-path="url(#clip-path-7)">
          <g id="Mask_Group_7387" data-name="Mask Group 7387" transform="matrix(-0.966, -0.259, 0.259, -0.966, 1430.429, 933.197)" opacity="0.674" clip-path="url(#clip-path-8)">
            <g id="Group_18273" data-name="Group 18273" transform="translate(152.403 -743.814)">
              <g id="Group_18274" data-name="Group 18274" transform="translate(0 0)">
                <path id="Path_68081" data-name="Path 68081" d="M196.26,18.411c-32.138,14.146-63.466,19.543-95.769,16.5S35.671,20.441,1.068,0L0,4.654c35.074,20.727,68.066,32.3,100.857,35.4s64.574-2.374,97.155-16.719Z" transform="translate(990.554 93.074)" fill="#c6daf5" stroke="#c5daf6" stroke-width="4"/>
                <path id="Path_68082" data-name="Path 68082" d="M196.263,18.411c-32.141,14.146-63.466,19.543-95.769,16.5S35.671,20.441,1.071,0L0,4.654c35.075,20.727,68.068,32.3,100.86,35.4s64.574-2.374,97.155-16.719Z" transform="translate(198.643 18.378)" fill="#c6daf5" stroke="#c5daf6" stroke-width="4"/>
                <path id="Path_68083" data-name="Path 68083" d="M305.535,28.674C266.717,54.513,218.811,80.156,157.808,74.4S44.582,33.561,1.54,0L0,4.337C43.493,38.25,96.3,73.71,158.174,79.546S268.492,59.473,307.717,33.362Z" transform="translate(935.691 88.079)" fill="#c6daf5" stroke="#c5daf6" stroke-width="4"/>
                <path id="Path_68084" data-name="Path 68084" d="M305.533,28.674C266.717,54.513,218.806,80.156,157.805,74.4S44.577,33.56,1.538,0L0,4.338C43.488,38.25,96.292,73.709,158.171,79.546S268.486,59.473,307.712,33.362Z" transform="translate(143.787 13.384)" fill="#c6daf5" stroke="#c5daf6" stroke-width="4"/>
                <path id="Path_68085" data-name="Path 68085" d="M395.637,37.161c-55.794,40.9-113.486,83.187-190.268,75.944S64.062,52.046,1.66,0L0,4.241C62.874,56.679,127.89,110.907,205.734,118.249S341.71,82.98,397.929,41.775Z" transform="translate(890.583 83.88)" fill="#c6daf5" stroke="#c5daf6" stroke-width="4"/>
                <path id="Path_68086" data-name="Path 68086" d="M395.632,37.154c-55.8,40.9-113.492,83.186-190.269,75.944S64.059,52.043,1.66,0L0,4.237c62.871,52.438,127.887,106.662,205.729,114s135.966-35.263,192.18-76.466Z" transform="translate(98.68 9.192)" fill="#c6daf5" stroke="#c5daf6" stroke-width="4"/>
                <path id="Path_68087" data-name="Path 68087" d="M485.729,45.67c-14.433,9.607-28.774,20.121-42.644,30.288-55.8,40.9-113.491,83.2-190.278,75.954S111.5,90.85,49.1,38.8C33.583,25.861,17.541,12.481,1.537,0L0,4.338c15.938,12.43,31.948,25.787,47.438,38.7,62.874,52.445,127.891,106.673,205.735,114.015s135.983-35.272,192.2-76.484c13.845-10.149,28.164-20.645,42.536-30.213Z" transform="translate(845.598 79.581)" fill="#c6daf5" stroke="#c5daf6" stroke-width="4"/>
                <path id="Path_68088" data-name="Path 68088" d="M485.734,45.671c-14.433,9.61-28.782,20.124-42.654,30.294-55.794,40.9-113.484,83.19-190.266,75.948S111.505,90.85,49.106,38.8C33.588,25.861,17.544,12.481,1.54,0L0,4.337c15.944,12.431,31.956,25.788,47.443,38.7C110.32,95.486,175.336,149.714,253.181,157.056s135.973-35.27,192.192-76.478c13.845-10.152,28.166-20.648,42.543-30.219Z" transform="translate(53.681 4.885)" fill="#c6daf5" stroke="#c5daf6" stroke-width="4"/>
                <path id="Path_68089" data-name="Path 68089" d="M594.968,56.018c-33.818,14.89-64.936,37.7-95.027,59.756-55.8,40.9-113.491,83.19-190.281,75.946s-141.307-61.056-203.708-113.1C72.292,50.542,37.485,21.515,1.071,0L0,4.654C36.109,25.99,70.769,54.9,104.288,82.856,167.165,135.3,232.181,189.522,310.025,196.865s135.986-35.268,192.2-76.48c29.967-21.967,60.952-44.679,94.489-59.446Z" transform="translate(791.198 74.27)" fill="#c6daf5" stroke="#c5daf6" stroke-width="4"/>
                <path id="Path_68090" data-name="Path 68090" d="M594.259,55.593c-33.823,14.889-64.943,37.7-95.04,59.758-55.794,40.9-113.487,83.187-190.268,75.944s-141.3-61.055-203.706-113.1C71.806,50.3,37.227,21.462,1.079,0L0,4.653c35.848,21.284,70.282,50,103.583,77.781,62.874,52.438,127.89,106.662,205.734,114s135.976-35.269,192.195-76.474c29.97-21.967,60.96-44.685,94.5-59.452Z" transform="translate(0 0)" fill="#c6daf5" stroke="#c5daf6" stroke-width="4"/>
                <path id="Path_68091" data-name="Path 68091" d="M691.412,38.88c-77.847-7.343-135.976,35.269-192.195,76.475-55.791,40.9-113.484,83.19-190.268,75.948S167.642,130.243,105.243,78.2C71.8,50.307,37.225,21.465,1.078,0L0,4.657c35.846,21.284,70.279,50,103.58,77.778C166.454,134.876,231.47,189.1,309.315,196.446s135.979-35.269,192.195-76.478C557.3,79.074,614.993,36.781,691.778,44.024s141.31,61.063,203.709,113.105c62.874,52.442,127.89,106.669,205.734,114.012l-.366-5.144c-76.782-7.242-141.307-61.063-203.709-113.109C834.273,100.45,769.259,46.223,691.412,38.88" transform="translate(2.453 34.501)" fill="#c6daf5" stroke="#c5daf6" stroke-width="4"/>
                <path id="Path_68092" data-name="Path 68092" d="M691.412,38.88c-77.847-7.343-135.976,35.269-192.195,76.478-55.791,40.9-113.484,83.19-190.268,75.948S167.645,130.243,105.243,78.2C71.8,50.307,37.225,21.466,1.078,0L0,4.657C35.846,25.941,70.28,54.663,103.58,82.434c62.874,52.445,127.891,106.673,205.735,114.015s135.979-35.269,192.194-76.481C557.3,79.074,614.993,36.781,691.778,44.024s141.31,61.063,203.709,113.105c62.874,52.445,127.89,106.673,205.735,114.015l-.366-5.144c-76.782-7.242-141.307-61.063-203.709-113.109C834.273,100.45,769.259,46.223,691.412,38.88" transform="translate(4.906 69.002)" fill="#c6daf5" stroke="#c5daf6" stroke-width="4"/>
                <path id="Path_68093" data-name="Path 68093" d="M691.412,38.877c-77.847-7.343-135.976,35.269-192.195,76.478-55.792,40.894-113.484,83.187-190.268,75.944s-141.3-61.059-203.7-113.1C71.8,50.307,37.225,21.466,1.078,0L0,4.657c35.846,21.28,70.279,50,103.583,77.778,62.874,52.442,127.89,106.666,205.732,114.008s135.979-35.269,192.195-76.474c55.791-40.9,113.484-83.19,190.268-75.948s141.31,61.063,203.709,113.109c62.873,52.438,127.89,106.666,205.734,114.008l-.366-5.144c-76.782-7.242-141.307-61.062-203.709-113.105C834.272,100.447,769.259,46.22,691.412,38.877" transform="translate(7.359 103.509)" fill="#c6daf5" stroke="#c5daf6" stroke-width="4"/>
                <path id="Path_68094" data-name="Path 68094" d="M691.412,38.88c-77.847-7.343-135.976,35.269-192.194,76.478-55.792,40.895-113.484,83.187-190.268,75.944S167.642,130.243,105.243,78.2C71.8,50.307,37.225,21.466,1.078,0L0,4.657c35.846,21.284,70.279,50,103.58,77.781,62.874,52.438,127.89,106.666,205.734,114.008s135.979-35.269,192.195-76.474c55.791-40.9,113.484-83.19,190.268-75.948s141.31,61.063,203.709,113.109c62.874,52.438,127.89,106.666,205.734,114.008l-.366-5.144c-76.782-7.242-141.307-61.063-203.709-113.105C834.273,100.45,769.259,46.223,691.412,38.88" transform="translate(9.812 138.01)" fill="#c6daf5" stroke="#c5daf6" stroke-width="4"/>
                <path id="Path_68095" data-name="Path 68095" d="M691.412,38.88c-77.847-7.343-135.976,35.269-192.195,76.474-55.791,40.9-113.484,83.187-190.269,75.944s-141.3-61.059-203.7-113.1C71.806,50.308,37.225,21.465,1.078,0L0,4.657c35.846,21.284,70.282,50,103.583,77.778,62.874,52.442,127.89,106.666,205.732,114.008s135.979-35.266,192.195-76.478C557.3,79.07,614.993,36.781,691.778,44.024s141.31,61.059,203.709,113.1c62.874,52.445,127.89,106.669,205.735,114.012l-.366-5.144c-76.782-7.242-141.307-61.059-203.709-113.105C834.273,100.45,769.259,46.223,691.412,38.88" transform="translate(12.265 172.514)" fill="#c6daf5" stroke="#c5daf6" stroke-width="4"/>
                <path id="Path_68096" data-name="Path 68096" d="M691.412,38.88c-77.847-7.343-135.976,35.27-192.195,76.475-55.791,40.9-113.484,83.19-190.268,75.948S167.642,130.243,105.243,78.2C71.8,50.307,37.225,21.465,1.078,0L0,4.657c35.846,21.284,70.279,50,103.58,77.778,62.874,52.442,127.89,106.669,205.734,114.012s135.979-35.269,192.195-76.478C557.3,79.073,614.993,36.781,691.778,44.024s141.31,61.063,203.709,113.105c62.874,52.442,127.89,106.669,205.734,114.012l-.366-5.144c-76.782-7.242-141.307-61.063-203.709-113.109C834.273,100.45,769.259,46.223,691.412,38.88" transform="translate(14.718 207.019)" fill="#c6daf5" stroke="#c5daf6" stroke-width="4"/>
                <path id="Path_68097" data-name="Path 68097" d="M691.412,38.88c-77.847-7.343-135.976,35.269-192.195,76.474-55.791,40.9-113.484,83.187-190.268,75.944s-141.3-61.055-203.7-113.1C71.806,50.308,37.225,21.466,1.078,0L0,4.657c35.846,21.28,70.282,50,103.583,77.778,62.874,52.442,127.89,106.666,205.732,114.008s135.979-35.266,192.195-76.478C557.3,79.07,614.993,36.781,691.778,44.024s141.31,61.059,203.709,113.1c62.874,52.445,127.89,106.669,205.735,114.012l-.366-5.144c-76.782-7.242-141.307-61.059-203.709-113.105C834.273,100.45,769.259,46.223,691.412,38.88" transform="translate(17.171 241.523)" fill="#c6daf5" stroke="#c5daf6" stroke-width="4"/>
                <path id="Path_68098" data-name="Path 68098" d="M691.412,38.88c-77.847-7.343-135.976,35.27-192.195,76.475-55.791,40.9-113.484,83.183-190.269,75.941s-141.3-61.052-203.705-113.1C71.8,50.307,37.225,21.466,1.078,0L0,4.657c35.846,21.284,70.279,50,103.58,77.778,62.874,52.442,127.89,106.662,205.734,114s135.979-35.262,192.2-76.471c55.791-40.9,113.484-83.187,190.268-75.944S833.087,105.08,895.487,157.129c62.873,52.442,127.89,106.662,205.734,114l-.366-5.144c-76.782-7.242-141.307-61.056-203.708-113.1C834.273,100.45,769.259,46.223,691.412,38.88" transform="translate(19.624 276.027)" fill="#c6daf5" stroke="#c5daf6" stroke-width="4"/>
                <path id="Path_68099" data-name="Path 68099" d="M691.412,38.88c-77.847-7.343-135.976,35.269-192.195,76.474-55.791,40.9-113.484,83.187-190.268,75.944s-141.3-61.055-203.706-113.1C71.8,50.307,37.225,21.465,1.078,0L0,4.657c35.846,21.284,70.279,50,103.58,77.778C166.454,134.876,231.47,189.1,309.314,196.443s135.979-35.266,192.195-76.474C557.3,79.07,614.993,36.781,691.778,44.024s141.31,61.059,203.709,113.106c62.874,52.442,127.89,106.666,205.734,114.008l-.366-5.144c-76.782-7.242-141.307-61.059-203.709-113.105C834.272,100.45,769.259,46.223,691.412,38.88" transform="translate(22.077 310.528)" fill="#c6daf5" stroke="#c5daf6" stroke-width="4"/>
                <path id="Path_68100" data-name="Path 68100" d="M691.412,38.877c-77.847-7.343-135.976,35.27-192.195,76.478-55.791,40.9-113.484,83.187-190.268,75.944S167.645,130.24,105.243,78.194C71.8,50.3,37.225,21.462,1.079,0L0,4.653C35.846,25.937,70.28,54.66,103.58,82.434,166.454,134.872,231.47,189.1,309.315,196.443s135.979-35.269,192.195-76.478C557.3,79.067,614.993,36.778,691.778,44.02s141.31,61.059,203.709,113.105c62.874,52.442,127.89,106.669,205.734,114.012l-.366-5.144c-76.782-7.242-141.307-61.059-203.709-113.105C834.272,100.447,769.259,46.219,691.412,38.877" transform="translate(24.53 345.035)" fill="#c6daf5" stroke="#c5daf6" stroke-width="4"/>
                <path id="Path_68101" data-name="Path 68101" d="M691.412,38.877c-77.847-7.343-135.976,35.269-192.194,76.478-55.791,40.9-113.484,83.187-190.268,75.944S167.645,130.24,105.243,78.2C71.8,50.3,37.225,21.462,1.079,0L0,4.653C35.846,25.937,70.28,54.66,103.583,82.434,166.457,134.876,231.47,189.1,309.315,196.443s135.979-35.269,192.195-76.478C557.3,79.067,614.993,36.778,691.778,44.02s141.31,61.059,203.709,113.105c62.874,52.442,127.89,106.669,205.734,114.012l-.366-5.144c-76.782-7.242-141.307-61.059-203.709-113.105C834.272,100.447,769.259,46.22,691.412,38.877" transform="translate(26.983 379.536)" fill="#c6daf5" stroke="#c5daf6" stroke-width="4"/>
                <path id="Path_68102" data-name="Path 68102" d="M691.412,38.877c-77.847-7.343-135.976,35.269-192.195,76.474-55.791,40.9-113.484,83.187-190.268,75.944s-141.3-61.055-203.706-113.1C71.8,50.3,37.225,21.462,1.079,0L0,4.653c35.846,21.284,70.279,50,103.58,77.778C166.454,134.872,231.47,189.1,309.314,196.439s135.979-35.266,192.195-76.474C557.3,79.067,614.993,36.778,691.778,44.02s141.31,61.059,203.709,113.105c62.874,52.442,127.89,106.666,205.734,114.008l-.366-5.144c-76.782-7.242-141.307-61.059-203.709-113.105C834.273,100.447,769.259,46.219,691.412,38.877" transform="translate(29.436 414.044)" fill="#c6daf5" stroke="#c5daf6" stroke-width="4"/>
                <path id="Path_68103" data-name="Path 68103" d="M691.412,38.877c-77.847-7.343-135.976,35.269-192.194,76.478-55.791,40.9-113.484,83.187-190.268,75.944S167.645,130.24,105.243,78.194C71.8,50.3,37.225,21.462,1.079,0L0,4.653C35.846,25.937,70.28,54.66,103.58,82.434,166.454,134.872,231.47,189.1,309.315,196.443s135.979-35.269,192.195-76.478C557.3,79.067,614.993,36.778,691.778,44.02s141.31,61.059,203.709,113.105c62.874,52.442,127.89,106.669,205.734,114.012l-.366-5.144c-76.782-7.242-141.307-61.059-203.709-113.105C834.273,100.447,769.259,46.219,691.412,38.877" transform="translate(31.889 448.545)" fill="#c6daf5" stroke="#c5daf6" stroke-width="4"/>
                <path id="Path_68104" data-name="Path 68104" d="M691.412,38.877c-77.847-7.343-135.976,35.269-192.195,76.478-55.791,40.9-113.484,83.187-190.268,75.944S167.642,130.24,105.243,78.194C71.8,50.3,37.225,21.462,1.079,0L0,4.653c35.846,21.284,70.279,50,103.58,77.781C166.454,134.872,231.47,189.1,309.315,196.443s135.979-35.269,192.195-76.478C557.3,79.067,614.993,36.778,691.778,44.02S833.087,105.08,895.486,157.126c62.874,52.442,127.89,106.669,205.734,114.012l-.366-5.144c-76.782-7.242-141.307-61.059-203.709-113.105C834.272,100.447,769.259,46.219,691.412,38.877" transform="translate(34.342 483.049)" fill="#c6daf5" stroke="#c5daf6" stroke-width="4"/>
                <path id="Path_68105" data-name="Path 68105" d="M691.412,38.88c-77.847-7.343-135.976,35.269-192.195,76.478-55.791,40.9-113.484,83.187-190.268,75.944S167.642,130.243,105.243,78.2C71.8,50.3,37.225,21.465,1.079,0L0,4.653C35.846,25.941,70.28,54.66,103.58,82.434c62.874,52.442,127.89,106.669,205.734,114.012s135.979-35.269,192.195-76.478C557.3,79.07,614.993,36.781,691.778,44.024s141.31,61.059,203.709,113.105c62.874,52.442,127.89,106.669,205.734,114.012l-.366-5.144c-76.782-7.242-141.307-61.059-203.709-113.105C834.273,100.45,769.259,46.223,691.412,38.88" transform="translate(36.795 517.55)" fill="#c6daf5" stroke="#c5daf6" stroke-width="4"/>
                <path id="Path_68106" data-name="Path 68106" d="M691.412,38.877c-77.847-7.343-135.976,35.269-192.195,76.474-55.791,40.9-113.484,83.187-190.268,75.944S167.642,130.24,105.243,78.194C71.8,50.3,37.225,21.462,1.079,0L0,4.653c35.846,21.284,70.279,50,103.58,77.777C166.454,134.873,231.47,189.1,309.314,196.439s135.979-35.266,192.195-76.474c55.791-40.9,113.484-83.187,190.268-75.944S833.087,105.08,895.486,157.126c62.874,52.442,127.89,106.666,205.734,114.008l-.366-5.144c-76.782-7.242-141.307-61.059-203.708-113.105C834.272,100.447,769.259,46.22,691.412,38.877" transform="translate(39.248 552.054)" fill="#c6daf5" stroke="#c5daf6" stroke-width="4"/>
                <path id="Path_68107" data-name="Path 68107" d="M691.412,38.877c-77.847-7.343-135.976,35.269-192.194,76.478-55.791,40.9-113.484,83.187-190.268,75.944S167.645,130.24,105.243,78.194C71.8,50.3,37.225,21.462,1.079,0L0,4.653C35.846,25.937,70.28,54.66,103.58,82.434,166.454,134.872,231.47,189.1,309.315,196.443s135.979-35.269,192.195-76.478C557.3,79.067,614.993,36.778,691.778,44.02S833.087,105.08,895.486,157.126c62.874,52.442,127.89,106.669,205.734,114.012l-.366-5.144c-76.782-7.242-141.307-61.059-203.709-113.105C834.272,100.447,769.259,46.219,691.412,38.877" transform="translate(41.701 586.558)" fill="#c6daf5" stroke="#c5daf6" stroke-width="4"/>
                <path id="Path_68108" data-name="Path 68108" d="M691.412,38.877c-77.847-7.343-135.976,35.269-192.195,76.478-55.791,40.9-113.484,83.187-190.268,75.944S167.642,130.24,105.243,78.194C71.8,50.3,37.225,21.462,1.079,0L0,4.653c35.846,21.284,70.279,50,103.58,77.778C166.454,134.872,231.47,189.1,309.315,196.443s135.979-35.269,192.195-76.478C557.3,79.067,614.993,36.778,691.778,44.02S833.087,105.08,895.486,157.126c62.874,52.442,127.89,106.669,205.734,114.012l-.366-5.144c-76.782-7.242-141.307-61.059-203.709-113.105C834.272,100.447,769.259,46.219,691.412,38.877" transform="translate(44.154 621.062)" fill="#c6daf5" stroke="#c5daf6" stroke-width="4"/>
                <path id="Path_68109" data-name="Path 68109" d="M691.412,38.877c-77.847-7.343-135.976,35.269-192.194,76.478-55.791,40.9-113.484,83.187-190.268,75.944s-141.3-61.059-203.7-113.1C71.806,50.308,37.225,21.465,1.078,0L0,4.657C35.846,25.941,70.282,54.663,103.585,82.435,166.457,134.876,231.473,189.1,309.314,196.442s135.979-35.269,192.195-76.478C557.3,79.067,614.993,36.778,691.777,44.02s141.31,61.059,203.709,113.105c62.874,52.442,127.89,106.669,205.735,114.012l-.366-5.144c-76.782-7.242-141.307-61.059-203.709-113.106C834.272,100.447,769.259,46.219,691.412,38.877" transform="translate(46.607 655.563)" fill="#c6daf5" stroke="#c5daf6" stroke-width="4"/>
                <path id="Path_68110" data-name="Path 68110" d="M691.412,38.88c-77.847-7.343-135.976,35.269-192.195,76.474-55.791,40.9-113.484,83.187-190.268,75.944S167.642,130.24,105.24,78.194C71.8,50.307,37.225,21.466,1.079,0L0,4.653C35.846,25.941,70.28,54.66,103.58,82.434,166.454,134.876,231.468,189.1,309.315,196.443s135.979-35.266,192.195-76.474C557.3,79.07,614.993,36.781,691.778,44.024s141.309,61.059,203.709,113.105c62.874,52.442,127.89,106.666,205.734,114.008l-.366-5.144c-76.782-7.242-141.307-61.059-203.709-113.105C834.273,100.45,769.259,46.223,691.412,38.88" transform="translate(49.059 690.064)" fill="#c6daf5" stroke="#c5daf6" stroke-width="4"/>
                <path id="Path_68111" data-name="Path 68111" d="M691.412,38.877c-77.847-7.343-135.976,35.269-192.195,76.474-55.791,40.9-113.484,83.187-190.268,75.944s-141.3-61.055-203.706-113.1C71.8,50.3,37.225,21.462,1.079,0L0,4.653c35.846,21.284,70.279,50,103.58,77.778C166.454,134.872,231.47,189.1,309.314,196.439s135.979-35.266,192.195-76.475C557.3,79.067,614.993,36.778,691.778,44.02S833.087,105.08,895.486,157.126c62.874,52.442,127.89,106.666,205.734,114.008l-.366-5.144c-76.782-7.242-141.307-61.059-203.709-113.105C834.272,100.447,769.259,46.219,691.412,38.877" transform="translate(51.512 724.572)" fill="#c6daf5" stroke="#c5daf6" stroke-width="4"/>
                <path id="Path_68112" data-name="Path 68112" d="M691.412,38.877c-77.847-7.343-135.976,35.269-192.195,76.478-55.791,40.9-113.484,83.187-190.268,75.944S167.645,130.24,105.243,78.194C71.8,50.3,37.225,21.462,1.079,0L0,4.653c35.846,21.284,70.279,50,103.583,77.778C166.457,134.873,231.47,189.1,309.315,196.443s135.979-35.269,192.195-76.478C557.3,79.067,614.993,36.778,691.778,44.02s141.31,61.059,203.709,113.105c62.874,52.442,127.89,106.669,205.734,114.012l-.366-5.144c-76.782-7.242-141.307-61.059-203.709-113.105C834.272,100.447,769.259,46.219,691.412,38.877" transform="translate(53.965 759.076)" fill="#c6daf5" stroke="#c5daf6" stroke-width="4"/>
                <path id="Path_68113" data-name="Path 68113" d="M691.412,38.88c-77.847-7.343-135.976,35.269-192.195,76.474-55.791,40.9-113.484,83.187-190.268,75.944s-141.3-61.055-203.706-113.1C71.8,50.307,37.225,21.465,1.079,0L0,4.653C35.846,25.941,70.28,54.66,103.58,82.434,166.454,134.876,231.47,189.1,309.315,196.443s135.979-35.266,192.195-76.474C557.3,79.07,614.993,36.781,691.778,44.024s141.31,61.059,203.709,113.105c62.874,52.442,127.89,106.666,205.734,114.008l-.366-5.144c-76.782-7.242-141.307-61.059-203.709-113.105C834.273,100.45,769.259,46.223,691.412,38.88" transform="translate(56.418 793.577)" fill="#c6daf5" stroke="#c5daf6" stroke-width="4"/>
                <path id="Path_68114" data-name="Path 68114" d="M691.412,38.877c-77.847-7.343-135.976,35.269-192.194,76.478-55.791,40.9-113.484,83.187-190.268,75.944S167.642,130.24,105.243,78.194C71.8,50.3,37.225,21.462,1.079,0L0,4.653C35.846,25.937,70.28,54.66,103.58,82.431,166.454,134.872,231.47,189.1,309.315,196.443s135.979-35.269,192.195-76.478C557.3,79.067,614.993,36.778,691.778,44.02s141.31,61.059,203.709,113.105c62.874,52.442,127.89,106.669,205.734,114.012l-.366-5.144c-76.782-7.242-141.307-61.059-203.709-113.105C834.272,100.447,769.259,46.219,691.412,38.877" transform="translate(58.871 828.081)" fill="#c6daf5" stroke="#c5daf6" stroke-width="4"/>
                <path id="Path_68115" data-name="Path 68115" d="M691.412,38.877c-77.847-7.343-135.976,35.269-192.195,76.474-55.791,40.9-113.484,83.187-190.268,75.944s-141.3-61.055-203.706-113.1C71.8,50.3,37.225,21.462,1.079,0L0,4.653c35.846,21.284,70.279,50,103.58,77.778C166.454,134.872,231.47,189.1,309.314,196.439s135.979-35.266,192.195-76.474C557.3,79.067,614.993,36.778,691.778,44.02s141.31,61.059,203.709,113.105c62.874,52.442,127.89,106.666,205.734,114.008l-.366-5.144c-76.782-7.242-141.307-61.059-203.709-113.105C834.273,100.447,769.259,46.219,691.412,38.877" transform="translate(61.324 862.585)" fill="#c6daf5" stroke="#c5daf6" stroke-width="4"/>
                <path id="Path_68116" data-name="Path 68116" d="M691.412,38.877c-77.847-7.343-135.976,35.269-192.195,76.478-55.791,40.9-113.484,83.187-190.268,75.944S167.645,130.24,105.243,78.2C71.8,50.3,37.225,21.465,1.079,0L0,4.653C35.846,25.937,70.28,54.66,103.583,82.434,166.457,134.876,231.47,189.1,309.315,196.443s135.979-35.269,192.195-76.478C557.3,79.067,614.993,36.778,691.778,44.02s141.31,61.059,203.709,113.105c62.874,52.442,127.89,106.669,205.734,114.012l-.366-5.144c-76.782-7.242-141.307-61.059-203.709-113.105C834.273,100.447,769.259,46.219,691.412,38.877" transform="translate(63.777 897.086)" fill="#c6daf5" stroke="#c5daf6" stroke-width="4"/>
                <path id="Path_68117" data-name="Path 68117" d="M691.412,38.877c-77.847-7.343-135.976,35.269-192.195,76.478-55.791,40.9-113.484,83.187-190.268,75.944S167.645,130.24,105.243,78.194C71.8,50.3,37.225,21.462,1.079,0L0,4.653C35.846,25.937,70.28,54.66,103.58,82.434,166.454,134.872,231.47,189.1,309.315,196.443s135.979-35.269,192.195-76.478C557.3,79.067,614.993,36.778,691.778,44.02S833.087,105.08,895.486,157.126c62.874,52.442,127.89,106.669,205.734,114.012l-.366-5.144c-76.782-7.242-141.307-61.059-203.709-113.105C834.272,100.447,769.259,46.219,691.412,38.877" transform="translate(66.23 931.59)" fill="#c6daf5" stroke="#c5daf6" stroke-width="4"/>
                <path id="Path_68118" data-name="Path 68118" d="M286.694.831C208.845-6.512,150.711,36.1,94.492,77.312,64.525,99.279,33.537,121.991,0,136.757l1.752,4.924c33.821-14.89,64.938-37.7,95.032-59.759,55.794-40.9,113.489-83.19,190.276-75.947S428.367,67.034,490.768,119.08c33.659,28.074,68.466,57.1,104.877,78.619l1.071-4.657c-36.109-21.336-70.769-50.243-104.288-78.2C429.555,62.4,364.541,8.174,286.694.831" transform="translate(473.401 1004.14)" fill="#c6daf5" stroke="#c5daf6" stroke-width="4"/>
                <path id="Path_68119" data-name="Path 68119" d="M1.079,0,0,4.653c35.846,21.284,70.279,50,103.583,77.781,33.658,28.07,68.463,57.1,104.872,78.615l1.071-4.657c-36.1-21.332-70.763-50.239-104.28-78.194C71.8,50.3,37.225,21.462,1.079,0" transform="translate(68.683 966.094)" fill="#c6daf5" stroke="#c5daf6" stroke-width="4"/>
                <path id="Path_68120" data-name="Path 68120" d="M234.735.831C156.889-6.512,98.757,36.1,42.538,77.309,28.693,87.461,14.377,97.954,0,107.525l2.182,4.688c14.431-9.607,28.776-20.124,42.649-30.291C100.622,41.024,158.317-1.268,235.1,5.975S376.411,67.038,438.81,119.08c15.518,12.942,31.56,26.323,47.563,38.8l1.54-4.337c-15.941-12.431-31.953-25.788-47.441-38.7C377.6,62.4,312.582,8.174,234.735.831" transform="translate(527.813 1038.644)" fill="#c6daf5" stroke="#c5daf6" stroke-width="4"/>
                <path id="Path_68121" data-name="Path 68121" d="M1.079,0,0,4.653c35.843,21.284,70.274,50,103.572,77.773,15.518,12.946,31.565,26.323,47.571,38.8l1.54-4.337c-15.943-12.427-31.961-25.785-47.449-38.707C71.8,50.3,37.222,21.465,1.079,0" transform="translate(71.136 1000.599)" fill="#c6daf5" stroke="#c5daf6" stroke-width="4"/>
                <path id="Path_68122" data-name="Path 68122" d="M192.194.831C114.35-6.511,56.219,36.1,0,77.309l2.292,4.61C58.086,41.025,115.778-1.268,192.56,5.975s141.3,61.055,203.7,113.1l1.674-4.229C335.047,62.4,270.036,8.173,192.194.831" transform="translate(572.806 1073.145)" fill="#c6daf5" stroke="#c5daf6" stroke-width="4"/>
                <path id="Path_68123" data-name="Path 68123" d="M1.079,0,0,4.653C35.827,25.929,70.244,54.633,103.529,82.392l1.712-4.195C71.768,50.277,37.206,21.454,1.079,0" transform="translate(73.589 1035.099)" fill="#c6daf5" stroke="#c5daf6" stroke-width="4"/>
                <path id="Path_68124" data-name="Path 68124" d="M149.543.831C87.665-5.005,39.223,20.9,0,47.015L2.182,51.7C41,25.86,88.9.221,149.909,5.975s113.231,40.838,156.27,74.4l1.54-4.337C264.226,42.123,211.422,6.668,149.543.831" transform="translate(617.911 1107.652)" fill="#c6daf5" stroke="#c5daf6" stroke-width="4"/>
                <path id="Path_68125" data-name="Path 68125" d="M1.079,0,0,4.653c17.251,10.241,35.089,22.66,56.137,39.074l1.54-4.334C36.474,22.852,18.488,10.338,1.079,0" transform="translate(76.042 1069.604)" fill="#c6daf5" stroke="#c5daf6" stroke-width="4"/>
              </g>
            </g>
          </g>
        </g>
      </g>
    </g>
  </g>
</svg>
