<svg id="Group_18265" data-name="Group 18265" xmlns="http://www.w3.org/2000/svg" xmlns:xlink="http://www.w3.org/1999/xlink" width="381.515" height="256.441" viewBox="0 0 381.515 256.441">
  <defs>
    <clipPath id="clip-path">
      <rect id="Rectangle_13166" data-name="Rectangle 13166" width="258.014" height="256.441" fill="#fff" stroke="#707070" stroke-width="1"/>
    </clipPath>
  </defs>
  <g id="Mask_Group_7379" data-name="Mask Group 7379" transform="translate(22.812 0)" clip-path="url(#clip-path)">
    <g id="Group_18052" data-name="Group 18052" transform="translate(38.152 16.334)">
      <g id="Group_18053" data-name="Group 18053" transform="translate(0 0)">
        <g id="Group_18050" data-name="Group 18050" transform="translate(0 0)">
          <g id="Group_18054" data-name="Group 18054">
            <path id="Path_67877" data-name="Path 67877" d="M225.653,110.3c1.429.621,3.03-.658,3.579-1.985.51-1.233.3-2.888.3-4.157q.016-3.806.033-7.613c.007-1.583,1.725-16.047-3.885-13.412v0c.119-8.082.335-16.164-.056-24.246-.245-5.16-.615-10.32-.748-15.487-.2-7.252.161-14.5-.2-21.749-.154-3.128-.335-6.256-.266-9.39.063-2.975-.314-5.319-2.586-7.551a13.249,13.249,0,0,0-8.68-3.52c-4.718-.246-9.484-.046-14.209-.206C191.491.733,183.928.959,176.4.932c-.21.007-.412.007-.622,0-1.81-.007-3.62-.027-5.423-.08-.238,0-.475-.007-.706-.02-1.188-.033-2.376-.08-3.557-.139-.818-.04-1.628-.08-2.439-.113-.192-.012-.378-.024-.57-.031l-.031,0h-.007C161.27.468,159.516.4,157.762.335h-.007l-.692-.02c-1.894-.06-3.774-.113-5.654-.153l-.783-.02c-.971-.02-1.943-.04-2.914-.053-.273-.007-.552-.007-.825-.013q-2.128-.03-4.249-.046c-.28,0-.559-.007-.839-.007C140.31.009,138.829,0,137.34,0h-.95C124.41,0,112.473.242,100.1.388,90.661.494,81.26,1.245,71.825,1.57q-6.94.229-13.894.372c-3.886.086-7.45.193-10.721,2.444C40.459,9.041,41.6,16.738,41.787,23.711c.217,7.777-.517,11.828-1,19.584-.433,6.867-.58,13.74-.538,20.62v.006c-4.085.079-2.611,12.986-2.605,14.349q.016,3.489.03,6.978c.005,1.259-.215,2.932.274,4.162.475,1.2,1.852,2.415,3.175,2.159q.168,3.337.356,6.661.042.7.083,1.407c-3.46,1.095-2.11,12.967-2.1,14.27q.016,3.489.03,6.978c.005,1.258-.215,2.932.274,4.162a3.3,3.3,0,0,0,3.072,2.176v0c-.028,9.922-.573,19.85-.727,29.772-.608,40.437,1.335,80.847,3.18,121.238.881,19.412,1.88,38.823,1.957,58.261.028,6.927-1.37,14.922,4.536,20.162,5.479,4.854,15.313,4.748,22.344,5.107,17.354.883,34.693.306,52.04-.219,14.132-.425,28.277-.372,42.416-.252,12.65.113,25.307.332,37.957.558,3.39.066,6.779.2,10.169.166,4.711-.04,7.828-3.062,9.722-7.013,1.461-3.061,1.566-6.1,1.663-9.4.112-3.633.175-7.265.259-10.9a1.29,1.29,0,0,0,.356-.956c0-18.1,1.013-36.187.985-54.3-.042-21.211-.566-42.416-1.216-63.614-1.083-35.171-2.537-70.348-2.824-105.532m2.938-13.791q-.016,2.855-.032,5.709c-.007,1.208-.071,8.8-2.773,6.675a.548.548,0,0,0-.147-.082v-.005q-.084-10.709-.007-21.411c.007-1.036.021-2.072.035-3.108h0c4.042-1.326,2.935,10.128,2.924,12.223M38.653,84.017q-.019-3.172-.036-6.344l-.032-5.709c-.009-1.61-.535-6.264,1.671-6.693.056,8.333.384,16.665.8,24.992-2.275,1.125-2.4-4.949-2.406-6.246m1.815,35.636q-.019-3.172-.036-6.344-.016-2.855-.032-5.709c-.008-1.5-.464-5.628,1.247-6.544v0c.5,7.9,1.146,15.806,1.188,23.708,0,.379.007.764.007,1.149h0c-2.245,1.053-2.367-4.972-2.374-6.263M227.33,313.059c-.189,6.92-.615,13.833-.615,20.753a1.26,1.26,0,0,0,.3.883c-.147,3.646-.3,7.305-.426,10.958-.147,4.509-.706,8.886-4.291,12.239-2.628,2.464-5.724,2.1-9.058,2.032-10.246-.206-20.485-.445-30.731-.6-13.642-.212-27.292-.345-40.934-.246-14.544.113-29.074,1.169-43.611.9-4.007-.073-8.036-.093-12.05-.139.152-.15.3-.3.454-.45.674-.636,1.46-1.191,2.093-1.859.064-.068.036-.324-.1-.248a11.083,11.083,0,0,0-2.158,1.8c-.253.244-.5.5-.74.751h0c-1.789-.027-3.57-.053-5.352-.1,1.191-.975,2.384-1.962,3.47-3.014.084-.082.043-.37-.11-.268a30.289,30.289,0,0,0-3.955,3.262c-1.587-.04-3.166-.1-4.753-.179h0q2.48-2.127,5.113-4.085c.281-.209.1-.745-.255-.478Q76.711,357.131,74,359.5c-.706-.04-1.411-.08-2.117-.126-1.09-.073-2.25-.139-3.446-.219h0q3-2.586,5.831-5.348c.3-.291-.348-.425-.572-.206q-2.908,2.843-6.01,5.495h-.007a58.458,58.458,0,0,1-5.906-.7l-.008,0q4.141-3.461,8.087-7.123c.236-.22-.016-.781-.326-.492q-4.141,3.851-8.507,7.47a24.079,24.079,0,0,1-4.746-1.415h0q5.057-3.851,10.044-7.783c.351-.277-.067-.593-.373-.352q-5.064,3.994-10.2,7.9a13.869,13.869,0,0,1-2.633-1.573,117.359,117.359,0,0,1,10.264-8.719c.256-.2.1-.792-.243-.534a116.778,116.778,0,0,0-10.417,8.864.265.265,0,0,0-.031.037A10.12,10.12,0,0,1,50.8,352.58q5.295-4.423,10.837-8.563c.342-.256.011-.625-.329-.371q-5.513,4.117-10.78,8.516h0v-.007a10.477,10.477,0,0,1-1.16-2.8q5.153-4.088,10.21-8.284c.249-.207.035-.782-.292-.511q-4.98,4.136-10.058,8.163h0a21.706,21.706,0,0,1-.412-4.028l9.084-7.343c.243-.2-.049-.771-.355-.524L48.8,343.888h0c0-1.129.049-2.265.1-3.387h0q4.151-3.4,8.452-6.625c.253-.19-.11-.749-.4-.532q-4.077,3.058-8.017,6.273v-.005c.049-1.082.091-2.152.091-3.181v-.157c2.039-1.606,4.206-3.031,6.291-4.578.117-.087.068-.386-.1-.287a46.659,46.659,0,0,0-6.186,4.473v0c-.007-.883-.007-1.752-.014-2.635,1.2-.949,2.462-1.863,3.579-2.894.086-.08-.114-.184-.189-.131-1.181.829-2.277,1.794-3.39,2.712-.007-.768-.007-1.53-.021-2.3a4.1,4.1,0,0,1,.591-.674c.256-.231.554-.409.816-.63.1-.088-.075-.179-.161-.148a3,3,0,0,0-1.246.942h0q-.021-3.028-.07-6.057c-.161-9.377-.629-18.754-1.027-28.118-1.642-38.671-3.823-77.334-4.033-116.045q-.073-14.723.231-29.453c.224-10.267.909-20.561.5-30.827-.245-6.181-.594-12.362-.943-18.544.339-.125.347-.833,0-1.03l-.066-.035c-.608-10.478-1.223-20.956-1.384-31.46-.147-9.012-.077-18.05.58-27.049.5-6.78,1.111-9.948.916-16.749-.119-4.157-1.083-9.424.5-13.355C45.9,7.142,50.1,4.738,54.73,4.465c8.408-.491,16.864-.319,25.279-.777,18.206-1,36.112-1.275,53.976-1.222-.608.644-1.2,1.295-1.789,1.959-.238.266.349.611.559.379q1.048-1.2,2.146-2.338,2.023.01,4.047.027l-2.824,2.444c-.315.272.314.465.552.259,1.034-.9,2.076-1.793,3.11-2.7h.007q2.275.01,4.543.033c-2.264,2.3-4.41,4.708-6.905,6.787-.245.2-.091.81.231.538,2.691-2.238,4.976-4.861,7.429-7.318,1.062.013,2.125.02,3.187.033q-2.306,2.4-4.522,4.874c-.28.312.335.491.552.259q2.338-2.6,4.753-5.12h.007q2.81.03,5.633.073-3.984,3.895-8.177,7.584c-.294.252-.035.7.307.405q4.4-3.885,8.575-7.976c1.8.02,3.592.053,5.388.08q-3.774,3.7-7.548,7.411c-.3.292.342.432.566.213q3.879-3.805,7.758-7.611c2,.033,3.991.073,5.99.113q-6.615,6.445-13.643,12.492c-.259.226-.119.784.224.491q7.286-6.276,14.139-12.97h.007q2.82.05,5.654.106-8.156,9.155-16.312,18.322c-.3.332.2.525.454.246q8.261-9.284,16.522-18.555c1.587.027,3.166.06,4.753.093h.009q-6.387,7.22-12.425,14.707c-.217.27.432.506.631.26q6.138-7.618,12.643-14.954c1.3.033,2.6.053,3.9.079h0q-9.293,10.765-17.968,21.988c-.256.331.384.442.578.19Q175.475,14.061,184.85,3.21h0q2.054.05,4.116.086-7.061,8.382-14.137,16.753c-.228.27.391.568.6.326q7.211-8.525,14.4-17.066h0c.951.027,1.908.04,2.865.06h0c-3.981,4.771-8.3,9.309-11.885,14.36-.185.26.175.766.418.425,3.692-5.2,8.164-9.845,12.234-14.771,1.248.026,2.49.053,3.745.073h0Q187.7,14.867,179.37,27.1c-.2.293.436.556.613.3q8.425-12.379,18.076-23.925h0c1.293.027,2.586.053,3.893.073h.005q-6.263,6.535-12.527,13.069c-.268.279.361.522.577.3q6.4-6.669,12.792-13.346h.005c.28.007.566.007.846.013.769.013,1.572,0,2.382-.02q-10.4,11.1-20.8,22.2c-.234.25.411.5.626.27q10.533-11.253,21.077-22.5c1.111-.033,2.236-.073,3.361-.073h.011q-7.5,8.139-14.6,16.595c-.228.271.393.567.6.324q7.238-8.618,14.889-16.905a22.468,22.468,0,0,1,3.573.332h0q-11.577,13.151-22.24,26.99c-.269.35.219.558.453.253q10.71-13.909,22.358-27.124a10.728,10.728,0,0,1,1.229.332,11.479,11.479,0,0,1,1.759.736l-7.1,7.214c-.3.3.318.5.543.267l7.082-7.2h0a9.323,9.323,0,0,1,1.524,1.089l0,0q-9.775,9.743-19.546,19.491c-.3.3.044.657.347.356q9.778-9.754,19.559-19.5a6.5,6.5,0,0,1,.58.631,5.071,5.071,0,0,1,.929,1.747v0L207.475,24.948c-.3.325.164.574.427.291L222.4,9.675v0a22.209,22.209,0,0,1,.084,4.164c0,.411,0,.829.014,1.241q-7.885,8.442-15.762,16.89c-.237.254.4.525.614.294q7.577-8.121,15.155-16.24h0c.021,2.311.091,4.615.161,6.927v.006c-.54.423-1.095.825-1.278.993l-2.6,2.392-5.209,4.787c-.328.3.209.538.466.3q3.182-2.926,6.367-5.85l2.272-2.088v0c.1,3.487.21,6.973.189,10.473-.056,12.133,1.37,24.253,1.1,36.366-1.831,80.94,5.57,161.788,3.362,242.722" transform="translate(-37.38 -0.003)" fill="#fff" stroke="#fff" stroke-width="2"/>
            <path id="Path_67878" data-name="Path 67878" d="M250.358,143.474c-.14-3.869.531-8.949-4.159-10.644-2.775-1-4.927-.858-7.793-.714-3.9.2-9.2-.21-13.1-.1-15.718.445-31.45.209-47.162-.242-17.312-.491-34.421-.177-51.732-.543-8.3-.177-16.613-.268-24.916-.21-4.62.033-14.294-1.834-15.049,4.5a1.747,1.747,0,0,0,.079.786c-.266,35.67.587,71.359,1.181,107.029.594,35.643,1.3,71.28,2.334,106.917q.891,30.312,1.992,60.61c.014.373.524.478.825.471,18.15-.2,36.3-.2,54.451-.38q42.993-.442,85.978-.969,9.949-.118,19.912-.229c.412-.007.895-.3.887-.72-.678-58.941-.755-117.889-1.607-176.83-.426-29.582-1.041-59.164-2.118-88.732m-51.719,265.49c-28.662.255-57.317.543-85.971,1.015-6.374.1-12.734.223-19.1.288C91.03,338.954,89.1,267.614,88.8,196.262c-.091-19.966-.147-39.951-.4-59.916a1.2,1.2,0,0,0,.106-.555c.482-4.032,7.974-2.953,11.077-2.986q5.493-.059,10.973-.026c7.59.033,15.18.177,22.77.373,14.383.38,28.557-.1,42.94.308,14.1.412,28.222.655,42.339.426,7.338-.124,14.88.38,22.211.288,2.25-.033,5.032-.164,6.213,2a7.776,7.776,0,0,1,.622,3.234c.2,3.371.238,6.762.349,10.14,1.817,55.419,2.376,110.865,2.977,166.3.335,30.878.923,61.743,1.2,92.621q-26.764.265-53.543.5" transform="translate(-72.715 -94.228)" fill="#fff" stroke="#fff" stroke-width="2"/>
            <path id="Path_67879" data-name="Path 67879" d="M340.163,78.707h30.775a1.887,1.887,0,1,0,0-3.774H340.163a1.887,1.887,0,1,0,0,3.774m0-2.935h30.775a1.048,1.048,0,1,1,0,2.1H340.163a1.048,1.048,0,1,1,0-2.1" transform="translate(-254.158 -53.985)" fill="#fff" stroke="#fff" stroke-width="2"/>
            <path id="Path_67880" data-name="Path 67880" d="M191.918,193.891l-11.2,14.356-11.2,14.356-11.2,14.356-11.2,14.356-11.152,14.3-1.4,1.794c-.022.028.017.068.039.04l11.2-14.356,11.2-14.356,11.2-14.356,11.2-14.356,11.152-14.3,1.4-1.794c.022-.028-.017-.068-.039-.039" transform="translate(-107.4 -139.681)" fill="#fff" stroke="#fff" stroke-width="2"/>
            <path id="Path_67881" data-name="Path 67881" d="M144.921,236.171l15.1-19.362,15.016-19.252,8.495-10.891c.022-.028-.017-.068-.04-.04l-15.1,19.362-15.016,19.252-8.495,10.891c-.022.028.017.068.039.039" transform="translate(-114.824 -134.447)" fill="#fff" stroke="#fff" stroke-width="2"/>
          </g>
        </g>
      </g>
    </g>
  </g>
  <g id="Group_18057" data-name="Group 18057" transform="translate(0 91.249)">
    <rect id="Rectangle_13163" data-name="Rectangle 13163" width="172.272" height="48.771" rx="8" fill="#bc169c"/>
    <rect id="Rectangle_13164" data-name="Rectangle 13164" width="130.58" height="6.293" rx="3.147" transform="translate(20.452 14.946)" fill="#fff"/>
    <rect id="Rectangle_13165" data-name="Rectangle 13165" width="91.249" height="5.506" rx="2.753" transform="translate(20.452 28.319)" fill="#fff"/>
  </g>
  <g id="Group_18055" data-name="Group 18055" transform="translate(209.243 66.863)">
    <rect id="Rectangle_13163-2" data-name="Rectangle 13163" width="172.272" height="48.771" rx="8" fill="#1bd3eb"/>
    <rect id="Rectangle_13164-2" data-name="Rectangle 13164" width="130.58" height="6.293" rx="3.147" transform="translate(20.452 14.946)" fill="#fff"/>
    <rect id="Rectangle_13165-2" data-name="Rectangle 13165" width="91.249" height="5.506" rx="2.753" transform="translate(20.452 28.319)" fill="#fff"/>
  </g>
  <g id="Group_18056" data-name="Group 18056" transform="translate(115.634 173.058)">
    <path id="Path_67981" data-name="Path 67981" d="M6.293,0H165.979a6.293,6.293,0,0,1,6.293,6.293V42.478a6.293,6.293,0,0,1-6.293,6.293H6.293A6.293,6.293,0,0,1,0,42.478V6.293A6.293,6.293,0,0,1,6.293,0Z" transform="translate(0 0)" fill="#2f74e3"/>
    <rect id="Rectangle_13164-3" data-name="Rectangle 13164" width="130.58" height="6.293" rx="3.147" transform="translate(20.452 14.946)" fill="#fff"/>
    <rect id="Rectangle_13165-3" data-name="Rectangle 13165" width="91.249" height="5.506" rx="2.753" transform="translate(20.452 28.319)" fill="#fff"/>
  </g>
</svg>
