<svg xmlns="http://www.w3.org/2000/svg" xmlns:xlink="http://www.w3.org/1999/xlink" width="39.933" height="39.93" viewBox="0 0 39.933 39.93">
  <defs>
    <clipPath id="clip-path">
      <rect id="Rectangle_20645" data-name="Rectangle 20645" width="39.933" height="39.93" transform="translate(0 0)" fill="none"/>
    </clipPath>
  </defs>
  <g id="Group_35573" data-name="Group 35573" transform="translate(0 0)">
    <g id="Group_35572" data-name="Group 35572" clip-path="url(#clip-path)">
      <path id="Path_96713" data-name="Path 96713" d="M30.5,31.579l.007-.285a19.018,19.018,0,0,0-.028-2.188,14.261,14.261,0,0,0-.444-2.764,10.328,10.328,0,0,0-5.451-6.44l-.419-.226.231-.188A6.925,6.925,0,0,0,26.939,14.4a6.641,6.641,0,0,0-2.185-5.443,6.981,6.981,0,0,0-9.445-.172,6.79,6.79,0,0,0-2.318,4.391,6.9,6.9,0,0,0,2.489,6.291l.22.18-.244.146c-.089.055-.18.108-.27.16l-.125.072c-.417.241-.811.468-1.184.734a10.366,10.366,0,0,0-4.227,6.4,15.262,15.262,0,0,0-.227,3.572l0,.152c0,.265.007.531.007.8a1.138,1.138,0,0,0,1.126,1.148h.011A1.133,1.133,0,0,0,11.7,31.707v-.939c-.006-.512-.009-.976.017-1.445a10.37,10.37,0,0,1,.249-2.019,8.21,8.21,0,0,1,4.5-5.434,8.11,8.11,0,0,1,6.958.015,7.923,7.923,0,0,1,4.752,7.174c.029.517.024,1.053.019,1.571l0,.427c0,.142,0,.283,0,.424H28l.18.019a1.221,1.221,0,0,0,.657,1.217,1.108,1.108,0,0,0,1.064-.023,1.3,1.3,0,0,0,.591-1.116m-7.23-14.135A4.619,4.619,0,0,1,19.98,18.8h-.023a4.714,4.714,0,1,1-.013-9.427h.011a4.719,4.719,0,0,1,4.71,4.671h-.2l0,0h.2a4.784,4.784,0,0,1-1.4,3.4" fill="#1A73E8"/>
      <path id="Path_96714" data-name="Path 96714" d="M11.606.73A1.165,1.165,0,0,0,10.429.015H9.916C8.578.011,7.194.011,5.835.024A5.676,5.676,0,0,0,2.491,1.1,5.755,5.755,0,0,0,.017,5.885C-.007,7.056,0,8.23,0,9.366l0,.993a2.1,2.1,0,0,0,.079.545,1.1,1.1,0,0,0,.552.677,1.134,1.134,0,0,0,.888.06,1.205,1.205,0,0,0,.794-1.29c0-.448,0-.873,0-1.3.01-1.052.017-2.08-.011-3.092A3.562,3.562,0,0,1,5.969,2.327c.449.017.9.011,1.342.007h3.023a1.334,1.334,0,0,0,1.068-.4,1.082,1.082,0,0,0,.2-1.206" fill="#1A73E8"/>
      <path id="Path_96715" data-name="Path 96715" d="M37.694,11.009a1.119,1.119,0,0,0,1.037.7,1.81,1.81,0,0,0,.21-.018,1.154,1.154,0,0,0,.932-1.091c.011-.6.009-1.213.006-1.821V5.745A5.82,5.82,0,0,0,35.793.3,8.9,8.9,0,0,0,33.059.012h-3.6a1.328,1.328,0,0,0-1.068.523,1.118,1.118,0,0,0-.122,1.024,1.206,1.206,0,0,0,1.211.768h1.768c.847,0,1.7,0,2.542.006.049,0,.1,0,.147,0a4.475,4.475,0,0,1,.9.092,3.507,3.507,0,0,1,2.763,3.542c.006.693.006,1.395,0,2.095V10.25a2.321,2.321,0,0,0,.1.759" fill="#1A73E8"/>
      <path id="Path_96716" data-name="Path 96716" d="M.011,29.454v.706C0,31.317,0,32.479.021,33.619a10.431,10.431,0,0,0,.193,1.844,5.755,5.755,0,0,0,4.612,4.3c.7.083,1.435.11,2.185.13l.126,0c.278.008.556.017.833.03v-.052H9.2c.466,0,.939,0,1.408-.01a1.072,1.072,0,0,0,1.011-.733,1.089,1.089,0,0,0-.25-1.2,1.246,1.246,0,0,0-.993-.339l-.02-.2v0h-.005l.005.2h-.7c-1.248,0-2.5.006-3.746,0H5.838a3.49,3.49,0,0,1-3.3-2.359,4.509,4.509,0,0,1-.207-1.39c-.014-.852-.013-1.708-.012-2.566V29.455a1.281,1.281,0,0,0-.492-1.045,1.128,1.128,0,0,0-.649-.2,1.141,1.141,0,0,0-.369.06,1.169,1.169,0,0,0-.795,1.186" fill="#1A73E8"/>
      <path id="Path_96717" data-name="Path 96717" d="M28.209,38.883a1.117,1.117,0,0,0,1.111,1h.31c.712,0,1.435.01,2.164.01h0c.659,0,1.321,0,1.981-.017a8.841,8.841,0,0,0,1.768-.21,5.735,5.735,0,0,0,4.225-4.6c.082-.674.106-1.368.128-2.137l0-.067c.008-.29.016-.581.03-.87h-.049V30.04c0-.229,0-.461-.006-.689a1.17,1.17,0,0,0-.564-.992,1.122,1.122,0,0,0-1.093-.028,1.142,1.142,0,0,0-.627,1.123v.94c0,1.162.01,2.365-.015,3.546a4.236,4.236,0,0,1-.252,1.379A3.515,3.515,0,0,1,33.964,37.6c-.7.007-1.412,0-2.119.007H29.573a2.01,2.01,0,0,0-.656.085,1.1,1.1,0,0,0-.708,1.2" fill="#1A73E8"/>
    </g>
  </g>
</svg>
