<svg xmlns="http://www.w3.org/2000/svg" width="19.822" height="19.824" viewBox="0 0 19.822 19.824">
  <g id="Group_19632" data-name="Group 19632" transform="translate(0 0)">
    <g id="Group_19633" data-name="Group 19633">
      <path id="Path_76848" data-name="Path 76848" d="M19.289,8.621l0,0L11.2.534a1.825,1.825,0,0,0-2.581,0L.537,8.616l-.008.008a1.824,1.824,0,0,0,1.214,3.109l.056,0h.322v5.951a2.138,2.138,0,0,0,2.136,2.136H7.422A.581.581,0,0,0,8,19.242V14.576a.976.976,0,0,1,.975-.974h1.866a.976.976,0,0,1,.974.974v4.666a.581.581,0,0,0,.581.581h3.164A2.138,2.138,0,0,0,17.7,17.687V11.736H18a1.825,1.825,0,0,0,1.292-3.115m-.822,1.759a.659.659,0,0,1-.469.194h-.88a.581.581,0,0,0-.581.581v6.532a.975.975,0,0,1-.974.974H12.979V14.576a2.138,2.138,0,0,0-2.136-2.136H8.977a2.139,2.139,0,0,0-2.136,2.136v4.085H4.258a.975.975,0,0,1-.974-.974V11.155a.581.581,0,0,0-.581-.581H1.811a.663.663,0,0,1-.457-1.132h0L9.441,1.355a.663.663,0,0,1,.938,0l8.085,8.084,0,0a.665.665,0,0,1,0,.937" transform="translate(0.001 0.001)" fill="#fff"/>
    </g>
  </g>
</svg>
