<svg id="Group_32137" data-name="Group 32137" xmlns="http://www.w3.org/2000/svg" width="73.814" height="64.368" viewBox="0 0 73.814 64.368">
  <g id="Group_16374" data-name="Group 16374" transform="translate(0 0)">
    <path id="Path_64213" data-name="Path 64213" d="M46.477,48.879c2.081,1.122,4.271,2.264,6.564,3.457l.721.376-.074-.445c-.464-2.793-.9-5.435-1.4-8.067a2.906,2.906,0,0,1,1.038-2.93c1.976-1.894,4.014-3.891,6.05-5.885l.049-.047-.548-.085c-2.239-.349-4.353-.679-6.505-.9a4.662,4.662,0,0,1-4.6-3.328,33.179,33.179,0,0,0-1.851-3.8c-.441-.9-.864-1.748-1.3-2.619l-.653,1.329c-1.066,2.171-2.128,4.334-3.242,6.477a3.406,3.406,0,0,1-2.153,1.6c-1.328.259-2.622.438-3.873.612l-.162.022c-.52.072-1.04.144-1.561.223-.892.134-1.78.271-2.616.4l.377.411c1.634,1.785,3.286,3.592,4.971,5.335A3.474,3.474,0,0,1,36.88,44.73c-.3,1.294-.548,2.687-.732,4.113-.215,1.294-.42,2.551-.632,3.867l.441-.231c2.395-1.247,4.675-2.435,6.934-3.67a3.228,3.228,0,0,1,1.727-.485,3.383,3.383,0,0,1,1.86.554" transform="translate(14.387 11.655)" fill="#ff0089"/>
    <path id="Path_64214" data-name="Path 64214" d="M45.689,60.155q-17.084.007-34.167,0a43.625,43.625,0,0,1-4.628-.177,3.482,3.482,0,0,1-3.108-3.089,7.262,7.262,0,0,1-.1-1.185q-.009-18.171,0-36.343v-.609H5.136q26.284,0,52.567,0c.648,0,.648,0,.648.65q0,5.31,0,10.618L62,33q-.022-7.779-.044-15.56a28.644,28.644,0,0,0-.1-3.4A7.463,7.463,0,0,0,55.419,7.8c-1.111-.1-2.236-.071-3.356-.077-.348,0-.46-.122-.454-.466q.02-1.26-.015-2.52A4.892,4.892,0,0,0,47.81.109a4.62,4.62,0,0,0-5.266,3.74,23.139,23.139,0,0,0-.175,3.344c-.009.342-.1.458-.449.455-1.739-.013-3.478-.007-5.217.006-.292,0-.351-.125-.408-.383q-.5-2.257-1.057-4.505A3.486,3.486,0,0,0,34.076.982a4.211,4.211,0,0,0-6.007.612,6.087,6.087,0,0,0-.906,1.993c-.27,1.124-.389,2.286-.547,3.437-.047.36-.128.538-.554.532-1.857-.025-3.714-.018-5.569,0-.318,0-.4-.1-.395-.4.027-.9.066-1.8.027-2.694A4.735,4.735,0,0,0,15.91.046a4.58,4.58,0,0,0-4.772,3.891c-.164,1.133-.167,2.29-.234,3.435-.013.228-.022.393-.333.382-.855-.034-1.711-.01-2.563-.059A7.765,7.765,0,0,0,.247,13.37a13.657,13.657,0,0,0-.24,3.555q0,19.65.013,39.3a7.356,7.356,0,0,0,.289,2,7.64,7.64,0,0,0,6.767,5.55c1.039.087,2.09.074,3.135.075q10.321.009,20.646,0l14.005,0ZM44.358,3.782A2.375,2.375,0,0,1,46.9,1.857a2.57,2.57,0,0,1,2.6,1.468,3.776,3.776,0,0,1,.348,1.487c.043,1.59.016,3.182.016,4.772h0c0,1.606.028,3.213-.009,4.818a2.814,2.814,0,0,1-2.678,2.9,2.908,2.908,0,0,1-2.983-3.026c-.013-.809-.009-1.62-.01-2.43-.006-2.181-.022-4.362-.007-6.542a6.153,6.153,0,0,1,.184-1.524M28.452,4.83A2.818,2.818,0,0,1,32.54,2.053,2.789,2.789,0,0,1,34.1,4.687q.08,4.883,0,9.768a2.844,2.844,0,0,1-4.737,2.134,2.8,2.8,0,0,1-.921-2.212c-.016-1.592,0-3.183,0-4.773s-.022-3.183.009-4.773m-15.765.337a3.386,3.386,0,0,1,.92-2.629,2.772,2.772,0,0,1,3.074-.566A2.727,2.727,0,0,1,18.388,4.4a35.639,35.639,0,0,1,.022,5.51c-.027,1.515.01,3.031-.027,4.545a2.742,2.742,0,0,1-2.778,2.824A2.971,2.971,0,0,1,12.711,14.4c-.029-1.62-.006-3.239-.006-4.86h-.018c0-1.458,0-2.917,0-4.374" transform="translate(0 0)" fill="#1d2465"/>
  </g>
</svg>
