<svg id="Group_32136" data-name="Group 32136" xmlns="http://www.w3.org/2000/svg" width="57.715" height="56.387" viewBox="0 0 57.715 56.387">
  <g id="Group_18427" data-name="Group 18427" transform="translate(0 0)">
    <g id="Group_17341" data-name="Group 17341" transform="translate(0 0)">
      <g id="Group_16371" data-name="Group 16371">
        <g id="Group_16372" data-name="Group 16372">
          <path id="Path_64204" data-name="Path 64204" d="M9.074,33.443l19,0V26.731q.009-5.452,0-10.9l-19,0q-.009,8.807,0,17.607" transform="translate(-1.336 0.53)" fill="#ff0089"/>
          <path id="Path_64206" data-name="Path 64206" d="M56.152,4.613a1.7,1.7,0,0,0-1.838,1.557c-.035.506-.032,1.018-.03,1.511V41.107c0,.432,0,.864,0,1.295.006,1.24.011,2.523-.038,3.779a6.612,6.612,0,0,1-1.728,4.2,7.355,7.355,0,0,1-5.829,2.582q-17.792-.007-35.6,0a7.453,7.453,0,0,1-3.673-.819,7.271,7.271,0,0,1-3.68-4.429,11.408,11.408,0,0,1-.3-3.238V3.888c0-.2,0-.4,0-.427a1.975,1.975,0,0,1,.431-.022H45.857c.067,0,.141,0,.215-.01a2.958,2.958,0,0,1,.318-.011,1.145,1.145,0,0,1,.007.339c0,.076-.01.15-.01.217V40.928a4.093,4.093,0,0,0,.057.806,1.662,1.662,0,0,0,.235.578,1.682,1.682,0,0,0,2.331.5,1.96,1.96,0,0,0,.822-1.831V16.126q0-7.019.011-14.016a1.768,1.768,0,0,0,0-.292A1.949,1.949,0,0,0,47.773,0Q39.091.033,30.407.021l-5.513,0-23.01,0a2.23,2.23,0,0,0-.48.03,1.784,1.784,0,0,0-1.4,1.863V45.363a11.523,11.523,0,0,0,.8,4.262,10.793,10.793,0,0,0,9.9,6.761H47.319a3.7,3.7,0,0,0,.375-.015,10.72,10.72,0,0,0,8.077-4.642,11.014,11.014,0,0,0,1.94-6.589V6.373a1.7,1.7,0,0,0-1.558-1.759" transform="translate(-0.001 0)" fill="#1e2663"/>
          <path id="Path_64207" data-name="Path 64207" d="M7.156,34.752a6.68,6.68,0,0,0,.718.04H39a6.956,6.956,0,0,0,.741-.042,1.7,1.7,0,0,0,.014-3.4,6.3,6.3,0,0,0-.723-.032H7.746a4.589,4.589,0,0,0-.589.032,1.788,1.788,0,0,0-1.566,1.695,1.753,1.753,0,0,0,1.565,1.7" transform="translate(1.329 7.449)" fill="#1e2663"/>
          <path id="Path_64208" data-name="Path 64208" d="M39.286,6.912l-30.951,0H8.094c-.287,0-.574,0-.868.015a1.813,1.813,0,0,0-1.582,1.3,1.7,1.7,0,0,0,.677,1.795,2.251,2.251,0,0,0,1.223.37c.063,0,.125,0,.187-.009H39.1a5.272,5.272,0,0,0,.763-.051,1.689,1.689,0,0,0,1.149-2.616,1.905,1.905,0,0,0-1.723-.8" transform="translate(1.33 1.642)" fill="#1e2663"/>
          <path id="Path_64209" data-name="Path 64209" d="M11.328,40.891a7.475,7.475,0,0,0,.749.035H38c.25,0,.5-.014.75-.038a1.766,1.766,0,0,0,1.567-1.549,1.729,1.729,0,0,0-1.348-1.8,4.357,4.357,0,0,0-.932-.078l-26.082,0a4.758,4.758,0,0,0-.65.031,1.8,1.8,0,0,0-1.58,1.727,1.77,1.77,0,0,0,1.6,1.677" transform="translate(2.314 8.909)" fill="#1e2663"/>
          <path id="Path_64210" data-name="Path 64210" d="M37.782,15.015a1.742,1.742,0,0,0-1.888-1.531H31.067v0H27.124c-.587,0-1.192,0-1.794.037a1.743,1.743,0,0,0-1.606,1.688,1.782,1.782,0,0,0,1.609,1.714c.257.025.52.04.774.04h9.667a3.861,3.861,0,0,0,.626-.052,1.762,1.762,0,0,0,1.385-1.821Z" transform="translate(5.643 3.205)" fill="#1e2663"/>
          <path id="Path_64211" data-name="Path 64211" d="M35.95,18.9H25.928a6.011,6.011,0,0,0-.739.046,1.787,1.787,0,0,0-1.44,1.414,1.762,1.762,0,0,0-.017.212,1.725,1.725,0,0,0,1.69,1.763c1.242.019,2.487.015,3.731.01l4.773.02h.543c.579,0,1.169,0,1.761-.03a1.744,1.744,0,0,0,1.551-1.911A1.71,1.71,0,0,0,35.95,18.9m-5.214,3.194h0v0Z" transform="translate(5.644 4.494)" fill="#1e2663"/>
          <path id="Path_64212" data-name="Path 64212" d="M37.794,26.392a1.714,1.714,0,0,0-1.69-1.737c-1.18-.006-2.359,0-3.539,0l-1.625,0,0-.009h-4.56c-.329,0-.659,0-.989.017a1.814,1.814,0,0,0-1.614,1.3,1.637,1.637,0,0,0,.878,1.882A2.732,2.732,0,0,0,25.8,28.1h.022q2.44.013,4.877.011h5.039a3.748,3.748,0,0,0,.621-.052,1.712,1.712,0,0,0,1.433-1.664" transform="translate(5.641 5.863)" fill="#1e2663"/>
        </g>
      </g>
    </g>
  </g>
</svg>
