<svg id="Group_32135" data-name="Group 32135" xmlns="http://www.w3.org/2000/svg" width="89.23" height="52.967" viewBox="0 0 89.23 52.967">
  <g id="Group_18426" data-name="Group 18426" transform="translate(0 0)">
    <g id="Group_17388" data-name="Group 17388" transform="translate(0 0)">
      <path id="Path_64191" data-name="Path 64191" d="M62.375,5.007,49.554,15.92V29.071L62.375,39.984Z" transform="translate(19.742 2.871)" fill="#ff0089"/>
      <g id="Group_16366" data-name="Group 16366">
        <g id="Group_16367" data-name="Group 16367">
          <path id="Path_64192" data-name="Path 64192" d="M65.635,49.905a6.7,6.7,0,0,1-4.187-1.443L47.329,37.288a5.831,5.831,0,0,1-2.275-4.578V17.215a5.828,5.828,0,0,1,2.275-4.577L61.454,1.46A6.746,6.746,0,0,1,65.644.023h.021a6.656,6.656,0,0,1,4.559,1.769A5.752,5.752,0,0,1,72.1,6.041v37.85A5.755,5.755,0,0,1,70.552,47.8a6.592,6.592,0,0,1-4.405,2.083c-.171.013-.341.019-.512.019m.011-45.473a1.79,1.79,0,0,0-1.114.382L50.4,16a1.55,1.55,0,0,0-.6,1.217v15.5a1.553,1.553,0,0,0,.6,1.218L64.527,45.11a1.823,1.823,0,0,0,1.252.381,1.746,1.746,0,0,0,1.17-.553,1.525,1.525,0,0,0,.411-1.041V6.035a1.533,1.533,0,0,0-.5-1.135,1.77,1.77,0,0,0-1.211-.469Z" transform="translate(17.129 -0.023)" fill="#1e2663"/>
          <path id="Path_64193" data-name="Path 64193" d="M46.461,42.974H16.969A10.982,10.982,0,0,1,6,32.005V10.969A10.982,10.982,0,0,1,16.969,0H46.461A10.981,10.981,0,0,1,57.428,10.969V32.005A10.981,10.981,0,0,1,46.461,42.974M16.969,3.522a7.455,7.455,0,0,0-7.447,7.447V32.005a7.455,7.455,0,0,0,7.447,7.446H46.461a7.454,7.454,0,0,0,7.445-7.446V10.969a7.454,7.454,0,0,0-7.445-7.447Z" transform="translate(1.241 2.582)" fill="#1e2663"/>
          <path id="Path_64194" data-name="Path 64194" d="M45.445,41.728a11.832,11.832,0,0,1-3.56.547H15.81A11.871,11.871,0,0,1,3.952,30.417V19.75H0V30.417a15.827,15.827,0,0,0,15.81,15.81H41.885a15.738,15.738,0,0,0,3.56-.419Z" transform="translate(0 6.74)" fill="#ff0089"/>
        </g>
      </g>
    </g>
  </g>
</svg>
