<svg id="Group_32133" data-name="Group 32133" xmlns="http://www.w3.org/2000/svg" width="51.617" height="76.954" viewBox="0 0 51.617 76.954">
  <g id="Group_17347" data-name="Group 17347" transform="translate(0 0)">
    <g id="Group_16380" data-name="Group 16380" transform="translate(0)">
      <path id="Path_64218" data-name="Path 64218" d="M18.639,37.708a3.762,3.762,0,1,0-3.83-3.761,3.8,3.8,0,0,0,3.83,3.761" transform="translate(6.882 14.029)" fill="#ff0089"/>
      <path id="Path_64219" data-name="Path 64219" d="M20.034,43.5a8.156,8.156,0,1,1,8.225-8.157A8.2,8.2,0,0,1,20.034,43.5m0-13.382a5.227,5.227,0,1,0,5.3,5.225,5.266,5.266,0,0,0-5.3-5.225" transform="translate(5.488 12.634)" fill="#1e2663"/>
      <path id="Path_64220" data-name="Path 64220" d="M10.806,46.07l0,7.475H30.188V46.174a5.126,5.126,0,0,0-1.544-3.7,5.323,5.323,0,0,0-3.408-1.564c-.157.125-.406.341-.8.713a5.831,5.831,0,0,1-7.828.029c-.419-.385-.681-.611-.844-.743a5.327,5.327,0,0,0-4.957,5.157" transform="translate(5.022 19.014)" fill="#ff0089"/>
      <path id="Path_64221" data-name="Path 64221" d="M33.188,59.339H10.594A2.793,2.793,0,0,1,7.805,56.55V47.572a9.732,9.732,0,0,1,9.77-9.67c1.188,0,1.985.614,3.4,1.916a1.412,1.412,0,0,0,1.865-.01c1.217-1.145,2.121-1.906,3.384-1.906a9.69,9.69,0,0,1,6.9,2.843,9.466,9.466,0,0,1,2.856,6.827V56.55a2.792,2.792,0,0,1-2.789,2.789M10.74,56.409H33.047V47.574a6.575,6.575,0,0,0-1.985-4.744,6.791,6.791,0,0,0-4.841-2,5.405,5.405,0,0,0-1.4,1.126,4.348,4.348,0,0,1-5.834.018,6.554,6.554,0,0,0-1.418-1.145,6.8,6.8,0,0,0-6.839,6.742Z" transform="translate(3.627 17.615)" fill="#1e2663"/>
      <path id="Path_64222" data-name="Path 64222" d="M46.737,33.587A1.458,1.458,0,0,0,45.3,32.349H40.742V25.293a9.777,9.777,0,0,0-9.766-9.764H28.352a7.976,7.976,0,1,0-5.086,0H20.641a9.774,9.774,0,0,0-9.764,9.764v7.056H6.314A1.459,1.459,0,0,0,4.88,33.587L.015,66.69a1.451,1.451,0,0,0,1.433,1.658H8.8v-2.9H3.124l4.44-30.208h36.49l4.44,30.208H42.242v2.9h7.927a1.454,1.454,0,0,0,1.434-1.66ZM21.779,31.129l.4,1.22H18.626V26.768a1.449,1.449,0,0,0-2.9,0v5.581H13.773V25.293a6.876,6.876,0,0,1,6.868-6.868h1.627l.5,2.361-1.049,9.741a1.48,1.48,0,0,0,.064.6M20.729,7.974a5.08,5.08,0,1,1,5.08,5.081,5.085,5.085,0,0,1-5.08-5.081M26.39,18.425l-.176.839H25.4l-.176-.839Zm0,13.924H25.226l-.6-1.825.9-8.364h.56l.9,8.364Zm11.453,0H35.888V26.768a1.448,1.448,0,0,0-2.9,0v5.581H29.439l.4-1.22a1.44,1.44,0,0,0,.066-.6l-1.047-9.739.5-2.36h1.627a6.876,6.876,0,0,1,6.868,6.868Z" transform="translate(0)" fill="#1e2663"/>
    </g>
  </g>
</svg>
