<svg id="Group_32134" data-name="Group 32134" xmlns="http://www.w3.org/2000/svg" width="56.279" height="58.041" viewBox="0 0 56.279 58.041">
  <g id="Group_18425" data-name="Group 18425" transform="translate(0 0)">
    <g id="Group_17386" data-name="Group 17386" transform="translate(0 0)">
      <g id="Group_17385" data-name="Group 17385">
        <g id="Group_17387" data-name="Group 17387">
          <path id="Path_65804" data-name="Path 65804" d="M39.706,29.133A12.02,12.02,0,0,0,42.34,21.67c0-6.838-5.83-12.395-13.114-12.63-.161-.005-.317-.023-.477-.023-.135,0-.264.016-.4.019-7.321.2-13.193,5.77-13.193,12.634,0,6.727,5.642,12.212,12.756,12.615.277.016.552.039.834.039.307,0,.612-.023.913-.043a14.09,14.09,0,0,0,7.749-2.862l12.1,12.1L51.8,41.226ZM27.5,27.382l-5.212-5.31,2.774-2.723,2.517,2.567,5.783-5.553,2.693,2.8Z" transform="translate(4.48 2.665)" fill="#ff0089"/>
          <path id="Path_65805" data-name="Path 65805" d="M6.348,48.845H3.628V7.128H6.348V3.5H3.113A3.117,3.117,0,0,0,0,6.612V49.359a3.117,3.117,0,0,0,3.113,3.113H6.348Z" transform="translate(0 1.034)" fill="#1d2465"/>
          <path id="Path_65806" data-name="Path 65806" d="M47.958,48.552v5.861H10.129V3.628H47.958v27.45l3.629,4.065V3.112A3.117,3.117,0,0,0,48.472,0H9.613A3.117,3.117,0,0,0,6.5,3.112V54.928a3.117,3.117,0,0,0,3.113,3.113H48.472a3.117,3.117,0,0,0,3.115-3.113V49.694Z" transform="translate(1.921 0)" fill="#1d2465"/>
        </g>
      </g>
    </g>
  </g>
</svg>
