<svg id="Group_32132" data-name="Group 32132" xmlns="http://www.w3.org/2000/svg" width="58.02" height="57.995" viewBox="0 0 58.02 57.995">
  <g id="Group_17348" data-name="Group 17348" transform="translate(0 0)">
    <g id="Group_17344" data-name="Group 17344" transform="translate(0 0)">
      <g id="Group_16362" data-name="Group 16362">
        <path id="Path_64183" data-name="Path 64183" d="M8.857,33.264a5.336,5.336,0,0,0-5.205,5.431,5.366,5.366,0,0,0,5.339,5.25c5.177.027,10.4.022,15.451.015H50.723a10.432,10.432,0,0,1,.031-10.7c-11.68-.022-26.765-.038-41.9,0" transform="translate(1.024 9.325)" fill="#ff0089"/>
        <path id="Path_64184" data-name="Path 64184" d="M55.111,49.694c-.183,0-.364-.009-.534-.019s-.26-.017-.36-.018H25.47c-5.062.006-10.293.012-15.441-.017H10A10.052,10.052,0,0,1,0,39.8,10.013,10.013,0,0,1,9.842,29.613c15.707-.04,31.582-.02,45.043.006.916,0,2.515.488,2.918,1.783l.047.2a4.116,4.116,0,0,1-.312,2.345l-.046.132a3.211,3.211,0,0,1-.789,1.181l.008-.006a.7.7,0,0,1-.063.081c-2.288,3.092-2.244,5.756.179,8.87L54.5,46.017c-3.25-4.176-3.314-8.254-.195-12.466.118-.151.213-.261.312-.368l.22-.417a1.412,1.412,0,0,0,.074-.2l-.04,0c-13.455-.024-29.33-.045-45-.006a7.069,7.069,0,0,0-6.926,7.189,7.1,7.1,0,0,0,7.069,6.95h.02c5.149.029,10.372.022,15.433.015H54.2a4.585,4.585,0,0,1,.581.026l.188.009a4.71,4.71,0,0,0-.466-.718l2.324-1.809a4.37,4.37,0,0,1,1.131,3.422,2.629,2.629,0,0,1-2.845,2.054" transform="translate(0 8.301)" fill="#1e2663"/>
        <path id="Path_64185" data-name="Path 64185" d="M53.913,21.629v0A8.56,8.56,0,0,0,47.8,19.072c-5.634-.024-11.361-.019-16.9-.015h-8.13V17.146H53.792c.083,0,.169.006.256.013a1.7,1.7,0,0,0,.663-.038c.086-.028.178-.055.274-.083.512-.151,1.037-.306,1.177-.679a2.264,2.264,0,0,0-.351-1.7,4.966,4.966,0,0,0-.64-.9,6.532,6.532,0,0,1-.452-.576c-1.592-2.378-1.984-4.525-1.2-6.568a15.051,15.051,0,0,1,1.338-2.477c.316-.512.64-1.031.925-1.567.137-.256.566-1.152.3-1.718-.237-.489-1.082-.73-1.544-.8A9.848,9.848,0,0,0,52.863.018c-.232.006-.465.014-.7.014H40.3q-15.08,0-30.153,0a8.564,8.564,0,1,0-.8,17.109c.239.012.48.013.721,0h.885v1.912H8.235c-1.716,0-3.491-.012-5.237.032-.462.012-1.362.268-1.515.736a2.748,2.748,0,0,0,.241,1.644l.045.128a1.894,1.894,0,0,0,.437.631,3.345,3.345,0,0,1,.232.273c2.655,3.621,2.6,6.964-.175,10.5-.082.1-.169.207-.256.31a5.65,5.65,0,0,0-.546.722A1.442,1.442,0,0,0,1.3,35.407a1.434,1.434,0,0,0,1.16.743,5.025,5.025,0,0,0,.821.028H36.814c1.105,0,2.194,0,3.29.008,1.062,0,2.139.006,3.221.006,1.57,0,3.153-.006,4.72-.032a8.549,8.549,0,0,0,5.869-14.53M5.383,12.4a5.446,5.446,0,0,1-1-5.971A5.587,5.587,0,0,1,9.253,2.82,4.043,4.043,0,0,1,9.719,2.8H52.165c-2.382,5.036-2.382,5.762-.095,11.525H22.715V9.275c-.008-1.639-.4-2.04-2.022-2.049-2.288-.006-5.006-.012-7.8,0-1.421.008-1.856.443-1.864,1.864-.006,1.237,0,2.474,0,3.737l-.008.01v1.485A5.954,5.954,0,0,1,5.383,12.4M20.1,9.823v14.42c-.768-.59-1.476-1.082-2.119-1.648a1.509,1.509,0,0,0-2.13-.119,1.3,1.3,0,0,0-.138.141c-.612.538-1.281,1.013-2.049,1.612l0-14.406ZM52.814,30.5A5.5,5.5,0,0,1,47.8,33.4q-17.066.015-34.134.008H5.786c-.117,0-.233-.009-.374-.019,2.018-3.6,2.633-6.7.019-11.476H11.02c0,.364,0,.729-.008,1.094-.01,1.1-.019,2.236.033,3.355a3.539,3.539,0,0,0,.353,1.193c.07.165.141.329.2.494l.072.2.2-.081c.164-.059.333-.108.5-.158a3.752,3.752,0,0,0,1.138-.469c.831-.584,1.616-1.21,2.448-1.872.292-.233.589-.47.9-.708.286.224.569.449.852.674.8.64,1.631,1.3,2.483,1.894.437.3,1.3.756,1.785.512.5-.256.684-1.2.709-1.724.055-1.095.045-2.214.035-3.295,0-.384-.006-.761-.008-1.144l.042-.012a1.057,1.057,0,0,1,.228-.045q3.431,0,6.861-.009c5.951-.01,12.1-.022,18.15.027a5.579,5.579,0,0,1,4.843,2.875,5.72,5.72,0,0,1-.027,5.778" transform="translate(0.333 -0.001)" fill="#1e2663"/>
        <path id="Path_64186" data-name="Path 64186" d="M17.625,22.574l-.346-.266c-.241-.186-.475-.361-.7-.533-.5-.376-.978-.731-1.425-1.124a1.3,1.3,0,0,0-1.839-.127,1.232,1.232,0,0,0-.146.149c-.423.371-.873.715-1.351,1.079-.225.172-.46.35-.7.54l-.347.271V7.5h6.861Zm-3.45-2.8a1.915,1.915,0,0,1,1.257.554c.434.384.9.732,1.4,1.1l.365.273V7.929h-6V21.688l.361-.275c.471-.36.917-.7,1.328-1.06a1.974,1.974,0,0,1,1.293-.576" transform="translate(3.02 2.104)" fill="#1e2663"/>
      </g>
    </g>
  </g>
</svg>
