<svg id="Group_32131" data-name="Group 32131" xmlns="http://www.w3.org/2000/svg" width="55.686" height="50.293" viewBox="0 0 55.686 50.293">
  <g id="Group_17332" data-name="Group 17332" transform="translate(0 0)">
    <g id="Group_17333" data-name="Group 17333" transform="translate(0 0)">
      <path id="Subtraction_48" data-name="Subtraction 48" d="M14.71,21.061a1.182,1.182,0,0,1-.852-.4c-.172-.183-.352-.38-.553-.6l-.045-.05c-.225-.248-.455-.5-.693-.741a.62.62,0,0,0-.381-.131c-.4-.01-.8-.014-1.219-.014-.389,0-.785,0-1.209.012a.565.565,0,0,0-.348.12c-.262.26-.515.537-.76.8l-.018.019-.006.006c-.136.149-.291.319-.442.48a1.292,1.292,0,0,1-.935.484,1.408,1.408,0,0,1-.825-.317L3,18.235a1.237,1.237,0,0,1-.411-1.893l1.328-2.326-.737-.623,0,0-.34-.373.242-.131-.258.057c-.051-.229-.114-.514-.2-.787a.547.547,0,0,0-.22-.289c-.359-.185-.743-.357-1.081-.51l-.54-.248a1.172,1.172,0,0,1-.7-1.545c.509-1.573.957-2.94,1.409-4.3A1.12,1.12,0,0,1,2.6,4.421a1.678,1.678,0,0,1,.311.031c.17.032.343.068.51.1h.007l.051.01.148.03c.386.082.734.155,1.077.215l.025,0a.511.511,0,0,0,.261-.091c.79-.558,1.448-1.039,2.074-1.515a.633.633,0,0,0,.227-.337c.078-.45.126-.932.165-1.319l.024-.238A1.248,1.248,0,0,1,8.915,0c1.229.011,2.435.014,3.565.017l.673,0A1.178,1.178,0,0,1,14.5,1.207c.089.715.141,1.2.181,1.685.011.143.061.217.222.33.754.522,1.418,1.007,2.029,1.483a.472.472,0,0,0,.3.129.5.5,0,0,0,.113-.014c.651-.149,1.3-.269,1.732-.346a1.815,1.815,0,0,1,.321-.031,1.131,1.131,0,0,1,1.125.9c.42,1.293.871,2.684,1.324,4.105a1.217,1.217,0,0,1-.774,1.745l-.454.206,0,0c-.332.151-.676.308-1.02.454a.416.416,0,0,0-.265.332c-.206.712-.458,1.472-.77,2.321a.424.424,0,0,0,.015.427c.3.516.591,1.041.869,1.548a1.173,1.173,0,0,1-.345,1.673c-1.17.852-2.4,1.745-3.67,2.655A1.223,1.223,0,0,1,14.71,21.061Zm-3.723-14a3.669,3.669,0,0,0,0,7.337H11a3.649,3.649,0,0,0,2.6-1.1,3.6,3.6,0,0,0,1.051-2.574,3.7,3.7,0,0,0-1.08-2.6A3.6,3.6,0,0,0,11,7.059Z" transform="translate(33.229 25.406)" fill="#ff0089" stroke="rgba(0,0,0,0)" stroke-width="1"/>
      <path id="Path_65231" data-name="Path 65231" d="M4.037,2.349c-5.046,4.062-5.411,12.012-.815,17.722l9.67,12.01,18.3-14.733L21.523,5.336C16.927-.373,9.083-1.713,4.037,2.349m9.051,25.479L5.418,18.3C1.925,13.964,2.2,7.921,6.038,4.834s9.8-2.068,13.289,2.27L27,16.631Z" transform="translate(0)" fill="#1e2663"/>
      <path id="Path_65233" data-name="Path 65233" d="M35.407,45.739A9.822,9.822,0,0,1,24.8,42.294l-7.477-9.286,13.909-11.2,3.318,4.122,2.2-1.758L31.476,17.62l-18.3,14.733L22.6,44.063c3.783,4.7,9.89,6.288,14.738,4.23Z" transform="translate(0.835 1.117)" fill="#1e2663"/>
    </g>
  </g>
</svg>
