<svg xmlns="http://www.w3.org/2000/svg" xmlns:xlink="http://www.w3.org/1999/xlink" width="991" height="658" viewBox="0 0 991 658">
  <defs>
    <clipPath id="clip-path">
      <rect id="Rectangle_13250" data-name="Rectangle 13250" width="991" height="658" transform="translate(926 1014)" fill="#1f2552" stroke="#707070" stroke-width="1"/>
    </clipPath>
    <clipPath id="clip-path-2">
      <rect id="Rectangle_13249" data-name="Rectangle 13249" width="1458" height="1159" transform="translate(360 527.137)" fill="#c6daf5" stroke="#c5daf6" stroke-width="1"/>
    </clipPath>
    <clipPath id="clip-path-3">
      <path id="Path_68079" data-name="Path 68079" d="M0,0,2001.234-792.953,1710.044,950.66-291.191,1743.613Z" transform="translate(0 0)" fill="#c6daf5" stroke="#c5daf6" stroke-width="4"/>
    </clipPath>
    <clipPath id="clip-path-4">
      <path id="Path_68078" data-name="Path 68078" d="M0,0,2073.943-821.763,1579.085,2141.384-494.858,2963.147Z" fill="#c6daf5" stroke="#c5daf6" stroke-width="4"/>
    </clipPath>
  </defs>
  <g id="Mask_Group_7386" data-name="Mask Group 7386" transform="translate(-926 -1014)" opacity="0.342" clip-path="url(#clip-path)">
    <g id="Mask_Group_7385" data-name="Mask Group 7385" transform="translate(534 17.863)" opacity="0.189" clip-path="url(#clip-path-2)">
      <g id="Mask_Group_7384" data-name="Mask Group 7384" transform="matrix(0.966, -0.259, 0.259, 0.966, -312.047, 1324.096)" opacity="0.674" clip-path="url(#clip-path-3)">
        <g id="Group_18270" data-name="Group 18270" transform="translate(171.147 699.205)">
          <g id="Group_18269" data-name="Group 18269" transform="translate(0 0)" clip-path="url(#clip-path-4)">
            <path id="Path_68032" data-name="Path 68032" d="M280.418,175.371c-42.143-26.454-86.1-30.02-134.364-10.894s-99.718,60.493-157.3,126.462l.032-11.958C47.156,212.092,99.351,170.146,148.35,150.731s93.592-15.82,136.314,11.012Z" transform="translate(998.677 2084.88)" fill="#c6daf5" stroke="#c5daf6" stroke-width="4"/>
            <path id="Path_68033" data-name="Path 68033" d="M280.422,175.371c-42.147-26.453-86.1-30.02-134.364-10.894s-99.722,60.494-157.3,126.462l.028-11.956C47.156,212.093,99.355,170.146,148.354,150.731s93.592-15.82,136.314,11.012Z" transform="translate(-184.642 2553.747)" fill="#c6daf5" stroke="#c5daf6" stroke-width="4"/>
            <path id="Path_68034" data-name="Path 68034" d="M428.287,364.809C380.38,309.68,319.121,258.182,227.968,294.3S48.454,441.2-25.961,544.8l-.767-10.957C48.467,429.155,137.8,317.19,230.263,280.555s154.41,15.385,202.818,71.093Z" transform="translate(932.16 1862.865)" fill="#c6daf5" stroke="#c5daf6" stroke-width="4"/>
            <path id="Path_68035" data-name="Path 68035" d="M428.283,364.808c-47.9-55.131-109.169-106.626-200.319-70.51S48.446,441.2-25.965,544.8l-.763-10.959C48.46,429.155,137.8,317.19,230.259,280.554s154.406,15.386,202.814,71.1Z" transform="translate(-251.148 2331.732)" fill="#c6daf5" stroke="#c5daf6" stroke-width="4"/>
            <path id="Path_68036" data-name="Path 68036" d="M547.4,23.25C479.836-65.94,409.968-158.163,295.236-112.7S67.748,97.343-41.3,256.513l-.975-10.661c109.87-160.369,223.485-326.21,339.8-372.3s186.719,46.839,254.8,136.7Z" transform="translate(880.289 2177.667)" fill="#c6daf5" stroke="#c5daf6" stroke-width="4"/>
            <path id="Path_68037" data-name="Path 68037" d="M547.4,23.254c-67.581-89.2-137.445-181.41-252.169-135.953S67.745,97.335-41.3,256.5l-.977-10.652c109.866-160.368,223.48-326.2,339.8-372.287S484.23-79.617,552.309,10.235Z" transform="translate(-303.018 2646.531)" fill="#c6daf5" stroke="#c5daf6" stroke-width="4"/>
            <path id="Path_68038" data-name="Path 68038" d="M666.485,60.341c-17.812-20.5-35.179-43.426-51.975-65.6C546.939-94.456,477.07-186.7,362.33-141.233S134.841,68.822,25.793,228c-27.112,39.571-55.145,80.49-82.814,119.016l-.763-10.959c27.557-38.369,55.534-79.216,82.6-118.717C134.691,56.953,248.307-108.888,364.626-154.977S551.355-108.134,619.432-18.256C636.2,3.877,653.54,26.767,671.276,47.181Z" transform="translate(828.594 2113.988)" fill="#c6daf5" stroke="#c5daf6" stroke-width="4"/>
            <path id="Path_68039" data-name="Path 68039" d="M666.493,60.337c-17.811-20.5-35.189-43.431-51.988-65.612C546.937-94.464,477.074-186.7,362.342-141.238S134.849,68.819,25.806,227.987c-27.117,39.581-55.154,80.5-82.823,119.028l-.767-10.957c27.564-38.372,55.546-79.22,82.61-118.721C134.7,56.948,248.318-108.893,364.638-154.983s186.715,46.84,254.8,136.708c16.766,22.142,34.11,45.031,51.852,65.451Z" transform="translate(-354.733 2582.86)" fill="#c6daf5" stroke="#c5daf6" stroke-width="4"/>
            <path id="Path_68040" data-name="Path 68040" d="M814.237,85.865C769.893,58.016,732.208,8.284,695.766-39.828,628.2-129.025,558.323-221.247,443.58-175.782S216.093,34.254,107.047,193.424C48.228,279.29-12.6,368.063-73.2,437.495l.028-11.956c60.094-68.854,120.663-157.27,179.236-242.764,109.876-160.38,223.489-326.212,339.808-372.3S632.609-142.694,700.691-52.818C736.983-4.912,774.507,44.619,818.482,72.238Z" transform="translate(762.74 2056.355)" fill="#c6daf5" stroke="#c5daf6" stroke-width="4"/>
            <path id="Path_68041" data-name="Path 68041" d="M813.217,86.3C768.865,58.453,731.178,8.713,694.729-39.4,627.16-128.585,557.292-220.809,442.56-175.348S215.077,34.686,106.031,193.856C47.6,279.151-12.83,367.355-73.025,436.558l.016-11.952c59.7-68.628,119.867-156.458,178.061-241.408C214.922,22.828,328.536-143,444.855-189.093s186.719,46.839,254.8,136.7c36.3,47.9,73.824,97.45,117.8,125.067Z" transform="translate(-419.552 2524.787)" fill="#c6daf5" stroke="#c5daf6" stroke-width="4"/>
            <path id="Path_68042" data-name="Path 68042" d="M949.527,1333.072c-116.323,46.091-186.719-46.839-254.8-136.7-67.565-89.191-137.432-181.424-252.167-135.962s-227.488,210.046-336.53,369.214c-58.436,85.294-118.861,173.5-179.054,242.709l.017-11.961c59.691-68.627,119.863-156.457,178.056-241.4,109.872-160.379,223.487-326.22,339.806-372.309s186.723,46.837,254.8,136.706c67.566,89.182,137.433,181.414,252.169,135.953s227.493-210.056,336.534-369.216c109.872-160.379,223.487-326.22,339.806-372.309l-2.3,13.745c-114.732,45.461-227.49,210.055-336.536,369.225-109.87,160.37-223.481,326.209-339.8,372.3" transform="translate(-404.152 1196.818)" fill="#c6daf5" stroke="#c5daf6" stroke-width="4"/>
            <path id="Path_68043" data-name="Path 68043" d="M949.525,1333.09c-116.323,46.091-186.719-46.839-254.8-136.706-67.565-89.191-137.431-181.424-252.167-135.962S215.07,1270.475,106.024,1429.645c-58.436,85.294-118.861,173.5-179.054,242.709l.018-11.961c59.691-68.627,119.865-156.466,178.056-241.4,109.873-160.388,223.488-326.229,339.808-372.318s186.723,46.837,254.8,136.715c67.566,89.182,137.433,181.415,252.169,135.953s227.493-210.056,336.534-369.216c109.873-160.388,223.488-326.229,339.808-372.318l-2.3,13.745c-114.732,45.461-227.49,210.055-336.536,369.225C1179.459,1121.16,1065.848,1287,949.525,1333.09" transform="translate(-388.754 1104.609)" fill="#c6daf5" stroke="#c5daf6" stroke-width="4"/>
            <path id="Path_68044" data-name="Path 68044" d="M949.527,1333.072c-116.323,46.091-186.719-46.839-254.8-136.706-67.566-89.182-137.433-181.414-252.169-135.952S215.072,1270.457,106.03,1429.625c-58.438,85.287-118.863,173.491-179.056,242.7l.018-11.961c59.69-68.617,119.863-156.457,178.06-241.4,109.872-160.379,223.485-326.21,339.8-372.3s186.723,46.837,254.8,136.7c67.565,89.191,137.432,181.424,252.167,135.962s227.493-210.056,336.536-369.224c109.87-160.37,223.485-326.21,339.8-372.3l-2.3,13.745c-114.732,45.461-227.49,210.055-336.534,369.215-109.872,160.379-223.483,326.218-339.806,372.309" transform="translate(-373.358 1012.427)" fill="#c6daf5" stroke="#c5daf6" stroke-width="4"/>
            <path id="Path_68045" data-name="Path 68045" d="M949.527,1333.072c-116.323,46.091-186.719-46.839-254.8-136.706-67.566-89.182-137.433-181.415-252.169-135.953s-227.488,210.046-336.53,369.214c-58.436,85.294-118.861,173.5-179.054,242.709l.018-11.961c59.691-68.627,119.863-156.457,178.058-241.407,109.87-160.37,223.485-326.21,339.8-372.3s186.723,46.837,254.8,136.7c67.565,89.191,137.431,181.424,252.167,135.962s227.493-210.056,336.536-369.225c109.87-160.369,223.485-326.21,339.8-372.3l-2.3,13.745c-114.732,45.461-227.49,210.055-336.534,369.216-109.872,160.379-223.483,326.218-339.806,372.309" transform="translate(-357.96 920.226)" fill="#c6daf5" stroke="#c5daf6" stroke-width="4"/>
            <path id="Path_68046" data-name="Path 68046" d="M949.528,1333.053c-116.323,46.091-186.719-46.839-254.8-136.7-67.565-89.191-137.433-181.414-252.169-135.953s-227.484,210.044-336.525,369.2C47.6,1514.9-12.834,1603.107-73.027,1672.317l.018-11.961c59.691-68.626,119.867-156.459,178.06-241.4,109.872-160.379,223.485-326.21,339.8-372.3s186.724,46.828,254.8,136.706c67.566,89.182,137.434,181.405,252.17,135.943s227.492-210.047,336.533-369.206c109.873-160.388,223.487-326.22,339.806-372.309l-2.3,13.745C1511.135,637,1398.379,801.584,1289.333,960.754c-109.87,160.37-223.481,326.209-339.8,372.3" transform="translate(-342.564 828.044)" fill="#c6daf5" stroke="#c5daf6" stroke-width="4"/>
            <path id="Path_68047" data-name="Path 68047" d="M949.527,1333.072c-116.323,46.091-186.719-46.839-254.8-136.7-67.565-89.191-137.432-181.424-252.167-135.962s-227.488,210.046-336.53,369.214c-58.436,85.294-118.861,173.5-179.054,242.709l.017-11.96c59.691-68.627,119.863-156.457,178.056-241.4,109.872-160.379,223.487-326.22,339.806-372.309s186.723,46.838,254.8,136.706c67.566,89.182,137.433,181.415,252.169,135.953s227.493-210.056,336.534-369.216c109.872-160.379,223.487-326.22,339.806-372.309l-2.3,13.745c-114.732,45.461-227.49,210.055-336.536,369.225-109.87,160.369-223.481,326.209-339.8,372.3" transform="translate(-327.165 735.825)" fill="#c6daf5" stroke="#c5daf6" stroke-width="4"/>
            <path id="Path_68048" data-name="Path 68048" d="M949.528,1333.053c-116.323,46.091-186.719-46.839-254.8-136.7-67.565-89.191-137.433-181.415-252.169-135.953s-227.483,210.035-336.525,369.2C47.6,1514.9-12.834,1603.107-73.027,1672.318l.018-11.961c59.69-68.617,119.867-156.459,178.06-241.4,109.872-160.379,223.485-326.21,339.8-372.3s186.724,46.828,254.8,136.706c67.566,89.182,137.434,181.406,252.17,135.943s227.492-210.047,336.533-369.207c109.873-160.388,223.487-326.22,339.806-372.309l-2.3,13.745C1511.135,637,1398.379,801.584,1289.333,960.754c-109.87,160.37-223.481,326.209-339.8,372.3" transform="translate(-311.768 643.643)" fill="#c6daf5" stroke="#c5daf6" stroke-width="4"/>
            <path id="Path_68049" data-name="Path 68049" d="M949.53,1333.035c-116.323,46.091-186.719-46.839-254.8-136.7-67.565-89.191-137.435-181.405-252.171-135.943s-227.481,210.026-336.527,369.2c-58.436,85.294-118.861,173.5-179.054,242.709l.018-11.961c59.691-68.627,119.863-156.457,178.056-241.4,109.872-160.379,223.484-326.2,339.8-372.291s186.726,46.819,254.805,136.688c67.563,89.2,137.433,181.415,252.169,135.953s227.49-210.038,336.534-369.216c109.871-160.379,223.484-326.2,339.8-372.291l-2.3,13.745c-114.732,45.461-227.487,210.036-336.532,369.206-109.87,160.37-223.482,326.209-339.8,372.3" transform="translate(-296.372 551.461)" fill="#c6daf5" stroke="#c5daf6" stroke-width="4"/>
            <path id="Path_68050" data-name="Path 68050" d="M949.528,1333.053c-116.323,46.091-186.719-46.839-254.8-136.7-67.565-89.191-137.433-181.415-252.169-135.953s-227.483,210.035-336.529,369.2c-58.436,85.294-118.861,173.5-179.054,242.709l.018-11.961c59.691-68.627,119.863-156.457,178.056-241.4,109.872-160.379,223.485-326.21,339.8-372.3s186.724,46.828,254.8,136.7c67.565,89.191,137.433,181.415,252.169,135.953s227.492-210.047,336.534-369.216c109.872-160.379,223.485-326.21,339.8-372.3l-2.3,13.745C1511.135,637,1398.379,801.583,1289.333,960.753c-109.87,160.37-223.482,326.209-339.8,372.3" transform="translate(-280.974 459.252)" fill="#c6daf5" stroke="#c5daf6" stroke-width="4"/>
            <path id="Path_68051" data-name="Path 68051" d="M949.527,1333.072c-116.323,46.091-186.719-46.839-254.8-136.706-67.565-89.191-137.433-181.415-252.169-135.953s-227.484,210.044-336.53,369.214c-58.436,85.294-118.861,173.5-179.052,242.7l.016-11.952c59.691-68.627,119.865-156.466,178.058-241.407,109.87-160.369,223.485-326.21,339.8-372.3s186.723,46.837,254.8,136.706c67.565,89.191,137.433,181.415,252.169,135.953s227.492-210.047,336.534-369.216c109.872-160.378,223.487-326.219,339.806-372.309l-2.3,13.745c-114.732,45.461-227.488,210.045-336.534,369.216-109.872,160.379-223.483,326.218-339.806,372.309" transform="translate(-265.575 367.033)" fill="#c6daf5" stroke="#c5daf6" stroke-width="4"/>
            <path id="Path_68052" data-name="Path 68052" d="M949.527,1333.071c-116.323,46.091-186.719-46.839-254.8-136.706-67.565-89.191-137.433-181.415-252.169-135.953s-227.484,210.044-336.529,369.2c-58.437,85.3-118.863,173.508-179.054,242.709l.016-11.952c59.691-68.627,119.865-156.466,178.061-241.409,109.872-160.379,223.481-326.209,339.8-372.3s186.723,46.837,254.8,136.706c67.565,89.191,137.433,181.415,252.169,135.953s227.492-210.047,336.534-369.216c109.872-160.379,223.487-326.219,339.806-372.309l-2.3,13.745c-114.732,45.461-227.488,210.046-336.534,369.216-109.872,160.379-223.483,326.218-339.806,372.309" transform="translate(-250.178 274.842)" fill="#c6daf5" stroke="#c5daf6" stroke-width="4"/>
            <path id="Path_68053" data-name="Path 68053" d="M949.528,1333.053c-116.323,46.091-186.719-46.839-254.8-136.7-67.565-89.191-137.433-181.415-252.169-135.953s-227.483,210.035-336.529,369.2c-58.436,85.294-118.861,173.5-179.052,242.7l.016-11.952c59.691-68.626,119.863-156.457,178.056-241.4,109.872-160.379,223.485-326.21,339.8-372.3s186.724,46.828,254.8,136.7c67.565,89.191,137.433,181.415,252.169,135.953s227.492-210.047,336.534-369.216c109.872-160.379,223.485-326.21,339.8-372.3l-2.3,13.745C1511.135,637,1398.379,801.583,1289.333,960.753c-109.87,160.37-223.482,326.209-339.8,372.3" transform="translate(-234.781 182.651)" fill="#c6daf5" stroke="#c5daf6" stroke-width="4"/>
            <path id="Path_68054" data-name="Path 68054" d="M949.527,1333.072c-116.323,46.091-186.719-46.839-254.8-136.706-67.565-89.191-137.433-181.415-252.169-135.953s-227.484,210.044-336.53,369.214c-58.436,85.294-118.861,173.5-179.052,242.7l.016-11.952c59.691-68.627,119.865-156.466,178.058-241.407,109.87-160.37,223.485-326.21,339.8-372.3s186.723,46.838,254.8,136.706c67.565,89.191,137.433,181.415,252.169,135.953s227.492-210.047,336.534-369.216c109.872-160.379,223.487-326.22,339.806-372.309l-2.3,13.745c-114.732,45.461-227.488,210.046-336.534,369.216-109.872,160.379-223.483,326.218-339.806,372.309" transform="translate(-219.383 90.441)" fill="#c6daf5" stroke="#c5daf6" stroke-width="4"/>
            <path id="Path_68055" data-name="Path 68055" d="M949.527,1333.072c-116.323,46.091-186.719-46.839-254.8-136.706-67.565-89.191-137.433-181.415-252.169-135.953s-227.488,210.045-336.53,369.214c-58.436,85.294-118.861,173.5-179.052,242.7l.016-11.952c59.691-68.626,119.863-156.457,178.058-241.407,109.87-160.37,223.485-326.21,339.8-372.3s186.723,46.837,254.8,136.706c67.565,89.191,137.433,181.415,252.169,135.953s227.492-210.047,336.534-369.216c109.872-160.379,223.487-326.22,339.806-372.309l-2.3,13.745c-114.732,45.461-227.488,210.046-336.534,369.216-109.872,160.379-223.483,326.218-339.806,372.309" transform="translate(-203.985 -1.759)" fill="#c6daf5" stroke="#c5daf6" stroke-width="4"/>
            <path id="Path_68056" data-name="Path 68056" d="M949.527,1333.072c-116.323,46.091-186.719-46.839-254.8-136.706-67.565-89.191-137.433-181.415-252.169-135.953s-227.488,210.046-336.53,369.214c-58.437,85.3-118.861,173.5-179.054,242.709l.016-11.952c59.693-68.636,119.865-156.466,178.058-241.407,109.872-160.379,223.487-326.219,339.806-372.309s186.723,46.837,254.8,136.706c67.565,89.191,137.433,181.415,252.169,135.953s227.492-210.047,336.534-369.216c109.872-160.379,223.487-326.22,339.806-372.309l-2.3,13.745c-114.732,45.461-227.488,210.046-336.534,369.216-109.872,160.379-223.483,326.218-339.806,372.309" transform="translate(-188.587 -93.959)" fill="#c6daf5" stroke="#c5daf6" stroke-width="4"/>
            <path id="Path_68057" data-name="Path 68057" d="M949.528,1333.053c-116.323,46.091-186.719-46.839-254.8-136.7-67.565-89.191-137.433-181.415-252.169-135.953s-227.487,210.036-336.529,369.2c-58.436,85.294-118.861,173.5-179.052,242.7l.016-11.952c59.691-68.626,119.863-156.457,178.056-241.4,109.872-160.379,223.485-326.211,339.8-372.3s186.724,46.828,254.8,136.7c67.565,89.191,137.433,181.415,252.169,135.953s227.492-210.047,336.534-369.215c109.872-160.379,223.485-326.211,339.8-372.3l-2.3,13.745C1511.135,637,1398.379,801.583,1289.333,960.754c-109.87,160.37-223.481,326.209-339.8,372.3" transform="translate(-173.192 -186.132)" fill="#c6daf5" stroke="#c5daf6" stroke-width="4"/>
            <path id="Path_68058" data-name="Path 68058" d="M949.527,1333.072c-116.323,46.091-186.719-46.839-254.8-136.706-67.565-89.191-137.433-181.415-252.169-135.953s-227.484,210.044-336.53,369.214c-58.436,85.294-118.861,173.5-179.052,242.7l.016-11.952c59.691-68.626,119.865-156.466,178.057-241.407,109.87-160.37,223.485-326.21,339.8-372.3s186.723,46.838,254.8,136.706c67.565,89.191,137.433,181.415,252.169,135.953s227.492-210.047,336.534-369.216c109.871-160.379,223.487-326.22,339.806-372.309l-2.3,13.745c-114.732,45.461-227.488,210.046-336.534,369.216-109.872,160.379-223.483,326.218-339.806,372.309" transform="translate(-157.793 -278.351)" fill="#c6daf5" stroke="#c5daf6" stroke-width="4"/>
            <path id="Path_68059" data-name="Path 68059" d="M949.527,1333.072c-116.323,46.091-186.719-46.839-254.8-136.706-67.565-89.191-137.433-181.415-252.169-135.953s-227.488,210.046-336.53,369.214c-58.436,85.294-118.861,173.5-179.052,242.7l.016-11.952c59.691-68.626,119.863-156.457,178.056-241.4,109.872-160.379,223.487-326.219,339.806-372.309s186.723,46.837,254.8,136.706c67.565,89.191,137.433,181.415,252.169,135.953s227.492-210.047,336.534-369.216c109.872-160.379,223.487-326.22,339.806-372.309l-2.3,13.745c-114.732,45.461-227.488,210.046-336.534,369.216-109.872,160.379-223.483,326.218-339.806,372.309" transform="translate(-142.395 -370.551)" fill="#c6daf5" stroke="#c5daf6" stroke-width="4"/>
            <path id="Path_68060" data-name="Path 68060" d="M949.527,1333.072c-116.323,46.091-186.719-46.839-254.8-136.706-67.565-89.191-137.433-181.415-252.169-135.953s-227.48,210.042-336.525,369.2c-58.436,85.294-118.865,173.5-179.058,242.71l.017-11.961c59.691-68.627,119.869-156.468,178.064-241.4,109.868-160.377,223.481-326.209,339.8-372.3s186.723,46.837,254.8,136.706c67.565,89.191,137.433,181.415,252.169,135.953s227.492-210.047,336.534-369.216c109.872-160.379,223.487-326.219,339.806-372.309l-2.3,13.745c-114.732,45.461-227.488,210.046-336.534,369.216-109.872,160.378-223.483,326.218-339.806,372.309" transform="translate(-126.999 -462.742)" fill="#c6daf5" stroke="#c5daf6" stroke-width="4"/>
            <path id="Path_68061" data-name="Path 68061" d="M949.528,1333.053c-116.323,46.091-186.719-46.839-254.8-136.7-67.565-89.191-137.433-181.415-252.169-135.953s-227.488,210.045-336.534,369.215c-58.434,85.285-118.856,173.488-179.049,242.7l.016-11.952c59.693-68.636,119.865-156.466,178.058-241.407,109.872-160.379,223.481-326.209,339.8-372.3s186.724,46.828,254.8,136.7c67.565,89.191,137.433,181.415,252.169,135.953s227.492-210.047,336.534-369.216c109.872-160.379,223.485-326.21,339.8-372.3l-2.3,13.745C1511.135,637,1398.379,801.583,1289.333,960.754c-109.87,160.369-223.481,326.209-339.8,372.3" transform="translate(-111.603 -554.924)" fill="#c6daf5" stroke="#c5daf6" stroke-width="4"/>
            <path id="Path_68062" data-name="Path 68062" d="M949.528,1333.053c-116.323,46.091-186.719-46.839-254.8-136.7-67.565-89.191-137.433-181.415-252.169-135.953s-227.483,210.035-336.529,369.205c-58.436,85.294-118.861,173.5-179.052,242.7l.016-11.952c59.691-68.627,119.863-156.457,178.056-241.4,109.872-160.379,223.485-326.21,339.8-372.3s186.724,46.828,254.8,136.7c67.565,89.191,137.433,181.415,252.169,135.953s227.492-210.047,336.534-369.216c109.872-160.379,223.485-326.21,339.8-372.3l-2.3,13.745C1511.135,637,1398.379,801.583,1289.333,960.754c-109.87,160.37-223.481,326.209-339.8,372.3" transform="translate(-96.205 -647.124)" fill="#c6daf5" stroke="#c5daf6" stroke-width="4"/>
            <path id="Path_68063" data-name="Path 68063" d="M949.527,1333.072c-116.323,46.091-186.719-46.839-254.8-136.706-67.565-89.191-137.433-181.415-252.169-135.953s-227.484,210.044-336.53,369.214c-58.436,85.294-118.861,173.5-179.052,242.7l.016-11.952c59.691-68.627,119.863-156.457,178.06-241.4,109.872-160.379,223.483-326.218,339.8-372.307s186.723,46.837,254.8,136.706c67.565,89.191,137.433,181.415,252.169,135.953s227.492-210.047,336.534-369.216c109.872-160.379,223.487-326.22,339.806-372.309l-2.3,13.745c-114.732,45.461-227.488,210.046-336.534,369.216-109.872,160.379-223.483,326.218-339.806,372.309" transform="translate(-80.805 -739.343)" fill="#c6daf5" stroke="#c5daf6" stroke-width="4"/>
            <path id="Path_68064" data-name="Path 68064" d="M949.528,1333.053c-116.323,46.091-186.719-46.839-254.8-136.7-67.565-89.191-137.433-181.415-252.169-135.953s-227.483,210.035-336.529,369.2c-58.436,85.294-118.861,173.5-179.054,242.709l.016-11.952c59.693-68.636,119.865-156.466,178.058-241.407,109.872-160.379,223.485-326.21,339.8-372.3s186.724,46.828,254.8,136.7c67.565,89.191,137.433,181.415,252.169,135.953s227.492-210.047,336.534-369.216c109.872-160.379,223.485-326.21,339.8-372.3l-2.3,13.745C1511.135,637,1398.379,801.583,1289.333,960.753c-109.87,160.37-223.482,326.209-339.8,372.3" transform="translate(-65.409 -831.525)" fill="#c6daf5" stroke="#c5daf6" stroke-width="4"/>
            <path id="Path_68065" data-name="Path 68065" d="M949.527,1333.072c-116.323,46.091-186.719-46.839-254.8-136.706-67.565-89.191-137.433-181.415-252.169-135.953s-227.488,210.046-336.53,369.214c-58.436,85.294-118.861,173.5-179.052,242.7l.016-11.952c59.691-68.626,119.865-156.466,178.056-241.4,109.872-160.379,223.487-326.22,339.806-372.309s186.723,46.837,254.8,136.706c67.565,89.191,137.433,181.415,252.169,135.953s227.492-210.047,336.534-369.216c109.872-160.379,223.487-326.219,339.806-372.309l-2.3,13.745c-114.732,45.461-227.488,210.045-336.534,369.216-109.872,160.379-223.483,326.218-339.806,372.309" transform="translate(-50.011 -923.735)" fill="#c6daf5" stroke="#c5daf6" stroke-width="4"/>
            <path id="Path_68066" data-name="Path 68066" d="M949.528,1333.053c-116.323,46.091-186.719-46.839-254.8-136.7-67.565-89.191-137.433-181.415-252.169-135.953s-227.483,210.035-336.529,369.2c-58.436,85.294-118.861,173.5-179.052,242.7l.016-11.952c59.691-68.627,119.863-156.457,178.056-241.4,109.872-160.379,223.485-326.21,339.8-372.3s186.724,46.828,254.8,136.7c67.565,89.191,137.433,181.415,252.169,135.953s227.492-210.047,336.534-369.216c109.872-160.379,223.485-326.21,339.8-372.3l-2.3,13.745C1511.135,637,1398.379,801.583,1289.333,960.754c-109.87,160.369-223.482,326.209-339.8,372.3" transform="translate(-34.615 -1015.917)" fill="#c6daf5" stroke="#c5daf6" stroke-width="4"/>
            <path id="Path_68067" data-name="Path 68067" d="M949.527,1333.072c-116.323,46.091-186.719-46.839-254.8-136.706-67.565-89.191-137.433-181.415-252.169-135.953s-227.484,210.044-336.529,369.2c-58.437,85.3-118.861,173.5-179.054,242.709l.016-11.952c59.691-68.626,119.865-156.466,178.061-241.409,109.872-160.379,223.481-326.209,339.8-372.3s186.723,46.837,254.8,136.706c67.565,89.191,137.433,181.415,252.169,135.953s227.492-210.047,336.534-369.216c109.872-160.379,223.487-326.22,339.806-372.309l-2.3,13.745c-114.732,45.461-227.488,210.046-336.534,369.216-109.872,160.379-223.483,326.218-339.806,372.309" transform="translate(-19.217 -1108.126)" fill="#c6daf5" stroke="#c5daf6" stroke-width="4"/>
            <path id="Path_68068" data-name="Path 68068" d="M949.527,1333.072c-116.323,46.091-186.719-46.839-254.8-136.706-67.565-89.191-137.433-181.415-252.169-135.953s-227.484,210.044-336.53,369.214c-58.436,85.294-118.861,173.5-179.052,242.7l.016-11.952c59.691-68.627,119.865-156.466,178.057-241.407,109.87-160.37,223.485-326.21,339.8-372.3s186.723,46.837,254.8,136.706c67.565,89.191,137.433,181.415,252.169,135.953s227.492-210.047,336.534-369.216c109.872-160.379,223.487-326.22,339.806-372.309l-2.3,13.745c-114.732,45.461-227.488,210.045-336.534,369.216-109.872,160.379-223.483,326.218-339.806,372.309" transform="translate(-3.819 -1200.326)" fill="#c6daf5" stroke="#c5daf6" stroke-width="4"/>
            <path id="Path_68069" data-name="Path 68069" d="M370.412,274.529C254.085,320.621,183.683,227.685,115.6,137.818,79.308,89.912,41.78,40.383-2.195,12.764L2.052-.872C46.4,26.975,84.084,76.717,120.529,124.827c67.569,89.19,137.439,181.421,252.179,135.957S600.2,50.738,709.242-108.432C768.06-194.288,828.885-283.07,889.482-352.5l-.029,11.966C829.359-271.681,768.792-183.275,710.218-97.78,600.346,62.6,486.735,228.438,370.412,274.529" transform="translate(590.693 -233.984)" fill="#c6daf5" stroke="#c5daf6" stroke-width="4"/>
            <path id="Path_68070" data-name="Path 68070" d="M-61.811,371.339l.016-11.952C-2.1,290.76,58.068,202.93,116.266,117.978,175.083,32.131,235.9-56.65,296.5-126.079l-.029,11.965C236.384-45.271,175.817,43.135,117.247,128.628,58.806,213.933-1.62,302.137-61.811,371.339" transform="translate(0.363 8.462)" fill="#c6daf5" stroke="#c5daf6" stroke-width="4"/>
            <path id="Path_68071" data-name="Path 68071" d="M304.589,214.149C188.266,260.24,117.866,167.311,49.783,77.444,33.017,55.3,15.679,32.42-2.063,12L2.731-1.161c17.809,20.5,35.181,43.434,51.982,65.605,67.565,89.191,137.435,181.422,252.171,135.96S534.378-9.652,643.418-168.812c27.117-39.581,55.15-80.5,82.819-119.026L727-276.881c-27.561,38.371-55.542,79.219-82.606,118.719C534.523,2.218,420.912,168.058,304.589,214.149" transform="translate(671.914 -265.804)" fill="#c6daf5" stroke="#c5daf6" stroke-width="4"/>
            <path id="Path_68072" data-name="Path 68072" d="M-46.3,281.116l.016-11.952C13.406,200.54,73.572,112.72,131.761,27.781c27.119-39.59,55.158-80.5,82.831-119.031l.767,10.957C187.8-41.93,159.807-1.079,132.74,38.44,74.311,123.714,13.891,211.908-46.3,281.116" transform="translate(0.247 6.483)" fill="#c6daf5" stroke="#c5daf6" stroke-width="4"/>
            <path id="Path_68073" data-name="Path 68073" d="M252.781,148.461C136.462,194.551,66.062,101.622-2.021,11.755L2.907-1.236c67.57,89.181,137.437,181.413,252.169,135.953S482.555-75.317,591.592-234.475l1,10.625C482.7-63.455,369.1,102.373,252.781,148.461" transform="translate(739.119 -292.308)" fill="#c6daf5" stroke="#c5daf6" stroke-width="4"/>
            <path id="Path_68074" data-name="Path 68074" d="M-30.736,190.616l.016-11.952c59.661-68.6,119.8-156.382,177.967-241.277l1.067,10.522C89.819,33.294,29.425,121.444-30.736,190.616" transform="translate(0.082 4.793)" fill="#c6daf5" stroke="#c5daf6" stroke-width="4"/>
            <path id="Path_68075" data-name="Path 68075" d="M200.755,461.493C108.292,498.129,46.34,446.118-2.063,390.4l4.795-13.161c47.9,55.14,109.161,106.629,200.319,70.509s179.52-146.894,253.932-250.5l.767,10.957C382.553,312.9,293.218,424.856,200.755,461.493" transform="translate(806.544 -697.548)" fill="#c6daf5" stroke="#c5daf6" stroke-width="4"/>
            <path id="Path_68076" data-name="Path 68076" d="M-15.245,100.518l.016-11.952C13.5,55.544,43.827,16.555,80.218-34.111l.768,10.948C44.325,27.893,13.747,67.185-15.245,100.518" transform="translate(-0.012 2.69)" fill="#c6daf5" stroke="#c5daf6" stroke-width="4"/>
            <path id="Path_68077" data-name="Path 68077" d="M134.12,237.509c-49,19.416-93.592,15.82-136.315-11L2.052,212.87c42.147,26.452,86.1,30.02,134.364,10.894s99.722-60.495,157.3-126.461l-.029,11.965c-58.372,66.88-110.563,108.824-159.566,128.24" transform="translate(888.575 -565.756)" fill="#c6daf5" stroke="#c5daf6" stroke-width="4"/>
          </g>
        </g>
      </g>
    </g>
  </g>
</svg>
