<svg xmlns="http://www.w3.org/2000/svg" width="19.53" height="19.988" viewBox="0 0 19.53 19.988">
  <g id="Group_19591" data-name="Group 19591" transform="translate(-2.064 -5.388)">
    <g id="Group_19578" data-name="Group 19578" transform="translate(2.564 5.888)">
      <path id="Path_76772" data-name="Path 76772" d="M3.04,11.3H.921c-.509,0-.921-.2-.921-.457V.457C0,.2.412,0,.921,0H3.04c.509,0,.921.2.921.457V10.841c0,.252-.412.457-.921.457" transform="translate(0 7.689)" fill="#a6a6d4" stroke="#202a5f" stroke-width="1"/>
      <path id="Subtraction_86" data-name="Subtraction 86" d="M.021,5.876h0L0,.253C0,.113.413,0,.921,0H3.04c.508,0,.921.113.921.253V5.258a7.277,7.277,0,0,0-1.011-.07,5.988,5.988,0,0,0-2.929.687Z" transform="translate(11.546 1.814)" fill="#a6a6d4" stroke="#202a5f" stroke-width="1"/>
      <path id="Path_76773" data-name="Path 76773" d="M10.04,23.988H7.921A.952.952,0,0,1,7,23.006V5.981A.952.952,0,0,1,7.921,5H10.04a.952.952,0,0,1,.921.981V23.006a.952.952,0,0,1-.921.981" transform="translate(-1.482 -5)" fill="#a6a6d4" stroke="#202a5f" stroke-width="1"/>
      <g id="Group_19579" data-name="Group 19579" transform="translate(11.036 7.635)">
        <path id="Path_76774" data-name="Path 76774" d="M19.295,22.408H17.148a.326.326,0,1,0,0,.651h.143l-.007.083a.352.352,0,0,0,.261.34l.071.021-.029.065a.225.225,0,0,0-.018.087.238.238,0,0,0,.244.232h.816a.238.238,0,0,0,.244-.232.225.225,0,0,0-.018-.087l-.029-.065.071-.021a.35.35,0,0,0,.261-.333l0-.09h.141a.326.326,0,1,0,0-.651" transform="translate(-14.477 -12.566)" fill="#a6a6d4" stroke="#202a5f" stroke-width="1"/>
        <path id="Path_76775" data-name="Path 76775" d="M18.2,13a3.752,3.752,0,0,0-3.747,3.747,3.7,3.7,0,0,0,.8,2.31c.108.138.227.274.331.4a3.793,3.793,0,0,1,.887,1.385,2.29,2.29,0,0,1,.037.529v.291a.417.417,0,0,0,.416.416h2.528a.417.417,0,0,0,.416-.416v-.3a2.236,2.236,0,0,1,.036-.489,4.213,4.213,0,0,1,.929-1.442l.016-.019c.108-.127.2-.241.3-.355a3.7,3.7,0,0,0,.8-2.311A3.752,3.752,0,0,0,18.2,13m2.127,4.259a.269.269,0,0,1-.315.2.265.265,0,0,1-.2-.315,1.611,1.611,0,0,0-1.218-1.906.259.259,0,0,1-.165-.117.265.265,0,0,1,.223-.407.23.23,0,0,1,.058.007,2.141,2.141,0,0,1,1.62,2.535" transform="translate(-14.454 -13)" fill="#a6a6d4" stroke="#202a5f" stroke-width="1"/>
      </g>
      <path id="Path_76776" data-name="Path 76776" d="M18,14.3v-.246c-.009.02-.029.032-.034.054A.307.307,0,0,0,18,14.3" transform="translate(-2.492 -3.926)" fill="#a6a6d4" stroke="#202a5f" stroke-width="1"/>
    </g>
  </g>
</svg>
