<svg xmlns="http://www.w3.org/2000/svg" width="60.009" height="39.521" viewBox="0 0 60.009 39.521">
  <g id="Group_19566" data-name="Group 19566" transform="translate(0 0)">
    <g id="Group_19567" data-name="Group 19567" transform="translate(0 0)">
      <path id="Path_76752" data-name="Path 76752" d="M50.313,16H22.142a3.018,3.018,0,0,0-2.88,3.14V30.718a3.018,3.018,0,0,0,2.88,3.14H50.313a3.018,3.018,0,0,0,2.88-3.14V19.14A3.018,3.018,0,0,0,50.313,16M40.322,28.755H25.112V26.2h15.21Zm7.02-5.1H25.112V21.1h22.23Z" transform="translate(6.817 5.662)" fill="#ff0089"/>
      <path id="Path_76753" data-name="Path 76753" d="M31.051,0H2.88A3.018,3.018,0,0,0,0,3.14V14.718a3.018,3.018,0,0,0,2.88,3.14H31.051a3.018,3.018,0,0,0,2.88-3.14V3.14A3.018,3.018,0,0,0,31.051,0M21.06,12.755H5.85V10.2H21.06Zm7.02-5.1H5.85V5.1H28.08Z" transform="translate(0 -0.001)" fill="#fff"/>
      <path id="Path_76754" data-name="Path 76754" d="M10.055,22.871V15.943H6.487v6.928a6.834,6.834,0,0,0,7.077,6.543h7.549v-3.3H13.564a3.388,3.388,0,0,1-3.509-3.244" transform="translate(2.296 5.642)" fill="#fff"/>
      <path id="Path_76755" data-name="Path 76755" d="M38.954,5.5H27.813V8.8H38.954a3.389,3.389,0,0,1,3.508,3.245v4.709H46.03V12.04A6.832,6.832,0,0,0,38.954,5.5" transform="translate(9.843 1.945)" fill="#fff"/>
    </g>
  </g>
</svg>
