<svg xmlns="http://www.w3.org/2000/svg" width="59.68" height="44.034" viewBox="0 0 59.68 44.034">
  <g id="Group_17354" data-name="Group 17354" transform="translate(0.5 0.5)">
    <g id="Group_16332" data-name="Group 16332" transform="translate(0 0)">
      <path id="Subtraction_42" data-name="Subtraction 42" d="M21.984,40.894h0L20.4,39.414c-2.617-2.474-5.31-4.828-8.306-7.427l-.6-.522c-1.715-1.48-3.658-3.158-5.418-4.924A23.449,23.449,0,0,1,2.36,21.913,16.448,16.448,0,0,1,.288,16.034,23.693,23.693,0,0,1,.016,11.5,11.542,11.542,0,0,1,7.433.894,13.159,13.159,0,0,1,12.076,0h.033a12.3,12.3,0,0,1,8.1,3.229A13.738,13.738,0,0,1,22,5.112a13.452,13.452,0,0,1,5.232-4.1A11.758,11.758,0,0,1,31.955.026c.06,0,.12,0,.18,0,.288,0,.578.022.85.045A11.743,11.743,0,0,1,43.849,10.174a19.263,19.263,0,0,1,.131,2.764L41.4,12.01c-.014-.5-.051-1.009-.111-1.508A9.161,9.161,0,0,0,32.8,2.636c-.261-.019-.479-.034-.709-.034l-.136,0a9.2,9.2,0,0,0-3.693.769A10.848,10.848,0,0,0,23.835,6.96c-.187.249-.349.489-.505.72l-1.385,2-1.18-1.824a11.473,11.473,0,0,0-2.271-2.706,9.754,9.754,0,0,0-6.411-2.573,10.61,10.61,0,0,0-3.72.72,9,9,0,0,0-5.772,8.27,21.331,21.331,0,0,0,.242,4.076A13.915,13.915,0,0,0,4.57,20.59,20.994,20.994,0,0,0,7.879,24.7c1.663,1.671,3.473,3.236,5.223,4.75l.071.061.607.525c2.956,2.566,5.614,4.889,8.215,7.338l.073-.068.015-.014c.531-.5,1.133-1.07,1.73-1.6,1.29-1.141,2.545-2.247,3.495-3.083l1.85,1.805c-1.173,1.032-2.465,2.171-3.639,3.208-.572.506-1.145,1.046-1.682,1.556l-1.851,1.708ZM35.712,28.651l0,0,7.633-10.931c-.117.453-.248.891-.388,1.3a17.654,17.654,0,0,1-3.436,5.791A49.656,49.656,0,0,1,35.712,28.651Z" fill="#fff" stroke="rgba(0,0,0,0)" stroke-width="1"/>
      <path id="Path_64156" data-name="Path 64156" d="M29.107,10.644a8.943,8.943,0,0,0-3.152.607A7.76,7.76,0,0,0,21,18.356a16.855,16.855,0,0,0,.195,3.232,11.443,11.443,0,0,0,1.425,4.058,16.8,16.8,0,0,0,2.652,3.3c1.423,1.428,2.955,2.729,4.476,4.047,2.122,1.841,4.234,3.683,6.275,5.612.175.166.352.331.535.5l.112-.1c.633-.589,1.251-1.191,1.9-1.761,2.279-2.018,4.571-4.023,6.853-6.037a36.582,36.582,0,0,0,3.591-3.518,12.3,12.3,0,0,0,2.39-4.022,12.816,12.816,0,0,0,.637-3.077,13.476,13.476,0,0,0-.006-3.132,7.849,7.849,0,0,0-7.287-6.768c-.229-.018-.459-.027-.686-.027a7.931,7.931,0,0,0-3.174.658,9.142,9.142,0,0,0-3.73,3.019c-.207.28-.4.572-.6.872-.035-.053-.062-.1-.088-.133a9.583,9.583,0,0,0-1.9-2.263,8.275,8.275,0,0,0-5.454-2.174" transform="translate(6.056 3.072)" fill="#fff"/>
      <path id="Path_64157" data-name="Path 64157" d="M29.107,10.644a8.943,8.943,0,0,0-3.152.607A7.76,7.76,0,0,0,21,18.356a16.855,16.855,0,0,0,.195,3.232,11.443,11.443,0,0,0,1.425,4.058,16.8,16.8,0,0,0,2.652,3.3c1.423,1.428,2.955,2.729,4.476,4.047,2.122,1.841,4.234,3.683,6.275,5.612.175.166.352.331.535.5l.112-.1c.633-.589,1.251-1.191,1.9-1.761,2.279-2.018,4.571-4.023,6.853-6.037a36.582,36.582,0,0,0,3.591-3.518,12.3,12.3,0,0,0,2.39-4.022,12.816,12.816,0,0,0,.637-3.077,13.476,13.476,0,0,0-.006-3.132,7.849,7.849,0,0,0-7.287-6.768c-.229-.018-.459-.027-.686-.027a7.931,7.931,0,0,0-3.174.658,9.142,9.142,0,0,0-3.73,3.019c-.207.28-.4.572-.6.872-.035-.053-.062-.1-.088-.133a9.583,9.583,0,0,0-1.9-2.263,8.275,8.275,0,0,0-5.454-2.174" transform="translate(6.056 3.072)" fill="#ff0089" stroke="#3b2579" stroke-width="2"/>
    </g>
  </g>
</svg>
