<svg xmlns="http://www.w3.org/2000/svg" width="53.508" height="42.283" viewBox="0 0 53.508 42.283">
  <g id="Group_17356" data-name="Group 17356" transform="translate(0.53 0.5)">
    <g id="Group_16342" data-name="Group 16342" transform="translate(0 0)">
      <path id="Path_64166" data-name="Path 64166" d="M21.26,19.5a2.208,2.208,0,0,1-.336-2.252l-.812-.622a.535.535,0,0,1,.012-.74l.691-.9a.537.537,0,0,1,.713-.206l.813.623a2.2,2.2,0,0,1,2.26-.266Z" transform="translate(2.368 1.743)" fill="#fff" stroke="rgba(0,0,0,0)" stroke-width="1"/>
      <path id="Path_64167" data-name="Path 64167" d="M43.752,33.3a18.2,18.2,0,0,0,1.421-2.145l2.017,4.776-5.138-.7a18.146,18.146,0,0,0,1.7-1.931" transform="translate(4.986 3.695)" fill="#fff" stroke="rgba(0,0,0,0)" stroke-width="1"/>
      <path id="Path_64168" data-name="Path 64168" d="M21.992,20.173l-.471-.377L24.9,15.38,36.282,23.7c1.471,1.058,2.915,2.152,4.317,3.114l2.04,1.364a18.148,18.148,0,0,1,1.728,1.349A29.426,29.426,0,0,1,46.762,31.8l.512.577a14.384,14.384,0,0,1-1.551,2.444,14.356,14.356,0,0,1-1.954,2.135l-.691-.343a29.275,29.275,0,0,1-2.82-1.717A18.013,18.013,0,0,1,38.5,33.577l-1.849-1.613c-1.3-1.1-2.728-2.21-4.133-3.355l-9.843-7.887" transform="translate(2.552 1.824)" fill="#ff0089" stroke="rgba(0,0,0,0)" stroke-width="1"/>
      <path id="Path_64169" data-name="Path 64169" d="M43.735,15.546A3.121,3.121,0,0,0,41.176,13.4L30.2,11.839a.7.7,0,0,1-.526-.369L24.77,1.729a3.176,3.176,0,0,0-5.654,0L14.209,11.47a.7.7,0,0,1-.527.369L2.709,13.4A3.123,3.123,0,0,0,.15,15.546a3.07,3.07,0,0,0,.815,3.182L8.9,26.311a.632.632,0,0,1,.191.569L7.222,37.586a3.088,3.088,0,0,0,1.225,3.031,3.169,3.169,0,0,0,3.348.264l9.814-5.054a.73.73,0,0,1,.667,0l9.816,5.056a3.171,3.171,0,0,0,3.349-.266,3.086,3.086,0,0,0,1.223-3.03l-.653-3.727-2.851-2.016,1.081,6.168a.619.619,0,0,1-.258.624.724.724,0,0,1-.763.059L23.4,33.639a3.2,3.2,0,0,0-2.919,0l-9.814,5.054a.713.713,0,0,1-.763-.058.619.619,0,0,1-.258-.625L11.521,27.3a3.1,3.1,0,0,0-.916-2.774L2.664,16.949a.609.609,0,0,1-.171-.652.665.665,0,0,1,.564-.461l10.972-1.562a3.155,3.155,0,0,0,2.377-1.7l4.907-9.741a.715.715,0,0,1,1.258,0l4.907,9.741a3.155,3.155,0,0,0,2.377,1.7l10.972,1.562a.665.665,0,0,1,.564.461.606.606,0,0,1-.172.652l-3.966,3.789,2.039,1.455,3.628-3.463a3.077,3.077,0,0,0,.815-3.183" transform="translate(0 0)" fill="#fff" stroke="rgba(0,0,0,0)" stroke-width="1"/>
    </g>
  </g>
</svg>
