<svg xmlns="http://www.w3.org/2000/svg" width="72.835" height="57.566" viewBox="0 0 72.835 57.566">
  <g id="Group_17356" data-name="Group 17356" transform="translate(0.539 0.5)">
    <g id="Group_16342" data-name="Group 16342" transform="translate(0 0)">
      <path id="Path_64166" data-name="Path 64166" d="M21.737,21.27a3.025,3.025,0,0,1-.46-3.085l-1.113-.852a.733.733,0,0,1,.017-1.015l.947-1.237A.736.736,0,0,1,22.1,14.8l1.114.854a3.016,3.016,0,0,1,3.1-.365Z" transform="translate(10.639 7.832)" fill="#fff" stroke="rgba(0,0,0,0)" stroke-width="1"/>
      <path id="Path_64167" data-name="Path 64167" d="M44.382,34.1a24.942,24.942,0,0,0,1.947-2.94L49.092,37.7l-7.04-.959a24.863,24.863,0,0,0,2.33-2.645" transform="translate(22.402 16.599)" fill="#fff" stroke="rgba(0,0,0,0)" stroke-width="1"/>
      <path id="Path_64168" data-name="Path 64168" d="M22.166,21.948c-.259-.208-.475-.382-.645-.517l4.632-6.051,15.594,11.4c2.016,1.45,3.994,2.949,5.915,4.267l2.8,1.868a24.866,24.866,0,0,1,2.368,1.848,40.319,40.319,0,0,1,3.282,3.116l.7.791a19.709,19.709,0,0,1-2.126,3.349,19.671,19.671,0,0,1-2.678,2.926l-.947-.471a40.116,40.116,0,0,1-3.864-2.353,24.68,24.68,0,0,1-2.4-1.8L42.257,38.1c-1.775-1.511-3.738-3.029-5.663-4.6L23.106,22.7" transform="translate(11.465 8.193)" fill="#ff0089" stroke="rgba(0,0,0,0)" stroke-width="1"/>
      <path id="Path_64169" data-name="Path 64169" d="M59.928,21.3a4.277,4.277,0,0,0-3.507-2.94l-15.036-2.14a.952.952,0,0,1-.72-.506L33.941,2.37a4.351,4.351,0,0,0-7.748,0L19.47,15.717a.955.955,0,0,1-.722.506L3.712,18.362A4.279,4.279,0,0,0,.205,21.3a4.206,4.206,0,0,0,1.117,4.361L12.2,36.053a.866.866,0,0,1,.262.78L9.9,51.5a4.232,4.232,0,0,0,1.678,4.154,4.342,4.342,0,0,0,4.587.362l13.448-6.925a1,1,0,0,1,.913,0l13.45,6.928a4.345,4.345,0,0,0,4.589-.365A4.228,4.228,0,0,0,50.236,51.5l-.9-5.107-3.907-2.762,1.481,8.451a.848.848,0,0,1-.354.855.992.992,0,0,1-1.045.081l-13.45-6.928a4.378,4.378,0,0,0-4,0L14.618,53.02a.978.978,0,0,1-1.045-.08.849.849,0,0,1-.354-.857l2.569-14.67a4.241,4.241,0,0,0-1.255-3.8L3.651,23.224a.835.835,0,0,1-.235-.894.911.911,0,0,1,.772-.631l15.034-2.14a4.323,4.323,0,0,0,3.257-2.325L29.2,3.887a.979.979,0,0,1,1.724,0l6.724,13.347a4.323,4.323,0,0,0,3.257,2.325L55.944,21.7a.911.911,0,0,1,.772.631.83.83,0,0,1-.236.894l-5.435,5.191,2.794,1.994,4.971-4.745A4.216,4.216,0,0,0,59.928,21.3" transform="translate(0 0)" fill="#fff" stroke="rgba(0,0,0,0)" stroke-width="1"/>
    </g>
  </g>
</svg>
