<svg xmlns="http://www.w3.org/2000/svg" width="71.004" height="69.154" viewBox="0 0 71.004 69.154">
  <g id="Group_17355" data-name="Group 17355" transform="translate(0.5 0.5)">
    <g id="Group_16335" data-name="Group 16335" transform="translate(0.001 0)">
      <path id="Path_64158" data-name="Path 64158" d="M21.441,36.416a1.366,1.366,0,0,1-.052-.263q0-2.375.016-4.75a1.239,1.239,0,0,1,.036-.211Z" transform="translate(16.833 24.549)" fill="#fff"/>
      <path id="Subtraction_41" data-name="Subtraction 41" d="M25.158,68.154h0c-1.369,0-2.452-.028-3.512-.085a15.425,15.425,0,0,1-2.565-.452l-.2-.044a24.143,24.143,0,0,1-8.737-3.965,22.485,22.485,0,0,1-3.693-3.239A27.958,27.958,0,0,1,3.2,55.922,23.76,23.76,0,0,1,.579,49.1a24.213,24.213,0,0,1-.535-6.81,29.027,29.027,0,0,1,4-13.141A32.791,32.791,0,0,1,6.29,25.881a41.837,41.837,0,0,0,4.834-7.854,41.04,41.04,0,0,0,2.3-6,34.364,34.364,0,0,0,1.074-4.582c.205-1.286.345-2.556.445-3.518.043-.41.065-.806.091-1.322.019-.356.038-.724.072-1.091A1.754,1.754,0,0,1,16.887,0a4.219,4.219,0,0,1,1.379.48l.027.013A33.429,33.429,0,0,1,24.029,3.9a31.325,31.325,0,0,1,3.507,3.068,31.519,31.519,0,0,1,4.8,6.259,30.332,30.332,0,0,1,3.469,8.674c.2.852.357,1.758.485,2.485l0,.016.122.68c.031.173.046.356.061.549l.485,3.47,2.294-2.3.5-.72.055-.085.007-.012c.254-.394.542-.84.8-1.293.189-.325.356-.667.549-1.062L41.2,23.6l.052-.107c.086-.176.164-.334.249-.49a1.723,1.723,0,0,1,1.472-.938,1.911,1.911,0,0,1,.806.193,1.787,1.787,0,0,1,.652.615,14.574,14.574,0,0,1,1.564,3.059,30.855,30.855,0,0,1,1.425,4.807c.281,1.268.519,2.613.726,4.113.135.971.244,1.929.326,2.848L45.218,40c-.012-.218-.027-.454-.048-.744l-.027-.373,0-.056c-.036-.491-.076-1.047-.137-1.581-.107-.941-.219-1.752-.342-2.479-.132-.8-.282-1.619-.415-2.345l-.082-.451-.274-1.46-.259-.815-.48-2.981-1.571,2.761-1.09,1.2c-.192.223-.421.487-.655.746a21.738,21.738,0,0,1-4.294,3.624,1.674,1.674,0,0,1-.933.312,1.563,1.563,0,0,1-.166-.009,1.775,1.775,0,0,1-1.559-2.038,26.165,26.165,0,0,0,.372-2.973,27.918,27.918,0,0,0-.178-5.605,27.567,27.567,0,0,0-1.513-5.8,26.47,26.47,0,0,0-1.6-3.417,24.624,24.624,0,0,0-3.652-5.069,27.141,27.141,0,0,0-5.359-4.481l.082-.158-.848-.288L19.6,5.2l-.057.089-1.215-.416-.473,2.8c-.081.481-.161.954-.256,1.439a44.837,44.837,0,0,1-2.608,8.627,45.16,45.16,0,0,1-1.972,4.133,36.906,36.906,0,0,1-3.65,5.587,27.484,27.484,0,0,0-4.26,7.319,25.056,25.056,0,0,0-1.62,7.354,21.94,21.94,0,0,0,.253,5.413A20.578,20.578,0,0,0,7,55.57a20.82,20.82,0,0,0,8.687,7.344,20.377,20.377,0,0,0,6.226,1.731,24.15,24.15,0,0,0,2.568.138c.513,0,.956-.013,1.354-.039a21.925,21.925,0,0,0,3.624-.5,20.451,20.451,0,0,0,10.068-5.7l3.709.863-.137.168-.016.019a22.059,22.059,0,0,1-2.637,2.7,24.242,24.242,0,0,1-7.968,4.594,23.149,23.149,0,0,1-4.718,1.109A21.5,21.5,0,0,1,25.158,68.154Z" transform="translate(0 0)" fill="#fff" stroke="rgba(0,0,0,0)" stroke-width="1"/>
      <path id="Path_64160" data-name="Path 64160" d="M48.252,16.763l4.119,5.17L37.906,32.789l-8.685-8.737L7.94,40.461l5.154,6.683L28.482,35.282,37.1,43.949,57.633,28.538l4.319,5.425L63.7,18.511Z" transform="translate(6.248 13.192)" fill="#fff"/>
      <path id="Path_64161" data-name="Path 64161" d="M48.252,16.763l4.119,5.17L37.906,32.789l-8.685-8.737L7.94,40.461l5.154,6.683L28.482,35.282,37.1,43.949,57.633,28.538l4.319,5.425L63.7,18.511Z" transform="translate(6.248 13.192)" fill="#ff0089" stroke="#3b2579" stroke-width="1"/>
    </g>
  </g>
</svg>
