<svg xmlns="http://www.w3.org/2000/svg" width="52.103" height="50.739" viewBox="0 0 52.103 50.739">
  <g id="Group_17355" data-name="Group 17355" transform="translate(0.5 0.5)">
    <g id="Group_16335" data-name="Group 16335" transform="translate(0 0)">
      <path id="Path_64158" data-name="Path 64158" d="M21.427,35.005a1,1,0,0,1-.038-.192q0-1.733.012-3.466a.9.9,0,0,1,.026-.154Z" transform="translate(6.505 9.487)" fill="#fff"/>
      <path id="Subtraction_41" data-name="Subtraction 41" d="M18.36,49.739h0c-1,0-1.79-.02-2.563-.062a11.258,11.258,0,0,1-1.872-.33l-.143-.032a17.62,17.62,0,0,1-6.376-2.894,16.41,16.41,0,0,1-2.7-2.364,20.4,20.4,0,0,1-2.374-3.245A17.34,17.34,0,0,1,.423,35.833a17.671,17.671,0,0,1-.39-4.97,21.184,21.184,0,0,1,2.922-9.59A23.931,23.931,0,0,1,4.59,18.888a30.533,30.533,0,0,0,3.528-5.732A29.95,29.95,0,0,0,9.793,8.779a25.078,25.078,0,0,0,.784-3.344c.15-.938.252-1.865.325-2.568.031-.3.048-.588.067-.965.014-.26.027-.529.053-.8A1.28,1.28,0,0,1,12.324,0a3.079,3.079,0,0,1,1.007.35l.02.009a24.4,24.4,0,0,1,4.186,2.49A22.861,22.861,0,0,1,20.1,5.089a23,23,0,0,1,3.5,4.568,22.136,22.136,0,0,1,2.531,6.33c.145.622.261,1.283.354,1.814l0,.012.089.5c.023.126.033.259.045.4l.354,2.532,1.674-1.675.367-.525.04-.062.005-.009c.185-.287.4-.613.584-.943.138-.237.26-.487.4-.775l.015-.032.038-.078c.063-.128.12-.244.181-.358a1.258,1.258,0,0,1,1.074-.685,1.394,1.394,0,0,1,.589.141,1.3,1.3,0,0,1,.476.449,10.636,10.636,0,0,1,1.141,2.233A22.517,22.517,0,0,1,34.6,22.43c.205.926.379,1.907.53,3,.1.708.178,1.408.238,2.078L33,29.19c-.009-.159-.02-.331-.035-.543l-.02-.272,0-.041c-.026-.358-.055-.764-.1-1.154-.078-.687-.16-1.278-.249-1.809-.1-.581-.206-1.182-.3-1.711l-.06-.329-.2-1.065-.189-.6-.35-2.175L30.345,21.51l-.8.879c-.14.163-.307.355-.478.545a15.864,15.864,0,0,1-3.134,2.644,1.222,1.222,0,0,1-.681.227,1.141,1.141,0,0,1-.121-.007A1.3,1.3,0,0,1,24,24.311a19.094,19.094,0,0,0,.271-2.17,20.374,20.374,0,0,0-.13-4.091,20.119,20.119,0,0,0-1.1-4.236,19.318,19.318,0,0,0-1.166-2.493,17.971,17.971,0,0,0-2.665-3.7,19.808,19.808,0,0,0-3.911-3.27l.06-.116-.619-.211L14.3,3.8l-.041.065-.887-.3L13.028,5.6c-.059.351-.117.7-.187,1.05a32.722,32.722,0,0,1-1.9,6.3A32.958,32.958,0,0,1,9.5,15.963,26.934,26.934,0,0,1,6.835,20.04a20.058,20.058,0,0,0-3.109,5.342,18.286,18.286,0,0,0-1.182,5.367,16.012,16.012,0,0,0,.184,3.95,15.018,15.018,0,0,0,2.381,5.856,15.194,15.194,0,0,0,6.339,5.36,14.871,14.871,0,0,0,4.544,1.263,17.624,17.624,0,0,0,1.874.1c.374,0,.7-.009.988-.029a16,16,0,0,0,2.645-.364,14.925,14.925,0,0,0,7.348-4.162l2.707.63-.1.122-.012.014a16.1,16.1,0,0,1-1.925,1.969A17.692,17.692,0,0,1,23.7,48.813a16.894,16.894,0,0,1-3.443.809A15.687,15.687,0,0,1,18.36,49.739Z" transform="translate(0 0)" fill="#fff" stroke="rgba(0,0,0,0)" stroke-width="1"/>
      <path id="Path_64160" data-name="Path 64160" d="M37.359,16.763l3.006,3.773L29.81,28.459l-6.338-6.376L7.94,34.058,11.7,38.935l11.23-8.657L29.22,36.6,44.206,25.356l3.152,3.959,1.277-11.277Z" transform="translate(2.414 5.098)" fill="#fff"/>
      <path id="Path_64161" data-name="Path 64161" d="M37.359,16.763l3.006,3.773L29.81,28.459l-6.338-6.376L7.94,34.058,11.7,38.935l11.23-8.657L29.22,36.6,44.206,25.356l3.152,3.959,1.277-11.277Z" transform="translate(2.414 5.098)" fill="#ff0089" stroke="#3b2579" stroke-width="1"/>
    </g>
  </g>
</svg>
