<svg xmlns="http://www.w3.org/2000/svg" width="40.714" height="41.6" viewBox="0 0 40.714 41.6">
  <g id="Group_19577" data-name="Group 19577" transform="translate(1 -2.895)">
    <g id="Group_19578" data-name="Group 19578" transform="translate(0 3.895)">
      <path id="Path_76772" data-name="Path 76772" d="M5.791,26.427H1.754C.785,26.427,0,25.949,0,25.359V1.069C0,.478.785,0,1.754,0H5.791c.97,0,1.754.478,1.754,1.069v24.29c0,.591-.785,1.069-1.754,1.069" transform="translate(0 13.173)" fill="#fff" stroke="#1f2b7d" stroke-width="2"/>
      <path id="Subtraction_86" data-name="Subtraction 86" d="M.039,18.078v0L0,.778C0,.349.787,0,1.755,0H5.791c.968,0,1.755.349,1.755.778v15.4a8.7,8.7,0,0,0-1.925-.214,8.149,8.149,0,0,0-5.58,2.113Z" transform="translate(26.409 0)" fill="#fff" stroke="#1f2b7d" stroke-width="2"/>
      <path id="Path_76773" data-name="Path 76773" d="M12.791,37.981H8.754A1.729,1.729,0,0,1,7,36.277V6.7A1.729,1.729,0,0,1,8.754,5h4.037a1.729,1.729,0,0,1,1.754,1.7V36.277a1.729,1.729,0,0,1-1.754,1.7" transform="translate(6.205 1.619)" fill="#fff" stroke="#1f2b7d" stroke-width="2"/>
      <g id="Group_19579" data-name="Group 19579" transform="translate(25.437 18.974)">
        <path id="Path_76774" data-name="Path 76774" d="M21.547,22.408h-4.09a.62.62,0,1,0,0,1.239h.272l-.013.158a.67.67,0,0,0,.5.647l.136.04-.055.125a.428.428,0,0,0-.034.166.453.453,0,0,0,.464.441h1.554a.453.453,0,0,0,.464-.441.429.429,0,0,0-.034-.166l-.055-.125.136-.04a.667.667,0,0,0,.5-.634l-.009-.172h.268a.621.621,0,1,0,0-1.239" transform="translate(-12.369 -4.66)" fill="#fff"/>
        <path id="Path_76775" data-name="Path 76775" d="M21.592,13a7.146,7.146,0,0,0-7.138,7.138,7.046,7.046,0,0,0,1.528,4.4c.206.262.432.523.63.753a7.225,7.225,0,0,1,1.69,2.639,4.362,4.362,0,0,1,.07,1.007v.555a.793.793,0,0,0,.792.792h4.816a.793.793,0,0,0,.792-.792v-.562A4.259,4.259,0,0,1,24.841,28a8.026,8.026,0,0,1,1.769-2.747l.03-.036c.206-.241.39-.458.562-.675a7.051,7.051,0,0,0,1.528-4.4A7.146,7.146,0,0,0,21.592,13m4.052,8.114a.512.512,0,0,1-.6.387.5.5,0,0,1-.387-.6,3.069,3.069,0,0,0-2.32-3.631.494.494,0,0,1-.315-.223.505.505,0,0,1,.424-.775.438.438,0,0,1,.111.013,4.079,4.079,0,0,1,3.086,4.829" transform="translate(-14.454 -14)" fill="#ff0089"/>
      </g>
      <path id="Path_76776" data-name="Path 76776" d="M18.034,14.522v-.468c-.017.038-.055.06-.064.1a.584.584,0,0,0,.064.364" transform="translate(15.921 8.67)"/>
    </g>
  </g>
</svg>
