<svg xmlns="http://www.w3.org/2000/svg" width="54.204" height="42.687" viewBox="0 0 54.204 42.687">
  <g id="Group_19573" data-name="Group 19573" transform="translate(0.15 0.15)">
    <g id="Group_19575" data-name="Group 19575" transform="translate(0 0)">
      <path id="Path_76760" data-name="Path 76760" d="M53.9,16.351l0-5.166a.9.9,0,0,0-.013-.117.759.759,0,0,0-.035-.148.894.894,0,0,0-.073-.177c-.027-.048-.05-.083-.067-.108L47.334.6A1.756,1.756,0,0,0,45.968,0H7.934a1.738,1.738,0,0,0-1.4.648L.217,10.59c-.044.065-.069.1-.083.125a1.078,1.078,0,0,0-.079.173,1.109,1.109,0,0,0-.037.142A.705.705,0,0,0,0,11.183l0,5.168c0,2.939,2.479,5.484,6.03,6.192l.31.062V41.146a1.453,1.453,0,0,0,1.595,1.241H45.968a1.455,1.455,0,0,0,1.6-1.241V22.6l.308-.062c3.551-.706,6.032-3.251,6.032-6.192M8.857,2.483H45.045l4.51,7.49H4.343Zm29.175,9.973v3.895c0,2.148-2.125,3.895-4.743,3.895S28.55,18.5,28.55,16.351V12.456Zm-12.679,0v3.895c0,2.148-2.125,3.895-4.739,3.895S15.87,18.5,15.87,16.351V12.456ZM3.191,16.351V12.456h9.488v3.895c0,2.148-2.129,3.895-4.745,3.895S3.191,18.5,3.191,16.351M44.37,39.9H35.141v-.035H16.482l-.156.031-6.8,0V22.6l.31-.062a8.47,8.47,0,0,0,4.166-2.093l.267-.254.265.254a8.815,8.815,0,0,0,6.074,2.279,8.814,8.814,0,0,0,6.072-2.279l.265-.254.267.254a9.228,9.228,0,0,0,12.145,0l.265-.254.267.254a8.454,8.454,0,0,0,4.166,2.093l.308.062Zm6.34-23.552c0,2.148-2.125,3.895-4.741,3.895s-4.741-1.746-4.741-3.895V12.456h9.483Z" transform="translate(0 0.001)" fill="#fff" stroke="#212a66" stroke-width="0.3"/>
      <path id="Subtraction_85" data-name="Subtraction 85" d="M10664.246,3716.258h-38.032c-.773,0-1.4-.471-1.4-1.05v-18.7l-.464-.091c-3.46-.685-5.876-3.154-5.876-6l0-5.166a.449.449,0,0,1,.013-.118l0-.015a.793.793,0,0,1,.026-.1.683.683,0,0,1,.066-.147c.011-.019.021-.038.043-.07l6.34-9.974a1.538,1.538,0,0,1,1.248-.571h38.032a1.561,1.561,0,0,1,1.2.506l6.383,10.046a.2.2,0,0,1,.023.038l.006.008a.093.093,0,0,1,.014.019l.019.027,0,.013.006.013,0,.009c.011.026.022.055.041.109a1,1,0,0,1,.032.128.282.282,0,0,1,.006.075l0,5.166c0,2.848-2.417,5.316-5.873,6l-.466.091v18.7C10665.649,3715.787,10665.02,3716.258,10664.246,3716.258Zm-29.486-2.135h18.468v.038h9.612v-17.65l-.461-.094a8.221,8.221,0,0,1-4.071-2.043l-.4-.378-.4.378a9.025,9.025,0,0,1-11.875,0l-.4-.378-.4.378a9.03,9.03,0,0,1-11.879,0l-.4-.378-.4.378a8.279,8.279,0,0,1-4.071,2.043l-.463.094v17.65l7.025-.008.117-.03Zm-7.734-37.767-4.746,7.875h45.893l-4.743-7.874h-36.4Z" transform="translate(-10618.276 -3674.064)" fill="#fff" stroke="#212a66" stroke-width="0.3"/>
      <path id="Path_76763" data-name="Path 76763" d="M26.267,14.553c-2.72,0-4.932-1.835-4.932-4.087V6.376H31.2v4.089c0,2.252-2.212,4.087-4.932,4.087" transform="translate(19.701 5.889)" fill="#fff" stroke="#212a66" stroke-width="0.3"/>
      <path id="Path_76764" data-name="Path 76764" d="M21.534,6.576v3.7c0,2.043,2.043,3.7,4.549,3.7s4.549-1.662,4.549-3.7v-3.7Z" transform="translate(19.885 6.073)" fill="#ff0089" stroke="#212b69" stroke-width="1.5"/>
      <path id="Path_76765" data-name="Path 76765" d="M19.676,14.553c-2.72,0-4.932-1.835-4.932-4.087V6.376h9.865v4.089c0,2.252-2.212,4.087-4.934,4.087" transform="translate(13.615 5.889)" fill="#fff" stroke="#212a66" stroke-width="0.3"/>
      <path id="Path_76766" data-name="Path 76766" d="M14.942,6.576v3.7c0,2.043,2.043,3.7,4.549,3.7s4.551-1.662,4.551-3.7v-3.7Z" transform="translate(13.798 6.073)" fill="#ff0089" stroke="#212b69" stroke-width="1.5"/>
      <path id="Path_76767" data-name="Path 76767" d="M13.086,14.553c-2.722,0-4.934-1.835-4.934-4.087V6.376h9.865v4.089c0,2.252-2.212,4.087-4.932,4.087" transform="translate(7.528 5.889)" fill="#fff" stroke="#212a66" stroke-width="0.3"/>
      <path id="Path_76768" data-name="Path 76768" d="M8.351,6.576v3.7c0,2.043,2.043,3.7,4.551,3.7s4.549-1.662,4.549-3.7v-3.7Z" transform="translate(7.712 6.073)" fill="#ff0089" stroke="#212b69" stroke-width="1.5"/>
      <path id="Path_76769" data-name="Path 76769" d="M6.5,14.553c-2.722,0-4.936-1.835-4.936-4.087V6.376h9.871v4.089c0,2.252-2.212,4.087-4.936,4.087" transform="translate(1.441 5.889)" fill="none"/>
      <path id="Path_76771" data-name="Path 76771" d="M6.218,13.891c2.4,0,4.357-1.618,4.357-3.609V6.676H1.86v3.607c0,1.99,1.954,3.609,4.358,3.609" transform="translate(1.718 5.973)" fill="#ff0089" stroke="#212b69" stroke-width="1.5"/>
    </g>
  </g>
</svg>
