<svg xmlns="http://www.w3.org/2000/svg" width="49.018" height="49.327" viewBox="0 0 49.018 49.327">
  <g id="Group_19585" data-name="Group 19585" transform="translate(0 0)">
    <g id="Group_19586" data-name="Group 19586" transform="translate(0 0)">
      <path id="Path_76786" data-name="Path 76786" d="M29.47,44.9a1.145,1.145,0,0,0-.761-.775l-4.2-1.337L7.79,42.77A4.2,4.2,0,0,1,3.6,38.581V22.807h.087l-.01-.368a2.963,2.963,0,0,1,.8-2.107L18.731,4.625a3.15,3.15,0,0,1,4.651,0L37.635,20.333a2.97,2.97,0,0,1,.8,2.107l-.011.368h.046V23.98l.827.629a1.2,1.2,0,0,0,1.1.18l1.675-.541V22.092h-.03a6.575,6.575,0,0,0-1.7-4.165L26.088,2.218a6.815,6.815,0,0,0-10.063,0L1.772,17.927a6.575,6.575,0,0,0-1.7,4.165H0V38.581a7.8,7.8,0,0,0,7.79,7.79H29.9Z" transform="translate(0 0)" fill="#fff"/>
      <path id="Path_76787" data-name="Path 76787" d="M41.41,33.508l-3.757-5.182a.738.738,0,0,1-.093-.692L39.8,21.57a1.444,1.444,0,0,0-.31-1.515,1.475,1.475,0,0,0-1.532-.378l-6.21,2.007a.774.774,0,0,1-.709-.116l-5.113-3.886a1.5,1.5,0,0,0-2.4,1.173l-.08,6.422a.774.774,0,0,1-.345.631l-5.4,3.661a1.476,1.476,0,0,0-.642,1.44,1.445,1.445,0,0,0,1,1.177l6.161,1.961a.738.738,0,0,1,.489.5l1.775,6.15a1.451,1.451,0,0,0,1.144,1.028,1.494,1.494,0,0,0,1.479-.582l3.889-5.21a.892.892,0,0,1,.655-.32l6.5.14a1.558,1.558,0,0,0,1.37-.809,1.449,1.449,0,0,0-.107-1.535" transform="translate(7.33 7.477)" fill="#ff0089"/>
    </g>
  </g>
</svg>
