<svg xmlns="http://www.w3.org/2000/svg" width="81.22" height="59.651" viewBox="0 0 81.22 59.651">
  <g id="Group_17354" data-name="Group 17354" transform="translate(0.5 0.5)">
    <g id="Group_16332" data-name="Group 16332" transform="translate(0 0)">
      <path id="Subtraction_42" data-name="Subtraction 42" d="M30.124,56.034h0l-2.173-2.027c-3.586-3.39-7.276-6.615-11.381-10.177l-.826-.715c-2.35-2.028-5.013-4.328-7.423-6.747a32.131,32.131,0,0,1-5.085-6.341A22.538,22.538,0,0,1,.395,21.971a32.465,32.465,0,0,1-.373-6.216A15.815,15.815,0,0,1,10.185,1.225,18.031,18.031,0,0,1,16.547,0h.046A16.86,16.86,0,0,1,27.7,4.425,18.824,18.824,0,0,1,30.141,7,18.432,18.432,0,0,1,37.31,1.386,16.112,16.112,0,0,1,43.786.036c.083,0,.165,0,.247,0,.394,0,.792.03,1.165.061A16.091,16.091,0,0,1,60.083,13.941a26.4,26.4,0,0,1,.18,3.787l-3.531-1.272c-.02-.687-.07-1.382-.152-2.066A12.553,12.553,0,0,0,44.945,3.612c-.358-.027-.656-.047-.971-.047l-.186,0a12.6,12.6,0,0,0-5.061,1.054A14.865,14.865,0,0,0,32.66,9.537c-.256.342-.478.669-.692.986l-1.9,2.741-1.616-2.5a15.72,15.72,0,0,0-3.112-3.708,13.366,13.366,0,0,0-8.784-3.526,14.538,14.538,0,0,0-5.1.986A12.327,12.327,0,0,0,3.551,15.849a29.229,29.229,0,0,0,.332,5.585,19.067,19.067,0,0,0,2.379,6.78A28.766,28.766,0,0,0,10.8,33.849c2.279,2.29,4.758,4.434,7.157,6.508l.1.084.831.719c4.05,3.516,7.692,6.7,11.256,10.054l.1-.093.021-.019c.728-.687,1.553-1.466,2.371-2.187,1.767-1.564,3.487-3.079,4.789-4.224l2.535,2.474c-1.607,1.414-3.378,2.975-4.986,4.4-.784.694-1.568,1.433-2.3,2.131l-2.537,2.341ZM48.934,39.259l0,0L59.391,24.279c-.16.62-.34,1.221-.532,1.786A24.191,24.191,0,0,1,54.151,34,68.042,68.042,0,0,1,48.934,39.259Z" fill="#fff" stroke="rgba(0,0,0,0)" stroke-width="1"/>
      <path id="Path_64156" data-name="Path 64156" d="M32.113,10.644a12.254,12.254,0,0,0-4.319.832A10.633,10.633,0,0,0,21,21.211a23.1,23.1,0,0,0,.267,4.428A15.679,15.679,0,0,0,23.22,31.2a23.018,23.018,0,0,0,3.634,4.525c1.949,1.956,4.049,3.74,6.134,5.546,2.908,2.523,5.8,5.046,8.6,7.689.24.228.482.454.733.685l.154-.139c.867-.807,1.714-1.631,2.6-2.414,3.123-2.765,6.263-5.512,9.39-8.272A50.127,50.127,0,0,0,59.384,34a16.853,16.853,0,0,0,3.275-5.511,17.562,17.562,0,0,0,.872-4.216,18.466,18.466,0,0,0-.009-4.292,10.755,10.755,0,0,0-9.985-9.273c-.314-.025-.629-.037-.939-.037a10.867,10.867,0,0,0-4.349.9,12.527,12.527,0,0,0-5.112,4.137c-.284.383-.542.784-.828,1.2-.048-.072-.085-.132-.12-.182a13.131,13.131,0,0,0-2.6-3.1,11.339,11.339,0,0,0-7.474-2.979" transform="translate(16.068 8.15)" fill="#fff"/>
      <path id="Path_64157" data-name="Path 64157" d="M32.113,10.644a12.254,12.254,0,0,0-4.319.832A10.633,10.633,0,0,0,21,21.211a23.1,23.1,0,0,0,.267,4.428A15.679,15.679,0,0,0,23.22,31.2a23.018,23.018,0,0,0,3.634,4.525c1.949,1.956,4.049,3.74,6.134,5.546,2.908,2.523,5.8,5.046,8.6,7.689.24.228.482.454.733.685l.154-.139c.867-.807,1.714-1.631,2.6-2.414,3.123-2.765,6.263-5.512,9.39-8.272A50.127,50.127,0,0,0,59.384,34a16.853,16.853,0,0,0,3.275-5.511,17.562,17.562,0,0,0,.872-4.216,18.466,18.466,0,0,0-.009-4.292,10.755,10.755,0,0,0-9.985-9.273c-.314-.025-.629-.037-.939-.037a10.867,10.867,0,0,0-4.349.9,12.527,12.527,0,0,0-5.112,4.137c-.284.383-.542.784-.828,1.2-.048-.072-.085-.132-.12-.182a13.131,13.131,0,0,0-2.6-3.1,11.339,11.339,0,0,0-7.474-2.979" transform="translate(16.068 8.15)" fill="#ff0089" stroke="#3b2579" stroke-width="2"/>
    </g>
  </g>
</svg>
