<svg id="Group_19569" data-name="Group 19569" xmlns="http://www.w3.org/2000/svg" width="55.174" height="43.885" viewBox="0 0 55.174 43.885">
  <g id="Group_19570" data-name="Group 19570" transform="translate(0 0)">
    <path id="Path_76756" data-name="Path 76756" d="M44.869,18.405a13.8,13.8,0,0,0-2.527-3.2l-3.059,1.028a10.876,10.876,0,0,0-1.946-1.09L36.627,12a13.749,13.749,0,0,0-4.067-.482l-1.434,2.889a10.782,10.782,0,0,0-2.124.6l-2.729-1.722a13.78,13.78,0,0,0-3.223,2.533l1.028,3.057A10.928,10.928,0,0,0,23,20.8l-3.147.713a13.689,13.689,0,0,0-.493,4.065l2.882,1.431a10.854,10.854,0,0,0,.6,2.147l-1.722,2.729A13.7,13.7,0,0,0,23.632,35.1l3.05-1.025a10.8,10.8,0,0,0,1.967,1.112l.711,3.141a13.715,13.715,0,0,0,4.041.49l1.429-2.877a10.756,10.756,0,0,0,2.2-.616l2.722,1.718a13.819,13.819,0,0,0,3.2-2.511l-1.025-3.05a10.952,10.952,0,0,0,1.119-1.992l3.134-.709a13.721,13.721,0,0,0,.478-4.042L43.769,23.3a10.937,10.937,0,0,0-.616-2.174ZM38.222,31.8a8.44,8.44,0,1,1,1.42-11.852A8.45,8.45,0,0,1,38.222,31.8" transform="translate(8.515 5.066)" fill="#ff0089"/>
    <path id="Path_76757" data-name="Path 76757" d="M26.428,17.13A8.672,8.672,0,1,0,38.6,18.59,8.681,8.681,0,0,0,26.428,17.13m9.782,12.445a7.158,7.158,0,1,1,1.2-10.05,7.158,7.158,0,0,1-1.2,10.05" transform="translate(9.735 6.286)" fill="#ff0089"/>
    <path id="Path_76758" data-name="Path 76758" d="M27.236,31.814H21.988a2.214,2.214,0,0,0-1.228.37L12.2,37.849v-3.81a2.227,2.227,0,0,0-2.225-2.225H5.587A2.486,2.486,0,0,1,3.1,29.33V5.587A2.486,2.486,0,0,1,5.587,3.1h33.83A2.485,2.485,0,0,1,41.9,5.587v7.907l3.1.469V5.587A5.593,5.593,0,0,0,39.417,0H5.587A5.594,5.594,0,0,0,0,5.587V29.33a5.594,5.594,0,0,0,5.587,5.587H9.1v4.977a2,2,0,0,0,3.109,1.67l10.042-6.647H27.7Z" transform="translate(0 0)" fill="#fff"/>
  </g>
</svg>
