<svg xmlns="http://www.w3.org/2000/svg" xmlns:xlink="http://www.w3.org/1999/xlink" width="18.969" height="13.356" viewBox="0 0 18.969 13.356">
  <defs>
    <clipPath id="clip-path">
      <rect id="Rectangle_19519" data-name="Rectangle 19519" width="18.969" height="13.356" fill="#27c6da"/>
    </clipPath>
  </defs>
  <g id="Group_34736" data-name="Group 34736" transform="translate(0)">
    <g id="Group_34735" data-name="Group 34735" transform="translate(0 0)" clip-path="url(#clip-path)">
      <path id="Path_83425" data-name="Path 83425" d="M16.548,7.378H14.633q-6.911,0-13.823,0a1.038,1.038,0,0,1-.37-.053.684.684,0,0,1-.431-.716A.7.7,0,0,1,.7,6.041q1.624-.007,3.248,0h8.963q1.695,0,3.391,0h.326c-.11-.125-.164-.2-.228-.259Q14.15,3.527,11.894,1.276A.745.745,0,0,1,11.6.5.666.666,0,0,1,12.75.225c.388.371.761.758,1.14,1.137q2.4,2.4,4.794,4.79A.661.661,0,0,1,18.7,7.232q-2.921,2.923-5.843,5.845a.683.683,0,0,1-1.14-.052.735.735,0,0,1,.19-.9q1.137-1.14,2.281-2.275,1.105-1.1,2.212-2.208c.065-.065.125-.136.186-.2l-.032-.062" transform="translate(0 0.001)" fill="#27c6da"/>
    </g>
  </g>
</svg>
