<svg xmlns="http://www.w3.org/2000/svg" width="1419.948" height="578.103" viewBox="0 0 1419.948 578.103">
  <g id="Group_32107" data-name="Group 32107" transform="translate(19.947 -1407.67)">
    <path id="Path_80095" data-name="Path 80095" d="M1116.3-39.337C946.032-112.207,714.024-8.5,554.956,95.966c-126.588,83.069-265.981-3.78-405.89,98.7-25.207,18.453-41.351,38.134-49.475,58.543-10.048,25.052-8.106,51.163,3.321,77.442H1116.3Z" transform="translate(283.704 1655.119)" fill="#73008e"/>
    <path id="Path_80096" data-name="Path 80096" d="M861.412,402.09c-75.289-30.78-165.511-49.951-259.817-59.011-70.06-7.36-126.055-11.505-175.99-31.919-62.372-25.488-72.7-56.156-84.678-95.235-18.462-63.6-85.657-124.908-201.511-172.277C96.487,26.106,49.546,11.6,0,0V578.1H1035.295c.684-64.262-57.6-128.468-173.883-176.006" transform="translate(-19.947 1407.67)" fill="#4435ad"/>
  </g>
</svg>
