<svg xmlns="http://www.w3.org/2000/svg" xmlns:xlink="http://www.w3.org/1999/xlink" width="23.279" height="18.355" viewBox="0 0 23.279 18.355">
  <defs>
    <clipPath id="clip-path">
      <rect id="Rectangle_13912" data-name="Rectangle 13912" width="23.279" height="18.355" transform="translate(0 0)" fill="#a6a9d0"/>
    </clipPath>
  </defs>
  <g id="Group_19634" data-name="Group 19634" transform="translate(0 0)">
    <g id="Group_19636" data-name="Group 19636" transform="translate(0 0)" clip-path="url(#clip-path)">
      <path id="Path_76850" data-name="Path 76850" d="M23.277,4.891a.5.5,0,0,0-.007-.068.558.558,0,0,0-.019-.077.54.54,0,0,0-.04-.093.7.7,0,0,0-.038-.061L20.453.312A.859.859,0,0,0,19.77,0H3.51a.86.86,0,0,0-.691.322L.114,4.579a.636.636,0,0,0-.045.07.607.607,0,0,0-.038.084.552.552,0,0,0-.02.074A.4.4,0,0,0,0,4.894L0,7.107A3.031,3.031,0,0,0,2.71,9.876v7.831a.736.736,0,0,0,.8.647H19.77a.735.735,0,0,0,.8-.647V9.876a3.031,3.031,0,0,0,2.71-2.769ZM13.708,17.06H9.571m-1.283,0H4.308V9.876a3.722,3.722,0,0,0,1.911-.964h0a3.868,3.868,0,0,0,2.71,1.04,3.867,3.867,0,0,0,2.71-1.039h0a4.051,4.051,0,0,0,5.419,0h0a3.723,3.723,0,0,0,1.911.965V17.06H14.991M5.421,7.107A1.761,1.761,0,0,1,3.51,8.656,1.761,1.761,0,0,1,1.6,7.107V5.559H5.421ZM19.308,1.295,21.1,4.263H2.181L3.97,1.295ZM7.019,7.107V5.559h3.822V7.107A1.761,1.761,0,0,1,8.929,8.656,1.76,1.76,0,0,1,7.019,7.107m5.42,0V5.559h3.822V7.107a1.76,1.76,0,0,1-1.911,1.549,1.76,1.76,0,0,1-1.911-1.549m9.242-1.549V7.107A1.76,1.76,0,0,1,19.77,8.656a1.761,1.761,0,0,1-1.911-1.549V5.559Z" transform="translate(0 0)" fill="#a6a9d0"/>
    </g>
  </g>
</svg>
