<svg xmlns="http://www.w3.org/2000/svg" xmlns:xlink="http://www.w3.org/1999/xlink" width="19.334" height="15.245" viewBox="0 0 19.334 15.245">
  <defs>
    <clipPath id="clip-path">
      <rect id="Rectangle_13912" data-name="Rectangle 13912" width="19.334" height="15.245" transform="translate(0 0)" fill="#a6a9d0"/>
    </clipPath>
  </defs>
  <g id="Group_19634" data-name="Group 19634" transform="translate(0 0)">
    <g id="Group_19636" data-name="Group 19636" transform="translate(0 0)" clip-path="url(#clip-path)">
      <path id="Path_76850" data-name="Path 76850" d="M19.333,4.062a.413.413,0,0,0-.006-.057.464.464,0,0,0-.016-.064.448.448,0,0,0-.033-.078.584.584,0,0,0-.031-.051L16.988.259A.713.713,0,0,0,16.42,0H2.915a.715.715,0,0,0-.574.267L.095,3.8a.528.528,0,0,0-.037.058.5.5,0,0,0-.031.07.458.458,0,0,0-.016.062A.329.329,0,0,0,0,4.065L0,5.9A2.518,2.518,0,0,0,2.251,8.2v6.5a.611.611,0,0,0,.664.537h13.5a.611.611,0,0,0,.663-.537V8.2a2.517,2.517,0,0,0,2.251-2.3ZM11.385,14.169H7.949m-1.065,0H3.578V8.2a3.091,3.091,0,0,0,1.587-.8h0a3.213,3.213,0,0,0,2.251.864A3.212,3.212,0,0,0,9.667,7.4h0a3.365,3.365,0,0,0,4.5,0h0a3.092,3.092,0,0,0,1.587.8v5.966h-3.3M4.5,5.9A1.462,1.462,0,0,1,2.915,7.189,1.463,1.463,0,0,1,1.327,5.9V4.617H4.5ZM16.037,1.075l1.486,2.466H1.811L3.3,1.075ZM5.829,5.9V4.617H9V5.9A1.462,1.462,0,0,1,7.416,7.189,1.462,1.462,0,0,1,5.829,5.9m4.5,0V4.617h3.174V5.9a1.462,1.462,0,0,1-1.587,1.286A1.462,1.462,0,0,1,10.331,5.9m7.676-1.286V5.9A1.462,1.462,0,0,1,16.42,7.189,1.462,1.462,0,0,1,14.832,5.9V4.617Z" transform="translate(0 0)" fill="#a6a9d0"/>
    </g>
  </g>
</svg>
