<svg xmlns="http://www.w3.org/2000/svg" width="113.981" height="76.842" viewBox="0 0 113.981 76.842">
  <g id="Group_19550" data-name="Group 19550" transform="translate(1.995 2)">
    <g id="Group_19551" data-name="Group 19551" transform="translate(0 0)">
      <path id="Path_76741" data-name="Path 76741" d="M55.519,0Q71.785,0,88.05,0A21.6,21.6,0,0,1,99.088,2.8a22.209,22.209,0,0,1,8.381,8.694,20.3,20.3,0,0,1,2.5,9.812c.026,2.665.016,5.331,0,8a4.4,4.4,0,0,1-1.787,3.774,4.029,4.029,0,0,1-4.355.41,4.144,4.144,0,0,1-2.436-3.919c-.026-1.431.006-2.862-.01-4.293a52.3,52.3,0,0,0-.124-5.627A12.7,12.7,0,0,0,90.98,8.814,15.729,15.729,0,0,0,88.258,8.6Q54.814,8.58,21.37,8.59A12.931,12.931,0,0,0,8.644,20.258c-.022.267-.02.537-.02.8,0,10.161-.035,20.322.015,30.482A12.286,12.286,0,0,0,13.721,61.6a12.209,12.209,0,0,0,7.625,2.591c4.652,0,9.3.023,13.957,0a5.817,5.817,0,0,0,5.868-4.145,18.633,18.633,0,0,1,3.254-6.054c3.079-3.426,6.882-5.316,11.527-5.012a13.538,13.538,0,0,1,11.5,7.16c.814,1.44,1.442,2.988,2.131,4.5a5.606,5.606,0,0,0,5.57,3.583c4.42-.038,8.842-.1,13.259,0a13.048,13.048,0,0,0,12.582-9.754c.283-1.227.332-2.508.494-3.763a4.182,4.182,0,0,1,4.075-3.69,4.228,4.228,0,0,1,4.314,3.5,13.043,13.043,0,0,1-.34,4.892A21.47,21.47,0,0,1,88.47,72.761c-4.545.027-9.093.113-13.634-.021-6.034-.177-10.471-2.98-13.057-8.517-.537-1.148-.976-2.343-1.542-3.476a5.526,5.526,0,0,0-10.033.021c-.683,1.414-1.217,2.9-1.957,4.286a13.661,13.661,0,0,1-12.376,7.688c-4.9.127-9.809.144-14.707-.009A20.853,20.853,0,0,1,4.373,64.187,21.2,21.2,0,0,1,.037,51.246C.026,41.156-.057,31.066.072,20.979A20.168,20.168,0,0,1,5.407,7.355,21.27,21.27,0,0,1,21.592,0Q38.556.006,55.519,0" transform="translate(-0.001 0)" fill="#fff" stroke="#383c34" stroke-width="4"/>
      <path id="Path_76742" data-name="Path 76742" d="M34.032,23.429A12.8,12.8,0,0,1,46.945,36.565,12.614,12.614,0,0,1,34,49.154a12.863,12.863,0,0,1,.036-25.725m.1,8.586A4.233,4.233,0,0,0,29.8,36.244a4.309,4.309,0,1,0,4.331-4.229" transform="translate(-2.943 -3.247)" fill="#fff" stroke="#383c34" stroke-width="4"/>
      <path id="Path_76743" data-name="Path 76743" d="M89.4,23.428A12.87,12.87,0,1,1,76.6,36.2,12.836,12.836,0,0,1,89.4,23.428m4.38,12.921a4.287,4.287,0,0,0-4.211-4.36,4.314,4.314,0,1,0,4.211,4.36" transform="translate(-10.618 -3.247)" fill="#fff" stroke="#383c34" stroke-width="4"/>
    </g>
  </g>
</svg>
