<svg xmlns="http://www.w3.org/2000/svg" xmlns:xlink="http://www.w3.org/1999/xlink" width="88.582" height="97.663" viewBox="0 0 88.582 97.663">
  <defs>
    <clipPath id="clip-path">
      <rect id="Rectangle_19562" data-name="Rectangle 19562" width="88.582" height="97.663" transform="translate(0 0)" fill="#27c6da"/>
    </clipPath>
  </defs>
  <g id="Group_34746" data-name="Group 34746" transform="translate(0 0)">
    <g id="Group_34745" data-name="Group 34745" clip-path="url(#clip-path)">
      <path id="Path_83430" data-name="Path 83430" d="M14.365,40.389c2.037.795,3.821,1.505,5.615,2.191q11.754,4.5,23.507,8.995a2.715,2.715,0,0,0,2.078-.013Q59.53,46.24,73.5,40.94c.266-.1.509-.261,1-.516-1.33-.627-2.46-1.173-3.6-1.7-2.681-1.231-5.373-2.438-8.045-3.688-.428-.2-1-.507-1.107-.877a2.386,2.386,0,0,1,.192-1.714,1.313,1.313,0,0,1,1.775-.308q3.309,1.51,6.62,3.019c2.8,1.284,5.613,2.541,8.382,3.888a3.608,3.608,0,0,1,1.523,1.409c2.691,4.991,5.315,10.019,7.958,15.036.734,1.4.417,2.231-1.06,2.73-2.08.7-4.157,1.418-6.253,2.068A1.285,1.285,0,0,0,79.8,61.738c.029,6.7-.016,13.4.011,20.093a2.049,2.049,0,0,1-1.479,2.141Q61.758,90.718,45.191,97.481a2.19,2.19,0,0,1-1.483.088Q28.535,91.426,13.393,85.212c-1-.409-1.994-.838-3.005-1.221-1.33-.5-1.525-.753-1.525-2.161,0-6.369-.02-12.739.027-19.108a1.3,1.3,0,0,0-1.118-1.5C5.747,60.676,3.74,60.061,1.719,59.5c-1.6-.442-2.1-1.293-1.431-2.656C2.966,51.369,5.672,45.9,8.345,40.426A3.025,3.025,0,0,1,10,38.866c5.01-2.121,10-4.289,15-6.44a4.469,4.469,0,0,1,.465-.159,1.485,1.485,0,0,1,2.046.778A1.575,1.575,0,0,1,26.5,35.1c-1.835.794-3.68,1.566-5.522,2.343-1.873.789-3.75,1.567-5.619,2.363a10.476,10.476,0,0,0-.991.582M76.944,61.93c-3.069,1-5.96,1.945-8.85,2.892-5.012,1.643-10.02,3.3-15.038,4.928-1.526.494-2.119.231-2.864-1.214-1.171-2.272-2.305-4.563-3.463-6.842a5.3,5.3,0,0,0-.446-.631l-.259.093v1.053q0,4.086,0,8.172-.015,11.225-.035,22.449c0,1.024.1,1.089,1.078.69q14.466-5.913,28.94-11.809a1.372,1.372,0,0,0,1.025-1.51c-.027-5.744-.008-11.488-.009-17.233,0-.285-.043-.571-.081-1.038m-33.9-.211-.227-.044c-.156.316-.328.625-.465.95-.8,1.9-1.586,3.812-2.4,5.708-.527,1.224-1.208,1.6-2.291,1.293q-5.676-1.606-11.346-3.231c-4.351-1.238-8.7-2.481-13.054-3.7-1.135-.318-1.175-.263-1.176.9,0,4.858-.037,9.717.009,14.574.034,3.6-.659,2.679,2.754,4.086q12.54,5.17,25.106,10.275c.981.4,1.975.773,3.094,1.21ZM3.772,56.735a10.671,10.671,0,0,0,1.037.42c5.292,1.512,10.59,3,15.881,4.521q7.749,2.223,15.486,4.487c.76.222,1.22.179,1.582-.711,1.385-3.4,2.845-6.764,4.347-10.111.368-.82.125-1.077-.606-1.351Q34.045,51.2,26.614,48.35q-7.391-2.824-14.765-5.688c-.708-.275-1.111-.173-1.454.587-.8,1.76-1.7,3.47-2.553,5.2-1.343,2.726-2.681,5.455-4.07,8.282M84.8,55.917a1.371,1.371,0,0,0-.021-.343c-2.164-4.159-4.339-8.312-6.491-12.477-.286-.553-.615-.532-1.122-.338Q62.79,48.243,48.4,53.706c-.563.214-1.1.488-1.711.76,1.834,3.734,3.628,7.3,5.334,10.914a1.18,1.18,0,0,0,1.757.729c2.194-.775,4.408-1.494,6.62-2.216q11.312-3.687,22.626-7.364c.607-.2,1.207-.417,1.77-.612" fill="#27c6da"/>
      <path id="Path_83431" data-name="Path 83431" d="M44.091,38.968c-1.543,0-3.086.011-4.628,0a1.674,1.674,0,0,1-1.854-1.716,16.059,16.059,0,0,0-2.921-8.642A12.493,12.493,0,0,1,39.3,10.621a11.356,11.356,0,0,1,15.651,6.412,12.6,12.6,0,0,1-1.531,11.984,15.952,15.952,0,0,0-2.678,8.02c-.112,1.441-.588,1.918-2.026,1.928-1.543.011-3.086,0-4.628,0m-1.326-9.82H42.8c0-2.069-.016-4.137.008-6.206a1.466,1.466,0,0,1,1.341-1.566,1.437,1.437,0,0,1,1.658,1.08,3.153,3.153,0,0,1,.07.975q.006,5.763,0,11.526c0,.578.114.967.812.911.56-.044,1.115.159,1.251-.782a19.471,19.471,0,0,1,3.265-8.15,9.376,9.376,0,0,0,1.382-7.245,8.528,8.528,0,0,0-10.515-6.8A9.012,9.012,0,0,0,35.943,23.5a20.507,20.507,0,0,0,2.022,4.429,21.572,21.572,0,0,1,2.6,7.279c.133,1.007.837.8,1.473.829.731.031.742-.436.738-.976-.015-1.97-.006-3.941-.006-5.911" fill="#27c6da"/>
      <path id="Path_83432" data-name="Path 83432" d="M44.209,44.585c-.885,0-1.77.012-2.655,0A1.434,1.434,0,0,1,40.043,43.2a1.418,1.418,0,0,1,1.339-1.632c1.931-.059,3.866-.04,5.8.033a1.315,1.315,0,0,1,1.269,1.479,1.431,1.431,0,0,1-1.388,1.493c-.948.048-1.9.011-2.851.011v0" fill="#27c6da"/>
      <path id="Path_83433" data-name="Path 83433" d="M45.87,2.691a10,10,0,0,1-.009,1.273A1.426,1.426,0,0,1,44.321,5.3a1.361,1.361,0,0,1-1.477-1.284,12.994,12.994,0,0,1-.019-2.739A1.365,1.365,0,0,1,44.4,0a1.4,1.4,0,0,1,1.446,1.319,9.067,9.067,0,0,1,.013,1.37h.015" fill="#27c6da"/>
      <path id="Path_83434" data-name="Path 83434" d="M26.229,20.129c.359,0,.72-.028,1.076.006a1.441,1.441,0,0,1,1.434,1.448A1.462,1.462,0,0,1,27.38,23.2a14.8,14.8,0,0,1-2.248.016,1.635,1.635,0,0,1-1.582-1.567c0-.89.65-1.465,1.7-1.5.326-.012.653,0,.979,0v-.014" fill="#27c6da"/>
      <path id="Path_83435" data-name="Path 83435" d="M62.331,20.141a8.161,8.161,0,0,1,1.271.011A1.415,1.415,0,0,1,64.923,21.7a1.4,1.4,0,0,1-1.362,1.5,14.62,14.62,0,0,1-2.349,0,1.537,1.537,0,0,1,.042-3.069c.357-.027.718,0,1.077,0v.009" fill="#27c6da"/>
      <path id="Path_83436" data-name="Path 83436" d="M33.884,34.024a3.813,3.813,0,0,1-.379,1.013,22.533,22.533,0,0,1-1.864,2.005,1.292,1.292,0,0,1-1.931-.066,1.361,1.361,0,0,1-.177-1.945,10.06,10.06,0,0,1,1.79-1.931,1.8,1.8,0,0,1,1.508-.236c.453.184.736.787,1.053,1.16" fill="#27c6da"/>
      <path id="Path_83437" data-name="Path 83437" d="M56.141,32.7a3.378,3.378,0,0,1,.933.421,20.784,20.784,0,0,1,1.986,2.162,1.3,1.3,0,0,1-.293,1.85,1.327,1.327,0,0,1-1.876.076,9.752,9.752,0,0,1-1.826-2.037,1.9,1.9,0,0,1-.042-1.536c.176-.4.743-.641,1.118-.936" fill="#27c6da"/>
      <path id="Path_83438" data-name="Path 83438" d="M56.4,10.51a1.492,1.492,0,0,1-1.415-2.225,8.371,8.371,0,0,1,1.975-2.153,1.775,1.775,0,0,1,1.668.048c.386.283.745,1.255.548,1.559a18.909,18.909,0,0,1-2.311,2.621c-.117.122-.364.12-.465.15" fill="#27c6da"/>
      <path id="Path_83439" data-name="Path 83439" d="M32.32,10.673a6.029,6.029,0,0,1-1.145-.659,18.256,18.256,0,0,1-1.522-1.671,1.519,1.519,0,0,1,.06-2.13,1.462,1.462,0,0,1,2.113.087,9.721,9.721,0,0,1,1.625,1.831,1.907,1.907,0,0,1,.094,1.545c-.192.425-.791.665-1.225,1" fill="#27c6da"/>
    </g>
  </g>
</svg>
