<svg xmlns="http://www.w3.org/2000/svg" width="42.48" height="38.294" viewBox="0 0 42.48 38.294">
  <g id="Group_35400" data-name="Group 35400" transform="translate(0.15 0.144)">
    <g id="Group_35399" data-name="Group 35399" transform="translate(0 0)">
      <path id="Path_96509" data-name="Path 96509" d="M42.163,21.4q0-5.339-.01-10.676a3.733,3.733,0,0,0-.339-1.493,3.678,3.678,0,0,0-3.6-2.238c-2.262-.018-4.47-.022-6.564-.011a.534.534,0,0,1-.415-.1.561.561,0,0,1-.1-.408l.005-.582c.011-1.051.022-2.138-.062-3.2A2.919,2.919,0,0,0,28.12.006C23.028,0,18.476,0,14.206.01a2.987,2.987,0,0,0-3.114,3.132c-.009.821-.007,1.654,0,2.46v.8c0,.286,0,.465-.063.525s-.231.065-.511.062l-1.543,0c-1.577-.007-3.207-.013-4.81.007a4.99,4.99,0,0,0-1.673.279A3.73,3.73,0,0,0,.007,10.93c-.007,1.451,0,2.926,0,4.352q0,1.314,0,2.628V21.03q0,6.5-.011,12.995A3.93,3.93,0,0,0,3.93,38h.03c4.079-.032,8.225-.025,12.235-.02,1.644,0,3.278.011,4.934,0q2.426,0,4.852,0c4.072,0,8.282-.009,12.422.017h.02A3.939,3.939,0,0,0,42.18,34.24c-.017-4.28-.017-8.631-.017-12.839M16.507,6.021c0-.381,0-.592.081-.67s.3-.075.692-.07c.139,0,.3,0,.488,0,1.824-.007,3.679,0,5.472,0l1.872.006c.284,0,.477.006.547.078s.072.23.062.549c0,.158,0,.3-.006.413-.006.655,0,.658-.717.649h-.348c-.832,0-1.664,0-2.5,0h-.98l-1.209-.007c-1.009,0-2.053,0-3.079.005a.411.411,0,0,1-.317-.08.37.37,0,0,1-.068-.274c.007-.242.007-.443.008-.61m12.674.853a.4.4,0,0,1-.287.079h-.031c-.214,0-.395,0-.547,0H28.3c-.374,0-.577,0-.647-.07s-.061-.24-.06-.532c0-.164,0-.365-.008-.614a14.756,14.756,0,0,1,0-1.563.749.749,0,0,0-.143-.592.784.784,0,0,0-.6-.178c-1.094.016-2.206.013-3.28.011l-1.5,0-1.981,0c-1.553,0-3.158.01-4.738,0a.777.777,0,0,0-.574.166.726.726,0,0,0-.145.563c.019.453.013.914.008,1.361,0,.345-.008.7,0,1.052a.427.427,0,0,1-.081.315.418.418,0,0,1-.322.079c-.272-.007-.491-.005-.668,0-.313,0-.5,0-.562-.055s-.054-.231-.049-.519c0-.173.007-.39,0-.663-.017-.6-.01-1.217,0-1.81,0-.218.005-.436.007-.653.007-.928.436-1.362,1.351-1.364q2.437-.006,4.875,0h1.95q3.359,0,6.72,0c.95,0,1.382.409,1.4,1.323.01.6.008,1.213.007,1.8,0,.518,0,1.036,0,1.554a.434.434,0,0,1-.083.32m-5.487,14.19q0,.446,0,.892c0,.594,0,1.188,0,1.783a2.6,2.6,0,0,1-2.4,2.609,2.541,2.541,0,0,1-2.72-2.194,3.959,3.959,0,0,1-.069-.662c0-.672,0-1.344,0-2.016,0-1.042,0-2.119-.01-3.178a.533.533,0,0,1,.1-.39.5.5,0,0,1,.361-.1h.022c1.294.019,2.7.019,4.306,0h.018a.456.456,0,0,1,.33.085.449.449,0,0,1,.078.331c-.016.671-.013,1.353-.01,2.013q0,.411,0,.823m14.864-3.23c-1.3.277-2.635.532-3.924.777L33.11,18.9l-.21.04q-2.9.564-5.809,1.125c-.339.066-.679.125-1.046.191l-.475.084V19.6c0-.582,0-1.137,0-1.691a1.743,1.743,0,0,0-1.914-1.952c-.995-.008-1.983-.011-2.925-.011-.8,0-1.566,0-2.272,0a1.716,1.716,0,0,0-1.842,1.821c-.017.7,0,1.39.011,2.156,0,.171-.018.271-.069.314s-.168.049-.356.013c-1.46-.286-2.946-.562-4.385-.828q-1.465-.272-2.93-.548-.571-.108-1.143-.214c-1.3-.241-2.638-.49-3.939-.8a2.079,2.079,0,0,1-1.931-2.419q-.006-2.15,0-4.3a2.05,2.05,0,0,1,2.28-2.288c1.287,0,2.569,0,3.853,0q1.3,0,2.6.006,2.58,0,5.163,0,4.369,0,8.739,0c.964,0,1.928.012,2.891.022,1.037.01,2.109.022,3.165.022,1.316,0,2.623-.011,3.934-.021,1.2-.009,2.4-.019,3.6-.02h.007a1.921,1.921,0,0,1,2.08,1.317,2.314,2.314,0,0,1,.1.742c.01,1.5.008,3.024.006,4.5v.225a1.973,1.973,0,0,1-1.738,2.181M1.875,19.676a3.144,3.144,0,0,1,.028-.366l.009-.081c.176.054.347.109.515.164a12.392,12.392,0,0,0,1.284.366c1.347.282,2.723.543,4.053.8l1.093.209q2.49.476,4.982.949l1.631.311c.263.052.535.1.806.144.251.036.33.143.341.457l.007.183a15.658,15.658,0,0,0,.143,1.916,4.4,4.4,0,0,0,4.717,3.489,4.47,4.47,0,0,0,4.086-4.6c0-.093,0-.185,0-.277v-.092c0-1,0-1,.974-1.186l.051-.009c2.012-.375,4.055-.768,6.03-1.147l2.5-.477c1.171-.222,2.382-.452,3.568-.7a8.875,8.875,0,0,0,1.135-.35c.145-.052.291-.1.44-.154l0,.008a1.751,1.751,0,0,1,.027.254q0,7.268,0,14.537a1.915,1.915,0,0,1-2.133,2.108q-10.62,0-21.241,0h-9.1q-.747,0-1.494,0c-.762,0-1.524,0-2.285,0A2,2,0,0,1,1.876,33.95q-.009-6.385,0-12.772Z" transform="translate(0 0)" fill="#1a73e8" stroke="#1a73e8" stroke-width="0.3"/>
    </g>
  </g>
</svg>
