<svg id="Group_34748" data-name="Group 34748" xmlns="http://www.w3.org/2000/svg" xmlns:xlink="http://www.w3.org/1999/xlink" width="85.634" height="80.572" viewBox="0 0 85.634 80.572">
  <defs>
    <clipPath id="clip-path">
      <rect id="Rectangle_19563" data-name="Rectangle 19563" width="85.634" height="80.572" fill="#27c6da"/>
    </clipPath>
  </defs>
  <g id="Group_34747" data-name="Group 34747" clip-path="url(#clip-path)">
    <path id="Path_83440" data-name="Path 83440" d="M33.332,56.231a12.56,12.56,0,0,1,.4,2.081,3.549,3.549,0,0,1-2.1,3.412,13.554,13.554,0,0,1-1.5.695c-.586.215-.669.509-.4,1.067C30.89,65.871,32,68.274,33.128,70.67c.536,1.138,1.087,2.269,1.617,3.41a4.837,4.837,0,0,1-1.9,6.362,4.759,4.759,0,0,1-6.484-1.6q-4.7-7.211-9.328-14.474a1.033,1.033,0,0,0-1.373-.559A12.188,12.188,0,0,1,6.375,41.416c3.756-1.918,7.637-3.59,11.417-5.463a41.543,41.543,0,0,0,14.63-11.547,19.948,19.948,0,0,0,4.51-9.893,13.475,13.475,0,0,0-.009-3.128,4.3,4.3,0,0,1,3.025-4.809,4.216,4.216,0,0,1,5,2.421q3.98,8.466,7.954,16.937c.261.56.492.7,1.119.5a5.493,5.493,0,0,1,4.572,9.893c-.491.31-.549.565-.312,1.065,2.641,5.564,5.245,11.145,7.9,16.7,1.557,3.264-.414,6.578-3.868,6.416a3.7,3.7,0,0,1-2.66-1.193c-2.885-3.19-6.67-4.438-10.764-4.928A36.574,36.574,0,0,0,33.9,56.012c-.2.059-.384.147-.57.218m6.711-43c-.122.88-.209,2.088-.467,3.258a25.474,25.474,0,0,1-6.109,11.286A46.589,46.589,0,0,1,19.4,38.454c-1.377.7-1.179.5-.624,1.689,2.287,4.889,4.6,9.767,6.9,14.652.469,1,.46,1.005,1.468.571A44.629,44.629,0,0,1,47.7,51.33a21.777,21.777,0,0,1,11.064,3.393,27.61,27.61,0,0,1,2.878,2.422,1.241,1.241,0,0,0,1.645.189,1.145,1.145,0,0,0,.392-1.531c-.145-.337-.291-.674-.446-1.005Q54.65,36.552,46.066,18.307q-1.907-4.054-3.827-8.1a1.232,1.232,0,0,0-2.368.655c.066.678.1,1.358.172,2.366M12.207,61.513a17.1,17.1,0,0,0,3.04-.69c2.6-1.1,5.15-2.339,7.725-3.508.495-.225.384-.52.21-.888q-3.654-7.75-7.291-15.507c-.224-.477-.445-.6-.952-.349-2.264,1.1-4.568,2.112-6.819,3.233A9.241,9.241,0,0,0,3.184,53.991a9.568,9.568,0,0,0,9.023,7.522m7.044.856c.576.9,1.08,1.689,1.587,2.477q3.962,6.143,7.927,12.282a1.878,1.878,0,1,0,3.292-1.806c-.9-1.979-1.844-3.938-2.771-5.906q-2.109-4.479-4.22-8.958c-.159-.337-.267-.712-.787-.463-1.625.777-3.257,1.539-5.029,2.374M54.568,29.44c.659,1.4,1.308,2.815,2.005,4.2.051.1.518.132.676.025a2.544,2.544,0,0,0,.6-3.3,2.455,2.455,0,0,0-3.283-.928M30.778,58.492c.009-.725-.39-1.24-.782-1.1a18.28,18.28,0,0,0-2.159.925c-.143.075-.214.555-.12.754.166.346.148,1.049.8.838a11.345,11.345,0,0,0,1.972-.95c.17-.1.236-.375.292-.471" transform="translate(0 -0.535)" fill="#27c6da"/>
    <path id="Path_83441" data-name="Path 83441" d="M72.967,41.015A1.5,1.5,0,0,1,75.106,39.5c1.679.587,3.346,1.21,5.02,1.812q5.023,1.808,10.048,3.611a5.626,5.626,0,0,1,.725.3,1.471,1.471,0,0,1,.744,1.795,1.427,1.427,0,0,1-1.776.9c-1.148-.357-2.278-.775-3.411-1.183-4.086-1.472-8.166-2.956-12.255-4.419-.739-.265-1.219-.689-1.234-1.3" transform="translate(-6.091 -3.287)" fill="#27c6da"/>
    <path id="Path_83442" data-name="Path 83442" d="M71.211,1.609c-.11.348-.242.827-.41,1.293q-2.637,7.313-5.295,14.618a2.341,2.341,0,0,1-.7,1,1.29,1.29,0,0,1-1.674-.06,1.414,1.414,0,0,1-.467-1.694c.486-1.41,1-2.811,1.5-4.214q1.984-5.5,3.972-11a4.935,4.935,0,0,1,.329-.8,1.4,1.4,0,0,1,1.6-.718,1.556,1.556,0,0,1,1.138,1.573" transform="translate(-5.222 0)" fill="#27c6da"/>
    <path id="Path_83443" data-name="Path 83443" d="M73.975,28.444a1.55,1.55,0,0,1-1.626-1.125,1.5,1.5,0,0,1,.867-1.681c1.366-.664,2.745-1.3,4.119-1.946,3.577-1.682,7.148-3.38,10.744-5.023a2.09,2.09,0,0,1,1.543-.12,1.9,1.9,0,0,1,.836,1.268,1.333,1.333,0,0,1-.925,1.4c-2.206,1.031-4.4,2.078-6.607,3.114q-4.052,1.907-8.107,3.8a8.068,8.068,0,0,1-.844.308" transform="translate(-6.036 -1.54)" fill="#27c6da"/>
  </g>
</svg>
