<svg xmlns="http://www.w3.org/2000/svg" width="79.359" height="63.618" viewBox="0 0 79.359 63.618">
  <g id="Group_34783" data-name="Group 34783" transform="translate(0.192 0.199)">
    <g id="Group_34784" data-name="Group 34784" transform="translate(0.002 0.001)">
      <path id="Path_84563" data-name="Path 84563" d="M20.932,32.045c0,5.061.023,10.125,0,15.189-.023,4.067-2.384,5.711-6.2,4.486a4.02,4.02,0,0,0-2.374.073c-3.483,1.188-6.028-.482-6.078-4.242q-.114-8.73,0-17.46c.026-1.875-.439-2.737-2.532-2.691A3.431,3.431,0,0,1,.118,23.811,126.563,126.563,0,0,1,.214,10.9a6.6,6.6,0,0,1,6.645-6c9.366-.158,18.738-.119,28.107-.053a4.138,4.138,0,0,1,4.186,4.209,4.05,4.05,0,0,1-4.163,4.163c-3.473.116-6.952.04-10.429.066-3.027.02-3.615.588-3.625,3.562-.017,5.064,0,10.128,0,15.192M6.734,12.2l1.073-.03a22.149,22.149,0,0,1,.439,3.093c.03,10.587.01,21.174.013,31.761,0,1.618.3,3.291,2.3,3.222,1.862-.066,2.037-1.694,2.027-3.225-.017-3.176-.01-6.352-.01-9.531,0-1.888-.069-3.783.05-5.668.033-.528.631-1.023.967-1.532a7.452,7.452,0,0,1,1.033,1.542,4.8,4.8,0,0,1,.036,1.575q0,7.032,0,14.067c0,1.426.4,2.717,2.007,2.77,1.74.059,2.205-1.294,2.271-2.79.026-.6.02-1.208.02-1.816q0-14.633.01-29.266c.007-3.559,1.4-4.978,4.909-5.015,3.4-.033,6.8,0,10.208-.017,1.585-.007,3.024-.459,2.991-2.317s-1.5-2.218-3.073-2.218c-8.775,0-17.546-.036-26.318.017-3.506.02-5.662,2.162-5.757,5.665-.092,3.324-.043,6.652-.033,9.98.007,1.472.35,2.885,2.126,2.915,1.931.03,2.235-1.462,2.238-3.017,0-2.572-.046-5.143.01-7.715a14.809,14.809,0,0,1,.462-2.45" transform="translate(0 11.033)" fill="#1a73e8" stroke="#1a73e8" stroke-width="0.4"/>
      <path id="Path_84564" data-name="Path 84564" d="M14.666,6.772A6.215,6.215,0,1,1,2.24,6.528a6.215,6.215,0,1,1,12.426.244m-1.921-.149A4.461,4.461,0,0,0,8.361,2.316,4.493,4.493,0,0,0,4.155,6.809a4.555,4.555,0,0,0,4.275,4.2,4.524,4.524,0,0,0,4.315-4.384" transform="translate(5.153 0.824)" fill="#1a73e8" stroke="#1a73e8" stroke-width="0.4"/>
      <path id="Path_84567" data-name="Path 84567" d="M15.552,10.9a6.386,6.386,0,0,1,6.421,6.239,6.269,6.269,0,0,1-6.249,6.154,6.052,6.052,0,0,1-6.342-6.2,6.181,6.181,0,0,1,6.17-6.19m.149,1.938a4.429,4.429,0,0,0-4.377,4.272,4.463,4.463,0,0,0,4.351,4.311,4.292,4.292,0,0,0,.026-8.583" transform="translate(21.589 25.074)" fill="#1a73e8" stroke="#1a73e8" stroke-width="0.4"/>
      <path id="Path_84568" data-name="Path 84568" d="M9.226,27.989v-3.9c0-3.777,2.75-6.85,6.13-6.85h9.415c3.38,0,6.13,3.073,6.13,6.85v3.9h1.865v-3.9c0-4.929-3.585-8.94-8-8.94H15.356c-4.41,0-8,4.011-8,8.94v3.9Z" transform="translate(16.929 34.857)" fill="#1a73e8" stroke="#1a73e8" stroke-width="0.4"/>
      <path id="Path_84569" data-name="Path 84569" d="M22.7,10.9a6.386,6.386,0,0,1,6.421,6.239,6.269,6.269,0,0,1-6.249,6.154,6.052,6.052,0,0,1-6.342-6.2A6.181,6.181,0,0,1,22.7,10.9m.149,1.938a4.429,4.429,0,0,0-4.377,4.272,4.463,4.463,0,0,0,4.351,4.311,4.292,4.292,0,0,0,.026-8.583" transform="translate(38.036 25.074)" fill="#1a73e8" stroke="#1a73e8" stroke-width="0.4"/>
      <path id="Path_84570" data-name="Path 84570" d="M16.374,27.989v-3.9c0-3.777,2.747-6.85,6.127-6.85h9.415c3.38,0,6.13,3.073,6.13,6.85v3.9h1.865v-3.9c0-4.929-3.585-8.94-8-8.94H22.5c-4.407,0-8,4.011-8,8.94v3.9Z" transform="translate(33.378 34.857)" fill="#1a73e8" stroke="#1a73e8" stroke-width="0.4"/>
      <path id="Path_84571" data-name="Path 84571" d="M57.962,0H11.52A4.237,4.237,0,0,0,7.288,4.232v7.791H9.559V4.232A1.964,1.964,0,0,1,11.52,2.268H57.962a1.967,1.967,0,0,1,1.964,1.964V38.876a1.967,1.967,0,0,1-1.964,1.964H54.707v2.268h3.255a4.237,4.237,0,0,0,4.232-4.232V4.232A4.237,4.237,0,0,0,57.962,0" transform="translate(16.77 0)" fill="#1a73e8" stroke="#1a73e8" stroke-width="0.4"/>
    </g>
  </g>
</svg>
