<svg id="Group_34750" data-name="Group 34750" xmlns="http://www.w3.org/2000/svg" xmlns:xlink="http://www.w3.org/1999/xlink" width="77.118" height="61.57" viewBox="0 0 77.118 61.57">
  <defs>
    <clipPath id="clip-path">
      <rect id="Rectangle_19564" data-name="Rectangle 19564" width="77.118" height="61.57" fill="#1a73e8"/>
    </clipPath>
  </defs>
  <g id="Group_34749" data-name="Group 34749" transform="translate(0 0)" clip-path="url(#clip-path)">
    <path id="Path_83444" data-name="Path 83444" d="M38.632.058q16.99,0,33.981.009a4.478,4.478,0,0,1,2.5.337,3.592,3.592,0,0,1,2,3.13q.01,26.068-.01,52.136a20.9,20.9,0,0,1-.358,3.636c-.155.871-.933,1.334-1.622,1.817a2.837,2.837,0,0,1-1.732.438q-34.82-.012-69.64.008A3.527,3.527,0,0,1,.57,59.733a6.656,6.656,0,0,1-.521-2.845C-.035,55.55.014,54.2.014,52.86q0-23.74.019-47.478A19.737,19.737,0,0,1,.18,3.033,3.44,3.44,0,0,1,2.017.41,3.388,3.388,0,0,1,3.863,0Q21.248.007,38.632,0V.058M38.566,59.2c11.469,0,22.938-.014,34.407.023a1.647,1.647,0,0,0,1.72-1.739Q74.656,30.989,74.674,4.5c0-.244.012-.49,0-.733a1.376,1.376,0,0,0-1.456-1.376q-31.892,0-63.785,0-2.723,0-5.446.039A1.2,1.2,0,0,0,2.635,3.781c-.039,4.519-.1,9.038-.108,13.558-.014,13.4,0,26.8-.026,40.207A1.6,1.6,0,0,0,4.16,59.219C15.628,59.184,27.1,59.2,38.566,59.2" transform="translate(0 0)" fill="#1a73e8"/>
    <path id="Path_83445" data-name="Path 83445" d="M42.337,43.477c-7.19,0-14.382-.015-21.572.017a1.353,1.353,0,0,1-1.519-1.542c.032-9.23.017-18.46.031-27.691a2.357,2.357,0,0,1,.259-1.077,1.145,1.145,0,0,1,1.1-.548q21.624.014,43.249.01a1.245,1.245,0,0,1,1.387,1.38q0,14.055,0,28.109c0,1.059-.282,1.342-1.315,1.342H42.337m20.408-5.153.172-.048a5.225,5.225,0,0,0,.066-.589q0-10.7,0-21.409a2.232,2.232,0,0,0-.028-.675.7.7,0,0,0-.379-.375,1.654,1.654,0,0,0-.57-.019l-39.69,0c-.677,0-.717.031-.718.7q-.006,3.428,0,6.857.022,7.878.056,15.756a7.935,7.935,0,0,0,.1.824c1.028-.892,1.948-1.686,2.862-2.485q3.317-2.905,6.626-5.82a.994.994,0,0,1,1.206-.13c.478.243.925.546,1.378.836,1.724,1.1,3.452,2.2,5.161,3.328a.532.532,0,0,0,.809-.121q.426-.492.836-1c2.123-2.642,4.227-5.3,6.375-7.921.8-.979,1.682-1.893,2.567-2.8.36-.367.726-.3,1.095.064.124.122.246.248.357.382,1.081,1.3,2.185,2.572,3.233,3.893,2.205,2.777,4.379,5.58,6.57,8.368.631.8,1.279,1.588,1.919,2.382m-1.44,2.517.062-.178L50.143,26.318a6.388,6.388,0,0,0-.561.527c-1.25,1.535-2.486,3.081-3.737,4.615q-2.6,3.192-5.221,6.369a1.058,1.058,0,0,1-1.563.232c-.691-.428-1.394-.839-2.075-1.284-1.452-.948-2.894-1.911-4.338-2.871a.741.741,0,0,0-1.033.037c-1.941,1.743-3.9,3.468-5.845,5.2-.566.5-1.125,1.016-1.687,1.523.01.062.02.124.03.186a5.879,5.879,0,0,0,.919.157c3.4.048,6.8.11,10.2.114,6.35.008,12.7-.015,19.052-.035,1.8-.006,3.593-.037,5.39-.081.544-.013,1.086-.108,1.628-.166" transform="translate(-3.746 -2.459)" fill="#1a73e8"/>
    <path id="Path_83446" data-name="Path 83446" d="M44.148,66.2H30.115A1.211,1.211,0,0,1,28.8,65.037a1.331,1.331,0,0,1,1.345-1.173q14.033,0,28.065-.014a1.315,1.315,0,0,1,1.243.844.968.968,0,0,1-.284,1.183,1.309,1.309,0,0,1-.882.312c-4.713.019-9.425.013-14.138.013" transform="translate(-5.605 -12.427)" fill="#1a73e8"/>
    <path id="Path_83447" data-name="Path 83447" d="M46,59.784H39.716c-.869,0-1.34-.395-1.336-1.115a1.312,1.312,0,0,1,1.38-1.248c3.926.01,7.852.01,11.779.037a8.527,8.527,0,0,1,1.492.22c.6.114.672.565.66,1.075a1,1,0,0,1-.738.958,1.974,1.974,0,0,1-.672.068q-3.141.006-6.282,0Z" transform="translate(-7.469 -11.176)" fill="#1a73e8"/>
    <path id="Path_83448" data-name="Path 83448" d="M30.674,29.172c-2.343.329-5.125-2.3-5.015-5.089a5.08,5.08,0,0,1,4.827-4.95,5.013,5.013,0,0,1,5.226,5.12,4.936,4.936,0,0,1-5.038,4.919M28.12,24.223c-.168,1.267,1.343,2.6,2.6,2.593a2.947,2.947,0,0,0,2.631-2.62,2.909,2.909,0,0,0-2.688-2.586,2.658,2.658,0,0,0-2.54,2.613" transform="translate(-4.993 -3.724)" fill="#1a73e8"/>
  </g>
</svg>
