<svg xmlns="http://www.w3.org/2000/svg" xmlns:xlink="http://www.w3.org/1999/xlink" width="67.388" height="63.082" viewBox="0 0 67.388 63.082">
  <defs>
    <clipPath id="clip-path">
      <rect id="Rectangle_19566" data-name="Rectangle 19566" width="67.388" height="63.081" fill="#1a73e8" stroke="#fff" stroke-width="0.8"/>
    </clipPath>
  </defs>
  <g id="Group_34754" data-name="Group 34754" transform="translate(0 0)">
    <g id="Group_34753" data-name="Group 34753" transform="translate(0 0)" clip-path="url(#clip-path)">
      <path id="Path_83452" data-name="Path 83452" d="M8.334,36.035c.944,0,1.889-.01,2.833,0a1.56,1.56,0,0,1,1.657,1.218,23.74,23.74,0,0,0,2.892,6.925,1.639,1.639,0,0,1-.419,2.107c-1.161,1.145-2.309,2.3-3.46,3.457-1.54,1.544-1.533,2.588.028,4.152.1.1.2.206.3.305,1.38,1.366,2.522,1.365,3.917-.017,1.139-1.127,2.265-2.266,3.4-3.4a1.84,1.84,0,0,1,2.665-.357,13.631,13.631,0,0,0,1.586.845,1.154,1.154,0,0,1,.818,1.241c-.022.6.019,1.2.044,1.8.028.63-.3.769-.81.554-.631-.266-1.249-.563-1.855-.883a.943.943,0,0,0-1.293.2c-.78.837-1.594,1.643-2.412,2.445A5.569,5.569,0,0,1,9.92,56.55C8.643,55.267,7.507,53.964,7.5,52a5.388,5.388,0,0,1,1.393-3.851c.875-.943,1.78-1.862,2.716-2.745a1.107,1.107,0,0,0,.256-1.555,31.851,31.851,0,0,1-1.525-3.715,1.029,1.029,0,0,0-1.092-.846A43.5,43.5,0,0,1,4.79,39.17a5.312,5.312,0,0,1-4.767-5.3c-.041-1.662-.141-3.325.941-4.775a5.371,5.371,0,0,1,4.494-2.418c1.259,0,2.52-.021,3.778.02a.991.991,0,0,0,1.064-.773c.516-1.329,1.036-2.657,1.618-3.956a.968.968,0,0,0-.191-1.29c-.87-.827-1.714-1.683-2.548-2.547A5.5,5.5,0,0,1,9.2,10.15a10.37,10.37,0,0,1,2.889-2.222A5.082,5.082,0,0,1,17.881,9c.97.888,1.894,1.828,2.8,2.779a.879.879,0,0,0,1.183.216c1.376-.623,2.8-1.137,4.17-1.768a1.221,1.221,0,0,0,.566-.888c.063-1.142,0-2.289.014-3.434A5.6,5.6,0,0,1,32.56,0a9.387,9.387,0,0,1,3.193.443,5.155,5.155,0,0,1,3.476,5.025c.036,1.287.014,2.576,0,3.864-.008.54.206.781.733.973,1.364.5,2.706,1.064,4.022,1.678a.921.921,0,0,0,1.259-.216c.822-.876,1.682-1.717,2.548-2.551a5.521,5.521,0,0,1,7.99,0c1.467,1.372,2.649,2.85,2.619,4.989-.018,1.216-.12,1.294-1.248.946a2.853,2.853,0,0,0-.5-.108,1.612,1.612,0,0,1-1.663-1.469,3.8,3.8,0,0,0-2.8-2.746,2.286,2.286,0,0,0-2.3.847c-1.211,1.216-2.418,2.437-3.647,3.635a1.684,1.684,0,0,1-2.4.267,20.965,20.965,0,0,0-6.387-2.629,1.646,1.646,0,0,1-1.4-1.79c-.015-1.747.013-3.493.006-5.239a2.379,2.379,0,0,0-2.645-2.661,9.694,9.694,0,0,0-1.626.066,2.168,2.168,0,0,0-1.9,2.19c-.022,1.774,0,3.55,0,5.325,0,1.343-.511,1.77-1.791,2.222a61.654,61.654,0,0,0-5.828,2.422c-1.272.6-1.748.659-2.744-.312-1.147-1.118-2.258-2.273-3.4-3.391-1.433-1.4-2.643-1.369-4.055.07-.181.184-.37.359-.548.545a2.3,2.3,0,0,0-.024,3.5c1.19,1.237,2.426,2.431,3.634,3.651a1.8,1.8,0,0,1,.329,2.667,20.655,20.655,0,0,0-2.462,6c-.282,1.278-.806,1.652-2.108,1.658-1.688.008-3.377,0-5.065.006A2.409,2.409,0,0,0,3.2,32.407a11.165,11.165,0,0,0,.037,1.373,2.311,2.311,0,0,0,2.431,2.25c.057,0,.115,0,.172,0h2.49v0" transform="translate(0 0)" fill="#1a73e8" stroke="#fff" stroke-width="0.8"/>
      <path id="Path_83453" data-name="Path 83453" d="M27.472,55.373c0-1.946-.043-3.895.026-5.838a2.872,2.872,0,0,1,.571-1.627Q40.032,33.474,52.053,19.091c1.434-1.72,3.965-1.984,6.141-.48,1.617,1.118,3.081,2.459,4.606,3.71A27.289,27.289,0,0,1,65.475,24.6a10.446,10.446,0,0,1,1.845,2.625,3.863,3.863,0,0,1-.744,4.377q-6.265,7.455-12.5,14.938c-3.353,4.018-6.772,7.986-10.009,12.1a6.922,6.922,0,0,1-4.626,2.686c-3.182.536-6.335,1.243-9.5,1.9a1.6,1.6,0,0,1-2.175-1.668c-.034-2.059-.009-4.119-.009-6.179h-.293M58.18,36.485a5.723,5.723,0,0,0-.513-.554c-2.832-2.362-5.676-4.711-8.5-7.085-.456-.383-.744-.373-1.119.095-.947,1.182-1.931,2.336-2.9,3.5q-6.592,7.9-13.189,15.8c-.353.422-.566.733,0,1.191q4.341,3.5,8.632,7.059c.494.41.752.271,1.108-.156q8.03-9.663,16.081-19.309c.126-.149.231-.314.4-.543m6.373-7.9a11.583,11.583,0,0,0-1.3-1.627c-1.522-1.34-3.1-2.615-4.665-3.908-.7-.582-1.385-1.2-2.14-1.71-1.033-.695-1.547-.577-2.347.374-.955,1.138-1.889,2.3-2.872,3.41-.457.517-.472.87.088,1.331q4.273,3.508,8.5,7.071c.4.339.66.313.986-.087,1.062-1.309,2.154-2.594,3.219-3.9a6.994,6.994,0,0,0,.532-.952m-33.595,24.2a8.263,8.263,0,0,0-.114.892c.019,1.715.073,3.43.061,5.146,0,.671.237.868.867.73,1.337-.292,2.681-.561,4.02-.843.534-.112,1.065-.231,1.6-.348l.056-.259-6.488-5.318" transform="translate(-0.316 -0.203)" fill="#1a73e8" stroke="#fff" stroke-width="0.8"/>
      <path id="Path_83454" data-name="Path 83454" d="M33.139,18.251a14.826,14.826,0,0,1,10.888,4.641c.521.525.631.955.057,1.5-.511.488-.907,1.312-1.48,1.446-.377.088-.988-.775-1.479-1.23A11.7,11.7,0,1,0,26.951,43.081c.98.615.98.615.223,1.538-.054.066-.1.137-.16.2-1.357,1.544-.895,1.766-2.764.318A14.3,14.3,0,0,1,18.369,31.4a14.271,14.271,0,0,1,9.421-12.145A34.54,34.54,0,0,1,33.081,18l.057.247" transform="translate(-0.21 -0.207)" fill="#1a73e8" stroke="#fff" stroke-width="0.8"/>
    </g>
  </g>
</svg>
