<svg xmlns="http://www.w3.org/2000/svg" width="106.758" height="62.803" viewBox="0 0 106.758 62.803">
  <g id="Group_34781" data-name="Group 34781" transform="translate(0.149 0.15)">
    <g id="Group_34782" data-name="Group 34782" transform="translate(0 0)">
      <path id="Path_84555" data-name="Path 84555" d="M.052,32.389c0-1.772.109-3.553-.023-5.315-.3-4.019,1.747-6.57,5.033-8.381C9.04,16.5,13.4,15.79,17.856,15.586c6.23-.286,12.43-.167,18.267,2.421,3.677,1.632,6.551,3.968,6.5,8.509-.016,1.383.931,1.153,1.863,1.1,4.207-.243,8.418-.513,12.629-.6a28.455,28.455,0,0,1,5.062.622c1.112.18,1.707-.093,1.675-1.323-.1-3.786,2.164-6.033,5.193-7.665,5.807-3.128,12.155-3.283,18.52-3.117,4.728.124,9.371.772,13.634,3.048,3.466,1.854,5.461,4.482,5.246,8.673-.2,4.011.024,8.043-.095,12.06-.023.748-.793,1.474-1.217,2.209-.428-.727-1.2-1.444-1.223-2.183-.122-4.019-.185-8.048-.021-12.064.124-3.009-1.132-5.205-3.765-6.148a55.335,55.335,0,0,0-10.6-2.747,35.679,35.679,0,0,0-17.518,1.836c-4.244,1.55-5.736,3.534-5.392,7.094a3.344,3.344,0,0,0,1.323,1.965c1.125.865,2.479,1.428,3.619,2.276a7.13,7.13,0,0,1,2.974,5.992c0,4.361.068,8.726-.066,13.086-.024.785-.878,1.545-1.349,2.317C72.7,52.2,71.96,51.46,71.938,50.7q-.171-6.234-.027-12.474A5.235,5.235,0,0,0,68.846,32.9a31.823,31.823,0,0,0-7.475-2.585C53.822,29,46.306,29.1,39.064,32.078c-3.075,1.265-4.731,3.371-4.542,6.932.207,3.874.111,7.771-.008,11.654-.023.77-.667,2.111-1.149,2.169-1.413.172-1.42-1.125-1.423-2.159-.013-4.363,0-8.726,0-13.089,0-3.768,2.27-5.966,5.31-7.6,3.435-1.852,3.844-5.558.547-7.8A20.935,20.935,0,0,0,30.942,19.2a39.763,39.763,0,0,0-22.37.887A16.584,16.584,0,0,0,4.8,22.074a4.866,4.866,0,0,0-2.188,4.365c.05,3.953.014,7.908.011,11.863a4.36,4.36,0,0,1-.058,1.619,8.174,8.174,0,0,1-1.207,1.606C.929,41,.167,40.5.14,39.953.008,37.437.082,34.911.082,32.389H.052" transform="translate(0 9.405)" fill="#1a73e8" stroke="#1a73e8" stroke-width="0.3"/>
      <path id="Path_84556" data-name="Path 84556" d="M17.09,22.423A11.146,11.146,0,0,1,5.909,11.265,11.342,11.342,0,0,1,17.072,0,11.249,11.249,0,0,1,28.316,11.355,11.055,11.055,0,0,1,17.09,22.423m.026-19.7a8.586,8.586,0,0,0-8.524,8.609,8.707,8.707,0,0,0,8.654,8.522,8.747,8.747,0,0,0,8.438-8.543,8.641,8.641,0,0,0-8.569-8.588" transform="translate(3.59 0.001)" fill="#1a73e8" stroke="#1a73e8" stroke-width="0.3"/>
      <path id="Path_84557" data-name="Path 84557" d="M48.154,18.5a11.1,11.1,0,0,1-11.5,11.023,11.267,11.267,0,0,1-10.884-11.5A11.108,11.108,0,0,1,37.43,7.186,10.961,10.961,0,0,1,48.154,18.5M36.887,26.838a8.652,8.652,0,0,0,8.681-8.463,8.725,8.725,0,0,0-8.556-8.631,8.6,8.6,0,0,0-8.506,8.414,8.451,8.451,0,0,0,8.381,8.68" transform="translate(15.66 4.365)" fill="#1a73e8" stroke="#1a73e8" stroke-width="0.3"/>
      <path id="Path_84558" data-name="Path 84558" d="M68.014,11.326a11.178,11.178,0,0,1-22.356-.037,11.178,11.178,0,1,1,22.356.037m-19.658-.079a8.5,8.5,0,1,0,16.991.133,8.5,8.5,0,1,0-16.991-.133" transform="translate(27.743 0.005)" fill="#1a73e8" stroke="#1a73e8" stroke-width="0.3"/>
      <path id="Path_84559" data-name="Path 84559" d="M62.312,30.126a36.1,36.1,0,0,1-.058,4.476c-.082.646-.8,1.212-1.23,1.813-.469-.627-1.312-1.233-1.346-1.883-.148-2.913-.148-5.842-.006-8.757.031-.645.852-1.252,1.309-1.876.449.648,1.183,1.256,1.286,1.955a29.775,29.775,0,0,1,.059,4.271Z" transform="translate(36.194 14.523)" fill="#1a73e8" stroke="#1a73e8" stroke-width="0.3"/>
      <path id="Path_84560" data-name="Path 84560" d="M27.532,37.226a42.85,42.85,0,0,1-.058,4.681c-.063.572-.789,1.071-1.212,1.6-.473-.55-1.331-1.082-1.357-1.653-.137-3.051-.137-6.115,0-9.167.026-.587.862-1.137,1.325-1.7.437.585,1.172,1.132,1.252,1.762a35.507,35.507,0,0,1,.061,4.477Z" transform="translate(15.07 18.829)" fill="#1a73e8" stroke="#1a73e8" stroke-width="0.3"/>
      <path id="Path_84561" data-name="Path 84561" d="M7.636,30.144a42.674,42.674,0,0,1-.058,4.672c-.064.567-.8,1.059-1.222,1.585-.461-.5-1.3-.976-1.321-1.489-.125-3.181-.127-6.373,0-9.554.018-.5.873-.963,1.341-1.444.429.518,1.167,1,1.228,1.558a42.275,42.275,0,0,1,.059,4.672H7.636" transform="translate(3.001 14.531)" fill="#1a73e8" stroke="#1a73e8" stroke-width="0.3"/>
      <path id="Path_84562" data-name="Path 84562" d="M39.732,37.2a35.156,35.156,0,0,1,.061-4.474c.08-.625.828-1.164,1.272-1.743.455.574,1.278,1.135,1.3,1.728.129,3.05.124,6.112-.016,9.16-.027.566-.891,1.092-1.368,1.635-.413-.54-1.121-1.05-1.183-1.627a43.647,43.647,0,0,1-.058-4.68h-.011" transform="translate(24.116 18.83)" fill="#1a73e8" stroke="#1a73e8" stroke-width="0.3"/>
    </g>
  </g>
</svg>
