<svg xmlns="http://www.w3.org/2000/svg" xmlns:xlink="http://www.w3.org/1999/xlink" width="64.314" height="72.448" viewBox="0 0 64.314 72.448">
  <defs>
    <clipPath id="clip-path">
      <rect id="Rectangle_19565" data-name="Rectangle 19565" width="64.314" height="72.448" fill="#1a73e8" stroke="#fff" stroke-width="0.5"/>
    </clipPath>
  </defs>
  <g id="Group_34752" data-name="Group 34752" transform="translate(0 0)">
    <g id="Group_34751" data-name="Group 34751" transform="translate(0 0)" clip-path="url(#clip-path)">
      <path id="Path_83449" data-name="Path 83449" d="M9.76,49.438c-.937-.474-1.766-.9-2.6-1.314C5.1,47.089,3.041,46.052.975,45.027a1.456,1.456,0,0,1-.959-1.352A1.471,1.471,0,0,1,.946,42.3q4.454-2.314,8.9-4.65c.139-.073.272-.159.492-.288-.335-.178-.58-.312-.83-.438l-8.494-4.25A1.442,1.442,0,0,1,.2,30.605a1.835,1.835,0,0,1,.716-.652q5.74-3.025,11.5-6.019c1.2-.629,2.4-1.263,3.607-1.884.23-.119.359-.242.263-.524a1.393,1.393,0,0,1,.35-1.42c.752-.885,1.509-1.766,2.256-2.657a1.439,1.439,0,0,0,.006-2.074c-.747-.91-1.506-1.809-2.246-2.724a1.463,1.463,0,0,1-.154-1.913c.964-1.672,1.946-3.334,2.893-5.015a1.614,1.614,0,0,1,1.864-.92c1.142.208,2.286.407,3.436.572A1.434,1.434,0,0,0,26.5,4.23q.562-1.576,1.119-3.152A1.429,1.429,0,0,1,29.153,0q2.989,0,5.978,0A1.435,1.435,0,0,1,36.7,1.1q.559,1.577,1.114,3.154a1.43,1.43,0,0,0,1.822,1.126c1.208-.183,2.411-.389,3.616-.589a1.422,1.422,0,0,1,1.582.785q1.489,2.587,2.982,5.172a1.452,1.452,0,0,1-.148,1.913c-.714.878-1.443,1.744-2.166,2.614a1.511,1.511,0,0,0,.015,2.288c.708.824,1.4,1.659,2.117,2.477a1.467,1.467,0,0,1,.384,1.5c-.1.293.054.4.276.515Q54.948,25.519,61.6,29c.561.292,1.117.6,1.683.881a1.512,1.512,0,0,1,1.01,1.417,1.535,1.535,0,0,1-1.041,1.4Q59,34.81,54.767,36.952c-.234.118-.46.252-.777.426.467.253.843.462,1.224.662q4.088,2.136,8.177,4.272A1.387,1.387,0,0,1,64.12,44.3a1.959,1.959,0,0,1-.787.7c-2.711,1.385-5.436,2.744-8.156,4.113-.181.091-.351.2-.6.347,1.116.612,2.155,1.185,3.2,1.75q2.8,1.522,5.609,3.035a1.469,1.469,0,0,1-.028,2.724Q58.243,59.533,53.131,62.1q-10.1,5.07-20.205,10.145a1.566,1.566,0,0,1-1.509.018c-2.961-1.491-5.927-2.972-8.884-4.472a1.4,1.4,0,0,1-.727-2,1.451,1.451,0,0,1,2.083-.485q2.812,1.406,5.619,2.819c.741.372,1.49.728,2.221,1.119a.818.818,0,0,0,.844,0q5.268-2.66,10.549-5.3l16.206-8.135c.132-.067.26-.144.469-.26-.484-.274-.905-.519-1.333-.752-2.145-1.167-4.3-2.32-6.434-3.5a1.137,1.137,0,0,0-1.208,0Q41.918,55.794,33,60.252a1.827,1.827,0,0,1-1.767-.032Q22.368,55.75,13.5,51.294a1.158,1.158,0,0,0-1.244.031c-2.422,1.352-4.868,2.661-7.306,3.985-.117.064-.23.134-.432.251.441.23.815.433,1.194.623,2.2,1.1,4.4,2.193,6.593,3.3a1.432,1.432,0,0,1,.407,2.491,1.457,1.457,0,0,1-1.66.067c-1.063-.538-2.129-1.068-3.193-1.6q-3.5-1.756-6.99-3.512a1.389,1.389,0,0,1-.855-1.278,1.376,1.376,0,0,1,.835-1.336c.067-.034.132-.074.2-.11q4.033-2.194,8.065-4.387c.182-.1.36-.209.649-.377M17.822,24.3,4.546,31.245c.252.138.4.227.559.306.9.451,1.81.9,2.712,1.349q11.961,6,23.915,12.015a.855.855,0,0,0,.877-.011c2.094-1.068,4.2-2.115,6.3-3.17q10.143-5.094,20.285-10.189c.163-.082.312-.191.528-.324L46.5,24.308c-.109.175-.191.3-.265.427-.485.835-.959,1.675-1.455,2.5a1.409,1.409,0,0,1-1.616.7c-1.171-.219-2.342-.436-3.517-.632a1.4,1.4,0,0,0-1.716,1.031q-.613,1.653-1.232,3.3a1.45,1.45,0,0,1-1.529,1.09q-3.012.01-6.023-.006a1.411,1.411,0,0,1-1.529-1.083c-.417-1.114-.832-2.23-1.257-3.342a1.365,1.365,0,0,0-1.655-1c-.938.144-1.869.335-2.8.5-.312.057-.621.141-.935.167a1.422,1.422,0,0,1-1.437-.746c-.563-.959-1.122-1.921-1.708-2.924M59.742,43.653c-.2-.129-.3-.2-.4-.253q-4.106-2.152-8.211-4.306a.688.688,0,0,0-.71.032q-8.587,4.319-17.172,8.638a2.179,2.179,0,0,1-2.172.01c-5.7-2.89-11.419-5.743-17.126-8.617a.841.841,0,0,0-.873,0c-2.693,1.421-5.4,2.824-8.094,4.233-.114.06-.221.133-.391.237.191.108.315.185.445.25q5.131,2.579,10.263,5.155,8.162,4.1,16.319,8.208a1.057,1.057,0,0,0,1.087-.008c1.781-.92,3.58-1.806,5.372-2.706L58.326,44.355c.44-.221.882-.437,1.417-.7M42.712,24.969a2.432,2.432,0,0,0,.318-.369c.58-.988,1.141-1.987,1.727-2.971a.485.485,0,0,0-.065-.675c-.534-.594-1.047-1.208-1.559-1.822a4.186,4.186,0,0,1-.109-5.3c.544-.7,1.119-1.383,1.695-2.062a.477.477,0,0,0,.051-.642q-.9-1.516-1.762-3.055a.489.489,0,0,0-.583-.289c-.711.134-1.428.24-2.138.38A4.3,4.3,0,0,1,35.16,5.271c-.244-.68-.5-1.356-.72-2.045a.482.482,0,0,0-.547-.4q-1.765.021-3.531,0a.43.43,0,0,0-.485.352c-.214.674-.465,1.337-.7,2.006a4.294,4.294,0,0,1-5.2,2.957c-.679-.139-1.368-.227-2.05-.353a.518.518,0,0,0-.626.29q-.861,1.539-1.76,3.056a.472.472,0,0,0,.049.641c.5.581.991,1.177,1.476,1.774a4.238,4.238,0,0,1-.064,5.8c-.467.554-.936,1.1-1.415,1.649a.411.411,0,0,0-.06.56c.613,1.038,1.2,2.093,1.82,3.125a.608.608,0,0,0,.5.22c.7-.094,1.4-.222,2.092-.371a4.262,4.262,0,0,1,5.1,2.779c.28.747.542,1.5.844,2.24a.572.572,0,0,0,.4.317q1.855.038,3.712,0a.619.619,0,0,0,.439-.327c.3-.691.583-1.391.809-2.108a4.312,4.312,0,0,1,5.286-2.878c.688.161,1.392.26,2.193.405" transform="translate(0 0)" fill="#1a73e8" stroke="#fff" stroke-width="0.5"/>
      <path id="Path_83450" data-name="Path 83450" d="M22.454,84.158a1.412,1.412,0,0,1-.028-2.824,1.412,1.412,0,0,1,.028,2.824" transform="translate(-4.929 -19.057)" fill="#1a73e8" stroke="#fff" stroke-width="0.5"/>
      <path id="Path_83451" data-name="Path 83451" d="M39.8,26.355a7.175,7.175,0,1,1,7.178-7.125A7.2,7.2,0,0,1,39.8,26.355m0-2.851a4.331,4.331,0,1,0-.165-8.659,4.331,4.331,0,0,0,.165,8.659" transform="translate(-7.638 -2.813)" fill="#1a73e8" stroke="#fff" stroke-width="0.5"/>
    </g>
  </g>
</svg>
