<svg xmlns="http://www.w3.org/2000/svg" width="88.059" height="76.443" viewBox="0 0 88.059 76.443">
  <g id="Group_34785" data-name="Group 34785" transform="translate(0.152 0.15)">
    <g id="Group_34786" data-name="Group 34786" transform="translate(-0.001 0)">
      <path id="Path_84572" data-name="Path 84572" d="M28.534,55.068v9.11c1.771,0,3.478-.007,5.184,0,.959,0,1.515.428,1.6,1.18.094.867-.518,1.479-1.562,1.493-1.654.025-3.307.02-4.961.022q-4.032,0-8.065,0c-1.081,0-1.713-.5-1.708-1.355.007-.819.6-1.3,1.65-1.31,1.675-.009,3.35,0,5.071,0V55.068c-1.1,0-2.152,0-3.206,0-1.551,0-1.907-.367-1.909-1.949,0-1.411,0-2.82,0-4.288H9.4c-.018.347-.05.687-.052,1.027q0,7.487,0,14.974a5.581,5.581,0,0,1-.031.885,1.235,1.235,0,0,1-1.256,1.144,1.243,1.243,0,0,1-1.342-1.15,6.26,6.26,0,0,1-.032-.973q0-16.615,0-33.229V30.28c-1.585,0-3.055,0-4.525,0a6.934,6.934,0,0,1-1.06-.038A1.209,1.209,0,0,1,0,29.035,1.2,1.2,0,0,1,.92,27.694a3.5,3.5,0,0,1,.961-.1q5.8-.008,11.608,0h1.08c0-1.391.085-2.717-.018-4.027a5.428,5.428,0,0,1,3.442-5.832,21.371,21.371,0,0,1,18.814.322,5.09,5.09,0,0,1,2.983,5.2c-.083,1.405-.014,2.82-.014,4.281h6.258V23.969c0-.975.011-1.949,0-2.924a7.574,7.574,0,0,1,4.693-7.295,18.861,18.861,0,0,1,6.481-1.682c1.035-.106,1.436.615,1.942,1.416.144-.374.243-.635.342-.894a1.366,1.366,0,0,1,1.332-.982c.826-.016,1.654-.025,2.48,0,1.085.032,1.35.887,1.612,1.891.239-.335.338-.594.529-.718.419-.274.9-.7,1.326-.675a15.789,15.789,0,0,1,7.807,2.316,7.2,7.2,0,0,1,3.5,6.294c.022,2.242,0,4.482,0,6.823.369.02.678.05.988.05q3.633.008,7.266,0c.686,0,1.324.239,1.414.934A2.315,2.315,0,0,1,87.272,30c-.164.229-.695.261-1.062.27-1.33.029-2.658.011-3.987.009H81.171V64.487c0,.354.016.711-.014,1.063a1.359,1.359,0,0,1-1.384,1.323,1.306,1.306,0,0,1-1.251-1.351c-.029-1.771-.013-3.543-.014-5.315V55.4H56.649c-1.986,0-2.21-.227-2.21-2.251V48.844H33.724v3.674c0,.354.009.709-.005,1.063a1.329,1.329,0,0,1-1.481,1.481c-1.206.022-2.413.005-3.7.005m5.189-9.035H54.395V30.366H39.842a1.666,1.666,0,0,0-.056.259c-.005,2.273.009,4.547-.014,6.82a5.493,5.493,0,0,1-5.087,5.49c-.288.027-.574.049-.891.076a4.247,4.247,0,0,0-.067.475c-.005.824,0,1.648,0,2.548m0-5.81a2.83,2.83,0,0,0,3.37-2.958c.014-4.664-.045-9.33.032-13.994a3.194,3.194,0,0,0-1.976-3.23A10.565,10.565,0,0,0,33.5,19.4a22.055,22.055,0,0,0-9.994-.565,22.748,22.748,0,0,0-4.775,1.493,2.55,2.55,0,0,0-1.508,2.676c.058,1.592.013,3.188.014,4.783,0,3.188-.022,6.379.009,9.567a2.726,2.726,0,0,0,3.376,2.8v-.939c0-2.805-.02-5.61.007-8.414a4.639,4.639,0,0,1,4.635-4.712c1.3-.029,2.6-.038,3.9,0A4.63,4.63,0,0,1,33.713,30.7c.031,2.215.009,4.43.011,6.643v2.875m44.739-.094c.018-.38.043-.671.043-.961,0-2.629-.034-5.258.022-7.885.018-.84-.256-1.026-1.047-1.022-6.438.029-12.876.016-19.314.016h-1v9.851ZM78.508,52.7v-.977c0-2.629-.038-5.258.022-7.887.02-.86-.288-1.013-1.062-1.009-6.44.027-12.878.014-19.318.014h-.977V52.7Zm-47.526-.34a3.707,3.707,0,0,0,.065-.47q.005-10.54-.005-21.079a1.961,1.961,0,0,0-2.08-2.053c-1.033-.031-2.066-.011-3.1-.009-1.87.005-2.564.695-2.564,2.564q-.005,10.054,0,20.106c0,.311.029.621.045.941Zm44.386-24.8c0-2.517.05-4.936-.02-7.35a4.277,4.277,0,0,0-1.906-3.354,12.218,12.218,0,0,0-5.706-2,.627.627,0,0,0-.522.2c-1.263,2.064-2.5,4.142-3.746,6.22a.348.348,0,0,0-.049.169c0,2.026,0,4.054,0,6.112ZM48.8,27.514H60.723c0-2,.005-3.914-.009-5.83a1.394,1.394,0,0,0-.194-.662c-1.143-1.931-2.289-3.858-3.473-5.763a.915.915,0,0,0-.758-.372A34.068,34.068,0,0,0,51.66,16.3a4.247,4.247,0,0,0-2.823,3.6c-.151,2.519-.04,5.056-.04,7.622M9.4,46.056H20.563V43.012c-.234-.023-.407-.047-.581-.058a5.519,5.519,0,0,1-5.414-5.8q0-1.86,0-3.717v-3.1H9.4ZM62.074,18.183c1.332-1.054.8-2.325.36-3.574-.045-.131-.257-.315-.353-.3a.658.658,0,0,0-.421.34c-.466,1.231-.955,2.478.414,3.529" transform="translate(0.001 9.266)" fill="#1a73e8" stroke="#eaeaea" stroke-width="0.3"/>
      <path id="Path_84573" data-name="Path 84573" d="M29.09,9.695a9.726,9.726,0,1,1,9.639,9.734A9.746,9.746,0,0,1,29.09,9.695m9.72,7.077a7.044,7.044,0,1,0-7.057-7.035,7.066,7.066,0,0,0,7.057,7.035" transform="translate(23.254)" fill="#1a73e8" stroke="#eaeaea" stroke-width="0.3"/>
      <path id="Path_84574" data-name="Path 84574" d="M18.64,19.2a7.978,7.978,0,1,1,8.009-7.883A7.941,7.941,0,0,1,18.64,19.2m0-2.656a5.318,5.318,0,0,0,5.346-5.247,5.332,5.332,0,1,0-10.663-.032,5.323,5.323,0,0,0,5.317,5.279" transform="translate(8.52 2.591)" fill="#1a73e8" stroke="#eaeaea" stroke-width="0.3"/>
    </g>
  </g>
</svg>
