<svg xmlns="http://www.w3.org/2000/svg" xmlns:xlink="http://www.w3.org/1999/xlink" width="43.586" height="43.502" viewBox="0 0 43.586 43.502">
  <defs>
    <clipPath id="clip-path">
      <rect id="Rectangle_20639" data-name="Rectangle 20639" width="43.586" height="43.502" fill="none"/>
    </clipPath>
  </defs>
  <g id="Group_34774" data-name="Group 34774" transform="translate(0 0)">
    <g id="Group_34773" data-name="Group 34773" transform="translate(0 0)" clip-path="url(#clip-path)">
      <path id="Path_83468" data-name="Path 83468" d="M43.58,19.413A2.319,2.319,0,0,0,41.819,17.1c-1.074-.306-2.149-.606-3.225-.905a1.675,1.675,0,0,1-1.157-.906,1.682,1.682,0,0,1,.161-1.467c.219-.4.444-.795.669-1.189.3-.534.607-1.067.9-1.609a5.736,5.736,0,0,0,.338-.841c.045-.133.092-.273.147-.417l.062-.165-.078-.16c-.059-.119-.112-.246-.162-.372a2.88,2.88,0,0,0-.521-.919C37.8,6.928,36.612,5.765,35.5,4.678a2.246,2.246,0,0,0-2.83-.356q-1.426.783-2.844,1.586a1.781,1.781,0,0,1-1.559.225A1.754,1.754,0,0,1,27.322,4.9l-.355-1.26c-.175-.623-.348-1.245-.53-1.867A2.247,2.247,0,0,0,24.1,0Q21.784,0,19.467,0a2.22,2.22,0,0,0-2.311,1.73C17,2.262,16.85,2.791,16.7,3.32c-.162.577-.324,1.152-.5,1.725A1.614,1.614,0,0,1,15.3,6.132a1.65,1.65,0,0,1-1.433-.156q-1.417-.8-2.838-1.587a2.313,2.313,0,0,0-3.106.435Q6.4,6.336,4.893,7.858a2.378,2.378,0,0,0-.422,3.276l.421.741c.387.677.772,1.354,1.139,2.042a1.5,1.5,0,0,1-.967,2.259q-1.358.386-2.718.763l-.5.141A2.345,2.345,0,0,0,0,19.478Q0,21.745,0,24.013a2.348,2.348,0,0,0,1.829,2.408l3.08.868a1.761,1.761,0,0,1,1.236.932,1.752,1.752,0,0,1-.2,1.525c-.243.44-.493.878-.742,1.316-.295.518-.588,1.038-.875,1.561a2.3,2.3,0,0,0,.345,2.8q1.66,1.688,3.349,3.349a2.279,2.279,0,0,0,2.909.391q1.447-.8,2.884-1.612A1.7,1.7,0,0,1,15.3,37.37a1.707,1.707,0,0,1,.937,1.17c.144.5.284.994.423,1.492.158.56.315,1.121.48,1.68A2.25,2.25,0,0,0,19.506,43.5q1.146,0,2.293,0t2.291,0a2.242,2.242,0,0,0,2.344-1.759c.156-.538.308-1.079.458-1.619s.3-1.068.453-1.6a1.532,1.532,0,0,1,2.389-.982q1.417.8,2.84,1.587a2.308,2.308,0,0,0,3.064-.437q1.538-1.531,3.066-3.069a2.37,2.37,0,0,0,.414-3.234l-.387-.682c-.4-.7-.795-1.4-1.175-2.1a1.588,1.588,0,0,1-.12-1.386,1.62,1.62,0,0,1,1.1-.895l3.221-.9a2.349,2.349,0,0,0,1.82-2.37q.01-2.317,0-4.635m-1.852,4.582c0,.446-.079.546-.515.671l-3.175.894a3.312,3.312,0,0,0-2.076,4.952c.354.649.719,1.293,1.085,1.937l.534.944c.24.429.227.535-.11.871q-1.564,1.571-3.136,3.134c-.345.343-.443.358-.877.118-.934-.513-1.862-1.036-2.79-1.559a3.369,3.369,0,0,0-5.1,2.107q-.435,1.564-.88,3.124c-.116.405-.229.493-.635.5q-2.265.009-4.531,0c-.379,0-.508-.068-.633-.5q-.435-1.51-.853-3.027a3.576,3.576,0,0,0-2.02-2.471,3.147,3.147,0,0,0-1.213-.238,4.028,4.028,0,0,0-1.985.564q-1.367.779-2.746,1.532c-.37.2-.5.184-.8-.115q-1.608-1.6-3.2-3.2c-.291-.292-.305-.412-.091-.8l.662-1.177c.32-.566.641-1.134.953-1.7a3.46,3.46,0,0,0,.257-3.031,3.5,3.5,0,0,0-2.37-1.969L2.4,24.675c-.488-.14-.567-.242-.57-.736q-.009-2.191,0-4.383c0-.488.083-.591.574-.73l1.312-.368c.606-.17,1.212-.339,1.817-.513A3.314,3.314,0,0,0,7.615,13c-.348-.643-.708-1.278-1.067-1.912L6,10.112c-.245-.437-.233-.527.111-.873l.374-.375C7.4,7.943,8.317,7.021,9.246,6.113a2.015,2.015,0,0,1,.394-.267c.021-.012.042-.023.062-.036l.057.022a2.216,2.216,0,0,1,.318.133q1.422.783,2.833,1.582A3.493,3.493,0,0,0,16,7.823a3.461,3.461,0,0,0,2-2.337c.174-.6.341-1.2.51-1.806L18.86,2.4c.147-.52.233-.586.767-.587q2.167,0,4.335,0c.525,0,.609.068.758.6l.85,3.031a3.486,3.486,0,0,0,2,2.377,3.489,3.489,0,0,0,3.1-.277q1.41-.8,2.832-1.583c.374-.206.493-.188.8.115q1.608,1.6,3.2,3.2c.294.3.308.408.092.792l-.6,1.074c-.348.615-.7,1.23-1.034,1.851a3.314,3.314,0,0,0,2.086,4.95l3.173.894c.435.123.507.218.508.675q.009,2.24,0,4.48" transform="translate(0 0)" fill="#1A73E8"/>
      <path id="Path_83469" data-name="Path 83469" d="M29.191,14.128q-1.786-.774-3.567-1.556c-1.547-.677-3.1-1.355-4.647-2.021a1.572,1.572,0,0,0-1.138-.036q-2.588,1.048-5.165,2.117-1.835.757-3.67,1.51a1.125,1.125,0,0,0-.776,1.153q.019,4.6,0,9.209a1.206,1.206,0,0,0,.812,1.226q1.955.865,3.907,1.739,2.429,1.087,4.865,2.162a1.376,1.376,0,0,0,.546.1,1.474,1.474,0,0,0,.606-.123q2.392-1.118,4.776-2.255,1.751-.832,3.5-1.658a1.168,1.168,0,0,0,.739-1.171c-.01-1.1-.009-2.21-.007-3.314V19.9l0-1.262c0-1.106,0-2.21.009-3.315a1.172,1.172,0,0,0-.791-1.2M19.436,27.47,14.4,25.221c-.737-.327-1.474-.655-2.2-1a1.3,1.3,0,0,1-.134-.113c-.019-2.311-.016-4.625-.013-6.937l0-.721.65.267c2.206.906,4.413,1.812,6.609,2.733.038.02.108.1.119.1.019,2.418.015,4.838.013,7.257Zm1.13-9.683a.551.551,0,0,1-.33.034q-3.007-1.216-6.005-2.46l-.676-.284,2.656-1.1c1.315-.543,2.628-1.086,3.948-1.615a.559.559,0,0,1,.331-.026c1.873.8,3.74,1.622,5.606,2.441l.681.305-.476.209q-2.866,1.256-5.735,2.5m7.4,6.49c-1.6.749-3.2,1.512-4.8,2.275l-1.869.891,0,0V25.667q0-3.018,0-6.036c0-.119.008-.153.078-.195q2.609-1.122,5.209-2.266l1.582-.691v1.688c0,1.925,0,3.848.007,5.771,0,.216-.021.254-.2.337" transform="translate(1.687 1.719)" fill="#1A73E8"/>
    </g>
  </g>
</svg>
