<svg id="Group_19586" data-name="Group 19586" xmlns="http://www.w3.org/2000/svg" width="16.968" height="17.075" viewBox="0 0 16.968 17.075">
  <path id="Path_76786" data-name="Path 76786" d="M10.2,15.542a.4.4,0,0,0-.263-.268L8.484,14.81,2.7,14.805a1.452,1.452,0,0,1-1.451-1.45V7.895h.03l0-.127a1.026,1.026,0,0,1,.277-.729L6.484,1.6a1.09,1.09,0,0,1,1.61,0l4.934,5.437a1.028,1.028,0,0,1,.277.729l0,.127h.016V8.3l.286.218a.414.414,0,0,0,.38.062l.58-.187V7.647h-.01a2.276,2.276,0,0,0-.588-1.442L9.031.768a2.359,2.359,0,0,0-3.483,0L.613,6.206A2.276,2.276,0,0,0,.025,7.647H0v5.708a2.7,2.7,0,0,0,2.7,2.7h7.652Z" fill="#a6a8d1"/>
  <path id="Path_76787" data-name="Path 76787" d="M25.476,22.963l-1.3-1.794a.255.255,0,0,1-.032-.24l.776-2.1a.5.5,0,0,0-.107-.524.511.511,0,0,0-.53-.131l-2.15.695a.268.268,0,0,1-.246-.04l-1.77-1.345a.52.52,0,0,0-.832.406l-.028,2.223a.268.268,0,0,1-.119.218L17.268,21.6a.511.511,0,0,0-.222.5.5.5,0,0,0,.347.407l2.133.679a.255.255,0,0,1,.169.173l.614,2.129a.5.5,0,0,0,.4.356.517.517,0,0,0,.512-.2l1.346-1.8a.309.309,0,0,1,.227-.111l2.25.049a.539.539,0,0,0,.474-.28.5.5,0,0,0-.037-.531" transform="translate(-8.604 -8.776)" fill="#a6a8d1"/>
</svg>
