<svg xmlns="http://www.w3.org/2000/svg" width="20.368" height="20.496" viewBox="0 0 20.368 20.496">
  <g id="Group_19589" data-name="Group 19589" transform="translate(0 0)">
    <g id="Group_19586" data-name="Group 19586" transform="translate(0 0)">
      <path id="Path_76786" data-name="Path 76786" d="M12.245,18.656a.476.476,0,0,0-.316-.322l-1.745-.556-6.947-.007A1.743,1.743,0,0,1,1.5,16.031V9.477h.036l0-.153a1.231,1.231,0,0,1,.333-.875L7.783,1.922a1.309,1.309,0,0,1,1.933,0l5.922,6.527a1.234,1.234,0,0,1,.333.875l0,.153h.019v.487l.343.261a.5.5,0,0,0,.456.075l.7-.225v-.9h-.012a2.732,2.732,0,0,0-.706-1.73L10.84.922a2.832,2.832,0,0,0-4.181,0L.736,7.449A2.732,2.732,0,0,0,.03,9.18H0v6.851a3.241,3.241,0,0,0,3.237,3.237h9.185Z" fill="#a6a8d1"/>
      <path id="Path_76787" data-name="Path 76787" d="M27.166,24.082l-1.561-2.153a.307.307,0,0,1-.039-.288l.932-2.52a.6.6,0,0,0-.129-.629.613.613,0,0,0-.636-.157l-2.58.834a.322.322,0,0,1-.295-.048l-2.124-1.615a.624.624,0,0,0-1,.487L19.7,20.662a.322.322,0,0,1-.143.262l-2.245,1.521a.613.613,0,0,0-.267.6.6.6,0,0,0,.416.489l2.56.815a.307.307,0,0,1,.2.207l.737,2.555a.6.6,0,0,0,.475.427.621.621,0,0,0,.614-.242l1.616-2.165A.371.371,0,0,1,23.941,25l2.7.058a.648.648,0,0,0,.569-.336.6.6,0,0,0-.045-.638" transform="translate(-6.914 -7.052)" fill="#a6a8d1"/>
    </g>
  </g>
</svg>
