<svg xmlns="http://www.w3.org/2000/svg" xmlns:xlink="http://www.w3.org/1999/xlink" width="44.29" height="42.276" viewBox="0 0 44.29 42.276">
  <defs>
    <clipPath id="clip-path">
      <rect id="Rectangle_20641" data-name="Rectangle 20641" width="44.29" height="42.276" fill="none" stroke="#1A73E8" stroke-width="0.2"/>
    </clipPath>
  </defs>
  <g id="Group_34779" data-name="Group 34779" transform="translate(0 0)">
    <g id="Group_34778" data-name="Group 34778" transform="translate(0 0)" clip-path="url(#clip-path)">
      <path id="Path_83473" data-name="Path 83473" d="M11.032,16.172a6.27,6.27,0,0,1,4.547,3.839,1.008,1.008,0,0,0,.671.658.865.865,0,0,0,.2.024,1.113,1.113,0,0,0,.7-.295,6.23,6.23,0,0,1,4.872-1.465,6.652,6.652,0,0,1,2.9,1.089l.216.095a.647.647,0,0,1,.3.2.865.865,0,0,0,.977.245l.009,0a.989.989,0,0,0,.217-.115l.161-.121.078-.185a6.338,6.338,0,0,1,4.661-3.965,1.091,1.091,0,0,0,.848-.9,22.922,22.922,0,0,0,.533-7,2.008,2.008,0,0,0-1.33-1.842,33.729,33.729,0,0,1-4.74-2.414A18.164,18.164,0,0,1,22.466.544,1.575,1.575,0,0,0,21.274,0h0a1.61,1.61,0,0,0-1.214.554A15.129,15.129,0,0,1,17.2,3.027a35.864,35.864,0,0,1-6.459,3.5A1.691,1.691,0,0,0,9.661,7.96a21.558,21.558,0,0,0,.5,7.385,1.07,1.07,0,0,0,.867.827m.114-8.04c.013-.122.026-.164.189-.234a37.18,37.18,0,0,0,6.722-3.646,16.615,16.615,0,0,0,3.128-2.716l.15-.014A19.548,19.548,0,0,0,26.062,5.29a35.3,35.3,0,0,0,4.95,2.522.541.541,0,0,1,.411.574,21.467,21.467,0,0,1-.461,6.385A7.727,7.727,0,0,0,25.854,18.8a1.989,1.989,0,0,0-.215-.087,8.076,8.076,0,0,0-3.456-1.262,7.713,7.713,0,0,0-5.491,1.417,7.718,7.718,0,0,0-5.126-4.1,19.891,19.891,0,0,1-.42-6.634" transform="translate(0.954 0)" fill="#1A73E8" stroke="#1A73E8" stroke-width="0.2"/>
      <path id="Path_83474" data-name="Path 83474" d="M26.765,31.528A8.495,8.495,0,0,0,19.118,29.6a8.9,8.9,0,0,0-7,8.079,1.523,1.523,0,0,0,.374,1.164,1.464,1.464,0,0,0,1.076.474l.184,0c.391.007.782.013,1.174.013H28.087a3.62,3.62,0,0,0,.582-.039,1.432,1.432,0,0,0,1.211-1.482,6.356,6.356,0,0,0-.067-.72,8.772,8.772,0,0,0-3.048-5.57m1.672,6.425a2.224,2.224,0,0,1-.351.019H14.929c-.383,0-.768-.007-1.152-.013l-.184,0a.121.121,0,0,1-.085-.025.194.194,0,0,1-.025-.134,7.544,7.544,0,0,1,5.928-6.856,8.075,8.075,0,0,1,1.725-.195,7.211,7.211,0,0,1,4.745,1.826,7.45,7.45,0,0,1,2.58,4.729,4.815,4.815,0,0,1,.052.56c0,.06-.015.083-.076.092" transform="translate(1.212 2.937)" fill="#1A73E8" stroke="#1A73E8" stroke-width="0.2"/>
      <path id="Path_83475" data-name="Path 83475" d="M41.7,35.651a9.41,9.41,0,0,0-3.343-6.209,9.446,9.446,0,0,0-12.27.073.984.984,0,0,0-.454.833,1,1,0,0,0,.59.769,9.634,9.634,0,0,1,4.335,5.757,1.161,1.161,0,0,0,1.222.932h.03c.917-.011,1.837-.011,2.753-.009l2.675,0c.948,0,1.905,0,2.862,0a1.534,1.534,0,0,0,1.628-1.658,4.228,4.228,0,0,0-.028-.487m-9.907.977-.012-.041.012-.008v.048Zm8.482-.288a.388.388,0,0,1-.182.03q-1.427,0-2.857,0l-2.889,0c-.815,0-1.631,0-2.449.008a10.959,10.959,0,0,0-4.429-6.148,8.025,8.025,0,0,1,9.968.3,8.018,8.018,0,0,1,2.845,5.3,2.855,2.855,0,0,1,.017.323.415.415,0,0,1-.025.181" transform="translate(2.563 2.721)" fill="#1A73E8" stroke="#1A73E8" stroke-width="0.2"/>
      <path id="Path_83476" data-name="Path 83476" d="M15.6,30.811a.862.862,0,0,0,.128-1.485,9.32,9.32,0,0,0-5.684-2.345A9.23,9.23,0,0,0,1.994,30.6,8.943,8.943,0,0,0,.005,35.775,1.663,1.663,0,0,0,.4,37.064a1.71,1.71,0,0,0,1.312.48H7.03c.989,0,1.979,0,2.971.007h.013a1.084,1.084,0,0,0,1.129-.869A9.642,9.642,0,0,1,15.6,30.811M9.816,36.121q-.911-.007-1.824-.006l-2.182,0h-4.1c-.185,0-.267-.028-.263-.018a.571.571,0,0,1-.02-.241,7.544,7.544,0,0,1,1.676-4.366A7.9,7.9,0,0,1,9.971,28.4a7.8,7.8,0,0,1,4.284,1.574,11.051,11.051,0,0,0-4.44,6.142" transform="translate(0 2.696)" fill="#1A73E8" stroke="#1A73E8" stroke-width="0.2"/>
      <path id="Path_83477" data-name="Path 83477" d="M17.8,13.89l.515.513a1.064,1.064,0,0,0,.735.321h.016a1.119,1.119,0,0,0,.773-.348c.364-.367.728-.731,1.093-1.1l1.615-1.614q1.257-1.257,2.517-2.513a1.119,1.119,0,0,0,.387-.934,1.021,1.021,0,0,0-.7-.89,1.055,1.055,0,0,0-1.149.3L21.765,9.462Q20.429,10.8,19.095,12.14l-.03.029-.014-.014c-.444-.472-.914-.931-1.369-1.374l-.045-.045a1.066,1.066,0,0,0-1.5-.035,1.039,1.039,0,0,0-.321.734,1.077,1.077,0,0,0,.318.773c.551.566,1.112,1.125,1.673,1.683" transform="translate(1.581 0.726)" fill="#1A73E8" stroke="#1A73E8" stroke-width="0.2"/>
      <path id="Path_83478" data-name="Path 83478" d="M10,27.325A5.528,5.528,0,1,0,4.473,21.8,5.535,5.535,0,0,0,10,27.325m0-9.761A4.233,4.233,0,1,1,5.768,21.8,4.237,4.237,0,0,1,10,17.564" transform="translate(0.447 1.627)" fill="#1A73E8" stroke="#1A73E8" stroke-width="0.2"/>
      <path id="Path_83479" data-name="Path 83479" d="M20.408,18.81a5.528,5.528,0,1,0,5.529,5.527,5.535,5.535,0,0,0-5.529-5.527m0,9.761a4.233,4.233,0,1,1,4.233-4.234,4.239,4.239,0,0,1-4.233,4.234" transform="translate(1.488 1.881)" fill="#1A73E8" stroke="#1A73E8" stroke-width="0.2"/>
      <path id="Path_83480" data-name="Path 83480" d="M25.716,21.978a5.529,5.529,0,1,0,5.53-5.527,5.536,5.536,0,0,0-5.53,5.527m9.762,0a4.233,4.233,0,1,1-4.233-4.233,4.238,4.238,0,0,1,4.233,4.233" transform="translate(2.572 1.645)" fill="#1A73E8" stroke="#1A73E8" stroke-width="0.2"/>
    </g>
  </g>
</svg>
