<svg id="Group_18294" data-name="Group 18294" xmlns="http://www.w3.org/2000/svg" xmlns:xlink="http://www.w3.org/1999/xlink" width="1141.779" height="426.786" viewBox="0 0 1141.779 426.786">
  <defs>
    <linearGradient id="linear-gradient" x1="1.04" y1="-0.224" x2="-0.255" y2="1.429" gradientUnits="objectBoundingBox">
      <stop offset="0" stop-color="#ff8c19"/>
      <stop offset="1" stop-color="#f022a1"/>
    </linearGradient>
    <clipPath id="clip-path">
      <rect id="Rectangle_13162" data-name="Rectangle 13162" width="1091.377" height="426.52" rx="34" fill="url(#linear-gradient)"/>
    </clipPath>
    <clipPath id="clip-path-2">
      <rect id="Rectangle_13161" data-name="Rectangle 13161" width="1064.045" height="845.836" transform="translate(0 0)" fill="#c6daf5" stroke="#c5daf6" stroke-width="1"/>
    </clipPath>
    <clipPath id="clip-path-3">
      <path id="Path_67824" data-name="Path 67824" d="M212.51,578.7,1673.006,0,1460.5,1272.485,0,1851.181Z" transform="translate(0 0)" fill="#c6daf5" stroke="#c5daf6" stroke-width="4"/>
    </clipPath>
    <clipPath id="clip-path-4">
      <path id="Path_67823" data-name="Path 67823" d="M361.146,599.721,1874.705,0,1513.559,2162.5,0,2762.218Z" fill="#c6daf5" stroke="#c5daf6" stroke-width="4"/>
    </clipPath>
  </defs>
  <rect id="Rectangle_2888" data-name="Rectangle 2888" width="1141.779" height="426.786" rx="50" fill="url(#linear-gradient)"/>
  <g id="Mask_Group_7378" data-name="Mask Group 7378" transform="translate(43.788 0.266)" clip-path="url(#clip-path)">
    <g id="Mask_Group_7377" data-name="Mask Group 7377" transform="translate(296.097 -422.918)" opacity="0.189" clip-path="url(#clip-path-2)">
      <g id="Mask_Group_7376" data-name="Mask Group 7376" transform="matrix(0.966, -0.259, 0.259, 0.966, -845.505, 77.644)" opacity="0.674" clip-path="url(#clip-path-3)">
        <g id="Group_17884" data-name="Group 17884" transform="translate(-23.733 489.253)">
          <g id="Group_17883" data-name="Group 17883" transform="translate(0 0)" clip-path="url(#clip-path-4)">
            <path id="Path_67777" data-name="Path 67777" d="M212.858,26.936C182.1,7.63,150.026,5.028,114.8,18.986S42.025,63.133,0,111.277l.023-8.727c42.6-48.815,80.693-79.427,116.452-93.6s68.3-11.546,99.481,8.036Z" transform="translate(1081.768 2222.31)" fill="#c6daf5" stroke="#c5daf6" stroke-width="4"/>
            <path id="Path_67778" data-name="Path 67778" d="M212.858,26.936C182.1,7.631,150.026,5.028,114.8,18.986S42.023,63.134,0,111.277l.02-8.726c42.6-48.815,80.7-79.428,116.455-93.6s68.3-11.546,99.481,8.036Z" transform="translate(218.188 2564.488)" fill="#c6daf5" stroke="#c5daf6" stroke-width="4"/>
            <path id="Path_67779" data-name="Path 67779" d="M332.068,70.424C297.106,30.191,252.4-7.392,185.876,18.966S54.867,126.174.56,201.778l-.56-8c54.877-76.4,120.075-158.11,187.551-184.846S300.239,20.163,335.567,60.819Z" transform="translate(1021.928 2155.048)" fill="#c6daf5" stroke="#c5daf6" stroke-width="4"/>
            <path id="Path_67780" data-name="Path 67780" d="M332.065,70.424C297.106,30.189,252.394-7.392,185.873,18.966S54.861,126.174.557,201.778l-.557-8C54.871,117.384,120.069,35.672,187.548,8.935S300.233,20.164,335.562,60.82Z" transform="translate(158.354 2497.225)" fill="#c6daf5" stroke="#c5daf6" stroke-width="4"/>
            <path id="Path_67781" data-name="Path 67781" d="M430.346,118.158c-49.312-65.091-100.3-132.4-184.032-99.218S80.293,172.23.712,288.392L0,280.612C80.183,163.575,163.1,42.545,247.989,8.909S384.256,43.092,433.944,108.67Z" transform="translate(972.728 2087.787)" fill="#c6daf5" stroke="#c5daf6" stroke-width="4"/>
            <path id="Path_67782" data-name="Path 67782" d="M430.339,118.158C381.018,53.058,330.032-14.235,246.307,18.94S80.29,172.222.713,288.377L0,280.6C80.18,163.567,163.1,42.544,247.982,8.909S384.24,43.083,433.923,108.657Z" transform="translate(109.155 2429.965)" fill="#c6daf5" stroke="#c5daf6" stroke-width="4"/>
            <path id="Path_67783" data-name="Path 67783" d="M528.57,166.048c-13-14.957-25.673-31.693-37.932-47.874-49.313-65.1-100.3-132.413-184.04-99.233s-166.021,153.3-245.6,269.466C41.208,317.285,20.75,347.148.557,375.264l-.557-8c20.111-28,40.529-57.811,60.283-86.64C140.468,163.575,223.384,42.545,308.273,8.909S444.548,43.1,494.231,108.688c12.237,16.153,24.892,32.858,37.836,47.756Z" transform="translate(923.682 2020.493)" fill="#c6daf5" stroke="#c5daf6" stroke-width="4"/>
            <path id="Path_67784" data-name="Path 67784" d="M528.576,166.048c-13-14.964-25.681-31.7-37.941-47.883-49.312-65.09-100.3-132.4-184.028-99.226S140.583,172.238,61,288.4C41.214,317.285,20.753,347.15.56,375.265l-.56-8c20.116-28,40.537-57.815,60.288-86.642C140.476,163.575,223.392,42.545,308.282,8.909s136.264,34.184,185.951,99.769c12.236,16.159,24.893,32.863,37.842,47.766Z" transform="translate(60.093 2362.671)" fill="#c6daf5" stroke="#c5daf6" stroke-width="4"/>
            <path id="Path_67785" data-name="Path 67785" d="M647.647,209.891c-32.362-20.324-59.865-56.619-86.46-91.73-49.313-65.1-100.306-132.4-184.045-99.219s-166.019,153.284-245.6,269.446C88.616,351.052,44.227,415.838,0,466.509l.02-8.726c43.856-50.25,88.059-114.775,130.806-177.169C211.013,163.57,293.928,42.546,378.818,8.91S515.1,43.089,564.782,108.68c26.486,34.961,53.871,71.109,85.964,91.265Z" transform="translate(864.373 1953.217)" fill="#c6daf5" stroke="#c5daf6" stroke-width="4"/>
            <path id="Path_67786" data-name="Path 67786" d="M646.778,209.889c-32.368-20.322-59.872-56.622-86.473-91.731C510.993,53.067,460-14.237,376.273,18.94s-166.016,153.283-245.6,269.445C88.029,350.632,43.93,415,0,465.508l.012-8.723C43.577,406.7,87.49,342.6,129.96,280.606c80.183-117.037,163.1-238.061,247.988-271.7S514.215,43.092,563.9,108.67c26.488,34.96,53.877,71.119,85.973,91.274Z" transform="translate(1.665 2295.395)" fill="#c6daf5" stroke="#c5daf6" stroke-width="4"/>
            <path id="Path_67787" data-name="Path 67787" d="M746.258,551.194c-84.892,33.637-136.267-34.183-185.955-99.761-49.309-65.091-100.3-132.4-184.031-99.224S210.252,505.5,130.673,621.66C88.027,683.907,43.929,748.279,0,798.788l.013-8.729c43.563-50.083,87.476-114.182,129.945-176.172,80.184-117.044,163.1-238.074,247.99-271.71s136.27,34.182,185.954,99.768c49.31,65.085,100.3,132.4,184.032,99.218s166.024-153.3,245.6-269.453c80.184-117.044,163.1-238.074,247.99-271.71l-1.675,10.031c-83.731,33.177-166.021,153.3-245.6,269.459-80.183,117.037-163.1,238.067-247.989,271.7" transform="translate(12.901 1894.834)" fill="#c6daf5" stroke="#c5daf6" stroke-width="4"/>
            <path id="Path_67788" data-name="Path 67788" d="M746.258,551.2c-84.892,33.637-136.267-34.183-185.954-99.768-49.309-65.092-100.3-132.4-184.031-99.225s-166.019,153.3-245.6,269.458C88.027,683.914,43.929,748.285,0,798.795l.013-8.729C43.575,739.982,87.49,675.877,129.958,613.894c80.185-117.051,163.1-238.081,247.991-271.717s136.27,34.182,185.953,99.775c49.31,65.085,100.3,132.4,184.032,99.218s166.024-153.3,245.6-269.453C1073.721,154.666,1156.637,33.636,1241.526,0l-1.675,10.031c-83.731,33.177-166.022,153.3-245.6,269.46-80.184,117.044-163.1,238.073-247.99,271.71" transform="translate(24.137 1827.546)" fill="#c6daf5" stroke="#c5daf6" stroke-width="4"/>
            <path id="Path_67789" data-name="Path 67789" d="M746.257,551.194C661.365,584.831,609.99,517.011,560.3,451.426c-49.31-65.085-100.3-132.4-184.032-99.218S210.254,505.5,130.675,621.659C88.027,683.9,43.929,748.272,0,798.782l.013-8.729C43.574,739.976,87.489,675.871,129.96,613.88c80.184-117.044,163.1-238.068,247.986-271.7s136.27,34.182,185.955,99.761c49.309,65.092,100.3,132.4,184.031,99.224s166.024-153.3,245.6-269.459c80.183-117.037,163.1-238.068,247.989-271.7l-1.675,10.031c-83.731,33.177-166.022,153.3-245.6,269.453-80.184,117.044-163.1,238.073-247.99,271.71" transform="translate(35.375 1760.266)" fill="#c6daf5" stroke="#c5daf6" stroke-width="4"/>
            <path id="Path_67790" data-name="Path 67790" d="M746.258,551.194c-84.892,33.637-136.267-34.183-185.954-99.768-49.31-65.085-100.3-132.4-184.032-99.218S210.252,505.5,130.673,621.66C88.027,683.907,43.929,748.279,0,798.788l.013-8.729c43.563-50.084,87.476-114.182,129.946-176.178,80.183-117.037,163.1-238.068,247.989-271.7s136.27,34.182,185.955,99.761c49.309,65.092,100.3,132.4,184.031,99.225s166.024-153.3,245.6-269.46c80.183-117.037,163.1-238.067,247.989-271.7l-1.675,10.031c-83.731,33.177-166.022,153.3-245.6,269.453-80.184,117.044-163.1,238.073-247.99,271.71" transform="translate(46.612 1692.978)" fill="#c6daf5" stroke="#c5daf6" stroke-width="4"/>
            <path id="Path_67791" data-name="Path 67791" d="M746.258,551.187C661.366,584.824,609.991,517,560.3,451.426c-49.309-65.092-100.3-132.4-184.032-99.218S210.253,505.5,130.676,621.652C88.03,683.9,43.929,748.272,0,798.781l.013-8.729C43.575,739.969,87.492,675.869,129.96,613.88c80.184-117.044,163.1-238.068,247.986-271.7S514.217,376.352,563.9,441.945c49.31,65.085,100.3,132.389,184.033,99.211s166.023-153.292,245.6-269.446C1073.72,154.66,1156.634,33.636,1241.524,0l-1.675,10.031c-83.731,33.177-166.021,153.291-245.6,269.453-80.183,117.037-163.1,238.066-247.989,271.7" transform="translate(57.849 1625.697)" fill="#c6daf5" stroke="#c5daf6" stroke-width="4"/>
            <path id="Path_67792" data-name="Path 67792" d="M746.258,551.194c-84.892,33.637-136.267-34.183-185.955-99.761-49.309-65.092-100.3-132.4-184.031-99.225S210.252,505.5,130.673,621.66C88.027,683.907,43.929,748.279,0,798.788l.013-8.729c43.563-50.084,87.476-114.182,129.945-176.172,80.184-117.044,163.1-238.074,247.99-271.71s136.27,34.182,185.954,99.768c49.31,65.085,100.3,132.4,184.032,99.218s166.024-153.3,245.6-269.453c80.184-117.044,163.1-238.074,247.99-271.71l-1.675,10.031c-83.731,33.177-166.021,153.3-245.6,269.459-80.183,117.037-163.1,238.067-247.989,271.7" transform="translate(69.086 1558.403)" fill="#c6daf5" stroke="#c5daf6" stroke-width="4"/>
            <path id="Path_67793" data-name="Path 67793" d="M746.258,551.187C661.366,584.824,609.991,517,560.3,451.426c-49.309-65.092-100.3-132.4-184.032-99.218s-166.016,153.283-245.6,269.444C88.03,683.9,43.929,748.272,0,798.782l.013-8.729C43.574,739.976,87.492,675.869,129.96,613.88c80.184-117.044,163.1-238.068,247.986-271.7S514.217,376.352,563.9,441.945c49.31,65.085,100.3,132.389,184.033,99.211s166.023-153.292,245.6-269.446C1073.72,154.66,1156.634,33.636,1241.524,0l-1.675,10.031c-83.731,33.177-166.021,153.291-245.6,269.453-80.183,117.037-163.1,238.066-247.989,271.7" transform="translate(80.324 1491.122)" fill="#c6daf5" stroke="#c5daf6" stroke-width="4"/>
            <path id="Path_67794" data-name="Path 67794" d="M746.258,551.181C661.366,584.818,609.991,517,560.3,451.419,510.995,386.328,460,319.03,376.27,352.208s-166.015,153.276-245.6,269.438C88.027,683.894,43.929,748.265,0,798.775l.013-8.729c43.563-50.084,87.476-114.182,129.945-176.172,80.184-117.044,163.1-238.061,247.987-271.7S514.217,376.346,563.9,441.932c49.308,65.1,100.3,132.4,184.032,99.218S913.956,387.865,993.535,271.7c80.184-117.044,163.1-238.061,247.988-271.7l-1.675,10.031c-83.731,33.177-166.019,153.284-245.6,269.446-80.183,117.037-163.1,238.067-247.989,271.7" transform="translate(91.561 1423.841)" fill="#c6daf5" stroke="#c5daf6" stroke-width="4"/>
            <path id="Path_67795" data-name="Path 67795" d="M746.258,551.187C661.366,584.824,609.991,517,560.3,451.426c-49.309-65.092-100.3-132.4-184.032-99.218s-166.016,153.283-245.6,269.445C88.027,683.9,43.929,748.272,0,798.782l.013-8.729c43.563-50.083,87.476-114.182,129.945-176.172,80.184-117.044,163.1-238.068,247.989-271.7S514.217,376.352,563.9,441.938c49.309,65.092,100.3,132.4,184.032,99.218S913.957,387.865,993.535,271.7C1073.72,154.66,1156.634,33.636,1241.524,0l-1.675,10.031c-83.731,33.177-166.021,153.291-245.6,269.453-80.183,117.037-163.1,238.067-247.989,271.7" transform="translate(102.797 1356.553)" fill="#c6daf5" stroke="#c5daf6" stroke-width="4"/>
            <path id="Path_67796" data-name="Path 67796" d="M746.257,551.194C661.365,584.831,609.99,517.011,560.3,451.426c-49.309-65.092-100.3-132.4-184.032-99.218S210.253,505.5,130.672,621.66C88.026,683.907,43.927,748.279,0,798.781l.012-8.722c43.563-50.084,87.477-114.189,129.946-176.178,80.183-117.037,163.1-238.068,247.989-271.7s136.27,34.182,185.954,99.768c49.309,65.092,100.3,132.4,184.032,99.218s166.023-153.292,245.6-269.453c80.184-117.044,163.1-238.074,247.99-271.71l-1.675,10.031c-83.731,33.177-166.021,153.291-245.6,269.453-80.184,117.044-163.1,238.073-247.99,271.71" transform="translate(114.035 1289.259)" fill="#c6daf5" stroke="#c5daf6" stroke-width="4"/>
            <path id="Path_67797" data-name="Path 67797" d="M746.257,551.194C661.365,584.831,609.99,517.011,560.3,451.426c-49.309-65.092-100.3-132.4-184.032-99.218S210.253,505.5,130.673,621.653C88.026,683.907,43.927,748.279,0,798.781l.012-8.722C43.574,739.976,87.489,675.871,129.96,613.88c80.184-117.044,163.1-238.066,247.986-271.7s136.27,34.182,185.954,99.768c49.309,65.092,100.3,132.4,184.032,99.218s166.023-153.292,245.6-269.453c80.184-117.044,163.1-238.074,247.99-271.71l-1.675,10.031c-83.731,33.177-166.021,153.291-245.6,269.453-80.184,117.044-163.1,238.073-247.99,271.71" transform="translate(125.272 1221.978)" fill="#c6daf5" stroke="#c5daf6" stroke-width="4"/>
            <path id="Path_67798" data-name="Path 67798" d="M746.257,551.187C661.365,584.824,609.99,517,560.3,451.426,510.993,386.334,460,319.03,376.27,352.208s-166.016,153.283-245.6,269.445C88.026,683.9,43.927,748.272,0,798.775l.012-8.722c43.563-50.083,87.476-114.182,129.945-176.172,80.184-117.044,163.1-238.067,247.989-271.7S514.216,376.352,563.9,441.938c49.309,65.091,100.3,132.4,184.032,99.218S913.956,387.864,993.534,271.7C1073.719,154.66,1156.633,33.636,1241.523,0l-1.675,10.031c-83.731,33.177-166.021,153.291-245.6,269.453-80.183,117.037-163.1,238.067-247.989,271.7" transform="translate(136.51 1154.691)" fill="#c6daf5" stroke="#c5daf6" stroke-width="4"/>
            <path id="Path_67799" data-name="Path 67799" d="M746.257,551.194C661.365,584.831,609.99,517.011,560.3,451.426c-49.309-65.092-100.3-132.4-184.032-99.218S210.253,505.5,130.672,621.66C88.026,683.907,43.927,748.279,0,798.782l.012-8.722c43.563-50.084,87.477-114.189,129.946-176.178,80.183-117.037,163.1-238.068,247.989-271.7s136.27,34.182,185.954,99.768c49.309,65.092,100.3,132.4,184.032,99.218s166.023-153.292,245.6-269.453c80.184-117.044,163.1-238.074,247.99-271.71l-1.675,10.031c-83.731,33.177-166.021,153.291-245.6,269.453-80.184,117.044-163.1,238.073-247.99,271.71" transform="translate(147.746 1087.403)" fill="#c6daf5" stroke="#c5daf6" stroke-width="4"/>
            <path id="Path_67800" data-name="Path 67800" d="M746.257,551.194C661.365,584.831,609.99,517.011,560.3,451.426c-49.309-65.092-100.3-132.4-184.032-99.218S210.251,505.5,130.672,621.66C88.026,683.907,43.927,748.279,0,798.782l.012-8.722c43.563-50.083,87.476-114.182,129.946-176.178,80.183-117.037,163.1-238.068,247.989-271.7s136.27,34.182,185.954,99.768c49.309,65.092,100.3,132.4,184.032,99.218s166.023-153.292,245.6-269.453c80.184-117.044,163.1-238.074,247.99-271.71l-1.675,10.031c-83.731,33.177-166.02,153.291-245.6,269.453-80.184,117.044-163.1,238.073-247.99,271.71" transform="translate(158.984 1020.116)" fill="#c6daf5" stroke="#c5daf6" stroke-width="4"/>
            <path id="Path_67801" data-name="Path 67801" d="M746.258,551.194c-84.893,33.637-136.267-34.183-185.954-99.768-49.309-65.092-100.3-132.4-184.032-99.218S210.252,505.5,130.673,621.66C88.026,683.914,43.929,748.279,0,798.788l.012-8.722c43.564-50.09,87.477-114.188,129.946-176.178,80.184-117.044,163.1-238.074,247.99-271.71s136.27,34.182,185.954,99.768c49.309,65.092,100.3,132.4,184.032,99.218s166.023-153.292,245.6-269.453c80.184-117.044,163.1-238.074,247.99-271.71l-1.675,10.031c-83.731,33.177-166.02,153.291-245.6,269.453-80.184,117.044-163.1,238.073-247.99,271.71" transform="translate(170.22 952.828)" fill="#c6daf5" stroke="#c5daf6" stroke-width="4"/>
            <path id="Path_67802" data-name="Path 67802" d="M746.257,551.187C661.365,584.824,609.99,517,560.3,451.426,510.993,386.334,460,319.03,376.27,352.208s-166.019,153.284-245.6,269.445C88.026,683.9,43.927,748.272,0,798.775l.012-8.723c43.563-50.083,87.476-114.182,129.945-176.172,80.184-117.044,163.1-238.068,247.989-271.7S514.216,376.352,563.9,441.938c49.309,65.091,100.3,132.4,184.032,99.218S913.956,387.865,993.534,271.7C1073.718,154.66,1156.633,33.636,1241.523,0l-1.676,10.031c-83.731,33.177-166.02,153.291-245.6,269.453-80.183,117.037-163.1,238.066-247.989,271.7" transform="translate(181.457 885.554)" fill="#c6daf5" stroke="#c5daf6" stroke-width="4"/>
            <path id="Path_67803" data-name="Path 67803" d="M746.257,551.194C661.365,584.831,609.99,517.011,560.3,451.426c-49.309-65.092-100.3-132.4-184.032-99.218S210.253,505.5,130.672,621.66C88.026,683.907,43.927,748.279,0,798.781l.012-8.722c43.563-50.083,87.477-114.189,129.946-176.178,80.183-117.037,163.1-238.068,247.989-271.7s136.27,34.182,185.954,99.768c49.309,65.092,100.3,132.4,184.032,99.218s166.023-153.292,245.6-269.453c80.184-117.044,163.1-238.074,247.99-271.71l-1.675,10.031c-83.731,33.177-166.021,153.291-245.6,269.453-80.184,117.044-163.1,238.073-247.99,271.71" transform="translate(192.694 818.26)" fill="#c6daf5" stroke="#c5daf6" stroke-width="4"/>
            <path id="Path_67804" data-name="Path 67804" d="M746.257,551.194C661.365,584.831,609.99,517.011,560.3,451.426c-49.309-65.092-100.3-132.4-184.032-99.218S210.251,505.5,130.672,621.66C88.026,683.907,43.927,748.279,0,798.781l.012-8.722c43.563-50.083,87.476-114.182,129.945-176.172,80.184-117.044,163.1-238.074,247.99-271.71s136.27,34.182,185.954,99.768c49.309,65.092,100.3,132.4,184.032,99.218s166.023-153.292,245.6-269.453c80.184-117.044,163.1-238.074,247.99-271.71l-1.675,10.031c-83.731,33.177-166.021,153.291-245.6,269.453-80.184,117.044-163.1,238.073-247.99,271.71" transform="translate(203.932 750.972)" fill="#c6daf5" stroke="#c5daf6" stroke-width="4"/>
            <path id="Path_67805" data-name="Path 67805" d="M746.257,551.194C661.365,584.831,609.99,517.011,560.3,451.426c-49.309-65.092-100.3-132.4-184.032-99.218S210.256,505.5,130.676,621.652C88.03,683.9,43.929,748.272,0,798.781l.013-8.729c43.563-50.083,87.48-114.19,129.951-176.174,80.181-117.043,163.1-238.066,247.983-271.7s136.27,34.182,185.954,99.768c49.309,65.092,100.3,132.4,184.032,99.218s166.023-153.292,245.6-269.453c80.184-117.044,163.1-238.074,247.99-271.71l-1.675,10.031c-83.731,33.177-166.021,153.291-245.6,269.453-80.184,117.044-163.1,238.073-247.99,271.71" transform="translate(215.168 683.691)" fill="#c6daf5" stroke="#c5daf6" stroke-width="4"/>
            <path id="Path_67806" data-name="Path 67806" d="M746.258,551.187C661.366,584.824,609.991,517,560.3,451.426c-49.309-65.092-100.3-132.4-184.032-99.218S210.251,505.5,130.669,621.661C88.024,683.9,43.929,748.272,0,798.782l.012-8.722c43.564-50.09,87.477-114.189,129.946-176.178,80.184-117.044,163.1-238.067,247.989-271.7S514.217,376.352,563.9,441.938c49.309,65.092,100.3,132.4,184.032,99.218S913.957,387.865,993.535,271.7C1073.719,154.66,1156.634,33.636,1241.524,0l-1.675,10.031c-83.731,33.177-166.021,153.291-245.6,269.453-80.183,117.037-163.1,238.066-247.989,271.7" transform="translate(226.404 616.41)" fill="#c6daf5" stroke="#c5daf6" stroke-width="4"/>
            <path id="Path_67807" data-name="Path 67807" d="M746.257,551.187C661.365,584.824,609.99,517,560.3,451.426,510.993,386.335,460,319.03,376.27,352.208s-166.016,153.283-245.6,269.445C88.026,683.9,43.927,748.272,0,798.775l.012-8.723c43.563-50.083,87.476-114.182,129.945-176.172,80.184-117.044,163.1-238.068,247.989-271.7S514.216,376.352,563.9,441.939c49.309,65.091,100.3,132.4,184.032,99.218S913.956,387.865,993.534,271.7C1073.718,154.66,1156.633,33.636,1241.523,0l-1.675,10.031c-83.731,33.177-166.021,153.291-245.6,269.453-80.183,117.037-163.1,238.066-247.989,271.7" transform="translate(237.643 549.123)" fill="#c6daf5" stroke="#c5daf6" stroke-width="4"/>
            <path id="Path_67808" data-name="Path 67808" d="M746.257,551.194C661.365,584.831,609.99,517.011,560.3,451.426c-49.309-65.092-100.3-132.4-184.032-99.218S210.253,505.5,130.672,621.66C88.026,683.907,43.927,748.279,0,798.781l.012-8.722c43.563-50.083,87.476-114.182,129.948-176.173,80.184-117.044,163.1-238.073,247.987-271.709s136.27,34.182,185.954,99.768c49.309,65.092,100.3,132.4,184.032,99.218s166.023-153.292,245.6-269.453c80.184-117.044,163.1-238.074,247.99-271.71l-1.675,10.031c-83.731,33.177-166.021,153.291-245.6,269.453-80.184,117.044-163.1,238.073-247.99,271.71" transform="translate(248.88 481.828)" fill="#c6daf5" stroke="#c5daf6" stroke-width="4"/>
            <path id="Path_67809" data-name="Path 67809" d="M746.258,551.187C661.366,584.824,609.991,517,560.3,451.426c-49.309-65.092-100.3-132.4-184.032-99.218s-166.016,153.283-245.6,269.445C88.027,683.9,43.929,748.272,0,798.781l.012-8.722c43.564-50.09,87.477-114.188,129.946-176.178,80.184-117.044,163.1-238.068,247.989-271.7S514.217,376.352,563.9,441.938c49.309,65.092,100.3,132.4,184.032,99.218S913.957,387.865,993.535,271.7C1073.72,154.66,1156.634,33.636,1241.524,0l-1.675,10.031c-83.731,33.177-166.021,153.291-245.6,269.453-80.183,117.037-163.1,238.067-247.989,271.7" transform="translate(260.116 414.547)" fill="#c6daf5" stroke="#c5daf6" stroke-width="4"/>
            <path id="Path_67810" data-name="Path 67810" d="M746.257,551.194C661.365,584.831,609.99,517.011,560.3,451.426c-49.309-65.092-100.3-132.4-184.032-99.218S210.251,505.5,130.672,621.66C88.026,683.907,43.927,748.279,0,798.781l.012-8.722c43.563-50.083,87.477-114.189,129.945-176.172,80.184-117.044,163.1-238.074,247.99-271.71s136.27,34.182,185.954,99.768c49.309,65.092,100.3,132.4,184.032,99.218s166.023-153.292,245.6-269.453c80.184-117.044,163.1-238.074,247.99-271.71l-1.675,10.031c-83.731,33.177-166.021,153.291-245.6,269.453-80.184,117.044-163.1,238.073-247.99,271.71" transform="translate(271.353 347.26)" fill="#c6daf5" stroke="#c5daf6" stroke-width="4"/>
            <path id="Path_67811" data-name="Path 67811" d="M746.257,551.187C661.365,584.824,609.99,517,560.3,451.426,510.994,386.335,460,319.03,376.27,352.208s-166.016,153.283-245.6,269.445C88.026,683.9,43.927,748.272,0,798.775l.012-8.722c43.563-50.083,87.476-114.182,129.945-176.172,80.184-117.044,163.1-238.068,247.989-271.7S514.216,376.352,563.9,441.938c49.309,65.092,100.3,132.4,184.032,99.218S913.956,387.865,993.534,271.7C1073.719,154.66,1156.633,33.636,1241.523,0l-1.675,10.031c-83.731,33.177-166.021,153.291-245.6,269.453-80.183,117.037-163.1,238.067-247.989,271.7" transform="translate(282.591 279.979)" fill="#c6daf5" stroke="#c5daf6" stroke-width="4"/>
            <path id="Path_67812" data-name="Path 67812" d="M746.257,551.194C661.365,584.831,609.99,517.011,560.3,451.426c-49.309-65.092-100.3-132.4-184.032-99.218S210.253,505.5,130.673,621.653C88.026,683.907,43.929,748.272,0,798.781l.012-8.722C43.574,739.976,87.489,675.871,129.96,613.88c80.184-117.044,163.1-238.067,247.986-271.7s136.27,34.182,185.954,99.768c49.309,65.092,100.3,132.4,184.032,99.218s166.023-153.292,245.6-269.453c80.184-117.044,163.1-238.074,247.99-271.71l-1.675,10.031c-83.731,33.177-166.021,153.291-245.6,269.453-80.184,117.044-163.1,238.073-247.99,271.71" transform="translate(293.827 212.691)" fill="#c6daf5" stroke="#c5daf6" stroke-width="4"/>
            <path id="Path_67813" data-name="Path 67813" d="M746.257,551.194C661.365,584.831,609.99,517.011,560.3,451.426c-49.309-65.092-100.3-132.4-184.032-99.218S210.253,505.5,130.672,621.66C88.026,683.907,43.927,748.279,0,798.782l.012-8.722c43.563-50.083,87.477-114.188,129.946-176.178,80.183-117.037,163.1-238.068,247.989-271.7s136.27,34.182,185.954,99.768c49.309,65.092,100.3,132.4,184.032,99.218s166.023-153.292,245.6-269.453c80.184-117.044,163.1-238.074,247.99-271.71l-1.675,10.031c-83.731,33.177-166.02,153.291-245.6,269.453-80.184,117.044-163.1,238.073-247.99,271.71" transform="translate(305.064 145.404)" fill="#c6daf5" stroke="#c5daf6" stroke-width="4"/>
            <path id="Path_67814" data-name="Path 67814" d="M271.928,457.6c-84.9,33.638-136.274-34.186-185.961-99.771C59.481,322.872,32.093,286.726,0,266.569l3.1-9.952c32.365,20.323,59.867,56.624,86.464,91.735,49.312,65.091,100.3,132.4,184.04,99.221s166.02-153.291,245.6-269.453C562.13,115.463,606.52,50.67,650.744,0l-.021,8.732C606.866,58.982,562.664,123.5,519.917,185.894c-80.184,117.044-163.1,238.073-247.99,271.71" transform="translate(790.631 171.706)" fill="#c6daf5" stroke="#c5daf6" stroke-width="4"/>
            <path id="Path_67815" data-name="Path 67815" d="M0,363.014l.012-8.722C43.574,304.208,87.488,240.11,129.96,178.112,172.885,115.461,217.272,50.669,261.493,0l-.021,8.732c-43.849,50.241-88.051,114.76-130.8,177.152C88.026,248.139,43.927,312.511,0,363.014" transform="translate(316.301 513.884)" fill="#c6daf5" stroke="#c5daf6" stroke-width="4"/>
            <path id="Path_67816" data-name="Path 67816" d="M223.794,366.349C138.9,399.986,87.524,332.167,37.837,266.582,25.6,250.423,12.948,233.723,0,218.82l3.5-9.6c13,14.958,25.675,31.7,37.936,47.878,49.309,65.092,100.3,132.4,184.034,99.224s166.024-153.3,245.6-269.453C490.861,57.979,511.319,28.116,531.512,0l.56,8c-20.114,28-40.534,57.814-60.286,86.641C391.6,211.682,308.686,332.712,223.794,366.349" transform="translate(850.002 195.674)" fill="#c6daf5" stroke="#c5daf6" stroke-width="4"/>
            <path id="Path_67817" data-name="Path 67817" d="M0,271.752l.012-8.722c43.56-50.082,87.469-114.173,129.935-176.162C149.738,57.975,170.2,28.117,190.4,0l.56,8c-20.115,28-40.542,57.81-60.3,86.651C88.02,156.88,43.926,221.244,0,271.752" transform="translate(327.539 537.858)" fill="#c6daf5" stroke="#c5daf6" stroke-width="4"/>
            <path id="Path_67818" data-name="Path 67818" d="M185.954,279.466C101.064,313.1,49.687,245.283,0,179.7l3.6-9.481C52.91,235.3,103.9,302.612,187.629,269.435S353.643,116.153,433.217,0l.729,7.754C353.75,124.81,270.841,245.831,185.954,279.466" transform="translate(899.078 215.276)" fill="#c6daf5" stroke="#c5daf6" stroke-width="4"/>
            <path id="Path_67819" data-name="Path 67819" d="M0,184.806l.012-8.722C43.552,126.021,87.444,61.956,129.892,0l.779,7.679C87.981,69.993,43.905,134.324,0,184.806" transform="translate(338.775 557.523)" fill="#c6daf5" stroke="#c5daf6" stroke-width="4"/>
            <path id="Path_67820" data-name="Path 67820" d="M148.016,192.844C80.537,219.581,35.325,181.624,0,140.96l3.5-9.6c34.958,40.241,79.666,77.817,146.192,51.458S280.7,75.61,335.01,0l.56,8C280.692,84.4,215.5,166.106,148.016,192.844" transform="translate(948.254 234.604)" fill="#c6daf5" stroke="#c5daf6" stroke-width="4"/>
            <path id="Path_67821" data-name="Path 67821" d="M0,98.252.012,89.53C20.976,65.43,43.11,36.976,69.668,0l.561,7.99C43.474,45.25,21.158,73.926,0,98.252" transform="translate(350.012 576.79)" fill="#c6daf5" stroke="#c5daf6" stroke-width="4"/>
            <path id="Path_67822" data-name="Path 67822" d="M99.483,102.322c-35.762,14.17-68.3,11.546-99.483-8.03L3.1,84.34c30.758,19.3,62.832,21.909,98.059,7.951S173.935,48.142,215.954,0l-.021,8.732c-42.6,48.809-80.689,79.419-116.451,93.589" transform="translate(1008.024 257.845)" fill="#c6daf5" stroke="#c5daf6" stroke-width="4"/>
          </g>
        </g>
      </g>
    </g>
  </g>
</svg>
