<svg xmlns="http://www.w3.org/2000/svg" xmlns:xlink="http://www.w3.org/1999/xlink" width="40.68" height="40.671" viewBox="0 0 40.68 40.671">
  <defs>
    <clipPath id="clip-path">
      <rect id="Rectangle_20648" data-name="Rectangle 20648" width="40.68" height="40.671" transform="translate(0 0)" fill="none"/>
    </clipPath>
  </defs>
  <g id="Group_35579" data-name="Group 35579" transform="translate(0 0)">
    <g id="Group_35578" data-name="Group 35578" clip-path="url(#clip-path)">
      <path id="Path_96718" data-name="Path 96718" d="M40.5,11.938A5.241,5.241,0,0,0,38,10.729v-.277c0-.892,0-1.783,0-2.674a5.036,5.036,0,0,0-5.109-5.1q-12.549-.007-25.1,0a5.036,5.036,0,0,0-5.1,5.108q-.006,12.536,0,25.072a5.039,5.039,0,0,0,5.132,5.129q12.523,0,25.047,0a5.045,5.045,0,0,0,5.128-5.135Q38,28,37.99,23.142a.615.615,0,0,1,.2-.486c.7-.688,1.4-1.387,2.092-2.082.063-.062.13-.121.229-.212.006.126.013.206.013.286,0,4.086.009,8.172,0,12.258a7.368,7.368,0,0,1-2.675,5.882A7.154,7.154,0,0,1,33.178,40.5c-3.574.029-7.147.012-10.72.012l-14.63,0a7.439,7.439,0,0,1-5.722-2.423A7.158,7.158,0,0,1,.171,33.182C.138,29.912.158,26.641.158,23.37.157,18.317.17,13.264.15,8.211a8.157,8.157,0,0,1,1.167-4.6A7.205,7.205,0,0,1,6.9.209,24.671,24.671,0,0,1,9.4.154q11.742,0,23.483,0a7.4,7.4,0,0,1,5.694,2.424A7.2,7.2,0,0,1,40.5,7.339c.051,1.5.014,3.01.015,4.515a.494.494,0,0,1-.017.084"/>
      <path id="Path_96719" data-name="Path 96719" d="M28.287,40.671c-.976,0-1.947,0-2.905,0q-8.778-.01-17.554,0A7.612,7.612,0,0,1,2,38.194a7.294,7.294,0,0,1-1.975-5.01C0,30.809,0,28.394,0,26.058q0-1.344,0-2.688,0-2.273,0-4.548c0-3.477,0-7.074-.01-10.61a8.237,8.237,0,0,1,1.191-4.68A7.358,7.358,0,0,1,6.889.06a18.8,18.8,0,0,1,2-.058L9.4,0Q21.138,0,32.88,0a7.574,7.574,0,0,1,5.806,2.473,7.342,7.342,0,0,1,1.967,4.856c.036,1.052.028,2.121.021,3.155,0,.456-.007.91-.006,1.365a.343.343,0,0,1-.014.086l-.047.226-.256-.15a4.973,4.973,0,0,0-2.369-1.138l-.134-.015V9.48c0-.568,0-1.134,0-1.7a4.866,4.866,0,0,0-4.96-4.95q-12.549-.012-25.1,0A4.9,4.9,0,0,0,2.836,7.785q-.007,12.537,0,25.073a4.872,4.872,0,0,0,4.98,4.978q12.526.006,25.048,0a4.877,4.877,0,0,0,4.978-4.984q.008-4.857,0-9.711a.76.76,0,0,1,.242-.594c.505-.493,1-.993,1.5-1.493l.588-.587c.042-.042.086-.082.139-.13l.33-.307.022.449c0,.063.007.115.007.168v3.677q0,4.292,0,8.581a7.53,7.53,0,0,1-2.73,6,7.28,7.28,0,0,1-4.759,1.751c-1.624.013-3.266.017-4.892.017M8.376.3A14.391,14.391,0,0,0,6.919.359,7.069,7.069,0,0,0,1.443,3.695,7.948,7.948,0,0,0,.3,8.21c.013,3.538.012,7.135.009,10.612q0,2.276,0,4.548,0,1.345,0,2.689C.3,28.394.3,30.808.321,33.18a7,7,0,0,0,1.9,4.81,7.311,7.311,0,0,0,5.611,2.373q8.776,0,17.554.005c2.555,0,5.2.008,7.795-.014a6.987,6.987,0,0,0,4.568-1.68A7.238,7.238,0,0,0,40.367,32.9q.013-4.288.005-8.58l0-3.63-.572.572q-.75.751-1.507,1.5a.47.47,0,0,0-.15.379q.009,4.855,0,9.711a5.174,5.174,0,0,1-5.279,5.285q-12.522,0-25.048,0a5.167,5.167,0,0,1-5.281-5.279q-.008-12.537,0-25.073A5.2,5.2,0,0,1,7.788,2.528q12.547-.006,25.1,0a5.16,5.16,0,0,1,5.261,5.249q0,.851,0,1.7V10.6a5.112,5.112,0,0,1,2.217,1.06c0-.394.006-.782.009-1.169.007-1.032.015-2.1-.021-3.144a7.056,7.056,0,0,0-1.888-4.663A7.284,7.284,0,0,0,32.88.306Q21.139.3,9.4.305L8.883.3,8.376.3" fill="#fff"/>
      <path id="Path_96720" data-name="Path 96720" d="M26.658,29.779l1.557-1.586c3.674-3.681,7.476-7.487,11.229-11.215a1.131,1.131,0,0,0,.343-1.036.6.6,0,0,0-.19-.415c-.522-.49-.976-.944-1.387-1.389a.582.582,0,0,0-.51-.218c-.086.005-.186.005-.28,0H37.3a.724.724,0,0,0-.551.233c-.991.989-1.992,1.971-2.993,2.951l-1,.981q-4.624,4.541-9.256,9.078c.01.374.009.762.008,1.153v1.456Z"/>
      <rect id="Rectangle_20646" data-name="Rectangle 20646" width="24.896" height="2.18" transform="translate(7.897 7.893)"/>
      <path id="Path_96721" data-name="Path 96721" d="M7.728,12.776h25.2a1.059,1.059,0,0,1-.287,1.073c-.466.4-.869.865-1.313,1.289a.555.555,0,0,1-.348.145q-6.833.012-13.666.008-4.537,0-9.077,0c-.512,0-.512,0-.512-.519v-2"/>
      <path id="Path_96722" data-name="Path 96722" d="M8.229,15.443c-.288,0-.441,0-.546-.112s-.106-.258-.106-.558V12.626H33.065l.015.135a1.194,1.194,0,0,1-.34,1.2c-.28.238-.544.511-.8.775-.166.171-.333.343-.505.508a.7.7,0,0,1-.452.188q-6.15.01-12.3.007H15.048l-6.808,0Zm-.351-2.516v1.846a1.355,1.355,0,0,0,.021.351,1.963,1.963,0,0,0,.33.018c2.28,0,4.547,0,6.819,0h3.637c4.1,0,8.2,0,12.3-.007a.408.408,0,0,0,.245-.1c.17-.163.333-.332.5-.5a11.248,11.248,0,0,1,.822-.8.81.81,0,0,0,.248-.809Z" fill="#fff"/>
      <path id="Path_96723" data-name="Path 96723" d="M28.28,17.979H7.887v2.2h6.021q6.023,0,12.025-.005a.376.376,0,0,0,.226-.08c.615-.6,1.223-1.216,1.83-1.827Z"/>
      <path id="Path_96724" data-name="Path 96724" d="M7.893,25.212c.009,0,.023.012.032.016.117.01.249.006.379,0l.173,0h1.765q5.292,0,10.589,0a.43.43,0,0,0,.354-.146c.224-.236.456-.466.688-.694l1.376-1.361H7.879v.3c0,.64,0,1.267.008,1.893,0-.008,0-.011.007-.011"/>
      <rect id="Rectangle_20647" data-name="Rectangle 20647" width="12.287" height="2.186" transform="translate(7.888 28.07)"/>
    </g>
  </g>
</svg>
