<svg xmlns="http://www.w3.org/2000/svg" width="32.936" height="39.891" viewBox="0 0 32.936 39.891">
  <g id="Group_34772" data-name="Group 34772" transform="translate(0 0)">
    <g id="Group_34777" data-name="Group 34777" transform="translate(0 0)">
      <path id="Path_83465" data-name="Path 83465" d="M0,6.04c.973-.083,1.9-.149,2.826-.245A30.648,30.648,0,0,0,9.711,4.254,15.211,15.211,0,0,0,14.2,1.994c.734-.573,1.4-1.233,2.1-1.853.045-.04.094-.074.178-.141.268.238.552.46.8.717a15.478,15.478,0,0,0,6.825,3.83A32.608,32.608,0,0,0,32.765,6c.047,0,.094.012.171.023-.142,1.218-.278,2.427-.424,3.634-.158,1.309-.33,2.616-.488,3.924-.205,1.705-.4,3.412-.6,5.118s-.432,3.409-.624,5.116a14.111,14.111,0,0,1-4.148,8.51,34.434,34.434,0,0,1-4.377,3.416c-1.845,1.354-3.707,2.686-5.558,4.033-.15.109-.262.181-.445.049-2.895-2.113-5.839-4.162-8.679-6.346A13.811,13.811,0,0,1,2.315,25c-.232-1.172-.328-2.372-.476-3.56q-.364-2.935-.714-5.873-.3-2.522-.6-5.045C.359,9.175.194,7.83.032,6.485.014,6.342.011,6.2,0,6.04M31,7.663a1.556,1.556,0,0,0-.21-.052,33.181,33.181,0,0,1-7.211-1.4,18.135,18.135,0,0,1-6.2-3.07c-.308-.249-.6-.521-.9-.787-.318.28-.608.554-.919.8a11.215,11.215,0,0,1-1,.725,27,27,0,0,1-10.406,3.5c-.714.114-1.435.183-2.19.277.015.2.022.389.045.578.085.7.178,1.392.262,2.088q.283,2.341.56,4.684.306,2.559.613,5.117c.176,1.441.3,2.892.551,4.32a12.258,12.258,0,0,0,4.736,7.709c1.726,1.349,3.534,2.592,5.306,3.881q1.217.885,2.437,1.763c2.474-1.792,4.934-3.556,7.374-5.348a13.083,13.083,0,0,0,4.294-5.3,13.866,13.866,0,0,0,1.02-4.21c.207-1.936.462-3.867.694-5.8.2-1.67.4-3.34.6-5.009.179-1.476.365-2.951.552-4.464" fill="#1A73E8"/>
      <g id="Polygon_1" data-name="Polygon 1" transform="translate(6.541 9.546) rotate(-3)" fill="#fff">
        <path d="M 14.1866512298584 17.33222579956055 L 10.09711742401123 14.96484756469727 C 9.89942741394043 14.850417137146 9.674217224121094 14.78993701934814 9.445816993713379 14.78993701934814 C 9.217416763305664 14.78993701934814 8.992206573486328 14.850417137146 8.794536590576172 14.96483707427979 L 4.704983711242676 17.33222007751465 L 5.600467205047607 12.41275691986084 C 5.677506923675537 11.98949718475342 5.540627002716064 11.55644702911377 5.234316825866699 11.25434684753418 L 1.726219892501831 7.794752597808838 L 6.439907073974609 7.171717166900635 C 6.884117126464844 7.113007068634033 7.273636817932129 6.822397232055664 7.456447124481201 6.413287162780762 L 9.445816993713379 1.961022973060608 L 11.43517684936523 6.413267135620117 C 11.61799716949463 6.822397232055664 12.00751686096191 7.113007068634033 12.45173740386963 7.171717166900635 L 17.16540718078613 7.794751167297363 L 13.6573371887207 11.25432682037354 C 13.35100746154785 11.55644702911377 13.21412658691406 11.98949718475342 13.29116725921631 12.41275691986084 L 14.1866512298584 17.33222579956055 Z" stroke="none"/>
        <path d="M 9.445816993713379 3.922060012817383 L 8.186846733093262 6.739666938781738 C 7.891536712646484 7.400537490844727 7.262296676635742 7.869987487792969 6.544727325439453 7.964817047119141 L 3.452458381652832 8.373540878295898 L 5.796076774597168 10.68475723266602 C 6.290877342224121 11.17275714874268 6.51198673248291 11.87228775024414 6.387527465820312 12.55602645874023 L 5.801980018615723 15.77280902862549 L 8.393747329711914 14.2724666595459 C 8.713076591491699 14.08762741088867 9.07686710357666 13.98992729187012 9.445816993713379 13.98992729187012 C 9.814766883850098 13.98992729187012 10.17855739593506 14.08762741088867 10.49790668487549 14.27248764038086 L 13.08965492248535 15.77281188964844 L 12.50410652160645 12.55601692199707 C 12.37964630126953 11.87228775024414 12.60075759887695 11.17275714874268 13.09559631347656 10.68471717834473 L 15.43916702270508 8.373543739318848 L 12.34691715240479 7.964827537536621 C 11.62927722930908 7.869976997375488 11.00003719329834 7.400497436523438 10.70476722717285 6.739626884460449 L 9.445816993713379 3.922060012817383 M 9.445816993713379 0.7256412506103516 C 9.629977226257324 0.7256412506103516 9.81413745880127 0.8243179321289062 9.902317047119141 1.02166748046875 L 12.16557693481445 6.086907386779785 C 12.23640632629395 6.245436668395996 12.38442707061768 6.355867385864258 12.55655670166016 6.378617286682129 L 17.87825775146484 7.082016944885254 C 18.29071617126465 7.136537551879883 18.46005630493164 7.641576766967773 18.16382789611816 7.933707237243652 L 14.21906661987305 11.82393646240234 C 14.10134696960449 11.94003677368164 14.04862689971924 12.1068172454834 14.07823753356934 12.26948738098145 L 15.08994674682617 17.82745742797852 C 15.16628646850586 18.24684715270996 14.7164478302002 18.56328773498535 14.34752655029297 18.34972763061523 L 9.696316719055176 15.65720748901367 C 9.54135799407959 15.56750679016113 9.350275993347168 15.56750679016113 9.195317268371582 15.65720748901367 L 4.544107437133789 18.34972763061523 C 4.175182342529297 18.56328964233398 3.725347518920898 18.24684524536133 3.801687240600586 17.82745742797852 L 4.813397407531738 12.26948738098145 C 4.84300708770752 12.1068172454834 4.790287017822266 11.94003677368164 4.672567367553711 11.82393646240234 L 0.7278060913085938 7.933716773986816 C 0.4315776824951172 7.641576766967773 0.6009063720703125 7.136537551879883 1.013376235961914 7.082016944885254 L 6.335066795349121 6.378617286682129 C 6.507206916809082 6.355867385864258 6.655217170715332 6.245436668395996 6.726057052612305 6.086907386779785 L 8.989316940307617 1.02166748046875 C 9.077496528625488 0.8243179321289062 9.261656761169434 0.7256412506103516 9.445816993713379 0.7256412506103516 Z" stroke="none" fill="#1A73E8"/>
      </g>
    </g>
  </g>
</svg>
