<svg xmlns="http://www.w3.org/2000/svg" xmlns:xlink="http://www.w3.org/1999/xlink" width="335" height="362" viewBox="0 0 335 362">
  <defs>
    <clipPath id="clip-path">
      <rect id="Rectangle_18037" data-name="Rectangle 18037" width="335" height="362" rx="33" fill="#9318b0"/>
    </clipPath>
    <clipPath id="clip-path-2">
      <path id="Path_81118" data-name="Path 81118" d="M0,0,296.3,8.321l8.435,309.31L8.435,309.31Z" fill="#d10dff"/>
    </clipPath>
  </defs>
  <g id="Group_31799" data-name="Group 31799" transform="translate(-533 -873)">
    <rect id="Rectangle_18029" data-name="Rectangle 18029" width="335" height="362" rx="33" transform="translate(533 873)" fill="#9318b0"/>
    <g id="Mask_Group_7537" data-name="Mask Group 7537" transform="translate(533 873)" opacity="0.658" clip-path="url(#clip-path)">
      <g id="Group_31792" data-name="Group 31792" transform="translate(193.808 473.93) rotate(-149)" opacity="0.179" clip-path="url(#clip-path-2)">
        <path id="Path_80972" data-name="Path 80972" d="M61.877,16.534a15.358,15.358,0,0,0-8.169-4.646c-3.94-.734-7.856.06-11.8-.346a14.045,14.045,0,0,1-5.169-1.533A27.392,27.392,0,0,1,32.5,7.071c-2.838-2.279-5.714-4.679-9.148-5.846a16.928,16.928,0,0,0-9.881.129,31.041,31.041,0,0,0-4.76,1.711,18.987,18.987,0,0,0-3.95,2.278A11.5,11.5,0,0,0,.6,12.242C-.782,19.6,5.137,25.916,10.213,30.5a10.63,10.63,0,0,0,4.514,2.292,30.893,30.893,0,0,1,4.764,1.36,8.6,8.6,0,0,1,3.546,2.959,14.917,14.917,0,0,1,1.827,3.966c.9,2.815,1.475,5.785,3.168,8.288a11.112,11.112,0,0,0,5.952,4.465,16.089,16.089,0,0,0,7.425.257,31.258,31.258,0,0,0,7.444-2.374,41.346,41.346,0,0,0,6.29-3.512,38.364,38.364,0,0,0,7.179-6.147,21.1,21.1,0,0,0,4.751-8.24,15.647,15.647,0,0,0-.29-9.127,21.561,21.561,0,0,0-4.905-8.148" transform="translate(65.9 119.502)" fill="#d10dff"/>
        <path id="Path_80973" data-name="Path 80973" d="M22.666,52.108a12.1,12.1,0,0,0,6.783-4.416c2.114-2.855,3.047-6.425,4.911-9.44a11.644,11.644,0,0,1,3.212-3.471,21.184,21.184,0,0,1,3.924-2.035c2.866-1.214,5.841-2.4,8.089-4.636C51.725,25.982,52.778,23,53.375,20a31.2,31.2,0,0,0,.56-4.7,19.766,19.766,0,0,0-.194-4.312,11.97,11.97,0,0,0-3.658-6.711C44.537-.788,33.272.707,28.75,5.9a25.685,25.685,0,0,1-2.92,3.224,6.63,6.63,0,0,1-3.667,1.464,11.964,11.964,0,0,1-3.765-.421c-2.517-.618-5.022-1.582-7.61-1.408a8.621,8.621,0,0,0-5.771,2.7A14.446,14.446,0,0,0,1.9,17.376a31.107,31.107,0,0,0-1.108,7.2,43.024,43.024,0,0,0,.22,6.811,40.686,40.686,0,0,0,1.893,8.8,21.976,21.976,0,0,0,4.455,7.833,14.144,14.144,0,0,0,7.122,4.156,16.933,16.933,0,0,0,8.187-.074" transform="translate(7.446 20.865)" fill="#d10dff"/>
        <path id="Path_80974" data-name="Path 80974" d="M55.869,50.986a13.388,13.388,0,0,0,6.086-8.475,21.072,21.072,0,0,0-.816-10.7,43.6,43.6,0,0,0-4.956-10.4,40.243,40.243,0,0,0-7.016-8.6A49.766,49.766,0,0,0,27.074,1.735C19.868.138,9.807-.694,3.822,4.014,1.054,6.191-.585,10.192.81,13.661c.769,1.911,2.19,3.454,2.828,5.43a12.3,12.3,0,0,1,.285,5.5c-.446,3.317-1.625,6.427-2.2,9.715a31,31,0,0,0-.434,8.387,14.375,14.375,0,0,0,2.652,7.4A11.157,11.157,0,0,0,11.2,54.108c4.4.7,8.511-.925,12.59-2.094a23.261,23.261,0,0,1,6.222-1.066,34.546,34.546,0,0,1,5.157.414c3.589.514,7.159,1.323,10.767,1.558a16.851,16.851,0,0,0,9.929-1.935" transform="translate(108.245 62.985)" fill="#d10dff"/>
        <path id="Path_80975" data-name="Path 80975" d="M67.855,34.677c-1.342-3.361-4.027-6.012-6.831-8.148a38.744,38.744,0,0,0-4.265-2.822c-1.422-.811-2.937-1.42-4.341-2.268a7.853,7.853,0,0,1-3.287-3.56,29.941,29.941,0,0,1-1.449-5.255,12.356,12.356,0,0,0-2.265-4.955,18.726,18.726,0,0,0-4.474-3.889A16.668,16.668,0,0,0,30.115.98c-3.684.4-7.04,1.92-10.482,3.114a26.814,26.814,0,0,1-5.3,1.348C9.25,6.107,3.3,6.684.964,12.114a6.936,6.936,0,0,0-.282,4.66,8.718,8.718,0,0,0,2.363,3.751c2.176,2.139,4.97,3.434,7.157,5.551a14.172,14.172,0,0,1,3.083,4.059,7.236,7.236,0,0,1,.6,3.768,20.658,20.658,0,0,1-1.11,4.468,22.687,22.687,0,0,0-1.152,5.021,17.547,17.547,0,0,0,1.859,9.694A18.12,18.12,0,0,0,20.738,60.4a28.232,28.232,0,0,0,10.391,3.317A38.39,38.39,0,0,0,41.913,63.5,33.3,33.3,0,0,0,61.2,53.548a29.961,29.961,0,0,0,5.947-8.574c1.4-3.164,2.087-6.842.707-10.3" transform="translate(150.939 118.982)" fill="#d10dff"/>
        <path id="Path_80976" data-name="Path 80976" d="M1.259,46.141a26.7,26.7,0,0,0,.429,4.244C2.3,53.729,3.845,58.38,6.71,60.559c3.441,2.616,5.294-1.06,7.31-3.183a11.415,11.415,0,0,1,9.461-3.721c3.975.392,7.557,2.781,11.11,4.825,6.373,3.667,14.749,5.728,20.917,1.533,3.033-2.062,5.288-5.011,7.762-7.7a26.593,26.593,0,0,1,4.019-3.682c4.136-2.958,9.062-6.233,8.731-12.3a7.333,7.333,0,0,0-1.781-4.414,8.386,8.386,0,0,0-3.686-2.359c-2.823-.963-5.816-.864-8.638-1.8a13.48,13.48,0,0,1-4.446-2.309,7.433,7.433,0,0,1-2.162-3.187,22.256,22.256,0,0,1-.977-4.619A24.445,24.445,0,0,0,53.15,12.5a17.932,17.932,0,0,0-5.832-8.054,16.974,16.974,0,0,0-9.49-3.375A26.114,26.114,0,0,0,27.348,2.813a36.741,36.741,0,0,0-9.287,5.167c-4.68,3.531-7.24,8.526-9.679,13.834C4.928,29.331,1.07,37.486,1.259,46.141" transform="translate(6.352 232.954)" fill="#d10dff"/>
        <path id="Path_80977" data-name="Path 80977" d="M3.553,53.491a8.379,8.379,0,0,0,3.386,2.241,11.651,11.651,0,0,0,4.163.752A15.855,15.855,0,0,0,20.746,52.7a50.255,50.255,0,0,0,3.834-3.691,19.9,19.9,0,0,1,3.883-3.056,23.593,23.593,0,0,1,8.8-2.852c1.684-.243,3.385-.388,5.087-.515a16.964,16.964,0,0,0,3.916-.675,13.4,13.4,0,0,0,5.845-3.744,16.884,16.884,0,0,0,3.472-6.121,22.824,22.824,0,0,0,1.088-7.319,25.274,25.274,0,0,0-1.227-7.566,22.069,22.069,0,0,0-3.534-6.739,23.984,23.984,0,0,0-7.571-6.261,27.631,27.631,0,0,0-9.675-3.065,24.765,24.765,0,0,0-9.811.7,8.892,8.892,0,0,0-6.077,4.777,15.33,15.33,0,0,0-.754,7.426c.238,2.675.745,5.335.922,8.013.211,3.2-.078,6.627-1.814,9.268a8.458,8.458,0,0,1-4.088,3.293c-1.716.641-3.568.856-5.3,1.46a9.037,9.037,0,0,0-3.682,2.314A9.085,9.085,0,0,0,2.1,41.787C.812,45.81.866,50.508,3.553,53.491" transform="translate(183.178 48.376)" fill="#d10dff"/>
        <path id="Path_80978" data-name="Path 80978" d="M21.459.677a31.676,31.676,0,0,0-11.1,2.218C2.859,6-2.026,14.243,1.793,22.846a12.131,12.131,0,0,0,3.576,4.723,7.236,7.236,0,0,0,5.686,1.467,13.852,13.852,0,0,0,5.122-2.642,12.993,12.993,0,0,1,5.314-2.573,15.031,15.031,0,0,1,8,1.258c1.3.532,2.558,1.159,3.819,1.781a19.007,19.007,0,0,0,3.548,1.5,4.74,4.74,0,0,0,2.624.031,5.464,5.464,0,0,0,2.162-1.438,22.1,22.1,0,0,0,2.114-2.566c2.281-3.122,3.9-7.475,2.418-11.573s-5.529-6.768-9.09-8.785a23.09,23.09,0,0,0-4.788-2.072A34.229,34.229,0,0,0,21.459.677" transform="translate(214.167 103.555)" fill="#d10dff"/>
        <path id="Path_80979" data-name="Path 80979" d="M51.992,36.7a11.18,11.18,0,0,0,.741-4.84,10.317,10.317,0,0,0-5.621-7.937c-1.994-.975-4.177-1.512-6.047-2.738s-3.422-3.476-2.934-5.615c.465-2.038,2.429-3.147,3.141-5.065.889-2.395.612-6.878-1.657-8.675-1.713-1.356-4.15-.76-5.876.383-3.891,2.578-6.019,7.4-10.1,9.668-4.517,2.515-10.52,1.387-14.938,4.072a13.657,13.657,0,0,0-3.752,3.6A20.016,20.016,0,0,0,.865,30.953,17.31,17.31,0,0,0,3.69,40.734c1.845,2.866,3.63,3.89,6.85,4.83,2.516.734,5.186,1.243,7.541,2.518A8.363,8.363,0,0,1,20.768,50.3,9.251,9.251,0,0,1,22.381,54c.351,1.611.453,3.251.893,4.85a10.016,10.016,0,0,0,2.2,4.13A14.164,14.164,0,0,0,34.724,67.2a19.264,19.264,0,0,0,9.744-1.869,16.886,16.886,0,0,0,6.957-5.446,7.491,7.491,0,0,0,1.348-4.046A10.007,10.007,0,0,0,51.328,51.1a20.335,20.335,0,0,1-2.173-5.06,7.9,7.9,0,0,1,.643-4.908c.684-1.508,1.594-2.884,2.194-4.438" transform="translate(109.144 166.12)" fill="#d10dff"/>
        <path id="Path_80980" data-name="Path 80980" d="M51.82,20.291a32.311,32.311,0,0,0-8.2-5.253A35.235,35.235,0,0,0,39.407,13.4a33.727,33.727,0,0,0-4.094-.9c-2.82-.5-5.89-.923-8.4-2.558a7.572,7.572,0,0,1-1.554-1.333,10.489,10.489,0,0,1-1.234-1.839A26.235,26.235,0,0,0,21.92,3,6.881,6.881,0,0,0,18.188.668,9.047,9.047,0,0,0,15.109.532,19.8,19.8,0,0,0,7.743,2.918,10.773,10.773,0,0,0,2.462,8.53c-1.166,3.3.151,6.68-.2,10.078-.072.7-.22,1.377-.355,2.06-.228,1.147-.44,2.3-.615,3.457a31.95,31.95,0,0,0-.375,7.746,12.8,12.8,0,0,0,2.53,6.949,10.213,10.213,0,0,0,7.316,3.544c2.723.189,5.973-.474,8.229,1.706A10.631,10.631,0,0,1,20.5,46.088c.418.657.834,1.314,1.268,1.961a17.527,17.527,0,0,0,2.648,3.238,9.667,9.667,0,0,0,3.624,2.1,16.121,16.121,0,0,0,4.846.6,31.208,31.208,0,0,0,10.214-1.7,19.782,19.782,0,0,0,4.431-2.124,24.8,24.8,0,0,0,3.788-3.117,24.4,24.4,0,0,0,5.788-8.814,16.093,16.093,0,0,0,1-5.111,13.951,13.951,0,0,0-.816-4.959,19.44,19.44,0,0,0-5.475-7.87" transform="translate(179.407 199.301)" fill="#d10dff"/>
        <path id="Path_80981" data-name="Path 80981" d="M32.05,7.744c-1.623-.631-3.267-1.2-4.876-1.872a25.222,25.222,0,0,1-2.29-1.085c-.737-.4-1.439-.865-2.145-1.324A24.573,24.573,0,0,0,17.843.79c-3.04-1.1-5.695.664-7.874,2.5-1.186,1-2.288,2.108-3.51,3.065-1.192.934-2.645,1.5-3.779,2.5A7.628,7.628,0,0,0,.41,14.894a8.533,8.533,0,0,0,2.781,5.714,10.9,10.9,0,0,0,6.532,2.66c2.367.218,4.722-.017,7.088.149a11.525,11.525,0,0,1,3.26.625,10.108,10.108,0,0,1,2.651,1.551c1.629,1.275,2.988,2.881,4.578,4.205a11.452,11.452,0,0,0,5.259,2.669,6.342,6.342,0,0,0,4.406-.8c2.712-1.656,4.117-5,4.693-8.121.611-3.311.519-7.219-1.438-10.217-1.9-2.917-5.121-4.4-8.172-5.586" transform="translate(215.504 173.387)" fill="#d10dff"/>
        <path id="Path_80982" data-name="Path 80982" d="M11.557,5.5c-1,1.149-1.949,2.341-2.978,3.46A20.21,20.21,0,0,1,7.014,10.5c-.546.477-1.133.9-1.716,1.326a19.437,19.437,0,0,0-3.633,3.162c-1.8,2.183-1.167,5.157-.328,7.752.456,1.412,1.024,2.793,1.434,4.219.4,1.391.423,2.862.894,4.228A7.621,7.621,0,0,0,7.88,35.508a6.724,6.724,0,0,0,5.465-.153,8.913,8.913,0,0,0,4.113-4.574c.885-1.95,1.4-4.067,2.243-6.037a10,10,0,0,1,1.483-2.558,7.946,7.946,0,0,1,2.051-1.672c1.522-.9,3.23-1.44,4.78-2.289a9.154,9.154,0,0,0,3.739-3.477,6.207,6.207,0,0,0,.671-4.1c-.53-2.981-2.822-5.5-5.179-7.218-2.5-1.823-5.7-3.274-8.714-2.767-2.935.494-5.1,2.679-6.976,4.838" transform="translate(23.084 123.762)" fill="#d10dff"/>
        <path id="Path_80983" data-name="Path 80983" d="M56.117,4.3a25.435,25.435,0,0,0-8.995-.131c-3.215.436-6.364,1.255-9.62,1.454a20.36,20.36,0,0,1-4.941-.259A19.937,19.937,0,0,1,27.9,3.834C18.094-.647,14.279-.9,5.687,4.583a10.479,10.479,0,0,0-5.3,9.027,14.094,14.094,0,0,0,1.6,6.7,13.916,13.916,0,0,0,4.546,5.119,12.744,12.744,0,0,0,3.125,1.526,14.5,14.5,0,0,0,3.776.634A46.642,46.642,0,0,1,23,29.031a39.094,39.094,0,0,1,4.6,1.551c1.552.633,3.032,1.418,4.546,2.146,5.073,2.439,10.686,3.9,16.156,3.3a20.266,20.266,0,0,0,13.772-7.7,21.967,21.967,0,0,0,1.47-2.135l-.5-18.51A16.973,16.973,0,0,0,56.117,4.3" transform="translate(237.076 140.657)" fill="#d10dff"/>
        <path id="Path_80984" data-name="Path 80984" d="M51.25,4.274c-2.782-1.845-6.2-1.621-9.243-1.329a40.118,40.118,0,0,1-9.7.053A16,16,0,0,1,30,2.489a16.2,16.2,0,0,1-2.115-.9A8.679,8.679,0,0,0,25.642.866a14.2,14.2,0,0,0-2.072-.2,14.381,14.381,0,0,0-7.53,2.006A17.99,17.99,0,0,0,10.311,8.1a19.079,19.079,0,0,0-1.877,3.472A16.3,16.3,0,0,0,7.41,14.858c-.287,1.584-.343,3.226-.5,4.835-.267,2.778-.738,5.284-2.459,7.435-1.525,1.906-4.672,4.031-3.169,6.928,1.959,3.777,7.452,2.636,10.277,1.542a29.407,29.407,0,0,1,4.325-1.479,22.076,22.076,0,0,1,4.677-.472,18.627,18.627,0,0,1,4.562.465,33.179,33.179,0,0,1,4.567,1.656,24.214,24.214,0,0,0,4.537,1.522,12.115,12.115,0,0,0,3.473.182,16.409,16.409,0,0,0,6.6-2.2,24.37,24.37,0,0,0,5.812-4.722A27.123,27.123,0,0,0,53.1,26.625L52.519,5.312A8.511,8.511,0,0,0,51.25,4.274" transform="translate(245.389 62.043)" fill="#d10dff"/>
        <path id="Path_80985" data-name="Path 80985" d="M18.834,27.639a16.137,16.137,0,0,1,5.239,6.105c3.156,6.462,8.98,13.651,16.7,10.446a7.911,7.911,0,0,0,4.426-4.8,5.671,5.671,0,0,0,.137-2.961,9.5,9.5,0,0,0-1.055-2.6c-.873-1.569-2.069-3.059-2.483-4.791a4.11,4.11,0,0,1,.161-2.461,6.051,6.051,0,0,1,.8-1.39c.446-.6.891-1.2,1.319-1.817a16.58,16.58,0,0,0,3.114-7.366,14.438,14.438,0,0,0-.047-4.324,12.4,12.4,0,0,0-1.291-3.675,13.8,13.8,0,0,0-5.394-5.49,11.5,11.5,0,0,0-7.48-1.394,8.646,8.646,0,0,0-3.562,1.429A19.107,19.107,0,0,0,26.533,5.21a31.74,31.74,0,0,1-2.8,2.8,11.237,11.237,0,0,1-3.846,2.02,15.823,15.823,0,0,1-4.782.7,30.378,30.378,0,0,1-4.49-.43,15.635,15.635,0,0,0-6.787.065A4.724,4.724,0,0,0,1.221,12.18a4.843,4.843,0,0,0-.747,3.483c.4,2.374,2.529,4.179,4.438,5.371A42.547,42.547,0,0,0,11.8,24.058a33.97,33.97,0,0,1,7.038,3.581" transform="translate(139.968 24.625)" fill="#d10dff"/>
        <path id="Path_80986" data-name="Path 80986" d="M9.96,53.1a10.318,10.318,0,0,0,7.679,1.418c5.509-1.221,9.943-4.579,15.691-5.148,5.856-.58,12.158-.07,16.328-4.926,5.2-6.05-3.757-10.158-4.913-15.83-.774-3.8,3.633-5.609,5.282-8.3a9.516,9.516,0,0,0,1.388-3.551,9.445,9.445,0,0,0-.287-3.863C49.349,6.476,43.091-.315,36.088,1.325a13.245,13.245,0,0,0-6.715,4.486A52.008,52.008,0,0,0,24.817,12.4,27.178,27.178,0,0,1,20,18.5c-1.92,1.685-4.3,2.576-6.585,3.65a39.071,39.071,0,0,0-6.386,3.591,15.021,15.021,0,0,0-4.706,5.208,13.264,13.264,0,0,0-1.192,7.691,21.372,21.372,0,0,0,2.878,8.136A18.276,18.276,0,0,0,9.96,53.1" transform="translate(38.476 55.87)" fill="#d10dff"/>
        <path id="Path_80987" data-name="Path 80987" d="M50.376,66.855a18.521,18.521,0,0,0,6.492-5.2A7.67,7.67,0,0,0,57.989,54.5a6.941,6.941,0,0,0-3.122-3.616,41.453,41.453,0,0,0-4.385-1.959,8.175,8.175,0,0,1-3.67-2.786,9.607,9.607,0,0,1-1.553-5.314c-.048-3.787,1.323-7.4.957-11.217a10.619,10.619,0,0,0-2.135-5.482,16.144,16.144,0,0,0-3.287-3.2,29.4,29.4,0,0,0-7.9-3.8,56.3,56.3,0,0,1-7.917-3.06,12.878,12.878,0,0,1-5.763-6.03c-1.138-2.4-1.083-6.718-4.2-7.432C4.579-1.781,2.215,14.487,4.208,21.759c1.182,4.314,3.726,8.615,3.022,13.15C6.565,39.193,3.524,42.376,2.1,46.322a12.467,12.467,0,0,0-.545,6.271,24.621,24.621,0,0,0,2.3,7.026A25.057,25.057,0,0,0,7.9,65.55a19.035,19.035,0,0,0,4.654,3.611,28,28,0,0,0,11.3,3.175,47.108,47.108,0,0,0,11.013-.422,50.252,50.252,0,0,0,7.043-1.655,47.059,47.059,0,0,0,8.467-3.4" transform="translate(40.111 157.656)" fill="#d10dff"/>
        <path id="Path_80988" data-name="Path 80988" d="M50.523,14.525a10.379,10.379,0,0,0-2.836-2.369,20.714,20.714,0,0,0-3.46-1.573,23.7,23.7,0,0,0-3.7-1.065C37.8,9,34.987,8.945,32.307,8.071a8.086,8.086,0,0,1-3.293-1.948c-.964-.965-1.74-2.106-2.694-3.08A7.627,7.627,0,0,0,22.89.98,13.309,13.309,0,0,0,18.731.572a21.808,21.808,0,0,0-7.085,1.679,25.669,25.669,0,0,0-6.3,3.477C.108,9.785-.385,15.442,1.314,21.979c.529,2.036,1.591,3.9,2.122,5.938a33.209,33.209,0,0,1,.591,3.813c.173,1.234.382,2.466.663,3.686a20.923,20.923,0,0,0,2.643,6.67,13.122,13.122,0,0,0,5.38,4.782,17.257,17.257,0,0,0,8.038,1.475,36.821,36.821,0,0,0,8.663-1.468,63.3,63.3,0,0,0,7.732-2.746,27.162,27.162,0,0,0,6.492-3.744A19.793,19.793,0,0,0,48.4,34.642,36.144,36.144,0,0,0,51.644,26.8a17.91,17.91,0,0,0,.586-8.724,8.663,8.663,0,0,0-1.707-3.547" transform="translate(88.004 235.21)" fill="#d10dff"/>
        <path id="Path_80989" data-name="Path 80989" d="M.8,8.091c.428,1.649,1.289,3.157,1.719,4.81A26.841,26.841,0,0,1,3,15.989c.14,1,.31,2,.537,2.986a16.954,16.954,0,0,0,2.141,5.4,10.628,10.628,0,0,0,4.358,3.873,13.976,13.976,0,0,0,6.511,1.2,29.805,29.805,0,0,0,7.017-1.189,51.3,51.3,0,0,0,6.263-2.224A22.013,22.013,0,0,0,35.082,23a16.036,16.036,0,0,0,3.859-4.652,29.267,29.267,0,0,0,2.625-6.355,14.5,14.5,0,0,0,.475-7.066,7.015,7.015,0,0,0-1.383-2.873,7.238,7.238,0,0,0-.924-.937L.509.014A15.39,15.39,0,0,0,.8,8.091" transform="translate(199.863 5.613)" fill="#d10dff"/>
        <path id="Path_80990" data-name="Path 80990" d="M.287,5.587c.682,3.532,2.832,6.65,5.2,9.294A39.694,39.694,0,0,0,9.17,18.488c1.253,1.077,2.637,1.976,3.865,3.086A7.915,7.915,0,0,1,15.607,25.7a29.187,29.187,0,0,1,.423,5.389,12.175,12.175,0,0,0,1.29,5.265A19.027,19.027,0,0,0,21,41.035,17.263,17.263,0,0,0,31.2,45.961c3.728.37,7.348-.421,10.989-.874a27.51,27.51,0,0,1,5.508-.224c5.172.4,11.182,1.055,14.542-3.731a6.693,6.693,0,0,0,1.178-4.458,8.67,8.67,0,0,0-1.618-4.119c-1.744-2.518-4.264-4.344-6.023-6.843A14.193,14.193,0,0,1,53.5,21.148a7.021,7.021,0,0,1,.13-3.775,19.9,19.9,0,0,1,1.961-4.1A21.869,21.869,0,0,0,57.7,8.639a17.126,17.126,0,0,0,.6-7L.73.021A10.819,10.819,0,0,0,.287,5.587" transform="translate(63.731 1.79)" fill="#d10dff"/>
        <path id="Path_80991" data-name="Path 80991" d="M42.331,16.011a15.057,15.057,0,0,0-4.993-3.384A20.968,20.968,0,0,0,31.062,11c-2.25-.231-4.514.022-6.756-.442A7.886,7.886,0,0,1,21.275,9.3,8.193,8.193,0,0,1,19.05,6.682C17.935,4.77,17.074,2.644,15.1,1.473a7.379,7.379,0,0,0-5.787-.9C5.825,1.727,4.339,5.8,3.372,9.111A70.8,70.8,0,0,0,.739,20.335C.134,25.552,1.794,31.629,6.117,35.064c3.726,2.961,8.521,3.418,12.925,3.308a38.289,38.289,0,0,0,13.73-2.731c4.265-1.773,8.306-4.665,10.644-8.8a9.539,9.539,0,0,0,1.341-5.976,9,9,0,0,0-2.426-4.854" transform="translate(154.411 246.581)" fill="#d10dff"/>
        <path id="Path_80992" data-name="Path 80992" d="M36.539,12.605a20.968,20.968,0,0,0-6.277-1.624c-2.25-.231-4.514.022-6.756-.442a7.879,7.879,0,0,1-3.031-1.261,8.187,8.187,0,0,1-2.225-2.619c-1.115-1.911-1.976-4.038-3.95-5.208a7.381,7.381,0,0,0-5.787-.9C5.027,1.7,3.541,5.776,2.573,9.086c-4.13,14.125-3.054,29.733,15.67,29.263a38.279,38.279,0,0,0,13.73-2.731c4.265-1.773,8.306-4.665,10.644-8.8.071-.126.14-.253.207-.382l-.249-9.125a10.165,10.165,0,0,0-1.043-1.323,15.059,15.059,0,0,0-4.993-3.384" transform="translate(254.283 11.539)" fill="#d10dff"/>
        <path id="Path_80993" data-name="Path 80993" d="M40.753,10.724c-.4-.29-.816-.611-1.24-.977-4.25-3.668-2.667-9.064-9.64-8.89C19.539,1.116,11.309,4.991,7.535,14.38,5.932,18.368.831,21.027.71,25.649c-.148,5.667,6.012,5.592,7,10.046.437,1.965-2.353,2.817-.9,5.09,1.267,1.984,5.653,1.843,7.533,1.8,6.339-.158,6.757-2.381,9.96-6.771,3.123-4.281,7.166-3.105,11.651-5.241a17.994,17.994,0,0,0,8.972-11.046c1.686-6.153-.736-6.317-4.175-8.8" transform="translate(213.241 256.694)" fill="#d10dff"/>
        <path id="Path_80994" data-name="Path 80994" d="M32.356,17.987a10.869,10.869,0,0,0-.594-3.023c-.794-2.071-2.371-3.675-3.445-5.588A8.894,8.894,0,0,1,27.3,6.33a8.121,8.121,0,0,0-.829-3.017,5.312,5.312,0,0,0-2.633-2.194C19.214-.66,13.632,2.443,9.8,4.6A6.652,6.652,0,0,0,6.91,7.523a7.515,7.515,0,0,0-.226,4.952c.507,2.03,1.484,3.97,1.788,6.043a5.3,5.3,0,0,1-.243,2.763,5.909,5.909,0,0,1-1.98,2.427C4.89,24.728,3.2,25.345,2.057,26.647a5.668,5.668,0,0,0-.738,5.892c2.37,5.606,9.257,11.614,15.353,10.926a8.812,8.812,0,0,0,5.4-2.449c2.462-2.526,3.057-6.388,5.485-8.943.307-.323.639-.618.936-.952a12.051,12.051,0,0,0,.914-1.178A14.72,14.72,0,0,0,30.8,27.365a20.7,20.7,0,0,0,1.535-6.28,18.549,18.549,0,0,0,.021-3.1" transform="translate(252.481 210.207)" fill="#d10dff"/>
        <path id="Path_80995" data-name="Path 80995" d="M52.062,7.384a17.924,17.924,0,0,0-5.288-4.958,8.012,8.012,0,0,0-6.311-.937,14.263,14.263,0,0,0-6.753,4.448,24.111,24.111,0,0,0-4,7.544c-1.044,2.949-1.755,6.044-3.007,8.9C24.647,27.08,21.038,32.9,15.681,33.7c-2.485.373-5.148-.17-7.5.656A12.324,12.324,0,0,0,3.6,37.768C2.1,39.334.549,41.492,1.4,43.626c.586,1.474,2.1,2.3,3.386,3.2s2.571,2.355,2.237,3.86c-.263,1.182-1.427,1.864-1.962,2.93-.793,1.583.021,3.7,1.395,4.926a11.962,11.962,0,0,0,4.9,2.261c4.437,1.25,9.214,2.342,13.4.775,6.177-2.311,10.03-9.942,14.352-14.649a33.638,33.638,0,0,1,3.23-3.079c1.178-.982,2.446-1.823,3.682-2.723a27.726,27.726,0,0,0,9.068-10.607l-.52-19.074a27.036,27.036,0,0,0-2.5-4.062" transform="translate(248.752 254.264)" fill="#d10dff"/>
      </g>
    </g>
  </g>
</svg>
