<svg id="Group_35483" data-name="Group 35483" xmlns="http://www.w3.org/2000/svg" width="51.274" height="51.048" viewBox="0 0 51.274 51.048">
  <g id="Group_35484" data-name="Group 35484">
    <path id="Path_96621" data-name="Path 96621" d="M34.123,26.687c.39-.61.785-1.219,1.179-1.828q.515-.792,1.025-1.586,1.131-1.763,2.249-3.533l.111-.172a2.286,2.286,0,0,0,.461-1.069,1.523,1.523,0,0,0-1.092-1.634,1.5,1.5,0,0,0-1.55.507c-.345.472-.666.977-.977,1.466l-.128.2q-.569.892-1.131,1.787-.623.985-1.249,1.97-.665,1.038-1.335,2.071t-1.333,2.07q-.435.679-.864,1.361c-.425.673-.85,1.347-1.283,2.013a.686.686,0,0,1-.627.25,6.907,6.907,0,0,1-.984-.274,3.881,3.881,0,0,0-2.5.155,8.3,8.3,0,0,0-1.382.643c-.167.09-.335.18-.5.266-.564.289-1.122.586-1.681.882l-.585.311c-.6.316-1.2.631-1.792.957a.611.611,0,0,1-.578.061.637.637,0,0,1-.319-.507,6.889,6.889,0,0,0-1.022-2.5,8.5,8.5,0,0,0-3.609-3.245,8.287,8.287,0,0,0-3.218-.858,9.164,9.164,0,0,0-2.979.271A9.192,9.192,0,0,0,4.059,27.8a8.633,8.633,0,0,0-2.744,2.808,7.656,7.656,0,0,0-.932,2.182A10.65,10.65,0,0,0,0,35.247v8.606Q0,46.375,0,48.9A3.057,3.057,0,0,0,.146,50a1.615,1.615,0,0,0,1.067.977,1.371,1.371,0,0,0,1.257-.262A1.682,1.682,0,0,0,3.105,49.3q.007-6.986,0-13.97a5.695,5.695,0,0,1,5.2-5.871,5.215,5.215,0,0,1,3.139.667,5.552,5.552,0,0,1,3.034,4.788c.013.216.008.434,0,.651a5.129,5.129,0,0,0,.021.809,2.112,2.112,0,0,0,.337.888,1.532,1.532,0,0,0,2.009.323c.237-.141.484-.267.731-.391l1.093-.559c.4-.2.8-.406,1.194-.613s.766-.4,1.148-.606q.614-.326,1.228-.648c.287-.15.577-.295.866-.44.509-.255,1.035-.52,1.536-.8a1.942,1.942,0,0,1,2.241.1,1.918,1.918,0,0,1,.763,1.633,1.79,1.79,0,0,1-.8,1.477c-.6.379-1.249.711-1.872,1.032-.253.13-.5.26-.755.393q-.526.281-1.055.557l-3.742,1.993c-.507.272-1.015.543-1.531.8-.174.086-.343.18-.513.274a5.242,5.242,0,0,1-1.421.608,3.2,3.2,0,0,1-2.769-.7,4.031,4.031,0,0,1-1-1.329l-.1-.182c-.29-.515-.585-1.027-.879-1.538s-.59-1.028-.881-1.543a1.8,1.8,0,0,0-1.339-1.081,1.228,1.228,0,0,0-.174-.013,1.557,1.557,0,0,0-1.439.946,2.043,2.043,0,0,0,.247,1.6c.382.61.741,1.246,1.088,1.86.156.276.312.552.471.827l.161.282A8.793,8.793,0,0,0,11,43.838,5.948,5.948,0,0,0,13.8,45.3c.525.11.678.228.678.793v1.136c0,.779,0,1.559,0,2.338a1.644,1.644,0,0,0,1.25,1.461,1.56,1.56,0,0,0,1.143-.31,1.305,1.305,0,0,0,.609-1.181c-.008-.689-.006-1.378,0-2.066,0-.588,0-1.178,0-1.766a.82.82,0,0,1,.42-.774c.224-.129.454-.247.685-.367l4.963-2.612c.4-.208.8-.416,1.2-.628q1.211-.642,2.416-1.294.207-.111.417-.217a7.892,7.892,0,0,0,1.007-.577,4.773,4.773,0,0,0,2.092-3.891,5.579,5.579,0,0,0-.186-1.357c-.032-.149-.065-.3-.094-.445-.011-.06-.027-.12-.043-.179a1.015,1.015,0,0,1,.081-.917c.517-.768,1.015-1.549,1.513-2.33q.511-.8,1.018-1.61.575-.912,1.155-1.824" fill="#1a73e9"/>
    <path id="Path_96622" data-name="Path 96622" d="M51.094,5.247a7.353,7.353,0,0,0-.563-1.726,6.322,6.322,0,0,0-2.239-2.456A6.247,6.247,0,0,0,44.928.04C41.445.023,37.963.026,34.482.029l-4.039,0-3.385,0c-3.035,0-6.07-.006-9.1.011q-.427,0-.856-.02a6.535,6.535,0,0,0-2.35.191,5.235,5.235,0,0,1-.528.135A3.531,3.531,0,0,0,13.6.522,6.462,6.462,0,0,0,11.05,2.428,6.671,6.671,0,0,0,9.888,4.69a8.037,8.037,0,0,0-.235,2.29l-.006.485a1.6,1.6,0,0,0,1.333,1.58,1.7,1.7,0,0,0,1.238-.358,1.223,1.223,0,0,0,.439-.871c.016-.246.02-.492.023-.739,0-.2.006-.4.016-.606a3.529,3.529,0,0,1,.8-2.217,3.39,3.39,0,0,1,2.687-1.179c2.008-.008,4.014-.006,6.022-.005H32.573q6.036,0,12.072,0a3.514,3.514,0,0,1,1.967.52A3.263,3.263,0,0,1,48.152,6.5l0,5.08q0,4.541-.012,9.083a3.69,3.69,0,0,1-.276,1.359,2.951,2.951,0,0,1-2.577,1.931c-.622.058-1.237.018-1.843.046-.453.023-.932.068-1.509.14a1.527,1.527,0,0,0-.988,1.213,1.606,1.606,0,0,0,.379,1.2,1.441,1.441,0,0,0,1.043.479l.259.011a11.825,11.825,0,0,0,4.213-.319,6.212,6.212,0,0,0,2.231-1.261A5.74,5.74,0,0,0,50.875,22.7a7.382,7.382,0,0,0,.384-2.053V17.021c0-2.7.006-5.392-.011-8.088,0-.317.005-.634.012-.951a10.9,10.9,0,0,0-.167-2.735"/>
    <path id="Path_96623" data-name="Path 96623" d="M2.49,18.338a5.93,5.93,0,0,0,1.754,4.385,6.466,6.466,0,0,0,4.615,1.92,6.39,6.39,0,0,0,4.526-1.959,6.157,6.157,0,0,0,1.74-4.427,6.243,6.243,0,0,0-6.361-6.223H8.755a6.353,6.353,0,0,0-4.5,1.873A6.109,6.109,0,0,0,2.49,18.325Zm3.955-2.272a3.214,3.214,0,0,1,2.3-.98h.013a3.272,3.272,0,0,1,.1,6.543H8.763a3.332,3.332,0,0,1-3.274-3.283,3.215,3.215,0,0,1,.956-2.281" fill="#1a73e9"/>
    <path id="Path_96624" data-name="Path 96624" d="M40.026,9.662h-.009c-2.428.01-4.855.008-7.283.007L21,9.667h-.009a1.844,1.844,0,0,0-.98.2,1.629,1.629,0,0,0-.66,1.74,1.6,1.6,0,0,0,1.518,1.057h0c6.394-.016,12.787-.008,19.182-.018a1.849,1.849,0,0,0,.72-.18,1.407,1.407,0,0,0,.784-.953,1.518,1.518,0,0,0-1.529-1.852"/>
    <path id="Path_96625" data-name="Path 96625" d="M30.313,16.808H30.3c-1.709.013-3.42.013-5.13.012H23.946q-1.422,0-2.846.006a2.747,2.747,0,0,0-.937.184,1.329,1.329,0,0,0-.81.918,1.514,1.514,0,0,0,.267,1.352,1.467,1.467,0,0,0,1.251.553h.022c1.143-.007,2.285-.006,3.426,0l2.522,0q1.676,0,3.349,0c.121,0,.243-.01.363-.019.1-.007.2-.015.3-.018.44-.014,1.048-.759,1.1-1.216a1.55,1.55,0,0,0-.39-1.227,1.68,1.68,0,0,0-1.25-.54"/>
  </g>
</svg>
