<svg xmlns="http://www.w3.org/2000/svg" width="50.445" height="51.482" viewBox="0 0 50.445 51.482">
  <g id="Group_35480" data-name="Group 35480" transform="translate(0)">
    <g id="Group_35481" data-name="Group 35481">
      <path id="Path_96615" data-name="Path 96615" d="M25.214.054A11.834,11.834,0,0,1,26.471.61q9.837,5.829,19.663,11.676c1.071.636,2.146,1.266,3.214,1.906a1.813,1.813,0,0,1,.005,3.279Q37.874,24.3,26.389,31.122a2.108,2.108,0,0,1-2.355-.008Q12.606,24.308,1.165,17.522a1.837,1.837,0,0,1-.007-3.371Q12.525,7.4,23.893.657a13.322,13.322,0,0,1,1.321-.6M5.477,15.861c.251.161.413.271.581.371q9.249,5.5,18.493,11.013a1.155,1.155,0,0,0,1.366-.022q9.264-5.532,18.546-11.034c.148-.089.283-.2.491-.347-.21-.151-.334-.255-.472-.337q-9.418-5.6-18.838-11.2a.753.753,0,0,0-.873.014Q15.427,9.884,6.078,15.436c-.182.108-.347.244-.6.425" fill="#1a73e9"/>
      <path id="Path_96616" data-name="Path 96616" d="M25.221,31.528a2.352,2.352,0,0,1-1.213-.37c-4.635-2.76-9.35-5.561-13.91-8.27L1.139,17.565A2.071,2.071,0,0,1,0,15.832a2.058,2.058,0,0,1,1.129-1.724l6.526-3.875c5.311-3.155,10.8-6.416,16.208-9.619A6.836,6.836,0,0,1,24.75.2c.146-.061.294-.123.443-.19L25.213,0l.02.009c.149.065.3.123.436.18A5.969,5.969,0,0,1,26.5.567c5.34,3.164,10.764,6.388,16.01,9.506l3.653,2.171,1.228.727q.994.588,1.986,1.179a1.863,1.863,0,0,1,0,3.365q-4.971,2.957-9.945,5.91-6.51,3.869-13.019,7.741a2.318,2.318,0,0,1-1.193.362M25.214.109c-.143.064-.286.124-.426.182A6.848,6.848,0,0,0,23.917.7c-5.405,3.2-10.9,6.464-16.208,9.618L1.183,14.194A1.961,1.961,0,0,0,.1,15.832,1.976,1.976,0,0,0,1.19,17.479q4.479,2.664,8.959,5.323c4.56,2.709,9.275,5.51,13.91,8.27a2.066,2.066,0,0,0,2.3.008q6.507-3.875,13.019-7.741,4.972-2.953,9.945-5.91a1.764,1.764,0,0,0-.006-3.193c-.66-.4-1.322-.787-1.985-1.179l-1.228-.727-3.652-2.171C37.209,7.041,31.784,3.817,26.445.653a5.9,5.9,0,0,0-.813-.372c-.136-.054-.275-.11-.418-.172m-.005,27.4a1.327,1.327,0,0,1-.685-.221C19.7,24.4,14.789,21.482,10.038,18.657L6.032,16.276c-.108-.064-.213-.133-.341-.216L5.449,15.9l-.062-.039.06-.043c.088-.063.164-.119.235-.171a4.184,4.184,0,0,1,.37-.257l6.6-3.922q6.05-3.6,12.1-7.192a.805.805,0,0,1,.924-.015q6.732,4.009,13.47,8.01l5.368,3.189a3.341,3.341,0,0,1,.284.2c.056.042.118.088.191.14l.057.041-.057.04-.189.139c-.11.081-.2.151-.306.211l-4.8,2.855c-4.506,2.677-9.166,5.446-13.742,8.18a1.434,1.434,0,0,1-.733.242M5.565,15.859l.181.117c.126.082.23.15.337.214l4.006,2.381C14.84,21.4,19.753,24.316,24.576,27.2a1.1,1.1,0,0,0,1.314-.021c4.577-2.734,9.237-5.5,13.742-8.18l4.805-2.855a3.471,3.471,0,0,0,.3-.206l.134-.1-.136-.1a3.225,3.225,0,0,0-.275-.192l-5.368-3.19q-6.737-4-13.47-8.009a.71.71,0,0,0-.823.015q-6.043,3.6-12.093,7.192L6.1,15.479a4.29,4.29,0,0,0-.361.251l-.177.129"/>
      <path id="Path_96617" data-name="Path 96617" d="M25.213,51.428a8.926,8.926,0,0,1-1.122-.47Q12.571,44.132,1.063,37.287a1.8,1.8,0,0,1-.753-2.53,1.826,1.826,0,0,1,2.63-.552q7.915,4.7,15.828,9.408c1.966,1.169,3.94,2.325,5.9,3.511a.948.948,0,0,0,1.121-.01q10.783-6.426,21.582-12.829a1.883,1.883,0,0,1,2.5.129,1.787,1.787,0,0,1-.454,2.849q-3.758,2.249-7.528,4.477-7.7,4.573-15.4,9.14a10.811,10.811,0,0,1-1.268.548"/>
      <path id="Path_96618" data-name="Path 96618" d="M25.214,51.482l-.019-.008c-.136-.055-.267-.1-.394-.151A4.458,4.458,0,0,1,24.067,51c-6.709-3.975-14.027-8.32-23.029-13.672a2.063,2.063,0,0,1-.984-1.252,1.759,1.759,0,0,1,.213-1.346,1.876,1.876,0,0,1,2.7-.569Q8,37.149,13.024,40.14l5.77,3.43q.885.527,1.77,1.049c1.355.8,2.757,1.631,4.126,2.462a.9.9,0,0,0,1.07-.01c5.848-3.485,11.8-7.018,17.553-10.436l4.029-2.393a1.94,1.94,0,0,1,2.56.138,1.839,1.839,0,0,1,.517,1.526,1.952,1.952,0,0,1-.982,1.4c-1.837,1.1-3.709,2.209-5.519,3.284l-4.7,2.79c-4.165,2.475-8.473,5.034-12.714,7.543a5.856,5.856,0,0,1-.859.386c-.138.053-.277.106-.415.165ZM1.827,33.929a1.693,1.693,0,0,0-1.474.854,1.667,1.667,0,0,0-.2,1.27,1.965,1.965,0,0,0,.939,1.19c9,5.353,16.32,9.7,23.029,13.672a4.43,4.43,0,0,0,.717.314c.123.045.249.092.378.145.133-.056.266-.108.4-.158a5.688,5.688,0,0,0,.844-.379C30.7,48.328,35,45.769,39.169,43.294l4.7-2.79c1.81-1.075,3.682-2.185,5.518-3.284a1.854,1.854,0,0,0,.935-1.329,1.731,1.731,0,0,0-.492-1.442,1.824,1.824,0,0,0-2.435-.121l-4.029,2.393c-5.754,3.417-11.7,6.951-17.553,10.436a1,1,0,0,1-1.172.01c-1.37-.831-2.77-1.66-4.126-2.462q-.885-.524-1.77-1.049l-5.77-3.43q-5.028-2.99-10.058-5.978a2.131,2.131,0,0,0-1.088-.319"/>
      <path id="Path_96619" data-name="Path 96619" d="M25.258,41.53a10.6,10.6,0,0,1-1.276-.547q-8.427-4.988-16.84-10c-2.03-1.207-4.065-2.407-6.091-3.621A1.8,1.8,0,1,1,2.9,24.279c1.53.885,3.041,1.8,4.56,2.7q8.658,5.143,17.312,10.3a.791.791,0,0,0,.921-.021q9.42-5.61,18.848-11.2c1.072-.637,2.138-1.283,3.227-1.887a1.743,1.743,0,0,1,2.022.266,1.66,1.66,0,0,1,.432,1.983,2.5,2.5,0,0,1-.88.961c-4.528,2.718-9.075,5.406-13.616,8.1-3.022,1.795-6.039,3.6-9.067,5.384-.438.258-.921.44-1.4.667"/>
      <path id="Path_96620" data-name="Path 96620" d="M25.259,41.585l-.02-.009c-.155-.065-.3-.122-.449-.178a5.276,5.276,0,0,1-.833-.371c-4.37-2.587-8.808-5.225-13.1-7.776l-3.74-2.223q-1.008-.6-2.017-1.2c-1.337-.792-2.719-1.611-4.075-2.423A1.854,1.854,0,0,1,1.1,24.066a2.041,2.041,0,0,1,1.832.17c1.077.623,2.162,1.272,3.213,1.9q.673.4,1.347.8l3.251,1.932c4.61,2.738,9.377,5.57,14.06,8.363a.738.738,0,0,0,.871-.021C31.9,33.5,38.143,29.8,44.519,26.009l.6-.355c.857-.511,1.744-1.04,2.632-1.532a1.805,1.805,0,0,1,2.081.273,1.7,1.7,0,0,1,.442,2.042,2.54,2.54,0,0,1-.9.981C45.921,29.488,42.4,31.577,39,33.6l-3.245,1.926L33.037,37.14c-2.079,1.237-4.229,2.516-6.349,3.766a9.017,9.017,0,0,1-.946.462c-.154.067-.308.135-.462.208ZM1.813,24.021a1.692,1.692,0,0,0-.676.137,1.754,1.754,0,0,0-.06,3.164c1.356.812,2.737,1.631,4.074,2.423q1.009.6,2.017,1.2l3.74,2.223c4.292,2.551,8.73,5.189,13.1,7.776a5.42,5.42,0,0,0,.818.364c.14.053.284.109.432.171.149-.07.3-.135.445-.2a8.811,8.811,0,0,0,.935-.456c2.12-1.25,4.269-2.529,6.348-3.766q1.36-.809,2.72-1.617l3.244-1.927c3.4-2.019,6.921-4.107,10.371-6.178a2.431,2.431,0,0,0,.861-.941,1.6,1.6,0,0,0-.421-1.923,1.7,1.7,0,0,0-1.964-.259c-.887.492-1.773,1.02-2.63,1.531l-.6.355c-6.376,3.786-12.615,7.492-18.848,11.2a.834.834,0,0,1-.972.021c-4.684-2.793-9.451-5.625-14.061-8.363L7.438,27.025l-1.348-.8c-1.049-.627-2.135-1.276-3.211-1.9a2.146,2.146,0,0,0-1.066-.3"/>
    </g>
  </g>
</svg>
