<svg xmlns="http://www.w3.org/2000/svg" width="60.073" height="60.04" viewBox="0 0 60.073 60.04">
  <g id="Group_35477" data-name="Group 35477" transform="translate(0 0)">
    <g id="Group_35478" data-name="Group 35478">
      <path id="Path_96610" data-name="Path 96610" d="M60.067,27.733l0-.812c0-.52.007-1.039,0-1.558a1.67,1.67,0,0,0-1.748-1.9l-.563-.05c-1.168-.1-2.338-.211-3.507-.285-.284-.018-.381-.094-.5-.391-.579-1.483-1.113-2.77-1.633-3.935a.516.516,0,0,1,.089-.679c.848-.971,1.673-1.962,2.523-2.983.921-1.105.9-1.745-.089-2.742Q51.1,8.836,47.532,5.3a1.591,1.591,0,0,0-2.475-.1C44.1,6,43.063,6.87,42.038,7.773a.669.669,0,0,1-.885.113c-1.136-.523-2.32-.981-3.465-1.424L37.261,6.3c-.255-.1-.318-.176-.334-.414-.092-1.319-.211-2.636-.33-3.953l-.027-.292A1.574,1.574,0,0,0,34.824.009c-3.9-.016-7.154-.01-10.23.016-1.264.01-1.772.5-1.874,1.82l-.007.083c-.1,1.3-.2,2.649-.354,3.966a.648.648,0,0,1-.3.379c-.652.286-1.312.554-1.97.823s-1.34.546-2,.837c-.317.14-.46.125-.684-.074-.764-.672-1.543-1.329-2.321-1.985l-.7-.587a1.671,1.671,0,0,0-2.657.081q-3.6,3.586-7.179,7.193a1.571,1.571,0,0,0-.07,2.428l.38.452c.76.908,1.52,1.815,2.294,2.709a.433.433,0,0,1,.075.608A8.8,8.8,0,0,0,6.571,20.2a1.462,1.462,0,0,0,.2,1.341,1.578,1.578,0,0,0,2.725-.308l.337-.669c.239-.478.478-.957.734-1.427a1.658,1.658,0,0,0-.216-2.025c-.361-.421-.718-.846-1.075-1.27-.494-.585-.988-1.171-1.49-1.748-.164-.187-.162-.22.008-.388q2.58-2.562,5.135-5.151c.209-.211.254-.213.474-.018.651.572,1.318,1.128,1.984,1.683.364.3.728.607,1.089.913A1.557,1.557,0,0,0,18.4,11.3a22.973,22.973,0,0,1,5.746-2.376,1.516,1.516,0,0,0,1.214-1.429c.045-.529.092-1.056.139-1.585.072-.826.146-1.653.207-2.48.022-.3.049-.315.3-.316q3.669.027,7.334,0c.222,0,.249.006.268.27.052.757.12,1.513.187,2.269.046.539.094,1.079.138,1.62a1.619,1.619,0,0,0,1.338,1.66,23.917,23.917,0,0,1,5.589,2.319,1.583,1.583,0,0,0,2.116-.211l.652-.548c.779-.655,1.558-1.309,2.325-1.976.22-.189.246-.161.388-.018q2.582,2.6,5.186,5.181c.18.176.193.216,0,.433-.83.952-1.639,1.924-2.446,2.9a1.629,1.629,0,0,0-.215,2.307,23.327,23.327,0,0,1,2.242,5.432A1.64,1.64,0,0,0,52.8,26.12c.582.049,1.164.1,1.744.155.734.067,1.466.134,2.2.193.185.015.192.015.192.215-.013,2.445-.018,4.89,0,7.334,0,.278-.016.314-.336.334-1.365.092-2.707.216-3.953.336A1.526,1.526,0,0,0,51.111,36a22.8,22.8,0,0,1-2.318,5.582,1.565,1.565,0,0,0,.192,2.066l.39.465c.719.857,1.438,1.715,2.167,2.562.177.2.167.226.007.384q-2.605,2.575-5.177,5.19c-.179.179-.211.194-.426,0-.629-.556-1.273-1.1-1.918-1.634q-.553-.464-1.1-.93a1.64,1.64,0,0,0-1.973-.224l-.842.436c-.472.244-.944.487-1.414.737a1.548,1.548,0,0,0,1.346,2.786,8.4,8.4,0,0,0,1.285-.624c.21-.134.318-.12.536.068.807.693,1.621,1.378,2.433,2.063l.682.574a2.07,2.07,0,0,0,1.295.6,1.925,1.925,0,0,0,1.316-.69q3.6-3.583,7.195-7.18a1.6,1.6,0,0,0,.1-2.432l-.4-.471c-.743-.887-1.486-1.774-2.251-2.64a.578.578,0,0,1-.1-.773c.6-1.333,1.148-2.712,1.6-3.884.113-.291.193-.358.445-.374.88-.06,1.758-.137,2.638-.214.495-.043.991-.087,1.487-.127a1.709,1.709,0,0,0,1.757-1.906Z" fill="#1a73e9"/>
      <path id="Path_96611" data-name="Path 96611" d="M38.527,45.459a1.447,1.447,0,0,0,.5.087,2.1,2.1,0,0,0,1.266-.483c6.15-4.76,8.527-10.975,7.068-18.472A18,18,0,0,0,31,12.319a17.789,17.789,0,0,0-14.666,5.817,15,15,0,0,0-1.664,2.2,1.4,1.4,0,0,0,.477,1.86,1.476,1.476,0,0,0,1.9-.086,4.484,4.484,0,0,0,.5-.573l.072-.093A14.855,14.855,0,0,1,29.157,15.39a15.271,15.271,0,0,1,10.362,3.681A15.068,15.068,0,0,1,42.47,38.23a15.627,15.627,0,0,1-4.136,4.413,1.548,1.548,0,0,0-.737,1.663,1.508,1.508,0,0,0,.93,1.153" fill="#1a73e9"/>
      <path id="Path_96612" data-name="Path 96612" d="M32.84,25.362l-8.159,0-.986,0c-.776,0-1.553-.006-2.33.009a1.6,1.6,0,0,0-1.3.655,1.547,1.547,0,0,0-.187,1.4c.16.487.6,1.068,1.805,1.07l7.67.016c-.019.021-.038.04-.057.059L6.767,51.084a2,2,0,0,0-.677,1.375,1.431,1.431,0,0,0,.458,1.023,1.53,1.53,0,0,0,1.063.484,1.941,1.941,0,0,0,1.329-.652c.345-.332.682-.672,1.018-1.012L31.174,31.079c.123-.123.25-.243.4-.38,0,.044.007.086.008.128,0,1.342,0,2.682,0,4.024v3.6a1.609,1.609,0,0,0,1.508,1.823,1.407,1.407,0,0,0,1.085-.4,1.882,1.882,0,0,0,.513-1.393q.006-5.646,0-11.29a1.6,1.6,0,0,0-1.844-1.829"/>
      <path id="Path_96613" data-name="Path 96613" d="M11.224,31.024c.005.058.009.113.009.167,0,.647,0,1.294.005,1.94,0,.871,0,1.741.01,2.611a1.507,1.507,0,0,0,1.494,1.629,1.547,1.547,0,0,0,1.106-.419,1.666,1.666,0,0,0,.473-1.194c.014-1.22.013-2.441.011-3.661V30.733l0-.92c0-.837.005-1.675-.01-2.512a1.451,1.451,0,0,0-1.473-1.572c-3.381-.019-6.162-.013-8.749.017a1.776,1.776,0,0,0-1.051.52,1.358,1.358,0,0,0-.258,1.6,1.5,1.5,0,0,0,1.446.924q2.333,0,4.666.015c.032,0,.065,0,.1,0-.142.156-.267.292-.4.423L5.33,32.509q-2.352,2.349-4.7,4.7A1.939,1.939,0,0,0,0,38.575a1.45,1.45,0,0,0,.474,1.048,1.432,1.432,0,0,0,1,.41,1.973,1.973,0,0,0,1.354-.621L11.1,31.139c.039-.038.079-.076.122-.115"/>
      <path id="Path_96614" data-name="Path 96614" d="M32.788,45.738q-4.258-.021-8.517,0a1.729,1.729,0,0,0-.818.207,1.446,1.446,0,0,0-.724,1.69A1.4,1.4,0,0,0,24.1,48.792c1.014.025,2.029.025,3.044.026l1.887,0c-.028.03-.057.06-.086.089l-2.77,2.774q-2.771,2.774-5.538,5.551a1.6,1.6,0,0,0-.178,2.359,1.44,1.44,0,0,0,1.038.447,1.945,1.945,0,0,0,1.314-.587c.075-.069.149-.14.221-.212l2.313-2.318q2.892-2.9,5.787-5.8a1.28,1.28,0,0,1,.121-.109v0l.013,4.671a1.542,1.542,0,1,0,3.071.014q.013-4.2,0-8.4a1.483,1.483,0,0,0-1.547-1.569"/>
    </g>
  </g>
</svg>
