<svg xmlns="http://www.w3.org/2000/svg" width="64.756" height="45.625" viewBox="0 0 64.756 45.625">
  <g id="Group_35622" data-name="Group 35622" transform="translate(0 0)">
    <g id="Group_35623" data-name="Group 35623" transform="translate(0 0)">
      <path id="Path_96768" data-name="Path 96768" d="M59.152,25.436a7.431,7.431,0,0,0-2.814-.582h-.014l-.236.014-.631.037-3.466-3.47q-3.892-3.892-7.8-7.8a7.134,7.134,0,0,0-2.327-6.209A7.024,7.024,0,0,0,37.9,5.591a3.185,3.185,0,0,0-1.629.078,1.906,1.906,0,0,0-1.157,1.351,1.849,1.849,0,0,0,.429,1.672c.449.487.92.955,1.392,1.423l.754.751c.1.1.2.2.3.3a.328.328,0,0,1-.005.513q-1.042,1.05-2.089,2.092a.355.355,0,0,1-.582,0q-.76-.75-1.514-1.509l-.757-.756a1.946,1.946,0,0,0-2.58-.226,1.768,1.768,0,0,0-.746,1.411,7.291,7.291,0,0,0,5.394,7.132,7.194,7.194,0,0,0,2.688.181q2.36,2.344,4.713,4.7l5.782,5.783c.267.264.533.529.8.793a7.248,7.248,0,0,0,7.173,8.107,1.908,1.908,0,0,0,1.458-3.182c-.42-.453-.86-.888-1.3-1.324l-.717-.713c-.131-.13-.262-.261-.39-.4a.336.336,0,0,1-.005-.54q1.061-1.072,2.135-2.133a.343.343,0,0,1,.521.038c.739.731,1.479,1.464,2.21,2.206a2.019,2.019,0,0,0,1.571.677,1.885,1.885,0,0,0,1.828-1.85,7.243,7.243,0,0,0-4.418-6.74m-5.321,6.293a2.441,2.441,0,0,0,.037,3.6l.667.668c.422.421.843.841,1.255,1.256a5.33,5.33,0,0,1-1.727-.477,5.135,5.135,0,0,1-2.837-5.494,1.264,1.264,0,0,0-.379-1.217q-1.791-1.78-3.574-3.569l-3.105-3.105q-2.578-2.578-5.156-5.159a1.211,1.211,0,0,0-.886-.391,1.446,1.446,0,0,0-.284.029,4.657,4.657,0,0,1-2.353-.131,5.046,5.046,0,0,1-3.483-3.587,4.849,4.849,0,0,1-.141-.826l.44.436c.479.471.959.941,1.416,1.433a2.543,2.543,0,0,0,3.717.021c.4-.418.81-.826,1.221-1.231q.39-.385.776-.773a2.449,2.449,0,0,0-.017-3.6l-.736-.736c-.4-.4-.806-.8-1.2-1.2a5.037,5.037,0,0,1,2.227.754,5.1,5.1,0,0,1,2.327,5.33,1.1,1.1,0,0,0,.3,1L54.317,26.743a1.139,1.139,0,0,0,1.056.323c.243-.042.491-.068.672-.086l.136-.015a5.148,5.148,0,0,1,5.246,4.647q-.554-.548-1.1-1.1l-.852-.851a2.424,2.424,0,0,0-3.541-.034q-1.067,1.034-2.1,2.1" transform="translate(1.186 0.221)"/>
      <path id="Path_96769" data-name="Path 96769" d="M55.93,44.033H1.265A1.265,1.265,0,0,1,0,42.767V41.139a1.265,1.265,0,0,1,1.265-1.266H55.93A1.266,1.266,0,0,1,57.2,41.139v1.629a1.266,1.266,0,0,1-1.266,1.266" transform="translate(0 1.592)" fill="#1a73e9"/>
      <path id="Path_96770" data-name="Path 96770" d="M48.525,34.535H28.472c-7.71,0-15.419-.03-23.128.028-1.341.01-1.717-.385-1.709-1.719q.083-13.869,0-27.74C3.631,3.746,4.074,3.394,5.383,3.4q23.194.058,46.388.027c1.74,0,1.746.008,1.746,1.786q0,7.132,0,14.261l3.516,2.636q0-9.721,0-19.442C57.027.529,56.492,0,54.388,0Q41.5,0,28.609,0,15.653,0,2.7,0C.758,0,.153.582.152,2.495q-.009,16.452,0,32.9c0,2.008.622,2.629,2.581,2.629q23.768,0,47.537,0Z" transform="translate(0.006 0)" fill="#1a73e9"/>
    </g>
  </g>
</svg>
